<svg xmlns="http://www.w3.org/2000/svg" xmlns:xlink="http://www.w3.org/1999/xlink" width="98" height="98" viewBox="0 0 98 98">
  <defs>
    <filter id="Trazado_982547" x="0" y="0" width="98" height="98" filterUnits="userSpaceOnUse">
      <feOffset dy="3" input="SourceAlpha"/>
      <feGaussianBlur stdDeviation="3" result="blur"/>
      <feFlood flood-opacity="0.161"/>
      <feComposite operator="in" in2="blur"/>
      <feComposite in="SourceGraphic"/>
    </filter>
    <clipPath id="clip-path">
      <path id="path8121" d="M0-682.665H48.414v48.414H0Z" transform="translate(0 682.665)"/>
    </clipPath>
  </defs>
  <g id="Grupo_1208169" data-name="Grupo 1208169" transform="translate(-191 -1910.348)">
    <g id="Grupo_1207915" data-name="Grupo 1207915" transform="translate(0 -175.204)">
      <g id="Grupo_1207712" data-name="Grupo 1207712">
        <g id="Grupo_1207285" data-name="Grupo 1207285" transform="translate(0 344.552)">
          <g id="Grupo_1206883" data-name="Grupo 1206883" transform="translate(0 -209)">
            <g id="Grupo_1204569" data-name="Grupo 1204569" transform="translate(-81 -1890.336)">
              <g id="Grupo_1203962" data-name="Grupo 1203962" transform="translate(281 3846.336)">
                <g id="Grupo_1203498" data-name="Grupo 1203498" transform="translate(0)">
                  <g id="Grupo_1202589" data-name="Grupo 1202589">
                    <g id="Grupo_1172010" data-name="Grupo 1172010">
                      <g id="Grupo_1171046" data-name="Grupo 1171046">
                        <g id="Grupo_1148525" data-name="Grupo 1148525">
                          <g transform="matrix(1, 0, 0, 1, -9, -6)" filter="url(#Trazado_982547)">
                            <g id="Trazado_982547-2" data-name="Trazado 982547" transform="translate(9 6)" fill="#fdfbec">
                              <path d="M 39.99999237060547 78.49998474121094 C 34.8018684387207 78.49998474121094 29.76002502441406 77.48226165771484 25.0145263671875 75.47508239746094 C 20.43014717102051 73.53604888916016 16.31264877319336 70.75984954833984 12.77639198303223 67.22359466552734 C 9.240137100219727 63.68733596801758 6.463936805725098 59.5698356628418 4.524903297424316 54.98546981811523 C 2.517725706100464 50.23995971679688 1.500003457069397 45.19811630249023 1.500003457069397 39.99999237060547 C 1.500003457069397 34.8018684387207 2.517725706100464 29.76002502441406 4.524903297424316 25.0145263671875 C 6.463936805725098 20.43014717102051 9.240137100219727 16.31264877319336 12.77639198303223 12.77639198303223 C 16.31264877319336 9.240137100219727 20.43014717102051 6.463936805725098 25.0145263671875 4.524903297424316 C 29.76002502441406 2.517725706100464 34.8018684387207 1.500003457069397 39.99999237060547 1.500003457069397 C 45.19811630249023 1.500003457069397 50.23995971679688 2.517725706100464 54.98546981811523 4.524903297424316 C 59.5698356628418 6.463936805725098 63.68733596801758 9.240137100219727 67.22359466552734 12.77639198303223 C 70.75984954833984 16.31264877319336 73.53604888916016 20.43014717102051 75.47508239746094 25.0145263671875 C 77.48226165771484 29.76002502441406 78.49998474121094 34.8018684387207 78.49998474121094 39.99999237060547 C 78.49998474121094 45.19812393188477 77.48226165771484 50.23995971679688 75.47508239746094 54.98546981811523 C 73.53604888916016 59.5698356628418 70.75984954833984 63.68733596801758 67.22359466552734 67.22359466552734 C 63.68733596801758 70.75984954833984 59.5698356628418 73.53604888916016 54.98546981811523 75.47508239746094 C 50.23995971679688 77.48226165771484 45.19812393188477 78.49998474121094 39.99999237060547 78.49998474121094 Z" stroke="none"/>
                              <path d="M 39.99999237060547 2.999992370605469 C 35.00370025634766 2.999992370605469 30.1584587097168 3.97784423828125 25.59884643554688 5.906402587890625 C 21.19327163696289 7.769805908203125 17.23603057861328 10.43805694580078 13.83704376220703 13.83704376220703 C 10.43805694580078 17.23603057861328 7.769805908203125 21.19327163696289 5.906402587890625 25.59884643554688 C 3.97784423828125 30.1584587097168 2.999992370605469 35.00370025634766 2.999992370605469 39.99999237060547 C 2.999992370605469 44.99628448486328 3.97784423828125 49.84152603149414 5.906402587890625 54.40113830566406 C 7.769805908203125 58.80671310424805 10.43805694580078 62.76395416259766 13.83704376220703 66.16294097900391 C 17.23603057861328 69.56191253662109 21.19327163696289 72.23016357421875 25.59884643554688 74.09356689453125 C 30.1584587097168 76.02212524414062 35.00370025634766 76.99997711181641 39.99999237060547 76.99997711181641 C 44.99628448486328 76.99997711181641 49.84152603149414 76.02212524414062 54.40113830566406 74.09356689453125 C 58.80671310424805 72.23016357421875 62.76395416259766 69.56191253662109 66.16294097900391 66.16294097900391 C 69.56191253662109 62.76395416259766 72.23016357421875 58.80671310424805 74.09356689453125 54.40113830566406 C 76.02212524414062 49.84152603149414 76.99997711181641 44.99628448486328 76.99997711181641 39.99999237060547 C 76.99997711181641 35.00370025634766 76.02212524414062 30.1584587097168 74.09356689453125 25.59884643554688 C 72.23016357421875 21.19327163696289 69.56191253662109 17.23603057861328 66.16294097900391 13.83704376220703 C 62.76395416259766 10.43805694580078 58.80671310424805 7.769805908203125 54.40113830566406 5.906402587890625 C 49.84152603149414 3.97784423828125 44.99628448486328 2.999992370605469 39.99999237060547 2.999992370605469 M 39.99999237060547 -7.62939453125e-06 C 62.09137725830078 -7.62939453125e-06 79.99997711181641 17.90860748291016 79.99997711181641 39.99999237060547 C 79.99997711181641 62.09137725830078 62.09137725830078 79.99997711181641 39.99999237060547 79.99997711181641 C 17.90860748291016 79.99997711181641 -7.62939453125e-06 62.09137725830078 -7.62939453125e-06 39.99999237060547 C -7.62939453125e-06 17.90860748291016 17.90860748291016 -7.62939453125e-06 39.99999237060547 -7.62939453125e-06 Z" stroke="none" fill="#83793c"/>
                            </g>
                          </g>
                        </g>
                      </g>
                    </g>
                  </g>
                </g>
              </g>
            </g>
          </g>
        </g>
        <g id="g8115" transform="translate(215.793 2790.01)">
          <g id="g8117" transform="translate(0 -682.665)">
            <g id="g8119" clip-path="url(#clip-path)">
              <g id="g8125" transform="translate(-33.259 0.709)">
                <path id="path8127" d="M-338.457-377.826h-25.835v-25.108c5.31-7.679,37.755-5.416,25.835,25.108" transform="translate(364.292 406.667)" fill="#fbdf63"/>
              </g>
              <g id="g8129" transform="translate(-33.259 0.709)">
                <path id="path8131" d="M-338.457-377.826h-.619c6.164-24.728-15.887-30.6-25.216-24.374v-.734c5.31-7.679,37.755-5.416,25.835,25.108" transform="translate(364.292 406.667)" fill="#f9d11f"/>
              </g>
            </g>
          </g>
          <g id="g8265" transform="translate(0 -682.665)">
            <g id="g8267" clip-path="url(#clip-path)">
              <g id="g8273" transform="translate(-33.259 51.036)">
                <path id="path8275" d="M-338.457-377.654h-25.835v-25.1c5.31-7.676,37.755-5.413,25.835,25.1" transform="translate(364.292 406.481)" fill="#003343"/>
              </g>
              <g id="g8277" transform="translate(-33.259 51.036)">
                <path id="path8279" d="M-338.457-377.654h-.619c6.164-24.717-15.887-30.585-25.216-24.362v-.734c5.31-7.676,37.755-5.413,25.835,25.1" transform="translate(364.292 406.481)" fill="#002439"/>
              </g>
            </g>
          </g>
          <g id="g8281" transform="translate(0 -682.665)">
            <g id="g8283" clip-path="url(#clip-path)">
              <g id="g8289" transform="translate(17.066 51.014)">
                <path id="path8291" d="M-338.457-377.826h-25.835v-25.108c5.31-7.679,37.755-5.416,25.835,25.108" transform="translate(364.292 406.667)" fill="#ff7e50"/>
              </g>
              <g id="g8293" transform="translate(17.066 51.014)">
                <path id="path8295" d="M-338.457-377.826h-.619c6.164-24.728-15.887-30.6-25.216-24.374v-.734c5.31-7.679,37.755-5.416,25.835,25.108" transform="translate(364.292 406.667)" fill="#ff6247"/>
              </g>
              <g id="g8297" transform="translate(2.941 54.225)">
                <path id="path8299" d="M-233.028-131.751v15.573h-14.6c-12.2-25.649,14.6-34.273,14.6-15.573" transform="translate(250.816 141.808)" fill="#ffa68a"/>
              </g>
              <g id="g8301" transform="translate(2.941 54.225)">
                <path id="path8303" d="M-233.028-131.751c-.9-16.1-20.23-9.82-14.176,15.573h-.427c-12.2-25.649,14.6-34.273,14.6-15.573" transform="translate(250.816 141.808)" fill="#ff7e50"/>
              </g>
            </g>
          </g>
        </g>
      </g>
    </g>
    <g id="discussion_5985773" transform="translate(199.829 1916.177)">
      <g id="Grupo_1208155" data-name="Grupo 1208155" transform="translate(18.416 18.417)">
        <path id="Trazado_1052707" data-name="Trazado 1052707" d="M61.755,83.509a21.755,21.755,0,1,1,15.383-6.372,21.612,21.612,0,0,1-15.383,6.372Zm0-41.9A20.143,20.143,0,1,0,81.9,61.755,20.166,20.166,0,0,0,61.755,41.611Z" transform="translate(-40 -40)" fill="#4793cd"/>
      </g>
      <circle id="Elipse_13446" data-name="Elipse 13446" cx="2.417" cy="2.417" r="2.417" transform="translate(18.416 16.806)" fill="#20435d"/>
      <path id="Trazado_1052708" data-name="Trazado 1052708" d="M28.029,72A4.029,4.029,0,0,0,24,76.029v2.417h8.057V76.029A4.029,4.029,0,0,0,28.029,72Z" transform="translate(-7.195 -50.36)" fill="#356e99"/>
      <circle id="Elipse_13447" data-name="Elipse 13447" cx="2.417" cy="2.417" r="2.417" transform="translate(57.091 16.806)" fill="#20435d"/>
      <path id="Trazado_1052709" data-name="Trazado 1052709" d="M412.029,72a4.029,4.029,0,0,1,4.029,4.029v2.417H408V76.029A4.029,4.029,0,0,1,412.029,72Z" transform="translate(-352.52 -50.36)" fill="#356e99"/>
      <circle id="Elipse_13448" data-name="Elipse 13448" cx="2.417" cy="2.417" r="2.417" transform="translate(18.416 52.258)" fill="#20435d"/>
      <path id="Trazado_1052710" data-name="Trazado 1052710" d="M28.029,424A4.029,4.029,0,0,0,24,428.029v2.417h8.057v-2.417A4.029,4.029,0,0,0,28.029,424Z" transform="translate(-7.195 -366.908)" fill="#356e99"/>
      <circle id="Elipse_13449" data-name="Elipse 13449" cx="2.417" cy="2.417" r="2.417" transform="translate(57.091 52.258)" fill="#20435d"/>
      <path id="Trazado_1052711" data-name="Trazado 1052711" d="M412.029,424a4.029,4.029,0,0,1,4.029,4.029v2.417H408v-2.417A4.029,4.029,0,0,1,412.029,424Z" transform="translate(-352.52 -366.908)" fill="#356e99"/>
      <path id="Trazado_1052712" data-name="Trazado 1052712" d="M136,133.182v-7.028a1.32,1.32,0,0,1,1.32-1.32h1.1L137.611,120l5.64,4.834h5.931a1.32,1.32,0,0,1,1.32,1.32v7.028a1.32,1.32,0,0,1-1.32,1.32H137.32A1.32,1.32,0,0,1,136,133.182Z" transform="translate(-107.915 -93.525)" fill="#974b47"/>
      <path id="Trazado_1052713" data-name="Trazado 1052713" d="M120,249.32v7.028a1.32,1.32,0,0,0,1.32,1.32h1.1l-.806,4.834,5.64-4.834h5.931a1.32,1.32,0,0,0,1.32-1.32V249.32a1.32,1.32,0,0,0-1.32-1.32H121.32A1.32,1.32,0,0,0,120,249.32Z" transform="translate(-93.526 -208.634)" fill="#cd6660"/>
      <path id="Trazado_1052714" data-name="Trazado 1052714" d="M246.5,149.182v-7.028a1.32,1.32,0,0,0-1.32-1.32h-1.1l.806-4.834-5.64,4.834H233.32a1.32,1.32,0,0,0-1.32,1.32v7.028a1.32,1.32,0,0,0,1.32,1.32h11.863A1.32,1.32,0,0,0,246.5,149.182Z" transform="translate(-194.246 -107.913)" fill="#957749"/>
      <path id="Trazado_1052715" data-name="Trazado 1052715" d="M262.5,265.32v7.028a1.32,1.32,0,0,1-1.32,1.32h-1.1l.806,4.834-5.64-4.834H249.32a1.32,1.32,0,0,1-1.32-1.32V265.32a1.32,1.32,0,0,1,1.32-1.32h11.863A1.32,1.32,0,0,1,262.5,265.32Z" transform="translate(-208.635 -223.023)" fill="#cfa565"/>
      <g id="Grupo_1208156" data-name="Grupo 1208156" transform="translate(31.308 32.92)">
        <path id="Trazado_1052716" data-name="Trazado 1052716" d="M172.029,185.611h-3.223a.806.806,0,1,1,0-1.611h3.223a.806.806,0,0,1,0,1.611Z" transform="translate(-168 -184)" fill="#20435d"/>
      </g>
      <g id="Grupo_1208157" data-name="Grupo 1208157" transform="translate(30.502 36.143)">
        <path id="Trazado_1052717" data-name="Trazado 1052717" d="M164.834,217.611h-4.029a.806.806,0,1,1,0-1.611h4.029a.806.806,0,1,1,0,1.611Z" transform="translate(-160 -216)" fill="#20435d"/>
      </g>
      <g id="Grupo_1208158" data-name="Grupo 1208158" transform="translate(43.394 34.532)">
        <path id="Trazado_1052718" data-name="Trazado 1052718" d="M293.64,201.611h-4.834a.806.806,0,1,1,0-1.611h4.834a.806.806,0,0,1,0,1.611Z" transform="translate(-288 -200)" fill="#20435d"/>
      </g>
      <g id="Grupo_1208159" data-name="Grupo 1208159" transform="translate(40.171 37.755)">
        <path id="Trazado_1052719" data-name="Trazado 1052719" d="M264.863,233.611h-8.057a.806.806,0,1,1,0-1.611h8.057a.806.806,0,1,1,0,1.611Z" transform="translate(-256 -232)" fill="#20435d"/>
      </g>
      <g id="Grupo_1208160" data-name="Grupo 1208160" transform="translate(29.697 41.783)">
        <path id="Trazado_1052720" data-name="Trazado 1052720" d="M158.446,273.611h-5.64a.806.806,0,1,1,0-1.611h5.64a.806.806,0,0,1,0,1.611Z" transform="translate(-152 -272)" fill="#20435d"/>
      </g>
      <g id="Grupo_1208161" data-name="Grupo 1208161" transform="translate(28.085 45.006)">
        <path id="Trazado_1052721" data-name="Trazado 1052721" d="M144.057,305.611h-7.251a.806.806,0,1,1,0-1.611h7.251a.806.806,0,1,1,0,1.611Z" transform="translate(-136 -304)" fill="#20435d"/>
      </g>
      <g id="Grupo_1208162" data-name="Grupo 1208162" transform="translate(42.588 43.395)">
        <path id="Trazado_1052722" data-name="Trazado 1052722" d="M288.057,289.611h-7.252a.806.806,0,1,1,0-1.611h7.252a.806.806,0,0,1,0,1.611Z" transform="translate(-280 -288)" fill="#20435d"/>
      </g>
      <g id="Grupo_1208163" data-name="Grupo 1208163" transform="translate(40.977 46.618)">
        <path id="Trazado_1052723" data-name="Trazado 1052723" d="M273.669,321.611h-8.863a.806.806,0,1,1,0-1.611h8.863a.806.806,0,1,1,0,1.611Z" transform="translate(-264 -320)" fill="#20435d"/>
      </g>
      <g id="Grupo_1208164" data-name="Grupo 1208164" transform="translate(57.897 39.366)">
        <path id="Trazado_1052724" data-name="Trazado 1052724" d="M437.64,252.029a.8.8,0,0,1-.57-.236l-1.847-1.848-1.847,1.847a.806.806,0,0,1-1.139-1.139l2.417-2.417a.806.806,0,0,1,1.139,0l2.417,2.417a.806.806,0,0,1-.57,1.375Z" transform="translate(-432 -248)" fill="#974b47"/>
      </g>
      <g id="Grupo_1208165" data-name="Grupo 1208165" transform="translate(15.999 36.949)">
        <path id="Trazado_1052725" data-name="Trazado 1052725" d="M19.222,228.03a.8.8,0,0,1-.57-.236l-2.417-2.417a.806.806,0,0,1,1.139-1.139l1.848,1.847,1.847-1.847a.806.806,0,0,1,1.139,1.139l-2.417,2.417A.8.8,0,0,1,19.222,228.03Z" transform="translate(-15.999 -224.001)" fill="#974b47"/>
      </g>
      <g id="Grupo_1208166" data-name="Grupo 1208166" transform="translate(39.365 16)">
        <path id="Trazado_1052726" data-name="Trazado 1052726" d="M251.223,22.446a.8.8,0,0,1-.568-.234l-2.417-2.4a.806.806,0,0,1,0-1.139l2.417-2.43a.806.806,0,1,1,1.143,1.136l-1.849,1.859,1.846,1.836a.806.806,0,0,1-.568,1.377Z" transform="translate(-248 -16)" fill="#974b47"/>
      </g>
      <g id="Grupo_1208167" data-name="Grupo 1208167" transform="translate(36.948 57.898)">
        <path id="Trazado_1052727" data-name="Trazado 1052727" d="M224.806,438.446a.806.806,0,0,1-.571-1.374l1.849-1.859-1.846-1.836a.806.806,0,1,1,1.136-1.143l2.417,2.4a.806.806,0,0,1,0,1.139l-2.417,2.43A.8.8,0,0,1,224.806,438.446Z" transform="translate(-224 -432.001)" fill="#974b47"/>
      </g>
      <g id="Grupo_1208168" data-name="Grupo 1208168" transform="translate(15.999 16)">
        <path id="Trazado_1052728" data-name="Trazado 1052728" d="M61.846,56.89a3.221,3.221,0,0,0-3.124-5.341,21.545,21.545,0,0,0,3.124-9.513l1.122,1.122a.806.806,0,0,0,1.139-1.139l-2.184-2.184a21.6,21.6,0,0,0-3.146-10.943h4.761a.806.806,0,0,0,.806-.806V25.669a4.837,4.837,0,0,0-2.5-4.23,3.223,3.223,0,1,0-4.674,0,4.858,4.858,0,0,0-2.259,2.733A21.679,21.679,0,0,0,42.043,18.5l1.117-1.123a.806.806,0,0,0-1.143-1.136l-2.172,2.184a21.675,21.675,0,0,0-14.415,5.75,4.859,4.859,0,0,0-2.259-2.733,3.223,3.223,0,1,0-4.674,0,4.837,4.837,0,0,0-2.5,4.23v2.417a.806.806,0,0,0,.806.806h4.761a21.561,21.561,0,0,0-3.07,9.415l-1.121-1.121a.806.806,0,1,0-1.139,1.139l2.185,2.185a21.6,21.6,0,0,0,3.2,11.04A3.221,3.221,0,0,0,18.5,56.89a4.837,4.837,0,0,0-2.5,4.23v2.417a.806.806,0,0,0,.806.806h8.057a.806.806,0,0,0,.806-.806V61.121a4.837,4.837,0,0,0-2.5-4.23,3.21,3.21,0,0,0,.883-2.106q.355.39.73.766a21.591,21.591,0,0,0,13.517,6.3L37.183,62.97a.806.806,0,1,0,1.143,1.136L40.5,61.922a21.606,21.606,0,0,0,15.057-6.368q.378-.378.734-.771a3.211,3.211,0,0,0,.883,2.106,4.837,4.837,0,0,0-2.5,4.23v2.417a.806.806,0,0,0,.806.806h8.057a.806.806,0,0,0,.806-.806V61.121a4.837,4.837,0,0,0-2.5-4.23Zm-2.337-3.827A1.611,1.611,0,1,1,57.9,54.675,1.613,1.613,0,0,1,59.509,53.063Zm0-35.452A1.611,1.611,0,1,1,57.9,19.223,1.613,1.613,0,0,1,59.509,17.611Zm-3.223,8.057a3.223,3.223,0,0,1,6.446,0V27.28H56.286ZM20.834,17.611a1.611,1.611,0,1,1-1.611,1.611A1.613,1.613,0,0,1,20.834,17.611ZM17.612,27.28V25.669a3.223,3.223,0,0,1,6.446,0V27.28Zm3.223,25.783a1.611,1.611,0,1,1-1.611,1.611A1.613,1.613,0,0,1,20.834,53.063Zm3.223,8.057v1.611H17.612V61.121a3.223,3.223,0,0,1,6.446,0Zm28.985-5.466a.8.8,0,0,0,.01-.307l-.649-3.9h.146a2.128,2.128,0,0,0,2.126-2.126V42.3a2.128,2.128,0,0,0-1.611-2.06v-6a2.129,2.129,0,0,0-2.126-2.126h-.146l.649-3.9a.806.806,0,0,0-1.319-.744l-5.414,4.64H43.329a2.128,2.128,0,0,0-2.06-1.611H35.636l-5.414-4.64a.806.806,0,0,0-1.319.744l.649,3.9h-.146a2.129,2.129,0,0,0-2.126,2.126v6a2.128,2.128,0,0,0-1.611,2.06v7.028a2.129,2.129,0,0,0,2.126,2.126h.146l-.649,3.9a.806.806,0,0,0,1.319.744l5.414-4.64h4.6a2.128,2.128,0,0,0,2.06,1.611h5.633l5.414,4.64a.8.8,0,0,0,.512.193A20.036,20.036,0,0,1,40.513,60.31l-2.19-2.178a.806.806,0,0,0-1.136,1.143l.944.938A20.143,20.143,0,0,1,20.033,40.5l2.177-2.177a.806.806,0,1,0-1.139-1.139l-.939.939a19.97,19.97,0,0,1,3.349-9.232h1.382a.806.806,0,0,0,.806-.806V26.195A20.062,20.062,0,0,1,39.83,20.033l2.19,2.178a.806.806,0,0,0,1.136-1.143l-.943-.938a20.069,20.069,0,0,1,12.461,6.064v1.891a.806.806,0,0,0,.806.806h1.382a20,20,0,0,1,3.449,10.95l-2.178,2.178a.806.806,0,0,0,1.139,1.139l.938-.938a20.128,20.128,0,0,1-7.169,13.434Zm-2.385-4.876.441,2.647-3.956-3.391a.806.806,0,0,0-.524-.194H40.686a.515.515,0,0,1-.514-.514V42.3a.515.515,0,0,1,.514-.514H52.549a.515.515,0,0,1,.514.514v7.028a.515.515,0,0,1-.514.514h-1.1a.806.806,0,0,0-.795.938ZM29.506,48.514a.806.806,0,0,0-.615-.285h-1.1a.515.515,0,0,1-.515-.515V40.686a.515.515,0,0,1,.515-.515h9.154v1.1a2.128,2.128,0,0,0,1.611,2.06v4.9H33.726a.806.806,0,0,0-.524.194l-3.956,3.391.441-2.647a.805.805,0,0,0-.18-.653Zm7.442-14.273v4.32H28.892V32.629a.515.515,0,0,1,.515-.515h1.1a.806.806,0,0,0,.795-.938l-.441-2.647,3.956,3.391a.806.806,0,0,0,.524.194h3.738A2.128,2.128,0,0,0,36.949,34.241Zm1.611,0a.515.515,0,0,1,.515-.515h5.931a.806.806,0,0,0,.524-.194l3.956-3.391-.441,2.647a.806.806,0,0,0,.795.938h1.1a.515.515,0,0,1,.515.515v5.931H40.686a2.128,2.128,0,0,0-2,1.425.51.51,0,0,1-.121-.328V34.241ZM62.732,62.732H56.286V61.121a3.223,3.223,0,0,1,6.446,0Z" transform="translate(-16 -16)"/>
        <path id="Trazado_1052729" data-name="Trazado 1052729" d="M172.029,184h-3.223a.806.806,0,1,0,0,1.611h3.223a.806.806,0,0,0,0-1.611Z" transform="translate(-152.691 -167.08)"/>
        <path id="Trazado_1052730" data-name="Trazado 1052730" d="M164.834,216h-4.029a.806.806,0,1,0,0,1.611h4.029a.806.806,0,1,0,0-1.611Z" transform="translate(-145.497 -195.857)"/>
        <path id="Trazado_1052731" data-name="Trazado 1052731" d="M288.806,201.611h4.834a.806.806,0,0,0,0-1.611h-4.834a.806.806,0,1,0,0,1.611Z" transform="translate(-260.605 -181.468)"/>
        <path id="Trazado_1052732" data-name="Trazado 1052732" d="M256.806,233.611h8.057a.806.806,0,1,0,0-1.611h-8.057a.806.806,0,1,0,0,1.611Z" transform="translate(-231.828 -210.245)"/>
        <path id="Trazado_1052733" data-name="Trazado 1052733" d="M152.806,273.611h5.64a.806.806,0,0,0,0-1.611h-5.64a.806.806,0,1,0,0,1.611Z" transform="translate(-138.303 -246.217)"/>
        <path id="Trazado_1052734" data-name="Trazado 1052734" d="M144.863,304.806a.806.806,0,0,0-.806-.806h-7.251a.806.806,0,1,0,0,1.611h7.251A.806.806,0,0,0,144.863,304.806Z" transform="translate(-123.914 -274.994)"/>
        <path id="Trazado_1052735" data-name="Trazado 1052735" d="M280.806,289.611h7.252a.806.806,0,0,0,0-1.611h-7.252a.806.806,0,1,0,0,1.611Z" transform="translate(-253.411 -260.605)"/>
        <path id="Trazado_1052736" data-name="Trazado 1052736" d="M274.474,320.806a.806.806,0,0,0-.806-.806h-8.863a.806.806,0,1,0,0,1.611h8.863A.806.806,0,0,0,274.474,320.806Z" transform="translate(-239.023 -289.383)"/>
      </g>
    </g>
  </g>
</svg>
