<svg xmlns="http://www.w3.org/2000/svg" xmlns:xlink="http://www.w3.org/1999/xlink" width="400" height="508.765" viewBox="0 0 400 508.765">
  <defs>
    <clipPath id="clip-path">
      <rect id="Rectángulo_417805" data-name="Rectángulo 417805" width="400" height="508.765" transform="translate(180.151 2699.215)" fill="#27454a" stroke="#707070" stroke-width="1" opacity="0.38"/>
    </clipPath>
    <clipPath id="clip-path-2">
      <rect id="Rectángulo_419493" data-name="Rectángulo 419493" width="399.39" height="399.557" fill="none"/>
    </clipPath>
  </defs>
  <g id="Enmascarar_grupo_1207355" data-name="Enmascarar grupo 1207355" transform="translate(-180.151 -2699.215)" clip-path="url(#clip-path)">
    <g id="Rectángulo_417777" data-name="Rectángulo 417777" transform="translate(180.151 2701.242)" fill="#27454a" stroke="#707070" stroke-width="1" opacity="0.38">
      <rect width="304" height="508.765" stroke="none"/>
      <rect x="0.5" y="0.5" width="303" height="507.765" fill="none"/>
    </g>
    <g id="Grupo_1208191" data-name="Grupo 1208191" transform="translate(180.761 2761.853)">
      <g id="Grupo_1208190" data-name="Grupo 1208190" clip-path="url(#clip-path-2)">
        <path id="Trazado_1052803" data-name="Trazado 1052803" d="M356.513,108.8H291.483a22.111,22.111,0,0,0,0,44.222h65.029a22.111,22.111,0,0,0,0-44.222" transform="translate(-3.2 -1.292)" fill="#cbe3f8"/>
        <path id="Trazado_1052804" data-name="Trazado 1052804" d="M301.263,114.748a1.323,1.323,0,0,0-1.422,1.192v30.09a1.444,1.444,0,0,0,2.843,0V115.94a1.322,1.322,0,0,0-1.421-1.192" transform="translate(-3.561 -1.363)" fill="#3a739b"/>
        <path id="Trazado_1052805" data-name="Trazado 1052805" d="M306.747,118.14a1.321,1.321,0,0,0-1.421,1.192v23.387a1.443,1.443,0,0,0,2.842,0V119.332a1.322,1.322,0,0,0-1.421-1.192" transform="translate(-3.627 -1.403)" fill="#3a739b"/>
        <path id="Trazado_1052806" data-name="Trazado 1052806" d="M295.779,118.14a1.322,1.322,0,0,0-1.422,1.192v23.387a1.443,1.443,0,0,0,2.842,0V119.332a1.321,1.321,0,0,0-1.42-1.192" transform="translate(-3.496 -1.403)" fill="#3a739b"/>
        <path id="Trazado_1052807" data-name="Trazado 1052807" d="M312.231,119.8h0a1.322,1.322,0,0,0-1.422,1.192V141.1a1.444,1.444,0,0,0,2.843,0V120.99a1.322,1.322,0,0,0-1.421-1.192" transform="translate(-3.692 -1.423)" fill="#3a739b"/>
        <path id="Trazado_1052808" data-name="Trazado 1052808" d="M290.294,119.8a1.323,1.323,0,0,0-1.422,1.192V141.1a1.444,1.444,0,0,0,2.843,0V120.99a1.322,1.322,0,0,0-1.421-1.192" transform="translate(-3.431 -1.423)" fill="#3a739b"/>
        <path id="Trazado_1052809" data-name="Trazado 1052809" d="M317.715,124.321h0a1.321,1.321,0,0,0-1.421,1.192v11.173a1.443,1.443,0,0,0,2.842,0V125.513a1.322,1.322,0,0,0-1.421-1.192" transform="translate(-3.757 -1.477)" fill="#3a739b"/>
        <path id="Trazado_1052810" data-name="Trazado 1052810" d="M323.2,114.748a1.323,1.323,0,0,0-1.422,1.192v30.09a1.444,1.444,0,0,0,2.843,0V115.94a1.322,1.322,0,0,0-1.421-1.192" transform="translate(-3.822 -1.363)" fill="#3a739b"/>
        <path id="Trazado_1052811" data-name="Trazado 1052811" d="M328.683,118.14a1.321,1.321,0,0,0-1.421,1.192v23.387a1.443,1.443,0,0,0,2.842,0V119.332a1.322,1.322,0,0,0-1.421-1.192" transform="translate(-3.887 -1.403)" fill="#3a739b"/>
        <path id="Trazado_1052812" data-name="Trazado 1052812" d="M334.167,119.8a1.322,1.322,0,0,0-1.422,1.192V141.1a1.444,1.444,0,0,0,2.843,0V120.99a1.322,1.322,0,0,0-1.421-1.192" transform="translate(-3.952 -1.423)" fill="#3a739b"/>
        <path id="Trazado_1052813" data-name="Trazado 1052813" d="M339.651,124.321a1.321,1.321,0,0,0-1.421,1.192v11.173a1.443,1.443,0,0,0,2.842,0V125.513a1.322,1.322,0,0,0-1.421-1.192" transform="translate(-4.017 -1.477)" fill="#3a739b"/>
        <path id="Trazado_1052814" data-name="Trazado 1052814" d="M345.135,114.748a1.321,1.321,0,0,0-1.421,1.192v30.09a1.443,1.443,0,0,0,2.842,0V115.94a1.322,1.322,0,0,0-1.421-1.192" transform="translate(-4.083 -1.363)" fill="#3a739b"/>
        <path id="Trazado_1052815" data-name="Trazado 1052815" d="M350.62,118.14a1.321,1.321,0,0,0-1.422,1.192v23.387a1.443,1.443,0,0,0,2.842,0V119.332a1.321,1.321,0,0,0-1.42-1.192" transform="translate(-4.148 -1.403)" fill="#3a739b"/>
        <path id="Trazado_1052816" data-name="Trazado 1052816" d="M356.1,119.8a1.321,1.321,0,0,0-1.421,1.192V141.1a1.443,1.443,0,0,0,2.842,0V120.99A1.322,1.322,0,0,0,356.1,119.8" transform="translate(-4.213 -1.423)" fill="#3a739b"/>
        <path id="Trazado_1052817" data-name="Trazado 1052817" d="M361.588,124.321a1.322,1.322,0,0,0-1.421,1.192v11.173a1.443,1.443,0,0,0,2.842,0V125.513a1.322,1.322,0,0,0-1.421-1.192" transform="translate(-4.278 -1.477)" fill="#3a739b"/>
        <path id="Trazado_1052818" data-name="Trazado 1052818" d="M373.826,6.448h-55.61A19.717,19.717,0,0,0,298.5,26.165V41.773a19.715,19.715,0,0,0,19.623,19.714l-1.517,4.9a1.362,1.362,0,0,0,1.824,1.66l15.785-6.562h39.61a19.717,19.717,0,0,0,19.717-19.716V26.165A19.717,19.717,0,0,0,373.826,6.448" transform="translate(-3.546 -0.077)" fill="#fff"/>
        <path id="Trazado_1052819" data-name="Trazado 1052819" d="M345.16,22.952H315.9a2.085,2.085,0,1,1,0-4.171H345.16a2.085,2.085,0,1,1,0,4.171" transform="translate(-3.727 -0.223)" fill="#619ac9"/>
        <path id="Trazado_1052820" data-name="Trazado 1052820" d="M376.954,22.952H353.923a2.085,2.085,0,1,1,0-4.171h23.031a2.085,2.085,0,0,1,0,4.171" transform="translate(-4.179 -0.223)" fill="#619ac9"/>
        <path id="Trazado_1052821" data-name="Trazado 1052821" d="M377.051,49.767H362.085a2.085,2.085,0,0,1,0-4.171h14.966a2.085,2.085,0,0,1,0,4.171" transform="translate(-4.276 -0.542)" fill="#619ac9"/>
        <path id="Trazado_1052822" data-name="Trazado 1052822" d="M376.747,31.89H336.512a2.085,2.085,0,1,1,0-4.171h40.235a2.085,2.085,0,0,1,0,4.171" transform="translate(-3.972 -0.329)" fill="#619ac9"/>
        <path id="Trazado_1052823" data-name="Trazado 1052823" d="M328.446,31.89H315.9a2.085,2.085,0,0,1,0-4.171h12.543a2.085,2.085,0,0,1,0,4.171" transform="translate(-3.727 -0.329)" fill="#619ac9"/>
        <path id="Trazado_1052824" data-name="Trazado 1052824" d="M376.5,40.829H315.9a2.086,2.086,0,0,1-2.086-2.085h0a2.086,2.086,0,0,1,2.086-2.085h60.6a2.085,2.085,0,0,1,2.085,2.085h0a2.085,2.085,0,0,1-2.085,2.085" transform="translate(-3.727 -0.435)" fill="#619ac9"/>
        <path id="Trazado_1052825" data-name="Trazado 1052825" d="M353.931,49.767H315.9a2.085,2.085,0,0,1,0-4.171h38.028a2.085,2.085,0,1,1,0,4.171" transform="translate(-3.727 -0.542)" fill="#619ac9"/>
        <path id="Trazado_1052826" data-name="Trazado 1052826" d="M63.329,123.974a180.917,180.917,0,0,0-4.842,129.87c8.5,24.46,22.659,47.348,42.8,63.619,21.8,17.608,49.366,26.621,76.94,31.611,30.853,5.584,63.009,6.5,93.275-1.686s58.554-26.124,75.459-52.532,21.05-61.594,7.089-89.669c-15.867-31.911-50.576-49.448-73.867-76.422C268,114.651,259.072,98.087,248.947,82.428s-21.929-30.874-37.965-40.39C163.429,13.817,114.712,48.675,85.81,86.031a177.4,177.4,0,0,0-22.481,37.944" transform="translate(-0.579 -0.377)" fill="#f0f8ff"/>
        <rect id="Rectángulo_419476" data-name="Rectángulo 419476" width="96.55" height="210.61" transform="translate(4.416 22.729)" fill="none" stroke="#a1c5eb" stroke-miterlimit="10" stroke-width="1"/>
        <rect id="Rectángulo_419477" data-name="Rectángulo 419477" width="104.395" height="8.582" transform="translate(0.494 233.34)" fill="none" stroke="#a1c5eb" stroke-miterlimit="10" stroke-width="1"/>
        <line id="Línea_1185" data-name="Línea 1185" y2="210.61" transform="translate(52.692 22.729)" fill="none" stroke="#a1c5eb" stroke-miterlimit="10" stroke-width="1"/>
        <line id="Línea_1186" data-name="Línea 1186" x2="96.55" transform="translate(4.416 93.179)" fill="none" stroke="#a1c5eb" stroke-miterlimit="10" stroke-width="1"/>
        <line id="Línea_1187" data-name="Línea 1187" x2="96.55" transform="translate(4.416 162.889)" fill="none" stroke="#a1c5eb" stroke-miterlimit="10" stroke-width="1"/>
        <rect id="Rectángulo_419478" data-name="Rectángulo 419478" width="96.55" height="210.61" transform="translate(116.857 22.729)" fill="none" stroke="#a1c5eb" stroke-miterlimit="10" stroke-width="1"/>
        <rect id="Rectángulo_419479" data-name="Rectángulo 419479" width="104.395" height="8.582" transform="translate(112.934 233.34)" fill="none" stroke="#a1c5eb" stroke-miterlimit="10" stroke-width="1"/>
        <line id="Línea_1188" data-name="Línea 1188" y2="210.61" transform="translate(165.132 22.729)" fill="none" stroke="#a1c5eb" stroke-miterlimit="10" stroke-width="1"/>
        <line id="Línea_1189" data-name="Línea 1189" x2="96.55" transform="translate(116.857 93.179)" fill="none" stroke="#a1c5eb" stroke-miterlimit="10" stroke-width="1"/>
        <line id="Línea_1190" data-name="Línea 1190" x2="96.55" transform="translate(116.857 162.889)" fill="none" stroke="#a1c5eb" stroke-miterlimit="10" stroke-width="1"/>
        <rect id="Rectángulo_419480" data-name="Rectángulo 419480" width="30.426" height="115.464" transform="translate(222.099 253.001)" fill="#a1c5eb"/>
        <rect id="Rectángulo_419481" data-name="Rectángulo 419481" width="115.464" height="115.464" transform="translate(106.635 253.001)" fill="#cbe3f8"/>
        <path id="Trazado_1052827" data-name="Trazado 1052827" d="M183.389,345.138q-7.826,0-8.455-2.519l-2.969-11.6h-14.3l-2.609,11.155q-.54,2.788-8.635,2.788a29.858,29.858,0,0,1-6.387-.5q-2.071-.494-2.069-.765l15.922-60.9q0-.72,12.324-.72t12.324.72l15.562,60.988q0,.631-4.138.99t-6.566.36m-23.478-25.547h9.445l-4.048-18.621h-.54Z" transform="translate(-1.639 -3.35)" fill="#a1c5eb"/>
        <rect id="Rectángulo_419482" data-name="Rectángulo 419482" width="30.426" height="115.464" transform="translate(252.418 137.548)" fill="#ff847b"/>
        <rect id="Rectángulo_419483" data-name="Rectángulo 419483" width="115.464" height="115.464" transform="translate(136.954 137.548)" fill="#ffb5b3"/>
        <path id="Trazado_1052828" data-name="Trazado 1052828" d="M221.047,181.429a15.6,15.6,0,0,1-8.1,14.212,15.993,15.993,0,0,1,7.376,5.578q2.969,3.959,2.968,11.2a13.84,13.84,0,0,1-5.352,11.469q-5.352,4.23-15.337,4.228h-21.23a3.333,3.333,0,0,1-2.519-1.035,3.8,3.8,0,0,1-.99-2.744V166.767a1.287,1.287,0,0,1,1.62-1.619H200q21.05,0,21.05,16.281M195.14,179.72V191.5h.45q8.635,0,8.635-5.757a5.76,5.76,0,0,0-1.664-4.588q-1.664-1.438-5.533-1.44Zm0,22.4v11.694h1.62q3.866,0,5.666-1.44a5.524,5.524,0,0,0,1.8-4.588q0-3.148-1.664-4.408t-5.533-1.259Z" transform="translate(-2.113 -1.962)" fill="#ff847b"/>
        <rect id="Rectángulo_419484" data-name="Rectángulo 419484" width="58.319" height="1.115" transform="matrix(0.923, -0.384, 0.384, 0.923, 286.564, 304.64)" fill="#245472"/>
        <rect id="Rectángulo_419485" data-name="Rectángulo 419485" width="1.115" height="58.319" transform="translate(289.879 283.292) rotate(-67.436)" fill="#245472"/>
        <path id="Trazado_1052829" data-name="Trazado 1052829" d="M347.349,280.805l9.6,91.59h-1.991l-15.408-91.59Z" transform="translate(-4.033 -3.335)" fill="#245472"/>
        <path id="Trazado_1052830" data-name="Trazado 1052830" d="M289.411,280.805l-9.6,91.59h1.991l15.408-91.59Z" transform="translate(-3.324 -3.335)" fill="#245472"/>
        <rect id="Rectángulo_419486" data-name="Rectángulo 419486" width="58.319" height="1.115" transform="translate(262.512 306.476) rotate(-22.563)" fill="#245472"/>
        <rect id="Rectángulo_419487" data-name="Rectángulo 419487" width="1.115" height="58.319" transform="translate(265.826 285.128) rotate(-67.436)" fill="#245472"/>
        <path id="Trazado_1052831" data-name="Trazado 1052831" d="M325.615,280.805l9.6,91.59H333.22l-15.408-91.59Z" transform="translate(-3.775 -3.335)" fill="#245472"/>
        <path id="Trazado_1052832" data-name="Trazado 1052832" d="M267.677,280.805l-9.6,91.59h1.991l15.408-91.59Z" transform="translate(-3.065 -3.335)" fill="#245472"/>
        <path id="Trazado_1052833" data-name="Trazado 1052833" d="M268.809,255.391a27.312,27.312,0,0,1,25.868-18.538h21.947l7.732-24.8a10.605,10.605,0,0,1,10.116-7.442H373.41a10.6,10.6,0,0,1,10.239,13.313l-5.327,20.143v.011l-4.967,18.8A30.958,30.958,0,0,1,343.44,279.9h-77.6a3.828,3.828,0,0,1-3.625-5.056Z" transform="translate(-3.112 -2.43)" fill="#162a45"/>
        <path id="Trazado_1052834" data-name="Trazado 1052834" d="M266.793,255.391a27.315,27.315,0,0,1,25.869-18.538h21.947l7.732-24.8a10.6,10.6,0,0,1,10.115-7.442h38.937a10.6,10.6,0,0,1,10.239,13.313l-5.326,20.143v.011l-4.968,18.8A30.957,30.957,0,0,1,341.425,279.9h-77.6a3.827,3.827,0,0,1-3.624-5.056Z" transform="translate(-3.088 -2.43)" fill="#3a739b"/>
        <path id="Trazado_1052835" data-name="Trazado 1052835" d="M331.916,280.3h12.356a30.956,30.956,0,0,0,29.912-23.028l4.969-18.794v-.012H367.87a30.034,30.034,0,0,0-28.345,20.107Z" transform="translate(-3.942 -2.832)" fill="#162a45"/>
        <path id="Trazado_1052836" data-name="Trazado 1052836" d="M254.322,400.187l-.05.357c-.048.53-.109,1.037-.2,1.589-.1.454-.185.952-.277,1.459l-54.454.535a10.518,10.518,0,0,1-.1-1.446,14.421,14.421,0,0,1,.135-1.6,2.4,2.4,0,0,1,.072-.357c.564-3.072,2.757-7.325,10.181-8.758a11.049,11.049,0,0,1,1.142-.195h.032c.583-.092,1.165-.152,1.79-.212.2-.013.409-.037.615-.048,14.884-1.312,21.43-6.374,21.43-6.374a47.333,47.333,0,0,0,16.73-.164,21.189,21.189,0,0,1,1.834,4.3c.134.463.279.958.414,1.486.033.1.055.2.089.323.056.2.1.442.147.679a1.46,1.46,0,0,1,.035.215c0,.053.034.075.034.119a26.353,26.353,0,0,1,.479,3.676,27.914,27.914,0,0,1-.076,4.416" transform="translate(-2.367 -4.573)" fill="#3a739b"/>
        <path id="Trazado_1052837" data-name="Trazado 1052837" d="M229.593,385.637a.98.98,0,0,1,.686-.291,1.128,1.128,0,0,1,.691.278c.357.277.717.547,1.073.827.508.4,1.054.746,1.588,1.112a1.04,1.04,0,0,1,.453.577,1,1,0,0,1-.09.751.985.985,0,0,1-1.328.362c-1.042-.713-2.061-1.462-3.058-2.238a.973.973,0,0,1-.291-.686.985.985,0,0,1,.278-.691" transform="translate(-2.724 -4.577)" fill="#fff"/>
        <path id="Trazado_1052838" data-name="Trazado 1052838" d="M225.709,387.43a.987.987,0,0,1,1.376-.014,16.556,16.556,0,0,0,2.391,2.232c.139.1.279.2.421.3a1.044,1.044,0,0,1,.453.577.974.974,0,0,1-1.419,1.114,17.493,17.493,0,0,1-3.208-2.836,1.036,1.036,0,0,1-.292-.686.99.99,0,0,1,.279-.691" transform="translate(-2.678 -4.598)" fill="#fff"/>
        <path id="Trazado_1052839" data-name="Trazado 1052839" d="M222.135,388.738a.981.981,0,0,1,.685-.292.94.94,0,0,1,.692.279l2.235,2.817a1.064,1.064,0,0,1,.292.685,1,1,0,0,1-.279.692.98.98,0,0,1-.685.292.938.938,0,0,1-.692-.279l-2.235-2.816a1.059,1.059,0,0,1-.291-.686.99.99,0,0,1,.278-.691" transform="translate(-2.635 -4.614)" fill="#fff"/>
        <path id="Trazado_1052840" data-name="Trazado 1052840" d="M218.164,389.707a1.007,1.007,0,0,1,1.494,1.014l.924,1.479a.956.956,0,0,1,.082,1.688,1.006,1.006,0,0,1-1.494-1.011l-.925-1.481a.957.957,0,0,1-.081-1.689" transform="translate(-2.586 -4.627)" fill="#fff"/>
        <path id="Trazado_1052841" data-name="Trazado 1052841" d="M254.279,400.738c-.058.514-.116,1.039-.215,1.575-.09.472-.168.965-.279,1.47l-54.443.534a9.545,9.545,0,0,1-.109-1.446,12.082,12.082,0,0,1,.142-1.595Z" transform="translate(-2.366 -4.76)" fill="#245472"/>
        <path id="Trazado_1052842" data-name="Trazado 1052842" d="M326.984,400.187l-.05.357c-.048.53-.109,1.037-.2,1.589-.1.454-.185.952-.277,1.459L272,404.127a10.517,10.517,0,0,1-.1-1.446,14.427,14.427,0,0,1,.135-1.6,2.288,2.288,0,0,1,.073-.357c.563-3.072,2.756-7.325,10.18-8.758a11.05,11.05,0,0,1,1.142-.195h.032c.582-.092,1.165-.152,1.79-.212.2-.013.409-.037.615-.048,14.884-1.312,21.43-6.374,21.43-6.374a47.333,47.333,0,0,0,16.73-.164,21.188,21.188,0,0,1,1.834,4.3c.134.463.279.958.414,1.486.033.1.055.2.089.323.056.2.1.442.147.679a1.46,1.46,0,0,1,.035.215c0,.053.033.075.034.119a26.344,26.344,0,0,1,.479,3.676,27.906,27.906,0,0,1-.076,4.416" transform="translate(-3.23 -4.573)" fill="#3a739b"/>
        <path id="Trazado_1052843" data-name="Trazado 1052843" d="M302.254,385.637a.98.98,0,0,1,.686-.291,1.126,1.126,0,0,1,.691.278c.357.277.717.547,1.073.827.508.4,1.054.746,1.588,1.112a1.04,1.04,0,0,1,.453.577.972.972,0,0,1-1.418,1.113c-1.042-.713-2.061-1.462-3.058-2.238a.972.972,0,0,1-.291-.686.985.985,0,0,1,.278-.691" transform="translate(-3.587 -4.577)" fill="#fff"/>
        <path id="Trazado_1052844" data-name="Trazado 1052844" d="M298.37,387.43a.987.987,0,0,1,1.376-.014,16.558,16.558,0,0,0,2.391,2.232c.139.1.279.2.421.3a1.044,1.044,0,0,1,.453.577,1,1,0,0,1-.091.751.985.985,0,0,1-1.327.363,17.466,17.466,0,0,1-3.209-2.836,1.036,1.036,0,0,1-.292-.686,1,1,0,0,1,.279-.691" transform="translate(-3.541 -4.598)" fill="#fff"/>
        <path id="Trazado_1052845" data-name="Trazado 1052845" d="M294.8,388.738a.981.981,0,0,1,.686-.292.94.94,0,0,1,.691.279l2.235,2.817a1.064,1.064,0,0,1,.292.685,1,1,0,0,1-.279.692.98.98,0,0,1-.685.292.938.938,0,0,1-.692-.279l-2.235-2.816a1.064,1.064,0,0,1-.291-.686.99.99,0,0,1,.278-.691" transform="translate(-3.498 -4.614)" fill="#fff"/>
        <path id="Trazado_1052846" data-name="Trazado 1052846" d="M290.825,389.707a1.007,1.007,0,0,1,1.494,1.014l.924,1.479a.956.956,0,0,1,.082,1.688,1.006,1.006,0,0,1-1.494-1.011l-.925-1.481a.957.957,0,0,1-.081-1.689" transform="translate(-3.449 -4.627)" fill="#fff"/>
        <path id="Trazado_1052847" data-name="Trazado 1052847" d="M326.94,400.738c-.058.514-.116,1.039-.215,1.575-.09.472-.168.965-.279,1.47L272,404.317a9.541,9.541,0,0,1-.109-1.446,12.236,12.236,0,0,1,.141-1.595Z" transform="translate(-3.23 -4.76)" fill="#245472"/>
        <path id="Trazado_1052848" data-name="Trazado 1052848" d="M230.317,146.7c-13.866,68.9,4.627,235.611,4.627,235.611s10.335,2.512,16.73-.164L269.085,146.7Z" transform="translate(-2.674 -1.742)" fill="#ffcfb8"/>
        <path id="Trazado_1052849" data-name="Trazado 1052849" d="M297.4,258.585s1.1-78.614-5.871-111.888H240.567c-.345,36.164,9.626,95.382,14.374,111.888,4.667,16.225,51.984,123.723,51.984,123.723a33,33,0,0,0,16.73-.164Z" transform="translate(-2.857 -1.742)" fill="#ffcfb8"/>
        <path id="Trazado_1052850" data-name="Trazado 1052850" d="M299.713,259.841c-.289-1.342,3.45-69.164-8.391-113.144H230.289c-16.127,79.009-1.052,219.246-1.052,219.246,12.672,4.118,28.691,1.373,28.691,1.373l2.333-92.631c4.192,21.243,34.539,90.825,34.539,90.825,10.838,0,27.745-4.986,27.745-4.986s-16.185-82.867-22.833-100.683" transform="translate(-2.647 -1.742)" fill="#ea5c4c"/>
        <path id="Trazado_1052851" data-name="Trazado 1052851" d="M258.479,271.444a235.211,235.211,0,0,1-7.793-27.007c-2.159-9.313-3.926-18.715-5.437-28.154q-2.042-12.757-3.49-25.6-1.079-9.44-1.87-18.91-.239-2.892-.445-5.786c-.061-.868-.048-1.773-.174-2.634a.969.969,0,0,1-.007-.108c-.01-.184-.3-.185-.288,0,.131,2.293.309,4.586.491,6.875q.717,9,1.712,17.97,1.37,12.441,3.251,24.82c1.448,9.446,3.141,18.859,5.2,28.191a254.765,254.765,0,0,0,7.494,27.375q.522,1.528,1.072,3.045c.063.173.341.1.278-.076" transform="translate(-2.838 -1.937)" fill="#a83027"/>
        <path id="Trazado_1052852" data-name="Trazado 1052852" d="M235.963,164.288q1.78,3.877,3.559,7.756c.077.167.322.022.246-.144q-1.779-3.877-3.559-7.756c-.076-.166-.322-.022-.246.144" transform="translate(-2.803 -1.949)" fill="#a83027"/>
        <path id="Trazado_1052853" data-name="Trazado 1052853" d="M312.431,348.139Q310,328.2,305.611,308.577q-2.2-9.836-4.9-19.552c-1.8-6.487-3.845-12.9-5.695-19.375a129.118,129.118,0,0,1-4.292-19.84,134.611,134.611,0,0,1-.742-20.292c.4-13.332,2.076-26.6,2.267-39.938.176-12.287-.87-24.827-5.257-36.4-.5-1.332-1.056-2.645-1.644-3.943-.075-.167-.321-.023-.246.144,5.2,11.476,6.793,24.137,6.876,36.634.086,13.112-1.486,26.153-2.114,39.235a158.383,158.383,0,0,0,.147,20.328,112.394,112.394,0,0,0,3.423,19.394c1.666,6.371,3.685,12.643,5.53,18.963q2.824,9.676,5.161,19.484,4.65,19.516,7.342,39.431.357,2.644.679,5.293c.022.18.307.182.286,0" transform="translate(-3.386 -1.772)" fill="#a83027"/>
        <path id="Trazado_1052854" data-name="Trazado 1052854" d="M275.088,160.77a16.894,16.894,0,0,0,2.527,10.594,16.718,16.718,0,0,0,14.538,7.673c.183,0,.184-.29,0-.284a16.65,16.65,0,0,1-10.181-3.15,16.277,16.277,0,0,1-6.064-8.784,16.444,16.444,0,0,1-.535-6.048c.018-.183-.268-.181-.286,0" transform="translate(-3.267 -1.908)" fill="#a83027"/>
        <path id="Trazado_1052855" data-name="Trazado 1052855" d="M247.2,230.222q1.67,24.958,2.415,49.966t.551,50.022q-.107,14.038-.507,28.072a.142.142,0,0,0,.285,0q.711-25,.5-50.022t-1.369-50.007q-.646-14.021-1.585-28.031c-.012-.183-.3-.184-.286,0" transform="translate(-2.936 -2.733)" fill="#a83027"/>
        <path id="Trazado_1052856" data-name="Trazado 1052856" d="M286.122,350.979l8.3,18.089c15.548.975,30.4-5.853,30.4-5.853l-3.577-17.342c-16.258,4.552-35.116,5.106-35.116,5.106" transform="translate(-3.398 -4.108)" fill="#ff847b"/>
        <path id="Trazado_1052857" data-name="Trazado 1052857" d="M226.317,351.04l2.12,18.414c12.283,3.83,30.347,1.186,30.347,1.186l.651-17.154c-12.3.361-33.119-2.446-33.119-2.446" transform="translate(-2.688 -4.17)" fill="#ff847b"/>
        <path id="Trazado_1052858" data-name="Trazado 1052858" d="M285.105,51.213c-1.457-6.17-5.39-11.567-6.57-17.8-1.368-7.22,1.046-15.115-1.99-21.8a14.432,14.432,0,0,0-8.382-7.61,13.975,13.975,0,0,0-4.381-.728,27.142,27.142,0,0,0-14.566-3.2c-6.571.574-13.039,4.591-15.414,10.789-3.728,9.729,3.13,21.251-.792,30.9-2.347,5.778-8.2,9.751-9.775,15.79a15.264,15.264,0,0,0,2.358,11.966,27.679,27.679,0,0,0,9.231,8.3,40.466,40.466,0,0,0,23,5.939,31.156,31.156,0,0,0,21.269-10.012,25.8,25.8,0,0,0,6.014-22.541" transform="translate(-2.647 0)" fill="#181d30"/>
        <path id="Trazado_1052859" data-name="Trazado 1052859" d="M241.424,65.138c-12.7,1.3-28.82,38.4-28.82,38.4L193.323,61.092l-9.538,4.191s6.792,29.769,14.163,43.354,22.018,14.45,28.712,4.191S239.08,88.838,239.08,88.838Z" transform="translate(-2.183 -0.726)" fill="#ffcfb8"/>
        <path id="Trazado_1052860" data-name="Trazado 1052860" d="M185.654,51.344s-1.9-8.79.082-9.289c1.518-.383,4.239,10.261,4.239,10.261a3.892,3.892,0,0,1,3.44,1.981c1.341,2.164.6,7.584.986,8.809l-10.342,2.935c-.415-.96-4.545-4.789-5.534-7.824s3.743-5.937,7.129-6.872" transform="translate(-2.119 -0.499)" fill="#ffcfb8"/>
        <path id="Trazado_1052861" data-name="Trazado 1052861" d="M189.427,52.917a14.418,14.418,0,0,0-2.824.5,8.978,8.978,0,0,0-1.327.462c-.373.174-.749.479-.668.939.156.878,1.343,1.078,2.063,1.181a7.274,7.274,0,0,0,2.764-.143c.3-.072.368.4.073.468a7.66,7.66,0,0,1-2.514.19,4.52,4.52,0,0,1-2.23-.656,1.357,1.357,0,0,1-.468-1.769,3.4,3.4,0,0,1,2.043-1.085,14.674,14.674,0,0,1,3.015-.559c.3-.024.377.445.073.468" transform="translate(-2.187 -0.623)" fill="#b85c4b"/>
        <path id="Trazado_1052862" data-name="Trazado 1052862" d="M188.51,56.4a3.857,3.857,0,0,0,3.355,2.718.237.237,0,0,1-.054.471,4.345,4.345,0,0,1-3.769-3.117.239.239,0,0,1,.2-.271.242.242,0,0,1,.271.2" transform="translate(-2.233 -0.668)" fill="#b85c4b"/>
        <path id="Trazado_1052863" data-name="Trazado 1052863" d="M186.144,52.049a3.95,3.95,0,0,0,.056.528c.015.085.033.17.053.254.01.041.021.081.032.122,0,.017.017.06.006.019.007.027.016.053.025.079a.243.243,0,0,1-.119.313.239.239,0,0,1-.313-.119,4.18,4.18,0,0,1-.208-1.123.243.243,0,0,1,.2-.271.239.239,0,0,1,.271.2" transform="translate(-2.205 -0.616)" fill="#b85c4b"/>
        <path id="Trazado_1052864" data-name="Trazado 1052864" d="M187.186,56.308a1.69,1.69,0,0,1-.066,2.083,1.62,1.62,0,0,1-1.968.312,4.147,4.147,0,0,1-1.46-1.849,9.334,9.334,0,0,1-.86-2.548c-.056-.3.412-.373.467-.073a8.939,8.939,0,0,0,.616,1.991,6.519,6.519,0,0,0,1.032,1.711,1.241,1.241,0,0,0,1.627.31,1.178,1.178,0,0,0,.245-1.638c-.162-.255.2-.556.368-.3" transform="translate(-2.172 -0.642)" fill="#b85c4b"/>
        <path id="Trazado_1052865" data-name="Trazado 1052865" d="M184.918,58.444a1.557,1.557,0,0,1-1.195.817,2.279,2.279,0,0,1-1.546-.432,5.406,5.406,0,0,1-1.927-2.681c-.1-.287.333-.482.432-.195a5.23,5.23,0,0,0,1.517,2.3,2.144,2.144,0,0,0,1.194.547,1.124,1.124,0,0,0,1.085-.527c.142-.266.585-.1.441.173" transform="translate(-2.141 -0.663)" fill="#b85c4b"/>
        <path id="Trazado_1052866" data-name="Trazado 1052866" d="M182.585,59.081a2.062,2.062,0,0,1-2.158.594,3.224,3.224,0,0,1-1.714-1.955.237.237,0,0,1,.432-.195,2.888,2.888,0,0,0,1.369,1.679,1.57,1.57,0,0,0,1.69-.4c.2-.226.585.051.382.28" transform="translate(-2.122 -0.682)" fill="#b85c4b"/>
        <path id="Trazado_1052867" data-name="Trazado 1052867" d="M241.793,65.19l-.474,4.022-.119,1-1.611,13.547-.128,1.047-1,8.389-.119,1.077h-.01l-1.057,8.923-.109.939s-.494-.148-1.344-.415c-1.7-.543-4.842-1.591-8.261-2.974-1.206-.494-2.46-1.028-3.686-1.6-.375-.168-.741-.346-1.107-.534h-.01c-3.34-1.621-6.433-3.5-8.211-5.464a110.852,110.852,0,0,1,8.557-13.073c.217-.287.445-.583.672-.879,3.893-4.96,8.656-9.941,13.567-12.46.3-.148.593-.3.889-.425a14.509,14.509,0,0,1,3.557-1.117" transform="translate(-2.548 -0.774)" fill="#619ac9"/>
        <path id="Trazado_1052868" data-name="Trazado 1052868" d="M292.98,150.989c-32.519,7.836-49.436,7.312-57.925,5.474-.335-.079-.662-.148-.967-.227-5.4-1.334-6.917-3.152-6.917-3.152l2.648-13.883.187-.958,1.5-7.865.247-1.3,3.27-17.144a6.888,6.888,0,0,1-5.691-4.051,8.529,8.529,0,0,1-.425-.909,16.74,16.74,0,0,1-1.2-6.245,22.448,22.448,0,0,1,.208-3.231c.059-.366.119-.731.187-1.107a20.644,20.644,0,0,1,5.614-10.82c.345-.346.721-.692,1.107-1.018a18.181,18.181,0,0,1,3.034-2.026l2.934-12.49.238-.978.908-3.883,10.7-1.581,15.01.049,6.3,1.541,1.759.435,4.376,1.067c.288,1.482.543,2.964.771,4.427.049.326.1.652.148.968a152.572,152.572,0,0,1,1.611,19.2c.02.346.02.692.03,1.028.03,2.411.02,4.684-.03,6.8-.01.336-.019.662-.03.978-.058,2.016-.147,3.873-.257,5.524-.03.356-.048.711-.078,1.047-.11,1.571-.228,2.945-.347,4.071-.236,2.371-.445,3.705-.445,3.705,3.122,2.362,5.455,7.292,7.174,12.806.119.375.228.751.336,1.136a124.578,124.578,0,0,1,3.845,20.938c.059.583.1,1.028.127,1.314.02.237.031.366.031.366" transform="translate(-2.698 -0.755)" fill="#619ac9"/>
        <path id="Trazado_1052869" data-name="Trazado 1052869" d="M265.562,93.88c-3.453.421-7.211,1.027-9.862-1.743a3.008,3.008,0,0,0-4.656.6c-.236.329-.733.905-1.244,1.528q.068-4.8.135-9.6c.046-3.3-5.039-4.077-5.823-.788a27.725,27.725,0,0,1-2.191,6.283c-.412.809-3.537,6.814-2.516,2.755.932-3.7-4.784-5.28-5.717-1.576-1.093,4.345.39,11.741,6.655,9.532a8.975,8.975,0,0,0,3.572-2.5c.169,1.624.551,3.174,2.087,4.176,3.584,2.337,6.285-.968,8.329-4.041,3.329,1.832,7.221,1.792,11.231,1.3,3.739-.456,3.785-6.39,0-5.929" transform="translate(-2.772 -0.971)" fill="#162a45"/>
        <path id="Trazado_1052870" data-name="Trazado 1052870" d="M238.3,82.447a19.436,19.436,0,0,0-10.2,18.059c.009.183.294.184.286,0a19.146,19.146,0,0,1,10.055-17.812c.161-.088.018-.335-.144-.247" transform="translate(-2.709 -0.979)" fill="#245472"/>
        <path id="Trazado_1052871" data-name="Trazado 1052871" d="M241.929,67.148a64.441,64.441,0,0,0-3.959,15.523c-.024.182.263.18.286,0a64.165,64.165,0,0,1,3.95-15.447c.067-.171-.209-.245-.276-.076" transform="translate(-2.827 -0.796)" fill="#245472"/>
        <path id="Trazado_1052872" data-name="Trazado 1052872" d="M280.188,66.716c15.407,4.342,10.981,22.621,10.981,22.621s-5.419,21.676-8.469,31.9c-2.223,7.455-11.816,11.452-21.634,2.48-5.629-5.143-25.948-36.838-25.948-36.838l8.458-6.931,25.9,29.475Z" transform="translate(-2.793 -0.792)" fill="#ffcfb8"/>
        <path id="Trazado_1052873" data-name="Trazado 1052873" d="M293.463,89.694c-.128.79-.337,1.848-.584,3.063-.059.316-.119.632-.188.968-.366,1.818-.809,3.913-1.265,6.018-.068.326-.138.642-.207.968-.741,3.478-1.492,6.887-1.976,9.041-.089.425-.178.8-.237,1.117-.168.731-.267,1.156-.267,1.156a19.571,19.571,0,0,1-6.344-1.265,70.446,70.446,0,0,1-10.058-4.555c-.416-.217-.8-.435-1.167-.632-2.006-1.117-3.309-1.927-3.309-1.927l1.3-3.794.346-.988,2.658-7.737.327-.929,5.888-17.1.4-1.146,1.8-5.227a21.354,21.354,0,0,1,6.512,2.7c.366.227.711.474,1.047.721,7.481,5.711,6.037,15.355,5.327,19.555" transform="translate(-3.182 -0.792)" fill="#619ac9"/>
        <path id="Trazado_1052874" data-name="Trazado 1052874" d="M267.9,103.573l7.752-21.809,2.167-6.1c.062-.173-.213-.248-.275-.076L269.79,97.4l-2.167,6.1c-.061.174.214.248.276.076" transform="translate(-3.179 -0.897)" fill="#245472"/>
        <path id="Trazado_1052875" data-name="Trazado 1052875" d="M275.251,77.176q-.119,2.824-.236,5.646c-.008.184.278.184.286,0q.117-2.822.236-5.646c.008-.183-.278-.183-.286,0" transform="translate(-3.267 -0.915)" fill="#245472"/>
        <path id="Trazado_1052876" data-name="Trazado 1052876" d="M243.679,81.819c-1.067-1.479,1.724-11.495-.346-12.275-1.893-.713-4.076,3.182-3.681,5.446-1.851-2.223-6.438-12.975-8.529-11.726-1.548.925,2.809,8.615,2.809,8.615s-6.027-8.368-7.811-6.823,5.372,9.3,5.372,9.3-6.458-6.218-7.672-4.749c-1.194,1.445,6.031,7.344,6.031,7.344s-6.378-3.792-7-2.925,2.73,4.084,5.974,5.766a15.2,15.2,0,0,0,7.747,7.854Z" transform="translate(-2.646 -0.75)" fill="#ffcfb8"/>
        <path id="Trazado_1052877" data-name="Trazado 1052877" d="M235.581,38.739c.013.1.034.194.046.291.022.114.034.211.055.325.987,5.444,3.208,8.777,6.141,11.171a46.308,46.308,0,0,0,4.286,3.054c.409.269.79.521,1.163.774.291.194.564.4.847.608,2.851,2.087,4.541,4.481,4.678,11.676a8.052,8.052,0,0,0,14.841-.272,71.608,71.608,0,0,1,2.614-21.124c.344-1.272.686-2.357.982-3.228.56-1.669.97-2.588.97-2.588s-.764-19.132-3.615-24.163c-6.938-12.134-30.408-7.507-32.056,2.3-1.585,9.366-1.765,16.146-.954,21.179" transform="translate(-2.793 -0.095)" fill="#ffcfb8"/>
        <path id="Trazado_1052878" data-name="Trazado 1052878" d="M235.875,14.023a20.606,20.606,0,0,0,19.294,5.858,17.5,17.5,0,0,0,18.994,13.6c.318-4.045.5-8.4-.466-12.341a19.083,19.083,0,0,0-6.1-10.293c-4.132-3.392-9.787-4.362-15.127-4.109a23.921,23.921,0,0,0-16.6,7.284" transform="translate(-2.802 -0.08)" fill="#181d30"/>
        <path id="Trazado_1052879" data-name="Trazado 1052879" d="M246.392,36.792a2.727,2.727,0,0,0-1.1-.221,1.542,1.542,0,0,0-.975.3,1.23,1.23,0,0,0-.416.958,2.249,2.249,0,0,0,.288,1,.366.366,0,0,0,.452.222.359.359,0,0,0,.221-.452,1.989,1.989,0,0,1-.249-.727.638.638,0,0,1,.087-.378l-.012.021a.477.477,0,0,1,.322-.2l.033-.008c.027,0,.053-.008.08-.01a1.691,1.691,0,0,1,.212-.013c.037,0,.073,0,.109,0h.027l.023,0a3.811,3.811,0,0,1,.631.159.355.355,0,0,0,.423-.174.36.36,0,0,0-.156-.478" transform="translate(-2.897 -0.434)" fill="#c16b5b"/>
        <path id="Trazado_1052880" data-name="Trazado 1052880" d="M237.82,28.748a6.457,6.457,0,0,1,5.887-1.33,1.017,1.017,0,0,1,.721,1.222c-.208.684-.809.806-1.427.667a4.469,4.469,0,0,0-3.62.746c-.035.025-.069.05-.124.092a1.024,1.024,0,0,1-1.409.022,1.014,1.014,0,0,1-.029-1.419" transform="translate(-2.821 -0.323)" fill="#181d30"/>
        <path id="Trazado_1052881" data-name="Trazado 1052881" d="M250.136,27.28a6.459,6.459,0,0,1,5.992.73A1,1,0,0,1,255,29.671a4.831,4.831,0,0,0-1.728-.763l.081.031a4.793,4.793,0,0,0-2.292.128,1.065,1.065,0,0,1-1.376-.442,1.015,1.015,0,0,1,.452-1.346" transform="translate(-2.965 -0.319)" fill="#181d30"/>
        <path id="Trazado_1052882" data-name="Trazado 1052882" d="M254.476,34.125a1.624,1.624,0,1,1-1.786-1.444,1.623,1.623,0,0,1,1.786,1.444" transform="translate(-2.984 -0.388)"/>
        <path id="Trazado_1052883" data-name="Trazado 1052883" d="M252.718,33.8a.473.473,0,1,1-.521-.421.474.474,0,0,1,.521.421" transform="translate(-2.991 -0.396)" fill="#fff"/>
        <path id="Trazado_1052884" data-name="Trazado 1052884" d="M242.5,34.661a1.624,1.624,0,1,1-1.786-1.444,1.623,1.623,0,0,1,1.786,1.444" transform="translate(-2.842 -0.394)"/>
        <path id="Trazado_1052885" data-name="Trazado 1052885" d="M240.738,34.334a.473.473,0,1,1-.521-.421.474.474,0,0,1,.521.421" transform="translate(-2.848 -0.403)" fill="#fff"/>
        <path id="Trazado_1052886" data-name="Trazado 1052886" d="M250.467,41.053c-.514-.574-1.5.267-2.789.574s-2.548,0-2.748.747c-.252.943,1.354,2.752,3.463,2.249s2.724-2.844,2.074-3.57" transform="translate(-2.909 -0.485)" fill="#8e4136"/>
        <path id="Trazado_1052887" data-name="Trazado 1052887" d="M250.631,42.494a10.532,10.532,0,0,0-1.307.223,6.488,6.488,0,0,0-3.2,1.557,3.03,3.03,0,0,0,4.508-1.781" transform="translate(-2.923 -0.505)" fill="#c16b5b"/>
        <path id="Trazado_1052888" data-name="Trazado 1052888" d="M247.854,42.35c1.149-.275,2.06-.78,2.269-1.485-.556-.083-1.4.514-2.442.762s-2.063.1-2.523.423a2.9,2.9,0,0,0,2.7.3" transform="translate(-2.912 -0.485)" fill="#e1eff0"/>
        <path id="Trazado_1052889" data-name="Trazado 1052889" d="M277.772,40.052c-1.974,2.446-5.148,3.158-7.09,1.591s-1.915-4.82.059-7.266,5.148-3.158,7.09-1.591,1.914,4.82-.059,7.266" transform="translate(-3.198 -0.38)" fill="#ffcfb8"/>
        <path id="Trazado_1052890" data-name="Trazado 1052890" d="M276.568,34.01a3.487,3.487,0,0,0-3.06.117,2.86,2.86,0,0,0-1.154.932,1.738,1.738,0,0,0-.219,1.6,2.459,2.459,0,0,0,.86.976,2.371,2.371,0,0,1,.575.558.888.888,0,0,1-1.116,1.274.4.4,0,1,0-.319.723,1.635,1.635,0,0,0,.691.134,1.668,1.668,0,0,0,1.417-2.541,2.988,2.988,0,0,0-.762-.77,1.8,1.8,0,0,1-.614-.651.948.948,0,0,1,.14-.86.795.795,0,0,1,1.431.058,1.416,1.416,0,0,1,.367,1.15.392.392,0,0,0,.333.447.277.277,0,0,0,.064,0,.392.392,0,0,0,.382-.337,2.184,2.184,0,0,0-.574-1.807,1.8,1.8,0,0,0-.6-.392,2.486,2.486,0,0,1,1.8.09,1.525,1.525,0,0,1,.8,1.84.395.395,0,0,0,.723.317,2.31,2.31,0,0,0-1.167-2.863" transform="translate(-3.23 -0.4)" fill="#c16b5b"/>
        <path id="Trazado_1052891" data-name="Trazado 1052891" d="M156.434,157.446H117.577A13.777,13.777,0,0,0,103.8,171.223v10.906A13.775,13.775,0,0,0,117.512,195.9l-1.06,3.428a.952.952,0,0,0,1.275,1.16l11.03-4.586h27.677a13.777,13.777,0,0,0,13.777-13.777V171.223a13.777,13.777,0,0,0-13.777-13.777" transform="translate(-1.233 -1.87)" fill="#fff"/>
        <path id="Trazado_1052892" data-name="Trazado 1052892" d="M153.617,167.817a11.209,11.209,0,0,0-10.481-.563,14.1,14.1,0,0,0-2.123-1.768c-3.948-2.666-9.011-3.415-13.679-2.962-4.538.44-9.138,2.334-11.584,6.38-2.286,3.782-1.788,8.973,1.779,11.8a9.137,9.137,0,0,0,5.386,1.967c.058,0,.117,0,.175,0a12.975,12.975,0,0,0,1.068,1.161,16.128,16.128,0,0,0,2.326,1.842c-.062.026-.125.053-.187.077a14.161,14.161,0,0,1-7.419,1.018c-.435-.074-.622.592-.184.666a15.219,15.219,0,0,0,8.5-1.317,29.348,29.348,0,0,0,9.572,3.3c4.853.912,10.074,1.112,14.65-1.023,3.863-1.8,6.97-5.215,7.512-9.549a11.23,11.23,0,0,0-5.308-11.017m-7.422,8.648c-.027.444.664.443.691,0a11.015,11.015,0,0,0-.671-4.412,4.514,4.514,0,0,1,2.822,2.35,4,4,0,0,1-1.583,5.094,6.656,6.656,0,0,1-2.239.922c-1.227-1.691-3.551-1.682-5.4-1.2-.176.045-.349.1-.523.152a4.211,4.211,0,0,1-1.535-2.622,11.154,11.154,0,0,1,.967-1.568,7.88,7.88,0,0,1,5.143-3.315,5.79,5.79,0,0,1,1.541.008,10.559,10.559,0,0,1,.784,4.592m-1.413,7.861a3.912,3.912,0,0,1-4.729,1.443,5.381,5.381,0,0,1-3.224-4.48c-.008-.065-.006-.129-.011-.194.254-.118.5-.243.763-.353.479-.2,1-.422,1.551-.612a7.378,7.378,0,0,0,3.917,1.152,9.889,9.889,0,0,0,1.794-.115,3.37,3.37,0,0,1-.061,3.158m-7.048-5.624a4.6,4.6,0,0,0,.772.923q-.872.3-1.712.679a7.971,7.971,0,0,1,.515-2.522,4.809,4.809,0,0,0,.426.92m2.288,1.154a5.216,5.216,0,0,1,3.573.1,2.656,2.656,0,0,1,.8.6,8.671,8.671,0,0,1-3.074-.192,5.542,5.542,0,0,1-1.3-.508m3.432-8.621a8.7,8.7,0,0,0-5.324,3.6c-.152.207-.3.422-.436.639a8.284,8.284,0,0,1,1.845-4.521,10.729,10.729,0,0,1,3.447-2.847,12.593,12.593,0,0,1,1.986,2.8c.042.081.078.164.118.246a6.789,6.789,0,0,0-1.635.083m-22.047,6.9a9.364,9.364,0,0,1-.058-5.691,6,6,0,0,1,3.712-3.977,4.539,4.539,0,0,1,5.123,2.428,7.167,7.167,0,0,1,.244,5.855,8.041,8.041,0,0,1-6.99,5.206,11.824,11.824,0,0,1-2.032-3.821m2.585,4.479a8.335,8.335,0,0,0,4.369-1.854c3.2-2.622,4.558-7.834,1.727-11.232a5.017,5.017,0,0,0-5.67-1.564,6.907,6.907,0,0,0-3.776,4.419,11.1,11.1,0,0,0,1.908,9.569,7.413,7.413,0,0,1-.865-.1,8.4,8.4,0,0,1-4.642-2.537,8.109,8.109,0,0,1-2.02-5.742c.145-4.241,3.438-7.628,7.2-9.151a19.462,19.462,0,0,1,6.639-1.3,23.27,23.27,0,0,1,6.456.635,15.876,15.876,0,0,1,7.157,3.838c-.269.147-.533.3-.791.473a10.865,10.865,0,0,0-4.026,4.69,7.707,7.707,0,0,0-.623,3.9,8.885,8.885,0,0,0-.938,3.965c-3,1.435-5.784,3.377-8.825,4.715a15.43,15.43,0,0,1-3.285-2.722m33.767-1.76a11.18,11.18,0,0,1-3.21,4.676c-3.206,2.842-7.51,3.893-11.712,3.843a35.912,35.912,0,0,1-7.089-.874,30.755,30.755,0,0,1-6.087-1.893c-.571-.254-1.129-.538-1.674-.846,1.238-.565,2.443-1.21,3.607-1.867,1.508-.849,3.006-1.726,4.559-2.491v.015a6.136,6.136,0,0,0,3.3,4.847,4.826,4.826,0,0,0,5.344-.81,4.106,4.106,0,0,0,.773-4.423,6.285,6.285,0,0,0,3.541-2.133,4.557,4.557,0,0,0,.063-5.6,5.3,5.3,0,0,0-3.275-2.033,13.4,13.4,0,0,0-2.257-3.472,10.284,10.284,0,0,1,6.19-.713,10.566,10.566,0,0,1,8.179,7.738,10.769,10.769,0,0,1-.249,6.039" transform="translate(-1.358 -1.929)" fill="#619ac9"/>
        <rect id="Rectángulo_419488" data-name="Rectángulo 419488" width="1.036" height="54.195" transform="translate(64.417 319.053) rotate(-67.438)" fill="#245472"/>
        <rect id="Rectángulo_419489" data-name="Rectángulo 419489" width="54.195" height="1.036" transform="matrix(0.924, -0.384, 0.384, 0.924, 61.336, 338.886)" fill="#245472"/>
        <path id="Trazado_1052893" data-name="Trazado 1052893" d="M62.763,317.412l-8.918,85.114H55.7l14.318-85.114Z" transform="translate(-0.64 -3.77)" fill="#245472"/>
        <path id="Trazado_1052894" data-name="Trazado 1052894" d="M116.6,317.412l8.918,85.114h-1.851l-14.318-85.114Z" transform="translate(-1.299 -3.77)" fill="#245472"/>
        <rect id="Rectángulo_419490" data-name="Rectángulo 419490" width="1.036" height="54.195" transform="translate(86.769 320.759) rotate(-67.437)" fill="#245472"/>
        <rect id="Rectángulo_419491" data-name="Rectángulo 419491" width="54.195" height="1.036" transform="matrix(0.924, -0.384, 0.384, 0.924, 83.688, 340.592)" fill="#245472"/>
        <path id="Trazado_1052895" data-name="Trazado 1052895" d="M82.96,317.412l-8.918,85.114h1.85l14.319-85.114Z" transform="translate(-0.879 -3.77)" fill="#245472"/>
        <path id="Trazado_1052896" data-name="Trazado 1052896" d="M136.8,317.412l8.918,85.114h-1.85l-14.319-85.114Z" transform="translate(-1.539 -3.77)" fill="#245472"/>
        <path id="Trazado_1052897" data-name="Trazado 1052897" d="M134.581,293.794a25.383,25.383,0,0,0-24.04-17.228H90.146l-7.186-23.045a9.854,9.854,0,0,0-9.4-6.916H37.377a9.846,9.846,0,0,0-9.515,12.371L32.811,277.7v.01l4.617,17.466a28.769,28.769,0,0,0,27.8,21.4h72.117a3.557,3.557,0,0,0,3.369-4.7Z" transform="translate(-0.327 -2.929)" fill="#162a45"/>
        <path id="Trazado_1052898" data-name="Trazado 1052898" d="M136.454,293.794a25.383,25.383,0,0,0-24.04-17.228H92.019l-7.186-23.045a9.854,9.854,0,0,0-9.4-6.916H39.25a9.845,9.845,0,0,0-9.515,12.371L34.683,277.7v.01L39.3,295.171a28.768,28.768,0,0,0,27.8,21.4h72.117a3.558,3.558,0,0,0,3.369-4.7Z" transform="translate(-0.349 -2.929)" fill="#3a739b"/>
        <path id="Trazado_1052899" data-name="Trazado 1052899" d="M94.316,286.316l.677.745s17.462,4.737,23.216,7.444,5.956,8.867,4.061,15.094-7.962,26.262-7.962,26.262c-3.138.405-9.568-2.843-9.568-2.843l4.089-26.668s-21.958,4.061-30.892-1.624-7.784-18.073-7.784-18.073Z" transform="translate(-0.833 -3.401)" fill="#619ac9"/>
        <path id="Trazado_1052900" data-name="Trazado 1052900" d="M130.1,345.648a1.347,1.347,0,0,0,.01-.213c.5-2.009-.1-4.561-6.351-7.261a17.057,17.057,0,0,1-5.977-4.4c.131-2.717,3.2-4.28,1.707-5.234-3.425-2.185-5.585,3.761-5.589,3.774a29.058,29.058,0,0,1-7.426-2.283,12.426,12.426,0,0,0-1.653,2.185c-.141.244-.294.5-.446.786-.033.05-.061.108-.1.171-.061.108-.121.236-.18.365a.876.876,0,0,0-.05.118c-.008.031-.03.039-.036.062a15.422,15.422,0,0,0-.793,2.023,16.306,16.306,0,0,0-.583,2.521l-.023.21c-.046.308-.085.606-.111.932-.006.273-.031.567-.049.87l27.234,7.116a6.168,6.168,0,0,0,.262-.807,8.153,8.153,0,0,0,.15-.928" transform="translate(-1.217 -3.896)" fill="#ffb652"/>
        <path id="Trazado_1052901" data-name="Trazado 1052901" d="M102.606,338.593c-.041.3-.082.607-.1.926-.016.281-.042.573-.05.875l27.228,7.115a5.555,5.555,0,0,0,.267-.806,7.23,7.23,0,0,0,.145-.927Z" transform="translate(-1.217 -4.022)" fill="#ea5c4c"/>
        <path id="Trazado_1052902" data-name="Trazado 1052902" d="M119.852,335.528h0" transform="translate(-1.423 -3.985)" fill="#fff"/>
        <path id="Trazado_1052903" data-name="Trazado 1052903" d="M120.318,334.848a.487.487,0,0,0-.6-.327,9.475,9.475,0,0,0-2.347,1.372.481.481,0,0,0-.136.348.494.494,0,0,0,.144.333.486.486,0,0,0,.348.136.566.566,0,0,0,.332-.144c-.11.087.024-.018.051-.039s.082-.062.124-.093c.08-.058.16-.115.241-.17q.25-.17.512-.323c.17-.1.343-.193.52-.28.092-.045.186-.09.281-.132l.056-.025-.026.012.013-.006q.079-.034.157-.065a.524.524,0,0,0,.285-.225.493.493,0,0,0,.042-.372" transform="translate(-1.393 -3.973)" fill="#fff"/>
        <path id="Trazado_1052904" data-name="Trazado 1052904" d="M121.624,336.729h0" transform="translate(-1.444 -4)" fill="#fff"/>
        <path id="Trazado_1052905" data-name="Trazado 1052905" d="M122.02,336a.486.486,0,0,0-.626-.264,9.492,9.492,0,0,0-2.195,1.6.482.482,0,0,0-.1.361.481.481,0,0,0,.538.416.568.568,0,0,0,.316-.179c-.1.1.021-.02.046-.042s.075-.071.114-.106c.073-.065.147-.13.222-.194q.231-.2.475-.374t.488-.331c.088-.055.176-.109.266-.161.018-.01.037-.02.053-.031l-.024.015.012-.007c.049-.028.1-.054.15-.081a.528.528,0,0,0,.26-.254.494.494,0,0,0,0-.374" transform="translate(-1.415 -3.987)" fill="#fff"/>
        <path id="Trazado_1052906" data-name="Trazado 1052906" d="M123.649,337.806h0" transform="translate(-1.468 -4.012)" fill="#fff"/>
        <path id="Trazado_1052907" data-name="Trazado 1052907" d="M123.879,337a.486.486,0,0,0-.67-.118,9.453,9.453,0,0,0-1.783,2.052.478.478,0,0,0-.018.372.481.481,0,0,0,.617.287.57.57,0,0,0,.269-.244c-.076.118.017-.024.036-.052l.088-.127c.056-.081.114-.16.173-.239q.182-.242.381-.469t.4-.432c.073-.073.147-.144.223-.215l.045-.042-.021.019.011-.009c.042-.039.085-.076.128-.113a.526.526,0,0,0,.2-.3.494.494,0,0,0-.079-.366" transform="translate(-1.442 -4)" fill="#fff"/>
        <path id="Trazado_1052908" data-name="Trazado 1052908" d="M55.784,285.768c-3.6,11.05-1.986,23.092,13.256,27.294,14.417,3.973,30.1-1.912,30.1-1.912l2.392,30.339c7.621,1.4,12.626,0,12.626,0s.075-25.4-.06-34.469-3.433-11.686-13.4-14.484c-9.645-2.707-20.17-5.415-20.17-5.415Z" transform="translate(-0.643 -3.394)" fill="#619ac9"/>
        <path id="Trazado_1052909" data-name="Trazado 1052909" d="M91.608,290.116c3.881,1.1,7.778,2.169,11.646,3.319a23.631,23.631,0,0,1,4.864,1.916A10.932,10.932,0,0,1,111.9,298.8c2.072,3.1,2.542,6.909,2.577,10.556.019,2.008-.064,4.017-.088,6.025-.025,2.031-.026,4.06-.021,6.09.012,4.579.056,9.158-.05,13.736a.143.143,0,0,0,.286,0c.1-4.176.068-8.353.054-12.529-.008-2.079-.011-4.158.006-6.236s.091-4.165.1-6.248c.017-3.67-.3-7.485-2.133-10.747a11.127,11.127,0,0,0-3.279-3.661,17.639,17.639,0,0,0-4.6-2.183c-2.034-.68-4.118-1.219-6.179-1.805l-6.889-1.96a.143.143,0,0,0-.076.276" transform="translate(-1.087 -3.443)" fill="#245472"/>
        <path id="Trazado_1052910" data-name="Trazado 1052910" d="M93.5,289.364l.707,1.4a.144.144,0,0,0,.195.051.146.146,0,0,0,.051-.2l-.707-1.4a.145.145,0,0,0-.195-.051.146.146,0,0,0-.051.2" transform="translate(-1.11 -3.434)" fill="#245472"/>
        <path id="Trazado_1052911" data-name="Trazado 1052911" d="M110.1,250.279c1.049-.913.719-8.834,2.392-9.053,1.53-.2,2.472,3.071,1.786,4.683,1.761-1.329,7.035-8.513,8.371-7.221.988.956-3.584,5.907-3.584,5.907s5.93-5.164,6.985-3.706-5.606,5.97-5.606,5.97,5.876-3.493,6.522-2.192c.635,1.281-5.755,4.4-5.755,4.4s5.394-1.706,5.7-.955-2.736,2.557-5.438,3.241a11.59,11.59,0,0,1-7.116,4.483Z" transform="translate(-1.308 -2.833)" fill="#eda895"/>
        <path id="Trazado_1052912" data-name="Trazado 1052912" d="M82.25,239.053c6.261,1.033,9.774,19.682,9.774,19.682l18.248-9.175,4.2,5.956s-12.9,10.024-18.177,12.251-11.37,3.655-14.248-2.843.2-25.872.2-25.872" transform="translate(-0.96 -2.839)" fill="#eda895"/>
        <path id="Trazado_1052913" data-name="Trazado 1052913" d="M82.267,239.053c7.141.9,12.567,14.925,12.567,14.925-2.449,2.691-8.675,5.8-8.675,5.8Z" transform="translate(-0.977 -2.839)" fill="#ea5c4c"/>
        <path id="Trazado_1052914" data-name="Trazado 1052914" d="M55.625,285.691c33.128,4.6,39.7.561,39.7.561L81.951,239.041l-8.6-1.032-7.744.926-8.486,2.936Z" transform="translate(-0.661 -2.827)" fill="#ea5c4c"/>
        <path id="Trazado_1052915" data-name="Trazado 1052915" d="M77.534,257.881q1-1.27,1.992-2.544c2.325-2.97-1.842-7.2-4.193-4.193l-6.391,8.167c-1.387,1.772-.76,5.32,2.1,5.059l1.45-.131a51.644,51.644,0,0,0-2.635,10.116c-.572,3.733,5.14,5.342,5.717,1.577a48.247,48.247,0,0,1,4.094-13.584c.817-1.716-.011-4.337-2.129-4.467" transform="translate(-0.81 -2.971)" fill="#ff847b"/>
        <path id="Trazado_1052916" data-name="Trazado 1052916" d="M82.712,241.4q2.457,8.646,4.914,17.291a.143.143,0,0,0,.276-.076q-2.457-8.646-4.914-17.291a.143.143,0,0,0-.276.076" transform="translate(-0.982 -2.865)" fill="#a83027"/>
        <path id="Trazado_1052917" data-name="Trazado 1052917" d="M57.932,268.86a132.256,132.256,0,0,1,4.8-14.551c.068-.171-.208-.245-.275-.076a132.053,132.053,0,0,0-4.8,14.551.143.143,0,0,0,.276.076" transform="translate(-0.685 -3.019)" fill="#a83027"/>
        <path id="Trazado_1052918" data-name="Trazado 1052918" d="M63.935,255.472l-3.314,4c-.116.141.085.344.2.2l3.314-4c.117-.14-.084-.343-.2-.2" transform="translate(-0.72 -3.034)" fill="#a83027"/>
        <path id="Trazado_1052919" data-name="Trazado 1052919" d="M56.967,241.916c-6.442,2.3-13.36,20.839-14.17,28.271-.748,6.87,1.129,11.345,10.774,11.168,8.581-.156,28.022-6.48,28.022-6.48l-1.7-7.8-25.271,3.469,5.347-15.01Z" transform="translate(-0.507 -2.873)" fill="#edb7a8"/>
        <path id="Trazado_1052920" data-name="Trazado 1052920" d="M56.945,241.916c-11.349,4.632-16.153,24.532-16.153,24.532,4.467,2.572,16.446,2.572,16.446,2.572l4.308-14.332Z" transform="translate(-0.485 -2.873)" fill="#ea5c4c"/>
        <path id="Trazado_1052921" data-name="Trazado 1052921" d="M79.177,268.5c1.275-.557,3.325-8.215,4.988-7.925,1.52.266,1.442,3.669.3,5,2.077-.741,9.258-6.021,10.147-4.389.658,1.207-5.186,4.566-5.186,4.566s7.2-3.157,7.774-1.451-7.133,4.023-7.133,4.023,6.652-1.578,6.879-.142c.222,1.411-6.808,2.482-6.808,2.482s5.658-.017,5.727.793-3.375,1.621-6.158,1.467a11.591,11.591,0,0,1-8.131,2.152Z" transform="translate(-0.94 -3.095)" fill="#edb7a8"/>
        <path id="Trazado_1052922" data-name="Trazado 1052922" d="M98.584,182.147a9.787,9.787,0,0,0-2.613-7.3,9.559,9.559,0,0,0-5.328-2.543,15.283,15.283,0,0,0-5.836.439,7.031,7.031,0,0,0-4.231-5.356,14.187,14.187,0,0,0-7-.924,29.972,29.972,0,0,0-20.141,10.191,15.251,15.251,0,0,0-3.127,5.516,7.6,7.6,0,0,0-3.981,2.137,14.417,14.417,0,0,0-2.636,3.732A26.657,26.657,0,0,0,41.576,206.9a4.545,4.545,0,0,0,1.09,2.217,1.753,1.753,0,0,0,2.249.33,12.235,12.235,0,0,0,13.827,13.793l33.61-14.575a18.972,18.972,0,0,0,3.9-18.967,17.406,17.406,0,0,0,2.337-7.557" transform="translate(-0.484 -1.976)" fill="#181d30"/>
        <path id="Trazado_1052923" data-name="Trazado 1052923" d="M96.66,208.388c.014,1.457-.033,2.824-.148,4.1-.562,6.849-2.844,11.174-6.214,14.269a27.636,27.636,0,0,1-7.122,4.446c-4.351,2.081-7.884,3.692-7.532,9.971-3.766,3.876-9.432,2.832-11.495-.443-.554-12.682-6.618-16.344-8.645-21.2-.619-1.488-1.1-2.469-1.3-2.841-.061-.134-.084-.194-.084-.194s-.08-2.039-.086-5.05l-.011-1.142c0-7.045.291-18.128,2.195-22.136,6.98-14.673,34.6-11.343,37.37-.124,2.067,8.393,3.012,15.018,3.07,20.344" transform="translate(-0.642 -2.119)" fill="#edb7a8"/>
        <path id="Trazado_1052924" data-name="Trazado 1052924" d="M94.811,187.99c-1.525,2.248-4.584,2.768-7.3,2.854A47.524,47.524,0,0,1,67.048,186.9a2.145,2.145,0,0,1,1.339,2.69,3.181,3.181,0,0,1-2.5,2,6.42,6.42,0,0,1-3.3-.425,20.224,20.224,0,0,1-9.7,21.877,40.18,40.18,0,0,1-.027-22.293c1.075-3.609,2.744-7.172,5.579-9.651,4.344-3.8,10.58-4.405,16.35-4.343,4.286.046,8.671.385,12.6,2.11a12.405,12.405,0,0,1,7.426,9.123" transform="translate(-0.609 -2.099)" fill="#181d30"/>
        <path id="Trazado_1052925" data-name="Trazado 1052925" d="M78.831,212.836c.588-.973,2.249-.024,4.2.069s3.693-.694,4.186.331c.623,1.3-1.209,4.357-4.4,4.2s-4.724-3.374-3.981-4.6" transform="translate(-0.934 -2.523)" fill="#8e4136"/>
        <path id="Trazado_1052926" data-name="Trazado 1052926" d="M79.007,214.967a15.308,15.308,0,0,1,1.955-.034,9.579,9.579,0,0,1,5.061,1.378,4.4,4.4,0,0,1-3.208,1.158,4.441,4.441,0,0,1-3.808-2.5" transform="translate(-0.938 -2.553)" fill="#c16b5b"/>
        <path id="Trazado_1052927" data-name="Trazado 1052927" d="M82.984,214c-1.74-.083-3.2-.566-3.694-1.532.785-.273,2.172.361,3.746.437s3.015-.424,3.771-.077c-.585.913-2.083,1.255-3.823,1.172" transform="translate(-0.942 -2.523)" fill="#fff"/>
        <path id="Trazado_1052928" data-name="Trazado 1052928" d="M85.813,210.089a.231.231,0,0,0,.21-.178c.352-1.52-.185-2-.7-2.134a2.213,2.213,0,0,0-1.794.5.231.231,0,0,0-.057.32.234.234,0,0,0,.32.056,1.792,1.792,0,0,1,1.415-.431c.459.121.583.655.368,1.588a.231.231,0,0,0,.172.276.235.235,0,0,0,.064,0" transform="translate(-0.991 -2.467)" fill="#c16b5b"/>
        <path id="Trazado_1052929" data-name="Trazado 1052929" d="M89.231,204.517a2.239,2.239,0,1,0,2.3-2.171,2.24,2.24,0,0,0-2.3,2.171" transform="translate(-1.06 -2.403)"/>
        <path id="Trazado_1052930" data-name="Trazado 1052930" d="M91.651,203.882a.652.652,0,1,0,.672-.632.653.653,0,0,0-.672.632" transform="translate(-1.089 -2.414)" fill="#fff"/>
        <path id="Trazado_1052931" data-name="Trazado 1052931" d="M73.537,204.517a2.239,2.239,0,1,0,2.3-2.171,2.239,2.239,0,0,0-2.3,2.171" transform="translate(-0.873 -2.403)"/>
        <path id="Trazado_1052932" data-name="Trazado 1052932" d="M75.957,203.882a.652.652,0,1,0,.672-.632.653.653,0,0,0-.672.632" transform="translate(-0.902 -2.414)" fill="#fff"/>
        <path id="Trazado_1052933" data-name="Trazado 1052933" d="M94.2,198.187a6.761,6.761,0,0,0-5.269-1.1.853.853,0,0,0-.593,1.043.871.871,0,0,0,1.044.594c.076-.016.151-.029.227-.041.009,0,.186-.023.212-.026.2-.016.4-.023.6-.019.176,0,.349.019.523.035l.027,0,.118.019c.1.017.2.037.293.058q.292.067.577.161c.07.024.141.049.211.075l.114.044.029.013a6.483,6.483,0,0,1,1.032.6.852.852,0,0,0,1.161-.3.873.873,0,0,0-.3-1.162" transform="translate(-1.049 -2.339)"/>
        <path id="Trazado_1052934" data-name="Trazado 1052934" d="M73.025,198.187a6.757,6.757,0,0,1,5.268-1.1.855.855,0,0,1,.594,1.043.871.871,0,0,1-1.044.594c-.077-.016-.151-.029-.228-.041-.009,0-.186-.023-.213-.026-.2-.016-.4-.023-.6-.019-.176,0-.349.019-.522.035l-.027,0-.119.019c-.1.017-.2.037-.293.058-.194.044-.386.1-.576.161-.07.024-.141.049-.212.075l-.114.044-.029.013a6.571,6.571,0,0,0-1.032.6.852.852,0,0,1-1.161-.3.872.872,0,0,1,.305-1.162" transform="translate(-0.862 -2.339)"/>
        <path id="Trazado_1052935" data-name="Trazado 1052935" d="M48.053,219.279c2.5,2.667,6.244,3.219,8.361,1.234s1.8-5.756-.7-8.422-6.244-3.219-8.361-1.234-1.805,5.756.7,8.422" transform="translate(-0.546 -2.49)" fill="#edb7a8"/>
        <path id="Trazado_1052936" data-name="Trazado 1052936" d="M48.985,212.165a4.051,4.051,0,0,1,3.559-.128,3.318,3.318,0,0,1,1.418.981,2.018,2.018,0,0,1,.393,1.838,2.861,2.861,0,0,1-.913,1.206,2.741,2.741,0,0,0-.619.7,1.032,1.032,0,0,0,1.4,1.38.459.459,0,0,1,.431.811,1.894,1.894,0,0,1-.789.216,1.941,1.941,0,0,1-1.863-2.826,3.474,3.474,0,0,1,.817-.958,2.123,2.123,0,0,0,.656-.809,1.107,1.107,0,0,0-.238-.985,1.838,1.838,0,0,0-.367-.331,1.873,1.873,0,0,0-1.288.523,1.644,1.644,0,0,0-.325,1.365.458.458,0,0,1-.348.547.491.491,0,0,1-.075.011.459.459,0,0,1-.472-.359,2.542,2.542,0,0,1,.509-2.144,2.082,2.082,0,0,1,.66-.507,2.891,2.891,0,0,0-2.079.258,1.778,1.778,0,0,0-.77,2.2.459.459,0,0,1-.811.431,2.686,2.686,0,0,1,1.108-3.421" transform="translate(-0.566 -2.514)" fill="#c16b5b"/>
        <path id="Trazado_1052937" data-name="Trazado 1052937" d="M129.978,350.9a1.359,1.359,0,0,0-.042-.209c0-2.07-1.2-4.4-7.919-5.508a17.033,17.033,0,0,1-6.865-2.826c-.531-2.668,2.071-4.928.389-5.491-3.852-1.291-4.508,5-4.509,5.014a29.1,29.1,0,0,1-7.758-.417,12.428,12.428,0,0,0-1.075,2.52c-.078.271-.163.56-.242.87-.02.057-.033.121-.052.19-.033.12-.059.259-.086.4a.938.938,0,0,0-.021.127c0,.032-.019.043-.02.069a15.58,15.58,0,0,0-.281,2.154,16.469,16.469,0,0,0,.044,2.587l.03.209c.029.31.064.608.118.931.06.266.109.557.162.855l28.148.313a6.2,6.2,0,0,0,.058-.847,8.291,8.291,0,0,0-.079-.937" transform="translate(-1.205 -3.999)" fill="#ffb652"/>
        <path id="Trazado_1052938" data-name="Trazado 1052938" d="M101.568,350.758c.034.3.068.609.126.923.052.277.1.565.163.861l28.14.313a5.6,5.6,0,0,0,.063-.847,6.944,6.944,0,0,0-.083-.935Z" transform="translate(-1.206 -4.166)" fill="#ea5c4c"/>
        <path id="Trazado_1052939" data-name="Trazado 1052939" d="M117.557,343.609h0" transform="translate(-1.396 -4.081)" fill="#fff"/>
        <path id="Trazado_1052940" data-name="Trazado 1052940" d="M117.85,342.829a.487.487,0,0,0-.658-.173,9.472,9.472,0,0,0-1.945,1.9.481.481,0,0,0-.049.371.5.5,0,0,0,.221.288.482.482,0,0,0,.371.048.569.569,0,0,0,.288-.221c-.085.112.019-.023.04-.048s.065-.081.1-.121c.062-.076.126-.15.192-.223.134-.151.274-.3.419-.438s.286-.269.436-.4c.079-.067.159-.132.24-.2l.049-.039-.022.018.011-.008c.044-.035.091-.068.136-.1a.522.522,0,0,0,.221-.288.49.49,0,0,0-.048-.371" transform="translate(-1.368 -4.069)" fill="#fff"/>
        <path id="Trazado_1052941" data-name="Trazado 1052941" d="M119.567,344.345c-.021.02-.042.042,0,0" transform="translate(-1.42 -4.09)" fill="#fff"/>
        <path id="Trazado_1052942" data-name="Trazado 1052942" d="M119.78,343.537a.486.486,0,0,0-.672-.1,9.433,9.433,0,0,0-1.74,2.088.48.48,0,0,0-.011.374.483.483,0,0,0,.623.274.568.568,0,0,0,.263-.249c-.074.119.016-.025.035-.053s.056-.087.085-.129c.055-.082.111-.163.169-.242.118-.164.242-.323.371-.478s.258-.3.393-.439c.072-.075.145-.148.219-.22l.044-.043-.02.02.01-.009c.042-.04.084-.077.126-.116a.519.519,0,0,0,.19-.308.491.491,0,0,0-.086-.364" transform="translate(-1.394 -4.078)" fill="#fff"/>
        <path id="Trazado_1052943" data-name="Trazado 1052943" d="M121.793,344.9h0" transform="translate(-1.446 -4.097)" fill="#fff"/>
        <path id="Trazado_1052944" data-name="Trazado 1052944" d="M121.828,344.059a.488.488,0,0,0-.679.047,9.432,9.432,0,0,0-1.232,2.423.478.478,0,0,0,.073.367.48.48,0,0,0,.668.128.57.57,0,0,0,.2-.3c-.045.132.01-.028.022-.059.018-.049.036-.1.054-.146.036-.091.072-.183.111-.273q.119-.279.256-.548t.286-.516c.053-.089.109-.177.165-.263l.034-.052-.015.024.008-.011c.032-.047.064-.094.1-.14a.52.52,0,0,0,.118-.344.492.492,0,0,0-.165-.335" transform="translate(-1.424 -4.085)" fill="#fff"/>
        <path id="Trazado_1052945" data-name="Trazado 1052945" d="M76.771,316.945H65.289a28.768,28.768,0,0,1-27.8-21.4l-4.617-17.466v-.01H43.36A27.909,27.909,0,0,1,69.7,296.753Z" transform="translate(-0.39 -3.303)" fill="#162a45"/>
        <path id="Trazado_1052946" data-name="Trazado 1052946" d="M365.292,327.935a16.973,16.973,0,0,0-8-10.586c-2.684-1.525-5.928-2.424-7.716-4.94-1.764-2.481-1.578-5.784-1.738-8.826a19.419,19.419,0,0,0-3.383-10.7c-2.278-3.036-6.118-5.08-9.865-4.473-4.716.763-8.055,5.629-8.092,10.406s2.648,9.25,6.2,12.448c1.665,1.5,3.631,2.93,4.248,5.085.757,2.648-.8,5.353-1.176,8.08-.485,3.491,1.009,7.007,3.161,9.8a22.706,22.706,0,0,0,21.316,8.179c2.785-.473,3.306-1.722,4.305-4.228a16.99,16.99,0,0,0,.743-10.246" transform="translate(-3.878 -3.424)" fill="#ffb652"/>
        <path id="Trazado_1052947" data-name="Trazado 1052947" d="M336,292.163a122.486,122.486,0,0,0,16.619,37.522q3.187,4.807,6.819,9.294c.112.138.3-.057.195-.194a122.154,122.154,0,0,1-20.023-35.7q-1.931-5.414-3.345-10.995a.137.137,0,0,0-.265.073" transform="translate(-3.991 -3.468)" fill="#162a45"/>
        <path id="Trazado_1052948" data-name="Trazado 1052948" d="M348.842,333.081a23.977,23.977,0,0,1-1.9-18.873c1.154-3.581,3.156-6.869,4.047-10.525,1.456-5.964-.19-12.235-2.339-17.986s-4.839-11.406-5.563-17.5.968-12.947,5.99-16.48c4.6-3.234,11.149-2.878,15.9.121s7.787,8.251,8.985,13.741.719,11.221-.371,16.734c-.907,4.592-2.206,9.507-.347,13.8.966,2.232,2.691,4.029,4.225,5.915a34.533,34.533,0,0,1,7.737,17.246,25.172,25.172,0,0,1-4.476,18.137c-3.254,4.33-10.648,9.617-16.422,7.736-6.225-2.029-12.231-6.319-15.466-12.065" transform="translate(-4.073 -2.963)" fill="#ff884d"/>
        <path id="Trazado_1052949" data-name="Trazado 1052949" d="M358.72,254.239q2.151,8.454,3.818,17.02,1.656,8.521,2.825,17.127,1.184,8.709,1.863,17.478.676,8.7.853,17.424t-.147,17.442q-.04,1.069-.087,2.136c-.008.177.267.177.275,0q.384-8.715.27-17.441-.116-8.766-.736-17.513-.615-8.7-1.728-17.358-1.109-8.628-2.705-17.182-1.6-8.574-3.693-17.048-.267-1.079-.541-2.157a.137.137,0,0,0-.265.073" transform="translate(-4.261 -3.018)" fill="#162a45"/>
        <path id="Trazado_1052950" data-name="Trazado 1052950" d="M363.534,329.218a21.771,21.771,0,0,1,6.813-15.6c2.891-2.7,6.669-4.8,8.148-8.468,1.458-3.622.239-7.689-.47-11.528-.884-4.787-.91-9.887,1.023-14.356s6.113-8.166,10.968-8.529c6.111-.457,11.73,4.615,13.2,10.562s-.538,12.33-4.008,17.38c-1.627,2.369-3.654,4.74-3.778,7.612-.152,3.53,2.593,6.439,3.881,9.727,1.65,4.209.837,9.041-1.013,13.167a29.12,29.12,0,0,1-24.144,16.574c-3.615.244-4.639-1.159-6.634-3.986a21.789,21.789,0,0,1-3.99-12.558" transform="translate(-4.318 -3.215)" fill="#ffb652"/>
        <path id="Trazado_1052951" data-name="Trazado 1052951" d="M389.315,275.805q-.084,6.554-.718,13.087-.642,6.6-1.844,13.132-1.186,6.448-2.906,12.78-1.727,6.357-3.983,12.554t-5.039,12.2q-.348.75-.7,1.5c-.075.159.161.3.238.139q2.828-5.933,5.152-12.091,2.336-6.193,4.142-12.569t3.07-12.873q1.254-6.453,1.967-13,.716-6.579.872-13.205.018-.827.029-1.654a.137.137,0,0,0-.275,0" transform="translate(-4.444 -3.274)" fill="#162a45"/>
        <path id="Trazado_1052952" data-name="Trazado 1052952" d="M388.573,396.016H347.809l-4.883-50.532h50.532Z" transform="translate(-4.073 -4.104)" fill="#ff847b"/>
        <rect id="Rectángulo_419492" data-name="Rectángulo 419492" width="55.485" height="10.474" transform="translate(336.376 336.144)" fill="#a83027"/>
      </g>
    </g>
    <rect id="Rectángulo_419494" data-name="Rectángulo 419494" width="400" height="46.57" transform="translate(180.151 3161.41)" fill="#718489"/>
  </g>
</svg>
