<svg xmlns="http://www.w3.org/2000/svg" xmlns:xlink="http://www.w3.org/1999/xlink" width="108" height="108" viewBox="0 0 108 108">
  <defs>
    <filter id="Trazado_904820" x="0" y="0" width="108" height="108" filterUnits="userSpaceOnUse">
      <feOffset dy="3" input="SourceAlpha"/>
      <feGaussianBlur stdDeviation="3" result="blur"/>
      <feFlood flood-opacity="0.161"/>
      <feComposite operator="in" in2="blur"/>
      <feComposite in="SourceGraphic"/>
    </filter>
  </defs>
  <g id="Grupo_1207692" data-name="Grupo 1207692" transform="translate(-620 -790)">
    <g id="Grupo_1207137" data-name="Grupo 1207137" transform="translate(420 467.5)">
      <g id="Grupo_1174704" data-name="Grupo 1174704" transform="translate(209 328.5)">
        <g id="Grupo_1173585" data-name="Grupo 1173585" transform="translate(0 0)">
          <g id="Grupo_1173428" data-name="Grupo 1173428">
            <g id="Grupo_1171958" data-name="Grupo 1171958">
              <g id="Grupo_1167341" data-name="Grupo 1167341">
                <g id="Grupo_1166792" data-name="Grupo 1166792">
                  <g transform="matrix(1, 0, 0, 1, -9, -6)" filter="url(#Trazado_904820)">
                    <g id="Trazado_904820-2" data-name="Trazado 904820" transform="translate(9 6)" fill="#fdfbec">
                      <path d="M 44.99999618530273 88.49999237060547 C 39.12687301635742 88.49999237060547 33.43022155761719 87.35006713867188 28.06829643249512 85.08216857910156 C 22.88852119445801 82.89130401611328 18.23629570007324 79.75457763671875 14.24084663391113 75.75914001464844 C 10.24540901184082 71.76369476318359 7.108683586120605 67.11146545410156 4.917821407318115 61.93169403076172 C 2.649921178817749 56.56976699829102 1.499996185302734 50.87311553955078 1.499996185302734 44.99999237060547 C 1.499996185302734 39.12686920166016 2.649921178817749 33.43021774291992 4.917821407318115 28.06829261779785 C 7.108683586120605 22.88851737976074 10.24540901184082 18.23630523681641 14.24084663391113 14.24085521697998 C 18.23629570007324 10.24540519714355 22.88852119445801 7.108692169189453 28.06829643249512 4.917829990386963 C 33.43022155761719 2.649929761886597 39.12687301635742 1.500004887580872 44.99999618530273 1.500004887580872 C 50.87311935424805 1.500004887580872 56.56977081298828 2.649929761886597 61.93169784545898 4.917829990386963 C 67.11147308349609 7.108692169189453 71.76369476318359 10.24540519714355 75.75914764404297 14.24085521697998 C 79.75458526611328 18.23630523681641 82.89131164550781 22.88851737976074 85.08216857910156 28.06829261779785 C 87.35007476806641 33.43021774291992 88.5 39.12686920166016 88.5 44.99999237060547 C 88.5 50.87311553955078 87.35007476806641 56.56976699829102 85.08216857910156 61.93169403076172 C 82.89131164550781 67.11146545410156 79.75458526611328 71.76369476318359 75.75914764404297 75.75914001464844 C 71.76369476318359 79.75457763671875 67.11147308349609 82.89130401611328 61.93169784545898 85.08216857910156 C 56.56977081298828 87.35006713867188 50.87311935424805 88.49999237060547 44.99999618530273 88.49999237060547 Z" stroke="none"/>
                      <path d="M 44.99999618530273 2.999992370605469 C 39.32870864868164 2.999992370605469 33.82865142822266 4.11004638671875 28.65262603759766 6.299331665039062 C 23.65165710449219 8.414566040039062 19.15968322753906 11.44333648681641 15.301513671875 15.30150604248047 C 11.44333648681641 19.15967559814453 8.414566040039062 23.65164947509766 6.299339294433594 28.65262222290039 C 4.110054016113281 33.82864761352539 2.999992370605469 39.32870483398438 2.999992370605469 44.99999237060547 C 2.999992370605469 50.67127990722656 4.110054016113281 56.17132186889648 6.299339294433594 61.34736633300781 C 8.414566040039062 66.34833526611328 11.44333648681641 70.84029388427734 15.301513671875 74.69846343994141 C 19.15968322753906 78.55663299560547 23.65165710449219 81.58540344238281 28.65262603759766 83.70063781738281 C 33.82865142822266 85.88992309570312 39.32870864868164 86.99997711181641 44.99999618530273 86.99997711181641 C 50.67128372192383 86.99997711181641 56.17134094238281 85.88992309570312 61.34736633300781 83.70063781738281 C 66.34834289550781 81.58540344238281 70.84030914306641 78.55663299560547 74.69847869873047 74.69846343994141 C 78.55665588378906 70.84029388427734 81.58542633056641 66.34833526611328 83.70065307617188 61.34736633300781 C 85.88993835449219 56.17132186889648 87 50.67127990722656 87 44.99999237060547 C 87 39.32870483398438 85.88993835449219 33.82864761352539 83.70065307617188 28.65262222290039 C 81.58542633056641 23.65164947509766 78.55665588378906 19.15967559814453 74.69847869873047 15.30150604248047 C 70.84030914306641 11.44333648681641 66.34834289550781 8.414566040039062 61.34736633300781 6.299331665039062 C 56.17134094238281 4.11004638671875 50.67128372192383 2.999992370605469 44.99999618530273 2.999992370605469 M 44.99999618530273 -7.62939453125e-06 C 69.85281372070312 -7.62939453125e-06 90 20.14717864990234 90 44.99999237060547 C 90 69.85279083251953 69.85281372070312 89.99997711181641 44.99999618530273 89.99997711181641 C 20.14717864990234 89.99997711181641 -7.62939453125e-06 69.85279083251953 -7.62939453125e-06 44.99999237060547 C -7.62939453125e-06 20.14717864990234 20.14717864990234 -7.62939453125e-06 44.99999618530273 -7.62939453125e-06 Z" stroke="none" fill="#83793c"/>
                    </g>
                  </g>
                </g>
              </g>
            </g>
          </g>
        </g>
      </g>
    </g>
    <g id="hands_7681142" transform="translate(635.675 755.522)">
      <g id="Grupo_1207690" data-name="Grupo 1207690" transform="translate(7.498 63.613)">
        <path id="Trazado_1051464" data-name="Trazado 1051464" d="M303.879,80.706A12.98,12.98,0,0,1,303,77.378l-.283-2.265a3.977,3.977,0,0,0-3.947-3.484h-2.921a3.977,3.977,0,0,0-3.947,3.484l-.283,2.265a12.98,12.98,0,0,1-.876,3.327.982.982,0,0,0,.536,1.265l6.03,2.585,6.03-2.585A.982.982,0,0,0,303.879,80.706Z" transform="translate(-255.549 -70.635)" fill="#e29a6c"/>
        <path id="Trazado_1051465" data-name="Trazado 1051465" d="M295.322,74.612a2.983,2.983,0,0,1,2.983-2.983H295.85a3.978,3.978,0,0,0-3.947,3.484l-.283,2.265a12.98,12.98,0,0,1-.876,3.327.982.982,0,0,0,.536,1.265l4.041,1.732Z" transform="translate(-255.547 -70.635)" fill="#d48c64"/>
        <path id="Trazado_1051466" data-name="Trazado 1051466" d="M293.919,148.067l-3.247-1.082a.994.994,0,0,1-.68-.943v-2.266h-3.978v2.266a1,1,0,0,1-.68.943l-3.247,1.082a2.983,2.983,0,0,0-2.04,2.83h15.91A2.983,2.983,0,0,0,293.919,148.067Z" transform="translate(-246.239 -133.831)" fill="#ffd18d"/>
        <path id="Trazado_1051467" data-name="Trazado 1051467" d="M295.959,182.029v-3.816a2.983,2.983,0,0,0-2.04-2.83l-1.261-.42-3.544,2.363a1.989,1.989,0,0,1-2.206,0l-3.549-2.366-1.271.424a2.983,2.983,0,0,0-2.04,2.83v3.816h15.91Z" transform="translate(-246.24 -161.147)" fill="#eceaec"/>
        <path id="Trazado_1051468" data-name="Trazado 1051468" d="M314.614,102.909a1.488,1.488,0,0,0-.849,1.965,3.979,3.979,0,0,0,3.672,2.446h0a3.977,3.977,0,0,0,3.978-3.977v-.819a1.5,1.5,0,0,0-2.026-1.4Z" transform="translate(-275.673 -96.381)" fill="#ffe09c"/>
        <path id="Trazado_1051469" data-name="Trazado 1051469" d="M125.579,141.044l-3.247-1.082a.994.994,0,0,1-.68-.943v-3.261h-3.978v3.261a.994.994,0,0,1-.68.943l-3.247,1.082a2.983,2.983,0,0,0-2.04,2.83h15.91A2.983,2.983,0,0,0,125.579,141.044Z" transform="translate(-98.782 -126.809)" fill="#f4aa73"/>
        <path id="Trazado_1051470" data-name="Trazado 1051470" d="M125.58,175.189l-1.353-.451a5.959,5.959,0,0,1-9.124,0l-1.353.451a2.983,2.983,0,0,0-2.04,2.83v3.816h15.91v-3.816A2.983,2.983,0,0,0,125.58,175.189Z" transform="translate(-98.783 -160.953)" fill="#dbd8db"/>
        <path id="Trazado_1051471" data-name="Trazado 1051471" d="M145.7,66.6h0a2.983,2.983,0,0,0-2.983-2.983h-3.978a2.983,2.983,0,0,0-2.983,2.983h0a4.211,4.211,0,0,0,.445,1.884l.55,1.1v.994a3.977,3.977,0,0,0,3.978,3.978h0a3.977,3.977,0,0,0,3.977-3.977v-.994l.55-1.1A4.21,4.21,0,0,0,145.7,66.6Z" transform="translate(-119.848 -63.613)" fill="#fbbd80"/>
        <path id="Trazado_1051472" data-name="Trazado 1051472" d="M31.3,153.3l-10.15-8.247a1.986,1.986,0,0,0-2.71.125,1.908,1.908,0,0,0,0,2.563l3.82,4.2L12.8,143.926a1,1,0,0,1-.35-.7l-.84-13.447a2.136,2.136,0,0,0-1.758-2.019,2.052,2.052,0,0,0-2.347,2.03v13.7a4.972,4.972,0,0,0,1.558,3.615l14.783,13.962a4.972,4.972,0,0,1,1.558,3.615l2.983,2.829h6.961v-5.732A10.938,10.938,0,0,0,31.3,153.3Z" transform="translate(-7.5 -119.787)" fill="#ffd18d"/>
        <path id="Trazado_1051473" data-name="Trazado 1051473" d="M284.09,153.3l10.15-8.247a1.986,1.986,0,0,1,2.71.125,1.908,1.908,0,0,1,0,2.563l-3.82,4.2,9.47-8.013a1,1,0,0,0,.35-.7l.84-13.447a2.136,2.136,0,0,1,1.758-2.019,2.052,2.052,0,0,1,2.347,2.03v13.7a4.972,4.972,0,0,1-1.558,3.615l-14.783,13.962a4.972,4.972,0,0,0-1.558,3.615v2.829h-6.961l-2.983-5.732A10.938,10.938,0,0,1,284.09,153.3Z" transform="translate(-246.24 -119.787)" fill="#ffd18d"/>
        <path id="Trazado_1051474" data-name="Trazado 1051474" d="M218.329,220.848l-1.718-.43a.994.994,0,0,1-.753-.965V216.3h-3.978v3.154a.994.994,0,0,1-.753.965l-1.718.43a1.989,1.989,0,0,0-1.506,1.929h11.933A1.989,1.989,0,0,0,218.329,220.848Z" transform="translate(-183.043 -197.359)" fill="#fbbd80"/>
        <path id="Trazado_1051475" data-name="Trazado 1051475" d="M237.918,177.828v1.989a2.983,2.983,0,0,1-2.983,2.983h0a2.983,2.983,0,0,1-2.983-2.983v-1.989a1.989,1.989,0,0,1,1.989-1.989h1.989A1.989,1.989,0,0,1,237.918,177.828Z" transform="translate(-204.109 -161.918)" fill="#ffd18d"/>
        <path id="Trazado_1051476" data-name="Trazado 1051476" d="M218.33,250.8l-1.225-.306a3.959,3.959,0,0,1-6.47,0l-1.225.306a1.989,1.989,0,0,0-1.506,1.929v3.961h11.933v-3.961A1.989,1.989,0,0,0,218.33,250.8Z" transform="translate(-183.044 -227.313)" fill="#ff5f7a"/>
        <path id="Trazado_1051477" data-name="Trazado 1051477" d="M237.918,179.816v-1.989a1.989,1.989,0,0,0-1.989-1.989h-1.989a1.989,1.989,0,0,0-1.989,1.989Z" transform="translate(-204.109 -161.918)" fill="#c6805d"/>
        <path id="Trazado_1051478" data-name="Trazado 1051478" d="M145.7,66.6a2.983,2.983,0,0,0-2.983-2.983h-3.978a2.983,2.983,0,0,0-2.983,2.983,4.213,4.213,0,0,0,.445,1.884l3.544-1.108,4.961,2.207.55-1.1A4.213,4.213,0,0,0,145.7,66.6Z" transform="translate(-119.848 -63.613)" fill="#af6e4d"/>
        <path id="Trazado_1051479" data-name="Trazado 1051479" d="M139.736,63.613h-.994a2.983,2.983,0,0,0-2.983,2.983,4.213,4.213,0,0,0,.445,1.884l.55,1.1,2.983-2.2Z" transform="translate(-119.849 -63.613)" fill="#845252"/>
        <path id="Trazado_1051480" data-name="Trazado 1051480" d="M28.382,167.518v-2.829a7.955,7.955,0,0,0-2.493-5.784l-14.782-13.96a1.989,1.989,0,0,1-.623-1.446V127.977a1.884,1.884,0,0,0-.636-.213,2.052,2.052,0,0,0-2.347,2.03v13.7a4.972,4.972,0,0,0,1.558,3.615l14.783,13.962a4.972,4.972,0,0,1,1.558,3.615v2.829Z" transform="translate(-7.5 -119.787)" fill="#fbbd80"/>
        <path id="Trazado_1051481" data-name="Trazado 1051481" d="M296.988,264.1h0c-.014-.017-.023-.035-.038-.051a1.987,1.987,0,0,0-2.71-.125l-10.15,8.247a10.938,10.938,0,0,0-4.041,8.489V286.4h2.983v-5.732a7.956,7.956,0,0,1,2.939-6.175l11.457-9.309A1.9,1.9,0,0,0,296.988,264.1Z" transform="translate(-246.24 -238.666)" fill="#fbbd80"/>
      </g>
      <g id="Grupo_1207691" data-name="Grupo 1207691" transform="translate(7.498 63.613)">
        <path id="Trazado_1051482" data-name="Trazado 1051482" d="M109.132,286.183v-5.732a10.938,10.938,0,0,0-4.041-8.489L94.849,263.64a1.907,1.907,0,0,0-2.79.422h0a1.907,1.907,0,0,0,.176,2.341l7.134,7.848" transform="translate(-81.289 -238.453)" fill="none" stroke="#000" stroke-linecap="round" stroke-linejoin="round" stroke-miterlimit="10" stroke-width="1.2"/>
        <path id="Trazado_1051483" data-name="Trazado 1051483" d="M14.178,145.154l-1.4-1.228a.994.994,0,0,1-.336-.685L11.6,129.666a2.051,2.051,0,0,0-2.047-1.923h0A2.051,2.051,0,0,0,7.5,129.794V143.5a4.972,4.972,0,0,0,1.558,3.615l14.783,13.962A4.972,4.972,0,0,1,25.4,164.69v2.829" transform="translate(-7.498 -119.788)" fill="none" stroke="#000" stroke-linecap="round" stroke-linejoin="round" stroke-miterlimit="10" stroke-width="1.2"/>
        <path id="Trazado_1051484" data-name="Trazado 1051484" d="M117.675,151.79v1.272a.994.994,0,0,1-.68.943l-3.247,1.082a2.983,2.983,0,0,0-2.04,2.83v3.816" transform="translate(-98.782 -140.852)" fill="none" stroke="#000" stroke-linecap="round" stroke-linejoin="round" stroke-miterlimit="10" stroke-width="1.2"/>
        <path id="Trazado_1051485" data-name="Trazado 1051485" d="M191.871,151.79v1.272a.994.994,0,0,0,.68.943l1.309.436" transform="translate(-169 -140.852)" fill="none" stroke="#000" stroke-linecap="round" stroke-linejoin="round" stroke-miterlimit="10" stroke-width="1.2"/>
        <path id="Trazado_1051486" data-name="Trazado 1051486" d="M145.7,66.6h0a2.983,2.983,0,0,0-2.983-2.983h-3.978a2.983,2.983,0,0,0-2.983,2.983h0a4.211,4.211,0,0,0,.445,1.884l.55,1.1v.994a3.977,3.977,0,0,0,3.978,3.978h0a3.977,3.977,0,0,0,3.977-3.977v-.994l.55-1.1A4.21,4.21,0,0,0,145.7,66.6Z" transform="translate(-119.848 -63.613)" fill="none" stroke="#000" stroke-linecap="round" stroke-linejoin="round" stroke-miterlimit="10" stroke-width="1.2"/>
        <line id="Línea_1138" data-name="Línea 1138" x2="4.961" y2="2.207" transform="translate(19.899 3.759)" fill="none" stroke="#000" stroke-linecap="round" stroke-linejoin="round" stroke-miterlimit="10" stroke-width="1.2"/>
        <path id="Trazado_1051487" data-name="Trazado 1051487" d="M149.783,175.413a5.966,5.966,0,0,1-8.82.184" transform="translate(-124.407 -161.544)" fill="none" stroke="#000" stroke-linecap="round" stroke-linejoin="round" stroke-miterlimit="10" stroke-width="1.2"/>
        <path id="Trazado_1051488" data-name="Trazado 1051488" d="M211.881,226.892v1.84a.994.994,0,0,1-.753.965l-1.718.429a1.989,1.989,0,0,0-1.506,1.929v3.961" transform="translate(-183.043 -206.637)" fill="none" stroke="#000" stroke-linecap="round" stroke-linejoin="round" stroke-miterlimit="10" stroke-width="1.2"/>
        <path id="Trazado_1051489" data-name="Trazado 1051489" d="M272.032,226.892v1.84a.994.994,0,0,0,.753.965l1.718.429a1.989,1.989,0,0,1,1.506,1.929v3.961" transform="translate(-239.217 -206.637)" fill="none" stroke="#000" stroke-linecap="round" stroke-linejoin="round" stroke-miterlimit="10" stroke-width="1.2"/>
        <path id="Trazado_1051490" data-name="Trazado 1051490" d="M237.918,177.828v1.989a2.983,2.983,0,0,1-2.983,2.983h0a2.983,2.983,0,0,1-2.983-2.983v-1.989a1.989,1.989,0,0,1,1.989-1.989h1.989A1.989,1.989,0,0,1,237.918,177.828Z" transform="translate(-204.109 -161.918)" fill="none" stroke="#000" stroke-linecap="round" stroke-linejoin="round" stroke-miterlimit="10" stroke-width="1.2"/>
        <path id="Trazado_1051491" data-name="Trazado 1051491" d="M237.1,251.978a3.978,3.978,0,0,1-6.181-.052" transform="translate(-203.2 -228.566)" fill="none" stroke="#000" stroke-linecap="round" stroke-linejoin="round" stroke-miterlimit="10" stroke-width="1.2"/>
        <path id="Trazado_1051492" data-name="Trazado 1051492" d="M307.08,151.79v1.272a1,1,0,0,1-.68.943l-2.3.768" transform="translate(-267.304 -140.852)" fill="none" stroke="#000" stroke-linecap="round" stroke-linejoin="round" stroke-miterlimit="10" stroke-width="1.2"/>
        <path id="Trazado_1051493" data-name="Trazado 1051493" d="M360.21,151.79v1.272a1,1,0,0,0,.68.943l3.247,1.082a2.983,2.983,0,0,1,2.04,2.83v3.816" transform="translate(-316.457 -140.852)" fill="none" stroke="#000" stroke-linecap="round" stroke-linejoin="round" stroke-miterlimit="10" stroke-width="1.2"/>
        <path id="Trazado_1051494" data-name="Trazado 1051494" d="M312.113,119.726a3.977,3.977,0,0,0,3.978,3.977h0a3.977,3.977,0,0,0,3.977-3.977" transform="translate(-274.326 -112.765)" fill="none" stroke="#000" stroke-linecap="round" stroke-linejoin="round" stroke-miterlimit="10" stroke-width="1.2"/>
        <line id="Línea_1139" data-name="Línea 1139" y1="1.989" x2="5.966" transform="translate(36.793 4.972)" fill="none" stroke="#000" stroke-linecap="round" stroke-linejoin="round" stroke-miterlimit="10" stroke-width="1.2"/>
        <path id="Trazado_1051495" data-name="Trazado 1051495" d="M300.136,83.562,303.257,82a.981.981,0,0,0,.485-1.241,12.975,12.975,0,0,1-.9-3.381l-.283-2.265a3.978,3.978,0,0,0-3.947-3.484h-2.921a3.978,3.978,0,0,0-3.947,3.484l-.283,2.265a12.98,12.98,0,0,1-.9,3.381A.981.981,0,0,0,291.049,82l3.121,1.561" transform="translate(-255.388 -70.635)" fill="none" stroke="#000" stroke-linecap="round" stroke-linejoin="round" stroke-miterlimit="10" stroke-width="1.2"/>
        <path id="Trazado_1051496" data-name="Trazado 1051496" d="M307.854,175.743l3.4,2.268a1.989,1.989,0,0,0,2.206,0l3.381-2.254" transform="translate(-270.595 -161.833)" fill="none" stroke="#000" stroke-linecap="round" stroke-linejoin="round" stroke-miterlimit="10" stroke-width="1.2"/>
        <path id="Trazado_1051497" data-name="Trazado 1051497" d="M280.048,286.183v-5.732a10.938,10.938,0,0,1,4.041-8.489l10.243-8.322a1.907,1.907,0,0,1,2.79.422h0a1.907,1.907,0,0,1-.176,2.341l-7.134,7.848" transform="translate(-246.239 -238.453)" fill="none" stroke="#000" stroke-linecap="round" stroke-linejoin="round" stroke-miterlimit="10" stroke-width="1.2"/>
        <path id="Trazado_1051498" data-name="Trazado 1051498" d="M371.43,145.154l1.4-1.228a.994.994,0,0,0,.336-.685l.849-13.575a2.051,2.051,0,0,1,2.047-1.923h0a2.051,2.051,0,0,1,2.051,2.051V143.5a4.972,4.972,0,0,1-1.558,3.615l-14.783,13.961a4.972,4.972,0,0,0-1.558,3.615v2.829" transform="translate(-316.457 -119.788)" fill="none" stroke="#000" stroke-linecap="round" stroke-linejoin="round" stroke-miterlimit="10" stroke-width="1.2"/>
      </g>
    </g>
  </g>
</svg>
