<svg xmlns="http://www.w3.org/2000/svg" xmlns:xlink="http://www.w3.org/1999/xlink" width="108" height="108" viewBox="0 0 108 108">
  <defs>
    <filter id="Trazado_904820" x="0" y="0" width="108" height="108" filterUnits="userSpaceOnUse">
      <feOffset dy="3" input="SourceAlpha"/>
      <feGaussianBlur stdDeviation="3" result="blur"/>
      <feFlood flood-opacity="0.161"/>
      <feComposite operator="in" in2="blur"/>
      <feComposite in="SourceGraphic"/>
    </filter>
  </defs>
  <g id="Grupo_1207761" data-name="Grupo 1207761" transform="translate(9 6)">
    <g id="Grupo_1173585" data-name="Grupo 1173585" transform="translate(0 0)">
      <g id="Grupo_1173428" data-name="Grupo 1173428">
        <g id="Grupo_1171958" data-name="Grupo 1171958">
          <g id="Grupo_1167341" data-name="Grupo 1167341">
            <g id="Grupo_1166792" data-name="Grupo 1166792">
              <g transform="matrix(1, 0, 0, 1, -9, -6)" filter="url(#Trazado_904820)">
                <g id="Trazado_904820-2" data-name="Trazado 904820" transform="translate(9 6)" fill="#fdfbec">
                  <path d="M 44.99999618530273 88.50002288818359 C 39.12687301635742 88.50002288818359 33.43022155761719 87.35009765625 28.06829643249512 85.08218383789062 C 22.88852119445801 82.89133453369141 18.23629570007324 79.75460815429688 14.24084663391113 75.75916290283203 C 10.24540901184082 71.76371002197266 7.108683586120605 67.11148834228516 4.917821407318115 61.93171310424805 C 2.649921178817749 56.56978607177734 1.499996185302734 50.87313461303711 1.499996185302734 45.0000114440918 C 1.499996185302734 39.12688827514648 2.649921178817749 33.43023681640625 4.917821407318115 28.06829833984375 C 7.108683586120605 22.88852310180664 10.24540901184082 18.2363109588623 14.24084663391113 14.2408618927002 C 18.23629570007324 10.24541187286377 22.88852119445801 7.108686447143555 28.06829643249512 4.917823791503906 C 33.43022155761719 2.649924039840698 39.12687301635742 1.499998927116394 44.99999618530273 1.499998927116394 C 50.87311935424805 1.499998927116394 56.56977081298828 2.649924039840698 61.93169784545898 4.917823791503906 C 67.11147308349609 7.108686447143555 71.76369476318359 10.24541187286377 75.75914764404297 14.2408618927002 C 79.75458526611328 18.2363109588623 82.89131164550781 22.88852310180664 85.08216857910156 28.06829833984375 C 87.35007476806641 33.43023681640625 88.5 39.12688827514648 88.5 45.0000114440918 C 88.5 50.87313461303711 87.35007476806641 56.56978607177734 85.08216857910156 61.93171310424805 C 82.89131164550781 67.11148834228516 79.75458526611328 71.76371002197266 75.75914764404297 75.75916290283203 C 71.76369476318359 79.75460815429688 67.11147308349609 82.89133453369141 61.93169784545898 85.08218383789062 C 56.56977081298828 87.35009765625 50.87311935424805 88.50002288818359 44.99999618530273 88.50002288818359 Z" stroke="none"/>
                  <path d="M 44.99999618530273 3 C 39.32870864868164 3 33.82865142822266 4.110054016113281 28.65262603759766 6.299339294433594 C 23.65165710449219 8.414566040039062 19.15968322753906 11.44333648681641 15.301513671875 15.30152893066406 C 11.44333648681641 19.15969848632812 8.414566040039062 23.65165710449219 6.299339294433594 28.65264129638672 C 4.110054016113281 33.82866668701172 2.999992370605469 39.3287239074707 2.999992370605469 45.0000114440918 C 2.999992370605469 50.67129898071289 4.110054016113281 56.17135620117188 6.299339294433594 61.34738159179688 C 8.414566040039062 66.34836578369141 11.44333648681641 70.84032440185547 15.301513671875 74.69849395751953 C 19.15968322753906 78.55668640136719 23.65165710449219 81.58545684814453 28.65262603759766 83.70068359375 C 33.82865142822266 85.88996887207031 39.32870864868164 87.00002288818359 44.99999618530273 87.00002288818359 C 50.67128372192383 87.00002288818359 56.17134094238281 85.88996887207031 61.34736633300781 83.70068359375 C 66.34834289550781 81.58545684814453 70.84030914306641 78.55668640136719 74.69847869873047 74.69849395751953 C 78.55665588378906 70.84032440185547 81.58542633056641 66.34836578369141 83.70065307617188 61.34738159179688 C 85.88993835449219 56.17135620117188 87 50.67129898071289 87 45.0000114440918 C 87 39.3287239074707 85.88993835449219 33.82866668701172 83.70065307617188 28.65264129638672 C 81.58542633056641 23.65165710449219 78.55665588378906 19.15969848632812 74.69847869873047 15.30152893066406 C 70.84030914306641 11.44333648681641 66.34834289550781 8.414566040039062 61.34736633300781 6.299339294433594 C 56.17134094238281 4.110054016113281 50.67128372192383 3 44.99999618530273 3 M 44.99999618530273 0 C 69.85281372070312 0 90 20.14719390869141 90 45.0000114440918 C 90 69.85282897949219 69.85281372070312 90.00002288818359 44.99999618530273 90.00002288818359 C 20.14717864990234 90.00002288818359 -7.62939453125e-06 69.85282897949219 -7.62939453125e-06 45.0000114440918 C -7.62939453125e-06 20.14719390869141 20.14717864990234 0 44.99999618530273 0 Z" stroke="none" fill="#83793c"/>
                </g>
              </g>
            </g>
          </g>
        </g>
      </g>
    </g>
    <g id="learning-process_14781904_1_" data-name="learning-process_14781904 (1)" transform="translate(8.07 5.572)">
      <g id="Grupo_1207986" data-name="Grupo 1207986" transform="translate(7.5 7.499)">
        <path id="Trazado_1052099" data-name="Trazado 1052099" d="M86.831,380.761a31.887,31.887,0,0,0-5.328-1.875l-13.722.063a32.02,32.02,0,0,0-5.083,1.812l-.959,6.179,12.745,3.874,12.643-6.083Z" transform="translate(-55.315 -334.903)" fill="#26a6fe"/>
        <path id="Trazado_1052100" data-name="Trazado 1052100" d="M93.043,348.826l3.222,2.8c-4.621,4.966-19.2,5.255-23.825.29l2.918-3.086a2.615,2.615,0,0,0,2.1-2.568v-6.411l13.476-.327v6.737A2.615,2.615,0,0,0,93.043,348.826Z" transform="translate(-64.749 -300.199)" fill="#f0bcb1"/>
        <path id="Trazado_1052101" data-name="Trazado 1052101" d="M80.673,418.578l2.046,5.294L78.685,428.3H59.876L55.5,423.954l2.381-5.352.123-.024,2.4-.458.032.011.272.316a11.686,11.686,0,0,0,17.108,0l.283-.32.021-.007,2.4.458Z" transform="translate(-49.818 -369.49)" fill="#d8ecfe"/>
        <path id="Trazado_1052102" data-name="Trazado 1052102" d="M13.518,434.06l.134,6.475h-5.8a.355.355,0,0,1-.355-.355v-7.264a.353.353,0,0,1,.175-.307,6.228,6.228,0,0,1,1.8-.608Z" transform="translate(-7.5 -381.726)" fill="#60b7ff"/>
        <path id="Trazado_1052103" data-name="Trazado 1052103" d="M283.46,426.471l-3.227,5.089h-2.472l-.843-6.17,3.978-3.57Z" transform="translate(-245.011 -372.752)" fill="#60b7ff"/>
        <path id="Trazado_1052104" data-name="Trazado 1052104" d="M259.317,399.135l-4.184,8.534H251.25l1.987-9.72.661-3.23a14.632,14.632,0,0,1,4.37,3.209C258.645,398.325,259,398.73,259.317,399.135Z" transform="translate(-222.383 -348.862)" fill="#8ac9fe"/>
        <path id="Trazado_1052105" data-name="Trazado 1052105" d="M32.28,407.669H28.375L24.2,399.135a15.392,15.392,0,0,1,5.419-4.415l.669,3.253Z" transform="translate(-22.222 -348.862)" fill="#8ac9fe"/>
        <g id="Grupo_1207985" data-name="Grupo 1207985" transform="translate(33.654 36.694)">
          <path id="Trazado_1052106" data-name="Trazado 1052106" d="M325.618,325.23l.859,1.4v5.007l-.859,1.472H306.03V325.23Z" transform="translate(-304.329 -324.296)" fill="#eaf6ff"/>
          <rect id="Rectángulo_419468" data-name="Rectángulo 419468" width="19.09" height="7.874" transform="translate(2.199 11.991)" fill="#eaf6ff"/>
          <rect id="Rectángulo_419469" data-name="Rectángulo 419469" width="3.163" height="7.874" transform="translate(20.342 11.991)" fill="#d8ecfe"/>
          <path id="Trazado_1052107" data-name="Trazado 1052107" d="M316.328,404.479l-.308,5.431c0,1.788-2.183,2.675-3.972,2.675h-18.81a1.568,1.568,0,0,1-1.568-1.566v-.008a1.566,1.566,0,0,1,1.566-1.566H313.4a.356.356,0,0,0,.355-.355v-4.076a.356.356,0,0,0-.355-.355H293.236a1.565,1.565,0,1,1,0-3.13h1.673l1.45-1.232h14.61l1.079,1.232C313.838,401.529,316.328,402.689,316.328,404.479Z" transform="translate(-291.67 -390.472)" fill="#fe93bb"/>
          <path id="Trazado_1052108" data-name="Trazado 1052108" d="M468.567,413.939v4.58a3.238,3.238,0,0,1-3.238,3.238H463.74a3.238,3.238,0,0,0,3.239-3.238v-4.58a3.238,3.238,0,0,0-3.239-3.239h1.589A3.238,3.238,0,0,1,468.567,413.939Z" transform="translate(-443.362 -399.643)" fill="#fe76a8"/>
          <g id="Grupo_1207984" data-name="Grupo 1207984">
            <rect id="Rectángulo_419470" data-name="Rectángulo 419470" width="1.718" height="7.874" transform="translate(21.289 0.934)" fill="#d8ecfe"/>
            <path id="Trazado_1052109" data-name="Trazado 1052109" d="M316.328,326.821v.009c0,.865-2.346,1.566-3.211,1.566H294.909a3.238,3.238,0,0,1-3.239-3.238v-4.58a3.239,3.239,0,0,1,3.239-3.239h18.21a7.328,7.328,0,0,1,2.539.458,1.812,1.812,0,0,1,.67,1.1c0,.863-2.393,1.568-3.256,1.568H294.62c-.723,0-.868.613-.868,1.336v1.8c0,.925.309,1.648,1.233,1.648h18.133C313.983,325.257,316.328,325.957,316.328,326.821Z" transform="translate(-291.67 -317.34)" fill="#bbf49b"/>
            <path id="Trazado_1052110" data-name="Trazado 1052110" d="M476.537,318.906a1.565,1.565,0,0,1-1.566,1.564H472.78a1.565,1.565,0,0,0,0-3.13h2.191a1.565,1.565,0,0,1,1.566,1.566Z" transform="translate(-451.331 -317.34)" fill="#9be69d"/>
            <path id="Trazado_1052111" data-name="Trazado 1052111" d="M476.537,385.756v.008a1.566,1.566,0,0,1-1.566,1.566H472.78a1.565,1.565,0,0,0,1.564-1.566v-.008a1.565,1.565,0,0,0-1.564-1.566h2.191A1.566,1.566,0,0,1,476.537,385.756Z" transform="translate(-451.331 -376.273)" fill="#9be69d"/>
            <path id="Trazado_1052112" data-name="Trazado 1052112" d="M307.367,348.556h-1.229a.608.608,0,0,1-.608-.608v-3.57a.609.609,0,0,1,.609-.609h1.228a.356.356,0,0,0-.355.355V348.2A.355.355,0,0,0,307.367,348.556Z" transform="translate(-303.889 -340.639)" fill="#9be69d"/>
          </g>
        </g>
        <path id="Trazado_1052113" data-name="Trazado 1052113" d="M45.751,18.053c0,6.109-5.286,18.327-12.631,13.484l-14.652-.313L16.616,29.7a1.77,1.77,0,0,1-.363-1.5.366.366,0,0,0-.136-.358,2.611,2.611,0,0,1,0-4.072.366.366,0,0,0,.136-.358,1.771,1.771,0,0,1,.233-1.321.365.365,0,0,0-.006-.383,2.612,2.612,0,0,1,1.391-3.826.365.365,0,0,0,.25-.29,1.757,1.757,0,0,1,.222-.646,1.776,1.776,0,0,1,.449-.516.365.365,0,0,0,.125-.361,2.612,2.612,0,0,1,2.617-3.12.365.365,0,0,0,.334-.187A1.776,1.776,0,0,1,22.9,11.9a.364.364,0,0,0,.241-.3,2.611,2.611,0,0,1,3.526-2.037.364.364,0,0,0,.377-.061,1.771,1.771,0,0,1,1.481-.436c.327.084,1.645-1.17,1.338-1.35a2.537,2.537,0,0,1,.6-.184,2.6,2.6,0,0,1,2.174.608.365.365,0,0,0,.376.072,1.776,1.776,0,0,1,1.341,0,.364.364,0,0,0,.376-.072A2.6,2.6,0,0,1,36.9,7.54a2.537,2.537,0,0,1,.6.184c-.307.18,1.011,1.434,1.338,1.35a1.753,1.753,0,0,1,.371-.023C42.674,12.024,45.751,15,45.751,18.053Z" transform="translate(-14.235 -7.5)" fill="#6d6548"/>
        <path id="Trazado_1052114" data-name="Trazado 1052114" d="M185.092,39.394a.366.366,0,0,0-.136.358,1.785,1.785,0,0,1,.013.683,1.766,1.766,0,0,1-.375.817l-1.762,2.171-15.871-.339a16.121,16.121,0,0,0,6.1-22.485,1.773,1.773,0,0,1,1.111.459.365.365,0,0,0,.378.061,2.611,2.611,0,0,1,3.526,2.037.364.364,0,0,0,.241.3,1.785,1.785,0,0,1,1.027.862.366.366,0,0,0,.335.187,2.61,2.61,0,0,1,2.616,3.119.365.365,0,0,0,.126.362,1.785,1.785,0,0,1,.67,1.162.365.365,0,0,0,.25.29,2.611,2.611,0,0,1,1.392,3.826.365.365,0,0,0-.006.383,1.777,1.777,0,0,1,.232,1.321.365.365,0,0,0,.136.358,2.612,2.612,0,0,1,0,4.072Z" transform="translate(-148.076 -19.049)" fill="#61593a"/>
        <path id="Trazado_1052115" data-name="Trazado 1052115" d="M31.026,196.4a7.3,7.3,0,0,1-4.708-6.647h0a2.836,2.836,0,0,1,2.834-2.839H57.6a2.836,2.836,0,0,1,2.834,2.839h0A7.138,7.138,0,0,1,55.9,196.4Z" transform="translate(-24.089 -165.663)" fill="#f0bcb1"/>
        <path id="Trazado_1052116" data-name="Trazado 1052116" d="M90.945,131.266v11.258a7.879,7.879,0,0,1-2.684,5.925l-4.88,4.278a5.229,5.229,0,0,1-3.449,1.3H77.084a5.229,5.229,0,0,1-3.449-1.3l-4.915-4.281a8.212,8.212,0,0,1-2.65-5.921V131.289a2.916,2.916,0,0,0,2.343-4.008.2.2,0,0,1,.174-.271,1.983,1.983,0,0,0,1.864-1.823.2.2,0,0,1,.224-.185,2.918,2.918,0,0,0,2.6-1.021.2.2,0,0,1,.249-.043,1.984,1.984,0,0,0,1.995.005,1.656,1.656,0,0,0,.14-.09.2.2,0,0,1,.225,0l.2.131a4.521,4.521,0,0,0,5.012,0l.2-.131a.2.2,0,0,1,.22,0,1.985,1.985,0,0,0,2.131.093h0a.2.2,0,0,1,.255.04,2.918,2.918,0,0,0,2.6,1.019.2.2,0,0,1,.222.185,1.981,1.981,0,0,0,1.865,1.822.2.2,0,0,1,.173.271,2.917,2.917,0,0,0,2.193,3.986Z" transform="translate(-59.134 -110.041)" fill="#f9c9bf"/>
      </g>
      <g id="Grupo_1208000" data-name="Grupo 1208000" transform="translate(7.5 7.499)">
        <g id="Grupo_1207995" data-name="Grupo 1207995" transform="translate(0 0)">
          <path id="Trazado_1052117" data-name="Trazado 1052117" d="M9.431,433.419a11.4,11.4,0,0,0-1.931.549" transform="translate(-7.5 -382.977)" fill="none" stroke="#000" stroke-linecap="round" stroke-linejoin="round" stroke-miterlimit="10" stroke-width="1"/>
          <g id="Grupo_1207987" data-name="Grupo 1207987" transform="translate(1.978 41.356)">
            <path id="Trazado_1052118" data-name="Trazado 1052118" d="M74.918,379.418a32.02,32.02,0,0,0-5.083,1.812" transform="translate(-64.43 -376.728)" fill="none" stroke="#000" stroke-linecap="round" stroke-linejoin="round" stroke-miterlimit="10" stroke-width="1"/>
            <path id="Trazado_1052119" data-name="Trazado 1052119" d="M233.945,380.761a31.887,31.887,0,0,0-5.328-1.875" transform="translate(-204.408 -376.259)" fill="none" stroke="#000" stroke-linecap="round" stroke-linejoin="round" stroke-miterlimit="10" stroke-width="1"/>
            <path id="Trazado_1052120" data-name="Trazado 1052120" d="M228.617,356.7v4.7a2.615,2.615,0,0,0,2.12,2.571l2.4.459" transform="translate(-204.408 -356.701)" fill="none" stroke="#000" stroke-linecap="round" stroke-linejoin="round" stroke-miterlimit="10" stroke-width="1"/>
            <path id="Trazado_1052121" data-name="Trazado 1052121" d="M76.654,366.862l2.4-.459a2.615,2.615,0,0,0,2.12-2.571v-4.377" transform="translate(-70.442 -359.13)" fill="none" stroke="#000" stroke-linecap="round" stroke-linejoin="round" stroke-miterlimit="10" stroke-width="1"/>
            <path id="Trazado_1052122" data-name="Trazado 1052122" d="M257.122,396.73a13.816,13.816,0,0,0-3.1-2.009l-2.648,12.949" transform="translate(-224.468 -390.218)" fill="none" stroke="#000" stroke-linecap="round" stroke-linejoin="round" stroke-miterlimit="10" stroke-width="1"/>
            <path id="Trazado_1052123" data-name="Trazado 1052123" d="M28.379,407.67,24.2,399.136a15.389,15.389,0,0,1,5.419-4.415l2.648,12.949" transform="translate(-24.198 -390.218)" fill="none" stroke="#000" stroke-linecap="round" stroke-linejoin="round" stroke-miterlimit="10" stroke-width="1"/>
            <path id="Trazado_1052124" data-name="Trazado 1052124" d="M96.921,418.118h0a12.094,12.094,0,0,0,17.717,0h0" transform="translate(-88.308 -410.844)" fill="none" stroke="#000" stroke-linecap="round" stroke-linejoin="round" stroke-miterlimit="10" stroke-width="1"/>
          </g>
          <g id="Grupo_1207990" data-name="Grupo 1207990" transform="translate(12.458 21.977)">
            <g id="Grupo_1207988" data-name="Grupo 1207988">
              <path id="Trazado_1052125" data-name="Trazado 1052125" d="M112.692,193.567a4.005,4.005,0,0,1,3.869,0" transform="translate(-112.692 -193.069)" fill="none" stroke="#000" stroke-linecap="round" stroke-linejoin="round" stroke-miterlimit="10" stroke-width="1"/>
              <path id="Trazado_1052126" data-name="Trazado 1052126" d="M198.077,193.567a4.005,4.005,0,0,1,3.869,0" transform="translate(-187.965 -193.069)" fill="none" stroke="#000" stroke-linecap="round" stroke-linejoin="round" stroke-miterlimit="10" stroke-width="1"/>
            </g>
            <g id="Grupo_1207989" data-name="Grupo 1207989" transform="translate(1.932 3.409)">
              <path id="Trazado_1052127" data-name="Trazado 1052127" d="M162.816,271.273a3.036,3.036,0,0,1-2.763,0" transform="translate(-156.376 -265.42)" fill="none" stroke="#000" stroke-linecap="round" stroke-linejoin="round" stroke-miterlimit="10" stroke-width="1"/>
              <line id="Línea_1140" data-name="Línea 1140" y2="2.096" transform="translate(10.117)" fill="none" stroke="#000" stroke-linecap="round" stroke-linejoin="round" stroke-miterlimit="10" stroke-width="1"/>
              <line id="Línea_1141" data-name="Línea 1141" y2="2.096" fill="none" stroke="#000" stroke-linecap="round" stroke-linejoin="round" stroke-miterlimit="10" stroke-width="1"/>
              <path id="Trazado_1052128" data-name="Trazado 1052128" d="M151.1,312.808a5.2,5.2,0,0,0,4.736,0" transform="translate(-148.484 -302.036)" fill="none" stroke="#000" stroke-linecap="round" stroke-linejoin="round" stroke-miterlimit="10" stroke-width="1"/>
            </g>
          </g>
          <path id="Trazado_1052129" data-name="Trazado 1052129" d="M276.914,196.394a7.137,7.137,0,0,0,4.528-6.647h0a2.836,2.836,0,0,0-2.834-2.839h-2.245" transform="translate(-244.522 -165.661)" fill="none" stroke="#000" stroke-linecap="round" stroke-linejoin="round" stroke-miterlimit="10" stroke-width="1"/>
          <path id="Trazado_1052130" data-name="Trazado 1052130" d="M31.026,186.91H29.152a2.836,2.836,0,0,0-2.834,2.839h0a7.138,7.138,0,0,0,4.527,6.647" transform="translate(-24.089 -165.662)" fill="none" stroke="#000" stroke-linecap="round" stroke-linejoin="round" stroke-miterlimit="10" stroke-width="1"/>
          <path id="Trazado_1052131" data-name="Trazado 1052131" d="M189.2,209.758a5.233,5.233,0,0,0,2.729-1.248l4.88-4.278a7.877,7.877,0,0,0,2.684-5.925V187.094" transform="translate(-167.681 -165.825)" fill="none" stroke="#000" stroke-linecap="round" stroke-linejoin="round" stroke-miterlimit="10" stroke-width="1"/>
          <path id="Trazado_1052132" data-name="Trazado 1052132" d="M66.074,239.352v5.025a8.216,8.216,0,0,0,2.65,5.922l4.914,4.281a5.233,5.233,0,0,0,2.875,1.266" transform="translate(-59.137 -211.894)" fill="none" stroke="#000" stroke-linecap="round" stroke-linejoin="round" stroke-miterlimit="10" stroke-width="1"/>
          <line id="Línea_1142" data-name="Línea 1142" y2="2.066" transform="translate(6.937 21.248)" fill="none" stroke="#000" stroke-linecap="round" stroke-linejoin="round" stroke-miterlimit="10" stroke-width="1"/>
          <g id="Grupo_1207994" data-name="Grupo 1207994" transform="translate(0.905)">
            <path id="Trazado_1052133" data-name="Trazado 1052133" d="M50.756,29.7a1.777,1.777,0,0,0,.3-1.715,2.613,2.613,0,0,0,0-4.36,1.777,1.777,0,0,0-.3-1.715,2.613,2.613,0,0,0-1.491-4.1,1.777,1.777,0,0,0-.87-1.508,2.612,2.612,0,0,0-2.8-3.34,1.777,1.777,0,0,0-1.334-1.12,2.611,2.611,0,0,0-3.774-2.18,1.776,1.776,0,0,0-1.636-.6,2.611,2.611,0,0,0-4.292-.757,1.776,1.776,0,0,0-1.741,0,2.611,2.611,0,0,0-4.292.757,1.776,1.776,0,0,0-1.636.6,2.611,2.611,0,0,0-3.774,2.18,1.777,1.777,0,0,0-1.334,1.12,2.612,2.612,0,0,0-2.8,3.34,1.777,1.777,0,0,0-.87,1.508,2.613,2.613,0,0,0-1.491,4.1,1.777,1.777,0,0,0-.3,1.715,2.613,2.613,0,0,0,0,4.36,1.777,1.777,0,0,0,.3,1.715" transform="translate(-15.144 -7.499)" fill="none" stroke="#000" stroke-linecap="round" stroke-linejoin="round" stroke-miterlimit="10" stroke-width="1"/>
            <path id="Trazado_1052134" data-name="Trazado 1052134" d="M114.131,25.722a2.6,2.6,0,0,1,1.116,1.042" transform="translate(-102.408 -23.564)" fill="none" stroke="#000" stroke-linecap="round" stroke-linejoin="round" stroke-miterlimit="10" stroke-width="1"/>
            <path id="Trazado_1052135" data-name="Trazado 1052135" d="M219.885,26.846a2.6,2.6,0,0,1,1.094-1.031" transform="translate(-195.638 -23.646)" fill="none" stroke="#000" stroke-linecap="round" stroke-linejoin="round" stroke-miterlimit="10" stroke-width="1"/>
            <path id="Trazado_1052136" data-name="Trazado 1052136" d="M126.872,62.633A2.128,2.128,0,0,1,129,64.762" transform="translate(-113.64 -56.103)" fill="none" stroke="#000" stroke-linecap="round" stroke-linejoin="round" stroke-miterlimit="10" stroke-width="1"/>
            <g id="Grupo_1207993" data-name="Grupo 1207993" transform="translate(6.972 9.895)">
              <g id="Grupo_1207991" data-name="Grupo 1207991">
                <path id="Trazado_1052137" data-name="Trazado 1052137" d="M74.456,93.179a1.506,1.506,0,0,1,0-2.129" transform="translate(-74.016 -91.05)" fill="none" stroke="#000" stroke-linecap="round" stroke-linejoin="round" stroke-miterlimit="10" stroke-width="1"/>
                <path id="Trazado_1052138" data-name="Trazado 1052138" d="M265.706,93.179a1.506,1.506,0,0,0,0-2.129" transform="translate(-243.004 -91.05)" fill="none" stroke="#000" stroke-linecap="round" stroke-linejoin="round" stroke-miterlimit="10" stroke-width="1"/>
              </g>
              <g id="Grupo_1207992" data-name="Grupo 1207992">
                <path id="Trazado_1052139" data-name="Trazado 1052139" d="M74.456,93.179a1.506,1.506,0,0,1,0-2.129" transform="translate(-74.016 -91.05)" fill="none" stroke="#000" stroke-linecap="round" stroke-linejoin="round" stroke-miterlimit="10" stroke-width="1"/>
                <path id="Trazado_1052140" data-name="Trazado 1052140" d="M265.706,93.179a1.506,1.506,0,0,0,0-2.129" transform="translate(-243.004 -91.05)" fill="none" stroke="#000" stroke-linecap="round" stroke-linejoin="round" stroke-miterlimit="10" stroke-width="1"/>
              </g>
            </g>
            <path id="Trazado_1052141" data-name="Trazado 1052141" d="M200.731,62.633a2.128,2.128,0,0,0-2.128,2.129" transform="translate(-176.876 -56.103)" fill="none" stroke="#000" stroke-linecap="round" stroke-linejoin="round" stroke-miterlimit="10" stroke-width="1"/>
            <path id="Trazado_1052142" data-name="Trazado 1052142" d="M91.145,130.936a2.917,2.917,0,0,1-2.04-4.26,1.983,1.983,0,0,1-2.174-2.038,2.913,2.913,0,0,1-2.923-1.119c-.048.034-.1.067-.15.1a1.986,1.986,0,0,1-2.235-.17l-.313.208a4.52,4.52,0,0,1-5.012,0l-.313-.209a2.01,2.01,0,0,1-.247.171,1.986,1.986,0,0,1-2.138-.1,2.916,2.916,0,0,1-2.922,1.12,1.985,1.985,0,0,1-2.176,2.037,2.917,2.917,0,0,1-2.181,4.282" transform="translate(-60.26 -109.713)" fill="none" stroke="#000" stroke-linecap="round" stroke-linejoin="round" stroke-miterlimit="10" stroke-width="1"/>
          </g>
        </g>
        <g id="Grupo_1207999" data-name="Grupo 1207999" transform="translate(33.667 36.746)">
          <g id="Grupo_1207996" data-name="Grupo 1207996" transform="translate(0)">
            <line id="Línea_1143" data-name="Línea 1143" y1="4.671" transform="translate(22.995 3.189)" fill="none" stroke="#000" stroke-linecap="round" stroke-linejoin="round" stroke-miterlimit="10" stroke-width="1"/>
            <path id="Trazado_1052143" data-name="Trazado 1052143" d="M304.495,317.779h10.913a1.565,1.565,0,0,1,1.565,1.565h0a1.565,1.565,0,0,1-1.565,1.565H294.9V325.7h20.507a1.565,1.565,0,0,1,1.565,1.565v.009a1.565,1.565,0,0,1-1.565,1.565H295.017a3.238,3.238,0,0,1-3.237-3.238v-4.58a3.238,3.238,0,0,1,3.237-3.238h5.333" transform="translate(-291.78 -317.779)" fill="none" stroke="#000" stroke-linecap="round" stroke-linejoin="round" stroke-miterlimit="10" stroke-width="1"/>
          </g>
          <g id="Grupo_1207998" data-name="Grupo 1207998" transform="translate(0 11.057)">
            <g id="Grupo_1207997" data-name="Grupo 1207997">
              <line id="Línea_1144" data-name="Línea 1144" y1="4.644" transform="translate(2.198 3.198)" fill="none" stroke="#000" stroke-linecap="round" stroke-linejoin="round" stroke-miterlimit="10" stroke-width="1"/>
              <path id="Trazado_1052144" data-name="Trazado 1052144" d="M313.734,411.14a3.238,3.238,0,0,1,3.237,3.238v4.58a3.238,3.238,0,0,1-3.237,3.238H293.344a1.565,1.565,0,0,1-1.565-1.565v-.009a1.565,1.565,0,0,1,1.565-1.565h20.507v-4.787h-3.708" transform="translate(-291.779 -411.14)" fill="none" stroke="#000" stroke-linecap="round" stroke-linejoin="round" stroke-miterlimit="10" stroke-width="1"/>
              <path id="Trazado_1052145" data-name="Trazado 1052145" d="M316.538,411.14" transform="translate(-313.606 -411.14)" fill="none" stroke="#000" stroke-linecap="round" stroke-linejoin="round" stroke-miterlimit="10" stroke-width="1"/>
              <path id="Trazado_1052146" data-name="Trazado 1052146" d="M306,414.271H293.344a1.565,1.565,0,0,1-1.565-1.565h0a1.565,1.565,0,0,1,1.565-1.565h1.581" transform="translate(-291.779 -411.141)" fill="none" stroke="#000" stroke-linecap="round" stroke-linejoin="round" stroke-miterlimit="10" stroke-width="1"/>
            </g>
          </g>
        </g>
      </g>
    </g>
  </g>
</svg>
