<svg xmlns="http://www.w3.org/2000/svg" xmlns:xlink="http://www.w3.org/1999/xlink" width="294.478" height="123.263" viewBox="0 0 294.478 123.263">
  <defs>
    <clipPath id="clip-path">
      <path id="path7668" d="M0-682.665H123.263V-559.4H0Z" transform="translate(0 682.665)"/>
    </clipPath>
  </defs>
  <g id="Grupo_1208002" data-name="Grupo 1208002" transform="translate(-1125 -2444.235)">
    <g id="Grupo_1207791" data-name="Grupo 1207791" transform="translate(0 -0.481)">
      <rect id="nina-feliz-y-su-madre-aplicando-maquillaje-en-las-caras-de-los-demas-teniendo-dia-de-belleza-familiar-poniendo-en" width="294.478" height="70" rx="3" transform="translate(1125 2480.481)" fill="#27454a"/>
      <rect id="nina-feliz-y-su-madre-aplicando-maquillaje-en-las-caras-de-los-demas-teniendo-dia-de-belleza-familiar-poniendo-en-2" data-name="nina-feliz-y-su-madre-aplicando-maquillaje-en-las-caras-de-los-demas-teniendo-dia-de-belleza-familiar-poniendo-en" width="240.478" height="104" rx="3" transform="translate(1152 2463.481)" fill="#6ae2f6"/>
    </g>
    <g id="g7662" transform="translate(1211 2444.235)">
      <g id="g7664" transform="translate(0 0)">
        <g id="g7666" clip-path="url(#clip-path)">
          <g id="g7672" transform="translate(15.814 1.806)">
            <path id="path7674" d="M0-94.836v59.625H56.9V-94.836a20.9,20.9,0,0,0-22.791-20.809l-3.984.363a18.467,18.467,0,0,1-3.348,0l-3.984-.363A20.9,20.9,0,0,0,0-94.836" transform="translate(0 115.733)" fill="#fdbd37"/>
          </g>
          <g id="g7676" transform="translate(44.543 1.806)">
            <path id="path7678" d="M-24.405-.4l-3.984.363c-.464.042-.929.063-1.393.07A20.906,20.906,0,0,1-13.546,20.41V80.035H-1.614V20.41A20.9,20.9,0,0,0-24.405-.4" transform="translate(29.783 0.487)" fill="#fa9a39"/>
          </g>
          <g id="g7680" transform="translate(1.812 54.159)">
            <path id="path7682" d="M-350.227-108.736h0a76.643,76.643,0,0,0-20.81-7.036,5.842,5.842,0,0,1-4.777-5.749V-132.7h-18.267v11.175a5.842,5.842,0,0,1-4.777,5.749,76.642,76.642,0,0,0-20.81,7.036,14.122,14.122,0,0,0-7.73,12.593v29.178a1.567,1.567,0,0,0,1.567,1.567H-342.5V-96.143a14.122,14.122,0,0,0-7.73-12.593" transform="translate(427.399 132.696)" fill="#fed6a6"/>
          </g>
          <g id="g7684" transform="translate(41.418 54.159)">
            <path id="path7686" d="M-170.483-108.736h0a76.643,76.643,0,0,0-20.81-7.036,5.842,5.842,0,0,1-4.777-5.749V-132.7h-11.978v19.065a5.842,5.842,0,0,0,4.777,5.749,76.639,76.639,0,0,1,20.81,7.036,14.122,14.122,0,0,1,7.73,12.593V-65.4h11.978V-96.143a14.122,14.122,0,0,0-7.73-12.593" transform="translate(208.049 132.696)" fill="#efc79c"/>
          </g>
          <g id="g7688" transform="translate(15.814 28.357)">
            <path id="path7690" d="M-38.215,0h-3.321a5.1,5.1,0,0,0-5.1,5.1V7.516a5.1,5.1,0,0,0,5.1,5.1h3.321Z" transform="translate(46.636)" fill="#fed6a6"/>
          </g>
          <g id="g7692" transform="translate(64.292 28.357)">
            <path id="path7694" d="M0,0H3.321a5.1,5.1,0,0,1,5.1,5.1V7.516a5.1,5.1,0,0,1-5.1,5.1H0Z" fill="#fed6a6"/>
          </g>
          <g id="g7696" transform="translate(22.747 15.907)">
            <path id="path7698" d="M-95.441-.889A37.728,37.728,0,0,1-115.866,8.7a.692.692,0,0,0-.606.691l.066,17.42c0,14.259,14.969,20.973,21.449,21.112,6.48-.139,21.449-6.853,21.449-21.112l.067-17.42a.692.692,0,0,0-.606-.691A37.727,37.727,0,0,1-94.471-.889a.7.7,0,0,0-.971,0" transform="translate(116.472 1.085)" fill="#ffe3c2"/>
          </g>
          <g id="g7700" transform="translate(38.297 22.286)">
            <path id="path7702" d="M-121.97-15.466a38.875,38.875,0,0,1-11.359-3.408l-.033,21.519c0,10.756-8.517,17.218-15.483,19.8a19.215,19.215,0,0,0,5.966,1.308c6.48-.139,21.449-6.853,21.449-21.112l.067-17.42a.693.693,0,0,0-.606-.691" transform="translate(148.846 18.873)" fill="#f7d6b5"/>
          </g>
          <g id="g7704" transform="translate(43.837 38.201)">
            <path id="path7706" d="M0,0V4.8a.755.755,0,0,0,.755.755h1.58" fill="none" stroke="#000" stroke-linecap="round" stroke-linejoin="round" stroke-miterlimit="10" stroke-width="1.5"/>
          </g>
          <g id="g7708" transform="translate(37.091 50.675)">
            <path id="path7710" d="M0,0A8.43,8.43,0,0,0,7.172,3.484,8.429,8.429,0,0,0,14.344,0" fill="none" stroke="#000" stroke-linecap="round" stroke-linejoin="round" stroke-miterlimit="10" stroke-width="1.5"/>
          </g>
          <g id="g7712" transform="translate(55.243 33.739)">
            <path id="path7714" d="M0,0V2.185" transform="translate(0)" fill="none" stroke="#000" stroke-linecap="round" stroke-linejoin="round" stroke-miterlimit="10" stroke-width="1.5"/>
          </g>
          <g id="g7716" transform="translate(33.283 33.739)">
            <path id="path7718" d="M0,0V2.185" transform="translate(0)" fill="none" stroke="#000" stroke-linecap="round" stroke-linejoin="round" stroke-miterlimit="10" stroke-width="1.5"/>
          </g>
          <g id="g7720" transform="translate(1.812 72.645)">
            <path id="path7722" d="M-350.227-24.841h0a76.7,76.7,0,0,0-14.064-5.474c-2.641,4.241-11.057,7.341-21.031,7.341-9.833,0-18.151-3.013-20.916-7.161a76.681,76.681,0,0,0-13.43,5.293,14.122,14.122,0,0,0-7.73,12.593V16.93a1.567,1.567,0,0,0,1.567,1.567H-342.5V-12.248a14.122,14.122,0,0,0-7.73-12.593" transform="translate(427.399 30.315)" fill="#ff94a6"/>
          </g>
          <g id="g7724" transform="translate(49.464 72.645)">
            <path id="path7726" d="M-133.971-24.841h0a76.695,76.695,0,0,0-14.064-5.474c-2.131,3.421-8.021,6.1-15.456,7.007a76.646,76.646,0,0,1,17.542,6.357,14.122,14.122,0,0,1,7.73,12.593V18.5h11.978V-12.248a14.122,14.122,0,0,0-7.73-12.593" transform="translate(163.492 30.315)" fill="#f4849c"/>
          </g>
          <g id="g7728" transform="translate(15.117 100.894)">
            <path id="path7730" d="M0,0V20.563" transform="translate(0)" fill="none" stroke="#000" stroke-linecap="round" stroke-linejoin="round" stroke-miterlimit="10" stroke-width="1.5"/>
          </g>
          <g id="g7732" transform="translate(67.619 40.912)">
            <path id="path7734" d="M0-72.006v28.535a1.936,1.936,0,0,0,1.936,1.937H25.318A17.882,17.882,0,0,0,43.2-59.417V-72.006a15.865,15.865,0,0,0-17.3-15.8H17.3A15.865,15.865,0,0,0,0-72.006" transform="translate(0 87.872)" fill="#fdbd37"/>
          </g>
          <g id="g7736" transform="translate(56.987 80.662)">
            <path id="path7738" d="M-265.917-82.559h0A58.2,58.2,0,0,0-281.7-87.9a4.445,4.445,0,0,1-3.647-4.368v-8.485h-13.869v8.485a4.445,4.445,0,0,1-3.647,4.368,58.2,58.2,0,0,0-15.781,5.338,14.772,14.772,0,0,0-5.869,10.967v11.637h62.9a1.567,1.567,0,0,0,1.567-1.567v-10.07a14.772,14.772,0,0,0-5.869-10.967" transform="translate(324.511 100.75)" fill="#fed6a6"/>
          </g>
          <g id="g7740" transform="translate(84.222 80.662)">
            <path id="path7742" d="M-142.319-82.56h0A58.2,58.2,0,0,0-158.1-87.9a4.445,4.445,0,0,1-3.647-4.368v-8.485h-11.932v13.861a2.871,2.871,0,0,0,2.41,2.835A58.194,58.194,0,0,1-154.251-78.5l.7.465a13.017,13.017,0,0,1,5.171,9.663v8.419h10.365a1.567,1.567,0,0,0,1.567-1.567v-10.07a14.772,14.772,0,0,0-5.869-10.967" transform="translate(173.678 100.752)" fill="#efc79c"/>
          </g>
          <g id="g7744" transform="translate(67.619 61.071)">
            <path id="path7746" d="M-29.015,0h-2.521a3.873,3.873,0,0,0-3.872,3.874V5.707a3.873,3.873,0,0,0,3.872,3.874h2.521Z" transform="translate(35.408)" fill="#fed6a6"/>
          </g>
          <g id="g7748" transform="translate(104.426 61.071)">
            <path id="path7750" d="M0,0H2.522A3.873,3.873,0,0,1,6.394,3.874V5.707A3.873,3.873,0,0,1,2.522,9.581H0Z" fill="#fed6a6"/>
          </g>
          <g id="g7752" transform="translate(72.886 50.453)">
            <path id="path7754" d="M-99.382,0c-3.487,10.616-16.787,9.449-20.77,8.845a.98.98,0,0,0-1.129.971l.048,12.531c0,10.827,11.365,15.924,16.286,16.03,4.92-.105,16.286-5.2,16.286-16.03l.052-17.226S-92.4,6.986-99.382,0" transform="translate(121.281 0)" fill="#ffe3c2"/>
          </g>
          <g id="g7756" transform="translate(88.896 68.545)">
            <path id="path7758" d="M0,0V3.641a.573.573,0,0,0,.573.573h1.2" fill="none" stroke="#000" stroke-linecap="round" stroke-linejoin="round" stroke-miterlimit="10" stroke-width="1.5"/>
          </g>
          <g id="g7760" transform="translate(83.774 78.017)">
            <path id="path7762" d="M0,0A6.4,6.4,0,0,0,5.446,2.646,6.4,6.4,0,0,0,10.891,0" fill="none" stroke="#000" stroke-linecap="round" stroke-linejoin="round" stroke-miterlimit="10" stroke-width="1.5"/>
          </g>
          <g id="g7764" transform="translate(97.556 65.754)">
            <path id="path7766" d="M0,0V1.063" transform="translate(0)" fill="none" stroke="#000" stroke-linecap="round" stroke-linejoin="round" stroke-miterlimit="10" stroke-width="1.5"/>
          </g>
          <g id="g7768" transform="translate(80.882 65.754)">
            <path id="path7770" d="M0,0V1.063" transform="translate(0)" fill="none" stroke="#000" stroke-linecap="round" stroke-linejoin="round" stroke-miterlimit="10" stroke-width="1.5"/>
          </g>
          <g id="g7772" transform="translate(56.987 94.698)">
            <path id="path7774" d="M-265.917-18.861h0A58.236,58.236,0,0,0-276.6-23.017c-2.006,3.22-8.4,5.574-15.969,5.574-7.466,0-13.782-2.288-15.881-5.437a58.228,58.228,0,0,0-10.2,4.019,14.772,14.772,0,0,0-5.869,10.967V3.742h62.9a1.567,1.567,0,0,0,1.567-1.567V-7.895a14.772,14.772,0,0,0-5.869-10.967" transform="translate(324.511 23.017)" fill="#80c56e"/>
          </g>
          <g id="g7776" transform="translate(95.722 94.698)">
            <path id="path7778" d="M-116.764-114.33V-124.4a14.773,14.773,0,0,0-5.869-10.967,58.272,58.272,0,0,0-10.679-4.156c-1.365,2.192-4.763,3.982-9.181,4.9a58.19,58.19,0,0,1,7.928,3.311l.7.465a13.016,13.016,0,0,1,5.171,9.663v8.419h10.365a1.567,1.567,0,0,0,1.567-1.567" transform="translate(142.493 139.522)" fill="#70b25d"/>
          </g>
          <g id="g7780" transform="translate(87.337 43.242)">
            <path id="path7782" d="M-38.759-45.964l-5.708.234a2.718,2.718,0,0,1-2.616-3.77l2.074-4.928a2.718,2.718,0,0,1,4.525-.764l3.822,4.246Z" transform="translate(47.299 56.092)" fill="#fc6a58"/>
          </g>
          <g id="g7784" transform="translate(100.034 49.9)">
            <path id="path7786" d="M0-23.687l3.823,4.245a2.718,2.718,0,0,0,4.525-.764l2.074-4.928A2.718,2.718,0,0,0,7.805-28.9L2.1-28.67Z" transform="translate(0 28.907)" fill="#fc6a58"/>
          </g>
          <g id="g7788" transform="translate(95.664 48.102)">
            <path id="path7790" d="M-17.02-32.859l-3.263-1.373a.8.8,0,0,1-.425-1.043l1.825-4.337a.8.8,0,0,1,1.043-.425l3.263,1.373a.8.8,0,0,1,.425,1.043l-1.825,4.337a.8.8,0,0,1-1.043.425" transform="translate(20.771 40.1)" fill="#e35052"/>
          </g>
          <g id="g7792" transform="translate(66.583 113.513)">
            <path id="path7794" d="M0-35.849v-7.9" transform="translate(0 43.748)" fill="none" stroke="#000" stroke-linecap="round" stroke-linejoin="round" stroke-miterlimit="10" stroke-width="1.5"/>
          </g>
          <g id="g7796" transform="translate(111.856 113.513)">
            <path id="path7798" d="M0-36.052V-44" transform="translate(0 43.996)" fill="none" stroke="#000" stroke-linecap="round" stroke-linejoin="round" stroke-miterlimit="10" stroke-width="1.5"/>
          </g>
          <g id="g7800" transform="translate(22.972 72.645)">
            <path id="path7802" d="M-190.368,0c-2.641,4.241-11.057,7.341-21.031,7.341-9.833,0-18.151-3.013-20.916-7.161" transform="translate(232.315)" fill="none" stroke="#000" stroke-linecap="round" stroke-linejoin="round" stroke-miterlimit="10" stroke-width="1.5"/>
          </g>
          <g id="g7804" transform="translate(53.396 62.203)">
            <path id="path7806" d="M-64.547-51.062a76.645,76.645,0,0,0-9.445-2.371,5.842,5.842,0,0,1-4.777-5.749v-3.132" transform="translate(78.769 62.313)" fill="none" stroke="#000" stroke-linecap="round" stroke-linejoin="round" stroke-miterlimit="10" stroke-width="1.5"/>
          </g>
          <g id="g7808" transform="translate(1.812 101.439)">
            <path id="path7810" d="M0,0V18.451a1.567,1.567,0,0,0,1.567,1.567H84.9" fill="none" stroke="#000" stroke-linecap="round" stroke-linejoin="round" stroke-miterlimit="10" stroke-width="1.5"/>
          </g>
          <g id="g7812" transform="translate(1.812 62.203)">
            <path id="path7814" d="M-151.206,0V3.132a5.842,5.842,0,0,1-4.777,5.749,76.635,76.635,0,0,0-20.81,7.036,14.123,14.123,0,0,0-7.73,12.593V30.83" transform="translate(184.524)" fill="none" stroke="#000" stroke-linecap="round" stroke-linejoin="round" stroke-miterlimit="10" stroke-width="1.5"/>
          </g>
          <g id="g7816" transform="translate(22.747 15.907)">
            <path id="path7818" d="M-95.441-.889A37.728,37.728,0,0,1-115.866,8.7a.692.692,0,0,0-.606.691l.066,17.42c0,14.259,14.969,20.973,21.449,21.112,6.48-.139,21.449-6.853,21.449-21.112l.067-17.42a.692.692,0,0,0-.606-.691A37.727,37.727,0,0,1-94.471-.889.7.7,0,0,0-95.441-.889Z" transform="translate(116.472 1.085)" fill="none" stroke="#000" stroke-linecap="round" stroke-linejoin="round" stroke-miterlimit="10" stroke-width="1.5"/>
          </g>
          <g id="g7820" transform="translate(15.814 28.357)">
            <path id="path7822" d="M-31.5,0H-33.34a5.1,5.1,0,0,0-5.1,5.1V7.516a5.1,5.1,0,0,0,5.1,5.1h1.889" transform="translate(38.44)" fill="none" stroke="#000" stroke-linecap="round" stroke-linejoin="round" stroke-miterlimit="10" stroke-width="1.5"/>
          </g>
          <g id="g7824" transform="translate(65.723 28.357)">
            <path id="path7826" d="M0-57.269H1.89a5.1,5.1,0,0,0,5.1-5.1v-2.414a5.1,5.1,0,0,0-5.1-5.1H.048" transform="translate(0 69.888)" fill="none" stroke="#000" stroke-linecap="round" stroke-linejoin="round" stroke-miterlimit="10" stroke-width="1.5"/>
          </g>
          <g id="g7828" transform="translate(72.712 35.873)">
            <path id="path7830" d="M0-42.016v-9.258" transform="translate(0 51.275)" fill="none" stroke="#000" stroke-linecap="round" stroke-linejoin="round" stroke-miterlimit="10" stroke-width="1.5"/>
          </g>
          <g id="g7832" transform="translate(15.814 35.873)">
            <path id="path7834" d="M0,0V39.413" transform="translate(0)" fill="none" stroke="#000" stroke-linecap="round" stroke-linejoin="round" stroke-miterlimit="10" stroke-width="1.5"/>
          </g>
          <g id="g7836" transform="translate(15.814 1.806)">
            <path id="path7838" d="M-258.221-143.654v-10.757a20.9,20.9,0,0,0-22.791-20.809l-3.984.363a18.465,18.465,0,0,1-3.348,0l-3.984-.363a20.9,20.9,0,0,0-22.791,20.809v10.757" transform="translate(315.119 175.308)" fill="none" stroke="#000" stroke-linecap="round" stroke-linejoin="round" stroke-miterlimit="10" stroke-width="1.5"/>
          </g>
          <g id="g7840" transform="translate(67.619 61.071)">
            <path id="path7842" d="M-23.917,0h-1.4a3.873,3.873,0,0,0-3.872,3.874V5.707a3.873,3.873,0,0,0,3.872,3.874h1.434" transform="translate(29.187)" fill="none" stroke="#000" stroke-linecap="round" stroke-linejoin="round" stroke-miterlimit="10" stroke-width="1.5"/>
          </g>
          <g id="g7844" transform="translate(105.511 61.071)">
            <path id="path7846" d="M0-43.483H1.436a3.873,3.873,0,0,0,3.872-3.874V-49.19a3.873,3.873,0,0,0-3.872-3.874H.029" transform="translate(0 53.064)" fill="none" stroke="#000" stroke-linecap="round" stroke-linejoin="round" stroke-miterlimit="10" stroke-width="1.5"/>
          </g>
          <g id="g7848" transform="translate(72.886 53.474)">
            <path id="path7850" d="M-92.864,0c-4.795,7.35-15.778,6.364-19.334,5.824a.98.98,0,0,0-1.129.971l.048,12.531c0,10.827,11.365,15.924,16.286,16.03,4.92-.105,16.286-5.2,16.286-16.03l.038-12.56" transform="translate(113.326)" fill="none" stroke="#000" stroke-linecap="round" stroke-linejoin="round" stroke-miterlimit="10" stroke-width="1.5"/>
          </g>
          <g id="g7852" transform="translate(95.664 48.102)">
            <path id="path7854" d="M-17.02-32.859l-3.263-1.373a.8.8,0,0,1-.425-1.043l1.825-4.337a.8.8,0,0,1,1.043-.425l3.263,1.373a.8.8,0,0,1,.425,1.043l-1.825,4.337A.8.8,0,0,1-17.02-32.859Z" transform="translate(20.771 40.1)" fill="none" stroke="#000" stroke-linecap="round" stroke-linejoin="round" stroke-miterlimit="10" stroke-width="1.5"/>
          </g>
          <g id="g7856" transform="translate(100.167 49.9)">
            <path id="path7858" d="M0-24.361l3.689,4.1a2.718,2.718,0,0,0,4.525-.764l2.074-4.928a2.718,2.718,0,0,0-2.616-3.77L2.163-29.5" transform="translate(0 29.729)" fill="none" stroke="#000" stroke-linecap="round" stroke-linejoin="round" stroke-miterlimit="10" stroke-width="1.5"/>
          </g>
          <g id="g7860" transform="translate(87.337 43.242)">
            <path id="path7862" d="M-47.67-22.677l-3.689-4.1a2.718,2.718,0,0,0-4.525.764l-2.074,4.928a2.718,2.718,0,0,0,2.616,3.77l5.508-.226" transform="translate(58.174 27.674)" fill="none" stroke="#000" stroke-linecap="round" stroke-linejoin="round" stroke-miterlimit="10" stroke-width="1.5"/>
          </g>
          <g id="g7864" transform="translate(95.588 53.568)">
            <path id="path7866" d="M0-151.963a17.885,17.885,0,0,0,15.231-17.686v-12.589a15.946,15.946,0,0,0-.328-3.21c-.013.035-.022.07-.036.1" transform="translate(0 185.448)" fill="none" stroke="#000" stroke-linecap="round" stroke-linejoin="round" stroke-miterlimit="10" stroke-width="1.5"/>
          </g>
          <g id="g7868" transform="translate(67.619 40.912)">
            <path id="path7870" d="M-189.923-42.887a15.869,15.869,0,0,0-15.953-9.383h-8.592a15.865,15.865,0,0,0-17.3,15.8V-7.936A1.936,1.936,0,0,0-229.835-6h13.713" transform="translate(231.771 52.337)" fill="none" stroke="#000" stroke-linecap="round" stroke-linejoin="round" stroke-miterlimit="10" stroke-width="1.5"/>
          </g>
          <g id="g7872" transform="translate(56.988 94.698)">
            <path id="path7874" d="M-240.44-7.578q-2.5-.954-5.065-1.67c-2.005,3.22-8.395,5.574-15.968,5.574-7.466,0-13.782-2.288-15.881-5.437a58.223,58.223,0,0,0-10.2,4.019,14.772,14.772,0,0,0-5.869,10.967V17.511h62.9a1.567,1.567,0,0,0,1.567-1.567V5.875a15,15,0,0,0-4.095-9.453" transform="translate(293.421 9.248)" fill="none" stroke="#000" stroke-linecap="round" stroke-linejoin="round" stroke-miterlimit="10" stroke-width="1.5"/>
          </g>
          <g id="g7876" transform="translate(73.055 86.769)">
            <path id="path7878" d="M-41.889,0V2.378a4.445,4.445,0,0,1-3.647,4.368q-2.815.52-5.583,1.321" transform="translate(51.119)" fill="none" stroke="#000" stroke-linecap="round" stroke-linejoin="round" stroke-miterlimit="10" stroke-width="1.5"/>
          </g>
          <g id="g7880" transform="translate(96.154 86.769)">
            <path id="path7882" d="M-39.707-35.983c.423.118.844.243,1.265.371a58.184,58.184,0,0,0-6.367-1.553,4.446,4.446,0,0,1-3.647-4.368v-2.378" transform="translate(48.456 43.912)" fill="none" stroke="#000" stroke-linecap="round" stroke-linejoin="round" stroke-miterlimit="10" stroke-width="1.5"/>
          </g>
        </g>
      </g>
    </g>
  </g>
</svg>
