<svg xmlns="http://www.w3.org/2000/svg" xmlns:xlink="http://www.w3.org/1999/xlink" width="108" height="108" viewBox="0 0 108 108">
  <defs>
    <filter id="Trazado_904820" x="0" y="0" width="108" height="108" filterUnits="userSpaceOnUse">
      <feOffset dy="3" input="SourceAlpha"/>
      <feGaussianBlur stdDeviation="3" result="blur"/>
      <feFlood flood-opacity="0.161"/>
      <feComposite operator="in" in2="blur"/>
      <feComposite in="SourceGraphic"/>
    </filter>
    <clipPath id="clip-path">
      <path id="path7668" d="M0-682.665H56.466V-626.2H0Z" transform="translate(0 682.665)"/>
    </clipPath>
  </defs>
  <g id="Grupo_1207693" data-name="Grupo 1207693" transform="translate(-619.477 -323)">
    <g id="Grupo_1207078" data-name="Grupo 1207078" transform="translate(628.477 329)">
      <g id="Grupo_1206304" data-name="Grupo 1206304" transform="translate(0 0)">
        <g id="Grupo_1201662" data-name="Grupo 1201662">
          <g id="Grupo_1173585" data-name="Grupo 1173585">
            <g id="Grupo_1173428" data-name="Grupo 1173428">
              <g id="Grupo_1171958" data-name="Grupo 1171958">
                <g id="Grupo_1167341" data-name="Grupo 1167341">
                  <g id="Grupo_1166792" data-name="Grupo 1166792">
                    <g transform="matrix(1, 0, 0, 1, -9, -6)" filter="url(#Trazado_904820)">
                      <g id="Trazado_904820-2" data-name="Trazado 904820" transform="translate(9 6)" fill="#fdfbec">
                        <path d="M 44.99999618530273 88.49999237060547 C 39.12687301635742 88.49999237060547 33.43022155761719 87.35006713867188 28.06829643249512 85.08216857910156 C 22.88852119445801 82.89130401611328 18.23629570007324 79.75457763671875 14.24084663391113 75.75914001464844 C 10.24540901184082 71.76369476318359 7.108683586120605 67.11146545410156 4.917821407318115 61.93169403076172 C 2.649921178817749 56.56976699829102 1.499996185302734 50.87311553955078 1.499996185302734 44.99999237060547 C 1.499996185302734 39.12686920166016 2.649921178817749 33.43021774291992 4.917821407318115 28.06829261779785 C 7.108683586120605 22.88851737976074 10.24540901184082 18.23630523681641 14.24084663391113 14.24085521697998 C 18.23629570007324 10.24540519714355 22.88852119445801 7.108692169189453 28.06829643249512 4.917829990386963 C 33.43022155761719 2.649929761886597 39.12687301635742 1.500004887580872 44.99999618530273 1.500004887580872 C 50.87311935424805 1.500004887580872 56.56977081298828 2.649929761886597 61.93169784545898 4.917829990386963 C 67.11147308349609 7.108692169189453 71.76369476318359 10.24540519714355 75.75914764404297 14.24085521697998 C 79.75458526611328 18.23630523681641 82.89131164550781 22.88851737976074 85.08216857910156 28.06829261779785 C 87.35007476806641 33.43021774291992 88.5 39.12686920166016 88.5 44.99999237060547 C 88.5 50.87311553955078 87.35007476806641 56.56976699829102 85.08216857910156 61.93169403076172 C 82.89131164550781 67.11146545410156 79.75458526611328 71.76369476318359 75.75914764404297 75.75914001464844 C 71.76369476318359 79.75457763671875 67.11147308349609 82.89130401611328 61.93169784545898 85.08216857910156 C 56.56977081298828 87.35006713867188 50.87311935424805 88.49999237060547 44.99999618530273 88.49999237060547 Z" stroke="none"/>
                        <path d="M 44.99999618530273 2.999992370605469 C 39.32870864868164 2.999992370605469 33.82865142822266 4.11004638671875 28.65262603759766 6.299331665039062 C 23.65165710449219 8.414566040039062 19.15968322753906 11.44333648681641 15.301513671875 15.30150604248047 C 11.44333648681641 19.15967559814453 8.414566040039062 23.65164947509766 6.299339294433594 28.65262222290039 C 4.110054016113281 33.82864761352539 2.999992370605469 39.32870483398438 2.999992370605469 44.99999237060547 C 2.999992370605469 50.67127990722656 4.110054016113281 56.17132186889648 6.299339294433594 61.34736633300781 C 8.414566040039062 66.34833526611328 11.44333648681641 70.84029388427734 15.301513671875 74.69846343994141 C 19.15968322753906 78.55663299560547 23.65165710449219 81.58540344238281 28.65262603759766 83.70063781738281 C 33.82865142822266 85.88992309570312 39.32870864868164 86.99997711181641 44.99999618530273 86.99997711181641 C 50.67128372192383 86.99997711181641 56.17134094238281 85.88992309570312 61.34736633300781 83.70063781738281 C 66.34834289550781 81.58540344238281 70.84030914306641 78.55663299560547 74.69847869873047 74.69846343994141 C 78.55665588378906 70.84029388427734 81.58542633056641 66.34833526611328 83.70065307617188 61.34736633300781 C 85.88993835449219 56.17132186889648 87 50.67127990722656 87 44.99999237060547 C 87 39.32870483398438 85.88993835449219 33.82864761352539 83.70065307617188 28.65262222290039 C 81.58542633056641 23.65164947509766 78.55665588378906 19.15967559814453 74.69847869873047 15.30150604248047 C 70.84030914306641 11.44333648681641 66.34834289550781 8.414566040039062 61.34736633300781 6.299331665039062 C 56.17134094238281 4.11004638671875 50.67128372192383 2.999992370605469 44.99999618530273 2.999992370605469 M 44.99999618530273 -7.62939453125e-06 C 69.85281372070312 -7.62939453125e-06 90 20.14717864990234 90 44.99999237060547 C 90 69.85279083251953 69.85281372070312 89.99997711181641 44.99999618530273 89.99997711181641 C 20.14717864990234 89.99997711181641 -7.62939453125e-06 69.85279083251953 -7.62939453125e-06 44.99999237060547 C -7.62939453125e-06 20.14717864990234 20.14717864990234 -7.62939453125e-06 44.99999618530273 -7.62939453125e-06 Z" stroke="none" fill="#83793c"/>
                      </g>
                    </g>
                  </g>
                </g>
              </g>
            </g>
          </g>
        </g>
      </g>
    </g>
    <g id="g7662" transform="translate(645.244 1026.432)">
      <g id="g7664" transform="translate(0 -682.665)">
        <g id="g7666" transform="translate(0 0)" clip-path="url(#clip-path)">
          <g id="g7672" transform="translate(7.244 0.827)">
            <path id="path7674" d="M0-106.16v27.314H26.065V-106.16a9.572,9.572,0,0,0-10.44-9.532l-1.825.166a8.46,8.46,0,0,1-1.534,0l-1.825-.166A9.572,9.572,0,0,0,0-106.16" transform="translate(0 115.733)" fill="#fdbd37"/>
          </g>
          <g id="g7676" transform="translate(20.405 0.827)">
            <path id="path7678" d="M-27.319-.447l-1.825.166c-.212.019-.425.029-.638.032a9.577,9.577,0,0,1,7.438,9.334V36.4h5.466V9.086A9.572,9.572,0,0,0-27.319-.447" transform="translate(29.783 0.487)" fill="#fa9a39"/>
          </g>
          <g id="g7680" transform="translate(0.83 24.81)">
            <path id="path7682" d="M-392.047-121.72h0a35.11,35.11,0,0,0-9.533-3.223,2.676,2.676,0,0,1-2.188-2.633V-132.7h-8.368v5.119a2.676,2.676,0,0,1-2.188,2.633,35.109,35.109,0,0,0-9.533,3.223,6.469,6.469,0,0,0-3.541,5.769v13.366a.718.718,0,0,0,.718.718h38.175v-14.084a6.469,6.469,0,0,0-3.541-5.769" transform="translate(427.399 132.696)" fill="#fed6a6"/>
          </g>
          <g id="g7684" transform="translate(18.973 24.81)">
            <path id="path7686" d="M-190.84-121.72h0a35.11,35.11,0,0,0-9.533-3.223,2.676,2.676,0,0,1-2.188-2.633V-132.7h-5.487v8.734a2.676,2.676,0,0,0,2.188,2.633,35.108,35.108,0,0,1,9.533,3.223,6.469,6.469,0,0,1,3.541,5.769v10.47h5.487v-14.084a6.469,6.469,0,0,0-3.541-5.769" transform="translate(208.049 132.696)" fill="#efc79c"/>
          </g>
          <g id="g7688" transform="translate(7.244 12.99)">
            <path id="path7690" d="M-42.778,0H-44.3a2.336,2.336,0,0,0-2.336,2.337V3.443A2.336,2.336,0,0,0-44.3,5.781h1.521Z" transform="translate(46.636)" fill="#fed6a6"/>
          </g>
          <g id="g7692" transform="translate(29.452 12.99)">
            <path id="path7694" d="M0,0H1.521A2.337,2.337,0,0,1,3.857,2.337V3.443A2.336,2.336,0,0,1,1.521,5.781H0Z" fill="#fed6a6"/>
          </g>
          <g id="g7696" transform="translate(10.42 7.287)">
            <path id="path7698" d="M-106.838-1A17.283,17.283,0,0,1-116.194,3.4a.317.317,0,0,0-.278.317l.03,7.98c0,6.532,6.857,9.608,9.826,9.671,2.969-.064,9.826-3.139,9.826-9.671l.031-7.98a.317.317,0,0,0-.278-.317A17.282,17.282,0,0,1-106.393-1a.32.32,0,0,0-.445,0" transform="translate(116.472 1.085)" fill="#ffe3c2"/>
          </g>
          <g id="g7700" transform="translate(17.544 10.209)">
            <path id="path7702" d="M-136.535-17.312a17.808,17.808,0,0,1-5.2-1.561l-.015,9.858c0,4.927-3.9,7.888-7.093,9.072a8.8,8.8,0,0,0,2.733.6c2.969-.064,9.826-3.139,9.826-9.671l.031-7.98a.317.317,0,0,0-.278-.317" transform="translate(148.846 18.873)" fill="#f7d6b5"/>
          </g>
          <g id="g7704" transform="translate(20.081 17.499)">
            <path id="path7706" d="M0,0V2.2a.346.346,0,0,0,.346.346H1.07" fill="none" stroke="#000" stroke-linecap="round" stroke-linejoin="round" stroke-miterlimit="10" stroke-width="1"/>
          </g>
          <g id="g7708" transform="translate(16.991 23.214)">
            <path id="path7710" d="M0,0A3.862,3.862,0,0,0,3.286,1.6,3.861,3.861,0,0,0,6.571,0" fill="none" stroke="#000" stroke-linecap="round" stroke-linejoin="round" stroke-miterlimit="10" stroke-width="1"/>
          </g>
          <g id="g7712" transform="translate(25.306 15.456)">
            <path id="path7714" d="M0,0V1" fill="none" stroke="#000" stroke-linecap="round" stroke-linejoin="round" stroke-miterlimit="10" stroke-width="1"/>
          </g>
          <g id="g7716" transform="translate(15.247 15.456)">
            <path id="path7718" d="M0,0V1" fill="none" stroke="#000" stroke-linecap="round" stroke-linejoin="round" stroke-miterlimit="10" stroke-width="1"/>
          </g>
          <g id="g7720" transform="translate(0.83 33.278)">
            <path id="path7722" d="M-392.047-27.807h0a35.134,35.134,0,0,0-6.443-2.507c-1.21,1.943-5.065,3.363-9.634,3.363-4.5,0-8.315-1.38-9.581-3.28a35.128,35.128,0,0,0-6.152,2.425,6.469,6.469,0,0,0-3.541,5.769V-8.672a.718.718,0,0,0,.718.718h38.175V-22.038a6.469,6.469,0,0,0-3.541-5.769" transform="translate(427.399 30.315)" fill="#ff94a6"/>
          </g>
          <g id="g7724" transform="translate(22.659 33.278)">
            <path id="path7726" d="M-149.969-27.807h0a35.134,35.134,0,0,0-6.443-2.507c-.976,1.567-3.674,2.794-7.08,3.21a35.111,35.111,0,0,1,8.036,2.912,6.469,6.469,0,0,1,3.541,5.769v10.47h5.487V-22.038a6.469,6.469,0,0,0-3.541-5.769" transform="translate(163.492 30.315)" fill="#f4849c"/>
          </g>
          <g id="g7728" transform="translate(6.925 46.219)">
            <path id="path7730" d="M0,0V9.42" fill="none" stroke="#000" stroke-linecap="round" stroke-linejoin="round" stroke-miterlimit="10" stroke-width="1"/>
          </g>
          <g id="g7732" transform="translate(30.976 18.741)">
            <path id="path7734" d="M0-80.6v13.071a.887.887,0,0,0,.887.887H11.6a8.192,8.192,0,0,0,8.192-8.192V-80.6a7.268,7.268,0,0,0-7.927-7.238H7.927A7.268,7.268,0,0,0,0-80.6" transform="translate(0 87.872)" fill="#fdbd37"/>
          </g>
          <g id="g7736" transform="translate(26.106 36.951)">
            <path id="path7738" d="M-297.67-92.417h0a26.662,26.662,0,0,0-7.229-2.445,2.036,2.036,0,0,1-1.671-2v-3.887h-6.353v3.887a2.036,2.036,0,0,1-1.671,2,26.662,26.662,0,0,0-7.229,2.445,6.767,6.767,0,0,0-2.689,5.024v5.331H-295.7a.718.718,0,0,0,.718-.718v-4.613a6.767,6.767,0,0,0-2.689-5.024" transform="translate(324.511 100.75)" fill="#fed6a6"/>
          </g>
          <g id="g7740" transform="translate(38.582 36.951)">
            <path id="path7742" d="M-159.313-92.418h0a26.662,26.662,0,0,0-7.229-2.445,2.036,2.036,0,0,1-1.671-2v-3.887h-5.466V-94.4a1.315,1.315,0,0,0,1.1,1.3,26.658,26.658,0,0,1,7.8,2.544l.32.213a5.963,5.963,0,0,1,2.369,4.426v3.857h4.748a.718.718,0,0,0,.718-.718v-4.613a6.767,6.767,0,0,0-2.689-5.024" transform="translate(173.678 100.752)" fill="#efc79c"/>
          </g>
          <g id="g7744" transform="translate(30.976 27.976)">
            <path id="path7746" d="M-32.479,0h-1.155a1.774,1.774,0,0,0-1.774,1.775v.839a1.774,1.774,0,0,0,1.774,1.775h1.155Z" transform="translate(35.408)" fill="#fed6a6"/>
          </g>
          <g id="g7748" transform="translate(47.837 27.976)">
            <path id="path7750" d="M0,0H1.155A1.774,1.774,0,0,1,2.929,1.775v.839A1.774,1.774,0,0,1,1.155,4.389H0Z" fill="#fed6a6"/>
          </g>
          <g id="g7752" transform="translate(33.388 23.112)">
            <path id="path7754" d="M-111.249,0c-1.6,4.863-7.69,4.329-9.514,4.052a.449.449,0,0,0-.517.445l.022,5.741c0,4.96,5.206,7.295,7.46,7.343,2.254-.048,7.46-2.383,7.46-7.343l.024-7.891S-108.049,3.2-111.249,0" transform="translate(121.281 0)" fill="#ffe3c2"/>
          </g>
          <g id="g7756" transform="translate(40.722 31.4)">
            <path id="path7758" d="M0,0V1.668a.262.262,0,0,0,.262.262h.55" fill="none" stroke="#000" stroke-linecap="round" stroke-linejoin="round" stroke-miterlimit="10" stroke-width="1"/>
          </g>
          <g id="g7760" transform="translate(38.376 35.739)">
            <path id="path7762" d="M0,0A2.932,2.932,0,0,0,2.495,1.212,2.932,2.932,0,0,0,4.989,0" fill="none" stroke="#000" stroke-linecap="round" stroke-linejoin="round" stroke-miterlimit="10" stroke-width="1"/>
          </g>
          <g id="g7764" transform="translate(44.69 30.121)">
            <path id="path7766" d="M0,0V.487" fill="none" stroke="#000" stroke-linecap="round" stroke-linejoin="round" stroke-miterlimit="10" stroke-width="1"/>
          </g>
          <g id="g7768" transform="translate(37.052 30.121)">
            <path id="path7770" d="M0,0V.487" fill="none" stroke="#000" stroke-linecap="round" stroke-linejoin="round" stroke-miterlimit="10" stroke-width="1"/>
          </g>
          <g id="g7772" transform="translate(26.106 43.38)">
            <path id="path7774" d="M-297.67-21.113h0a26.677,26.677,0,0,0-4.892-1.9c-.919,1.475-3.846,2.553-7.315,2.553-3.42,0-6.313-1.048-7.275-2.491a26.674,26.674,0,0,0-4.671,1.841,6.767,6.767,0,0,0-2.689,5.024v5.331H-295.7a.718.718,0,0,0,.718-.718V-16.09a6.767,6.767,0,0,0-2.689-5.024" transform="translate(324.511 23.017)" fill="#80c56e"/>
          </g>
          <g id="g7776" transform="translate(43.849 43.38)">
            <path id="path7778" d="M-130.707-127.982v-4.613a6.767,6.767,0,0,0-2.689-5.024,26.694,26.694,0,0,0-4.892-1.9c-.625,1-2.182,1.824-4.206,2.245a26.657,26.657,0,0,1,3.632,1.517l.32.213a5.963,5.963,0,0,1,2.369,4.426v3.857h4.748a.718.718,0,0,0,.718-.718" transform="translate(142.493 139.522)" fill="#70b25d"/>
          </g>
          <g id="g7780" transform="translate(40.008 19.809)">
            <path id="path7782" d="M-43.387-51.453-46-51.345a1.245,1.245,0,0,1-1.2-1.727l.95-2.258a1.245,1.245,0,0,1,2.073-.35l1.751,1.945Z" transform="translate(47.299 56.092)" fill="#fc6a58"/>
          </g>
          <g id="g7784" transform="translate(45.825 22.859)">
            <path id="path7786" d="M0-26.516l1.751,1.945a1.245,1.245,0,0,0,2.073-.35l.95-2.258a1.245,1.245,0,0,0-1.2-1.727L.961-28.8Z" transform="translate(0 28.907)" fill="#fc6a58"/>
          </g>
          <g id="g7788" transform="translate(43.823 22.035)">
            <path id="path7790" d="M-19.053-36.783l-1.495-.629a.365.365,0,0,1-.195-.478l.836-1.987a.365.365,0,0,1,.478-.195l1.495.629a.365.365,0,0,1,.195.478l-.836,1.987a.365.365,0,0,1-.478.195" transform="translate(20.771 40.1)" fill="#e35052"/>
          </g>
          <g id="g7792" transform="translate(30.501 52)">
            <path id="path7794" d="M0-40.129v-3.619" transform="translate(0 43.748)" fill="none" stroke="#000" stroke-linecap="round" stroke-linejoin="round" stroke-miterlimit="10" stroke-width="1"/>
          </g>
          <g id="g7796" transform="translate(51.24 52)">
            <path id="path7798" d="M0-40.357V-44" transform="translate(0 43.996)" fill="none" stroke="#000" stroke-linecap="round" stroke-linejoin="round" stroke-miterlimit="10" stroke-width="1"/>
          </g>
          <g id="g7800" transform="translate(10.523 33.278)">
            <path id="path7802" d="M-213.1,0c-1.21,1.943-5.065,3.363-9.634,3.363-4.5,0-8.315-1.38-9.581-3.28" transform="translate(232.315)" fill="none" stroke="#000" stroke-linecap="round" stroke-linejoin="round" stroke-miterlimit="10" stroke-width="1"/>
          </g>
          <g id="g7804" transform="translate(24.46 28.495)">
            <path id="path7806" d="M-72.254-57.159a35.11,35.11,0,0,0-4.327-1.086,2.676,2.676,0,0,1-2.188-2.633v-1.435" transform="translate(78.769 62.313)" fill="none" stroke="#000" stroke-linecap="round" stroke-linejoin="round" stroke-miterlimit="10" stroke-width="1"/>
          </g>
          <g id="g7808" transform="translate(0.83 46.469)">
            <path id="path7810" d="M0,0V8.452a.718.718,0,0,0,.718.718H38.893" fill="none" stroke="#000" stroke-linecap="round" stroke-linejoin="round" stroke-miterlimit="10" stroke-width="1"/>
          </g>
          <g id="g7812" transform="translate(0.83 28.495)">
            <path id="path7814" d="M-169.261,0V1.435a2.676,2.676,0,0,1-2.188,2.633,35.106,35.106,0,0,0-9.533,3.223,6.469,6.469,0,0,0-3.541,5.769v1.063" transform="translate(184.524)" fill="none" stroke="#000" stroke-linecap="round" stroke-linejoin="round" stroke-miterlimit="10" stroke-width="1"/>
          </g>
          <g id="g7816" transform="translate(10.42 7.287)">
            <path id="path7818" d="M-106.838-1A17.283,17.283,0,0,1-116.194,3.4a.317.317,0,0,0-.278.317l.03,7.98c0,6.532,6.857,9.608,9.826,9.671,2.969-.064,9.826-3.139,9.826-9.671l.031-7.98a.317.317,0,0,0-.278-.317A17.282,17.282,0,0,1-106.393-1,.32.32,0,0,0-106.838-1Z" transform="translate(116.472 1.085)" fill="none" stroke="#000" stroke-linecap="round" stroke-linejoin="round" stroke-miterlimit="10" stroke-width="1"/>
          </g>
          <g id="g7820" transform="translate(7.244 12.99)">
            <path id="path7822" d="M-35.26,0H-36.1A2.336,2.336,0,0,0-38.44,2.337V3.443A2.336,2.336,0,0,0-36.1,5.781h.866" transform="translate(38.44)" fill="none" stroke="#000" stroke-linecap="round" stroke-linejoin="round" stroke-miterlimit="10" stroke-width="1"/>
          </g>
          <g id="g7824" transform="translate(30.107 12.99)">
            <path id="path7826" d="M0-64.107H.866A2.336,2.336,0,0,0,3.2-66.445V-67.55A2.336,2.336,0,0,0,.866-69.888H.022" transform="translate(0 69.888)" fill="none" stroke="#000" stroke-linecap="round" stroke-linejoin="round" stroke-miterlimit="10" stroke-width="1"/>
          </g>
          <g id="g7828" transform="translate(33.309 16.433)">
            <path id="path7830" d="M0-47.033v-4.241" transform="translate(0 51.275)" fill="none" stroke="#000" stroke-linecap="round" stroke-linejoin="round" stroke-miterlimit="10" stroke-width="1"/>
          </g>
          <g id="g7832" transform="translate(7.244 16.433)">
            <path id="path7834" d="M0,0V18.055" fill="none" stroke="#000" stroke-linecap="round" stroke-linejoin="round" stroke-miterlimit="10" stroke-width="1"/>
          </g>
          <g id="g7836" transform="translate(7.244 0.827)">
            <path id="path7838" d="M-289.055-160.807v-4.928a9.572,9.572,0,0,0-10.44-9.532l-1.825.166a8.46,8.46,0,0,1-1.534,0l-1.825-.166a9.572,9.572,0,0,0-10.44,9.532v4.928" transform="translate(315.119 175.308)" fill="none" stroke="#000" stroke-linecap="round" stroke-linejoin="round" stroke-miterlimit="10" stroke-width="1"/>
          </g>
          <g id="g7840" transform="translate(30.976 27.976)">
            <path id="path7842" d="M-26.772,0h-.64a1.774,1.774,0,0,0-1.774,1.775v.839a1.774,1.774,0,0,0,1.774,1.775h.657" transform="translate(29.187)" fill="none" stroke="#000" stroke-linecap="round" stroke-linejoin="round" stroke-miterlimit="10" stroke-width="1"/>
          </g>
          <g id="g7844" transform="translate(48.334 27.976)">
            <path id="path7846" d="M0-48.675H.658A1.774,1.774,0,0,0,2.432-50.45v-.839A1.774,1.774,0,0,0,.658-53.064H.013" transform="translate(0 53.064)" fill="none" stroke="#000" stroke-linecap="round" stroke-linejoin="round" stroke-miterlimit="10" stroke-width="1"/>
          </g>
          <g id="g7848" transform="translate(33.388 24.496)">
            <path id="path7850" d="M-103.953,0c-2.2,3.367-7.228,2.915-8.857,2.668a.449.449,0,0,0-.517.445l.022,5.74c0,4.96,5.206,7.295,7.46,7.343,2.254-.048,7.46-2.383,7.46-7.343l.018-5.754" transform="translate(113.326)" fill="none" stroke="#000" stroke-linecap="round" stroke-linejoin="round" stroke-miterlimit="10" stroke-width="1"/>
          </g>
          <g id="g7852" transform="translate(43.823 22.035)">
            <path id="path7854" d="M-19.053-36.783l-1.495-.629a.365.365,0,0,1-.195-.478l.836-1.987a.365.365,0,0,1,.478-.195l1.495.629a.365.365,0,0,1,.195.478l-.836,1.987A.365.365,0,0,1-19.053-36.783Z" transform="translate(20.771 40.1)" fill="none" stroke="#000" stroke-linecap="round" stroke-linejoin="round" stroke-miterlimit="10" stroke-width="1"/>
          </g>
          <g id="g7856" transform="translate(45.886 22.859)">
            <path id="path7858" d="M0-27.27l1.69,1.877a1.245,1.245,0,0,0,2.073-.35L4.713-28a1.245,1.245,0,0,0-1.2-1.727l-2.523.1" transform="translate(0 29.729)" fill="none" stroke="#000" stroke-linecap="round" stroke-linejoin="round" stroke-miterlimit="10" stroke-width="1"/>
          </g>
          <g id="g7860" transform="translate(40.009 19.809)">
            <path id="path7862" d="M-53.362-25.385l-1.69-1.877a1.245,1.245,0,0,0-2.073.35l-.95,2.258a1.245,1.245,0,0,0,1.2,1.727l2.523-.1" transform="translate(58.174 27.674)" fill="none" stroke="#000" stroke-linecap="round" stroke-linejoin="round" stroke-miterlimit="10" stroke-width="1"/>
          </g>
          <g id="g7864" transform="translate(43.788 24.539)">
            <path id="path7866" d="M0-170.108a8.193,8.193,0,0,0,6.977-8.1v-5.767a7.3,7.3,0,0,0-.15-1.471c-.006.016-.01.032-.017.048" transform="translate(0 185.448)" fill="none" stroke="#000" stroke-linecap="round" stroke-linejoin="round" stroke-miterlimit="10" stroke-width="1"/>
          </g>
          <g id="g7868" transform="translate(30.976 18.741)">
            <path id="path7870" d="M-212.6-48.008a7.27,7.27,0,0,0-7.308-4.3h-3.936a7.268,7.268,0,0,0-7.927,7.238V-32a.887.887,0,0,0,.887.887h6.282" transform="translate(231.771 52.337)" fill="none" stroke="#000" stroke-linecap="round" stroke-linejoin="round" stroke-miterlimit="10" stroke-width="1"/>
          </g>
          <g id="g7872" transform="translate(26.106 43.38)">
            <path id="path7874" d="M-269.151-8.483q-1.146-.437-2.32-.765c-.919,1.475-3.846,2.553-7.315,2.553-3.42,0-6.313-1.048-7.275-2.491a26.672,26.672,0,0,0-4.671,1.841,6.767,6.767,0,0,0-2.689,5.024V3.01h28.812a.718.718,0,0,0,.718-.718V-2.32a6.871,6.871,0,0,0-1.876-4.33" transform="translate(293.421 9.248)" fill="none" stroke="#000" stroke-linecap="round" stroke-linejoin="round" stroke-miterlimit="10" stroke-width="1"/>
          </g>
          <g id="g7876" transform="translate(33.466 39.748)">
            <path id="path7878" d="M-46.89,0V1.089a2.036,2.036,0,0,1-1.671,2q-1.289.238-2.558.605" transform="translate(51.119)" fill="none" stroke="#000" stroke-linecap="round" stroke-linejoin="round" stroke-miterlimit="10" stroke-width="1"/>
          </g>
          <g id="g7880" transform="translate(44.047 39.748)">
            <path id="path7882" d="M-44.448-40.28c.194.054.387.111.579.17a26.653,26.653,0,0,0-2.917-.711,2.036,2.036,0,0,1-1.671-2v-1.089" transform="translate(48.456 43.912)" fill="none" stroke="#000" stroke-linecap="round" stroke-linejoin="round" stroke-miterlimit="10" stroke-width="1"/>
          </g>
        </g>
      </g>
    </g>
  </g>
</svg>
