<svg xmlns="http://www.w3.org/2000/svg" xmlns:xlink="http://www.w3.org/1999/xlink" width="400" height="399.5" viewBox="0 0 400 399.5">
  <defs>
    <clipPath id="clip-path">
      <rect id="Rectángulo_418219" data-name="Rectángulo 418219" width="400" height="399.5" transform="translate(1020 799.874)" fill="#192b44" stroke="#707070" stroke-width="1" opacity="0.38"/>
    </clipPath>
    <clipPath id="clip-path-2">
      <rect id="Rectángulo_418399" data-name="Rectángulo 418399" width="378.799" height="293.691" fill="none"/>
    </clipPath>
  </defs>
  <g id="Enmascarar_grupo_1207353" data-name="Enmascarar grupo 1207353" transform="translate(-1020 -799.874)" clip-path="url(#clip-path)">
    <rect id="Rectángulo_418208" data-name="Rectángulo 418208" width="400" height="123" rx="10" transform="translate(1020 938.097)" fill="#fa6a83"/>
    <g id="Grupo_1207702" data-name="Grupo 1207702" transform="translate(1032 864.374)">
      <g id="Grupo_1207695" data-name="Grupo 1207695">
        <g id="Grupo_1207694" data-name="Grupo 1207694" clip-path="url(#clip-path-2)">
          <path id="Trazado_1051499" data-name="Trazado 1051499" d="M109.713,193.636H58.551c-2.089,14.158-4.061,23.828,2.064,40.8,7.108,19.7,20.653,30.085,27.463,41.757-5.16-.761-16.865-2.865-24.87-4.136-7.474-1.187-2.428-.379-9.9-1.581a163.379,163.379,0,0,1-18.791-4.74c-3.58-1.385-7.081-3.066-10.867-3.827a9.349,9.349,0,0,0-6.232.482c-2.7,1.447-3.8,4.7-4.61,7.651q-2.477,8.99-4.425,18.115C6.8,295.572,5.479,303.147,6.146,310.7a13.692,13.692,0,0,0,1.509,5.734,10.5,10.5,0,0,0,5.082,4.2,24.71,24.71,0,0,0,6.508,1.545,77.834,77.834,0,0,0,11.076.628,5.269,5.269,0,0,0,3.106-.722c1.289-.952,1.474-2.81,1.264-4.4a7.638,7.638,0,0,0-1.192-3.412c-1.281-1.825-3.613-2.7-4.864-4.548a6.933,6.933,0,0,1-.6-5.8,20.545,20.545,0,0,1,2.8-5.313,20.694,20.694,0,0,1,3.115-3.978,5.8,5.8,0,0,1,6.574-1.389c1.5.607,4.125,2.863,5.6,3.523,0,0,4.807,2.248,8.827,4.133C65.128,305.67,73.3,310.3,83.66,314.676c10.992,4.636,16.952,6.352,29.219,8.071,25.84,3.622,32.218-15.732,30.813-30.479-1.733-18.188-22.013-34.362-33.979-98.632" transform="translate(-1.24 -40.222)" fill="#fcc"/>
          <path id="Trazado_1051500" data-name="Trazado 1051500" d="M53.378,287.631c.267-4.051-5.022-2.824-9.952-4.209-2.526-.71-6.672-2.644-8.733-3.185s-8.306-3.425-11.263-3.883a8.525,8.525,0,0,0-7.62,2.081c-2.069,1.98-3.319,8.3-4.156,15.625-.529,4.629-3.02,15.815-3.754,19.161-1.981,9.038-2.353,12.569.234,17.484s9.354,8.891,16.076,11.3,9.538-2.691,10.777-5.2.342-5.378-1.748-7.592-5.857-1.189-4.309-5.245,3.455-7.591,6.722-8.889,6.971.07,8.505.463,4.32,1.753,5.01-.232l-2.978-1.394a51.452,51.452,0,0,1-.214-14.527c1.07-8.171,4.557-12.234,4.557-12.234Z" transform="translate(-1.309 -57.373)" fill="#303030"/>
          <path id="Trazado_1051501" data-name="Trazado 1051501" d="M16.9,334.591c7.135,3.522,20.061,2.009,20.061,1.455,0-7.321-1.459-7.238-3.516-8.706-2.634-1.878-3.7-3.968-1.828-6.844s6.27-6.267,11.446-5c2.177-6.364-1.284-10.923-7.153-10.82-4.627-.571-6.208-8.539-1.06-15.926,2.634-3.781,4.682-6.039,9.253-5.694.566-3.958-6.136-3.075-9.849-4.972-4.009-2.052-9.338-3.662-12.8-3.634a6.389,6.389,0,0,0-.913.08C17.5,278.8,15.995,291.866,13.811,301.7c-1.038,4.678-2.2,9.869-3.1,14.625C9.186,324.4,7.6,330,16.9,334.591" transform="translate(-1.983 -57.009)" fill="#00826f"/>
          <path id="Trazado_1051502" data-name="Trazado 1051502" d="M34.8,314.84a35.906,35.906,0,0,0-6.912,11.124c-1.45,3.758-2.751,7.982-.572,11.714a.615.615,0,0,0,.664.384c1.265.011,2.583-.47,4.731.222" transform="translate(-5.434 -65.399)" fill="none" stroke="#303030" stroke-linecap="round" stroke-linejoin="round" stroke-width="1.5"/>
          <path id="Trazado_1051503" data-name="Trazado 1051503" d="M10.431,319.107a30.068,30.068,0,0,0,6.487-6.618c5.871-7.544,7.428-17.531,11.83-26.016,1.417-2.732,3.684-6.355,6.159-8.175-.161-.074-.324-.145-.476-.223-4.376-2.233-10.22-4.144-13.707-3.551C17.683,278.8,15.413,296.942,14,301.693c-.943,3.169-2.049,9.927-3.568,17.414" transform="translate(-2.167 -57.002)" fill="#303030"/>
          <path id="Trazado_1051504" data-name="Trazado 1051504" d="M1.473,315.328C-1.641,329.87,5.764,340.6,14.884,340.6h15.9c4.7,0,4.35-5.658,4.35-5.658s-13.816.753-18.487-.841c-10.6-3.621-9.022-12.186-7.758-18.877l3.1-14.624c1.422-4.756,3.689-22.9,6.727-27.172a6.394,6.394,0,0,1,.913-.08l.02-.074c.542-1.685-.739-2.374-3.309-3.341-1.376-.523-3.8-1.067-4.785-.678-1.663.656-3.29,5.058-4.376,13.292-1.177,8.931-2.587,18.244-5.7,32.786" transform="translate(-0.156 -55.901)" fill="#fff"/>
          <path id="Trazado_1051505" data-name="Trazado 1051505" d="M1.473,315.328C-1.641,329.87,5.764,340.6,14.884,340.6h15.9c4.7,0,4.35-5.658,4.35-5.658s-13.816.753-18.487-.841c-10.6-3.621-9.022-12.186-7.758-18.877l3.1-14.624c1.422-4.756,3.689-22.9,6.727-27.172a6.394,6.394,0,0,1,.913-.08l.02-.074c.542-1.685-.739-2.374-3.309-3.341-1.376-.523-3.8-1.067-4.785-.678-1.663.656-3.29,5.058-4.376,13.292C6,291.472,4.587,300.785,1.473,315.328Z" transform="translate(-0.156 -55.901)" fill="none" stroke="#303030" stroke-linecap="round" stroke-linejoin="round" stroke-width="1.5"/>
          <path id="Trazado_1051506" data-name="Trazado 1051506" d="M177.752,215.424c-2.772,12.388.486,27.864,1.9,37.014,3.1,20.034,5.271,26.718,3.4,33.654-1.036,3.841-10.576,20.126-5.616,23.649a7.9,7.9,0,0,0,2.4,1.005c18.26,5.325,47.373,3.953,56.944,3.487s12.268-1.052,12.625-2.222a3.349,3.349,0,0,0-1.871-3.575c-5.561-2.549-10.913-3.444-20.724-10.224a113.277,113.277,0,0,1-16.551-14.8c-3.828-4.213-2.76-12.729-1.291-23.833,2.336-17.657,4.922-28.9,7.031-43.716,3.266-22.924-4.281-34.913-21.146-36.9-17.918-2.107-72.684,6.416-72.684,6.416H72.65c-8.3,48.886,11.531,65.451,46.462,52.832,24.924-9,58.641-22.792,58.641-22.792" transform="translate(-14.7 -37.106)" fill="#fcc"/>
          <path id="Trazado_1051507" data-name="Trazado 1051507" d="M210.256,295.863c-2.752.424-2.348,1.869-1.79,5.5s.4,5.471.61,6.96c-.489,3.1-5.75,17.013-6.244,21.157s.3,6.846,9.923,8.434S247.386,340.3,259.591,340s18.546-1.137,18.258-4.068-1.29-3.671-5.358-5.358-9.421-2.605-19.151-9.789-13.748-11.422-15.182-15.216a14.947,14.947,0,0,1-.743-6.723c0-1.389.614-3.348-2.279-3.7l-.082,1.993s-1.956,2.084-10.093,2.481a56.748,56.748,0,0,1-14.306-1.061" transform="translate(-42.109 -61.307)" fill="#303030"/>
          <path id="Trazado_1051508" data-name="Trazado 1051508" d="M282.458,335.359a29.86,29.86,0,0,1,.792,5.007,95.414,95.414,0,0,1-18.589,2.306,246.459,246.459,0,0,1-32.382-2.55c-5.4-.861-25.561-.693-30.671-3.389a7.128,7.128,0,0,1-.221-.987c-.535-3.777,1.606-9.443,3.263-14.123,1.532-4.334-.316-11.719,4.091-11.677.273,4.093,2.14,7.847,6.32,9.08,6.944,2.048,15.938.068,17.638-4.192-2.538-5.6-.311-9.494,7.343-11.054,1.922,9.065,10.842,14.317,16.225,18.441a51.868,51.868,0,0,0,18.342,8.7c3.505.892,6.957,1.278,7.85,4.442" transform="translate(-41.815 -63.101)" fill="#00826f"/>
          <path id="Trazado_1051509" data-name="Trazado 1051509" d="M242.775,319.01c6.2,6.383,11.073,9.4,17.83,12.844,3.412,1.737,6.4,2.223,8.479,1.852a17,17,0,0,0,5.411-1.959" transform="translate(-50.429 -66.265)" fill="none" stroke="#303030" stroke-linecap="round" stroke-linejoin="round" stroke-width="1.5"/>
          <path id="Trazado_1051510" data-name="Trazado 1051510" d="M251.991,346.736a36.923,36.923,0,0,0-8.345-6.845c-9.1-5.315-20.237-5.562-30.153-9.134a22.31,22.31,0,0,1-8.671-5.147c-.057.186-.112.376-.174.553-1.8,5.107-4.2,11.38-3.04,15.1,5.114,2.7,25.27,2.535,30.668,3.388,3.6.569,11.312,1.514,19.715,2.082" transform="translate(-41.815 -67.636)" fill="#303030"/>
          <path id="Trazado_1051511" data-name="Trazado 1051511" d="M277.975,355.372c-2.494.738-4.112.955-27.177.955h-44.59c-5.523,0-10.768-1.093-10.663-3.568.05-1.167,1.02-2.973,1.391-4.554.682-2.949,1.249-4.449,3.169-4.1l.083.011a7.263,7.263,0,0,0,.221.986c5.11,2.7,25.267,2.528,30.672,3.389s18.957,1.247,31.308,1.247c6,0,19.663-1,19.663-1a13.043,13.043,0,0,1-.487,3.265,5.005,5.005,0,0,1-3.59,3.375" transform="translate(-40.618 -71.467)" fill="#fff"/>
          <path id="Trazado_1051512" data-name="Trazado 1051512" d="M277.975,355.372c-2.494.738-4.112.955-27.177.955h-44.59c-5.523,0-10.768-1.093-10.663-3.568.05-1.167,1.02-2.973,1.391-4.554.682-2.949,1.249-4.449,3.169-4.1l.083.011a7.263,7.263,0,0,0,.221.986c5.11,2.7,25.267,2.528,30.672,3.389s18.957,1.247,31.308,1.247c6,0,19.663-1,19.663-1a13.043,13.043,0,0,1-.487,3.265A5.005,5.005,0,0,1,277.975,355.372Z" transform="translate(-40.618 -71.467)" fill="none" stroke="#303030" stroke-linecap="round" stroke-linejoin="round" stroke-width="1.5"/>
          <path id="Trazado_1051513" data-name="Trazado 1051513" d="M84.722,293.105l-8.366-1.457s-5.067,5.165-7.113,15.1a45,45,0,0,0-.487,17.066l8.185,3.4Z" transform="translate(-14.164 -60.581)" fill="#00826f"/>
          <path id="Trazado_1051514" data-name="Trazado 1051514" d="M206.626,274.992l1.059,6.909s3.62,3.274,15.538,3.112,15.715-3.557,15.715-3.557l1.325-7.758Z" transform="translate(-42.92 -56.853)" fill="#00826f"/>
          <path id="Trazado_1051515" data-name="Trazado 1051515" d="M210.343,184.2c-6.89-8-16.445-8-24.989-7.993C171.6,176.223,69.222,182.6,69.222,182.6c-2.555,13.21-3.621,19.848-3.491,30.006.122,9.612,3.168,17.8,8.419,29.054,2.571,5.511,9.095,15.663,14.905,25.2-2.939-.8-5.319-1.455-8.816,2.2-6.011,6.293-8.454,22.475-7.138,31.559,1.17,8.084,6.085,7.162,16.807,10.585s25.721,10.254,43.43,10.254c25.6,0,30.347-26.1,24.012-43.1-3.716-9.972-12.586-26.106-16.261-32.433-2.432-7.259-1.2-8.916,5.981-14.046,6.782-4.846,28.642-14.494,28.642-14.494-2.119,9.171-2.027,12.237-1.568,17.474s.46,13.112.367,15.684.81,4.852,4.319,6.616,24.68,2.111,30.421-1.579,3.008-11.824,4.232-18.714,1.982-19.572,3.075-29.041c1.1-9.555-.686-17.2-6.215-23.622" transform="translate(-13.652 -36.602)" fill="#303030"/>
          <path id="Trazado_1051516" data-name="Trazado 1051516" d="M85.6,183.46c-.059.144.006-.01-.055.133-.035.079-.07.159-.106.238q-.126.279-.261.555c-.192.4-.391.788-.593,1.181-.48.933-.969,1.863-1.439,2.8a56.076,56.076,0,0,0-3.2,7.645,47.237,47.237,0,0,0-1.277,23.473,80.43,80.43,0,0,0,4.495,14.63c1.821,4.592,3.9,9.08,6.12,13.491,4.083,8.1,8.692,15.909,13.128,23.816,1.76,3.138,3.5,6.3,5.033,9.553a30.251,30.251,0,0,1,2.64,7.4,9.546,9.546,0,0,1,.15,1.358c.031.762,1.219.766,1.188,0A20.265,20.265,0,0,0,109.6,282.9a95.349,95.349,0,0,0-4.45-9c-4.217-7.733-8.761-15.281-12.864-23.077C90,246.493,87.84,242.1,85.9,237.608a102.476,102.476,0,0,1-5.1-14.158,47.913,47.913,0,0,1-.349-24.956,48.961,48.961,0,0,1,3.038-8.111c.883-1.865,1.894-3.666,2.782-5.527q.256-.534.479-1.081c.29-.708-.86-1.016-1.146-.316" transform="translate(-16.155 -38.026)" fill="#00826f"/>
          <path id="Trazado_1051517" data-name="Trazado 1051517" d="M77.8,303.611a9.618,9.618,0,0,1,5.993-1.929,22.3,22.3,0,0,1,4.942.711c3.929.941,7.5,3.131,11.123,4.834a27.8,27.8,0,0,0,6.125,2.252c.746.154,1.066-.992.316-1.146a25.6,25.6,0,0,1-5.562-2c-1.99-.923-3.935-1.939-5.919-2.875A27.207,27.207,0,0,0,84.072,300.5a10.76,10.76,0,0,0-6.873,2.086c-.6.455-.012,1.487.6,1.026" transform="translate(-15.983 -62.419)" fill="#00826f"/>
          <path id="Trazado_1051518" data-name="Trazado 1051518" d="M215.327,211.289c-4.068,1.977-8.142,6.021-10.776,13.384" transform="translate(-42.489 -43.889)" fill="none" stroke="#00826f" stroke-linecap="round" stroke-linejoin="round" stroke-width="1.5"/>
          <path id="Trazado_1051519" data-name="Trazado 1051519" d="M155.854,221.6c-4.214,3.381-5.988,7.359-5.987,12.778,0,7.7,4.351,13.4,8.7,20.977" transform="translate(-31.13 -46.031)" fill="none" stroke="#00826f" stroke-linecap="round" stroke-linejoin="round" stroke-width="1.5"/>
          <path id="Trazado_1051520" data-name="Trazado 1051520" d="M167.158,237.761c-5.435,2.838-9.658,11.891-6.581,20.952" transform="translate(-33.139 -49.388)" fill="none" stroke="#00826f" stroke-linecap="round" stroke-linejoin="round" stroke-width="1.5"/>
          <path id="Trazado_1051521" data-name="Trazado 1051521" d="M95.172,290.627c15.51,15.261,17.355,21.788,27.044,27.91" transform="translate(-19.769 -60.369)" fill="none" stroke="#00826f" stroke-linecap="round" stroke-linejoin="round" stroke-width="1.5"/>
          <path id="Trazado_1051522" data-name="Trazado 1051522" d="M255.14,142.415a17.307,17.307,0,0,1-4.48.1,32.675,32.675,0,0,0,7.232-2.223c2.865-1.14,6.517-3.451,6.4-5.389a1.736,1.736,0,0,0-1.987-1.914c.757-.8,2.077-2.1.421-3.279-1.447-1.027-4.944.581-7.628,1.58-1.577.588-3.82,1.217-6.215,2.079a37.572,37.572,0,0,0,7.494-4.96c1.554-1.322,3.2-2.691,2.008-4.009s-3.547.02-5.1.991a52.942,52.942,0,0,1-6.878,3.642c-1.679.581-4.033,1.462-3.8-.5s3.474-3.841,3.76-6.045c.185-1.423-.572-3.024-2.189-2.285s-3.084,2.5-4.554,3.743c-1.9,1.6-2.786,2-4.377,3.93-2.5,3.038-5.849,2.536-11.926,1.6-5.013-.775-23.755-4.866-23.755-4.866l-19-27.99c-4.785-5.664-10.656-9.367-18.26-9.953v28.806s13.916,18.963,17.917,23.634c4.8,5.607,7.947,8.067,18.516,8.591,10.051.5,26.14.512,30.08.623s9.69.271,13.4.256a49.378,49.378,0,0,0,9.544-.707c2.641-.51,8.276-1.5,7.985-4.205-.171-1.589-1.793-1.656-4.607-1.234" transform="translate(-33.713 -18)" fill="#fcc"/>
          <path id="Trazado_1051523" data-name="Trazado 1051523" d="M272.267,149.935a47.529,47.529,0,0,0,12.831-4.757" transform="translate(-56.555 -30.156)" fill="none" stroke="#303030" stroke-linecap="round" stroke-linejoin="round" stroke-width="1.5"/>
          <path id="Trazado_1051524" data-name="Trazado 1051524" d="M265.276,149.054a9.478,9.478,0,0,0-5.979.551,8.907,8.907,0,0,0-3.542,2.981" transform="translate(-53.125 -30.905)" fill="none" stroke="#303030" stroke-linecap="round" stroke-linejoin="round" stroke-width="1.5"/>
          <path id="Trazado_1051525" data-name="Trazado 1051525" d="M160,82.287c16.336,2.234,22.239,14.031,24.756,17.745S196.8,117.97,196.8,117.97a32.446,32.446,0,0,1-19.062,19.786L160,116.209Z" transform="translate(-33.236 -17.093)" fill="#f55571"/>
          <path id="Trazado_1051526" data-name="Trazado 1051526" d="M117.384,79.914a109.1,109.1,0,0,0-17.8,1.659,20.655,20.655,0,0,0-13.695,9.3A44.069,44.069,0,0,0,80.1,104.815c-3.441,15.946-3.309,21.716-3.941,31.28-.445,6.737-10.83,32.937-8.736,38.038s14.627,7.719,32.953,7.719c27.441,0,39.282-19.576,52.492-24.191,0,0,1.685-3.891-2.225-5.65-.328-10.026,4.148-25.868,4.968-30.1,2.748-14.2,1.1-26.715-1.158-29.868A25.379,25.379,0,0,0,140.1,81.573c-9.733-2.309-16.38-1.7-22.719-1.659" transform="translate(-13.947 -16.578)" fill="#f55571"/>
          <path id="Trazado_1051527" data-name="Trazado 1051527" d="M172.532,156.429c-.328-10.026,4.148-25.868,4.968-30.1,1.739-8.988,1.9-20.369.5-25.25" transform="translate(-35.835 -20.996)" fill="#f55571"/>
          <path id="Trazado_1051528" data-name="Trazado 1051528" d="M172.532,156.429c-.328-10.026,4.148-25.868,4.968-30.1,1.739-8.988,1.9-20.369.5-25.25" transform="translate(-35.835 -20.996)" fill="none" stroke="#303030" stroke-linecap="round" stroke-linejoin="round" stroke-width="1.5"/>
          <path id="Trazado_1051529" data-name="Trazado 1051529" d="M159.992,170.545a30.473,30.473,0,0,0-10.591,1.364,34.382,34.382,0,0,0-8.068,3.994c-2.48,1.616-4.823,3.429-7.251,5.121a47.686,47.686,0,0,1-9.918,5.413A44.694,44.694,0,0,1,110.8,189.41c-.76.049-.765,1.238,0,1.188a46.087,46.087,0,0,0,22.563-7.645c4.92-3.281,9.446-7.286,15.034-9.43a29.157,29.157,0,0,1,11.6-1.791c.765.029.764-1.16,0-1.188" transform="translate(-22.896 -35.42)" fill="#303030"/>
          <path id="Trazado_1051530" data-name="Trazado 1051530" d="M135.384,159.413a4.524,4.524,0,0,0-2.576-1.9,24.635,24.635,0,0,0-6.215-1.208c-1.061-.089-2.123-.123-3.186-.187-.715-.043-1.614-.326-1.008-1.164a15.937,15.937,0,0,1,4.466-3.786c1.284-.826,2.721-1.628,3.419-3.024.8-1.6-.338-2.645-1.737-2.351-4.69.983-9.135,4.281-13.038,7.06-4.243,3.022-8.992,6.394-14.483,4.956-9.09-2.38-22.115-15.253-22.113-15.265C80.869,139.468,89.2,122.51,89.2,122.51s10.375-23.536,5.593-37.4c-17.038,1.99-19.55,5.126-31.308,26.861-2.941,5.436-9.28,18.862-11.175,23.352C47.293,147.211,48.45,151.6,59.951,158.3s27.018,14.147,36.462,16.338a25.026,25.026,0,0,0,9.748.433c4.106-.689,7.416-3.6,11.513-4.22,1.579-.239,2.811-.5,4.4-.616,3.092-.217,5.118.145,6.544-1.131a2.014,2.014,0,0,0-.029-3.133,3.768,3.768,0,0,0,3.694-.678,1.827,1.827,0,0,0-.284-3.156,3.559,3.559,0,0,0,2.324-.1,1.848,1.848,0,0,0,1.056-2.622" transform="translate(-10.28 -17.678)" fill="#fcc"/>
          <path id="Trazado_1051531" data-name="Trazado 1051531" d="M76.17,154.743c2.393-.377,6.689.814,8.286,2.251" transform="translate(-15.822 -32.129)" fill="none" stroke="#303030" stroke-linecap="round" stroke-linejoin="round" stroke-width="1.5"/>
          <path id="Trazado_1051532" data-name="Trazado 1051532" d="M85.615,135.4l7.468-14.1c3.778-7.123,10.716-21.827,5.065-39.273-15.86,2.99-21.64,6.477-28.281,19.263-4.63,8.915-6.9,12.849-9.628,19.191,3.789,8.39,19.055,14.9,25.376,14.915" transform="translate(-12.513 -17.04)" fill="#f55571"/>
          <path id="Trazado_1051533" data-name="Trazado 1051533" d="M92.268,139.906l7.468-14.1c2.451-4.62,6.229-12.427,7.042-22.1" transform="translate(-19.166 -21.542)" fill="#f55571"/>
          <path id="Trazado_1051534" data-name="Trazado 1051534" d="M92.268,139.906l7.468-14.1c2.451-4.62,6.229-12.427,7.042-22.1" transform="translate(-19.166 -21.542)" fill="none" stroke="#303030" stroke-linecap="round" stroke-linejoin="round" stroke-width="1.5"/>
          <path id="Trazado_1051535" data-name="Trazado 1051535" d="M138.961,180.551c4.387-.747,7.6-.558,11.628,1.322" transform="translate(-28.865 -37.419)" fill="none" stroke="#303030" stroke-linecap="round" stroke-linejoin="round" stroke-width="1.5"/>
          <path id="Trazado_1051536" data-name="Trazado 1051536" d="M137.719,186.407c4.216-.9,6.717-.775,9.2.48" transform="translate(-28.607 -38.599)" fill="none" stroke="#303030" stroke-linecap="round" stroke-linejoin="round" stroke-width="1.5"/>
          <path id="Trazado_1051537" data-name="Trazado 1051537" d="M118.221,24.518c-1.294,10.945,6.7,24,18.163,25.357s22.04-9.506,23.334-20.45S152.772,8.51,141.313,7.155s-21.8,6.419-23.092,17.364" transform="translate(-24.528 -1.454)" fill="#303030"/>
          <path id="Trazado_1051538" data-name="Trazado 1051538" d="M121.707,31.5a6.264,6.264,0,0,1-4.487-1.817c-1.44-1.382-1.55-4.342-1.031-5.8a8.1,8.1,0,0,1-2.141,0,3.01,3.01,0,0,1-1.849-1c-.277-.345-.393-.954,0-1.156a1.21,1.21,0,0,1,.574-.054,2.531,2.531,0,0,0,2.186-1.755,12.731,12.731,0,0,0,.512-2.931c.54-3.924,3.725-8.826,7.953-9.385a10.958,10.958,0,0,1,4.549.524,11.821,11.821,0,0,1,5-5.842A16.6,16.6,0,0,1,140.41.048a13.911,13.911,0,0,1,5.248.524c3.13,1.01,5.574,3.415,8.323,5.22s6.4,3.018,9.266,1.413c.509-.284,1.158-.647,1.615-.284a1.178,1.178,0,0,1,.345.622c.74,2.574-.8,5.128-2.969,6.47a5.4,5.4,0,0,1,4.381,2.828,9.214,9.214,0,0,1,.5,6.051,7.032,7.032,0,0,0-3.358-2.173,6.833,6.833,0,0,1-4.021,9.811,11.521,11.521,0,0,1-2.6.215c-1.189.11-2.378.215-3.57.306q-7.146.544-14.319.54c-2.9,0-5.8-.147-8.7-.207-2.951-.061-5.907.176-8.852.115" transform="translate(-23.254 0)" fill="#303030"/>
          <path id="Trazado_1051539" data-name="Trazado 1051539" d="M157.792,38.975a66.444,66.444,0,0,0,1.112-8.82,22.223,22.223,0,0,0-2.422-10.735c-5.442-5.9-16.3-5.917-23.781-1.205.036,4.373-.178,8.254-5.374,8.649,1.268,3.19,1.637,4.663,1.5,7.6-.137,3.023-1.829,2.232-2.847.715a8.957,8.957,0,0,0-6.012-4c-3.2-.333-5.468,1.331-6.192,3.586-.716,2.229.851,4.884,2.982,6.032a8.181,8.181,0,0,0,7.256.328s-.218,2.777-.4,5.162a9.085,9.085,0,0,0,1.951,6.521L121.79,67.024s4.648,7.554,17.049,8.035c11.178.433,5.906-7.8,5.906-7.8l.082-6.387c1.352.123,6.607.428,9.276-1.773s2.64-5.491,2.869-10.678c.123-2.8.41-6.923.82-9.443" transform="translate(-23.598 -3.079)" fill="#fcc"/>
          <path id="Trazado_1051540" data-name="Trazado 1051540" d="M149.2,55.562c-1-.144-2.007,2-1.757,2.825a1.419,1.419,0,0,0,2.439.387,2.188,2.188,0,0,0,.246-2.577c-.194-.288-.57-.708-.96-.536" transform="translate(-30.618 -11.54)" fill="#ff95fb"/>
          <path id="Trazado_1051541" data-name="Trazado 1051541" d="M151.285,53.959a4.4,4.4,0,0,0-3.463.807,3.267,3.267,0,0,0-1.192,2.954,2.19,2.19,0,0,0,4.342-.063,3.427,3.427,0,0,0-1.512-3.371.594.594,0,1,0-.6,1.026s.157.111.069.044c.031.024.061.049.09.074a3.061,3.061,0,0,1,.236.228c.034.037.067.075.1.114.124.146-.028-.044.037.048a2.847,2.847,0,0,1,.195.315c.025.045.048.092.071.139.085.179-.015-.048.025.061a2.763,2.763,0,0,1,.1.335c.01.042.018.084.027.127.038.188,0-.093.013.1a3.189,3.189,0,0,1,.006.369c0,.041-.006.083-.01.124-.009.12,0-.051.008-.05s-.032.161-.035.173c-.017.07-.041.137-.064.205.038-.113.017-.036,0-.009-.032.063-.064.125-.1.185-.02.032-.041.063-.063.093.064-.089-.061.067-.062.067a1.684,1.684,0,0,1-.191.174,1.329,1.329,0,0,1-.235.135c.1-.045.02-.01,0,0-.065.015-.129.033-.195.048.119-.026.044,0,.011,0-.048,0-.1,0-.146,0-.032,0-.065,0-.1-.008.151.017-.006-.007-.032-.013s-.252-.1-.133-.038a2.631,2.631,0,0,1-.255-.147c-.132-.084.054.05-.017-.013-.031-.028-.063-.055-.092-.084s-.172-.208-.1-.109a1.939,1.939,0,0,1-.132-.215c-.01-.019-.068-.171-.024-.045-.017-.048-.034-.1-.048-.147s-.02-.085-.029-.127c-.021-.1,0,.14,0-.025,0-.091,0-.179,0-.27.009-.171-.034.118.013-.072.01-.041.017-.084.026-.125a3.617,3.617,0,0,1,.1-.352c.018-.055.038-.109.059-.163-.01.025-.044.087.008-.014.043-.083.084-.166.133-.246.029-.047.06-.093.091-.139.065-.1.025-.032.01-.013a2.629,2.629,0,0,1,.235-.253,2.459,2.459,0,0,1,1.162-.608,2.877,2.877,0,0,1,.692-.1c.129-.006.259-.006.387,0,.042,0,.084,0,.126.009l.124.012.022,0a.613.613,0,0,0,.731-.414.6.6,0,0,0-.415-.731" transform="translate(-30.451 -11.195)" fill="#303030"/>
          <path id="Trazado_1051542" data-name="Trazado 1051542" d="M158.018,38.723a3.293,3.293,0,0,1,3.289-1.757c1.417.025,3.4.555,3.577,2.557-.714,1.928-5.23,2.088-6.866-.8" transform="translate(-32.824 -7.678)" fill="#fff"/>
          <path id="Trazado_1051543" data-name="Trazado 1051543" d="M164.428,40.332a1.792,1.792,0,0,1-2.466.528,1.763,1.763,0,0,1-.635-2.422,1.792,1.792,0,0,1,2.466-.528,1.763,1.763,0,0,1,.635,2.422" transform="translate(-33.459 -7.817)" fill="#303030"/>
          <path id="Trazado_1051544" data-name="Trazado 1051544" d="M161.152,38.572l1.671,1.008-2.012-.067Z" transform="translate(-33.404 -8.012)" fill="#fff"/>
          <path id="Trazado_1051545" data-name="Trazado 1051545" d="M165.146,39.221a3.981,3.981,0,0,0-3.727-2.05,4.054,4.054,0,0,0-3.4,1.595" transform="translate(-32.824 -7.721)" fill="none" stroke="#303030" stroke-linecap="round" stroke-linejoin="round" stroke-width="1.5"/>
          <path id="Trazado_1051546" data-name="Trazado 1051546" d="M160.777,27.586a9.02,9.02,0,0,1,6.839,3.4" transform="translate(-33.397 -5.73)" fill="none" stroke="#303030" stroke-linecap="round" stroke-linejoin="round" stroke-width="1.5"/>
          <path id="Trazado_1051547" data-name="Trazado 1051547" d="M140.126,37.371a3.294,3.294,0,0,1,3.3-1.744c1.417.029,3.4.569,3.568,2.571-.722,1.925-5.238,2.069-6.863-.827" transform="translate(-29.107 -7.4)" fill="#fff"/>
          <path id="Trazado_1051548" data-name="Trazado 1051548" d="M146.53,39a1.792,1.792,0,0,1-2.467.519,1.764,1.764,0,0,1-.627-2.425,1.793,1.793,0,0,1,2.468-.518A1.763,1.763,0,0,1,146.53,39" transform="translate(-29.742 -7.54)" fill="#303030"/>
          <path id="Trazado_1051549" data-name="Trazado 1051549" d="M143.262,37.23l1.667,1.015-2.011-.076Z" transform="translate(-29.687 -7.733)" fill="#fff"/>
          <path id="Trazado_1051550" data-name="Trazado 1051550" d="M147.253,37.9a3.979,3.979,0,0,0-3.719-2.064,4.053,4.053,0,0,0-3.408,1.581" transform="translate(-29.107 -7.443)" fill="none" stroke="#303030" stroke-linecap="round" stroke-linejoin="round" stroke-width="1.5"/>
          <path id="Trazado_1051551" data-name="Trazado 1051551" d="M136.908,30.51a9.1,9.1,0,0,1,7.3-4.094" transform="translate(-28.439 -5.487)" fill="none" stroke="#303030" stroke-linecap="round" stroke-linejoin="round" stroke-width="1.5"/>
          <path id="Trazado_1051552" data-name="Trazado 1051552" d="M154.7,34.019c.286,4.079,1.657,6.745,2.432,8.85.593,1.613.425,4.3-3.458,4.113" transform="translate(-31.921 -7.066)" fill="none" stroke="#303030" stroke-linecap="round" stroke-linejoin="round" stroke-width="1.5"/>
          <path id="Trazado_1051553" data-name="Trazado 1051553" d="M117.979,40.189a3.675,3.675,0,0,1,3.367-.628,4.422,4.422,0,0,1,2.863,3.082" transform="translate(-24.507 -8.182)" fill="none" stroke="#303030" stroke-linecap="round" stroke-linejoin="round" stroke-width="1.5"/>
          <path id="Trazado_1051554" data-name="Trazado 1051554" d="M120.7,42.358a2.871,2.871,0,0,1,3.511-.589" transform="translate(-25.073 -8.598)" fill="none" stroke="#303030" stroke-linecap="round" stroke-linejoin="round" stroke-width="1.5"/>
          <path id="Trazado_1051555" data-name="Trazado 1051555" d="M136.258,35.917A6.543,6.543,0,1,0,149.3,36.942c.283-3.6-2.614-4.14-6.216-4.423S136.54,32.315,136.258,35.917Z" transform="translate(-28.299 -6.734)" fill="none" stroke="#303030" stroke-linecap="round" stroke-linejoin="round" stroke-width="1.5"/>
          <path id="Trazado_1051556" data-name="Trazado 1051556" d="M158.026,37.626a6.543,6.543,0,1,0,13.046,1.024c.283-3.6-2.614-4.14-6.216-4.423S158.309,34.024,158.026,37.626Z" transform="translate(-32.821 -7.089)" fill="none" stroke="#303030" stroke-linecap="round" stroke-linejoin="round" stroke-width="1.5"/>
          <path id="Trazado_1051557" data-name="Trazado 1051557" d="M156.774,40.642a3.1,3.1,0,0,0-4.28-.336" transform="translate(-31.676 -8.226)" fill="none" stroke="#303030" stroke-linecap="round" stroke-linejoin="round" stroke-width="1.5"/>
          <line id="Línea_1140" data-name="Línea 1140" x1="4.77" y2="0.704" transform="translate(102.84 30.213)" fill="none" stroke="#303030" stroke-linecap="round" stroke-linejoin="round" stroke-width="1.5"/>
          <path id="Trazado_1051558" data-name="Trazado 1051558" d="M149.394,71.539c-5.079-.871-10.669-2.812-13.8-5.346.625,2.3,4.3,6.345,13.735,9Z" transform="translate(-28.165 -13.75)" fill="#303030"/>
        </g>
      </g>
      <g id="Grupo_1207697" data-name="Grupo 1207697">
        <g id="Grupo_1207696" data-name="Grupo 1207696" clip-path="url(#clip-path-2)">
          <path id="Trazado_1051559" data-name="Trazado 1051559" d="M354.934,282.09c6.195,1.575,16.5-2.251,26.053-3.732s22.853-3.114,37.308.35c9.988,2.394,9.623,6.6,9.623,6.6s-9.8,36.914-47.167,39.289-25.817-42.511-25.817-42.511" transform="translate(-73.377 -57.465)" fill="#303030"/>
          <path id="Trazado_1051560" data-name="Trazado 1051560" d="M384.341,289.981c-1.947,11.74-2.071,22.281-.5,30.919" transform="translate(-79.507 -60.235)" fill="none" stroke="#00826f" stroke-linecap="round" stroke-linejoin="round" stroke-width="1.5"/>
          <path id="Trazado_1051561" data-name="Trazado 1051561" d="M378.1,345.705c-4.78-2.9-12.523-4.983-19.907-8.644s-14.349-4.145-25.78-9.064-15.969-8.418-19.109-14.424c-2.489-4.763-4.452-12.561-1.236-16.376,9.055-10.745,23.68-.169,30.576,5.333,4.83,3.853,10.438,10.006,14.684,14.446,4.307,4.5,9.091,3.423,14.808,5.608,3.382,1.293,7.306,1.8,10.734,2.966,4.469,1.524,9.261,1.393,13.828,2.523a12.264,12.264,0,0,1,3.38,1.3,8.631,8.631,0,0,1,3.782,4.95,21.344,21.344,0,0,1,1.108,6.74,9.694,9.694,0,0,1-.685,3.351,11.867,11.867,0,0,1-10.926,7.06c-5.552.027-10.66-2.984-15.259-5.773" transform="translate(-64.475 -60.771)" fill="#ffc4b0"/>
          <path id="Trazado_1051562" data-name="Trazado 1051562" d="M370.135,324.979c.208,2.95-1.864,11.574-7.757,16.344l-3.107-1.1s-.708,1.94,2,2.912,5.013,1.269,7.779,2.558c2.45,1.142,12.163,5.051,14.51,6.083a96.278,96.278,0,0,0,11.812,4.3c3.556,1.037,7.392,2.135,11.163,1.1,4.758-1.311,6.8-6.2,7.287-11.173.391-4.007-.153-8.56-3.038-10.757-2.487-1.894-4.117-2.5-8.3-2.3a35.96,35.96,0,0,1-8.58-.282A58.03,58.03,0,0,1,382.28,329a29.956,29.956,0,0,1-8.819-5.376c-2.547-2.176-3.763-.739-4.378.22Z" transform="translate(-74.611 -66.987)" fill="#fff"/>
          <path id="Trazado_1051563" data-name="Trazado 1051563" d="M370.135,324.979c.208,2.95-1.864,11.574-7.757,16.344l-3.107-1.1s-.708,1.94,2,2.912,5.013,1.269,7.779,2.558c2.45,1.142,12.163,5.051,14.51,6.083a96.278,96.278,0,0,0,11.812,4.3c3.556,1.037,7.392,2.135,11.163,1.1,4.758-1.311,6.8-6.2,7.287-11.173.391-4.007-.153-8.56-3.038-10.757-2.487-1.894-4.117-2.5-8.3-2.3a35.96,35.96,0,0,1-8.58-.282A58.03,58.03,0,0,1,382.28,329a29.956,29.956,0,0,1-8.819-5.376c-2.547-2.176-3.763-.739-4.378.22Z" transform="translate(-74.611 -66.987)" fill="none" stroke="#303030" stroke-linecap="round" stroke-linejoin="round" stroke-width="1.5"/>
          <path id="Trazado_1051564" data-name="Trazado 1051564" d="M417.752,349.05c.9-7.726-1.7-15.278-7.878-16.334s-6.825.325-12.9-1.184c-3.093-.769-5.109-1.629-6.917-2.029-1.745-.386-3.246-.912-5.485-1.567s-3.267-1.6-5.274-2.517c-1.236-.563-1.459.652-1.618,1.533-.86,4.791-2.763,14.581-8.4,18.624a1.083,1.083,0,0,0-.059,1.821,166.4,166.4,0,0,0,15.462,6.355c6.159,2.3,15.9,7.178,21.991,6.47s10.563-3.519,11.077-11.172" transform="translate(-76.597 -67.566)" fill="#f55571"/>
          <path id="Trazado_1051565" data-name="Trazado 1051565" d="M424.1,361.539c-5.09,2.77-9.2,1.243-14.21.129a17.042,17.042,0,0,0,5.33.4c6.093-.7,10.565-3.512,11.077-11.166.9-7.731-1.692-15.281-7.874-16.334-.712-.125-1.356-.212-1.94-.284a13.4,13.4,0,0,1,9.187,1.877c2.717,1.742,3.8,7.047,4.1,10.637s-.583,11.965-5.669,14.744" transform="translate(-85.142 -69.413)" fill="#303030"/>
          <path id="Trazado_1051566" data-name="Trazado 1051566" d="M412.34,334.163c-5.774.806-14.263,22.345-6.307,26.863" transform="translate(-83.668 -69.412)" fill="none" stroke="#303030" stroke-linecap="round" stroke-linejoin="round" stroke-width="1.5"/>
          <path id="Trazado_1051567" data-name="Trazado 1051567" d="M400.763,338.427a24.309,24.309,0,0,0-5.2,15.6" transform="translate(-82.16 -70.298)" fill="none" stroke="#303030" stroke-linecap="round" stroke-linejoin="round" stroke-width="1.5"/>
          <path id="Trazado_1051568" data-name="Trazado 1051568" d="M392.823,336.8a27.065,27.065,0,0,0-5.349,14.657" transform="translate(-80.486 -69.96)" fill="none" stroke="#303030" stroke-linecap="round" stroke-linejoin="round" stroke-width="1.5"/>
          <path id="Trazado_1051569" data-name="Trazado 1051569" d="M385.381,334.489c-3.416,3.906-4.939,11.843-5.467,14.115" transform="translate(-78.916 -69.48)" fill="none" stroke="#303030" stroke-linecap="round" stroke-linejoin="round" stroke-width="1.5"/>
          <path id="Trazado_1051570" data-name="Trazado 1051570" d="M303.655,287.838c7.339-9.358,22.1-10.226,46.161-4.919l4.837,28.525,3.252,3.568s-1.379,8.819-13.469,16.465c0,0-16.625-3.909-26.216-8.7-22.617-11.292-20.885-26.884-14.565-34.942" transform="translate(-62.217 -58.092)" fill="#303030"/>
          <path id="Trazado_1051571" data-name="Trazado 1051571" d="M334.774,293.97c6.852.87,11,4.624,15.9,8.9,4.486,3.912,14.55,15.114,14.55,15.114" transform="translate(-69.539 -61.063)" fill="none" stroke="#00826f" stroke-linecap="round" stroke-linejoin="round" stroke-width="1.5"/>
          <path id="Trazado_1051572" data-name="Trazado 1051572" d="M434.622,301.061c-14.475-10.919-38.1.81-47.176,4.388s-27.119,13.978-31.91,15.453-9.532,3.816-13.4,4.125-9.167.516-15,1.161c-4.86.538-9.25-.158-14.023-.882-4.038-.612-8.537-.509-10,4.064a29.255,29.255,0,0,0-1.223,10.891c.117,1.875.521,4.516,2.074,5.757a13.565,13.565,0,0,0,5.646,2.191c5.349.983,11.043-.469,16.2-1.773,5.992-1.513,14.416-3.3,23.409-4.773s23.172-2.5,36.85-3.994,30.218-1.68,43.962-9.89,14.727-19.073,4.59-26.72" transform="translate(-62.693 -61.592)" fill="#ffc4b0"/>
          <path id="Trazado_1051573" data-name="Trazado 1051573" d="M431.281,287.593c8.5,1.217,22.1,5.5,24.2,18.577,1.722,10.733-5.609,18.849-14.311,22.807-8.335,3.791-18.556,6.3-29.526,7.893-8.58,1.249-33.711,3.59-33.711,3.59s-5.246-1.831-6.95-11.272c-1.57-8.694.424-12.588.424-12.588,12.411-7.779,59.872-29.006,59.872-29.006" transform="translate(-76.936 -59.739)" fill="#303030"/>
          <path id="Trazado_1051574" data-name="Trazado 1051574" d="M377.935,343.633s-5.246-1.831-6.95-11.272c-1.57-8.694.424-12.589.424-12.589,4.388-2.75,13.126-7.241,22.658-11.76,12.519-5.935,20.907-6.263,30.221-3.354" transform="translate(-76.936 -62.913)" fill="none" stroke="#00826f" stroke-linecap="round" stroke-linejoin="round" stroke-width="1.5"/>
          <path id="Trazado_1051575" data-name="Trazado 1051575" d="M348.966,329.444c-.8,2.847-.974,12.469,3.834,18.33l3.887-.368s.486,2.012-2.363,2.416-5.612-.225-8.581.479c-2.63.624-12.933,2.49-15.439,3.028a96.353,96.353,0,0,1-12.438,1.829c-3.692.3-7.671.6-11.155-1.18-4.4-2.245-5.409-7.448-4.881-12.415.425-4,1.879-8.352,5.148-9.922,2.817-1.353,4.537-1.619,8.594-.582a35.947,35.947,0,0,0,8.459,1.456,58.1,58.1,0,0,0,12.126-1.234,38.961,38.961,0,0,0,11.091-3.94c2.934-1.617,4.387-.353,4.8.711Z" transform="translate(-62.67 -67.835)" fill="#fff"/>
          <path id="Trazado_1051576" data-name="Trazado 1051576" d="M348.966,329.444c-.8,2.847-.974,12.469,3.834,18.33l3.887-.368s.486,2.012-2.363,2.416-5.612-.225-8.581.479c-2.63.624-12.933,2.49-15.439,3.028a96.353,96.353,0,0,1-12.438,1.829c-3.692.3-7.671.6-11.155-1.18-4.4-2.245-5.409-7.448-4.881-12.415.425-4,1.879-8.352,5.148-9.922,2.817-1.353,4.537-1.619,8.594-.582a35.947,35.947,0,0,0,8.459,1.456,58.1,58.1,0,0,0,12.126-1.234,38.961,38.961,0,0,0,11.091-3.94c2.934-1.617,4.387-.353,4.8.711Z" transform="translate(-62.67 -67.835)" fill="none" stroke="#303030" stroke-linecap="round" stroke-linejoin="round" stroke-width="1.5"/>
          <path id="Trazado_1051577" data-name="Trazado 1051577" d="M298.79,344c.677-7.749,4.746-14.621,11.013-14.407s6.619,1.7,12.876,1.446c3.185-.128,5.334-.563,7.184-.59,1.787-.026,3.363-.238,5.688-.428s3.523-.91,5.674-1.4c1.325-.3,1.3.933,1.275,1.829-.124,4.865-.238,14.838,4.463,19.935a1.084,1.084,0,0,1-.311,1.8,166.6,166.6,0,0,1-16.426,3.1c-6.5,1.013-17.021,3.819-22.845,1.9S297.748,351.6,298.79,344" transform="translate(-62.029 -68.253)" fill="#f55571"/>
          <path id="Trazado_1051578" data-name="Trazado 1051578" d="M297.954,354.945c4.426,3.74,8.757,3.075,13.892,3a17.024,17.024,0,0,1-5.3-.688c-5.825-1.919-9.639-5.573-8.594-13.172.675-7.754,4.743-14.625,11.01-14.408.723.021,1.371.067,1.958.114a13.4,13.4,0,0,0-9.377-.017c-3.014,1.158-5.148,6.135-6.164,9.59s-1.844,11.837,2.575,15.585" transform="translate(-61.189 -68.326)" fill="#303030"/>
          <path id="Trazado_1051579" data-name="Trazado 1051579" d="M318.53,330.546c5.492,1.955,9.457,24.764.752,27.582" transform="translate(-66.165 -68.661)" fill="none" stroke="#303030" stroke-linecap="round" stroke-linejoin="round" stroke-width="1.5"/>
          <path id="Trazado_1051580" data-name="Trazado 1051580" d="M330.117,337.288a24.308,24.308,0,0,1,1.947,16.33" transform="translate(-68.572 -70.062)" fill="none" stroke="#303030" stroke-linecap="round" stroke-linejoin="round" stroke-width="1.5"/>
          <path id="Trazado_1051581" data-name="Trazado 1051581" d="M338.192,337.288a27.068,27.068,0,0,1,2.279,15.436" transform="translate(-70.249 -70.062)" fill="none" stroke="#303030" stroke-linecap="round" stroke-linejoin="round" stroke-width="1.5"/>
          <path id="Trazado_1051582" data-name="Trazado 1051582" d="M345.916,336.524c2.557,4.515,2.446,12.6,2.5,14.928" transform="translate(-71.854 -69.903)" fill="none" stroke="#303030" stroke-linecap="round" stroke-linejoin="round" stroke-width="1.5"/>
          <path id="Trazado_1051583" data-name="Trazado 1051583" d="M377.359,166.6c1.031,10.024,10.347,16.71,20.865,15.876s18.4-9.653,17.6-19.7-10.561-17.51-21.108-17.269c-10.8.247-18.614,8.858-17.356,21.092" transform="translate(-78.358 -30.223)" fill="#303030"/>
          <path id="Trazado_1051584" data-name="Trazado 1051584" d="M388.288,192.792l4.178-1.333.47-4.627c-3.978-.081-15.738-2.741-15.018-17.913a21.672,21.672,0,0,1,2.126-8.391h0c5.093-9.478,15.213-11.02,23.942-8.268.8,12.566,7.461,14.772,7.461,14.772a22.357,22.357,0,0,0-1.491,5.258,8.427,8.427,0,0,1,5.544-3.944c2.339-.376,4.987.78,5.768,2.912.772,2.108-.485,4.574-2.482,5.756a8.563,8.563,0,0,1-7.523.375l0,0a12.31,12.31,0,0,1-5.474,6.2l1.431,7.135,5.264,2.132L394.256,213.2l-7.783-11.254c-1.119-2.847.451-7.025,1.815-9.155" transform="translate(-78.495 -31.374)" fill="#ffc4b0"/>
          <path id="Trazado_1051585" data-name="Trazado 1051585" d="M402.558,181.366a6.475,6.475,0,0,1-5.94,1.786" transform="translate(-82.386 -37.673)" fill="none" stroke="#303030" stroke-linecap="round" stroke-linejoin="round" stroke-width="1.5"/>
          <path id="Trazado_1051586" data-name="Trazado 1051586" d="M427.521,177.034a4.331,4.331,0,0,0-3.236.03,4.132,4.132,0,0,0-2.553,2.981" transform="translate(-87.602 -36.712)" fill="none" stroke="#303030" stroke-linecap="round" stroke-linejoin="round" stroke-width="1.5"/>
          <path id="Trazado_1051587" data-name="Trazado 1051587" d="M425.516,179.146a3.2,3.2,0,0,0-3.186.1" transform="translate(-87.726 -37.132)" fill="none" stroke="#303030" stroke-linecap="round" stroke-linejoin="round" stroke-width="1.5"/>
          <path id="Trazado_1051588" data-name="Trazado 1051588" d="M405.037,194.4a18.713,18.713,0,0,1-8.21,1.442l-.209,2.55s5.164-.435,8.419-3.992" transform="translate(-82.386 -40.38)" fill="#303030"/>
          <path id="Trazado_1051589" data-name="Trazado 1051589" d="M395.167,167c-.059,4.365-1.743,7.531-1.029,8.458a2.687,2.687,0,0,0,2.943.765" transform="translate(-81.834 -34.69)" fill="none" stroke="#303030" stroke-linecap="round" stroke-linejoin="round" stroke-width="1.5"/>
          <path id="Trazado_1051590" data-name="Trazado 1051590" d="M409.923,169.784c-2.1-2.714-7.5-.986-7.832,1.594,1.211,2.222,6.351,2.214,7.832-1.594" transform="translate(-83.522 -34.983)" fill="#fff"/>
          <path id="Trazado_1051591" data-name="Trazado 1051591" d="M404.572,172.149a2.242,2.242,0,0,0,3.15.153,2.206,2.206,0,0,0,.294-3.118,2.242,2.242,0,0,0-3.15-.153,2.205,2.205,0,0,0-.294,3.118" transform="translate(-83.931 -34.992)" fill="#303030"/>
          <path id="Trazado_1051592" data-name="Trazado 1051592" d="M408.738,169.247l-1.858,1.583,2.469-.491Z" transform="translate(-84.517 -35.156)" fill="#fff"/>
          <path id="Trazado_1051593" data-name="Trazado 1051593" d="M402.091,171.384c1.214-3.221,5.12-3.548,7.764-2.183" transform="translate(-83.522 -34.989)" fill="none" stroke="#303030" stroke-linecap="round" stroke-linejoin="round" stroke-width="1.5"/>
          <path id="Trazado_1051594" data-name="Trazado 1051594" d="M403.545,162c3.034-.532,5.291-.114,7.32,1.42" transform="translate(-83.824 -33.606)" fill="none" stroke="#303030" stroke-linecap="round" stroke-linejoin="round" stroke-width="1.5"/>
          <path id="Trazado_1051595" data-name="Trazado 1051595" d="M386.515,163.8c-3.072-.21-5.273.444-7.13,2.183" transform="translate(-78.806 -34.017)" fill="none" stroke="#303030" stroke-linecap="round" stroke-linejoin="round" stroke-width="1.5"/>
          <path id="Trazado_1051596" data-name="Trazado 1051596" d="M381.023,172.069c1.494-3.088,6.829-2.262,7.684.194-.728,2.423-5.452,3.229-7.684-.194" transform="translate(-79.146 -35.327)" fill="#fff"/>
          <path id="Trazado_1051597" data-name="Trazado 1051597" d="M383.578,173.46a2.261,2.261,0,0,0,3.146.461,2.224,2.224,0,0,0,.6-3.1,2.261,2.261,0,0,0-3.146-.461,2.224,2.224,0,0,0-.6,3.1" transform="translate(-79.595 -35.296)" fill="#303030"/>
          <path id="Trazado_1051598" data-name="Trazado 1051598" d="M388.063,170.946l-2.019,1.407,2.525-.252Z" transform="translate(-80.189 -35.509)" fill="#fff"/>
          <path id="Trazado_1051599" data-name="Trazado 1051599" d="M388.693,172.264c-1.85-2.9-5.432-2.664-7.74-.784" transform="translate(-79.132 -35.327)" fill="none" stroke="#303030" stroke-linecap="round" stroke-linejoin="round" stroke-width="1.5"/>
          <path id="Trazado_1051600" data-name="Trazado 1051600" d="M404.35,147.338c-1.815-4.94-14.3-7.451-22.329-2.072s-10.482,13.087-9.954,18.166l8.827-.917s.925-6.44,5.431-8.973a12.949,12.949,0,0,0-1.688,6.758l6.444-.669s1.978-10.8,11.684-9.2l.987,9.816,12.306-1.279s-1.825-11.819-11.708-11.634" transform="translate(-77.272 -29.548)" fill="#303030"/>
          <path id="Trazado_1051601" data-name="Trazado 1051601" d="M410.762,141.422a8.822,8.822,0,0,1,1.061,6.873" transform="translate(-85.324 -29.376)" fill="none" stroke="#303030" stroke-linecap="round" stroke-linejoin="round" stroke-width="1.5"/>
          <path id="Trazado_1051602" data-name="Trazado 1051602" d="M417.806,145.524c-2.382.114-4.279,1.85-5.705,3.623" transform="translate(-85.602 -30.228)" fill="none" stroke="#303030" stroke-linecap="round" stroke-linejoin="round" stroke-width="1.5"/>
          <path id="Trazado_1051603" data-name="Trazado 1051603" d="M355.448,209.055c-7.22,1.015-9.058,3.452-14.993,13.617-5.736,9.824-10.865,18.468-10.865,18.468-4.92.1-16.262.367-19.632.22-1.441-.063-2.959-.121-4.372-.3-1.489-.189-2.762-1.353-3.981-2.135a56.28,56.28,0,0,0-5.643-3.611c-.951-.458-2.59-1.3-3.631-.654a2.064,2.064,0,0,0-.357,2.672c.574,1.018,1.449,1.852,1.95,2.931a3.664,3.664,0,0,0-1.455,1.828,7.9,7.9,0,0,0-.092,4.329,10.971,10.971,0,0,0,2.125,3.973,7.634,7.634,0,0,0,3.964,2.041l5.637,1.322c5.493,1.287,10.23,2.581,16.357,4.22s14.433,4.613,19.379-.119c3.915-3.746,15.333-19.793,15.333-19.793Z" transform="translate(-60.582 -43.425)" fill="#ffc4b0"/>
          <path id="Trazado_1051604" data-name="Trazado 1051604" d="M366.149,207.022c-11.4,2.036-13.353,8.493-17.211,15.228s-6.124,11.03-6.124,11.03c-2.255-.445-4.349,5.9-3.344,7.438a28.768,28.768,0,0,1,15.629,10.35c4.518,1.489,11.051-12.508,11.051-12.508Z" transform="translate(-70.461 -43.003)" fill="#303030"/>
          <path id="Trazado_1051605" data-name="Trazado 1051605" d="M308.833,231.218a4.911,4.911,0,0,0,6,3.492,3.477,3.477,0,0,0,1.387-.692v0c.441-.289,4.847-5.605,5.917-1.566l3.649,13.788L312,249.893c-4.039,1.069,1.277,5.475,1.566,5.916l0,0a3.445,3.445,0,0,1,.692,1.387,4.911,4.911,0,0,1-9.5,2.513,3.451,3.451,0,0,1-.085-1.548l0,0c.033-.526,2.474-6.986-1.566-5.917L289.317,255.9l-3.649-13.788c-1.069-4.039,5.391-1.6,5.917-1.566l0,0a3.471,3.471,0,0,0,1.548-.085,4.912,4.912,0,1,0-2.513-9.5,3.466,3.466,0,0,0-1.387.692l0-.01c-.439.294-4.847,5.605-5.917,1.566l-3.648-13.783,36.473-9.654,3.649,13.788c1.07,4.039-5.391,1.6-5.916,1.566v0a3.468,3.468,0,0,0-1.547.085,4.911,4.911,0,0,0-3.492,6" transform="translate(-58.092 -43.573)" fill="#f55571"/>
          <path id="Trazado_1051606" data-name="Trazado 1051606" d="M308.833,231.218a4.911,4.911,0,0,0,6,3.492,3.477,3.477,0,0,0,1.387-.692v0c.441-.289,4.847-5.605,5.917-1.566l3.649,13.788L312,249.893c-4.039,1.069,1.277,5.475,1.566,5.916l0,0a3.445,3.445,0,0,1,.692,1.387,4.911,4.911,0,0,1-9.5,2.513,3.451,3.451,0,0,1-.085-1.548l0,0c.033-.526,2.474-6.986-1.566-5.917L289.317,255.9l-3.649-13.788c-1.069-4.039,5.391-1.6,5.917-1.566l0,0a3.471,3.471,0,0,0,1.548-.085,4.912,4.912,0,1,0-2.513-9.5,3.466,3.466,0,0,0-1.387.692l0-.01c-.439.294-4.847,5.605-5.917,1.566l-3.648-13.783,36.473-9.654,3.649,13.788c1.07,4.039-5.391,1.6-5.916,1.566v0a3.468,3.468,0,0,0-1.547.085A4.911,4.911,0,0,0,308.833,231.218Z" transform="translate(-58.092 -43.573)" fill="none" stroke="#303030" stroke-linecap="round" stroke-linejoin="round" stroke-width="1.5"/>
          <path id="Trazado_1051607" data-name="Trazado 1051607" d="M286.488,247.617a.92.92,0,0,0,0,1.114,3.469,3.469,0,0,0,1.607.8,24.786,24.786,0,0,1,3.652.781c1.715.771,1.817,2.058.991,3.52.99.074,1.6.413,1.777,1.356.246,1.336-.209,1.71-.942,2.443.6.142.74,1.017.733,1.57a2.1,2.1,0,0,1-1.117,1.709c-1.555.864-4.574,1.034-6.071.07-1.239-.8-2.8-2.094-1.71-3.35-2.523-1.371-2.582-3.734-1.089-4.779a3.911,3.911,0,0,1-.622-1.433,4.275,4.275,0,0,1,.5-2.538,2.94,2.94,0,0,1,2.294-1.264" transform="translate(-58.852 -51.435)" fill="#ffc4b0"/>
          <path id="Trazado_1051608" data-name="Trazado 1051608" d="M293,255.205c-2.445,1.077-5.769.49-8.42-.98" transform="translate(-59.113 -52.808)" fill="none" stroke="#303030" stroke-linecap="round" stroke-linejoin="round" stroke-width="1.5"/>
          <path id="Trazado_1051609" data-name="Trazado 1051609" d="M294.118,260.256c-.71.884-5.4,1.634-8.165,0" transform="translate(-59.398 -54.06)" fill="none" stroke="#303030" stroke-linecap="round" stroke-linejoin="round" stroke-width="1.5"/>
          <path id="Trazado_1051610" data-name="Trazado 1051610" d="M370.426,205.8s-7,5.126-8.916,24.578c-.966,9.812-1.55,21.5-1.709,35.7.353,9.049,13.245,16.025,28.536,15.454,14.21-.531,28.912-8.907,40.836-11.874A5.247,5.247,0,0,0,427.051,262c-.544-4.024-1.146-7.211.208-17.255,1.4-10.391,2.5-13.725,2.185-19.66-.731-13.853-4.38-17.247-4.38-17.247l-21.6-6.707c-2.115,6.22-14.965,7.2-14.751.736Z" transform="translate(-74.738 -41.778)" fill="#00826f"/>
          <path id="Trazado_1051611" data-name="Trazado 1051611" d="M413.3,202.071l-3.042-.944c-2.115,6.22-14.966,7.2-14.751.736l-3,.646c.65,10.121,18.817,7.267,20.792-.437" transform="translate(-81.531 -41.778)" fill="#303030"/>
          <path id="Trazado_1051612" data-name="Trazado 1051612" d="M395.43,289.724c19.832-2.224,22.693-7.861,36.95-11.214" transform="translate(-82.139 -57.852)" fill="none" stroke="#303030" stroke-linecap="round" stroke-linejoin="round" stroke-width="1.5"/>
          <path id="Trazado_1051613" data-name="Trazado 1051613" d="M372.669,240.43a4.911,4.911,0,0,0,3.035,6.244,3.481,3.481,0,0,0,1.542.2l0,0c.522,0,7.149-1.952,5.785,2l-4.655,13.481L364.893,257.7c-3.95-1.364,1.679-5.372,2-5.784l0,0a3.483,3.483,0,0,0,.792-1.333,4.911,4.911,0,1,0-9.285-3.206,3.463,3.463,0,0,0-.2,1.537l-.009,0c0,.524,1.952,7.149-2,5.785l-13.478-4.653,4.655-13.482c1.363-3.95-5.258-1.991-5.785-2l0,0a3.462,3.462,0,0,1-1.538-.2,4.911,4.911,0,0,1,3.206-9.285,3.461,3.461,0,0,1,1.333.792l0,0c.418.32,4.422,5.947,5.785,2l4.655-13.481,35.664,12.313-4.655,13.482c-1.364,3.949-5.372-1.679-5.785-2v0a3.5,3.5,0,0,0-1.337-.794,4.911,4.911,0,0,0-6.241,3.042" transform="translate(-69.947 -44.531)" fill="#ff95fb"/>
          <path id="Trazado_1051614" data-name="Trazado 1051614" d="M372.669,240.43a4.911,4.911,0,0,0,3.035,6.244,3.481,3.481,0,0,0,1.542.2l0,0c.522,0,7.149-1.952,5.785,2l-4.655,13.481L364.893,257.7c-3.95-1.364,1.679-5.372,2-5.784l0,0a3.483,3.483,0,0,0,.792-1.333,4.911,4.911,0,1,0-9.285-3.206,3.463,3.463,0,0,0-.2,1.537l-.009,0c0,.524,1.952,7.149-2,5.785l-13.478-4.653,4.655-13.482c1.363-3.95-5.258-1.991-5.785-2l0,0a3.462,3.462,0,0,1-1.538-.2,4.911,4.911,0,0,1,3.206-9.285,3.461,3.461,0,0,1,1.333.792l0,0c.418.32,4.422,5.947,5.785,2l4.655-13.481,35.664,12.313-4.655,13.482c-1.364,3.949-5.372-1.679-5.785-2v0a3.5,3.5,0,0,0-1.337-.794A4.911,4.911,0,0,0,372.669,240.43Z" transform="translate(-69.947 -44.531)" fill="none" stroke="#303030" stroke-linecap="round" stroke-linejoin="round" stroke-width="1.5"/>
          <path id="Trazado_1051615" data-name="Trazado 1051615" d="M401.447,266.856s13.06,2.458,23.689,3.457c9.99.94,11.188-2.847,12.626-9.957,1.937-9.583,3.15-15.862,4.625-27.22,1.627-12.535-2.9-18.852-11.458-21.516-4.575,3.6-5.915,11.853-7.308,20.1-1.609,9.539-3.1,20.095-3.1,20.095a113.992,113.992,0,0,1-14.492,1.593,5.63,5.63,0,0,1-4.522-1.279c-2.654-1.833-5.014-5.823-9.449-5.847.436.917-.1,2.429-.616,3.629a25.206,25.206,0,0,1-9.24-1.943c-3.464-1.355-5.406,1.2-3.308,3.055.483.427,1.219,1,1.219,1s-1.246,1.934,1.325,4.211a22.694,22.694,0,0,0,2.741,1.657,6.963,6.963,0,0,0,2.078,3.444c1.222,1.554,4.159,1.949,5.334,2.9,1.449,2.042,4.42,2.2,9.849,2.623" transform="translate(-78.525 -43.958)" fill="#ffc4b0"/>
          <path id="Trazado_1051616" data-name="Trazado 1051616" d="M385.316,269.775a35.163,35.163,0,0,0,5.665,2.428" transform="translate(-80.038 -56.038)" fill="none" stroke="#303030" stroke-linecap="round" stroke-linejoin="round" stroke-width="1.5"/>
          <path id="Trazado_1051617" data-name="Trazado 1051617" d="M390.826,259.271c2.274.63,6.365,1.346,8.469,1.676" transform="translate(-81.182 -53.856)" fill="none" stroke="#303030" stroke-linecap="round" stroke-linejoin="round" stroke-width="1.5"/>
          <path id="Trazado_1051618" data-name="Trazado 1051618" d="M380.667,262.616a41.325,41.325,0,0,0,10.91,4.211" transform="translate(-79.072 -54.551)" fill="none" stroke="#303030" stroke-linecap="round" stroke-linejoin="round" stroke-width="1.5"/>
          <path id="Trazado_1051619" data-name="Trazado 1051619" d="M439.7,209.592c8.128,2.567,10.5,4.308,12.876,8.74s1.819,9.392.989,16.963.961,7.84.684,10.689a6.242,6.242,0,0,1-2.968,4.368s1.108.832.475,3.614-.748,7.416-3.144,5.969l.376-1.89s-7.656-7.877-17.612-6.646l-1.13.151s.177-6.924,1.223-8.095c.575-8.38,1.379-12.783,2.221-18.447,1.18-7.949,2.862-12.262,6.011-15.415" transform="translate(-89.37 -43.536)" fill="#303030"/>
        </g>
      </g>
      <g id="Grupo_1207699" data-name="Grupo 1207699">
        <g id="Grupo_1207698" data-name="Grupo 1207698" clip-path="url(#clip-path-2)">
          <path id="Trazado_1051620" data-name="Trazado 1051620" d="M246.941,16.535c-15.861-10.4-33.612-6.786-44.107-.166-10.289,6.49-20.884,22.673-9.991,38.753-1.748,3.217-5.811,4.743-8.935,4.743-1.646,0-.978,2.794,4.187,4.167a20.714,20.714,0,0,0,12.547-.888c13.013,8.534,33.868,8.463,47.035-.123,18.281-11.921,15.9-35.579-.736-46.486" transform="translate(-38.035 -2.078)" fill="#fff"/>
          <path id="Trazado_1051621" data-name="Trazado 1051621" d="M246.941,16.535c-15.861-10.4-33.612-6.786-44.107-.166-10.289,6.49-20.884,22.673-9.991,38.753-1.748,3.217-5.811,4.743-8.935,4.743-1.646,0-.978,2.794,4.187,4.167a20.714,20.714,0,0,0,12.547-.888c13.013,8.534,33.868,8.463,47.035-.123C265.958,51.1,263.574,27.442,246.941,16.535Z" transform="translate(-38.035 -2.078)" fill="none" stroke="#ff95fb" stroke-linecap="round" stroke-linejoin="round" stroke-width="1.5"/>
          <line id="Línea_1141" data-name="Línea 1141" x2="41.262" transform="translate(165.083 28.877)" fill="#fff"/>
          <line id="Línea_1142" data-name="Línea 1142" x2="41.262" transform="translate(165.083 28.877)" fill="none" stroke="#ff95fb" stroke-linecap="round" stroke-linejoin="round" stroke-width="1.5"/>
          <line id="Línea_1143" data-name="Línea 1143" x2="41.262" transform="translate(165.083 37.836)" fill="#fff"/>
          <line id="Línea_1144" data-name="Línea 1144" x2="41.262" transform="translate(165.083 37.836)" fill="none" stroke="#ff95fb" stroke-linecap="round" stroke-linejoin="round" stroke-width="1.5"/>
          <line id="Línea_1145" data-name="Línea 1145" x2="41.262" transform="translate(165.083 46.795)" fill="#fff"/>
          <line id="Línea_1146" data-name="Línea 1146" x2="41.262" transform="translate(165.083 46.795)" fill="none" stroke="#ff95fb" stroke-linecap="round" stroke-linejoin="round" stroke-width="1.5"/>
        </g>
      </g>
      <g id="Grupo_1207701" data-name="Grupo 1207701">
        <g id="Grupo_1207700" data-name="Grupo 1207700" clip-path="url(#clip-path-2)">
          <path id="Trazado_1051622" data-name="Trazado 1051622" d="M276.339,112.6c17.18-11.847,36.405-7.729,47.772-.19,12.375,8.208,25.172,30.029,6.045,50.185.809,4.25,4.87,7.122,8.285,7.928,1.736.41.051,2.385-5.751,2.622a21.965,21.965,0,0,1-13.739-3.738c-12.3,6.65-38.5,6.25-51.442-12.011a32.076,32.076,0,0,1,8.83-44.8" transform="translate(-54.419 -21.844)" fill="#fff"/>
          <path id="Trazado_1051623" data-name="Trazado 1051623" d="M276.339,112.6c17.18-11.847,36.405-7.729,47.772-.19,12.375,8.208,25.172,30.029,6.045,50.185.809,4.25,4.87,7.122,8.285,7.928,1.736.41.051,2.385-5.751,2.622a21.965,21.965,0,0,1-13.739-3.738c-12.3,6.65-38.5,6.25-51.442-12.011A32.076,32.076,0,0,1,276.339,112.6Z" transform="translate(-54.419 -21.844)" fill="none" stroke="#303030" stroke-linecap="round" stroke-linejoin="round" stroke-width="1.5"/>
          <path id="Trazado_1051624" data-name="Trazado 1051624" d="M321.365,141.445a14.637,14.637,0,1,1-14.637-14.637A14.636,14.636,0,0,1,321.365,141.445Z" transform="translate(-60.673 -26.341)" fill="none" stroke="#00826f" stroke-linecap="round" stroke-linejoin="round" stroke-width="1.5"/>
          <path id="Trazado_1051625" data-name="Trazado 1051625" d="M322.137,142.148a22.171,22.171,0,1,1-22.17-22.17A22.17,22.17,0,0,1,322.137,142.148Z" transform="translate(-57.704 -24.922)" fill="none" stroke="#00826f" stroke-linecap="round" stroke-linejoin="round" stroke-width="1.5"/>
          <path id="Trazado_1051626" data-name="Trazado 1051626" d="M329.414,142.148a22.171,22.171,0,1,1-22.17-22.17A22.17,22.17,0,0,1,329.414,142.148Z" transform="translate(-59.215 -24.922)" fill="none" stroke="#00826f" stroke-linecap="round" stroke-linejoin="round" stroke-width="1.5"/>
          <path id="Trazado_1051627" data-name="Trazado 1051627" d="M313.671,144.787a14.637,14.637,0,1,1-14.637-14.637A14.636,14.636,0,0,1,313.671,144.787Z" transform="translate(-59.075 -27.035)" fill="none" stroke="#00826f" stroke-linecap="round" stroke-linejoin="round" stroke-width="1.5"/>
          <path id="Trazado_1051628" data-name="Trazado 1051628" d="M323.033,149.046A14.637,14.637,0,1,1,308.4,134.409,14.636,14.636,0,0,1,323.033,149.046Z" transform="translate(-61.02 -27.919)" fill="none" stroke="#00826f" stroke-linecap="round" stroke-linejoin="round" stroke-width="1.5"/>
          <circle id="Elipse_13408" data-name="Elipse 13408" cx="9.349" cy="9.349" r="9.349" transform="translate(238.028 104.63)" fill="none" stroke="#00826f" stroke-linecap="round" stroke-linejoin="round" stroke-width="1.5"/>
          <path id="Trazado_1051629" data-name="Trazado 1051629" d="M292.624,140.222a9.349,9.349,0,1,1,7.169,16.307" transform="translate(-60.784 -28.641)" fill="none" stroke="#00826f" stroke-linecap="round" stroke-linejoin="round" stroke-width="1.5"/>
        </g>
      </g>
    </g>
  </g>
</svg>
