<svg xmlns="http://www.w3.org/2000/svg" xmlns:xlink="http://www.w3.org/1999/xlink" width="108" height="108" viewBox="0 0 108 108">
  <defs>
    <filter id="Trazado_904820" x="0" y="0" width="108" height="108" filterUnits="userSpaceOnUse">
      <feOffset dy="3" input="SourceAlpha"/>
      <feGaussianBlur stdDeviation="3" result="blur"/>
      <feFlood flood-opacity="0.161"/>
      <feComposite operator="in" in2="blur"/>
      <feComposite in="SourceGraphic"/>
    </filter>
  </defs>
  <g id="Grupo_1207742" data-name="Grupo 1207742" transform="translate(-200 -4127)">
    <g id="Grupo_1207377" data-name="Grupo 1207377" transform="translate(209 4133)">
      <g id="Grupo_1206304" data-name="Grupo 1206304" transform="translate(0 0)">
        <g id="Grupo_1201662" data-name="Grupo 1201662">
          <g id="Grupo_1173585" data-name="Grupo 1173585">
            <g id="Grupo_1173428" data-name="Grupo 1173428">
              <g id="Grupo_1171958" data-name="Grupo 1171958">
                <g id="Grupo_1167341" data-name="Grupo 1167341">
                  <g id="Grupo_1166792" data-name="Grupo 1166792">
                    <g transform="matrix(1, 0, 0, 1, -9, -6)" filter="url(#Trazado_904820)">
                      <g id="Trazado_904820-2" data-name="Trazado 904820" transform="translate(9 6)" fill="#fdfbec">
                        <path d="M 44.99999618530273 88.49999237060547 C 39.12687301635742 88.49999237060547 33.43022155761719 87.35006713867188 28.06829643249512 85.08216857910156 C 22.88852119445801 82.89130401611328 18.23629570007324 79.75457763671875 14.24084663391113 75.75914001464844 C 10.24540901184082 71.76369476318359 7.108683586120605 67.11146545410156 4.917821407318115 61.93169403076172 C 2.649921178817749 56.56976699829102 1.499996185302734 50.87311553955078 1.499996185302734 44.99999237060547 C 1.499996185302734 39.12686920166016 2.649921178817749 33.43021774291992 4.917821407318115 28.06829261779785 C 7.108683586120605 22.88851737976074 10.24540901184082 18.23630523681641 14.24084663391113 14.24085521697998 C 18.23629570007324 10.24540519714355 22.88852119445801 7.108692169189453 28.06829643249512 4.917829990386963 C 33.43022155761719 2.649929761886597 39.12687301635742 1.500004887580872 44.99999618530273 1.500004887580872 C 50.87311935424805 1.500004887580872 56.56977081298828 2.649929761886597 61.93169784545898 4.917829990386963 C 67.11147308349609 7.108692169189453 71.76369476318359 10.24540519714355 75.75914764404297 14.24085521697998 C 79.75458526611328 18.23630523681641 82.89131164550781 22.88851737976074 85.08216857910156 28.06829261779785 C 87.35007476806641 33.43021774291992 88.5 39.12686920166016 88.5 44.99999237060547 C 88.5 50.87311553955078 87.35007476806641 56.56976699829102 85.08216857910156 61.93169403076172 C 82.89131164550781 67.11146545410156 79.75458526611328 71.76369476318359 75.75914764404297 75.75914001464844 C 71.76369476318359 79.75457763671875 67.11147308349609 82.89130401611328 61.93169784545898 85.08216857910156 C 56.56977081298828 87.35006713867188 50.87311935424805 88.49999237060547 44.99999618530273 88.49999237060547 Z" stroke="none"/>
                        <path d="M 44.99999618530273 2.999992370605469 C 39.32870864868164 2.999992370605469 33.82865142822266 4.11004638671875 28.65262603759766 6.299331665039062 C 23.65165710449219 8.414566040039062 19.15968322753906 11.44333648681641 15.301513671875 15.30150604248047 C 11.44333648681641 19.15967559814453 8.414566040039062 23.65164947509766 6.299339294433594 28.65262222290039 C 4.110054016113281 33.82864761352539 2.999992370605469 39.32870483398438 2.999992370605469 44.99999237060547 C 2.999992370605469 50.67127990722656 4.110054016113281 56.17132186889648 6.299339294433594 61.34736633300781 C 8.414566040039062 66.34833526611328 11.44333648681641 70.84029388427734 15.301513671875 74.69846343994141 C 19.15968322753906 78.55663299560547 23.65165710449219 81.58540344238281 28.65262603759766 83.70063781738281 C 33.82865142822266 85.88992309570312 39.32870864868164 86.99997711181641 44.99999618530273 86.99997711181641 C 50.67128372192383 86.99997711181641 56.17134094238281 85.88992309570312 61.34736633300781 83.70063781738281 C 66.34834289550781 81.58540344238281 70.84030914306641 78.55663299560547 74.69847869873047 74.69846343994141 C 78.55665588378906 70.84029388427734 81.58542633056641 66.34833526611328 83.70065307617188 61.34736633300781 C 85.88993835449219 56.17132186889648 87 50.67127990722656 87 44.99999237060547 C 87 39.32870483398438 85.88993835449219 33.82864761352539 83.70065307617188 28.65262222290039 C 81.58542633056641 23.65164947509766 78.55665588378906 19.15967559814453 74.69847869873047 15.30150604248047 C 70.84030914306641 11.44333648681641 66.34834289550781 8.414566040039062 61.34736633300781 6.299331665039062 C 56.17134094238281 4.11004638671875 50.67128372192383 2.999992370605469 44.99999618530273 2.999992370605469 M 44.99999618530273 -7.62939453125e-06 C 69.85281372070312 -7.62939453125e-06 90 20.14717864990234 90 44.99999237060547 C 90 69.85279083251953 69.85281372070312 89.99997711181641 44.99999618530273 89.99997711181641 C 20.14717864990234 89.99997711181641 -7.62939453125e-06 69.85279083251953 -7.62939453125e-06 44.99999237060547 C -7.62939453125e-06 20.14717864990234 20.14717864990234 -7.62939453125e-06 44.99999618530273 -7.62939453125e-06 Z" stroke="none" fill="#83793c"/>
                      </g>
                    </g>
                  </g>
                </g>
              </g>
            </g>
          </g>
        </g>
      </g>
    </g>
    <g id="psychologist_12969039" transform="translate(222.131 4139.896)">
      <g id="Grupo_1207730" data-name="Grupo 1207730" transform="translate(8.265 7.5)">
        <path id="Trazado_1051743" data-name="Trazado 1051743" d="M63.053,248.988a3.611,3.611,0,0,1-3.535,4.344H36.3a3.611,3.611,0,0,1-3.535-4.344c-.265-.117-.371-.643-.609-.8s-.611.049-.819-.146a5.082,5.082,0,0,1,0-7.418c.208-.2.591-.118.829-.277s.333-.553.6-.67A3.612,3.612,0,0,1,36.3,235.33H59.518a3.612,3.612,0,0,1,3.535,4.345c.264.117.3.619.54.778s.679-.027.887.169a5.087,5.087,0,0,1-1.427,8.366Z" transform="translate(-27.384 -210.481)" fill="#b98080"/>
        <g id="Grupo_1207728" data-name="Grupo 1207728" transform="translate(0 0)">
          <g id="Grupo_1207727" data-name="Grupo 1207727">
            <path id="Trazado_1051744" data-name="Trazado 1051744" d="M124.665,401.969l-17.195-.089-1.448,9.868,2.529,1.319h5.326l1.841-.852,2.169.853h5.326l2.6-1.034Z" transform="translate(-95.36 -358.866)" fill="#c4e2ff"/>
            <path id="Trazado_1051745" data-name="Trazado 1051745" d="M20.376,401.907l-5.663,1.366a8.034,8.034,0,0,0-6.447,7.876v1.4a.545.545,0,0,0,.545.545h7.213l2.9-1.319Z" transform="translate(-8.266 -358.89)" fill="#d8ecfe"/>
            <path id="Trazado_1051746" data-name="Trazado 1051746" d="M278.1,412.764l2.835,1.035,10.065,0-2.307-1.948a8.034,8.034,0,0,0-6.447-7.876L276.95,402.7Z" transform="translate(-247.645 -359.596)" fill="#d8ecfe"/>
            <path id="Trazado_1051747" data-name="Trazado 1051747" d="M182.052,475.137l-.723-2.989-1.282-.6-1.281.6-.723,2.989Z" transform="translate(-159.526 -420.937)" fill="#fe5694"/>
            <path id="Trazado_1051748" data-name="Trazado 1051748" d="M143.873,315.643l-7.331,6.093-7.331-6.111,1.355-.259a2.236,2.236,0,0,0,1.673-2.164v-1.337l2.3-6.434h4.209l2.1,6.434V313.2a2.235,2.235,0,0,0,1.673,2.164Z" transform="translate(-116.02 -272.935)" fill="#ffcebf"/>
            <path id="Trazado_1051749" data-name="Trazado 1051749" d="M179.733,434.153l-1.047,2.054h-2.563l-1.047-2.054v-2l2.328-.942,2.646,1.41Z" transform="translate(-156.883 -384.997)" fill="#fe76a8"/>
            <path id="Trazado_1051750" data-name="Trazado 1051750" d="M165.581,305.43v6.434a10.678,10.678,0,0,1-8.605,0V305.43Z" transform="translate(-140.756 -272.935)" fill="#ffb09e"/>
            <path id="Trazado_1051751" data-name="Trazado 1051751" d="M86.882,18.677v10.63H57.705V18.677A11.162,11.162,0,0,1,72.017,7.969c.212.062.422.926.633,1a.556.556,0,0,0,.37,0c.211-.076.422-.94.634-1a10.987,10.987,0,0,1,3.215,0C82.786,7.969,86.882,12.294,86.882,18.677Z" transform="translate(-52.313 -7.506)" fill="#c59191"/>
            <path id="Trazado_1051752" data-name="Trazado 1051752" d="M218.237,18.673V29.3l-2.948-4.251s0-1.322,0-3.069c0-14.337-11.369-14.019-11.369-14.019a11.133,11.133,0,0,1,14.312,10.708Z" transform="translate(-182.585 -7.501)" fill="#b98080"/>
            <path id="Trazado_1051753" data-name="Trazado 1051753" d="M69.756,176.919H48.273a6.08,6.08,0,0,1-6.08-6.08h0a2.419,2.419,0,0,1,2.419-2.419H73.418a2.419,2.419,0,0,1,2.419,2.419h0A6.08,6.08,0,0,1,69.756,176.919Z" transform="translate(-38.493 -150.869)" fill="#ffb09e"/>
            <path id="Trazado_1051754" data-name="Trazado 1051754" d="M96.869,91.921a7.807,7.807,0,0,0,5.351-2.115l4.109-3.848a8.62,8.62,0,0,0,2.728-6.292V72.474h0a1.491,1.491,0,0,1-1.433-1.079h0a15.16,15.16,0,0,0-8.366-9.649l-2.16-.969a.545.545,0,0,0-.446,0l-2.16.969A15.16,15.16,0,0,0,86.12,71.4h0a1.49,1.49,0,0,1-1.433,1.079h0v7.192a8.62,8.62,0,0,0,2.728,6.292l4.109,3.848A7.806,7.806,0,0,0,96.869,91.921Z" transform="translate(-76.347 -54.924)" fill="#ffcebf"/>
            <path id="Trazado_1051755" data-name="Trazado 1051755" d="M205.177,403.066l-6.455,2.45-2.332-2.943h0l7.331-3.506Z" transform="translate(-175.872 -356.359)" fill="#d8ecfe"/>
            <path id="Trazado_1051756" data-name="Trazado 1051756" d="M123.521,402.422,116.19,398.9l-1.594,3.969,6.6,2.5,2.325-2.943" transform="translate(-102.999 -356.209)" fill="#d8ecfe"/>
            <path id="Trazado_1051757" data-name="Trazado 1051757" d="M66.662,401.7V390.178a1.067,1.067,0,0,0-1.315-1.038l-5.505,1.314a1.091,1.091,0,0,0-.823,1.236l.842,5.164a.218.218,0,0,0,.215.183h2.679a.218.218,0,0,1,.181.339l-1.907,2.86a.218.218,0,0,0-.033.16l.232,1.292Z" transform="translate(-53.471 -347.489)" fill="#eaf6ff"/>
            <path id="Trazado_1051758" data-name="Trazado 1051758" d="M263.636,401.846v-11.5a1.067,1.067,0,0,1,1.328-1.035l5.5,1.391a1.091,1.091,0,0,1,.809,1.236l-.87,5.249h-2.864a.218.218,0,0,0-.182.339l1.907,2.86a.218.218,0,0,1,.033.16l-.232,1.292Z" transform="translate(-235.783 -347.639)" fill="#eaf6ff"/>
          </g>
        </g>
        <g id="Grupo_1207729" data-name="Grupo 1207729" transform="translate(32.495 32.495)">
          <path id="Trazado_1051759" data-name="Trazado 1051759" d="M327.257,316.29a9.814,9.814,0,0,1-10.2,10.252c-3.554,0-6.709-1.1-8.69-3.744a10.857,10.857,0,0,1,15.2-15.2C326.2,309.581,327.257,312.736,327.257,316.29Z" transform="translate(-306.199 -305.434)" fill="#fe93bb"/>
          <path id="Trazado_1051760" data-name="Trazado 1051760" d="M341.259,325.3a10.857,10.857,0,0,1-15.2,15.2,10.856,10.856,0,1,0,15.2-15.2Z" transform="translate(-323.895 -323.13)" fill="#fe76a8"/>
        </g>
      </g>
      <g id="Grupo_1207741" data-name="Grupo 1207741" transform="translate(8.265 7.5)">
        <g id="Grupo_1207739" data-name="Grupo 1207739" transform="translate(0)">
          <g id="Grupo_1207731" data-name="Grupo 1207731" transform="translate(2.341 25.447)">
            <path id="Trazado_1051761" data-name="Trazado 1051761" d="M34.307,240.811a3.615,3.615,0,0,0-1.545,3.747,5.09,5.09,0,0,0,0,9.313,3.614,3.614,0,0,0,2.235,4.1" transform="translate(-29.727 -240.811)" fill="none" stroke="#000" stroke-linecap="round" stroke-linejoin="round" stroke-miterlimit="10" stroke-width="1.5"/>
            <path id="Trazado_1051762" data-name="Trazado 1051762" d="M58.328,276.76a3.6,3.6,0,0,1-.777-1.594" transform="translate(-54.516 -271.419)" fill="none" stroke="#000" stroke-linecap="round" stroke-linejoin="round" stroke-miterlimit="10" stroke-width="1.5"/>
            <path id="Trazado_1051763" data-name="Trazado 1051763" d="M57.537,350.354a3.589,3.589,0,0,1,.52-1.257" transform="translate(-54.504 -337.286)" fill="none" stroke="#000" stroke-linecap="round" stroke-linejoin="round" stroke-miterlimit="10" stroke-width="1.5"/>
          </g>
          <g id="Grupo_1207732" data-name="Grupo 1207732" transform="translate(34.238 25.526)">
            <path id="Trazado_1051764" data-name="Trazado 1051764" d="M322.179,241.535a3.614,3.614,0,0,1,1.43,3.668,5.093,5.093,0,0,1,3.006,4.111" transform="translate(-322.179 -241.535)" fill="none" stroke="#000" stroke-linecap="round" stroke-linejoin="round" stroke-miterlimit="10" stroke-width="1.5"/>
            <path id="Trazado_1051765" data-name="Trazado 1051765" d="M328.172,276.76a3.6,3.6,0,0,0,.777-1.594" transform="translate(-327.518 -271.498)" fill="none" stroke="#000" stroke-linecap="round" stroke-linejoin="round" stroke-miterlimit="10" stroke-width="1.5"/>
          </g>
          <g id="Grupo_1207738" data-name="Grupo 1207738">
            <g id="Grupo_1207733" data-name="Grupo 1207733" transform="translate(0 35.88)">
              <path id="Trazado_1051766" data-name="Trazado 1051766" d="M235.874,337.349v4.29a2.235,2.235,0,0,0,1.673,2.163l1.193.288" transform="translate(-211.049 -337.253)" fill="none" stroke="#000" stroke-linecap="round" stroke-linejoin="round" stroke-miterlimit="10" stroke-width="1.5"/>
              <path id="Trazado_1051767" data-name="Trazado 1051767" d="M131.175,343.293l1.141-.275a2.235,2.235,0,0,0,1.673-2.163v-4.386" transform="translate(-117.769 -336.468)" fill="none" stroke="#000" stroke-linecap="round" stroke-linejoin="round" stroke-miterlimit="10" stroke-width="1.5"/>
              <path id="Trazado_1051768" data-name="Trazado 1051768" d="M8.265,426.65v-1.941a8.036,8.036,0,0,1,5.374-7.581" transform="translate(-8.265 -408.331)" fill="none" stroke="#000" stroke-linecap="round" stroke-linejoin="round" stroke-miterlimit="10" stroke-width="1.5"/>
            </g>
            <path id="Trazado_1051769" data-name="Trazado 1051769" d="M149.6,7.558a11.1,11.1,0,0,1,4.921.613.556.556,0,0,0,.37,0,11.139,11.139,0,0,1,14.946,10.5v6.3" transform="translate(-134.189 -7.5)" fill="none" stroke="#000" stroke-linecap="round" stroke-linejoin="round" stroke-miterlimit="10" stroke-width="1.5"/>
            <path id="Trazado_1051770" data-name="Trazado 1051770" d="M57.705,34.114v-6.3a11.123,11.123,0,0,1,6.31-10.053" transform="translate(-52.313 -16.641)" fill="none" stroke="#000" stroke-linecap="round" stroke-linejoin="round" stroke-miterlimit="10" stroke-width="1.5"/>
            <path id="Trazado_1051771" data-name="Trazado 1051771" d="M308.165,168.419h2.215a2.419,2.419,0,0,1,2.419,2.419h0a6.083,6.083,0,0,1-4.544,5.884" transform="translate(-275.455 -150.868)" fill="none" stroke="#000" stroke-linecap="round" stroke-linejoin="round" stroke-miterlimit="10" stroke-width="1.5"/>
            <path id="Trazado_1051772" data-name="Trazado 1051772" d="M46.735,176.722a6.083,6.083,0,0,1-4.543-5.884h0a2.419,2.419,0,0,1,2.419-2.419h2.22" transform="translate(-38.492 -150.868)" fill="none" stroke="#000" stroke-linecap="round" stroke-linejoin="round" stroke-miterlimit="10" stroke-width="1.5"/>
            <path id="Trazado_1051773" data-name="Trazado 1051773" d="M109.06,74.073v-1.6h-.005a1.49,1.49,0,0,1-1.432-1.08,15.162,15.162,0,0,0-8.367-9.649l-2.161-.969a.54.54,0,0,0-.446,0l-2.16.969a15.162,15.162,0,0,0-8.367,9.649,1.489,1.489,0,0,1-1.433,1.08h0v7.192a8.613,8.613,0,0,0,2.376,5.942" transform="translate(-76.35 -54.922)" fill="none" stroke="#000" stroke-linecap="round" stroke-linejoin="round" stroke-miterlimit="10" stroke-width="1.5"/>
            <path id="Trazado_1051774" data-name="Trazado 1051774" d="M151.147,218.09v1.775a8.612,8.612,0,0,1-2.728,6.291L144.311,230a7.827,7.827,0,0,1-10.7,0l-1.684-1.577" transform="translate(-118.438 -195.121)" fill="none" stroke="#000" stroke-linecap="round" stroke-linejoin="round" stroke-miterlimit="10" stroke-width="1.5"/>
            <g id="Grupo_1207737" data-name="Grupo 1207737" transform="translate(13.764 15.649)">
              <g id="Grupo_1207734" data-name="Grupo 1207734">
                <path id="Trazado_1051775" data-name="Trazado 1051775" d="M183.712,237.761a3.054,3.054,0,0,0,2.773,0" transform="translate(-178.341 -228.296)" fill="none" stroke="#000" stroke-linecap="round" stroke-linejoin="round" stroke-miterlimit="10" stroke-width="1.5"/>
                <path id="Trazado_1051776" data-name="Trazado 1051776" d="M134.465,151.46a3.913,3.913,0,0,1,3.77,0" transform="translate(-134.465 -150.976)" fill="none" stroke="#000" stroke-linecap="round" stroke-linejoin="round" stroke-miterlimit="10" stroke-width="1.5"/>
                <path id="Trazado_1051777" data-name="Trazado 1051777" d="M223.813,151.46a3.913,3.913,0,0,1,3.77,0" transform="translate(-214.068 -150.976)" fill="none" stroke="#000" stroke-linecap="round" stroke-linejoin="round" stroke-miterlimit="10" stroke-width="1.5"/>
              </g>
              <g id="Grupo_1207735" data-name="Grupo 1207735" transform="translate(4.23 14.14)">
                <path id="Trazado_1051778" data-name="Trazado 1051778" d="M173.247,280.616a5.568,5.568,0,0,0,5.056,0" transform="translate(-173.247 -280.616)" fill="none" stroke="#000" stroke-linecap="round" stroke-linejoin="round" stroke-miterlimit="10" stroke-width="1.5"/>
              </g>
              <g id="Grupo_1207736" data-name="Grupo 1207736" transform="translate(1.883 3.44)">
                <line id="Línea_1147" data-name="Línea 1147" y2="1.971" transform="translate(9.749)" fill="none" stroke="#000" stroke-linecap="round" stroke-linejoin="round" stroke-miterlimit="10" stroke-width="1.5"/>
                <line id="Línea_1148" data-name="Línea 1148" y2="1.971" fill="none" stroke="#000" stroke-linecap="round" stroke-linejoin="round" stroke-miterlimit="10" stroke-width="1.5"/>
              </g>
            </g>
            <line id="Línea_1149" data-name="Línea 1149" y1="4.321" transform="translate(20.522 1.217)" fill="none" stroke="#000" stroke-linecap="round" stroke-linejoin="round" stroke-miterlimit="10" stroke-width="1.5"/>
            <path id="Trazado_1051779" data-name="Trazado 1051779" d="M66.662,401.7V390.178a1.067,1.067,0,0,0-1.315-1.038l-5.505,1.314a1.091,1.091,0,0,0-.823,1.236l.871,5.347h3.272l-2.181,3.272.248,1.379" transform="translate(-53.471 -347.488)" fill="none" stroke="#000" stroke-linecap="round" stroke-linejoin="round" stroke-miterlimit="10" stroke-width="1.5"/>
            <path id="Trazado_1051780" data-name="Trazado 1051780" d="M298.705,461.793h-2.982l2.181,3.272-.248,1.379" transform="translate(-264.37 -412.244)" fill="none" stroke="#000" stroke-linecap="round" stroke-linejoin="round" stroke-miterlimit="10" stroke-width="1.5"/>
            <path id="Trazado_1051781" data-name="Trazado 1051781" d="M263.636,401.846v-11.5a1.067,1.067,0,0,1,1.328-1.035l3.079.778" transform="translate(-235.783 -347.639)" fill="none" stroke="#000" stroke-linecap="round" stroke-linejoin="round" stroke-miterlimit="10" stroke-width="1.5"/>
            <path id="Trazado_1051782" data-name="Trazado 1051782" d="M132.789,397.43l6.94,3.509,7.331-3.706" transform="translate(-119.207 -354.725)" fill="none" stroke="#000" stroke-linecap="round" stroke-linejoin="round" stroke-miterlimit="10" stroke-width="1.5"/>
            <path id="Trazado_1051783" data-name="Trazado 1051783" d="M139.65,431.21l-2.325,2.943L132.7,432.4" transform="translate(-119.132 -384.997)" fill="none" stroke="#000" stroke-linecap="round" stroke-linejoin="round" stroke-miterlimit="10" stroke-width="1.5"/>
            <path id="Trazado_1051784" data-name="Trazado 1051784" d="M196.391,431.21l2.332,2.943,4.648-1.764" transform="translate(-175.872 -384.997)" fill="none" stroke="#000" stroke-linecap="round" stroke-linejoin="round" stroke-miterlimit="10" stroke-width="1.5"/>
            <path id="Trazado_1051785" data-name="Trazado 1051785" d="M179.733,458.2l-1.047,2.054h-2.563l-1.047-2.054" transform="translate(-156.883 -409.04)" fill="none" stroke="#000" stroke-linecap="round" stroke-linejoin="round" stroke-miterlimit="10" stroke-width="1.5"/>
            <line id="Línea_1150" data-name="Línea 1150" x1="0.723" y2="2.989" transform="translate(18.517 51.211)" fill="none" stroke="#000" stroke-linecap="round" stroke-linejoin="round" stroke-miterlimit="10" stroke-width="1.5"/>
            <line id="Línea_1151" data-name="Línea 1151" x2="0.723" y2="2.989" transform="translate(21.804 51.211)" fill="none" stroke="#000" stroke-linecap="round" stroke-linejoin="round" stroke-miterlimit="10" stroke-width="1.5"/>
          </g>
        </g>
        <g id="Grupo_1207740" data-name="Grupo 1207740" transform="translate(32.495 32.495)">
          <path id="Trazado_1051786" data-name="Trazado 1051786" d="M327.74,318.2a10.857,10.857,0,1,1,0-3.817" transform="translate(-306.195 -305.43)" fill="none" stroke="#000" stroke-linecap="round" stroke-linejoin="round" stroke-miterlimit="10" stroke-width="1.5"/>
          <line id="Línea_1152" data-name="Línea 1152" x2="4.474" transform="translate(8.619 5.942)" fill="none" stroke="#000" stroke-linecap="round" stroke-linejoin="round" stroke-miterlimit="10" stroke-width="1.5"/>
          <line id="Línea_1153" data-name="Línea 1153" x2="4.474" transform="translate(8.619 17.877)" fill="none" stroke="#000" stroke-linecap="round" stroke-linejoin="round" stroke-miterlimit="10" stroke-width="1.5"/>
          <line id="Línea_1154" data-name="Línea 1154" y1="11.297" transform="translate(10.856 6.236)" fill="none" stroke="#000" stroke-linecap="round" stroke-linejoin="round" stroke-miterlimit="10" stroke-width="1.5"/>
          <path id="Trazado_1051787" data-name="Trazado 1051787" d="M361.911,357.338h0a2.023,2.023,0,0,0-1.116,1.808v2.862a3.251,3.251,0,0,1-3.251,3.251h-3.493a3.251,3.251,0,0,1-3.251-3.251v-2.862a2.024,2.024,0,0,0-1.116-1.808h0" transform="translate(-344.942 -351.676)" fill="none" stroke="#000" stroke-linecap="round" stroke-linejoin="round" stroke-miterlimit="10" stroke-width="1.5"/>
        </g>
      </g>
    </g>
  </g>
</svg>
