<svg xmlns="http://www.w3.org/2000/svg" xmlns:xlink="http://www.w3.org/1999/xlink" width="113" height="113" viewBox="0 0 113 113">
  <defs>
    <filter id="Trazado_982547" x="0" y="0" width="113" height="113" filterUnits="userSpaceOnUse">
      <feOffset dy="3" input="SourceAlpha"/>
      <feGaussianBlur stdDeviation="3" result="blur"/>
      <feFlood flood-opacity="0.161"/>
      <feComposite operator="in" in2="blur"/>
      <feComposite in="SourceGraphic"/>
    </filter>
  </defs>
  <g id="Grupo_1207755" data-name="Grupo 1207755" transform="translate(-586.5 -4485.175)">
    <g id="Grupo_1202604" data-name="Grupo 1202604" transform="translate(315.5 3614.761)">
      <g id="Grupo_1174813" data-name="Grupo 1174813" transform="translate(280 876.414)">
        <g id="Grupo_1201680" data-name="Grupo 1201680">
          <g id="Grupo_1201330" data-name="Grupo 1201330">
            <g id="Grupo_1172010" data-name="Grupo 1172010">
              <g id="Grupo_1171046" data-name="Grupo 1171046">
                <g id="Grupo_1148525" data-name="Grupo 1148525">
                  <g transform="matrix(1, 0, 0, 1, -9, -6)" filter="url(#Trazado_982547)">
                    <g id="Trazado_982547-2" data-name="Trazado 982547" transform="translate(9 6)" fill="#edf3fc">
                      <path d="M 47.5 93.5 C 41.28937149047852 93.5 35.26533508300781 92.28397369384766 29.59518623352051 89.88570404052734 C 24.11771965026855 87.56893157958984 19.19813346862793 84.25196075439453 14.97309303283691 80.02691650390625 C 10.74804019927979 75.80186462402344 7.431066513061523 70.88229370117188 5.114293098449707 65.40481567382812 C 2.716026782989502 59.73468017578125 1.5 53.71062850952148 1.5 47.5 C 1.5 41.28937149047852 2.716026782989502 35.26533508300781 5.114293098449707 29.59518623352051 C 7.431066513061523 24.11771965026855 10.74804019927979 19.19813346862793 14.97309303283691 14.97309303283691 C 19.19813346862793 10.74804019927979 24.11771965026855 7.431066513061523 29.59518623352051 5.114293098449707 C 35.26533508300781 2.716026782989502 41.28937149047852 1.5 47.5 1.5 C 53.71062850952148 1.5 59.73468017578125 2.716026782989502 65.40481567382812 5.114293098449707 C 70.88229370117188 7.431066513061523 75.80186462402344 10.74804019927979 80.02691650390625 14.97309303283691 C 84.25196075439453 19.19813346862793 87.56893157958984 24.11771965026855 89.88570404052734 29.59518623352051 C 92.28397369384766 35.26533508300781 93.5 41.28937149047852 93.5 47.5 C 93.5 53.71062850952148 92.28397369384766 59.73468017578125 89.88570404052734 65.40481567382812 C 87.56893157958984 70.88229370117188 84.25196075439453 75.80186462402344 80.02691650390625 80.02691650390625 C 75.80186462402344 84.25196075439453 70.88229370117188 87.56893157958984 65.40481567382812 89.88570404052734 C 59.73468017578125 92.28397369384766 53.71062850952148 93.5 47.5 93.5 Z" stroke="none"/>
                      <path d="M 47.5 3 C 41.49121475219727 3 35.66376876831055 4.176155090332031 30.17950439453125 6.495796203613281 C 24.88084411621094 8.736953735351562 20.12152099609375 11.94598388671875 16.03375244140625 16.03375244140625 C 11.94598388671875 20.12152099609375 8.736953735351562 24.88084411621094 6.495796203613281 30.17950439453125 C 4.176155090332031 35.66376876831055 3 41.49121475219727 3 47.5 C 3 53.50878524780273 4.176155090332031 59.33623123168945 6.495796203613281 64.82049560546875 C 8.736953735351562 70.11915588378906 11.94598388671875 74.87847900390625 16.03375244140625 78.96624755859375 C 20.12152099609375 83.05401611328125 24.88084411621094 86.26304626464844 30.17950439453125 88.50419616699219 C 35.66376876831055 90.82384490966797 41.49121475219727 92 47.5 92 C 53.50878524780273 92 59.33623123168945 90.82384490966797 64.82049560546875 88.50419616699219 C 70.11915588378906 86.26304626464844 74.87847900390625 83.05401611328125 78.96624755859375 78.96624755859375 C 83.05401611328125 74.87847900390625 86.26304626464844 70.11915588378906 88.50419616699219 64.82049560546875 C 90.82384490966797 59.33623123168945 92 53.50878524780273 92 47.5 C 92 41.49121475219727 90.82384490966797 35.66376876831055 88.50419616699219 30.17950439453125 C 86.26304626464844 24.88084411621094 83.05401611328125 20.12152099609375 78.96624755859375 16.03375244140625 C 74.87847900390625 11.94598388671875 70.11915588378906 8.736953735351562 64.82049560546875 6.495796203613281 C 59.33623123168945 4.176155090332031 53.50878524780273 3 47.5 3 M 47.5 0 C 73.7335205078125 0 95 21.2664794921875 95 47.5 C 95 73.7335205078125 73.7335205078125 95 47.5 95 C 21.2664794921875 95 0 73.7335205078125 0 47.5 C 0 21.2664794921875 21.2664794921875 0 47.5 0 Z" stroke="none" fill="#5692e8"/>
                    </g>
                  </g>
                </g>
              </g>
            </g>
          </g>
        </g>
      </g>
    </g>
    <g id="Layer_x0020_1" transform="translate(597.356 4496.956)">
      <g id="Grupo_1207754" data-name="Grupo 1207754" transform="translate(14 12)">
        <path id="Trazado_1051847" data-name="Trazado 1051847" d="M49.394,37.556A1.094,1.094,0,0,1,48.3,36.463v-.6a1.093,1.093,0,0,1,2.186,0v.6A1.094,1.094,0,0,1,49.394,37.556ZM48.3,49.731H42.949a9.83,9.83,0,0,1-2.978-.452l-.942,3.694,6.6,6.709,6.6-6.709-.942-3.694A9.653,9.653,0,0,1,48.3,49.731ZM37.973,48.374A12.042,12.042,0,0,1,32.244,37.9c0-7.953,2.676-8.858,6.446-9.273a8.53,8.53,0,0,0,4.372-1.395c2.9-2.186,5.541-3.958,8.783-3.845,2.789.075,7.2,1.47,7.2,4.825V37.9a12.124,12.124,0,0,1-5.729,10.479l.98,3.807h4.636a9.78,9.78,0,0,1,3.769.792V31.261a17.056,17.056,0,1,0-34.113,0V52.973a9.78,9.78,0,0,1,3.769-.792h4.636Zm13.57-22.842c-2.45,0-4.6,1.508-7.2,3.43a10.417,10.417,0,0,1-5.428,1.809c-2.789.339-4.486.528-4.486,7.124a9.748,9.748,0,0,0,5.164,8.858.824.824,0,0,1,.188.113,8.078,8.078,0,0,0,3.166.678H48.3a7.634,7.634,0,0,0,3.2-.678c.038-.038.113-.075.151-.113a9.709,9.709,0,0,0,5.2-8.858V28.208c0-1.621-3.317-2.6-5.089-2.676Zm9.122,49.906H22.858L22.82,75.4H22.67a1.087,1.087,0,0,1-.829-1.055V63.791A11.907,11.907,0,0,1,26.4,54.254V31.261a19.243,19.243,0,1,1,38.485,0V54.254a11.907,11.907,0,0,1,4.561,9.536V74.42a1.126,1.126,0,0,1-.829.98h-.151l-.038.038H60.665ZM31.716,73.252H59.571V65.864a1.094,1.094,0,0,1,1.093-1.093,1.062,1.062,0,0,1,1.055,1.093v1.47h5.541V63.791A9.854,9.854,0,0,0,63.3,55.762l-.226-.113a7.288,7.288,0,0,0-4.146-1.282H53.917l-7.5,7.652a1.116,1.116,0,0,1-1.545,0l-7.5-7.652H32.357a7.288,7.288,0,0,0-4.146,1.282l-.226.113a9.854,9.854,0,0,0-3.958,8.029v3.543h5.5v-1.47a1.093,1.093,0,1,1,2.186,0v7.388Zm37.731,1.093v0ZM61.72,73.252h5.541V69.52H61.72Zm-37.693,0h5.5V69.52h-5.5Zm15.718-8.745H34.958a1.093,1.093,0,1,1,0-2.186h4.787a1.093,1.093,0,0,1,0,2.186Zm31.1-39.654a6.427,6.427,0,1,1,6.446-6.446A6.459,6.459,0,0,1,70.842,24.853Zm0-10.667A4.241,4.241,0,1,0,75.1,18.408,4.239,4.239,0,0,0,70.842,14.186ZM17.43,57.308a1.094,1.094,0,0,1-1.093-1.093V54.971H15.093a1.093,1.093,0,1,1,0-2.186h1.244V51.578a1.093,1.093,0,0,1,2.186,0v1.206h1.206a1.093,1.093,0,1,1,0,2.186H18.523v1.244A1.094,1.094,0,0,1,17.43,57.308Zm1.734-11.346A5.164,5.164,0,1,1,24.328,40.8,5.172,5.172,0,0,1,19.164,45.962Zm0-8.142a2.978,2.978,0,1,0,0,5.956,2.978,2.978,0,1,0,0-5.956Zm1.319-11.911a1.094,1.094,0,0,1-1.093-1.093V23.61H18.146a1.093,1.093,0,1,1,0-2.186H19.39V20.179a1.093,1.093,0,1,1,2.186,0v1.244h1.206a1.093,1.093,0,1,1,0,2.186H21.576v1.206A1.094,1.094,0,0,1,20.483,25.909ZM71.219,43.926a1.094,1.094,0,0,1-1.093-1.093V41.627H68.882a1.093,1.093,0,0,1,0-2.186h1.244V38.2a1.093,1.093,0,1,1,2.186,0v1.244h1.244a1.093,1.093,0,0,1,0,2.186H72.312v1.206A1.094,1.094,0,0,1,71.219,43.926Zm-21.448.716H41.479a1.094,1.094,0,0,1-1.093-1.093,5.239,5.239,0,0,1,10.479,0A1.094,1.094,0,0,1,49.771,44.643ZM42.8,42.456H48.49a3.089,3.089,0,0,0-2.865-1.96A3.038,3.038,0,0,0,42.8,42.456Zm8.443-7.916H51.09A5.373,5.373,0,0,1,48,32.92a1.1,1.1,0,1,1,1.7-1.395,3.151,3.151,0,0,0,1.7.829,1.127,1.127,0,0,1,.942,1.244A1.161,1.161,0,0,1,51.241,34.541Zm-11.195,0a1.1,1.1,0,0,1-.188-2.186,3.16,3.16,0,0,0,1.734-.829,1.075,1.075,0,0,1,1.508-.151,1.058,1.058,0,0,1,.151,1.545A4.946,4.946,0,0,1,40.2,34.5.227.227,0,0,1,40.046,34.541Zm1.847,3.015A1.094,1.094,0,0,1,40.8,36.463v-.6a1.093,1.093,0,0,1,2.186,0v.6A1.094,1.094,0,0,1,41.893,37.556Z" transform="translate(-14 -12)" fill-rule="evenodd"/>
      </g>
      <path id="Trazado_1051848" data-name="Trazado 1051848" d="M77.956,699.978a2.978,2.978,0,1,0-2.978,2.978A2.984,2.984,0,0,0,77.956,699.978Z" transform="translate(-55.814 -659.18)" fill="#ffa721" fill-rule="evenodd"/>
      <path id="Trazado_1051849" data-name="Trazado 1051849" d="M401,87.075v21.711a9.78,9.78,0,0,1,3.769-.792h4.636l.98-3.807a12.042,12.042,0,0,1-5.729-10.479c0-7.953,2.676-8.858,6.446-9.273a8.53,8.53,0,0,0,4.372-1.395c2.9-2.186,5.541-3.958,8.783-3.845,2.789.075,7.2,1.47,7.2,4.825v9.687a12.124,12.124,0,0,1-5.729,10.479l.98,3.807h4.636a9.78,9.78,0,0,1,3.769.792V87.075a17.056,17.056,0,1,0-34.113,0Z" transform="translate(-372.413 -55.814)" fill="#633" fill-rule="evenodd"/>
      <path id="Trazado_1051850" data-name="Trazado 1051850" d="M564.82,378.388a4.946,4.946,0,0,1-3.053,1.583.227.227,0,0,1-.151.038,1.1,1.1,0,0,1-.188-2.186,3.16,3.16,0,0,0,1.734-.829,1.075,1.075,0,0,1,1.508-.151A1.058,1.058,0,0,1,564.82,378.388Zm-4.335-2.149c-2.789.339-4.485.528-4.485,7.124a9.748,9.748,0,0,0,5.164,8.858.821.821,0,0,1,.188.113,8.079,8.079,0,0,0,3.166.678h5.352a7.635,7.635,0,0,0,3.2-.678c.038-.038.113-.075.151-.113a9.709,9.709,0,0,0,5.2-8.858v-9.687c0-1.621-3.317-2.6-5.089-2.676h-.226c-2.45,0-4.6,1.508-7.2,3.43A10.416,10.416,0,0,1,560.485,376.239Zm10.479,6.785a1.094,1.094,0,0,1-1.093-1.093v-.6a1.093,1.093,0,1,1,2.186,0v.6A1.094,1.094,0,0,1,570.964,383.024Zm-3.769.754a5.252,5.252,0,0,1,5.239,5.239,1.094,1.094,0,0,1-1.093,1.093h-8.293a1.094,1.094,0,0,1-1.093-1.093A5.277,5.277,0,0,1,567.195,383.778Zm5.466-3.769a5.373,5.373,0,0,1-3.091-1.621,1.1,1.1,0,0,1,1.7-1.395,3.151,3.151,0,0,0,1.7.829,1.127,1.127,0,0,1,.942,1.244,1.161,1.161,0,0,1-1.093.942Zm-9.2.226a1.094,1.094,0,0,1,1.093,1.093v.6a1.093,1.093,0,0,1-2.186,0v-.6A1.094,1.094,0,0,1,563.463,380.235Z" transform="translate(-521.57 -345.468)" fill="#ffc06d" fill-rule="evenodd"/>
      <path id="Trazado_1051851" data-name="Trazado 1051851" d="M780.827,768A3.038,3.038,0,0,0,778,769.96h5.692A3.089,3.089,0,0,0,780.827,768Z" transform="translate(-735.202 -727.504)" fill="#ff3e1a" fill-rule="evenodd"/>
      <path id="Trazado_1051852" data-name="Trazado 1051852" d="M687.273,1001.452H681.92a9.83,9.83,0,0,1-2.978-.452l-.942,3.694,6.6,6.709,6.6-6.709L690.25,1001A9.654,9.654,0,0,1,687.273,1001.452Z" transform="translate(-638.971 -951.721)" fill="#ffc06d" fill-rule="evenodd"/>
      <path id="Trazado_1051853" data-name="Trazado 1051853" d="M309.891,1136l-7.5,7.652a1.115,1.115,0,0,1-1.545,0l-7.5-7.652H288.33a7.289,7.289,0,0,0-4.146,1.282l-.226.113a9.853,9.853,0,0,0-3.958,8.029v3.543h5.5v-1.47a1.093,1.093,0,1,1,2.186,0v7.388h27.855V1147.5a1.094,1.094,0,0,1,1.093-1.093,1.062,1.062,0,0,1,1.055,1.093v1.47h5.541v-3.543a9.853,9.853,0,0,0-3.958-8.029l-.226-.113A7.289,7.289,0,0,0,314.9,1136Zm-13.08,9.046a1.094,1.094,0,0,1-1.093,1.093h-4.787a1.093,1.093,0,1,1,0-2.186h4.787A1.094,1.094,0,0,1,296.811,1145.046Z" transform="translate(-255.974 -1081.632)" fill="#7ed63f" fill-rule="evenodd"/>
      <path id="Trazado_1051854" data-name="Trazado 1051854" d="M1285.541,1538H1280v3.732h5.541Z" transform="translate(-1218.28 -1468.48)" fill="#ffc06d" fill-rule="evenodd"/>
      <path id="Trazado_1051855" data-name="Trazado 1051855" d="M285.5,1541.732V1538H280v3.732Z" transform="translate(-255.974 -1468.48)" fill="#ffc06d" fill-rule="evenodd"/>
      <path id="Trazado_1051856" data-name="Trazado 1051856" d="M1410,74.222A4.241,4.241,0,1,0,1414.222,70,4.271,4.271,0,0,0,1410,74.222Z" transform="translate(-1343.38 -55.814)" fill="#ffa721" fill-rule="evenodd"/>
    </g>
  </g>
</svg>
