<svg xmlns="http://www.w3.org/2000/svg" xmlns:xlink="http://www.w3.org/1999/xlink" width="113" height="113" viewBox="0 0 113 113">
  <defs>
    <filter id="Trazado_982547" x="0" y="0" width="113" height="113" filterUnits="userSpaceOnUse">
      <feOffset dy="3" input="SourceAlpha"/>
      <feGaussianBlur stdDeviation="3" result="blur"/>
      <feFlood flood-opacity="0.161"/>
      <feComposite operator="in" in2="blur"/>
      <feComposite in="SourceGraphic"/>
    </filter>
  </defs>
  <g id="Grupo_1207758" data-name="Grupo 1207758" transform="translate(-902 -4485.175)">
    <g id="Grupo_1202605" data-name="Grupo 1202605" transform="translate(631 3614.761)">
      <g id="Grupo_1174813" data-name="Grupo 1174813" transform="translate(280 876.414)">
        <g id="Grupo_1201680" data-name="Grupo 1201680">
          <g id="Grupo_1201330" data-name="Grupo 1201330">
            <g id="Grupo_1172010" data-name="Grupo 1172010">
              <g id="Grupo_1171046" data-name="Grupo 1171046">
                <g id="Grupo_1148525" data-name="Grupo 1148525">
                  <g transform="matrix(1, 0, 0, 1, -9, -6)" filter="url(#Trazado_982547)">
                    <g id="Trazado_982547-2" data-name="Trazado 982547" transform="translate(9 6)" fill="#edf3fc">
                      <path d="M 47.5 93.5 C 41.28937149047852 93.5 35.26533508300781 92.28397369384766 29.59518623352051 89.88570404052734 C 24.11771965026855 87.56893157958984 19.19813346862793 84.25196075439453 14.97309303283691 80.02691650390625 C 10.74804019927979 75.80186462402344 7.431066513061523 70.88229370117188 5.114293098449707 65.40481567382812 C 2.716026782989502 59.73468017578125 1.5 53.71062850952148 1.5 47.5 C 1.5 41.28937149047852 2.716026782989502 35.26533508300781 5.114293098449707 29.59518623352051 C 7.431066513061523 24.11771965026855 10.74804019927979 19.19813346862793 14.97309303283691 14.97309303283691 C 19.19813346862793 10.74804019927979 24.11771965026855 7.431066513061523 29.59518623352051 5.114293098449707 C 35.26533508300781 2.716026782989502 41.28937149047852 1.5 47.5 1.5 C 53.71062850952148 1.5 59.73468017578125 2.716026782989502 65.40481567382812 5.114293098449707 C 70.88229370117188 7.431066513061523 75.80186462402344 10.74804019927979 80.02691650390625 14.97309303283691 C 84.25196075439453 19.19813346862793 87.56893157958984 24.11771965026855 89.88570404052734 29.59518623352051 C 92.28397369384766 35.26533508300781 93.5 41.28937149047852 93.5 47.5 C 93.5 53.71062850952148 92.28397369384766 59.73468017578125 89.88570404052734 65.40481567382812 C 87.56893157958984 70.88229370117188 84.25196075439453 75.80186462402344 80.02691650390625 80.02691650390625 C 75.80186462402344 84.25196075439453 70.88229370117188 87.56893157958984 65.40481567382812 89.88570404052734 C 59.73468017578125 92.28397369384766 53.71062850952148 93.5 47.5 93.5 Z" stroke="none"/>
                      <path d="M 47.5 3 C 41.49121475219727 3 35.66376876831055 4.176155090332031 30.17950439453125 6.495796203613281 C 24.88084411621094 8.736953735351562 20.12152099609375 11.94598388671875 16.03375244140625 16.03375244140625 C 11.94598388671875 20.12152099609375 8.736953735351562 24.88084411621094 6.495796203613281 30.17950439453125 C 4.176155090332031 35.66376876831055 3 41.49121475219727 3 47.5 C 3 53.50878524780273 4.176155090332031 59.33623123168945 6.495796203613281 64.82049560546875 C 8.736953735351562 70.11915588378906 11.94598388671875 74.87847900390625 16.03375244140625 78.96624755859375 C 20.12152099609375 83.05401611328125 24.88084411621094 86.26304626464844 30.17950439453125 88.50419616699219 C 35.66376876831055 90.82384490966797 41.49121475219727 92 47.5 92 C 53.50878524780273 92 59.33623123168945 90.82384490966797 64.82049560546875 88.50419616699219 C 70.11915588378906 86.26304626464844 74.87847900390625 83.05401611328125 78.96624755859375 78.96624755859375 C 83.05401611328125 74.87847900390625 86.26304626464844 70.11915588378906 88.50419616699219 64.82049560546875 C 90.82384490966797 59.33623123168945 92 53.50878524780273 92 47.5 C 92 41.49121475219727 90.82384490966797 35.66376876831055 88.50419616699219 30.17950439453125 C 86.26304626464844 24.88084411621094 83.05401611328125 20.12152099609375 78.96624755859375 16.03375244140625 C 74.87847900390625 11.94598388671875 70.11915588378906 8.736953735351562 64.82049560546875 6.495796203613281 C 59.33623123168945 4.176155090332031 53.50878524780273 3 47.5 3 M 47.5 0 C 73.7335205078125 0 95 21.2664794921875 95 47.5 C 95 73.7335205078125 73.7335205078125 95 47.5 95 C 21.2664794921875 95 0 73.7335205078125 0 47.5 C 0 21.2664794921875 21.2664794921875 0 47.5 0 Z" stroke="none" fill="#5692e8"/>
                    </g>
                  </g>
                </g>
              </g>
            </g>
          </g>
        </g>
      </g>
    </g>
    <g id="allergy_6725286" transform="translate(920.055 4501.389)">
      <g id="Grupo_1207756" data-name="Grupo 1207756" transform="translate(7.694 7.524)">
        <rect id="Rectángulo_418410" data-name="Rectángulo 418410" width="6.861" height="10.242" transform="translate(4.646 32.704)" fill="#ffe177"/>
        <rect id="Rectángulo_418411" data-name="Rectángulo 418411" width="2.722" height="10.241" transform="translate(4.645 32.704)" fill="#ffd15b"/>
        <path id="Trazado_1051857" data-name="Trazado 1051857" d="M25.675,365.05H11.224a1.826,1.826,0,0,1-1.473-.934,20.524,20.524,0,0,1,.475-18.827.029.029,0,0,1,.023-.014h16.4a.029.029,0,0,1,.023.014,20.525,20.525,0,0,1,.475,18.827A1.826,1.826,0,0,1,25.675,365.05Z" transform="translate(-7.695 -303.501)" fill="#ffe177"/>
        <path id="Trazado_1051858" data-name="Trazado 1051858" d="M14.318,365.051H11.224a1.828,1.828,0,0,1-1.474-.934,20.527,20.527,0,0,1,.475-18.826.029.029,0,0,1,.024-.015h3.094a.029.029,0,0,0-.024.015,20.527,20.527,0,0,0-.475,18.826A1.828,1.828,0,0,0,14.318,365.051Z" transform="translate(-7.695 -303.502)" fill="#ffd15b"/>
        <path id="Trazado_1051859" data-name="Trazado 1051859" d="M13.1,335.365H31.968a.742.742,0,0,1,.742.742v2.105a.742.742,0,0,1-.742.742H13.1a.742.742,0,0,1-.742-.742v-2.105A.742.742,0,0,1,13.1,335.365Z" transform="translate(-11.777 -294.818)" fill="#f2fbff"/>
        <path id="Trazado_1051860" data-name="Trazado 1051860" d="M16.191,338.955H13.1a.742.742,0,0,1-.742-.742v-2.1a.743.743,0,0,1,.742-.742h3.094a.743.743,0,0,0-.742.742v2.1A.742.742,0,0,0,16.191,338.955Z" transform="translate(-11.778 -294.818)" fill="#dff6fd"/>
        <path id="Trazado_1051861" data-name="Trazado 1051861" d="M110.077,217.494l-15.135,5.17-1-2.928,15.135-5.17a1.547,1.547,0,0,1,1.964.964h0A1.547,1.547,0,0,1,110.077,217.494Z" transform="translate(-83.269 -188.894)" fill="#bc7c63"/>
        <path id="Trazado_1051862" data-name="Trazado 1051862" d="M40.129,266.36h0a1.547,1.547,0,0,1-1.964-.964l-.915-2.68a1.547,1.547,0,0,1,.964-1.964h0a1.547,1.547,0,0,1,1.964.964l.915,2.68A1.547,1.547,0,0,1,40.129,266.36Z" transform="translate(-33.52 -229.365)" fill="#aa6a51"/>
        <path id="Trazado_1051863" data-name="Trazado 1051863" d="M61.984,253h0a1.547,1.547,0,0,1-1.964-.964l-1.508-4.416a1.547,1.547,0,0,1,.964-1.964h0a1.547,1.547,0,0,1,1.964.964l1.508,4.416A1.547,1.547,0,0,1,61.984,253Z" transform="translate(-52.151 -216.137)" fill="#bc7c63"/>
        <path id="Trazado_1051864" data-name="Trazado 1051864" d="M87.445,250.2h0a1.547,1.547,0,0,1-1.964-.964l-.915-2.68a1.547,1.547,0,0,1,.964-1.964h0a1.547,1.547,0,0,1,1.964.964l.915,2.68A1.547,1.547,0,0,1,87.445,250.2Z" transform="translate(-74.981 -215.204)" fill="#aa6a51"/>
        <path id="Trazado_1051865" data-name="Trazado 1051865" d="M19.938,7.695A12.243,12.243,0,1,0,32.181,19.938,12.244,12.244,0,0,0,19.938,7.695ZM12.432,23.132a8.155,8.155,0,0,1,10.7-10.7.74.74,0,0,1,.223,1.2l-9.72,9.72A.74.74,0,0,1,12.432,23.132Zm15.645-2.6a8.157,8.157,0,0,1-11.332,6.91.741.741,0,0,1-.223-1.2l9.72-9.72a.741.741,0,0,1,1.2.223A8.136,8.136,0,0,1,28.077,20.536Z" transform="translate(-7.695 -7.695)" fill="#f8a5af"/>
        <path id="Trazado_1051866" data-name="Trazado 1051866" d="M283.713,24.208V8.96A.841.841,0,0,0,282.5,8.2c-4.375,2.247-14.71-4.029-20.7,2.749a.816.816,0,0,0-.192.412,3,3,0,0,1-2.292,2.549.837.837,0,0,0-.593.8v9.493Z" transform="translate(-227.661 -7.695)" fill="#bc7c63"/>
        <path id="Trazado_1051867" data-name="Trazado 1051867" d="M271.879,7.792a9.47,9.47,0,0,0-6.325,3.162.814.814,0,0,0-.192.412,3,3,0,0,1-2.292,2.549.838.838,0,0,0-.594.8V24.21h-3.753V14.717a.836.836,0,0,1,.593-.8,3,3,0,0,0,2.292-2.549.815.815,0,0,1,.193-.412C264.571,7.819,268.27,7.477,271.879,7.792Z" transform="translate(-227.661 -7.698)" fill="#aa6a51"/>
        <path id="Trazado_1051868" data-name="Trazado 1051868" d="M280.891,123.973H261.547a2.823,2.823,0,0,1-2.823-2.823h0a2.823,2.823,0,0,1,2.823-2.823h19.344a2.823,2.823,0,0,1,2.823,2.823h0A2.823,2.823,0,0,1,280.891,123.973Z" transform="translate(-227.661 -104.638)" fill="#fed2a4"/>
        <path id="Trazado_1051869" data-name="Trazado 1051869" d="M244.4,203.642l-7-1.544a1.261,1.261,0,0,1-.989-1.231v-5.775a1.219,1.219,0,0,0-1.219-1.219h-5.118a1.219,1.219,0,0,0-1.219,1.219v5.775a1.26,1.26,0,0,1-.989,1.231l-7,1.544a7.878,7.878,0,0,0-6.18,7.693v10.232a1.47,1.47,0,0,0,1.47,1.47H249.11a1.47,1.47,0,0,0,1.47-1.47V211.334A7.877,7.877,0,0,0,244.4,203.642Z" transform="translate(-189.08 -170.835)" fill="#97da7b"/>
        <path id="Trazado_1051870" data-name="Trazado 1051870" d="M326.452,202.251l-4.312,4.218a1.576,1.576,0,0,1-2.194.009l-4.392-4.222.7-.153a1.26,1.26,0,0,0,.989-1.231V195.1a1.218,1.218,0,0,1,1.219-1.218h5.118a1.218,1.218,0,0,1,1.219,1.218v5.775a1.26,1.26,0,0,0,.989,1.231Z" transform="translate(-277.458 -170.839)" fill="#ffe5c2"/>
        <path id="Trazado_1051871" data-name="Trazado 1051871" d="M320.084,198.3v-4.423h-1.627a1.219,1.219,0,0,0-1.219,1.219v5.774a1.26,1.26,0,0,1-.989,1.231l-.7.153,1.683,1.619,1.859-.411a1.26,1.26,0,0,0,.989-1.231v-.507a.123.123,0,0,1,.135-.123c.263.023.529.036.8.036a9.047,9.047,0,0,0,3.778-.819v-2.823C323.644,198.522,320.391,198.3,320.084,198.3Z" transform="translate(-277.458 -170.838)" fill="#fed2a4"/>
        <path id="Trazado_1051872" data-name="Trazado 1051872" d="M297.9,84.548a1.282,1.282,0,0,0-1.693.293,7.475,7.475,0,0,1-8.344,2.409,1.362,1.362,0,0,0-1.8,1.293V94.2a9.112,9.112,0,0,0,9.112,9.112h0a9.112,9.112,0,0,0,9.112-9.112V86.766a1.25,1.25,0,0,0-1.467-1.225A7.035,7.035,0,0,1,297.9,84.548Z" transform="translate(-251.612 -74.864)" fill="#fff3de"/>
        <path id="Trazado_1051873" data-name="Trazado 1051873" d="M296.716,123.175a9.118,9.118,0,0,1-10.659-8.981v-5.656a1.362,1.362,0,0,1,1.8-1.292,7.367,7.367,0,0,0,1.64.376,1.363,1.363,0,0,0-.35.916v5.656A9.114,9.114,0,0,0,296.716,123.175Z" transform="translate(-251.611 -94.859)" fill="#ffe5c2"/>
        <path id="Trazado_1051874" data-name="Trazado 1051874" d="M228.858,263.2l-5.138,1.134a7.876,7.876,0,0,0-6.18,7.692v8.856a1.485,1.485,0,0,0,1.485,1.485h-2.861a1.47,1.47,0,0,1-1.47-1.47V270.661a7.876,7.876,0,0,1,6.18-7.692l6.3-1.391Z" transform="translate(-189.079 -230.162)" fill="#80d261"/>
        <path id="Trazado_1051875" data-name="Trazado 1051875" d="M343.14,178.376h0a2.338,2.338,0,0,1,2.338,2.338v.013a.99.99,0,0,1-.99.99h-2.7a.99.99,0,0,1-.99-.99v-.013A2.338,2.338,0,0,1,343.14,178.376Z" transform="translate(-299.582 -157.255)" fill="#f8a5af"/>
        <path id="Trazado_1051876" data-name="Trazado 1051876" d="M11.16,19.938A12.244,12.244,0,0,1,21.671,7.818a12.243,12.243,0,1,0,0,24.241A12.243,12.243,0,0,1,11.16,19.938Z" transform="translate(-7.695 -7.695)" fill="#f58a97"/>
      </g>
      <g id="Grupo_1207757" data-name="Grupo 1207757" transform="translate(7.694 7.5)">
        <line id="Línea_1158" data-name="Línea 1158" y1="5.538" transform="translate(11.507 35.01)" fill="none" stroke="#000" stroke-linecap="round" stroke-linejoin="round" stroke-miterlimit="10" stroke-width="1.2"/>
        <line id="Línea_1159" data-name="Línea 1159" y1="4.515" transform="translate(4.645 36.032)" fill="none" stroke="#000" stroke-linecap="round" stroke-linejoin="round" stroke-miterlimit="10" stroke-width="1.2"/>
        <path id="Trazado_1051877" data-name="Trazado 1051877" d="M390.225,230.78v2.4a1.259,1.259,0,0,0,.989,1.23l7,1.544a7.877,7.877,0,0,1,6.18,7.692v10.232a1.471,1.471,0,0,1-1.47,1.471H390.95" transform="translate(-342.889 -203.15)" fill="none" stroke="#000" stroke-linecap="round" stroke-linejoin="round" stroke-miterlimit="10" stroke-width="1.2"/>
        <path id="Trazado_1051878" data-name="Trazado 1051878" d="M228.86,230.78v2.4a1.259,1.259,0,0,1-.989,1.23l-7,1.544a7.877,7.877,0,0,0-6.18,7.692v10.232a1.471,1.471,0,0,0,1.47,1.471H232.81" transform="translate(-189.08 -203.15)" fill="none" stroke="#000" stroke-linecap="round" stroke-linejoin="round" stroke-miterlimit="10" stroke-width="1.2"/>
        <line id="Línea_1160" data-name="Línea 1160" y1="11.655" transform="translate(33.292 40.547)" fill="none" stroke="#000" stroke-linecap="round" stroke-linejoin="round" stroke-miterlimit="10" stroke-width="1.2"/>
        <line id="Línea_1161" data-name="Línea 1161" y2="11.655" transform="translate(53.824 40.547)" fill="none" stroke="#000" stroke-linecap="round" stroke-linejoin="round" stroke-miterlimit="10" stroke-width="1.2"/>
        <path id="Trazado_1051879" data-name="Trazado 1051879" d="M297.9,84.353a1.282,1.282,0,0,0-1.693.293,7.475,7.475,0,0,1-8.344,2.409,1.362,1.362,0,0,0-1.8,1.293V94a9.112,9.112,0,0,0,9.112,9.112h0A9.112,9.112,0,0,0,304.282,94V86.571a1.25,1.25,0,0,0-1.467-1.225A7.035,7.035,0,0,1,297.9,84.353Z" transform="translate(-251.612 -74.669)" fill="none" stroke="#000" stroke-linecap="round" stroke-linejoin="round" stroke-miterlimit="10" stroke-width="1.2"/>
        <path id="Trazado_1051880" data-name="Trazado 1051880" d="M315.549,261.349l4.393,4.222a1.576,1.576,0,0,0,2.194-.009l4.312-4.218" transform="translate(-277.454 -229.932)" fill="none" stroke="#000" stroke-linecap="round" stroke-linejoin="round" stroke-miterlimit="10" stroke-width="1.2"/>
        <path id="Trazado_1051881" data-name="Trazado 1051881" d="M258.724,24.013V14.519a.837.837,0,0,1,.593-.8,3,3,0,0,0,2.292-2.549.816.816,0,0,1,.192-.412c5.989-6.778,16.323-.5,20.7-2.749a.841.841,0,0,1,1.213.758V24.012" transform="translate(-227.661 -7.5)" fill="none" stroke="#000" stroke-linecap="round" stroke-linejoin="round" stroke-miterlimit="10" stroke-width="1.2"/>
        <path id="Trazado_1051882" data-name="Trazado 1051882" d="M262.106,123.778h-.56a2.823,2.823,0,0,1-2.823-2.823h0a2.823,2.823,0,0,1,2.823-2.823h.56" transform="translate(-227.661 -104.443)" fill="none" stroke="#000" stroke-linecap="round" stroke-linejoin="round" stroke-miterlimit="10" stroke-width="1.2"/>
        <path id="Trazado_1051883" data-name="Trazado 1051883" d="M433.332,123.778h.56a2.823,2.823,0,0,0,2.823-2.823h0a2.823,2.823,0,0,0-2.823-2.823h-.56" transform="translate(-380.662 -104.443)" fill="none" stroke="#000" stroke-linecap="round" stroke-linejoin="round" stroke-miterlimit="10" stroke-width="1.2"/>
        <path id="Trazado_1051884" data-name="Trazado 1051884" d="M9.122,364.18a20.53,20.53,0,0,0,.627,16.478,1.828,1.828,0,0,0,1.474.934H25.674a1.824,1.824,0,0,0,1.473-.934,20.516,20.516,0,0,0,2.031-7.93" transform="translate(-7.694 -320.043)" fill="none" stroke="#000" stroke-linecap="round" stroke-linejoin="round" stroke-miterlimit="10" stroke-width="1.2"/>
        <path id="Trazado_1051885" data-name="Trazado 1051885" d="M171.134,368.4a20.455,20.455,0,0,0-1.159-4.217" transform="translate(-149.894 -320.043)" fill="none" stroke="#000" stroke-linecap="round" stroke-linejoin="round" stroke-miterlimit="10" stroke-width="1.2"/>
        <path id="Trazado_1051886" data-name="Trazado 1051886" d="M13.1,335.17H31.968a.742.742,0,0,1,.742.742v2.105a.742.742,0,0,1-.742.742H13.1a.742.742,0,0,1-.742-.742v-2.105A.742.742,0,0,1,13.1,335.17Z" transform="translate(-11.777 -294.623)" fill="none" stroke="#000" stroke-linecap="round" stroke-linejoin="round" stroke-miterlimit="10" stroke-width="1.2"/>
        <path id="Trazado_1051887" data-name="Trazado 1051887" d="M52.42,424.618l1.692,1.692a.469.469,0,0,0,.453.122l2.574-.69.76-2.836-2.076-2.076-2.574.69a.47.47,0,0,0-.332.332l-.619,2.312A.469.469,0,0,0,52.42,424.618Z" transform="translate(-46.765 -369.684)" fill="none" stroke="#000" stroke-linecap="round" stroke-linejoin="round" stroke-miterlimit="10" stroke-width="1.2"/>
        <path id="Trazado_1051888" data-name="Trazado 1051888" d="M80.9,395.756l2.076,2.076,2.836-.76.69-2.574a.469.469,0,0,0-.122-.453l-1.692-1.692a.469.469,0,0,0-.453-.122l-2.312.619a.469.469,0,0,0-.332.332Z" transform="translate(-71.841 -344.609)" fill="none" stroke="#000" stroke-linecap="round" stroke-linejoin="round" stroke-miterlimit="10" stroke-width="1.2"/>
        <path id="Trazado_1051889" data-name="Trazado 1051889" d="M91.535,435.061l1.884,1.884a.469.469,0,0,0,.453.122l2.312-.619a.47.47,0,0,0,.332-.332l.619-2.312a.469.469,0,0,0-.122-.453l-1.884-1.884-2.836.76Z" transform="translate(-81.16 -379.003)" fill="none" stroke="#000" stroke-linecap="round" stroke-linejoin="round" stroke-miterlimit="10" stroke-width="1.2"/>
        <path id="Trazado_1051890" data-name="Trazado 1051890" d="M109.426,221.855l13.342-4.557a1.547,1.547,0,0,0-1-2.928l-13.343,4.557" transform="translate(-95.96 -188.698)" fill="none" stroke="#000" stroke-linecap="round" stroke-linejoin="round" stroke-miterlimit="10" stroke-width="1.2"/>
        <path id="Trazado_1051891" data-name="Trazado 1051891" d="M40.13,266.165h0a1.547,1.547,0,0,1-1.964-.964l-.915-2.68a1.547,1.547,0,0,1,.964-1.964h0a1.547,1.547,0,0,1,1.964.964l.915,2.68A1.547,1.547,0,0,1,40.13,266.165Z" transform="translate(-33.521 -229.17)" fill="none" stroke="#000" stroke-linecap="round" stroke-linejoin="round" stroke-miterlimit="10" stroke-width="1.2"/>
        <path id="Trazado_1051892" data-name="Trazado 1051892" d="M61.985,252.805h0a1.547,1.547,0,0,1-1.964-.964l-1.508-4.416a1.547,1.547,0,0,1,.964-1.964h0a1.547,1.547,0,0,1,1.964.964l1.508,4.416A1.547,1.547,0,0,1,61.985,252.805Z" transform="translate(-52.152 -215.942)" fill="none" stroke="#000" stroke-linecap="round" stroke-linejoin="round" stroke-miterlimit="10" stroke-width="1.2"/>
        <path id="Trazado_1051893" data-name="Trazado 1051893" d="M87.446,250h0a1.547,1.547,0,0,1-1.964-.964l-.915-2.68a1.547,1.547,0,0,1,.964-1.964h0a1.547,1.547,0,0,1,1.964.964l.915,2.68A1.547,1.547,0,0,1,87.446,250Z" transform="translate(-74.982 -215.009)" fill="none" stroke="#000" stroke-linecap="round" stroke-linejoin="round" stroke-miterlimit="10" stroke-width="1.2"/>
        <circle id="Elipse_13413" data-name="Elipse 13413" cx="12.243" cy="12.243" r="12.243" transform="translate(0 0)" fill="none" stroke="#000" stroke-linecap="round" stroke-linejoin="round" stroke-miterlimit="10" stroke-width="1.2"/>
        <path id="Trazado_1051894" data-name="Trazado 1051894" d="M52.049,41.153a8.156,8.156,0,0,0-10.7,10.7.74.74,0,0,0,1.2.222l9.72-9.72A.74.74,0,0,0,52.049,41.153Z" transform="translate(-36.612 -36.417)" fill="none" stroke="#000" stroke-linecap="round" stroke-linejoin="round" stroke-miterlimit="10" stroke-width="1.2"/>
        <path id="Trazado_1051895" data-name="Trazado 1051895" d="M87.2,77.285l-9.72,9.72a.74.74,0,0,0,.222,1.2,8.156,8.156,0,0,0,10.7-10.7A.74.74,0,0,0,87.2,77.285Z" transform="translate(-68.653 -68.458)" fill="none" stroke="#000" stroke-linecap="round" stroke-linejoin="round" stroke-miterlimit="10" stroke-width="1.2"/>
        <path id="Trazado_1051896" data-name="Trazado 1051896" d="M343.14,178.181h0a2.338,2.338,0,0,1,2.338,2.338v.013a.99.99,0,0,1-.99.99h-2.7a.99.99,0,0,1-.99-.99v-.013A2.338,2.338,0,0,1,343.14,178.181Z" transform="translate(-299.582 -157.06)" fill="none" stroke="#000" stroke-linecap="round" stroke-linejoin="round" stroke-miterlimit="10" stroke-width="1.2"/>
        <path id="Trazado_1051897" data-name="Trazado 1051897" d="M384.063,137.893l-1.652.954a.248.248,0,0,0,0,.429l1.652.954" transform="translate(-335.934 -121.758)" fill="none" stroke="#000" stroke-linecap="round" stroke-linejoin="round" stroke-miterlimit="10" stroke-width="1.2"/>
        <path id="Trazado_1051898" data-name="Trazado 1051898" d="M322.756,137.893l1.652.954a.247.247,0,0,1,0,.429l-1.652.954" transform="translate(-283.769 -121.758)" fill="none" stroke="#000" stroke-linecap="round" stroke-linejoin="round" stroke-miterlimit="10" stroke-width="1.2"/>
      </g>
    </g>
  </g>
</svg>
