<svg xmlns="http://www.w3.org/2000/svg" xmlns:xlink="http://www.w3.org/1999/xlink" width="113" height="113" viewBox="0 0 113 113">
  <defs>
    <filter id="Trazado_982547" x="0" y="0" width="113" height="113" filterUnits="userSpaceOnUse">
      <feOffset dy="3" input="SourceAlpha"/>
      <feGaussianBlur stdDeviation="3" result="blur"/>
      <feFlood flood-opacity="0.161"/>
      <feComposite operator="in" in2="blur"/>
      <feComposite in="SourceGraphic"/>
    </filter>
  </defs>
  <g id="Grupo_1207759" data-name="Grupo 1207759" transform="translate(-1217 -4485.175)">
    <g id="Grupo_1202606" data-name="Grupo 1202606" transform="translate(946 3614.761)">
      <g id="Grupo_1174813" data-name="Grupo 1174813" transform="translate(280 876.414)">
        <g id="Grupo_1201680" data-name="Grupo 1201680">
          <g id="Grupo_1201330" data-name="Grupo 1201330">
            <g id="Grupo_1172010" data-name="Grupo 1172010">
              <g id="Grupo_1171046" data-name="Grupo 1171046">
                <g id="Grupo_1148525" data-name="Grupo 1148525">
                  <g transform="matrix(1, 0, 0, 1, -9, -6)" filter="url(#Trazado_982547)">
                    <g id="Trazado_982547-2" data-name="Trazado 982547" transform="translate(9 6)" fill="#edf3fc">
                      <path d="M 47.5 93.5 C 41.28937149047852 93.5 35.26533508300781 92.28397369384766 29.59518623352051 89.88570404052734 C 24.11771965026855 87.56893157958984 19.19813346862793 84.25196075439453 14.97309303283691 80.02691650390625 C 10.74804019927979 75.80186462402344 7.431066513061523 70.88229370117188 5.114293098449707 65.40481567382812 C 2.716026782989502 59.73468017578125 1.5 53.71062850952148 1.5 47.5 C 1.5 41.28937149047852 2.716026782989502 35.26533508300781 5.114293098449707 29.59518623352051 C 7.431066513061523 24.11771965026855 10.74804019927979 19.19813346862793 14.97309303283691 14.97309303283691 C 19.19813346862793 10.74804019927979 24.11771965026855 7.431066513061523 29.59518623352051 5.114293098449707 C 35.26533508300781 2.716026782989502 41.28937149047852 1.5 47.5 1.5 C 53.71062850952148 1.5 59.73468017578125 2.716026782989502 65.40481567382812 5.114293098449707 C 70.88229370117188 7.431066513061523 75.80186462402344 10.74804019927979 80.02691650390625 14.97309303283691 C 84.25196075439453 19.19813346862793 87.56893157958984 24.11771965026855 89.88570404052734 29.59518623352051 C 92.28397369384766 35.26533508300781 93.5 41.28937149047852 93.5 47.5 C 93.5 53.71062850952148 92.28397369384766 59.73468017578125 89.88570404052734 65.40481567382812 C 87.56893157958984 70.88229370117188 84.25196075439453 75.80186462402344 80.02691650390625 80.02691650390625 C 75.80186462402344 84.25196075439453 70.88229370117188 87.56893157958984 65.40481567382812 89.88570404052734 C 59.73468017578125 92.28397369384766 53.71062850952148 93.5 47.5 93.5 Z" stroke="none"/>
                      <path d="M 47.5 3 C 41.49121475219727 3 35.66376876831055 4.176155090332031 30.17950439453125 6.495796203613281 C 24.88084411621094 8.736953735351562 20.12152099609375 11.94598388671875 16.03375244140625 16.03375244140625 C 11.94598388671875 20.12152099609375 8.736953735351562 24.88084411621094 6.495796203613281 30.17950439453125 C 4.176155090332031 35.66376876831055 3 41.49121475219727 3 47.5 C 3 53.50878524780273 4.176155090332031 59.33623123168945 6.495796203613281 64.82049560546875 C 8.736953735351562 70.11915588378906 11.94598388671875 74.87847900390625 16.03375244140625 78.96624755859375 C 20.12152099609375 83.05401611328125 24.88084411621094 86.26304626464844 30.17950439453125 88.50419616699219 C 35.66376876831055 90.82384490966797 41.49121475219727 92 47.5 92 C 53.50878524780273 92 59.33623123168945 90.82384490966797 64.82049560546875 88.50419616699219 C 70.11915588378906 86.26304626464844 74.87847900390625 83.05401611328125 78.96624755859375 78.96624755859375 C 83.05401611328125 74.87847900390625 86.26304626464844 70.11915588378906 88.50419616699219 64.82049560546875 C 90.82384490966797 59.33623123168945 92 53.50878524780273 92 47.5 C 92 41.49121475219727 90.82384490966797 35.66376876831055 88.50419616699219 30.17950439453125 C 86.26304626464844 24.88084411621094 83.05401611328125 20.12152099609375 78.96624755859375 16.03375244140625 C 74.87847900390625 11.94598388671875 70.11915588378906 8.736953735351562 64.82049560546875 6.495796203613281 C 59.33623123168945 4.176155090332031 53.50878524780273 3 47.5 3 M 47.5 0 C 73.7335205078125 0 95 21.2664794921875 95 47.5 C 95 73.7335205078125 73.7335205078125 95 47.5 95 C 21.2664794921875 95 0 73.7335205078125 0 47.5 C 0 21.2664794921875 21.2664794921875 0 47.5 0 Z" stroke="none" fill="#5692e8"/>
                    </g>
                  </g>
                </g>
              </g>
            </g>
          </g>
        </g>
      </g>
    </g>
    <g id="Layer_51" data-name="Layer 51" transform="translate(1239.494 4504.784)">
      <path id="Trazado_1051899" data-name="Trazado 1051899" d="M54.375,62.892h-4.7l-1.615-.686c-3.944.442-10.337.686-14.868.686s-10.86-.244-14.8-.686l-.834.686H12.01a.78.78,0,0,1-.728-1.058l3.326-8.689a23.1,23.1,0,0,0,.8-2.784,5.887,5.887,0,0,1,5.712-4.482h4.737a2.613,2.613,0,0,0,2.613-2.613V38.89h9.452v4.376a2.613,2.613,0,0,0,2.613,2.613h4.737a5.887,5.887,0,0,1,5.712,4.482,23.1,23.1,0,0,0,.8,2.784l3.327,8.69a.779.779,0,0,1-.727,1.057Z" transform="translate(0.218 2.319)" fill="#fbc390"/>
      <path id="Trazado_1051900" data-name="Trazado 1051900" d="M17.154,25c1.511,2.618,1.046,5.716-1.039,6.92s-5,.057-6.512-2.56-1.046-5.716,1.039-6.92,5-.057,6.512,2.56Zm32.388,0c-1.511,2.618-1.046,5.716,1.039,6.92s5,.057,6.512-2.56,1.046-5.716-1.039-6.92-5-.057-6.512,2.56Z" transform="translate(0.062 1.269)" fill="#fba16f"/>
      <path id="Trazado_1051901" data-name="Trazado 1051901" d="M51.5,25.1v2.721a15.983,15.983,0,0,1-14.677,16q-1.883.14-3.842.142t-3.821-.141a15.981,15.981,0,0,1-14.676-16V25.093A12.985,12.985,0,0,1,25.471,12.232a51.063,51.063,0,0,1,15.04,0A12.986,12.986,0,0,1,51.5,25.1Z" transform="translate(0.419 0.631)" fill="#fbc390"/>
      <path id="Trazado_1051902" data-name="Trazado 1051902" d="M32.272,30.108a14.155,14.155,0,0,1,3.968.559,3.244,3.244,0,0,1-1.878,6.21,7.934,7.934,0,0,0-4.174,0,3.269,3.269,0,0,1-3.4-1h0a3.239,3.239,0,0,1,1.517-5.212A14.153,14.153,0,0,1,32.272,30.108Z" transform="translate(1.135 1.774)" fill="#f47d67"/>
      <path id="Trazado_1051903" data-name="Trazado 1051903" d="M47.558,61.635a111.133,111.133,0,0,1-14.784.935,113.411,113.411,0,0,1-14.8-.935,12.416,12.416,0,0,0,2.007-6.786V45.593a1.211,1.211,0,0,1,1.042-1.2L23.1,44.1a1.2,1.2,0,0,1,1.372,1.053,2.653,2.653,0,0,0,.065.4,8.477,8.477,0,0,0,16.483,0,2.349,2.349,0,0,0,.059-.386,1.2,1.2,0,0,1,1.374-1.07l2.051.29a1.211,1.211,0,0,1,1.041,1.2v9.257a12.338,12.338,0,0,0,2.018,6.786Z" transform="translate(0.636 2.641)" fill="#f8869d"/>
      <path id="Trazado_1051904" data-name="Trazado 1051904" d="M37.469,12.5l-3.16,2.484a6.535,6.535,0,0,1-6.77.338c-2.507-1.955-2.19-6.71-2.19-6.71,0-2.62.7-3.339,2.291-5.417l.53-.69,2.2,5.685a4.866,4.866,0,0,0,4.291,4.017Z" transform="translate(1.093 0.062)" fill="#7a4e4d"/>
      <path id="Trazado_1051905" data-name="Trazado 1051905" d="M33.988,8.576a9.158,9.158,0,0,1,.136,2.459,1.216,1.216,0,0,1-1.373,1.056l-3.5-.459a4.937,4.937,0,0,0-3.071.6l-3.089,1.745a1.219,1.219,0,0,1-1.688-.522,8.9,8.9,0,0,1-.771-2.272A9.183,9.183,0,0,1,20.5,8.711a1.216,1.216,0,0,1,1.373-1.056l3.508.458a4.937,4.937,0,0,0,3.071-.6l3.08-1.742a1.219,1.219,0,0,1,1.688.521,8.916,8.916,0,0,1,.773,2.282Z" transform="translate(0.791 0.255)" fill="#f8869d"/>
      <path id="Trazado_1051906" data-name="Trazado 1051906" d="M9.91,5.982a2.875,2.875,0,0,1,4.761,1.124l1.3,3.888a.826.826,0,0,1-1.045,1.045l-3.888-1.3A2.875,2.875,0,0,1,9.91,5.982ZM51.982,7.106l-1.3,3.888a.826.826,0,0,0,1.045,1.045l3.888-1.3a2.875,2.875,0,1,0-3.637-3.637Z" transform="translate(0.084 0.225)" fill="#62c1d3"/>
      <path id="Trazado_1051907" data-name="Trazado 1051907" d="M56.646,22.787a4.965,4.965,0,0,0-4.069-.33A14.116,14.116,0,0,0,41.088,11.816q-1.139-.174-2.315-.3c-.017,0-.031.005-.048,0s-.036-.012-.056-.014l-2.7-.28a10.193,10.193,0,0,0-.151-2.594l0-.013a10,10,0,0,0-.867-2.553,2.309,2.309,0,0,0-1.384-1.164,2.245,2.245,0,0,0-1.775.2l-.342.193L30.25,2.19a1.061,1.061,0,0,0-.839-.669,1.05,1.05,0,0,0-.994.406L27.59,3a8.172,8.172,0,0,0-2.115,4.205L22.8,6.857a2.3,2.3,0,0,0-1.719.47,2.239,2.239,0,0,0-.854,1.55,10.237,10.237,0,0,0,.155,2.766,10.128,10.128,0,0,0,.565,1.829,14.151,14.151,0,0,0-6.714,8.987,4.986,4.986,0,0,0-4.061.329c-2.588,1.493-3.229,5.249-1.427,8.371a6.731,6.731,0,0,0,5.6,3.571,4.918,4.918,0,0,0,.672-.053A17.053,17.053,0,0,0,27.62,45.245v.34a1.553,1.553,0,0,1-1.551,1.551h-.046a2.226,2.226,0,0,0-.713-.984,2.317,2.317,0,0,0-1.728-.464l-2.077.294a2.277,2.277,0,0,0-1.763,1.357,6.9,6.9,0,0,0-5.152,5.089l-.051.211a20.258,20.258,0,0,1-.705,2.448l-3.326,8.687a1.841,1.841,0,0,0,1.72,2.5h5.543a1.059,1.059,0,0,0,.674-.242l.491-.4c4.241.442,10.409.644,14.474.644,4.278,0,10.636-.227,14.709-.662l1.36.578a1.07,1.07,0,0,0,.415.084h4.7a1.841,1.841,0,0,0,1.719-2.5l-3.327-8.689a20.478,20.478,0,0,1-.709-2.464l-.047-.194a6.9,6.9,0,0,0-5.187-5.1,2.28,2.28,0,0,0-1.757-1.35l-2.05-.289a2.3,2.3,0,0,0-1.736.47,2.225,2.225,0,0,0-.7.975h-.045A1.553,1.553,0,0,1,39.2,45.585v-.341A17.06,17.06,0,0,0,51.8,34.676a4.912,4.912,0,0,0,.677.055,6.722,6.722,0,0,0,5.594-3.573,7.276,7.276,0,0,0,.959-4.68,4.978,4.978,0,0,0-2.387-3.691ZM34.753,13.161a6.032,6.032,0,0,0,.886.171l.206.021-1.031.813a5.463,5.463,0,0,1-5.586.343A3.824,3.824,0,0,1,28.213,13.1,3.87,3.87,0,0,1,29.9,12.94l3.5.459a2.289,2.289,0,0,0,1.354-.238Zm-5.8-8.444.633,1.636-.869.491a3.869,3.869,0,0,1-1.107.411,5.6,5.6,0,0,1,1.344-2.538ZM22.391,9a.169.169,0,0,1,.1-.036h.024l3.509.458a5.992,5.992,0,0,0,3.732-.727l3.08-1.741a.139.139,0,0,1,.113-.012.167.167,0,0,1,.1.088,7.855,7.855,0,0,1,.679,2,6.885,6.885,0,0,1,.073,2.226.163.163,0,0,1-.13.035l-3.5-.459a6.023,6.023,0,0,0-3.732.725L23.359,13.3a.147.147,0,0,1-.115.013.172.172,0,0,1-.1-.09,7.777,7.777,0,0,1-.674-1.987A6.763,6.763,0,0,1,22.391,9ZM10.584,30.1c-1.217-2.107-.925-4.56.649-5.469a2.936,2.936,0,0,1,2.653-.019c-.03.37-.048.741-.048,1.115v2.725a17.079,17.079,0,0,0,.525,4.139,4.644,4.644,0,0,1-3.78-2.491ZM12.637,64.15l3.179-8.3a22,22,0,0,0,.786-2.7l.051-.207a4.861,4.861,0,0,1,2.9-3.315V57.49A11.392,11.392,0,0,1,17.713,63.7c-.055.085-.325.45-.325.45ZM50.163,52.933l.048.192A22.231,22.231,0,0,0,51,55.844l3.18,8.305H50.107l-1.019-.433c0-.006,0-.014-.008-.02a11.314,11.314,0,0,1-1.844-6.206V49.606a4.856,4.856,0,0,1,2.927,3.327Zm-7.35-5.107a.142.142,0,0,1,.121-.032l2.049.289a.149.149,0,0,1,.129.15V57.49A13.425,13.425,0,0,0,46.6,63.623c-3.963.346-9.4.526-13.187.526s-9.245-.183-13.209-.534a13.5,13.5,0,0,0,1.474-6.126V48.235a.148.148,0,0,1,.128-.15l2.077-.294c.066-.008.1.018.168.109a3.628,3.628,0,0,0,.088.545,9.538,9.538,0,0,0,18.538.04c.038-.138.073-.34.141-.659ZM40.181,49.2a7.408,7.408,0,0,1-13.55,0,3.67,3.67,0,0,0,3.113-3.618v-.067c1.2.084,2.426.13,3.653.13s2.461-.047,3.676-.132v.068A3.67,3.67,0,0,0,40.181,49.2Zm-3.021-5.817a50.915,50.915,0,0,1-7.5,0A14.954,14.954,0,0,1,15.963,28.448V25.724a12.013,12.013,0,0,1,6.281-10.535,2.256,2.256,0,0,0,.383.161,2.284,2.284,0,0,0,.664.1,2.257,2.257,0,0,0,1.113-.3l1.918-1.083a5.81,5.81,0,0,0,1.654,2.157.965.965,0,0,0,.1.069,7.536,7.536,0,0,0,3.667.939,7.712,7.712,0,0,0,4.312-1.348l2.815-2.212c.64.071,1.276.148,1.9.242A12,12,0,0,1,50.855,25.727v2.72A14.958,14.958,0,0,1,37.161,43.385ZM56.234,30.1a4.629,4.629,0,0,1-3.781,2.492,17.07,17.07,0,0,0,.526-4.141v-2.72c0-.375-.022-.746-.051-1.116a2.965,2.965,0,0,1,2.656.016,2.9,2.9,0,0,1,1.349,2.167,5.152,5.152,0,0,1-.7,3.3ZM37.672,31.423a15.5,15.5,0,0,0-8.528,0,4.245,4.245,0,0,0-2.88,2.877,4.307,4.307,0,0,0,.856,4.045,4.353,4.353,0,0,0,4.493,1.329,6.915,6.915,0,0,1,3.592,0,4.41,4.41,0,0,0,1.21.169A4.3,4.3,0,0,0,40.552,34.3a4.249,4.249,0,0,0-2.88-2.873Zm.416,5.537a2.218,2.218,0,0,1-2.3.67,9.04,9.04,0,0,0-4.754,0A2.185,2.185,0,0,1,28.3,34.9a2.1,2.1,0,0,1,1.441-1.444,13.278,13.278,0,0,1,7.335,0A2.1,2.1,0,0,1,38.516,34.9a2.19,2.19,0,0,1-.428,2.056Zm-9.1-10.24-3.641,2a1.062,1.062,0,0,1-1.025-1.861l1.336-.735-1.518-.41a1.062,1.062,0,1,1,.554-2.051l4.059,1.1a1.062,1.062,0,0,1,.235,1.956Zm14.434-2.3a1.063,1.063,0,0,1-.749,1.3l-1.518.41,1.336.735a1.062,1.062,0,0,1-1.025,1.861l-3.64-2a1.062,1.062,0,0,1,.235-1.956l4.058-1.1a1.067,1.067,0,0,1,1.3.749ZM37.133,58.379a.4.4,0,0,1-.281.489,13.079,13.079,0,0,1-2.153.391l-.038,0a.4.4,0,0,1-.038-.794,12.387,12.387,0,0,0,2.022-.368.4.4,0,0,1,.488.281ZM39.49,56.93a12.562,12.562,0,0,0,1.7-1.16.4.4,0,1,1,.5.618,13.329,13.329,0,0,1-1.807,1.234.4.4,0,1,1-.394-.693Zm-12.608.217a.4.4,0,0,1-.336.185.393.393,0,0,1-.214-.062,13.006,13.006,0,0,1-1.741-1.325.4.4,0,1,1,.535-.591A12.107,12.107,0,0,0,26.76,56.6a.4.4,0,0,1,.122.55Zm4.995,1.692a.4.4,0,0,1-.394.339.378.378,0,0,1-.059,0,13.291,13.291,0,0,1-2.128-.5.4.4,0,1,1,.247-.757,12.434,12.434,0,0,0,2,.473.4.4,0,0,1,.335.453ZM9.417,13.9a1.062,1.062,0,1,1-1.062,1.062A1.062,1.062,0,0,1,9.417,13.9Zm1.364-1.929,3.887,1.3a1.887,1.887,0,0,0,2.389-2.387l-1.3-3.888a3.937,3.937,0,1,0-4.979,4.98Zm-.037-5.017a1.779,1.779,0,0,1,1.267-.534,1.879,1.879,0,0,1,.431.052,1.777,1.777,0,0,1,1.3,1.191l1.147,3.44-3.44-1.146a1.814,1.814,0,0,1-.709-3Zm40.8,6.411a1.922,1.922,0,0,0,.6-.1l3.888-1.3a3.937,3.937,0,1,0-4.981-4.98l-1.294,3.888a1.888,1.888,0,0,0,1.786,2.486Zm1.524-5.7a1.777,1.777,0,0,1,1.3-1.191,1.879,1.879,0,0,1,.431-.052,1.814,1.814,0,0,1,.559,3.536l-3.44,1.147ZM45.272,4.3a1.06,1.06,0,1,1,.311.751,1.062,1.062,0,0,1-.311-.751ZM58.229,14.616a1.059,1.059,0,1,1-.752.31,1.062,1.062,0,0,1,.752-.31ZM44.482,10.658l.354-2.566a1.05,1.05,0,0,1,1.2-.906,1.061,1.061,0,0,1,.906,1.2l-.354,2.566a1.061,1.061,0,0,1-1.051.917,1.012,1.012,0,0,1-.146-.01,1.061,1.061,0,0,1-.907-1.2ZM15.308,17.591a1.061,1.061,0,0,1-1.4.551l-1.786-.777a1.062,1.062,0,1,1,.846-1.948l1.786.777a1.061,1.061,0,0,1,.551,1.4Zm40.868-1.135a1.063,1.063,0,0,1-.739,1.308l-2.76.766a1.085,1.085,0,0,1-.285.038,1.062,1.062,0,0,1-.283-2.086l2.76-.766a1.066,1.066,0,0,1,1.308.739Z" fill="#0b2230"/>
    </g>
  </g>
</svg>
