<svg xmlns="http://www.w3.org/2000/svg" xmlns:xlink="http://www.w3.org/1999/xlink" width="108" height="108" viewBox="0 0 108 108">
  <defs>
    <filter id="Trazado_904820" x="0" y="0" width="108" height="108" filterUnits="userSpaceOnUse">
      <feOffset dy="3" input="SourceAlpha"/>
      <feGaussianBlur stdDeviation="3" result="blur"/>
      <feFlood flood-opacity="0.161"/>
      <feComposite operator="in" in2="blur"/>
      <feComposite in="SourceGraphic"/>
    </filter>
  </defs>
  <g id="Grupo_1207711" data-name="Grupo 1207711" transform="translate(-623.478 -323)">
    <g id="Grupo_1207078" data-name="Grupo 1207078" transform="translate(632.478 329)">
      <g id="Grupo_1206304" data-name="Grupo 1206304" transform="translate(0 0)">
        <g id="Grupo_1201662" data-name="Grupo 1201662">
          <g id="Grupo_1173585" data-name="Grupo 1173585">
            <g id="Grupo_1173428" data-name="Grupo 1173428">
              <g id="Grupo_1171958" data-name="Grupo 1171958">
                <g id="Grupo_1167341" data-name="Grupo 1167341">
                  <g id="Grupo_1166792" data-name="Grupo 1166792">
                    <g transform="matrix(1, 0, 0, 1, -9, -6)" filter="url(#Trazado_904820)">
                      <g id="Trazado_904820-2" data-name="Trazado 904820" transform="translate(9 6)" fill="#effbfe">
                        <path d="M 44.99999618530273 88.49999237060547 C 39.12687301635742 88.49999237060547 33.43022155761719 87.35006713867188 28.06829643249512 85.08216857910156 C 22.88852119445801 82.89130401611328 18.23629570007324 79.75457763671875 14.24084663391113 75.75914001464844 C 10.24540901184082 71.76369476318359 7.108683586120605 67.11146545410156 4.917821407318115 61.93169403076172 C 2.649921178817749 56.56976699829102 1.499996185302734 50.87311553955078 1.499996185302734 44.99999237060547 C 1.499996185302734 39.12686920166016 2.649921178817749 33.43021774291992 4.917821407318115 28.06829261779785 C 7.108683586120605 22.88851737976074 10.24540901184082 18.23630523681641 14.24084663391113 14.24085521697998 C 18.23629570007324 10.24540519714355 22.88852119445801 7.108692169189453 28.06829643249512 4.917829990386963 C 33.43022155761719 2.649929761886597 39.12687301635742 1.500004887580872 44.99999618530273 1.500004887580872 C 50.87311935424805 1.500004887580872 56.56977081298828 2.649929761886597 61.93169784545898 4.917829990386963 C 67.11147308349609 7.108692169189453 71.76369476318359 10.24540519714355 75.75914764404297 14.24085521697998 C 79.75458526611328 18.23630523681641 82.89131164550781 22.88851737976074 85.08216857910156 28.06829261779785 C 87.35007476806641 33.43021774291992 88.5 39.12686920166016 88.5 44.99999237060547 C 88.5 50.87311553955078 87.35007476806641 56.56976699829102 85.08216857910156 61.93169403076172 C 82.89131164550781 67.11146545410156 79.75458526611328 71.76369476318359 75.75914764404297 75.75914001464844 C 71.76369476318359 79.75457763671875 67.11147308349609 82.89130401611328 61.93169784545898 85.08216857910156 C 56.56977081298828 87.35006713867188 50.87311935424805 88.49999237060547 44.99999618530273 88.49999237060547 Z" stroke="none"/>
                        <path d="M 44.99999618530273 2.999992370605469 C 39.32870864868164 2.999992370605469 33.82865142822266 4.11004638671875 28.65262603759766 6.299331665039062 C 23.65165710449219 8.414566040039062 19.15968322753906 11.44333648681641 15.301513671875 15.30150604248047 C 11.44333648681641 19.15967559814453 8.414566040039062 23.65164947509766 6.299339294433594 28.65262222290039 C 4.110054016113281 33.82864761352539 2.999992370605469 39.32870483398438 2.999992370605469 44.99999237060547 C 2.999992370605469 50.67127990722656 4.110054016113281 56.17132186889648 6.299339294433594 61.34736633300781 C 8.414566040039062 66.34833526611328 11.44333648681641 70.84029388427734 15.301513671875 74.69846343994141 C 19.15968322753906 78.55663299560547 23.65165710449219 81.58540344238281 28.65262603759766 83.70063781738281 C 33.82865142822266 85.88992309570312 39.32870864868164 86.99997711181641 44.99999618530273 86.99997711181641 C 50.67128372192383 86.99997711181641 56.17134094238281 85.88992309570312 61.34736633300781 83.70063781738281 C 66.34834289550781 81.58540344238281 70.84030914306641 78.55663299560547 74.69847869873047 74.69846343994141 C 78.55665588378906 70.84029388427734 81.58542633056641 66.34833526611328 83.70065307617188 61.34736633300781 C 85.88993835449219 56.17132186889648 87 50.67127990722656 87 44.99999237060547 C 87 39.32870483398438 85.88993835449219 33.82864761352539 83.70065307617188 28.65262222290039 C 81.58542633056641 23.65164947509766 78.55665588378906 19.15967559814453 74.69847869873047 15.30150604248047 C 70.84030914306641 11.44333648681641 66.34834289550781 8.414566040039062 61.34736633300781 6.299331665039062 C 56.17134094238281 4.11004638671875 50.67128372192383 2.999992370605469 44.99999618530273 2.999992370605469 M 44.99999618530273 -7.62939453125e-06 C 69.85281372070312 -7.62939453125e-06 90 20.14717864990234 90 44.99999237060547 C 90 69.85279083251953 69.85281372070312 89.99997711181641 44.99999618530273 89.99997711181641 C 20.14717864990234 89.99997711181641 -7.62939453125e-06 69.85279083251953 -7.62939453125e-06 44.99999237060547 C -7.62939453125e-06 20.14717864990234 20.14717864990234 -7.62939453125e-06 44.99999618530273 -7.62939453125e-06 Z" stroke="none" fill="#497f88"/>
                      </g>
                    </g>
                  </g>
                </g>
              </g>
            </g>
          </g>
        </g>
      </g>
    </g>
    <g id="headmaster_3561373" transform="translate(645.869 340.993)">
      <path id="Trazado_1051654" data-name="Trazado 1051654" d="M26.783,54.327a15.965,15.965,0,0,0,4.38,2.083v5.814H5V51.566a12.121,12.121,0,0,1,8.275-11.482L19.535,38S18.808,48.891,26.783,54.327Z" transform="translate(-0.031 -1.179)" fill="#717e93"/>
      <path id="Trazado_1051655" data-name="Trazado 1051655" d="M43.721,38s.727,10.891-7.248,16.327L35,47.69l1.938-4.845Z" transform="translate(-0.962 -1.179)" fill="#e0d0c1"/>
      <path id="Trazado_1051656" data-name="Trazado 1051656" d="M20,38l6.783,4.845L28.72,47.69l-1.473,6.637C19.273,48.891,20,38,20,38Z" transform="translate(-0.496 -1.179)" fill="#e0d0c1"/>
      <path id="Trazado_1051657" data-name="Trazado 1051657" d="M34.767,48l1.473,6.637a15.965,15.965,0,0,1-4.38,2.083,15.965,15.965,0,0,1-4.38-2.083L28.953,48Z" transform="translate(-0.728 -1.489)" fill="#ce3d3a"/>
      <path id="Trazado_1051658" data-name="Trazado 1051658" d="M36.69,42.907l-1.938,4.845H28.938L27,42.907,31.845,40Z" transform="translate(-0.714 -1.241)" fill="#e54c38"/>
      <path id="Trazado_1051659" data-name="Trazado 1051659" d="M24.845,32.49l6.783,7.277-4.845,2.907L20,37.829Z" transform="translate(-0.496 -1.008)" fill="#ede5dd"/>
      <path id="Trazado_1051660" data-name="Trazado 1051660" d="M38.566,32.49l-6.783,7.277L25,32.49a10.674,10.674,0,0,0,13.566,0Z" transform="translate(-0.652 -1.008)" fill="#e09b8d"/>
      <path id="Trazado_1051661" data-name="Trazado 1051661" d="M38.783,32.49l4.845,5.339-6.783,4.845L32,39.767Z" transform="translate(-0.869 -1.008)" fill="#ede5dd"/>
      <path id="Trazado_1051662" data-name="Trazado 1051662" d="M50.411,62.224H32V56.411a15.965,15.965,0,0,0,4.38-2.083C44.354,48.891,43.628,38,43.628,38l6.26,2.083a12.112,12.112,0,0,1,8.275,11.482V62.224Z" transform="translate(-0.869 -1.179)" fill="#53647c"/>
      <path id="Trazado_1051663" data-name="Trazado 1051663" d="M41.726,6.15a7.861,7.861,0,0,1,5.1,9.37c-.979-.465-2.335.155-3.169.649C36.872,9.386,41.726,6.15,41.726,6.15Z" transform="translate(-1.118 -0.191)" fill="#736357"/>
      <path id="Trazado_1051664" data-name="Trazado 1051664" d="M46.915,15.815a1.82,1.82,0,0,1,.93,1.143C48.862,19.894,45.907,24.71,43,24.71l.746-8.246C44.579,15.97,45.936,15.35,46.915,15.815Z" transform="translate(-1.21 -0.486)" fill="#e09b8d"/>
      <path id="Trazado_1051665" data-name="Trazado 1051665" d="M31.783,23.873c3.876-1.938,3.876,1.938,6.783,1.938,0,0-2.907,4.467-6.783,2.529C27.907,30.278,25,25.811,25,25.811,27.907,25.811,27.907,21.935,31.783,23.873Z" transform="translate(-0.652 -0.724)" fill="#998675"/>
      <path id="Trazado_1051666" data-name="Trazado 1051666" d="M16.924,15.815c.979-.465,2.335.155,3.169.649l.746,8.246c-2.907,0-5.862-4.816-4.845-7.752a1.82,1.82,0,0,1,.93-1.143Z" transform="translate(-0.366 -0.486)" fill="#e09b8d"/>
      <path id="Trazado_1051667" data-name="Trazado 1051667" d="M38.418,31.513a10.674,10.674,0,0,1-13.566,0l-.407-.359a10.779,10.779,0,0,1-3.469-6.9l-.746-8.246C27.013,9.227,22.158,5.99,22.158,5.99,23.786,3.326,26.635,1,31.635,1s7.849,2.326,9.477,4.99c0,0-4.855,3.236,1.928,10.019l-.746,8.246a10.756,10.756,0,0,1-3.876,7.258ZM31.635,23.18c-3.876-1.938-3.876,1.938-6.783,1.938,0,0,2.907,4.467,6.783,2.529,3.876,1.938,6.783-2.529,6.783-2.529C35.511,25.118,35.511,21.242,31.635,23.18Z" transform="translate(-0.504 -0.031)" fill="#f4baa6"/>
      <path id="Trazado_1051668" data-name="Trazado 1051668" d="M20.121,16.169c-.833-.494-2.19-1.114-3.169-.649a7.861,7.861,0,0,1,5.1-9.37S26.9,9.386,20.121,16.169Z" transform="translate(-0.394 -0.191)" fill="#736357"/>
      <path id="Trazado_1051669" data-name="Trazado 1051669" d="M9.608,49.555a.975.975,0,0,1-.81-1.29c.06-.165,1.491-4.054,5.163-5a.969.969,0,1,1,.484,1.877c-2.665.686-3.809,3.748-3.821,3.779A.969.969,0,0,1,9.608,49.555Z" transform="translate(-0.147 -1.341)" fill="#8d98a9"/>
      <g id="Grupo_1207710" data-name="Grupo 1207710" transform="translate(4 0)">
        <path id="Trazado_1051670" data-name="Trazado 1051670" d="M49.325,37.984l-6.019-2L39.28,31.546a11.619,11.619,0,0,0,3.362-6.462,6.282,6.282,0,0,0,3.541-2.637,7.344,7.344,0,0,0,1.366-6.3,3.115,3.115,0,0,0-.775-1.26,8.744,8.744,0,0,0-5.53-9.707A11.416,11.416,0,0,0,31.131,0,11.416,11.416,0,0,0,21.018,5.182,8.742,8.742,0,0,0,15.495,14.9a3.109,3.109,0,0,0-.775,1.26,7.351,7.351,0,0,0,1.367,6.292,6.28,6.28,0,0,0,3.541,2.636,11.745,11.745,0,0,0,3.364,6.452L18.96,35.981l-6.022,2A13.088,13.088,0,0,0,4,50.387V61.045a.969.969,0,0,0,.969.969H57.294a.969.969,0,0,0,.969-.969V50.387a13.055,13.055,0,0,0-8.938-12.4Zm-13.2,13.469-1.078-4.86,1.722-4.3,4.993-3.567C41.583,41.694,40.627,47.61,36.127,51.453Zm-5,2.762a15.154,15.154,0,0,1-3.287-1.52L29,47.48h4.263l1.157,5.214a15.2,15.2,0,0,1-3.289,1.52ZM20.5,38.722l4.993,3.567,1.722,4.3-1.078,4.859C21.635,47.612,20.68,41.7,20.5,38.722Zm10.633-1.384-2.567-2.754a11.188,11.188,0,0,0,5.136,0Zm0,2.55,3.639,2.183-1.388,3.47h-4.5l-1.388-3.47Zm4.8.62-3.273-1.965,5.248-5.63,3.4,3.752Zm9.387-24.291a1,1,0,0,1,.4.572A5.49,5.49,0,0,1,44.6,21.323a5.38,5.38,0,0,1-1.726,1.615l.575-6.347a2.519,2.519,0,0,1,1.832-.388ZM44.91,14.2a5.232,5.232,0,0,0-2.187.581c-1.987-2.126-2.959-4.092-2.815-5.717a3.312,3.312,0,0,1,.88-1.977A6.64,6.64,0,0,1,44.91,14.2ZM31.131,1.938a9.487,9.487,0,0,1,8.2,3.886,5.207,5.207,0,0,0-1.35,3.016c-.227,2.292.977,4.809,3.549,7.484l-.711,7.8a9.729,9.729,0,0,1-15.832,6.628l-.394-.347a9.807,9.807,0,0,1-3.153-6.271l-.707-7.813c2.573-2.675,3.779-5.193,3.549-7.484A5.207,5.207,0,0,0,22.93,5.824a9.487,9.487,0,0,1,8.2-3.886ZM21.475,7.089a3.312,3.312,0,0,1,.88,1.977c.144,1.621-.828,3.585-2.815,5.717a5.253,5.253,0,0,0-2.188-.581,6.643,6.643,0,0,1,4.123-7.112ZM17.663,21.323a5.491,5.491,0,0,1-1.115-4.531,1.006,1.006,0,0,1,.415-.581l.028-.014a2.527,2.527,0,0,1,1.824.392l.575,6.347a5.368,5.368,0,0,1-1.726-1.613Zm6.7,11.591,5.248,5.63-3.273,1.965-5.376-3.843ZM5.938,50.387A11.148,11.148,0,0,1,13.55,39.825l4.973-1.656c.085,3.236,1,11.215,7.666,15.768l.012.009a16.763,16.763,0,0,0,3.962,1.974v4.157H13.69v-9.69a.969.969,0,0,0-1.938,0v9.69H5.938Zm50.387,9.69H50.511v-9.69a.969.969,0,1,0-1.938,0v9.69H32.1V55.92a16.735,16.735,0,0,0,3.956-1.971l.013-.009.007-.006c6.662-4.554,7.578-12.53,7.664-15.765l4.973,1.656a11.119,11.119,0,0,1,7.612,10.562Z" transform="translate(-4 0)" fill="#0b0a0a"/>
        <path id="Trazado_1051671" data-name="Trazado 1051671" d="M26.969,7.517a.961.961,0,0,0,.621-.226,6.4,6.4,0,0,1,4.224-1.354.969.969,0,1,0,0-1.938,8.272,8.272,0,0,0-5.466,1.8.969.969,0,0,0,.621,1.713Z" transform="translate(-4.683 -0.124)" fill="#252525"/>
        <path id="Trazado_1051672" data-name="Trazado 1051672" d="M24.117,25.183a.969.969,0,0,0,.04.99c1.123,1.726,4.107,4.478,7.595,3.067a5.179,5.179,0,0,0,1.954.388c2.616,0,4.734-2.062,5.64-3.454a.969.969,0,0,0-.812-1.5,2.723,2.723,0,0,1-1.922-1.033,3.9,3.9,0,0,0-3.891-1.325v-3.35a.969.969,0,0,0-1.938,0v3.35a3.9,3.9,0,0,0-3.891,1.325,2.723,2.723,0,0,1-1.922,1.033.969.969,0,0,0-.852.507Zm4.1-.122c.862-.8,1.376-1.251,2.819-.614a.94.94,0,0,0,1.441,0c1.443-.639,1.955-.194,2.818.614A6.662,6.662,0,0,0,36.8,26.207a3.934,3.934,0,0,1-4.618,1.1.969.969,0,0,0-.866,0c-1.952.977-3.634-.136-4.618-1.1a6.662,6.662,0,0,0,1.513-1.146Z" transform="translate(-4.62 -0.558)" fill="#0b0a0a"/>
        <circle id="Elipse_13409" data-name="Elipse 13409" cx="1.5" cy="1.5" r="1.5" transform="translate(30.131 14.007)" fill="#0b0a0a"/>
        <circle id="Elipse_13410" data-name="Elipse 13410" cx="1.5" cy="1.5" r="1.5" transform="translate(21.131 14.007)" fill="#0b0a0a"/>
      </g>
    </g>
  </g>
</svg>
