<svg xmlns="http://www.w3.org/2000/svg" xmlns:xlink="http://www.w3.org/1999/xlink" width="98" height="98" viewBox="0 0 98 98">
  <defs>
    <filter id="Trazado_982547" x="0" y="0" width="98" height="98" filterUnits="userSpaceOnUse">
      <feOffset dy="3" input="SourceAlpha"/>
      <feGaussianBlur stdDeviation="3" result="blur"/>
      <feFlood flood-opacity="0.161"/>
      <feComposite operator="in" in2="blur"/>
      <feComposite in="SourceGraphic"/>
    </filter>
    <clipPath id="clip-path">
      <path id="path8121" d="M0-682.665H48.414v48.414H0Z" transform="translate(0 682.665)"/>
    </clipPath>
  </defs>
  <g id="Grupo_1207718" data-name="Grupo 1207718" transform="translate(-191 -2085.552)">
    <g id="Grupo_1207712" data-name="Grupo 1207712">
      <g id="Grupo_1207285" data-name="Grupo 1207285" transform="translate(0 344.552)">
        <g id="Grupo_1206883" data-name="Grupo 1206883" transform="translate(0 -209)">
          <g id="Grupo_1204569" data-name="Grupo 1204569" transform="translate(-81 -1890.336)">
            <g id="Grupo_1203962" data-name="Grupo 1203962" transform="translate(281 3846.336)">
              <g id="Grupo_1203498" data-name="Grupo 1203498" transform="translate(0)">
                <g id="Grupo_1202589" data-name="Grupo 1202589">
                  <g id="Grupo_1172010" data-name="Grupo 1172010">
                    <g id="Grupo_1171046" data-name="Grupo 1171046">
                      <g id="Grupo_1148525" data-name="Grupo 1148525">
                        <g transform="matrix(1, 0, 0, 1, -9, -6)" filter="url(#Trazado_982547)">
                          <g id="Trazado_982547-2" data-name="Trazado 982547" transform="translate(9 6)" fill="#fdfbec">
                            <path d="M 39.99999237060547 78.49998474121094 C 34.8018684387207 78.49998474121094 29.76002502441406 77.48226165771484 25.0145263671875 75.47508239746094 C 20.43014717102051 73.53604888916016 16.31264877319336 70.75984954833984 12.77639198303223 67.22359466552734 C 9.240137100219727 63.68733596801758 6.463936805725098 59.5698356628418 4.524903297424316 54.98546981811523 C 2.517725706100464 50.23995971679688 1.500003457069397 45.19811630249023 1.500003457069397 39.99999237060547 C 1.500003457069397 34.8018684387207 2.517725706100464 29.76002502441406 4.524903297424316 25.0145263671875 C 6.463936805725098 20.43014717102051 9.240137100219727 16.31264877319336 12.77639198303223 12.77639198303223 C 16.31264877319336 9.240137100219727 20.43014717102051 6.463936805725098 25.0145263671875 4.524903297424316 C 29.76002502441406 2.517725706100464 34.8018684387207 1.500003457069397 39.99999237060547 1.500003457069397 C 45.19811630249023 1.500003457069397 50.23995971679688 2.517725706100464 54.98546981811523 4.524903297424316 C 59.5698356628418 6.463936805725098 63.68733596801758 9.240137100219727 67.22359466552734 12.77639198303223 C 70.75984954833984 16.31264877319336 73.53604888916016 20.43014717102051 75.47508239746094 25.0145263671875 C 77.48226165771484 29.76002502441406 78.49998474121094 34.8018684387207 78.49998474121094 39.99999237060547 C 78.49998474121094 45.19812393188477 77.48226165771484 50.23995971679688 75.47508239746094 54.98546981811523 C 73.53604888916016 59.5698356628418 70.75984954833984 63.68733596801758 67.22359466552734 67.22359466552734 C 63.68733596801758 70.75984954833984 59.5698356628418 73.53604888916016 54.98546981811523 75.47508239746094 C 50.23995971679688 77.48226165771484 45.19812393188477 78.49998474121094 39.99999237060547 78.49998474121094 Z" stroke="none"/>
                            <path d="M 39.99999237060547 2.999992370605469 C 35.00370025634766 2.999992370605469 30.1584587097168 3.97784423828125 25.59884643554688 5.906402587890625 C 21.19327163696289 7.769805908203125 17.23603057861328 10.43805694580078 13.83704376220703 13.83704376220703 C 10.43805694580078 17.23603057861328 7.769805908203125 21.19327163696289 5.906402587890625 25.59884643554688 C 3.97784423828125 30.1584587097168 2.999992370605469 35.00370025634766 2.999992370605469 39.99999237060547 C 2.999992370605469 44.99628448486328 3.97784423828125 49.84152603149414 5.906402587890625 54.40113830566406 C 7.769805908203125 58.80671310424805 10.43805694580078 62.76395416259766 13.83704376220703 66.16294097900391 C 17.23603057861328 69.56191253662109 21.19327163696289 72.23016357421875 25.59884643554688 74.09356689453125 C 30.1584587097168 76.02212524414062 35.00370025634766 76.99997711181641 39.99999237060547 76.99997711181641 C 44.99628448486328 76.99997711181641 49.84152603149414 76.02212524414062 54.40113830566406 74.09356689453125 C 58.80671310424805 72.23016357421875 62.76395416259766 69.56191253662109 66.16294097900391 66.16294097900391 C 69.56191253662109 62.76395416259766 72.23016357421875 58.80671310424805 74.09356689453125 54.40113830566406 C 76.02212524414062 49.84152603149414 76.99997711181641 44.99628448486328 76.99997711181641 39.99999237060547 C 76.99997711181641 35.00370025634766 76.02212524414062 30.1584587097168 74.09356689453125 25.59884643554688 C 72.23016357421875 21.19327163696289 69.56191253662109 17.23603057861328 66.16294097900391 13.83704376220703 C 62.76395416259766 10.43805694580078 58.80671310424805 7.769805908203125 54.40113830566406 5.906402587890625 C 49.84152603149414 3.97784423828125 44.99628448486328 2.999992370605469 39.99999237060547 2.999992370605469 M 39.99999237060547 -7.62939453125e-06 C 62.09137725830078 -7.62939453125e-06 79.99997711181641 17.90860748291016 79.99997711181641 39.99999237060547 C 79.99997711181641 62.09137725830078 62.09137725830078 79.99997711181641 39.99999237060547 79.99997711181641 C 17.90860748291016 79.99997711181641 -7.62939453125e-06 62.09137725830078 -7.62939453125e-06 39.99999237060547 C -7.62939453125e-06 17.90860748291016 17.90860748291016 -7.62939453125e-06 39.99999237060547 -7.62939453125e-06 Z" stroke="none" fill="#83793c"/>
                          </g>
                        </g>
                      </g>
                    </g>
                  </g>
                </g>
              </g>
            </g>
          </g>
        </g>
      </g>
      <g id="g8115" transform="translate(215.793 2790.01)">
        <g id="g8117" transform="translate(0 -682.665)">
          <g id="g8119" clip-path="url(#clip-path)">
            <g id="g8125" transform="translate(-33.259 0.709)">
              <path id="path8127" d="M-338.457-377.826h-25.835v-25.108c5.31-7.679,37.755-5.416,25.835,25.108" transform="translate(364.292 406.667)" fill="#fbdf63"/>
            </g>
            <g id="g8129" transform="translate(-33.259 0.709)">
              <path id="path8131" d="M-338.457-377.826h-.619c6.164-24.728-15.887-30.6-25.216-24.374v-.734c5.31-7.679,37.755-5.416,25.835,25.108" transform="translate(364.292 406.667)" fill="#f9d11f"/>
            </g>
          </g>
        </g>
        <g id="g8265" transform="translate(0 -682.665)">
          <g id="g8267" clip-path="url(#clip-path)">
            <g id="g8273" transform="translate(-33.259 51.036)">
              <path id="path8275" d="M-338.457-377.654h-25.835v-25.1c5.31-7.676,37.755-5.413,25.835,25.1" transform="translate(364.292 406.481)" fill="#003343"/>
            </g>
            <g id="g8277" transform="translate(-33.259 51.036)">
              <path id="path8279" d="M-338.457-377.654h-.619c6.164-24.717-15.887-30.585-25.216-24.362v-.734c5.31-7.676,37.755-5.413,25.835,25.1" transform="translate(364.292 406.481)" fill="#002439"/>
            </g>
          </g>
        </g>
        <g id="g8281" transform="translate(0 -682.665)">
          <g id="g8283" clip-path="url(#clip-path)">
            <g id="g8289" transform="translate(17.066 51.014)">
              <path id="path8291" d="M-338.457-377.826h-25.835v-25.108c5.31-7.679,37.755-5.416,25.835,25.108" transform="translate(364.292 406.667)" fill="#ff7e50"/>
            </g>
            <g id="g8293" transform="translate(17.066 51.014)">
              <path id="path8295" d="M-338.457-377.826h-.619c6.164-24.728-15.887-30.6-25.216-24.374v-.734c5.31-7.679,37.755-5.416,25.835,25.108" transform="translate(364.292 406.667)" fill="#ff6247"/>
            </g>
            <g id="g8297" transform="translate(2.941 54.225)">
              <path id="path8299" d="M-233.028-131.751v15.573h-14.6c-12.2-25.649,14.6-34.273,14.6-15.573" transform="translate(250.816 141.808)" fill="#ffa68a"/>
            </g>
            <g id="g8301" transform="translate(2.941 54.225)">
              <path id="path8303" d="M-233.028-131.751c-.9-16.1-20.23-9.82-14.176,15.573h-.427c-12.2-25.649,14.6-34.273,14.6-15.573" transform="translate(250.816 141.808)" fill="#ff7e50"/>
            </g>
          </g>
        </g>
      </g>
    </g>
    <g id="Layer_x0020_1" transform="translate(201.548 2093.539)">
      <path id="Trazado_1051683" data-name="Trazado 1051683" d="M45.439,33.794H43.646a.9.9,0,1,1,0-1.793h1.793a.9.9,0,1,1,0,1.793Zm-3.308,9.15h-4.39a8.062,8.062,0,0,1-2.442-.371l-.773,3.03,5.41,5.5,5.41-5.5-.773-3.03A7.917,7.917,0,0,1,42.131,42.945Zm-8.47-1.113a9.943,9.943,0,0,1-4.7-8.594c0-6.523,2.195-7.265,5.286-7.6a7,7,0,0,0,3.586-1.144c2.38-1.793,4.544-3.246,7.2-3.153,2.288.062,5.9,1.206,5.9,3.957v7.945a9.943,9.943,0,0,1-4.7,8.594l.8,3.122h3.8a8.021,8.021,0,0,1,3.091.649V27.8a13.988,13.988,0,1,0-27.977,0V45.6a8.021,8.021,0,0,1,3.091-.649h3.8ZM44.79,23.1c-2.009,0-3.771,1.237-5.9,2.813a8.543,8.543,0,0,1-4.452,1.484c-2.288.278-3.679.433-3.679,5.843A7.994,7.994,0,0,0,34.99,40.5a.676.676,0,0,1,.155.093,6.223,6.223,0,0,0,2.6.556h4.39a6.121,6.121,0,0,0,2.6-.556l.185-.093a7.994,7.994,0,0,0,4.235-7.265V25.293c0-1.329-2.72-2.133-4.173-2.195Zm7.481,40.93H21.265L21.234,64H21.11a.892.892,0,0,1-.68-.866V54.475a9.766,9.766,0,0,1,3.741-7.821V27.8a15.781,15.781,0,1,1,31.563,0V46.654a9.766,9.766,0,0,1,3.741,7.821v8.749l-.031.031v.124h-.031v.062l-.031.031v.062H59.35v.031l-.031.031v.031h-.031v.062h-.031v.031h-.031v.031H59.2v.031h-.031v.031h-.031l-.031.031-.031.031h-.031l-.031.031h-.031l-.031.031h-.031l-.031.031h-.062V64H58.67l-.031.031H52.271ZM28.529,62.235H51.375V56.176a.9.9,0,0,1,.9-.9.871.871,0,0,1,.866.9v1.206h4.544V54.475A7.938,7.938,0,0,0,54.4,47.891a.676.676,0,0,0-.155-.093,5.977,5.977,0,0,0-3.4-1.051H46.738l-6.152,6.275a.915.915,0,0,1-1.267,0l-6.152-6.275H29.055a5.977,5.977,0,0,0-3.4,1.051l-.185.093a8.081,8.081,0,0,0-3.246,6.585v2.906h4.513V56.176a.9.9,0,0,1,1.793,0v6.059Zm-6.306-3.06v3.06h4.513v-3.06Zm30.945,3.06h4.513v-3.06H53.168ZM35.114,55.063H31.188a.9.9,0,1,1,0-1.793h3.926a.9.9,0,1,1,0,1.793Zm8.038-16.508a.9.9,0,0,1-.278-.062,8.353,8.353,0,0,0-5.874,0,.893.893,0,0,1-1.113-.587.909.909,0,0,1,.618-1.113,9.8,9.8,0,0,1,6.894,0,.88.88,0,0,1,.587,1.113A.891.891,0,0,1,43.152,38.555Zm-23.9-16.013a5.271,5.271,0,1,1,5.255-5.286A5.277,5.277,0,0,1,19.255,22.542Zm0-8.749a3.478,3.478,0,1,0,3.462,3.462A3.457,3.457,0,0,0,19.255,13.793Zm42.537,34.1A4.081,4.081,0,1,1,65.9,43.81,4.077,4.077,0,0,1,61.792,47.891Zm0-6.368a2.288,2.288,0,1,0,0,4.575,2.288,2.288,0,1,0,0-4.575ZM61.36,28.2H58.547a.9.9,0,1,1,0-1.793H61.36a.9.9,0,1,1,0,1.793Zm-2.813-4.513a.881.881,0,0,1-.773-.433.91.91,0,0,1,.34-1.237l4.761-2.751a.874.874,0,0,1,1.206.34.865.865,0,0,1-.309,1.206L59.01,23.562A.872.872,0,0,1,58.547,23.685Zm4.761,11.778a.71.71,0,0,1-.433-.124l-4.761-2.751a.874.874,0,0,1-.34-1.206.91.91,0,0,1,1.237-.34l4.761,2.751a.9.9,0,0,1,.309,1.237A.881.881,0,0,1,63.307,35.463ZM21.327,37.133H18.513a.9.9,0,1,1,0-1.793h2.844a.871.871,0,0,1,.866.9A.9.9,0,0,1,21.327,37.133Zm0-4.513a.845.845,0,0,1-.433-.124l-4.761-2.751a.874.874,0,0,1-.34-1.206.91.91,0,0,1,1.237-.34L21.79,30.95a.91.91,0,0,1,.34,1.237A.972.972,0,0,1,21.327,32.619ZM16.566,44.4a.919.919,0,0,1-.773-.433.91.91,0,0,1,.34-1.237l4.761-2.751a.91.91,0,0,1,1.237.34.874.874,0,0,1-.34,1.206L17.03,44.274A.872.872,0,0,1,16.566,44.4ZM34.527,31.29a.9.9,0,1,1,0-1.793.7.7,0,0,0,.742-.587.9.9,0,1,1,1.793,0A2.438,2.438,0,0,1,34.527,31.29Zm1.731,2.5H34.465a.9.9,0,0,1,0-1.793h1.793a.9.9,0,0,1,0,1.793Zm9.12-2.5a2.466,2.466,0,0,1-2.566-2.38.9.9,0,1,1,1.793,0,.707.707,0,0,0,.773.587.9.9,0,0,1,0,1.793Z" fill-rule="evenodd"/>
      <path id="Trazado_1051684" data-name="Trazado 1051684" d="M284.513,1538H280v3.06h4.513Z" transform="translate(-257.777 -1478.826)" fill="#ffc06d" fill-rule="evenodd"/>
      <path id="Trazado_1051685" data-name="Trazado 1051685" d="M286.306,1147.1v4.39h22.845v-6.059a.9.9,0,0,1,.9-.9.871.871,0,0,1,.866.9v1.206h4.544v-2.906a7.938,7.938,0,0,0-3.277-6.584.68.68,0,0,0-.155-.093,5.978,5.978,0,0,0-3.4-1.051h-4.112l-6.152,6.275a.915.915,0,0,1-1.267,0L290.943,1136h-4.112a5.978,5.978,0,0,0-3.4,1.051l-.185.093a8.081,8.081,0,0,0-3.246,6.584v2.906h4.513v-1.206a.9.9,0,0,1,1.793,0Zm6.585-2.782h-3.926a.9.9,0,0,1,0-1.793h3.926a.9.9,0,0,1,0,1.793Z" transform="translate(-257.777 -1089.253)" fill="#7ed63f" fill-rule="evenodd"/>
      <g id="Grupo_1207717" data-name="Grupo 1207717" transform="translate(30.755 23.098)">
        <path id="Trazado_1051686" data-name="Trazado 1051686" d="M1281,1538v3.06h4.513V1538Z" transform="translate(-1258.588 -1501.924)" fill="#ffc06d" fill-rule="evenodd"/>
        <path id="Trazado_1051687" data-name="Trazado 1051687" d="M683.41,1009.532l5.41-5.5-.773-3.03a7.917,7.917,0,0,1-2.442.371h-4.39a8.062,8.062,0,0,1-2.442-.371l-.773,3.03Z" transform="translate(-674.229 -981.524)" fill="#ffc06d" fill-rule="evenodd"/>
        <path id="Trazado_1051688" data-name="Trazado 1051688" d="M570.158,388.4a7.994,7.994,0,0,0,4.235-7.265v-7.945c0-1.329-2.72-2.133-4.173-2.195h-.185c-2.009,0-3.771,1.237-5.9,2.813a8.543,8.543,0,0,1-4.452,1.484c-2.288.278-3.679.433-3.679,5.843a7.994,7.994,0,0,0,4.235,7.265.675.675,0,0,1,.155.093,6.223,6.223,0,0,0,2.6.556h4.39a6.121,6.121,0,0,0,2.6-.556Zm-1.267-6.708a.9.9,0,1,1,0-1.793h1.793a.9.9,0,0,1,0,1.793Zm.34,4.112a.891.891,0,0,1-.835.649.9.9,0,0,1-.278-.062,8.353,8.353,0,0,0-5.874,0,.893.893,0,0,1-1.113-.587.909.909,0,0,1,.618-1.113,9.8,9.8,0,0,1,6.894,0A.88.88,0,0,1,569.231,385.808Zm-6.925-9a2.438,2.438,0,0,1-2.535,2.38.9.9,0,1,1,0-1.793.7.7,0,0,0,.742-.587.9.9,0,0,1,1.793,0Zm.093,3.988a.9.9,0,0,1-.9.9H559.71a.9.9,0,0,1,0-1.793H561.5A.9.9,0,0,1,562.4,380.8Zm8.223-1.608a2.466,2.466,0,0,1-2.566-2.38.9.9,0,0,1,1.793,0,.707.707,0,0,0,.773.587.9.9,0,0,1,0,1.793Z" transform="translate(-556 -371)" fill="#ffc06d" fill-rule="evenodd"/>
      </g>
      <path id="Trazado_1051689" data-name="Trazado 1051689" d="M425.978,89.445a9.943,9.943,0,0,1-4.7,8.594l.8,3.122h3.8a8.021,8.021,0,0,1,3.091.649V84A13.988,13.988,0,1,0,401,84V101.81a8.021,8.021,0,0,1,3.091-.649h3.8l.8-3.122a9.943,9.943,0,0,1-4.7-8.594c0-6.523,2.195-7.265,5.286-7.6a7,7,0,0,0,3.586-1.144c2.38-1.793,4.544-3.246,7.2-3.153,2.288.062,5.9,1.206,5.9,3.957Z" transform="translate(-375.036 -56.207)" fill="#633" fill-rule="evenodd"/>
      <path id="Trazado_1051690" data-name="Trazado 1051690" d="M1488.288,967a2.288,2.288,0,1,0,0,4.575,2.288,2.288,0,1,0,0-4.575Z" transform="translate(-1426.495 -925.477)" fill="#ffa721" fill-rule="evenodd"/>
      <path id="Trazado_1051691" data-name="Trazado 1051691" d="M75.462,76.956A3.478,3.478,0,1,0,72,73.462,3.483,3.483,0,0,0,75.462,76.956Z" transform="translate(-56.207 -56.207)" fill="#ffa721" fill-rule="evenodd"/>
      <g id="Grupo_1207719" data-name="Grupo 1207719" transform="translate(27.269 34.19)">
        <g id="g8189" transform="translate(1.671 0.708)">
          <path id="path8191" d="M-196.787-172.347a3.3,3.3,0,0,1-3.3,3.3,3.3,3.3,0,0,1-3.3-3.3c0-1.822,3.3-5.779,3.3-5.779h0c.051.061,3.3,3.971,3.3,5.778" transform="translate(203.386 178.126)" fill="#99e7fa"/>
        </g>
        <g id="g8193" transform="translate(4.97 0.709)">
          <path id="path8195" d="M-98.394-172.321a3.3,3.3,0,0,1-3.3,3.3c1.194,0,2.163-1.477,2.163-3.3s-2.129-5.717-2.163-5.778c.051.061,3.3,3.971,3.3,5.778" transform="translate(101.693 178.1)" fill="#4dd4f7"/>
        </g>
        <g id="g8241" transform="translate(1.671 0.709)">
          <path id="path8243" d="M-196.786-172.357a3.3,3.3,0,0,1-3.3,3.3,3.3,3.3,0,0,1-3.3-3.3c0-1.822,3.3-5.78,3.3-5.78S-196.786-174.179-196.786-172.357Z" transform="translate(203.385 178.137)" fill="none" stroke="#000" stroke-linecap="round" stroke-linejoin="round" stroke-miterlimit="10" stroke-width="1"/>
        </g>
        <g id="g8245" transform="translate(4.971 6.489)">
          <path id="path8247" d="M0-56.464a1.9,1.9,0,0,0,1.893-1.893" transform="translate(0 58.357)" fill="none" stroke="#000" stroke-linecap="round" stroke-linejoin="round" stroke-miterlimit="10" stroke-width="1"/>
        </g>
      </g>
    </g>
  </g>
</svg>
