<svg xmlns="http://www.w3.org/2000/svg" xmlns:xlink="http://www.w3.org/1999/xlink" width="98" height="98" viewBox="0 0 98 98">
  <defs>
    <filter id="Trazado_982547" x="0" y="0" width="98" height="98" filterUnits="userSpaceOnUse">
      <feOffset dy="3" input="SourceAlpha"/>
      <feGaussianBlur stdDeviation="3" result="blur"/>
      <feFlood flood-opacity="0.161"/>
      <feComposite operator="in" in2="blur"/>
      <feComposite in="SourceGraphic"/>
    </filter>
  </defs>
  <g id="Grupo_1207715" data-name="Grupo 1207715" transform="translate(-505.561 -2085.552)">
    <g id="Grupo_1207282" data-name="Grupo 1207282" transform="translate(0 135.552)">
      <g id="Grupo_1204570" data-name="Grupo 1204570" transform="translate(233.561 -1890.336)">
        <g id="Grupo_1203962" data-name="Grupo 1203962" transform="translate(281 3846.336)">
          <g id="Grupo_1203498" data-name="Grupo 1203498" transform="translate(0)">
            <g id="Grupo_1202589" data-name="Grupo 1202589">
              <g id="Grupo_1172010" data-name="Grupo 1172010">
                <g id="Grupo_1171046" data-name="Grupo 1171046">
                  <g id="Grupo_1148525" data-name="Grupo 1148525">
                    <g transform="matrix(1, 0, 0, 1, -9, -6)" filter="url(#Trazado_982547)">
                      <g id="Trazado_982547-2" data-name="Trazado 982547" transform="translate(9 6)" fill="#fdfbec">
                        <path d="M 39.99999237060547 78.49998474121094 C 34.8018684387207 78.49998474121094 29.76002502441406 77.48226165771484 25.0145263671875 75.47508239746094 C 20.43014717102051 73.53604888916016 16.31264877319336 70.75984954833984 12.77639198303223 67.22359466552734 C 9.240137100219727 63.68733596801758 6.463936805725098 59.5698356628418 4.524903297424316 54.98546981811523 C 2.517725706100464 50.23995971679688 1.500003457069397 45.19811630249023 1.500003457069397 39.99999237060547 C 1.500003457069397 34.8018684387207 2.517725706100464 29.76002502441406 4.524903297424316 25.0145263671875 C 6.463936805725098 20.43014717102051 9.240137100219727 16.31264877319336 12.77639198303223 12.77639198303223 C 16.31264877319336 9.240137100219727 20.43014717102051 6.463936805725098 25.0145263671875 4.524903297424316 C 29.76002502441406 2.517725706100464 34.8018684387207 1.500003457069397 39.99999237060547 1.500003457069397 C 45.19811630249023 1.500003457069397 50.23995971679688 2.517725706100464 54.98546981811523 4.524903297424316 C 59.5698356628418 6.463936805725098 63.68733596801758 9.240137100219727 67.22359466552734 12.77639198303223 C 70.75984954833984 16.31264877319336 73.53604888916016 20.43014717102051 75.47508239746094 25.0145263671875 C 77.48226165771484 29.76002502441406 78.49998474121094 34.8018684387207 78.49998474121094 39.99999237060547 C 78.49998474121094 45.19812393188477 77.48226165771484 50.23995971679688 75.47508239746094 54.98546981811523 C 73.53604888916016 59.5698356628418 70.75984954833984 63.68733596801758 67.22359466552734 67.22359466552734 C 63.68733596801758 70.75984954833984 59.5698356628418 73.53604888916016 54.98546981811523 75.47508239746094 C 50.23995971679688 77.48226165771484 45.19812393188477 78.49998474121094 39.99999237060547 78.49998474121094 Z" stroke="none"/>
                        <path d="M 39.99999237060547 2.999992370605469 C 35.00370025634766 2.999992370605469 30.1584587097168 3.97784423828125 25.59884643554688 5.906402587890625 C 21.19327163696289 7.769805908203125 17.23603057861328 10.43805694580078 13.83704376220703 13.83704376220703 C 10.43805694580078 17.23603057861328 7.769805908203125 21.19327163696289 5.906402587890625 25.59884643554688 C 3.97784423828125 30.1584587097168 2.999992370605469 35.00370025634766 2.999992370605469 39.99999237060547 C 2.999992370605469 44.99628448486328 3.97784423828125 49.84152603149414 5.906402587890625 54.40113830566406 C 7.769805908203125 58.80671310424805 10.43805694580078 62.76395416259766 13.83704376220703 66.16294097900391 C 17.23603057861328 69.56191253662109 21.19327163696289 72.23016357421875 25.59884643554688 74.09356689453125 C 30.1584587097168 76.02212524414062 35.00370025634766 76.99997711181641 39.99999237060547 76.99997711181641 C 44.99628448486328 76.99997711181641 49.84152603149414 76.02212524414062 54.40113830566406 74.09356689453125 C 58.80671310424805 72.23016357421875 62.76395416259766 69.56191253662109 66.16294097900391 66.16294097900391 C 69.56191253662109 62.76395416259766 72.23016357421875 58.80671310424805 74.09356689453125 54.40113830566406 C 76.02212524414062 49.84152603149414 76.99997711181641 44.99628448486328 76.99997711181641 39.99999237060547 C 76.99997711181641 35.00370025634766 76.02212524414062 30.1584587097168 74.09356689453125 25.59884643554688 C 72.23016357421875 21.19327163696289 69.56191253662109 17.23603057861328 66.16294097900391 13.83704376220703 C 62.76395416259766 10.43805694580078 58.80671310424805 7.769805908203125 54.40113830566406 5.906402587890625 C 49.84152603149414 3.97784423828125 44.99628448486328 2.999992370605469 39.99999237060547 2.999992370605469 M 39.99999237060547 -7.62939453125e-06 C 62.09137725830078 -7.62939453125e-06 79.99997711181641 17.90860748291016 79.99997711181641 39.99999237060547 C 79.99997711181641 62.09137725830078 62.09137725830078 79.99997711181641 39.99999237060547 79.99997711181641 C 17.90860748291016 79.99997711181641 -7.62939453125e-06 62.09137725830078 -7.62939453125e-06 39.99999237060547 C -7.62939453125e-06 17.90860748291016 17.90860748291016 -7.62939453125e-06 39.99999237060547 -7.62939453125e-06 Z" stroke="none" fill="#83793c"/>
                      </g>
                    </g>
                  </g>
                </g>
              </g>
            </g>
          </g>
        </g>
      </g>
    </g>
    <g id="Layer_x0020_1" transform="translate(515.33 2094.146)">
      <g id="Grupo_1207713" data-name="Grupo 1207713" transform="translate(14 12)">
        <path id="Trazado_1051673" data-name="Trazado 1051673" d="M16.495,34.812a.894.894,0,0,1-.751-.421.885.885,0,0,1,.331-1.2L20.7,30.514a.885.885,0,0,1,1.2.331.857.857,0,0,1-.331,1.172l-4.628,2.675A.848.848,0,0,1,16.495,34.812ZM41.35,42.085H37.082a7.838,7.838,0,0,1-2.374-.361l-.751,2.945,5.26,5.35,5.26-5.35-.751-2.945A7.7,7.7,0,0,1,41.35,42.085ZM33.115,41a9.667,9.667,0,0,1-4.568-8.355c0-6.342,2.134-7.063,5.139-7.393a6.8,6.8,0,0,0,3.486-1.112c2.314-1.743,4.418-3.156,7-3.066,2.224.06,5.74,1.172,5.74,3.847v7.724A9.667,9.667,0,0,1,45.347,41l.781,3.036h3.7a7.8,7.8,0,0,1,3.005.631V27.358a13.6,13.6,0,1,0-27.2,0V44.669a7.8,7.8,0,0,1,3.005-.631h3.7ZM43.934,22.79c-1.954,0-3.667,1.2-5.74,2.735a8.306,8.306,0,0,1-4.328,1.443c-2.224.27-3.577.421-3.577,5.68a7.772,7.772,0,0,0,4.117,7.063.657.657,0,0,1,.15.09,6.441,6.441,0,0,0,2.525.541H41.35A6.087,6.087,0,0,0,43.9,39.8c.03-.03.09-.06.12-.09a7.742,7.742,0,0,0,4.148-7.063V24.924c0-1.292-2.645-2.074-4.057-2.134Zm7.273,39.792H21.063l-.03-.03h-.12a.867.867,0,0,1-.661-.842V53.3a9.494,9.494,0,0,1,3.637-7.6V27.358a15.343,15.343,0,1,1,30.686,0V45.691a9.494,9.494,0,0,1,3.637,7.6v8.475a.9.9,0,0,1-.661.781h-.12l-.03.03H51.208ZM28.126,60.839h22.21V54.948a.872.872,0,0,1,.872-.872.847.847,0,0,1,.842.872V56.12h4.418V53.3a7.857,7.857,0,0,0-3.156-6.4l-.18-.09a5.811,5.811,0,0,0-3.306-1.022h-4l-5.981,6.1a.889.889,0,0,1-1.232,0l-5.981-6.1h-4A5.811,5.811,0,0,0,25.331,46.8l-.18.09a7.857,7.857,0,0,0-3.156,6.4V56.12h4.388V54.948a.872.872,0,1,1,1.743,0v5.891Zm30.085.872v0Zm-6.161-.872h4.418V57.863H52.049Zm-30.055,0h4.388V57.863H21.995Zm12.533-6.973H30.71a.872.872,0,1,1,0-1.743h3.817a.872.872,0,1,1,0,1.743Zm24.8-31.618a5.124,5.124,0,1,1,5.139-5.139A5.15,5.15,0,0,1,59.322,22.249Zm0-8.505a3.381,3.381,0,1,0,3.4,3.366A3.38,3.38,0,0,0,59.322,13.743ZM17.967,46.893a3.967,3.967,0,1,1,4-3.967A3.963,3.963,0,0,1,17.967,46.893Zm0-6.191a2.224,2.224,0,0,0,0,4.448,2.224,2.224,0,1,0,0-4.448ZM39.216,39.26a4.5,4.5,0,0,1-4.508-4.508.872.872,0,0,1,.872-.872h7.3a.872.872,0,0,1,.872.872A4.528,4.528,0,0,1,39.216,39.26Zm-2.645-3.667a2.818,2.818,0,0,0,2.645,1.924,2.789,2.789,0,0,0,2.645-1.924Zm8.175-3.937a.872.872,0,0,1-.872-.872.675.675,0,0,0-.721-.6.686.686,0,0,0-.751.6.872.872,0,1,1-1.743,0,2.483,2.483,0,0,1,4.959,0A.872.872,0,0,1,44.746,31.656Zm-7.814,0a.872.872,0,0,1-.872-.872.706.706,0,0,0-.751-.6.675.675,0,0,0-.721.6.872.872,0,1,1-1.743,0,2.483,2.483,0,0,1,4.959,0A.872.872,0,0,1,36.932,31.656Zm23.112,4.779H57.309a.872.872,0,0,1,0-1.743h2.735a.872.872,0,0,1,0,1.743Zm-2.735-4.388a.857.857,0,0,1-.751-.421.885.885,0,0,1,.331-1.2l4.628-2.675a.85.85,0,0,1,1.172.331.841.841,0,0,1-.3,1.172L57.76,31.926A.848.848,0,0,1,57.309,32.046ZM61.937,43.5a.69.69,0,0,1-.421-.12L56.888,40.7a.85.85,0,0,1-.331-1.172.885.885,0,0,1,1.2-.331l4.628,2.675a.875.875,0,0,1,.3,1.2A.857.857,0,0,1,61.937,43.5ZM21.123,27.749H18.388a.872.872,0,1,1,0-1.743h2.735a.872.872,0,1,1,0,1.743Zm0-4.388a.822.822,0,0,1-.421-.12l-4.628-2.675a.85.85,0,0,1-.331-1.172.885.885,0,0,1,1.2-.331l4.628,2.675a.885.885,0,0,1,.331,1.2A.945.945,0,0,1,21.123,23.361Z" transform="translate(-14 -12)" fill-rule="evenodd"/>
      </g>
      <path id="Trazado_1051674" data-name="Trazado 1051674" d="M765,797a2.818,2.818,0,0,0,2.645,1.923A2.789,2.789,0,0,0,770.29,797Z" transform="translate(-728.429 -761.407)" fill="#ff3e1a" fill-rule="evenodd"/>
      <path id="Trazado_1051675" data-name="Trazado 1051675" d="M561.29,382.09h7.3a.872.872,0,0,1,.872.872,4.523,4.523,0,0,1-9.047,0A.872.872,0,0,1,561.29,382.09Zm-.271-5.44a2.421,2.421,0,0,1,2.495,2.344.872.872,0,0,1-1.743,0,.706.706,0,0,0-.751-.6.675.675,0,0,0-.721.6.872.872,0,0,1-1.743,0A2.414,2.414,0,0,1,561.019,376.65Zm-1.443-1.473c-2.224.27-3.577.421-3.577,5.68a7.772,7.772,0,0,0,4.117,7.063.656.656,0,0,1,.15.09,6.441,6.441,0,0,0,2.525.541h4.268a6.088,6.088,0,0,0,2.555-.541c.03-.03.09-.06.12-.09a7.742,7.742,0,0,0,4.148-7.063v-7.724c0-1.292-2.645-2.074-4.057-2.134h-.18c-1.954,0-3.667,1.2-5.74,2.735A8.306,8.306,0,0,1,559.577,375.178Zm6.792,3.817a2.483,2.483,0,0,1,4.959,0,.872.872,0,0,1-1.743,0,.675.675,0,0,0-.721-.6.686.686,0,0,0-.751.6.872.872,0,0,1-1.743,0Z" transform="translate(-525.71 -348.21)" fill="#ffc06d" fill-rule="evenodd"/>
      <path id="Trazado_1051676" data-name="Trazado 1051676" d="M409.055,81.511a6.8,6.8,0,0,0,3.486-1.112c2.314-1.743,4.418-3.156,7-3.066,2.224.06,5.74,1.172,5.74,3.847V88.9a9.667,9.667,0,0,1-4.568,8.355l.781,3.036h3.7a7.8,7.8,0,0,1,3.005.631V83.615a13.6,13.6,0,1,0-27.2,0v17.312a7.8,7.8,0,0,1,3.005-.631h3.7l.781-3.036a9.667,9.667,0,0,1-4.568-8.355C403.915,82.563,406.049,81.842,409.055,81.511Z" transform="translate(-375.369 -56.257)" fill="#633" fill-rule="evenodd"/>
      <path id="Trazado_1051677" data-name="Trazado 1051677" d="M685.393,1001.361h-4.268a7.838,7.838,0,0,1-2.374-.361l-.751,2.945,5.26,5.35,5.26-5.35-.751-2.945A7.7,7.7,0,0,1,685.393,1001.361Z" transform="translate(-644.044 -959.276)" fill="#ffc06d" fill-rule="evenodd"/>
      <path id="Trazado_1051678" data-name="Trazado 1051678" d="M296.62,1142.1l-5.981-6.1h-4a5.811,5.811,0,0,0-3.306,1.022l-.18.09a7.857,7.857,0,0,0-3.156,6.4v2.825h4.388v-1.172a.872.872,0,0,1,1.743,0v5.891h22.21v-5.891a.872.872,0,0,1,.872-.872.847.847,0,0,1,.842.872v1.172h4.418v-2.825a7.857,7.857,0,0,0-3.156-6.4l-.18-.09a5.811,5.811,0,0,0-3.306-1.022h-4l-5.981,6.1A.89.89,0,0,1,296.62,1142.1Zm-4.087,1.984h-3.817a.872.872,0,0,1,0-1.743h3.817a.872.872,0,0,1,0,1.743Z" transform="translate(-258.005 -1090.219)" fill="#7ed63f" fill-rule="evenodd"/>
      <path id="Trazado_1051679" data-name="Trazado 1051679" d="M284.388,1538H280v2.975h4.388Z" transform="translate(-258.005 -1480.137)" fill="#ffc06d" fill-rule="evenodd"/>
      <path id="Trazado_1051680" data-name="Trazado 1051680" d="M1280,1538v2.975h4.418V1538Z" transform="translate(-1227.951 -1480.137)" fill="#ffc06d" fill-rule="evenodd"/>
      <g id="Grupo_1207714" data-name="Grupo 1207714" transform="translate(15.743 13.743)">
        <path id="Trazado_1051681" data-name="Trazado 1051681" d="M74.224,971.448a2.224,2.224,0,1,0,0-4.448,2.224,2.224,0,1,0,0,4.448Z" transform="translate(-72 -940.041)" fill="#ffa721" fill-rule="evenodd"/>
        <path id="Trazado_1051682" data-name="Trazado 1051682" d="M1410,73.366A3.381,3.381,0,1,0,1413.366,70,3.406,3.406,0,0,0,1410,73.366Z" transform="translate(-1369.787 -70)" fill="#ffa721" fill-rule="evenodd"/>
      </g>
    </g>
  </g>
</svg>
