<svg xmlns="http://www.w3.org/2000/svg" xmlns:xlink="http://www.w3.org/1999/xlink" width="98" height="98" viewBox="0 0 98 98">
  <defs>
    <filter id="Trazado_982547" x="0" y="0" width="98" height="98" filterUnits="userSpaceOnUse">
      <feOffset dy="3" input="SourceAlpha"/>
      <feGaussianBlur stdDeviation="3" result="blur"/>
      <feFlood flood-opacity="0.161"/>
      <feComposite operator="in" in2="blur"/>
      <feComposite in="SourceGraphic"/>
    </filter>
  </defs>
  <g id="Grupo_1207721" data-name="Grupo 1207721" transform="translate(-820.561 -2085.552)">
    <g id="Grupo_1207283" data-name="Grupo 1207283" transform="translate(0 135.552)">
      <g id="Grupo_1204571" data-name="Grupo 1204571" transform="translate(548.561 -1890.336)">
        <g id="Grupo_1203962" data-name="Grupo 1203962" transform="translate(281 3846.336)">
          <g id="Grupo_1203498" data-name="Grupo 1203498" transform="translate(0)">
            <g id="Grupo_1202589" data-name="Grupo 1202589">
              <g id="Grupo_1172010" data-name="Grupo 1172010">
                <g id="Grupo_1171046" data-name="Grupo 1171046">
                  <g id="Grupo_1148525" data-name="Grupo 1148525">
                    <g transform="matrix(1, 0, 0, 1, -9, -6)" filter="url(#Trazado_982547)">
                      <g id="Trazado_982547-2" data-name="Trazado 982547" transform="translate(9 6)" fill="#fdfbec">
                        <path d="M 39.99999237060547 78.49998474121094 C 34.8018684387207 78.49998474121094 29.76002502441406 77.48226165771484 25.0145263671875 75.47508239746094 C 20.43014717102051 73.53604888916016 16.31264877319336 70.75984954833984 12.77639198303223 67.22359466552734 C 9.240137100219727 63.68733596801758 6.463936805725098 59.5698356628418 4.524903297424316 54.98546981811523 C 2.517725706100464 50.23995971679688 1.500003457069397 45.19811630249023 1.500003457069397 39.99999237060547 C 1.500003457069397 34.8018684387207 2.517725706100464 29.76002502441406 4.524903297424316 25.0145263671875 C 6.463936805725098 20.43014717102051 9.240137100219727 16.31264877319336 12.77639198303223 12.77639198303223 C 16.31264877319336 9.240137100219727 20.43014717102051 6.463936805725098 25.0145263671875 4.524903297424316 C 29.76002502441406 2.517725706100464 34.8018684387207 1.500003457069397 39.99999237060547 1.500003457069397 C 45.19811630249023 1.500003457069397 50.23995971679688 2.517725706100464 54.98546981811523 4.524903297424316 C 59.5698356628418 6.463936805725098 63.68733596801758 9.240137100219727 67.22359466552734 12.77639198303223 C 70.75984954833984 16.31264877319336 73.53604888916016 20.43014717102051 75.47508239746094 25.0145263671875 C 77.48226165771484 29.76002502441406 78.49998474121094 34.8018684387207 78.49998474121094 39.99999237060547 C 78.49998474121094 45.19812393188477 77.48226165771484 50.23995971679688 75.47508239746094 54.98546981811523 C 73.53604888916016 59.5698356628418 70.75984954833984 63.68733596801758 67.22359466552734 67.22359466552734 C 63.68733596801758 70.75984954833984 59.5698356628418 73.53604888916016 54.98546981811523 75.47508239746094 C 50.23995971679688 77.48226165771484 45.19812393188477 78.49998474121094 39.99999237060547 78.49998474121094 Z" stroke="none"/>
                        <path d="M 39.99999237060547 2.999992370605469 C 35.00370025634766 2.999992370605469 30.1584587097168 3.97784423828125 25.59884643554688 5.906402587890625 C 21.19327163696289 7.769805908203125 17.23603057861328 10.43805694580078 13.83704376220703 13.83704376220703 C 10.43805694580078 17.23603057861328 7.769805908203125 21.19327163696289 5.906402587890625 25.59884643554688 C 3.97784423828125 30.1584587097168 2.999992370605469 35.00370025634766 2.999992370605469 39.99999237060547 C 2.999992370605469 44.99628448486328 3.97784423828125 49.84152603149414 5.906402587890625 54.40113830566406 C 7.769805908203125 58.80671310424805 10.43805694580078 62.76395416259766 13.83704376220703 66.16294097900391 C 17.23603057861328 69.56191253662109 21.19327163696289 72.23016357421875 25.59884643554688 74.09356689453125 C 30.1584587097168 76.02212524414062 35.00370025634766 76.99997711181641 39.99999237060547 76.99997711181641 C 44.99628448486328 76.99997711181641 49.84152603149414 76.02212524414062 54.40113830566406 74.09356689453125 C 58.80671310424805 72.23016357421875 62.76395416259766 69.56191253662109 66.16294097900391 66.16294097900391 C 69.56191253662109 62.76395416259766 72.23016357421875 58.80671310424805 74.09356689453125 54.40113830566406 C 76.02212524414062 49.84152603149414 76.99997711181641 44.99628448486328 76.99997711181641 39.99999237060547 C 76.99997711181641 35.00370025634766 76.02212524414062 30.1584587097168 74.09356689453125 25.59884643554688 C 72.23016357421875 21.19327163696289 69.56191253662109 17.23603057861328 66.16294097900391 13.83704376220703 C 62.76395416259766 10.43805694580078 58.80671310424805 7.769805908203125 54.40113830566406 5.906402587890625 C 49.84152603149414 3.97784423828125 44.99628448486328 2.999992370605469 39.99999237060547 2.999992370605469 M 39.99999237060547 -7.62939453125e-06 C 62.09137725830078 -7.62939453125e-06 79.99997711181641 17.90860748291016 79.99997711181641 39.99999237060547 C 79.99997711181641 62.09137725830078 62.09137725830078 79.99997711181641 39.99999237060547 79.99997711181641 C 17.90860748291016 79.99997711181641 -7.62939453125e-06 62.09137725830078 -7.62939453125e-06 39.99999237060547 C -7.62939453125e-06 17.90860748291016 17.90860748291016 -7.62939453125e-06 39.99999237060547 -7.62939453125e-06 Z" stroke="none" fill="#83793c"/>
                      </g>
                    </g>
                  </g>
                </g>
              </g>
            </g>
          </g>
        </g>
      </g>
    </g>
    <g id="Fight" transform="translate(841.632 2105.622)">
      <path id="Trazado_1051692" data-name="Trazado 1051692" d="M42.666,37.988a1.6,1.6,0,0,1-.928-.3l-4.335-3.1A3.19,3.19,0,0,0,35.549,34H30.19A3.19,3.19,0,0,0,27,37.19V54.738H40.183a1.6,1.6,0,0,0,.713-.168l.922-.461a1.6,1.6,0,0,1,.713-.168h2.016V37.988Z" transform="translate(-5.059 -6.476)" fill="#ffbcab"/>
      <path id="Trazado_1051693" data-name="Trazado 1051693" d="M35.393,17a2.393,2.393,0,1,0,0,4.786h4.786a2.393,2.393,0,1,0,0-4.786Z" transform="translate(-6.274 -3.036)" fill="#ffbcab"/>
      <path id="Trazado_1051694" data-name="Trazado 1051694" d="M35.834,14.19H35.18a2.264,2.264,0,0,0,.558.893,2.387,2.387,0,0,0,1.691.7h4.786a2.393,2.393,0,1,0,0-4.786H37.429a2.211,2.211,0,0,0-.8.144v2.249A.8.8,0,0,1,35.834,14.19Z" transform="translate(-6.715 -1.821)" fill="#ffbcab"/>
      <path id="Trazado_1051695" data-name="Trazado 1051695" d="M19,50.393a2.393,2.393,0,0,0,2.393,2.393h4.786a2.393,2.393,0,1,0,0-4.786H21.393A2.393,2.393,0,0,0,19,50.393Z" transform="translate(-3.44 -9.309)" fill="#ffbcab"/>
      <path id="Trazado_1051696" data-name="Trazado 1051696" d="M20.988,42h-1.6a2.393,2.393,0,0,0,0,4.786h4.786a2.387,2.387,0,0,0,1.691-.7,2.264,2.264,0,0,0,.558-.893h-.654a.8.8,0,0,1-.8-.8V42.144a2.211,2.211,0,0,0-.8-.144Z" transform="translate(-3.036 -8.095)" fill="#ffbcab"/>
      <path id="Trazado_1051697" data-name="Trazado 1051697" d="M21,56.393a2.393,2.393,0,0,0,2.393,2.393h4.786a2.393,2.393,0,1,0,0-4.786H23.393A2.393,2.393,0,0,0,21,56.393Z" transform="translate(-3.845 -10.524)" fill="#ffbcab"/>
      <path id="Trazado_1051698" data-name="Trazado 1051698" d="M49,37h9.571V56.143H49Z" transform="translate(-9.512 -7.083)" fill="#006df0"/>
      <circle id="Elipse_13411" data-name="Elipse 13411" cx="1.595" cy="1.595" r="1.595" transform="translate(42.679 42.679)" fill="#f1f2f2"/>
      <path id="Trazado_1051699" data-name="Trazado 1051699" d="M33.393,23a2.393,2.393,0,1,0,0,4.786h4.786a2.393,2.393,0,1,0,0-4.786Z" transform="translate(-5.869 -4.25)" fill="#ffbcab"/>
      <path id="Trazado_1051700" data-name="Trazado 1051700" d="M3,6h9.571V25.143H3Z" transform="translate(-0.202 -0.81)" fill="#006df0"/>
      <circle id="Elipse_13412" data-name="Elipse 13412" cx="1.595" cy="1.595" r="1.595" transform="translate(5.988 17.952)" fill="#f1f2f2"/>
      <path id="Trazado_1051701" data-name="Trazado 1051701" d="M16.882,6.988a1.6,1.6,0,0,0,.928-.3l4.335-3.1A3.19,3.19,0,0,1,24,3h5.358a3.19,3.19,0,0,1,3.19,3.19V23.738H19.365a1.6,1.6,0,0,1-.713-.168l-.922-.461a1.6,1.6,0,0,0-.713-.168H15V6.988Z" transform="translate(-2.631 -0.202)" fill="#ffbcab"/>
      <path id="Trazado_1051702" data-name="Trazado 1051702" d="M40.876,5H36.445a3.155,3.155,0,0,1,.443,1.6v3.19h3.988a2.393,2.393,0,0,0,0-4.786Z" transform="translate(-6.971 -0.607)" fill="#ffbcab"/>
      <path id="Trazado_1051703" data-name="Trazado 1051703" d="M21.393,36h4.431a3.155,3.155,0,0,0-.443,1.6v3.19H21.393a2.393,2.393,0,0,1,0-4.786Z" transform="translate(-3.44 -6.881)" fill="#ffbcab"/>
      <path id="Trazado_1051704" data-name="Trazado 1051704" d="M49,37h2.393V56.143H49Z" transform="translate(-9.512 -7.083)" fill="#005ece"/>
      <path id="Trazado_1051705" data-name="Trazado 1051705" d="M12,6h2.393V25.143H12Z" transform="translate(-2.024 -0.81)" fill="#005ece"/>
      <g id="Grupo_1207720" data-name="Grupo 1207720" transform="translate(2 2)">
        <path id="Trazado_1051706" data-name="Trazado 1051706" d="M51.893,35.393H42.322a.8.8,0,0,0-.8.8v.8H40.44a.787.787,0,0,1-.463-.149l-4.335-3.1A3.963,3.963,0,0,0,33.323,33H27.964a3.971,3.971,0,0,0-3.173,1.6H20.786a3.19,3.19,0,0,0-2.642,4.976,3.171,3.171,0,0,0,0,6,3.174,3.174,0,0,0,1.6,4.786,3.19,3.19,0,0,0,2.642,4.976H37.957a2.4,2.4,0,0,0,1.07-.253l.92-.461a.819.819,0,0,1,.357-.08h1.219v.8a.8.8,0,0,0,.8.8h9.571a.8.8,0,0,0,.8-.8V36.19a.8.8,0,0,0-.8-.8ZM19.659,36.659a1.582,1.582,0,0,1,1.127-.468h3.27a3.988,3.988,0,0,0-.08.8v2.393h-3.19a1.6,1.6,0,0,1-1.127-2.722ZM17.6,42.571a1.6,1.6,0,0,1,1.6-1.6h4.786v1.6a1.59,1.59,0,0,0,.8,1.374,1.579,1.579,0,0,1-.8.222H19.19A1.6,1.6,0,0,1,17.6,42.571Zm1.6,4.786a1.6,1.6,0,0,1,1.6-1.6h4.786a1.6,1.6,0,1,1,0,3.19H20.786A1.6,1.6,0,0,1,19.19,47.357Zm3.19,6.381a1.6,1.6,0,1,1,0-3.19h4.786a1.6,1.6,0,1,1,0,3.19Zm17.924-.8a2.4,2.4,0,0,0-1.07.253l-.92.461a.819.819,0,0,1-.357.08H29.914a3.148,3.148,0,0,0-1.7-4.6,3.173,3.173,0,0,0-1.606-4.786c.042-.062.08-.123.12-.187h.44a3.993,3.993,0,0,0,3.988-3.988h.8a.8.8,0,0,1,.8.8v2.393a3.993,3.993,0,0,0,3.988,3.988h.8a.8.8,0,0,0,0-1.6h-.8a2.393,2.393,0,0,1-2.393-2.393V40.976a2.393,2.393,0,0,0-2.393-2.393h-.8a1.6,1.6,0,0,0-1.6,1.6,2.393,2.393,0,0,1-2.393,2.393h-1.6V36.988A2.393,2.393,0,0,1,27.964,34.6h5.358a2.376,2.376,0,0,1,1.391.446l4.337,3.1a2.382,2.382,0,0,0,1.389.446h1.084V52.941Zm10.79,1.6H43.119V36.988H51.1Z" transform="translate(-4.833 -8.274)" fill="#231f20"/>
        <path id="Trazado_1051707" data-name="Trazado 1051707" d="M54.393,56.786A2.393,2.393,0,1,0,52,54.393,2.393,2.393,0,0,0,54.393,56.786Zm0-3.19a.8.8,0,1,1-.8.8A.8.8,0,0,1,54.393,53.6Z" transform="translate(-12.119 -12.119)" fill="#231f20"/>
        <path id="Trazado_1051708" data-name="Trazado 1051708" d="M8.393,21a2.393,2.393,0,1,0,2.393,2.393A2.393,2.393,0,0,0,8.393,21Zm0,3.19a.8.8,0,1,1,.8-.8A.8.8,0,0,1,8.393,24.19Z" transform="translate(-2.81 -5.845)" fill="#231f20"/>
        <path id="Trazado_1051709" data-name="Trazado 1051709" d="M38.691,11.571a3.185,3.185,0,0,0-2.144-3A3.19,3.19,0,0,0,33.9,3.6H29.9A3.971,3.971,0,0,0,26.726,2H21.368a3.963,3.963,0,0,0-2.318.743l-4.336,3.1a.787.787,0,0,1-.463.149H13.167v-.8a.8.8,0,0,0-.8-.8H2.8a.8.8,0,0,0-.8.8V24.333a.8.8,0,0,0,.8.8h9.571a.8.8,0,0,0,.8-.8v-.8h1.219a.813.813,0,0,1,.357.084l.922.462a2.4,2.4,0,0,0,1.07.252H32.31a3.19,3.19,0,0,0,2.642-4.976,3.174,3.174,0,0,0,1.6-4.786,3.185,3.185,0,0,0,2.144-3ZM33.9,5.19a1.6,1.6,0,1,1,0,3.19h-3.19V5.988a3.988,3.988,0,0,0-.08-.8ZM11.571,23.536H3.6V5.988h7.976Zm4.806-.877-.922-.462a2.4,2.4,0,0,0-1.07-.256H13.167V7.583h1.084a2.382,2.382,0,0,0,1.389-.446l4.336-3.1A2.372,2.372,0,0,1,21.368,3.6h5.358a2.393,2.393,0,0,1,2.393,2.393v5.583h-1.6a2.393,2.393,0,0,1-2.393-2.393,1.6,1.6,0,0,0-1.6-1.6h-.8a2.393,2.393,0,0,0-2.393,2.393v2.393a2.393,2.393,0,0,1-2.393,2.393h-.8a.8.8,0,0,0,0,1.6h.8a3.993,3.993,0,0,0,3.988-3.988V9.976a.8.8,0,0,1,.8-.8h.8a3.993,3.993,0,0,0,3.988,3.988h.44c.037.065.08.125.12.187a3.173,3.173,0,0,0-1.606,4.786,3.148,3.148,0,0,0-1.7,4.6H16.734a.813.813,0,0,1-.357-.08Zm15.933.08H27.524a1.6,1.6,0,0,1,0-3.19H32.31a1.6,1.6,0,0,1,0,3.19Zm1.6-4.786H29.119a1.6,1.6,0,1,1,0-3.19H33.9a1.6,1.6,0,1,1,0,3.19Zm1.6-4.786H30.714a1.579,1.579,0,0,1-.8-.222,1.59,1.59,0,0,0,.8-1.374v-1.6H35.5a1.6,1.6,0,1,1,0,3.19Z" transform="translate(-2 -2)" fill="#231f20"/>
        <path id="Trazado_1051710" data-name="Trazado 1051710" d="M9.988,48.6H6.8a.8.8,0,0,1,0-1.6h3.19a.8.8,0,0,1,0,1.6Z" transform="translate(-2.81 -11.107)" fill="#231f20"/>
        <path id="Trazado_1051711" data-name="Trazado 1051711" d="M10.148,60.69a.8.8,0,0,1-.4-1.488l2.763-1.6a.8.8,0,1,1,.8,1.382l-2.763,1.6a.8.8,0,0,1-.4.107Z" transform="translate(-3.487 -13.232)" fill="#231f20"/>
        <path id="Trazado_1051712" data-name="Trazado 1051712" d="M12.909,37.69a.8.8,0,0,1-.4-.107l-2.763-1.6a.8.8,0,1,1,.8-1.382l2.763,1.6a.8.8,0,0,1-.4,1.488Z" transform="translate(-3.487 -8.577)" fill="#231f20"/>
        <path id="Trazado_1051713" data-name="Trazado 1051713" d="M55.988,16.6H52.8a.8.8,0,0,1,0-1.6h3.19a.8.8,0,0,1,0,1.6Z" transform="translate(-12.119 -4.631)" fill="#231f20"/>
        <path id="Trazado_1051714" data-name="Trazado 1051714" d="M52.747,28.69a.8.8,0,0,1-.4-.107l-2.763-1.6a.8.8,0,1,1,.8-1.382l2.763,1.6a.8.8,0,0,1-.4,1.488Z" transform="translate(-11.549 -6.756)" fill="#231f20"/>
        <path id="Trazado_1051715" data-name="Trazado 1051715" d="M49.985,5.69a.8.8,0,0,1-.4-1.488l2.763-1.6a.8.8,0,1,1,.8,1.382l-2.763,1.6a.8.8,0,0,1-.4.107Z" transform="translate(-11.55 -2.101)" fill="#231f20"/>
      </g>
    </g>
  </g>
</svg>
