<svg xmlns="http://www.w3.org/2000/svg" xmlns:xlink="http://www.w3.org/1999/xlink" width="98" height="98" viewBox="0 0 98 98">
  <defs>
    <filter id="Trazado_982547" x="0" y="0" width="98" height="98" filterUnits="userSpaceOnUse">
      <feOffset dy="3" input="SourceAlpha"/>
      <feGaussianBlur stdDeviation="3" result="blur"/>
      <feFlood flood-opacity="0.161"/>
      <feComposite operator="in" in2="blur"/>
      <feComposite in="SourceGraphic"/>
    </filter>
  </defs>
  <g id="Grupo_1207726" data-name="Grupo 1207726" transform="translate(-1135.561 -2085.552)">
    <g id="Grupo_1207284" data-name="Grupo 1207284" transform="translate(0 135.552)">
      <g id="Grupo_1204572" data-name="Grupo 1204572" transform="translate(863.561 -1890.336)">
        <g id="Grupo_1203962" data-name="Grupo 1203962" transform="translate(281 3846.336)">
          <g id="Grupo_1203498" data-name="Grupo 1203498" transform="translate(0)">
            <g id="Grupo_1202589" data-name="Grupo 1202589">
              <g id="Grupo_1172010" data-name="Grupo 1172010">
                <g id="Grupo_1171046" data-name="Grupo 1171046">
                  <g id="Grupo_1148525" data-name="Grupo 1148525">
                    <g transform="matrix(1, 0, 0, 1, -9, -6)" filter="url(#Trazado_982547)">
                      <g id="Trazado_982547-2" data-name="Trazado 982547" transform="translate(9 6)" fill="#fdfbec">
                        <path d="M 39.99999237060547 78.49998474121094 C 34.8018684387207 78.49998474121094 29.76002502441406 77.48226165771484 25.0145263671875 75.47508239746094 C 20.43014717102051 73.53604888916016 16.31264877319336 70.75984954833984 12.77639198303223 67.22359466552734 C 9.240137100219727 63.68733596801758 6.463936805725098 59.5698356628418 4.524903297424316 54.98546981811523 C 2.517725706100464 50.23995971679688 1.500003457069397 45.19811630249023 1.500003457069397 39.99999237060547 C 1.500003457069397 34.8018684387207 2.517725706100464 29.76002502441406 4.524903297424316 25.0145263671875 C 6.463936805725098 20.43014717102051 9.240137100219727 16.31264877319336 12.77639198303223 12.77639198303223 C 16.31264877319336 9.240137100219727 20.43014717102051 6.463936805725098 25.0145263671875 4.524903297424316 C 29.76002502441406 2.517725706100464 34.8018684387207 1.500003457069397 39.99999237060547 1.500003457069397 C 45.19811630249023 1.500003457069397 50.23995971679688 2.517725706100464 54.98546981811523 4.524903297424316 C 59.5698356628418 6.463936805725098 63.68733596801758 9.240137100219727 67.22359466552734 12.77639198303223 C 70.75984954833984 16.31264877319336 73.53604888916016 20.43014717102051 75.47508239746094 25.0145263671875 C 77.48226165771484 29.76002502441406 78.49998474121094 34.8018684387207 78.49998474121094 39.99999237060547 C 78.49998474121094 45.19812393188477 77.48226165771484 50.23995971679688 75.47508239746094 54.98546981811523 C 73.53604888916016 59.5698356628418 70.75984954833984 63.68733596801758 67.22359466552734 67.22359466552734 C 63.68733596801758 70.75984954833984 59.5698356628418 73.53604888916016 54.98546981811523 75.47508239746094 C 50.23995971679688 77.48226165771484 45.19812393188477 78.49998474121094 39.99999237060547 78.49998474121094 Z" stroke="none"/>
                        <path d="M 39.99999237060547 2.999992370605469 C 35.00370025634766 2.999992370605469 30.1584587097168 3.97784423828125 25.59884643554688 5.906402587890625 C 21.19327163696289 7.769805908203125 17.23603057861328 10.43805694580078 13.83704376220703 13.83704376220703 C 10.43805694580078 17.23603057861328 7.769805908203125 21.19327163696289 5.906402587890625 25.59884643554688 C 3.97784423828125 30.1584587097168 2.999992370605469 35.00370025634766 2.999992370605469 39.99999237060547 C 2.999992370605469 44.99628448486328 3.97784423828125 49.84152603149414 5.906402587890625 54.40113830566406 C 7.769805908203125 58.80671310424805 10.43805694580078 62.76395416259766 13.83704376220703 66.16294097900391 C 17.23603057861328 69.56191253662109 21.19327163696289 72.23016357421875 25.59884643554688 74.09356689453125 C 30.1584587097168 76.02212524414062 35.00370025634766 76.99997711181641 39.99999237060547 76.99997711181641 C 44.99628448486328 76.99997711181641 49.84152603149414 76.02212524414062 54.40113830566406 74.09356689453125 C 58.80671310424805 72.23016357421875 62.76395416259766 69.56191253662109 66.16294097900391 66.16294097900391 C 69.56191253662109 62.76395416259766 72.23016357421875 58.80671310424805 74.09356689453125 54.40113830566406 C 76.02212524414062 49.84152603149414 76.99997711181641 44.99628448486328 76.99997711181641 39.99999237060547 C 76.99997711181641 35.00370025634766 76.02212524414062 30.1584587097168 74.09356689453125 25.59884643554688 C 72.23016357421875 21.19327163696289 69.56191253662109 17.23603057861328 66.16294097900391 13.83704376220703 C 62.76395416259766 10.43805694580078 58.80671310424805 7.769805908203125 54.40113830566406 5.906402587890625 C 49.84152603149414 3.97784423828125 44.99628448486328 2.999992370605469 39.99999237060547 2.999992370605469 M 39.99999237060547 -7.62939453125e-06 C 62.09137725830078 -7.62939453125e-06 79.99997711181641 17.90860748291016 79.99997711181641 39.99999237060547 C 79.99997711181641 62.09137725830078 62.09137725830078 79.99997711181641 39.99999237060547 79.99997711181641 C 17.90860748291016 79.99997711181641 -7.62939453125e-06 62.09137725830078 -7.62939453125e-06 39.99999237060547 C -7.62939453125e-06 17.90860748291016 17.90860748291016 -7.62939453125e-06 39.99999237060547 -7.62939453125e-06 Z" stroke="none" fill="#83793c"/>
                      </g>
                    </g>
                  </g>
                </g>
              </g>
            </g>
          </g>
        </g>
      </g>
    </g>
    <g id="crawl_5772836" transform="translate(1157.357 2076.063)">
      <g id="Grupo_1207724" data-name="Grupo 1207724" transform="translate(0.797 29.667)">
        <path id="Trazado_1051716" data-name="Trazado 1051716" d="M349.611,297.724l.771,2.323.329,2.11h-6.088l-3.9-5.406a4.251,4.251,0,0,1-.8-2.652l.2-5.132a4.611,4.611,0,0,1,4.607-4.433l4.118-.1a52.067,52.067,0,0,1,.269,6.485,12.93,12.93,0,0,1-1.414,3.571.32.32,0,0,0,.042.379l.473.5A6.377,6.377,0,0,1,349.611,297.724Z" transform="translate(-304.591 -258.704)" fill="#e8edf2"/>
        <path id="Trazado_1051717" data-name="Trazado 1051717" d="M351.087,303l-2.5.5-3.956-.5-1.534-2.125-2.369-3.28a4.254,4.254,0,0,1-.8-2.652l.2-5.132a4.61,4.61,0,0,1,4.607-4.433l4.342.392.145.769a12.7,12.7,0,0,1-.1,5.223,17.327,17.327,0,0,1-2.667,3.162,1.018,1.018,0,0,0-.23,1.17c.454.98,1.19,2.734,1.9,4.453a.531.531,0,0,0,.491.328h1.411q.183,0,.362.016Z" transform="translate(-304.595 -259.551)" fill="#d9e7ec"/>
        <path id="Trazado_1051718" data-name="Trazado 1051718" d="M181.447,397.833l3.439-.41c.361,0,1.867.3,1.867.3a5.315,5.315,0,0,0,4.258-5.208v-.538l-.445-1.092.445-2.971H185.2Z" transform="translate(-162.962 -351.193)" fill="#fcda70"/>
        <path id="Trazado_1051719" data-name="Trazado 1051719" d="M457.573,454.411h1.246a1.063,1.063,0,0,0,1.063-1.063,2.125,2.125,0,0,0-2.125-2.125h-.57l-1.481,1.649Z" transform="translate(-408.077 -407.771)" fill="#ea9f6c"/>
        <path id="Trazado_1051720" data-name="Trazado 1051720" d="M17.015,430.971l-7.121.07c-1.086,0-2.158-1.676-2.158-1.676,0-.054-.175-.1-.171-.157A1.966,1.966,0,0,1,9.523,427.4h1.118a1.945,1.945,0,0,0,1.544-.762,3.158,3.158,0,0,1,4.344-.648l.486.348.96,2.175Z" transform="translate(-7.557 -384.694)" fill="#f4aa73"/>
        <path id="Trazado_1051721" data-name="Trazado 1051721" d="M191.014,387.92v4.064c-.125.016-1.252.082-1.825.116a.318.318,0,0,0-.3.318v.1a7.415,7.415,0,0,1-2.133,5.208,5.312,5.312,0,0,1-1.055.1H181.45l3.748-9.915Z" transform="translate(-162.965 -351.195)" fill="#ffcd69"/>
        <path id="Trazado_1051722" data-name="Trazado 1051722" d="M110.84,262.37l5.221-1.816,3.411.721a23.479,23.479,0,0,0,7.8-3.972,11.078,11.078,0,0,0,3.717-12.311H106.655c-.139,0-.259.126-.395.133a7.761,7.761,0,0,0-4.87,2.046l-.084.073a7.771,7.771,0,0,0-2.549,6.1v.093a11.047,11.047,0,0,0,2.194,6.465c.355.484.343,1.019.691,1.509l.73.737s.068.861.062.854a5.051,5.051,0,0,0-2.024.412L96.5,265.1v4.632l8.839-.009a5.233,5.233,0,0,0,5.056-2.946,2.311,2.311,0,0,1,.163-.284,5.309,5.309,0,0,0,.282-1.712Z" transform="translate(-87.042 -223.454)" fill="#fee97d"/>
        <path id="Trazado_1051723" data-name="Trazado 1051723" d="M16.958,461.22l1.284,1.063-1.284,1.063H9.466A1.966,1.966,0,0,1,7.5,461.379a1.572,1.572,0,0,1,.007-.159Z" transform="translate(-7.5 -416.705)" fill="#ea9f6c"/>
        <path id="Trazado_1051724" data-name="Trazado 1051724" d="M110.559,447.33a5.316,5.316,0,0,1-5.032,3.6H96.5v-2.125h10.383a5.294,5.294,0,0,0,3.676-1.476Z" transform="translate(-87.042 -404.291)" fill="#fcda70"/>
        <path id="Trazado_1051725" data-name="Trazado 1051725" d="M114.908,247.715l-.084.073A8.265,8.265,0,0,0,112,254.01v.094a10.894,10.894,0,0,0,2.1,6.444c.355.485.742,1.024,1.089,1.514l1.037.71s.068.861.062.853a6.5,6.5,0,0,1,2.338,0c.006.007-.062-.853-.062-.853s-1.771-1.74-2.126-2.224a10.894,10.894,0,0,1-2.1-6.444v-.094a8.265,8.265,0,0,1,2.825-6.222l.084-.073a8.5,8.5,0,0,1,2.147-1.369v-.66a8.5,8.5,0,0,0-4.485,2.029Z" transform="translate(-100.895 -224.075)" fill="#fcda70"/>
        <g id="Grupo_1207722" data-name="Grupo 1207722" transform="translate(14.294 37.944)">
          <path id="Trazado_1051726" data-name="Trazado 1051726" d="M147.367,401.967a.8.8,0,0,1-1.123.087A5.818,5.818,0,0,0,143.11,401s-.49-.708-1.1-1.564a7.614,7.614,0,0,1,5.267,1.41A.8.8,0,0,1,147.367,401.967Z" transform="translate(-142.011 -399.39)" fill="#fcda70"/>
        </g>
        <g id="Grupo_1207723" data-name="Grupo 1207723" transform="translate(17.693 20.286)">
          <path id="Trazado_1051727" data-name="Trazado 1051727" d="M175.594,239.068A1.594,1.594,0,0,1,174,237.474v-3.719a.531.531,0,0,1,.531-.531h2.125a.531.531,0,0,1,.531.531v3.719A1.594,1.594,0,0,1,175.594,239.068Z" transform="translate(-174 -233.223)" fill="#f5f8f9"/>
          <path id="Trazado_1051728" data-name="Trazado 1051728" d="M245.435,342.265l-.228,4.811a23.468,23.468,0,0,1-7.452,1.677l-1.832.106-1.24-.179-.012-3.428c.481-.536,1.252-1.672,1.252-1.672a9.421,9.421,0,0,1,6.457-1.655Z" transform="translate(-228.223 -330.322)" fill="#f5f8f9"/>
          <path id="Trazado_1051729" data-name="Trazado 1051729" d="M312.594,295.669a3.6,3.6,0,0,1,1.026,1.382l2.5,5.954-2.2.438-3.744-.438-3.819-5.406a4.251,4.251,0,0,1-.8-2.652l.2-5.132c.1-2.476,1.531-4.433,4.009-4.433a4.611,4.611,0,0,1,4.585,5.1,10.843,10.843,0,0,1-.972,3.792l-.628.445Z" transform="translate(-291.57 -279.84)" fill="#f5f8f9"/>
        </g>
        <path id="Trazado_1051730" data-name="Trazado 1051730" d="M306.964,303l-.729.439L304.626,303l-3.9-5.406a4.254,4.254,0,0,1-.8-2.652l.2-5.132a4.615,4.615,0,0,1,5.778-4.284,4.613,4.613,0,0,0-3.44,4.284l-.2,5.132a4.254,4.254,0,0,0,.8,2.652Z" transform="translate(-268.845 -259.551)" fill="#e8edf2"/>
        <path id="Trazado_1051731" data-name="Trazado 1051731" d="M395.467,453.345a3.15,3.15,0,0,1-.184,1.063h-3l-3.11-.24a2.128,2.128,0,0,1-1.878-.714l-1.282-1.944,5.207-.29h3.68A4.228,4.228,0,0,1,395.467,453.345Z" transform="translate(-345.786 -407.768)" fill="#dd9162"/>
        <path id="Trazado_1051732" data-name="Trazado 1051732" d="M353.594,454.25l1.922.161h5.409a1.063,1.063,0,0,0,1.063-1.063,2.125,2.125,0,0,0-2.125-2.125h-7.311l-1.624.254.886,1.851A2.107,2.107,0,0,0,353.594,454.25Z" transform="translate(-314.433 -407.771)" fill="#f4aa73"/>
        <path id="Trazado_1051733" data-name="Trazado 1051733" d="M349.8,454.408h-2.338a2.124,2.124,0,0,1-1.775-.954l-1.473-2.234h2.338l1.473,2.234A2.124,2.124,0,0,0,349.8,454.408Z" transform="translate(-308.429 -407.768)" fill="#ea9f6c"/>
        <path id="Trazado_1051734" data-name="Trazado 1051734" d="M257.233,177.256H234.677a3.23,3.23,0,0,1-3.23-3.23v-.01a2.153,2.153,0,0,1,2.153-2.153h24.71a2.153,2.153,0,0,1,2.153,2.153v.01A3.23,3.23,0,0,1,257.233,177.256Z" transform="translate(-207.649 -158.097)" fill="#ea9f6c"/>
        <path id="Trazado_1051735" data-name="Trazado 1051735" d="M279.2,96.805a3.143,3.143,0,0,1-.222-1.25q.007-.191.007-.383a11.257,11.257,0,1,0-22.514,0q0,.192.007.383a3.142,3.142,0,0,1-.222,1.25,6.574,6.574,0,0,0,6.124,8.957q.219,0,.434-.015a2.081,2.081,0,0,1,1.337.368,6.677,6.677,0,0,0,3.577,1.124,6.927,6.927,0,0,0,3.576-1.131,2.094,2.094,0,0,1,1.33-.362q.219.015.442.015a6.574,6.574,0,0,0,6.124-8.957Z" transform="translate(-229.422 -79.49)" fill="#f4aa73"/>
        <path id="Trazado_1051736" data-name="Trazado 1051736" d="M346.3,46.569a3.128,3.128,0,0,1-2.924,2.843,2.562,2.562,0,0,1-2.877-1.75,2.27,2.27,0,0,1,.575-2.448c.124-.121.349-.376.349-.376a4.874,4.874,0,0,1,.859-.5,1.648,1.648,0,0,0,.882-1.669.318.318,0,0,1,.446-.325,4.483,4.483,0,0,1,2.764,4.06A.673.673,0,0,0,346.3,46.569Z" transform="translate(-305.003 -42.32)" fill="#bc7c63"/>
        <path id="Trazado_1051737" data-name="Trazado 1051737" d="M345.2,67.58c0,.048-.005.1-.011.143a3.314,3.314,0,0,1-2.912,3.067,2.941,2.941,0,0,1-3.11-1.895,2.548,2.548,0,0,1,1.082-2.885,3.047,3.047,0,0,0,.087.441,2.941,2.941,0,0,0,3.11,1.895A3.556,3.556,0,0,0,345.2,67.58Z" transform="translate(-303.829 -63.493)" fill="#aa6a51"/>
      </g>
      <g id="Grupo_1207725" data-name="Grupo 1207725" transform="translate(0 28.162)">
        <path id="Trazado_1051738" data-name="Trazado 1051738" d="M50.477,71.8H47.864l-1.291-3.887A7.225,7.225,0,0,0,45,65.271l-.232-.248A13.4,13.4,0,0,0,46.2,56a7.382,7.382,0,0,0,5.617-7.159s0,0,0-.006a4.04,4.04,0,0,0,2.589-3.772,2.954,2.954,0,0,0-2.95-2.95h-.613A12.094,12.094,0,0,0,42.956,33.4a5.335,5.335,0,0,0-3.927-5.209.8.8,0,0,0-.953,1.077.865.865,0,0,1-.328,1.173A3.828,3.828,0,0,0,35.254,33.4a11.958,11.958,0,0,0-3.8,2.106.8.8,0,0,0,1.012,1.232,10.38,10.38,0,0,1,2.983-1.719,3.81,3.81,0,0,0,3.453,2.25,4.219,4.219,0,0,0,3.643-2.321,10.492,10.492,0,0,1,7.014,9.882q0,.179-.006.356a3.922,3.922,0,0,0,.276,1.567,5.778,5.778,0,0,1-5.382,7.87c-.128,0-.259,0-.388-.013a2.912,2.912,0,0,0-1.835.5A6.108,6.108,0,0,1,39.1,56.1a5.892,5.892,0,0,1-3.12-.98,2.89,2.89,0,0,0-1.848-.511c-.126.008-.254.013-.38.013a5.778,5.778,0,0,1-5.382-7.87,3.923,3.923,0,0,0,.276-1.567q-.006-.177-.006-.356a10.443,10.443,0,0,1,1.566-5.51.8.8,0,0,0-1.355-.84,12,12,0,0,0-1.5,3.638h-.61a2.956,2.956,0,0,0-2.95,2.96,4.041,4.041,0,0,0,2.589,3.762s0,0,0,.007a7.4,7.4,0,0,0,.075,1.042h-3.99a1.329,1.329,0,0,0-1.324-1.251H19.021a1.33,1.33,0,0,0-1.328,1.328v.329A9.642,9.642,0,0,0,14.2,52.26a9.072,9.072,0,0,0-3.1,6.732.8.8,0,0,0,.789.8H11.9a.8.8,0,0,0,.8-.789,7.476,7.476,0,0,1,2.552-5.548,8.15,8.15,0,0,1,2.442-1.483v1.707a2.391,2.391,0,0,0,4.782,0v-2.2h4.4a7.39,7.39,0,0,0,5.659,4.632,5.4,5.4,0,0,0-1.26,3.266l-.031.809a10.164,10.164,0,0,0-5.852,2.1V60.645a.8.8,0,1,0-1.594,0v9.83a4.521,4.521,0,0,1-4.516,4.516h-8.23V71.318l3.429-1.476a4.276,4.276,0,0,1,4.182.463.8.8,0,0,0,.935-1.291,5.856,5.856,0,0,0-2.919-1.086l-2.034-2.779a10.056,10.056,0,0,1-1.411-2.715.8.8,0,0,0-1.51.512,11.651,11.651,0,0,0,1.634,3.145L14.8,68.063a5.788,5.788,0,0,0-.952.314l-3.5,1.506a3.976,3.976,0,0,0-5.561.726,1.154,1.154,0,0,1-.911.45H2.763a2.763,2.763,0,0,0,0,5.526H23.532a6.107,6.107,0,0,0,4.011-1.5.8.8,0,1,0-1.047-1.2,4.7,4.7,0,0,1-3.1,1.109,6.1,6.1,0,0,0,2-4.516V68.815l2.657-.154v1.813a4.572,4.572,0,0,1-.049.671.8.8,0,0,0,.671.905.812.812,0,0,0,.118.009.8.8,0,0,0,.787-.68,6.174,6.174,0,0,0,.067-.905V68.515a24.36,24.36,0,0,0,2.658-.479l3.621,5.016,1.464,2.22a2.915,2.915,0,0,0,2.439,1.313H51.539a1.862,1.862,0,0,0,1.86-1.86A2.926,2.926,0,0,0,50.477,71.8ZM39.119,35.659a2.177,2.177,0,0,1-2.212-1.317c-.282-1.042.223-1.865,1.5-2.448a2.441,2.441,0,0,0,1.3-1.644A3.537,3.537,0,0,1,41.366,33.3,2.513,2.513,0,0,1,39.119,35.659Zm12.339,8.052a1.36,1.36,0,0,1,1.356,1.366,2.439,2.439,0,0,1-1.188,2.091,7.344,7.344,0,0,0-.308-.995,2.339,2.339,0,0,1-.168-.933c0-.137.007-.276.007-.411,0-.376-.019-.749-.054-1.119ZM20.881,53.685a.8.8,0,1,1-1.594,0V50.231h1.594Zm4.511-8.618a1.358,1.358,0,0,1,1.356-1.356H27.1c-.034.371-.053.744-.053,1.119,0,.136,0,.275.007.411a2.34,2.34,0,0,1-.168.933,7.334,7.334,0,0,0-.308.994A2.448,2.448,0,0,1,25.392,45.067ZM1.594,73.822a1.17,1.17,0,0,1,1.169-1.169H3.881a2.758,2.758,0,0,0,2.176-1.074,2.4,2.4,0,0,1,3.4-.375v3.788H2.763A1.17,1.17,0,0,1,1.594,73.822ZM43.2,65.683l.636.678a5.619,5.619,0,0,1,1.225,2.057L46.184,71.8H43.568l-2.294-5.466a4.373,4.373,0,0,0-.751-1.194,11,11,0,0,0,.635-1.246c.12-.09.24-.18.358-.271a11.894,11.894,0,0,0,3.272-3.93,11.984,11.984,0,0,1-1.69,5.03A.8.8,0,0,0,43.2,65.683Zm-.07-9.259a1.288,1.288,0,0,1,.825-.225c.128.009.256.013.383.015a10.358,10.358,0,0,1-2.379,4.819q.023-.164.04-.329l.058-.544a5.385,5.385,0,0,0-.514-2.938A7.228,7.228,0,0,0,43.13,56.424Zm-17.738,10.8v-2.8a8.59,8.59,0,0,1,5.791-2.634l-.1,2.725a5.065,5.065,0,0,0,.366,2.085,22.772,22.772,0,0,1-3.468.473ZM36.985,71.8l-3.664-5.076a3.469,3.469,0,0,1-.651-2.154l.2-5.132a3.812,3.812,0,0,1,1.917-3.164,1.249,1.249,0,0,1,.283.148A7.507,7.507,0,0,0,39.1,57.694a5.976,5.976,0,0,0,.848-.065,3.8,3.8,0,0,1,.521,2.363l-.058.544a9.433,9.433,0,0,1-1.154,3.61,4.35,4.35,0,0,0-.9-.356.8.8,0,0,0-.413,1.54A2.826,2.826,0,0,1,39.8,66.954L41.839,71.8H36.985Zm1.731,2.591-.658-1h8.168a1.33,1.33,0,0,1,1.328,1.328.266.266,0,0,1-.266.266H39.825a1.324,1.324,0,0,1-1.109-.6Zm12.824.6H49.127a1.856,1.856,0,0,0,.021-.266,2.9,2.9,0,0,0-.321-1.328h1.649a1.33,1.33,0,0,1,1.328,1.328A.266.266,0,0,1,51.54,74.991Z" transform="translate(0 -28.162)"/>
        <path id="Trazado_1051742" data-name="Trazado 1051742" d="M340.367,247.316a.8.8,0,0,0,.348,1.072,5.539,5.539,0,0,0,5.015,0,.8.8,0,0,0-.724-1.42,3.94,3.94,0,0,1-3.568,0,.8.8,0,0,0-1.072.348Z" transform="translate(-304.119 -223.639)"/>
      </g>
    </g>
  </g>
</svg>
