<svg xmlns="http://www.w3.org/2000/svg" width="38.028" height="38.028" viewBox="0 0 38.028 38.028">
  <path id="knowledge_18514026" d="M46.968,39.91a1.991,1.991,0,0,0-.932-1.213h0a1.983,1.983,0,0,0-1.091-.267V33.992a.631.631,0,0,0-.015-.129.541.541,0,0,0-.653-.4L33.25,36.191a2.077,2.077,0,0,0-.56-1.942c-.025-.025-.051-.05-.078-.074q.04-.036.078-.074a2.08,2.08,0,0,0,.1-2.848,4.778,4.778,0,0,1,.509-.807,13.921,13.921,0,0,1,1.287-1.394,9.585,9.585,0,0,0,.131-13.612,9.4,9.4,0,0,0-13.381,0,9.58,9.58,0,0,0,.129,13.612,13.4,13.4,0,0,1,1.287,1.394,4.647,4.647,0,0,1,.51.807,2.079,2.079,0,0,0,.095,2.848c.025.025.052.05.078.074-.027.024-.053.049-.078.074a2.075,2.075,0,0,0-.559,1.942L11.767,33.468a.539.539,0,0,0-.65.4.506.506,0,0,0-.015.129h0V38.43a1.982,1.982,0,0,0-1.056.247.183.183,0,0,0-.035.02,2,2,0,0,0-.731,2.73,2,2,0,0,0,1.213.932l17.385,4.659a.544.544,0,0,0,.284,0l17.394-4.659a1.994,1.994,0,0,0,1.191-.9c.007-.011.015-.022.022-.033a2,2,0,0,0,.2-1.517Zm-3.1-1.239-15.3,4.1V40.909h.2a2.991,2.991,0,0,0,2.987-2.985c0-.058,0-.118-.007-.178a2.073,2.073,0,0,0,.478-.19l11.649-2.879v3.994ZM24.114,31.912a1.008,1.008,0,0,1,.714-.3h6.387a1.01,1.01,0,0,1,0,2.021H24.828a1.009,1.009,0,0,1-.714-1.724Zm0,3.1a1.008,1.008,0,0,1,.714-.3h6.387a1.01,1.01,0,0,1,0,2.021H24.828a1.009,1.009,0,0,1-.714-1.724Zm1.265,2.8h5.285c0,.036,0,.073,0,.111a1.918,1.918,0,0,1-1.909,1.909h-.627a.546.546,0,0,0-.217,0h-.629a1.922,1.922,0,0,1-1.909-1.909c0-.039,0-.075,0-.111Zm-3.17-9.532A8.52,8.52,0,0,1,22.093,16.2a8.335,8.335,0,0,1,11.858,0,8.5,8.5,0,0,1-.118,12.083,14.638,14.638,0,0,0-1.388,1.508,6.005,6.005,0,0,0-.558.86,2.079,2.079,0,0,0-.673-.112H24.828a2.077,2.077,0,0,0-.671.111,5.957,5.957,0,0,0-.557-.86,14.446,14.446,0,0,0-1.39-1.508Zm1.618,9.275a2.082,2.082,0,0,0,.478.19c0,.06-.006.12-.006.178a2.988,2.988,0,0,0,2.985,2.985h.2V42.77l-15.306-4.1V34.677l11.65,2.879Zm22.008,3.332-.013.024a.918.918,0,0,1-.548.406L28.022,45.941,10.768,41.317a.92.92,0,0,1-.561-.428v0a.925.925,0,0,1,.338-1.261l.022-.013a.93.93,0,0,1,.679-.079l.227.061a.525.525,0,0,0,.058.016l16.321,4.373a.531.531,0,0,0,.349,0l16.31-4.37a.537.537,0,0,0,.062-.017l.224-.06a.923.923,0,0,1,1.039,1.353ZM24.522,28.231a2.363,2.363,0,0,0,3.343-.006q.082-.082.156-.171.074.089.156.171a2.371,2.371,0,0,0,3.991-1.168,2.353,2.353,0,0,0,.235-.063l0,0q.1-.033.2-.074l.007,0,.095-.043.024-.012q.073-.036.142-.076l.053-.031.064-.041q.05-.033.1-.068l.048-.037.074-.059.044-.038c.033-.029.065-.059.1-.09l.011-.01a2.353,2.353,0,0,0,.372-.483l.011-.019a2.35,2.35,0,0,0,.279-.785l0-.017c0-.019.005-.037.008-.056s.006-.045.008-.067,0-.018,0-.028c0-.032.006-.064.007-.1v-.014q0-.054,0-.107s0,0,0-.005,0,0,0-.007q0-.057,0-.113v-.027c0-.029,0-.058-.007-.087s0-.032,0-.049,0-.024-.005-.037c-.009-.071-.021-.141-.037-.211a2.373,2.373,0,0,0,0-4.067,2.355,2.355,0,0,0,.052-.378v-.011q0-.058,0-.117s0,0,0-.007,0,0,0-.005c0-.036,0-.072,0-.107,0,0,0-.009,0-.013q0-.049-.007-.1l0-.023c0-.025-.006-.05-.01-.076s0-.031-.006-.046,0-.023-.006-.034a2.354,2.354,0,0,0-.275-.768l-.015-.027a2.374,2.374,0,0,0-.368-.477l-.011-.01c-.031-.031-.064-.061-.1-.09l-.043-.037-.074-.06-.043-.033c-.034-.025-.069-.049-.1-.072l-.06-.038-.06-.036c-.04-.023-.08-.045-.121-.065l-.044-.022-.084-.038-.036-.015q-.074-.03-.15-.056l-.044-.014-.083-.024-.009,0-.053-.013-.072-.018a2.37,2.37,0,0,0-4-1.187q-.082.082-.156.171-.074-.089-.156-.171a2.371,2.371,0,0,0-4,1.187l-.071.018-.053.013-.009,0-.083.024-.043.014q-.078.026-.153.057l-.034.014-.086.039-.032.016q-.072.036-.141.076l-.044.026-.074.047-.035.024q-.069.048-.135.1l-.024.019c-.06.049-.119.1-.174.155a2.4,2.4,0,0,0-.373.487l-.006.01a2.361,2.361,0,0,0-.315,1.179c0,.059,0,.117.007.176v.012c0,.032.005.063.009.095s.005.038.008.057,0,.034.007.052q.01.061.023.121a2.409,2.409,0,0,0-.694.635,2.369,2.369,0,0,0,.7,3.432,2.392,2.392,0,0,0-.043.25c0,.024,0,.047-.007.071s0,.025,0,.037c0,.034,0,.068-.005.1v0c0,.023,0,.045,0,.068a2.361,2.361,0,0,0,.316,1.183l0,0a2.369,2.369,0,0,0,1.571,1.135,2.347,2.347,0,0,0,.646,1.174Zm4.417-11.352a1.291,1.291,0,0,1,1.829,0,1.279,1.279,0,0,1,.3.46,2.346,2.346,0,0,0-.512.208.539.539,0,1,0,.524.936,1.288,1.288,0,0,1,.6-.151h.016c.043,0,.085,0,.126.006l.023,0q.049.006.1.015l.044.01.075.019.048.015c.025.008.05.017.074.027l.037.016c.028.012.056.025.083.04l.022.012c.031.017.062.036.091.055l.008.005a1.293,1.293,0,0,1,.56.935s0,.007,0,.011q.005.057.006.115c0,.009,0,.018,0,.028,0,.036,0,.071-.006.105,0,.019,0,.038-.007.058s-.008.05-.013.075-.008.038-.012.056-.013.048-.021.072-.013.044-.021.066l-.008.018a1.282,1.282,0,0,1-.56.652.538.538,0,0,0,.539.932,2.358,2.358,0,0,0,.657-.562,1.3,1.3,0,0,1,.3.293,1.292,1.292,0,0,1-.307,1.824,2.363,2.363,0,0,0-.6-.522.539.539,0,0,0-.7.816h0a.534.534,0,0,0,.111.085,1.282,1.282,0,0,1,.523.573,1.166,1.166,0,0,1,.047.113l.005.017c.013.039.025.079.035.119l.006.03q.01.046.016.093c0,.018,0,.036.006.054s0,.031,0,.046,0,.057,0,.086,0,.076-.006.114c0,0,0,.009,0,.014a1.291,1.291,0,0,1-.373.779,1.308,1.308,0,0,1-.183.152l-.017.011c-.025.017-.051.032-.077.047l-.043.024-.054.026c-.024.011-.049.022-.073.031l-.028.01c-.034.012-.068.023-.1.032h0c-.038.01-.076.019-.115.025h0c-.038.007-.077.012-.116.015h-.016a1.272,1.272,0,0,1-.7-.148.538.538,0,0,0-.685.825.505.505,0,0,0,.162.113,2.369,2.369,0,0,0,.507.205,1.3,1.3,0,0,1-.3.45,1.279,1.279,0,0,1-.91.373,1.293,1.293,0,0,1-1.292-1.294V17.793A1.288,1.288,0,0,1,28.939,16.879Zm-6.721,4.53a1.277,1.277,0,0,1,.3-.293,2.371,2.371,0,0,0,.657.562.538.538,0,0,0,.539-.932,1.278,1.278,0,0,1-.6-.786c-.009-.033-.016-.067-.022-.1,0-.018-.006-.035-.009-.054s0-.032-.006-.048c0-.043-.007-.087-.007-.134a1.289,1.289,0,0,1,.154-.612l0,0q.029-.054.063-.1v0q.034-.05.072-.1l0,0c.023-.028.048-.056.074-.082l.015-.015q.039-.038.081-.073l.009-.008c.029-.023.059-.045.089-.066l.013-.009c.029-.019.058-.037.088-.053l.024-.013c.026-.014.054-.027.081-.039l.038-.016.073-.027.049-.016.076-.019.04-.009q.051-.01.1-.016l.017,0c.042,0,.085-.006.128-.006h.018a1.3,1.3,0,0,1,.593.152.538.538,0,1,0,.522-.936,2.345,2.345,0,0,0-.512-.208,1.293,1.293,0,0,1,2.5.454v8.755a1.295,1.295,0,0,1-2.2.921,1.3,1.3,0,0,1-.295-.449,2.37,2.37,0,0,0,.507-.205.515.515,0,0,0,.164-.113.538.538,0,0,0-.685-.825,1.28,1.28,0,0,1-.694.149h-.021q-.056,0-.111-.014h-.006q-.057-.01-.113-.025h0c-.035-.009-.069-.021-.1-.033l-.026-.01c-.025-.01-.05-.021-.075-.032l-.052-.025-.046-.025c-.025-.014-.05-.029-.074-.045l-.022-.015c-.029-.02-.057-.041-.084-.063l-.011-.009q-.042-.035-.08-.072l-.015-.015c-.024-.024-.047-.049-.069-.076l-.015-.019c-.02-.025-.04-.052-.059-.079l-.019-.03a1.287,1.287,0,0,1-.207-.7c0-.047,0-.092.007-.137,0-.013,0-.025,0-.038s.008-.052.013-.078.01-.051.017-.076l.008-.027c.009-.033.019-.065.031-.1l.007-.018a1.277,1.277,0,0,1,.556-.651.55.55,0,0,0,.113-.085.539.539,0,0,0-.7-.816,2.377,2.377,0,0,0-.6.521,1.292,1.292,0,0,1-.555-1.062,1.274,1.274,0,0,1,.249-.762Zm5.266-10.263v-1.6a.539.539,0,0,1,1.078,0v1.6a.539.539,0,0,1-1.078,0Zm5.586,1.209.8-1.386a.537.537,0,0,1,.932.535L34,12.89a.536.536,0,1,1-.93-.535ZM37.1,16.925a.534.534,0,0,1,.2-.731l1.384-.8a.537.537,0,0,1,.535.932l-1.384.8a.536.536,0,0,1-.733-.2Zm1.942,4.707h1.6a.539.539,0,1,1,0,1.078h-1.6a.539.539,0,1,1,0-1.078Zm.177,6.385a.538.538,0,0,1-.539.932l-1.384-.8a.537.537,0,1,1,.539-.93l1.384.8ZM21.245,11.5a.536.536,0,0,1,.93-.535l.8,1.386a.537.537,0,0,1-.932.535Zm-4.622,4.087a.538.538,0,0,1,.733-.2l1.386.8a.536.536,0,0,1-.535.93l-1.386-.8a.538.538,0,0,1-.2-.733Zm-1.765,6.579a.54.54,0,0,1,.539-.539H17a.539.539,0,1,1,0,1.078H15.4A.54.54,0,0,1,14.857,22.171ZM18.2,27.218a.537.537,0,0,1,.539.93l-1.386.8a.538.538,0,1,1-.539-.932l1.386-.8Z" transform="translate(-9.008 -9.008)"/>
</svg>
