<svg xmlns="http://www.w3.org/2000/svg" xmlns:xlink="http://www.w3.org/1999/xlink" width="108" height="108" viewBox="0 0 108 108">
  <defs>
    <filter id="Trazado_904820" x="0" y="0" width="108" height="108" filterUnits="userSpaceOnUse">
      <feOffset dy="3" input="SourceAlpha"/>
      <feGaussianBlur stdDeviation="3" result="blur"/>
      <feFlood flood-opacity="0.161"/>
      <feComposite operator="in" in2="blur"/>
      <feComposite in="SourceGraphic"/>
    </filter>
  </defs>
  <g id="Grupo_1207792" data-name="Grupo 1207792" transform="translate(9 6)">
    <g id="Grupo_1173585" data-name="Grupo 1173585" transform="translate(0 0)">
      <g id="Grupo_1173428" data-name="Grupo 1173428">
        <g id="Grupo_1171958" data-name="Grupo 1171958">
          <g id="Grupo_1167341" data-name="Grupo 1167341">
            <g id="Grupo_1166792" data-name="Grupo 1166792">
              <g transform="matrix(1, 0, 0, 1, -9, -6)" filter="url(#Trazado_904820)">
                <g id="Trazado_904820-2" data-name="Trazado 904820" transform="translate(9 6)" fill="#fdfbec">
                  <path d="M 44.99999618530273 88.5 C 39.12687301635742 88.5 33.43022155761719 87.35008239746094 28.06829643249512 85.08216857910156 C 22.88852119445801 82.89131927490234 18.23629570007324 79.75459289550781 14.24084663391113 75.75914001464844 C 10.24540901184082 71.76369476318359 7.108683586120605 67.11146545410156 4.917821407318115 61.93170547485352 C 2.649921178817749 56.56976699829102 1.499996185302734 50.87312698364258 1.499996185302734 45.00000381469727 C 1.499996185302734 39.12688064575195 2.649921178817749 33.43022918701172 4.917821407318115 28.06830406188965 C 7.108683586120605 22.88852882385254 10.24540901184082 18.23630332946777 14.24084663391113 14.24085426330566 C 18.23629570007324 10.24541664123535 22.88852119445801 7.108691215515137 28.06829643249512 4.917829036712646 C 33.43022155761719 2.64992880821228 39.12687301635742 1.500003814697266 44.99999618530273 1.500003814697266 C 50.87311935424805 1.500003814697266 56.56977081298828 2.64992880821228 61.93169784545898 4.917829036712646 C 67.11147308349609 7.108691215515137 71.76369476318359 10.24541664123535 75.75914764404297 14.24085426330566 C 79.75458526611328 18.23630332946777 82.89131164550781 22.88852882385254 85.08216857910156 28.06830406188965 C 87.35007476806641 33.43022918701172 88.5 39.12688064575195 88.5 45.00000381469727 C 88.5 50.87312698364258 87.35007476806641 56.56976699829102 85.08216857910156 61.93170547485352 C 82.89131164550781 67.11146545410156 79.75458526611328 71.76369476318359 75.75914764404297 75.75914001464844 C 71.76369476318359 79.75459289550781 67.11147308349609 82.89131927490234 61.93169784545898 85.08216857910156 C 56.56977081298828 87.35008239746094 50.87311935424805 88.5 44.99999618530273 88.5 Z" stroke="none"/>
                  <path d="M 44.99999618530273 3.000007629394531 C 39.32870864868164 3.000007629394531 33.82865142822266 4.110061645507812 28.65262603759766 6.299346923828125 C 23.65165710449219 8.414573669433594 19.15968322753906 11.44334411621094 15.301513671875 15.30152130126953 C 11.44333648681641 19.15969085693359 8.414566040039062 23.65166473388672 6.299339294433594 28.65263366699219 C 4.110054016113281 33.82865905761719 2.999992370605469 39.32871627807617 2.999992370605469 45.00000381469727 C 2.999992370605469 50.67129135131836 4.110054016113281 56.17133331298828 6.299339294433594 61.34737396240234 C 8.414566040039062 66.34834289550781 11.44333648681641 70.84030151367188 15.301513671875 74.698486328125 C 19.15968322753906 78.55666351318359 23.65165710449219 81.58543395996094 28.65262603759766 83.70066070556641 C 33.82865142822266 85.88994598388672 39.32870864868164 87 44.99999618530273 87 C 50.67128372192383 87 56.17134094238281 85.88994598388672 61.34736633300781 83.70066070556641 C 66.34834289550781 81.58543395996094 70.84030914306641 78.55666351318359 74.69847869873047 74.698486328125 C 78.55665588378906 70.84030151367188 81.58542633056641 66.34834289550781 83.70065307617188 61.34737396240234 C 85.88993835449219 56.17133331298828 87 50.67129135131836 87 45.00000381469727 C 87 39.32871627807617 85.88993835449219 33.82865905761719 83.70065307617188 28.65263366699219 C 81.58542633056641 23.65166473388672 78.55665588378906 19.15969085693359 74.69847869873047 15.30152130126953 C 70.84030914306641 11.44334411621094 66.34834289550781 8.414573669433594 61.34736633300781 6.299346923828125 C 56.17134094238281 4.110061645507812 50.67128372192383 3.000007629394531 44.99999618530273 3.000007629394531 M 44.99999618530273 7.62939453125e-06 C 69.85281372070312 7.62939453125e-06 90 20.14718627929688 90 45.00000381469727 C 90 69.85280609130859 69.85281372070312 90 44.99999618530273 90 C 20.14717864990234 90 -7.62939453125e-06 69.85280609130859 -7.62939453125e-06 45.00000381469727 C -7.62939453125e-06 20.14718627929688 20.14717864990234 7.62939453125e-06 44.99999618530273 7.62939453125e-06 Z" stroke="none" fill="#83793c"/>
                </g>
              </g>
            </g>
          </g>
        </g>
      </g>
    </g>
    <g id="neurosurgeon_3467980_1_" data-name="neurosurgeon_3467980 (1)" transform="translate(18.741 12.44)">
      <g id="Grupo_1208008" data-name="Grupo 1208008" transform="translate(1.21 0.873)">
        <path id="Trazado_1052147" data-name="Trazado 1052147" d="M212.511,77.658l2.254-9.131a5.078,5.078,0,0,0-4.93-6.3l-6.416.193-1.576,17.622,9.678,2.072Z" transform="translate(-179.145 -55.858)" fill="#a79ba7"/>
        <path id="Trazado_1052148" data-name="Trazado 1052148" d="M212.5,62.232l-6.416.193-1.224,13.688,5.9-3.8,2.167-4.264.783-1.243a4.77,4.77,0,0,0,.735-2.546,10.183,10.183,0,0,0-.141-1.7,5.08,5.08,0,0,0-1.8-.328Z" transform="translate(-181.814 -55.858)" fill="#918291"/>
        <path id="Trazado_1052149" data-name="Trazado 1052149" d="M92.081,18.824l.826-1.312a3.03,3.03,0,0,0,.466-1.615,8.4,8.4,0,0,0-8.4-8.4h-2.8a11.15,11.15,0,0,0-3.045.424,12.831,12.831,0,0,0-8.953,15.418L71.653,29.3,73,33.76l17.1-11.021Z" transform="translate(-62.485 -7.5)" fill="#a79ba7"/>
        <path id="Trazado_1052150" data-name="Trazado 1052150" d="M232.2,198.73a3.141,3.141,0,1,0,0-6.282H225.55v6.282H232.2Z" transform="translate(-200.091 -170.908)" fill="#fed2a4"/>
        <g id="Grupo_1208007" data-name="Grupo 1208007" transform="translate(0 11.851)">
          <path id="Trazado_1052151" data-name="Trazado 1052151" d="M150.064,270.1a.247.247,0,0,1-.154-.228V259.446H138.659v10.422a.247.247,0,0,1-.154.228l.681,5.237,5.217,2.936,5.5-1.752.309-6.359Z" transform="translate(-123.184 -241.954)" fill="#fed2a4"/>
          <path id="Trazado_1052152" data-name="Trazado 1052152" d="M138.659,259.446v10.422a.247.247,0,0,1-.154.228l.681,5.237L141.8,276.8l-.36-2.772a.247.247,0,0,0,.154-.228v-3.48a1.262,1.262,0,0,1,1.427-1.254,9.952,9.952,0,0,0,4.68-.482l.086-.03a13.045,13.045,0,0,0,2.126-.979v-8.131H138.659Z" transform="translate(-123.184 -241.954)" fill="#ffbd86"/>
          <path id="Trazado_1052153" data-name="Trazado 1052153" d="M72.6,198.73a3.141,3.141,0,1,1,0-6.282H79v6.282H72.6Z" transform="translate(-62.178 -182.759)" fill="#ffbd86"/>
          <path id="Trazado_1052154" data-name="Trazado 1052154" d="M114.432,356.906l-1.2-5.407-1.324-.54-5.179,4.384a1.019,1.019,0,0,1-1.324-.013L100.2,350.9l-1.215.495-3.834,5.869,7.775,10.707,3.173,1.218h.019l0-.005c.357-.086,5.383-1.3,5.448-1.3S114.432,356.906,114.432,356.906Z" transform="translate(-84.879 -322.754)" fill="#c8effe"/>
          <g id="Grupo_1208003" data-name="Grupo 1208003" transform="translate(10.383 28.143)">
            <path id="Trazado_1052155" data-name="Trazado 1052155" d="M98.439,355.852l5.692-2.327-3.087-2.629-1.215.495-3.723,5.7a13.243,13.243,0,0,1,2.334-1.238Z" transform="translate(-96.105 -350.896)" fill="#99e6fc"/>
          </g>
          <path id="Trazado_1052156" data-name="Trazado 1052156" d="M28.174,372.94H8.113a1.158,1.158,0,0,1-1.158-1.158V369.8a13.24,13.24,0,0,1,8.239-12.26l5.868-2.395Z" transform="translate(-6.955 -326.508)" fill="#f9f3f1"/>
          <path id="Trazado_1052157" data-name="Trazado 1052157" d="M11.433,371.867a13.24,13.24,0,0,1,8.239-12.26l2.728-1.113-1.338-3.348-5.868,2.395A13.24,13.24,0,0,0,6.955,369.8v1.981a1.158,1.158,0,0,0,1.158,1.158h3.32Z" transform="translate(-6.955 -326.508)" fill="#f3eae6"/>
          <g id="Grupo_1208005" data-name="Grupo 1208005" transform="translate(21.237 28.745)">
            <g id="XMLID_345_">
              <g id="Grupo_1208004" data-name="Grupo 1208004">
                <path id="Trazado_1052158" data-name="Trazado 1052158" d="M210.269,370.614v2.712a.427.427,0,0,1-.427.427H189.305l7.117-17.686,5.608,2.287A13.24,13.24,0,0,1,210.269,370.614Z" transform="translate(-189.305 -356.066)" fill="#f9f3f1"/>
              </g>
            </g>
          </g>
          <path id="Trazado_1052159" data-name="Trazado 1052159" d="M61.5,458.913H54.305a.608.608,0,0,1-.608-.608v-2.683a.608.608,0,0,1,.608-.608H61.5a.608.608,0,0,1,.608.608V458.3A.608.608,0,0,1,61.5,458.913Z" transform="translate(-48.253 -414.744)" fill="#f3eae6"/>
          <g id="Grupo_1208006" data-name="Grupo 1208006" transform="translate(29.952 18.091)">
            <circle id="Elipse_13420" data-name="Elipse 13420" cx="14.015" cy="14.015" r="14.015" fill="#c8effe"/>
            <path id="Trazado_1052160" data-name="Trazado 1052160" d="M270.766,278.6a14.022,14.022,0,0,1,10.7-13.619,14.015,14.015,0,1,0,0,27.238,14.021,14.021,0,0,1-10.7-13.619Z" transform="translate(-264.133 -264.584)" fill="#99e6fc"/>
          </g>
          <path id="Trazado_1052161" data-name="Trazado 1052161" d="M131.687,109.252l-2.831.407-11.992.488-2.578,1.917-.279,10.736,3.9,7.843,6.33,3.033,3.623-.934a11.347,11.347,0,0,0,5.237-9.561V112.92A5.465,5.465,0,0,0,131.687,109.252Z" transform="translate(-101.539 -109.252)" fill="#ffe5c2"/>
          <path id="Trazado_1052162" data-name="Trazado 1052162" d="M187.456,226.018a1.939,1.939,0,0,1,1.939-1.939h.659a1.939,1.939,0,0,1,1.718,1.04l1.217,2.325a.441.441,0,0,1-.391.645h-3.2a1.939,1.939,0,0,1-1.939-1.939v-.133Z" transform="translate(-166.434 -210.706)" fill="#a79ba7"/>
        </g>
        <path id="Trazado_1052163" data-name="Trazado 1052163" d="M118.219,88.568l-2.592-1.427a.252.252,0,0,0-.3.043l-1.86,1.86a1.086,1.086,0,0,1-.768.318h-8.337a4,4,0,0,0-3.995,3.995v10.3a11.346,11.346,0,0,0,7.509,10.678,8.228,8.228,0,0,0,5.534.011l.086-.031a11.364,11.364,0,0,0,2.319-1.134,8.237,8.237,0,0,1-3.7-.432,11.346,11.346,0,0,1-7.509-10.678V94.429a2.769,2.769,0,0,1,2.728-2.782h9.667a1.306,1.306,0,0,0,.888-.341l1.743-1.617A5.469,5.469,0,0,0,118.219,88.568Z" transform="translate(-89.489 -77.838)" fill="#fed2a4"/>
        <path id="Trazado_1052164" data-name="Trazado 1052164" d="M145.1,226.018a1.939,1.939,0,0,0-1.939-1.939H142.5a1.939,1.939,0,0,0-1.718,1.04l-1.217,2.325a.441.441,0,0,0,.391.645h3.2a1.939,1.939,0,0,0,1.939-1.939v-.133Z" transform="translate(-124.078 -198.855)" fill="#a79ba7"/>
      </g>
      <path id="Trazado_1052165" data-name="Trazado 1052165" d="M322.473,316.14a4.1,4.1,0,0,0-2.9-1.2l-.722-.457a5.612,5.612,0,0,0-5.576-.247l-.193.1a4.143,4.143,0,0,0-7.228,2.764v2.613l.056.089a2.8,2.8,0,0,0-.5.4,2.839,2.839,0,0,0,2.008,4.846h7.306l2.914,4.648a1.55,1.55,0,0,0,2.863-.822l.007-3.934a4.106,4.106,0,0,0,3.171-4v-1.893A4.094,4.094,0,0,0,322.473,316.14Z" transform="translate(-268.702 -276.507)" fill="#fe99a0"/>
      <g id="Grupo_1208009" data-name="Grupo 1208009" transform="translate(0.453 0)">
        <path id="Trazado_1052166" data-name="Trazado 1052166" d="M6.39,386.847a.873.873,0,1,0-1.155-1.31A14.123,14.123,0,0,0,.453,396.125v3.139a.873.873,0,0,0,1.747,0v-3.139A12.374,12.374,0,0,1,6.39,386.847Z" transform="translate(-0.453 -340.442)"/>
        <path id="Trazado_1052167" data-name="Trazado 1052167" d="M54.874,447.514H47.679A1.484,1.484,0,0,0,46.2,449v2.683a1.484,1.484,0,0,0,1.482,1.482h7.195a1.484,1.484,0,0,0,1.482-1.482V449A1.483,1.483,0,0,0,54.874,447.514Zm-.265,3.9H47.944v-2.153h6.664v2.153Z" transform="translate(-40.869 -395.394)"/>
        <path id="Trazado_1052168" data-name="Trazado 1052168" d="M112.4,37.355a14.98,14.98,0,0,0-5.283-5.332.873.873,0,1,0-.892,1.5,13.091,13.091,0,1,1-3.212-1.367.873.873,0,0,0,.463-1.685A14.9,14.9,0,0,0,85.22,40.68l-1.951-.8V36.292a12.271,12.271,0,0,0,4.359-6.723h.037a4.013,4.013,0,0,0,2.26-7.33l2.095-8.487a5.95,5.95,0,0,0-5.162-7.345A9.286,9.286,0,0,0,78.042,0h-2.8a12.019,12.019,0,0,0-3.283.457,13.712,13.712,0,0,0-6,3.539.873.873,0,0,0,1.242,1.228,11.961,11.961,0,0,1,5.23-3.087,10.275,10.275,0,0,1,2.806-.391h2.8a7.533,7.533,0,0,1,7.524,7.524,2.153,2.153,0,0,1-.332,1.149l-.335.532q-.1-.059-.2-.114L82.109,9.412a1.131,1.131,0,0,0-1.339.19l-1.86,1.86a.211.211,0,0,1-.15.062H70.423a4.874,4.874,0,0,0-4.868,4.868v5.169q-.1.011-.2.027L64.1,16.506a11.936,11.936,0,0,1,1.056-8.487A.873.873,0,0,0,63.611,7.2,13.681,13.681,0,0,0,62.4,16.925l1.312,5.314a4.012,4.012,0,0,0,2.19,7.328,12.287,12.287,0,0,0,4.368,6.759v3.558l-6.692,2.731c-.208.085-.423.18-.678.3a.874.874,0,1,0,.744,1.581c.226-.106.415-.19.594-.263l4.944-2.017,6.777,16.953a.873.873,0,0,0,1.622,0l6.777-16.953.472.192A14.888,14.888,0,1,0,112.4,37.355ZM63.7,25.554a2.27,2.27,0,0,1,1.85-2.227v3.361c0,.37.019.737.052,1.1a2.268,2.268,0,0,1-1.9-2.234Zm24.222,2.251c.036-.38.057-.764.057-1.152V23.312a2.265,2.265,0,0,1-.057,4.493ZM89.552,9.733a4.179,4.179,0,0,1,.772,3.6l-2.037,8.255c-.1-.016-.2-.026-.3-.034V16.393a6.339,6.339,0,0,0-1.715-4.336l.444-.705a3.9,3.9,0,0,0,.6-2.08,9.332,9.332,0,0,0-.058-1.026A4.175,4.175,0,0,1,89.552,9.733ZM67.3,26.688v-10.3a3.125,3.125,0,0,1,3.121-3.121H78.76a1.947,1.947,0,0,0,1.386-.574l1.53-1.53,2.183,1.2a4.593,4.593,0,0,1,2.378,4.023V26.653a10.492,10.492,0,0,1-6.972,9.87l-.086.031a7.373,7.373,0,0,1-4.946-.01A10.5,10.5,0,0,1,67.3,26.688Zm6.34,11.5a9.125,9.125,0,0,0,6.121.012l.086-.031a12.164,12.164,0,0,0,1.673-.74v2.834L77.994,43.3a1.937,1.937,0,0,1-2.523-.01l-3.454-3.016V37.464a12.174,12.174,0,0,0,1.626.724Zm3.127,18.3L70.8,41.555l.023-.009,3.5,3.056a3.693,3.693,0,0,0,4.811.019l3.58-3.077.027.011Z" transform="translate(-54.795 0)"/>
        <path id="Trazado_1052169" data-name="Trazado 1052169" d="M306.615,306.652a5.012,5.012,0,0,0-8.266,3.816v2.31a3.71,3.71,0,0,0,2.437,6.51h6.823l2.657,4.238a2.423,2.423,0,0,0,4.476-1.287v-3.29a4.987,4.987,0,0,0,3.179-4.641v-1.893a4.986,4.986,0,0,0-4.715-4.972l-.519-.329A6.514,6.514,0,0,0,306.615,306.652Zm5.247,2.006-1.086,2.711h-1.922a.873.873,0,1,0,0,1.747h2.513a.874.874,0,0,0,.811-.549l1.336-3.334a3.237,3.237,0,0,1,2.662,3.181v1.893a3.214,3.214,0,0,1-.377,1.514l-.829-.779V313.7a.873.873,0,1,0-1.747,0v.85h-1.029a.873.873,0,0,0,0,1.747h1.557l.843.793a3.213,3.213,0,0,1-1.65.454.873.873,0,1,0,0,1.747H313v2.953a.676.676,0,0,1-1.249.359l-2.1-3.345a.873.873,0,0,0-.24-1.713H304l1.706-1.786h1.35a.873.873,0,0,0,0-1.747h-1.723a.873.873,0,0,0-.632.27l-3.117,3.262h-.8a1.966,1.966,0,0,1,0-3.931h1.64a.873.873,0,0,0,.7-.351l.916-1.229a.874.874,0,0,0-1.4-1.044l-.654.878h-1.2a3.716,3.716,0,0,0-.69.065v-1.459a3.268,3.268,0,0,1,6.076-1.673l.539.9a.873.873,0,1,0,1.5-.894l-.431-.724a4.757,4.757,0,0,1,3.972.508Z" transform="translate(-262.528 -269.878)"/>
        <path id="Trazado_1052170" data-name="Trazado 1052170" d="M133.326,222.336h3.2a2.8,2.8,0,0,0,1.939-.779,2.8,2.8,0,0,0,1.939.779h3.2a1.314,1.314,0,0,0,1.165-1.924l-1.217-2.325a2.8,2.8,0,0,0-2.492-1.509h-.659a2.8,2.8,0,0,0-1.94.779,2.8,2.8,0,0,0-1.938-.779h-.659a2.8,2.8,0,0,0-2.492,1.509l-1.217,2.325a1.314,1.314,0,0,0,1.165,1.924Zm6.015-2.945a1.067,1.067,0,0,1,1.065-1.065h.659a1.062,1.062,0,0,1,.944.572l.885,1.692h-2.488a1.067,1.067,0,0,1-1.065-1.065Zm-4.415-.494a1.062,1.062,0,0,1,.944-.572h.659a1.067,1.067,0,0,1,1.065,1.065v.133a1.067,1.067,0,0,1-1.065,1.065h-2.488Z" transform="translate(-116.689 -191.354)"/>
      </g>
    </g>
  </g>
</svg>
