<svg xmlns="http://www.w3.org/2000/svg" xmlns:xlink="http://www.w3.org/1999/xlink" width="113" height="113" viewBox="0 0 113 113">
  <defs>
    <filter id="Trazado_982547" x="0" y="0" width="113" height="113" filterUnits="userSpaceOnUse">
      <feOffset dy="3" input="SourceAlpha"/>
      <feGaussianBlur stdDeviation="3" result="blur"/>
      <feFlood flood-opacity="0.161"/>
      <feComposite operator="in" in2="blur"/>
      <feComposite in="SourceGraphic"/>
    </filter>
    <clipPath id="clip-path">
      <path id="path6972" d="M0-682.665H72.985v72.985H0Z" transform="translate(0 682.665)"/>
    </clipPath>
  </defs>
  <g id="Grupo_1208010" data-name="Grupo 1208010" transform="translate(-796 -1246.89)">
    <g id="Grupo_1202142" data-name="Grupo 1202142" transform="translate(805 1252.89)">
      <g id="Grupo_1201923" data-name="Grupo 1201923" transform="translate(0 0)">
        <g id="Grupo_1176928" data-name="Grupo 1176928" transform="translate(0 0)">
          <g id="Grupo_1172322" data-name="Grupo 1172322">
            <g id="Grupo_1164700" data-name="Grupo 1164700">
              <g id="Grupo_1160931" data-name="Grupo 1160931">
                <g id="Grupo_1160749" data-name="Grupo 1160749">
                  <g id="Grupo_1158891" data-name="Grupo 1158891">
                    <g id="Grupo_1157406" data-name="Grupo 1157406">
                      <g id="Grupo_1155793" data-name="Grupo 1155793">
                        <g id="Grupo_1154704" data-name="Grupo 1154704">
                          <g id="Grupo_1150790" data-name="Grupo 1150790">
                            <g id="Grupo_1154214" data-name="Grupo 1154214" transform="translate(0)">
                              <g id="Grupo_1152583" data-name="Grupo 1152583">
                                <g id="Grupo_1146973" data-name="Grupo 1146973">
                                  <g id="Grupo_1146954" data-name="Grupo 1146954">
                                    <g transform="matrix(1, 0, 0, 1, -9, -6)" filter="url(#Trazado_982547)">
                                      <g id="Trazado_982547-2" data-name="Trazado 982547" transform="translate(9 6)" fill="#ebe9f0">
                                        <path d="M 47.50000762939453 93.49986267089844 C 41.28937911987305 93.49986267089844 35.26534271240234 92.28383636474609 29.59519386291504 89.88558197021484 C 24.11772727966309 87.56880950927734 19.19814109802246 84.25183868408203 14.97310066223145 80.02679443359375 C 10.74804782867432 75.8017578125 7.431074142456055 70.88218688964844 5.114300727844238 65.40471649169922 C 2.716034412384033 59.73458480834961 1.500007629394531 53.71054458618164 1.500007629394531 47.49993133544922 C 1.500007629394531 41.2893180847168 2.716034412384033 35.26527786254883 5.114300727844238 29.59514427185059 C 7.431074142456055 24.11767768859863 10.74804782867432 19.19810485839844 14.97310066223145 14.97306442260742 C 19.19814109802246 10.74802494049072 24.11772727966309 7.431051254272461 29.59519386291504 5.114277839660645 C 35.26534271240234 2.71602463722229 41.28937911987305 1.499997973442078 47.50000762939453 1.499997973442078 C 53.71063613891602 1.499997973442078 59.73467254638672 2.71602463722229 65.40482330322266 5.114277839660645 C 70.88228607177734 7.431051254272461 75.80187225341797 10.74802494049072 80.02691650390625 14.97306442260742 C 84.25196838378906 19.19810485839844 87.56893920898438 24.11767768859863 89.88571166992188 29.59514427185059 C 92.28398132324219 35.26527786254883 93.50000762939453 41.2893180847168 93.50000762939453 47.49993133544922 C 93.50000762939453 53.71054458618164 92.28398132324219 59.73458480834961 89.88571166992188 65.40471649169922 C 87.56893920898438 70.88218688964844 84.25196838378906 75.8017578125 80.02691650390625 80.02679443359375 C 75.80187225341797 84.25183868408203 70.88228607177734 87.56880950927734 65.40482330322266 89.88558197021484 C 59.73467254638672 92.28383636474609 53.71063613891602 93.49986267089844 47.50000762939453 93.49986267089844 Z" stroke="none"/>
                                        <path d="M 47.50000762939453 2.999992370605469 C 41.4912223815918 2.999992370605469 35.66377639770508 4.1761474609375 30.17951202392578 6.495796203613281 C 24.88085174560547 8.736930847167969 20.12152862548828 11.94596099853516 16.03376007080078 16.03372955322266 C 11.94597625732422 20.12148284912109 8.736961364746094 24.88080596923828 6.495803833007812 30.17946624755859 C 4.176162719726562 35.66371536254883 3.000007629394531 41.49116134643555 3.000007629394531 47.49993133544922 C 3.000007629394531 53.50870132446289 4.176162719726562 59.33614730834961 6.495803833007812 64.82038879394531 C 8.736961364746094 70.11905670166016 11.94597625732422 74.87836456298828 16.03376007080078 78.96613311767578 C 20.12152862548828 83.05390167236328 24.88085174560547 86.26291656494141 30.17951202392578 88.50406646728516 C 35.66377639770508 90.82369995117188 41.4912223815918 91.99985504150391 47.50000762939453 91.99985504150391 C 53.50879287719727 91.99985504150391 59.33623886108398 90.82369995117188 64.82049560546875 88.50406646728516 C 70.11916351318359 86.26291656494141 74.87848663330078 83.05390167236328 78.96625518798828 78.96613311767578 C 83.05403900146484 74.87836456298828 86.26305389404297 70.11905670166016 88.50421142578125 64.82038879394531 C 90.8238525390625 59.33614730834961 92.00000762939453 53.50870132446289 92.00000762939453 47.49993133544922 C 92.00000762939453 41.49116134643555 90.8238525390625 35.66371536254883 88.50421142578125 30.17946624755859 C 86.26305389404297 24.88080596923828 83.05403900146484 20.12148284912109 78.96625518798828 16.03372955322266 C 74.87848663330078 11.94596099853516 70.11916351318359 8.736930847167969 64.82049560546875 6.495796203613281 C 59.33623886108398 4.1761474609375 53.50879287719727 2.999992370605469 47.50000762939453 2.999992370605469 M 47.50000762939453 -7.62939453125e-06 C 73.73352813720703 -7.62939453125e-06 95.00000762939453 21.26644134521484 95.00000762939453 47.49993133544922 C 95.00000762939453 73.73342132568359 73.73352813720703 94.99985504150391 47.50000762939453 94.99985504150391 C 21.26648712158203 94.99985504150391 7.62939453125e-06 73.73342132568359 7.62939453125e-06 47.49993133544922 C 7.62939453125e-06 21.26644134521484 21.26648712158203 -7.62939453125e-06 47.50000762939453 -7.62939453125e-06 Z" stroke="none" fill="#453179"/>
                                      </g>
                                    </g>
                                  </g>
                                </g>
                              </g>
                            </g>
                          </g>
                        </g>
                      </g>
                    </g>
                  </g>
                </g>
              </g>
            </g>
          </g>
        </g>
      </g>
    </g>
    <g id="g6966" transform="translate(816.507 1946.562)">
      <g id="g6968" transform="translate(0 -682.665)">
        <g id="g6970" clip-path="url(#clip-path)">
          <g id="g6976" transform="translate(22.603 28.232)">
            <path id="path6978" d="M-79.679-39.839v3.994l-2.995,2.995h-3.548l-2.995-2.995v-3.994a4.769,4.769,0,0,1,4.769-4.769,4.769,4.769,0,0,1,4.769,4.769" transform="translate(89.217 44.608)" fill="#ffdaaa"/>
          </g>
          <g id="g6980" transform="translate(40.946 28.232)">
            <path id="path6982" d="M-79.679-39.839v3.994l-2.995,2.995h-3.548l-2.995-2.995v-3.994a4.769,4.769,0,0,1,4.769-4.769,4.769,4.769,0,0,1,4.769,4.769" transform="translate(89.217 44.608)" fill="#ffdaaa"/>
          </g>
          <g id="g6984" transform="translate(45.715 61.281)">
            <path id="path6986" d="M0,0V9l1.637,1.637H5.192V0Z" fill="#ffdaaa"/>
          </g>
          <g id="g6988" transform="translate(40.523 61.281)">
            <path id="path6990" d="M0,0V10.635H3.555L5.192,9V0Z" fill="#ffdaaa"/>
          </g>
          <g id="g6992" transform="translate(18.114 39.99)">
            <path id="path6994" d="M-94.683-164.055v-10.753l1.426-1.426h4.309l-2.3-2.3v-3.061a3.636,3.636,0,0,1,.667-2.1h-13.58l-1.861,1.861V-167.8l1.468,1.468h2.6v14.565H-98.4l1.637-1.637,1.637,1.637h3.555V-162.93h-1.991l-1.125-1.125" transform="translate(106.017 183.694)" fill="#ff7956"/>
          </g>
          <g id="g6996" transform="translate(37.903 39.99)">
            <path id="path6998" d="M-127.043,0h-13.58a3.637,3.637,0,0,1,.667,2.1V5.165l-2.3,2.3h4.309l1.426,1.426V19.639l-1.125,1.125h-1.991v.527h12.2l-1.818-9.654,1.078,5.724h1.52l1.468-1.468V1.861Z" transform="translate(142.252)" fill="#f072ae"/>
          </g>
          <g id="g7000" transform="translate(29.449 47.45)">
            <path id="path7002" d="M-106.62,0h-11.337l-1.426,1.426V12.179l1.125,1.125h1.991V24.467h2.725l1.254-1.255,1.255,1.255h2.724V13.3h1.991l1.125-1.125V1.426Z" transform="translate(119.384)" fill="#44ffe8"/>
          </g>
          <g id="g7004" transform="translate(32.889 38.439)">
            <path id="path7006" d="M-61.06-30.53v3.061l-2.3,2.3h-2.719l-2.3-2.3V-30.53a3.655,3.655,0,0,1,3.655-3.655A3.655,3.655,0,0,1-61.06-30.53" transform="translate(68.369 34.185)" fill="#ffdaaa"/>
          </g>
          <g id="g7008" transform="translate(26.717 17.106)">
            <path id="path7010" d="M-152.554-36.827l-2.584-2.584-3.178,3.178v-5h-5.346v6.793l-4.57-4.57-2.584,2.584,7.154,7.154V-19.9h5.346V-31.064Z" transform="translate(170.817 41.236)" fill="#ffb655"/>
          </g>
          <g id="g7012" transform="translate(18.012 1.069)">
            <path id="path7014" d="M-286.88-129.757a7.2,7.2,0,0,0-6.462-7.166c0-.013,0-.025,0-.038a8.33,8.33,0,0,0-8.33-8.33,8.333,8.333,0,0,0-7.814,5.439,3.32,3.32,0,0,0-1.666-.446,3.337,3.337,0,0,0-3.337,3.337c0,.005,0,.01,0,.016a7.2,7.2,0,0,0-6.735,7.188,7.2,7.2,0,0,0,4.2,6.551,5.843,5.843,0,0,0-.036.652,5.775,5.775,0,0,0,2.9,5.011,4.745,4.745,0,0,1,2.291-.586,4.747,4.747,0,0,1,2.8.91,5.791,5.791,0,0,0,2.18-1.589l-5.637-5.638,2.584-2.584,4.476,4.476h.094v-6.7h5.346v5l3.178-3.178,2.584,2.584-4.958,4.958a3.789,3.789,0,0,0,2.709,1.135,3.8,3.8,0,0,0,3.8-3.8c0-.044,0-.088,0-.132a7.206,7.206,0,0,0,5.826-7.072" transform="translate(321.223 145.29)" fill="#b6e892"/>
          </g>
          <g id="g7016" transform="translate(22.603 28.231)">
            <path id="path7018" d="M-35.723-73.206V-77.2a4.768,4.768,0,0,1,2.631-4.263,4.748,4.748,0,0,0-2.138-.506A4.769,4.769,0,0,0-40-77.2v3.994L-37-70.211h3.548l.364-.364Z" transform="translate(40 81.969)" fill="#ff9478"/>
          </g>
          <g id="g7020" transform="translate(40.946 28.231)">
            <path id="path7022" d="M-35.723-73.206V-77.2a4.768,4.768,0,0,1,2.631-4.263,4.747,4.747,0,0,0-2.138-.506A4.769,4.769,0,0,0-40-77.2v3.994L-37-70.211h3.548l.364-.364-2.631-2.631" transform="translate(40 81.969)" fill="#ff9478"/>
          </g>
          <g id="g7024" transform="translate(45.715 61.281)">
            <path id="path7026" d="M-37.491-88.843l-1.637-1.637v-9h-2.851v9l1.637,1.637h2.851Z" transform="translate(41.979 99.478)" fill="#ff9478"/>
          </g>
          <path id="path7028" d="M379.026-98.843h2.851v-10.635h-2.851Z" transform="translate(-338.503 170.759)" fill="#ff9478"/>
          <g id="g7030" transform="translate(18.114 39.99)">
            <path id="path7032" d="M-69.688-145.024h-2.6l-1.468-1.468v-14.032l1.861-1.861h-4.276l-1.861,1.861v14.032l1.468,1.468h2.6v14.565h3.555l.721-.721Z" transform="translate(78.03 162.385)" fill="#ff3f62"/>
          </g>
          <g id="g7034" transform="translate(37.903 39.99)">
            <path id="path7036" d="M-74.236-173.453l1.125-1.125v-10.753l-1.426-1.426h-4.309l2.3-2.3v-3.061a3.637,3.637,0,0,0-.667-2.1h-4.276a3.637,3.637,0,0,1,.667,2.1v3.061l-2.3,2.3h4.309l1.426,1.426v10.753l-1.125,1.125H-80.5v.527h4.276v-.527Z" transform="translate(83.122 194.217)" fill="#ff3f62"/>
          </g>
          <g id="g7038" transform="translate(29.449 47.45)">
            <path id="path7040" d="M-61.751-111.138h-1.991l-1.125-1.125v-10.753l1.426-1.426h-4.276l-1.426,1.426v10.753l1.125,1.125h1.991v11.162H-63.3l1.255-1.255.3.3Z" transform="translate(69.144 124.442)" fill="#57a4ff"/>
          </g>
          <g id="g7042" transform="translate(32.889 38.439)">
            <path id="path7044" d="M-23.816-56.1v-3.061a3.656,3.656,0,0,1,2.229-3.366,3.643,3.643,0,0,0-1.425-.288,3.655,3.655,0,0,0-3.655,3.655V-56.1l2.3,2.3h2.719l.066-.066L-23.816-56.1" transform="translate(26.667 62.816)" fill="#ff9478"/>
          </g>
          <g id="g7046" transform="translate(33.871 17.106)">
            <path id="path7048" d="M-23.816-56.748v-6.793h-2.851V-59.6Z" transform="translate(26.667 63.541)" fill="#ff7956"/>
          </g>
          <g id="g7050" transform="translate(26.717 19.33)">
            <path id="path7052" d="M-23.816-21.589l1.159-1.159-1.425-1.425-2.584,2.584,7.154,7.154v9.371h2.851v-9.371Z" transform="translate(26.667 24.173)" fill="#ff7956"/>
          </g>
          <g id="g7054" transform="translate(18.012 1.069)">
            <path id="path7056" d="M-219.574-212.2l2.2-2.2a3.831,3.831,0,0,0,.029-.462c0-.044,0-.088,0-.132a7.092,7.092,0,0,0,.759-.193l1.967-1.967-2.584-2.584-2.138,2.138.446.446-4.958,4.958a3.79,3.79,0,0,0,2.709,1.135,3.783,3.783,0,0,0,2.138-.658,3.836,3.836,0,0,1-.57-.476m-.8-6.444v-2.922h-4.276v5l3.178-3.178Zm-17.036,3.778a5.836,5.836,0,0,1,.036-.652,7.2,7.2,0,0,1-4.2-6.551,7.2,7.2,0,0,1,6.735-7.188c0-.005,0-.01,0-.016a3.337,3.337,0,0,1,3.337-3.337,3.32,3.32,0,0,1,1.666.446,8.348,8.348,0,0,1,5.677-5.161,8.338,8.338,0,0,0-2.139-.278,8.333,8.333,0,0,0-7.815,5.439,3.32,3.32,0,0,0-1.666-.446,3.337,3.337,0,0,0-3.337,3.337c0,.005,0,.011,0,.016a7.2,7.2,0,0,0-6.735,7.188,7.2,7.2,0,0,0,4.2,6.551,5.836,5.836,0,0,0-.036.652,5.775,5.775,0,0,0,2.9,5.011,4.747,4.747,0,0,1,2.291-.585,4.763,4.763,0,0,1,1.432.221,5.766,5.766,0,0,1-2.348-4.647m7.414-4.183v4.183h-.094l-2.338-2.338,2.138-2.138Z" transform="translate(245.859 237.606)" fill="#95d6a6"/>
          </g>
          <g id="g7058" transform="translate(22.603 28.232)">
            <path id="path7060" d="M-79.679-39.839v3.994l-2.995,2.995h-3.548l-2.995-2.995v-3.994a4.769,4.769,0,0,1,4.769-4.769A4.769,4.769,0,0,1-79.679-39.839Z" transform="translate(89.217 44.608)" fill="none" stroke="#000" stroke-miterlimit="10" stroke-width="1"/>
          </g>
          <g id="g7062" transform="translate(22.18 44.16)">
            <path id="path7064" d="M0-110.188v-13.191" transform="translate(0 123.378)" fill="none" stroke="#000" stroke-miterlimit="10" stroke-width="1"/>
          </g>
          <g id="g7066" transform="translate(40.946 28.232)">
            <path id="path7068" d="M-79.679-39.839v3.994l-2.995,2.995h-3.548l-2.995-2.995v-3.994a4.769,4.769,0,0,1,4.769-4.769A4.769,4.769,0,0,1-79.679-39.839Z" transform="translate(89.217 44.608)" fill="none" stroke="#000" stroke-miterlimit="10" stroke-width="1"/>
          </g>
          <g id="g7070" transform="translate(45.715 61.281)">
            <path id="path7072" d="M0,0V9l1.637,1.637H5.192V0Z" fill="none" stroke="#000" stroke-miterlimit="10" stroke-width="1"/>
          </g>
          <g id="g7074" transform="translate(44.078 61.281)">
            <path id="path7076" d="M0-88.843,1.637-90.48v-9" transform="translate(0 99.478)" fill="none" stroke="#000" stroke-miterlimit="10" stroke-width="1"/>
          </g>
          <g id="g7078" transform="translate(46.841 51.627)">
            <path id="path7080" d="M0,0H4.066" fill="none" stroke="#000" stroke-miterlimit="10" stroke-width="1"/>
          </g>
          <g id="g7082" transform="translate(18.114 39.99)">
            <path id="path7084" d="M-105.173,0H-115.9l-1.861,1.861V15.893l1.468,1.468h2.6V31.926h3.555l1.637-1.637,1.637,1.637" transform="translate(117.764)" fill="none" stroke="#000" stroke-miterlimit="10" stroke-width="1"/>
          </g>
          <g id="g7086" transform="translate(42.382 39.99)">
            <path id="path7088" d="M-29.544-177.851h6.806l-1.818-9.654,1.078,5.724h1.52l1.468-1.468v-14.032l-1.861-1.861H-33.081" transform="translate(33.081 199.142)" fill="none" stroke="#000" stroke-miterlimit="10" stroke-width="1"/>
          </g>
          <g id="g7090" transform="translate(50.907 44.16)">
            <path id="path7092" d="M0-62.372v-7.467" transform="translate(0 69.838)" fill="none" stroke="#000" stroke-miterlimit="10" stroke-width="1"/>
          </g>
          <g id="g7094" transform="translate(27.372 56.153)">
            <path id="path7096" d="M0-118.005v-14.127" transform="translate(0 132.132)" fill="none" stroke="#000" stroke-miterlimit="10" stroke-width="1"/>
          </g>
          <g id="g7098" transform="translate(29.449 47.45)">
            <path id="path7100" d="M-106.62,0h-11.337l-1.426,1.426V12.179l1.125,1.125h1.991V24.467h2.725l1.254-1.255,1.255,1.255h2.724V13.3h1.991l1.125-1.125V1.426Z" transform="translate(119.384)" fill="none" stroke="#000" stroke-miterlimit="10" stroke-width="1"/>
          </g>
          <g id="g7102" transform="translate(32.889 38.439)">
            <path id="path7104" d="M-61.06-30.53v3.061l-2.3,2.3h-2.719l-2.3-2.3V-30.53a3.655,3.655,0,0,1,3.655-3.655A3.655,3.655,0,0,1-61.06-30.53Z" transform="translate(68.369 34.185)" fill="none" stroke="#000" stroke-miterlimit="10" stroke-width="1"/>
          </g>
          <g id="g7106" transform="translate(32.565 50.646)">
            <path id="path7108" d="M0-84.442V-94.55" transform="translate(0 94.55)" fill="none" stroke="#000" stroke-miterlimit="10" stroke-width="1"/>
          </g>
          <g id="g7110" transform="translate(40.523 50.645)">
            <path id="path7112" d="M0,0V10.635" fill="none" stroke="#000" stroke-miterlimit="10" stroke-width="1"/>
          </g>
          <g id="g7114" transform="translate(36.544 60.754)">
            <path id="path7116" d="M0-82.763V-92.67" transform="translate(0 92.67)" fill="none" stroke="#000" stroke-miterlimit="10" stroke-width="1"/>
          </g>
          <g id="g7118" transform="translate(27.372 31.368)">
            <path id="path7120" d="M0,0A1.635,1.635,0,0,1,1.633,1.633v2.7L.475,5.486" fill="none" stroke="#fff" stroke-miterlimit="10" stroke-width="1"/>
          </g>
          <g id="g7122" transform="translate(45.715 31.368)">
            <path id="path7124" d="M0,0A1.635,1.635,0,0,1,1.633,1.633v2.7L.475,5.486" fill="none" stroke="#fff" stroke-miterlimit="10" stroke-width="1"/>
          </g>
          <g id="g7126" transform="translate(47.771 42.527)">
            <path id="path7128" d="M0-53.929v-6.456" transform="translate(0 60.385)" fill="none" stroke="#fff" stroke-miterlimit="10" stroke-width="1"/>
          </g>
          <g id="g7130" transform="translate(26.717 17.106)">
            <path id="path7132" d="M-104.416-187.548v-12.28l5.763-5.763-2.584-2.584L-104.416-205v-5h-5.346v6.793l-4.57-4.57-2.584,2.584,7.154,7.154v10.49" transform="translate(116.916 209.999)" fill="none" stroke="#000" stroke-miterlimit="10" stroke-width="1"/>
          </g>
          <g id="g7134" transform="translate(33.092 4.633)">
            <path id="path7136" d="M0-26a4.787,4.787,0,0,1,4.472-3.112,4.772,4.772,0,0,1,4.766,4.759v.3" transform="translate(0 29.112)" fill="none" stroke="#fff" stroke-miterlimit="10" stroke-width="1" stroke-dasharray="15 10 15 10 550"/>
          </g>
          <g id="g7138" transform="translate(18.012 1.069)">
            <path id="path7140" d="M-235.33-203.205a3.789,3.789,0,0,0,.347-1.589c0-.044,0-.088,0-.132A7.206,7.206,0,0,0-229.159-212a7.2,7.2,0,0,0-6.462-7.165c0-.013,0-.025,0-.038a8.33,8.33,0,0,0-8.33-8.33,8.333,8.333,0,0,0-7.814,5.439,3.319,3.319,0,0,0-1.666-.446,3.337,3.337,0,0,0-3.337,3.337c0,.005,0,.01,0,.016A7.2,7.2,0,0,0-263.5-212a7.2,7.2,0,0,0,4.2,6.551,5.831,5.831,0,0,0-.036.652,5.749,5.749,0,0,0,.815,2.96" transform="translate(263.502 227.531)" fill="none" stroke="#000" stroke-miterlimit="10" stroke-width="1"/>
          </g>
        </g>
      </g>
    </g>
  </g>
</svg>
