<svg xmlns="http://www.w3.org/2000/svg" xmlns:xlink="http://www.w3.org/1999/xlink" width="113" height="113" viewBox="0 0 113 113">
  <defs>
    <filter id="Trazado_982547" x="0" y="0" width="113" height="113" filterUnits="userSpaceOnUse">
      <feOffset dy="3" input="SourceAlpha"/>
      <feGaussianBlur stdDeviation="3" result="blur"/>
      <feFlood flood-opacity="0.161"/>
      <feComposite operator="in" in2="blur"/>
      <feComposite in="SourceGraphic"/>
    </filter>
  </defs>
  <g id="Grupo_1208197" data-name="Grupo 1208197" transform="translate(-3762.151 -1221.756)">
    <g id="Grupo_1207793" data-name="Grupo 1207793" transform="translate(3771.151 1227.756)">
      <g id="Grupo_1201923" data-name="Grupo 1201923" transform="translate(0 0)">
        <g id="Grupo_1176928" data-name="Grupo 1176928" transform="translate(0 0)">
          <g id="Grupo_1172322" data-name="Grupo 1172322">
            <g id="Grupo_1164700" data-name="Grupo 1164700">
              <g id="Grupo_1160931" data-name="Grupo 1160931">
                <g id="Grupo_1160749" data-name="Grupo 1160749">
                  <g id="Grupo_1158891" data-name="Grupo 1158891">
                    <g id="Grupo_1157406" data-name="Grupo 1157406">
                      <g id="Grupo_1155793" data-name="Grupo 1155793">
                        <g id="Grupo_1154704" data-name="Grupo 1154704">
                          <g id="Grupo_1150790" data-name="Grupo 1150790">
                            <g id="Grupo_1154214" data-name="Grupo 1154214" transform="translate(0)">
                              <g id="Grupo_1152583" data-name="Grupo 1152583">
                                <g id="Grupo_1146973" data-name="Grupo 1146973">
                                  <g id="Grupo_1146954" data-name="Grupo 1146954">
                                    <g transform="matrix(1, 0, 0, 1, -9, -6)" filter="url(#Trazado_982547)">
                                      <g id="Trazado_982547-2" data-name="Trazado 982547" transform="translate(9 6)" fill="#ebe9f0">
                                        <path d="M 47.50000762939453 93.49986267089844 C 41.28937911987305 93.49986267089844 35.26534271240234 92.28383636474609 29.59519386291504 89.88558197021484 C 24.11772727966309 87.56880950927734 19.19814109802246 84.25183868408203 14.97310066223145 80.02679443359375 C 10.74804782867432 75.8017578125 7.431074142456055 70.88218688964844 5.114300727844238 65.40471649169922 C 2.716034412384033 59.73458480834961 1.500007629394531 53.71054458618164 1.500007629394531 47.49993133544922 C 1.500007629394531 41.2893180847168 2.716034412384033 35.26527786254883 5.114300727844238 29.59514427185059 C 7.431074142456055 24.11767768859863 10.74804782867432 19.19810485839844 14.97310066223145 14.97306442260742 C 19.19814109802246 10.74802494049072 24.11772727966309 7.431051254272461 29.59519386291504 5.114277839660645 C 35.26534271240234 2.71602463722229 41.28937911987305 1.499997973442078 47.50000762939453 1.499997973442078 C 53.71063613891602 1.499997973442078 59.73467254638672 2.71602463722229 65.40482330322266 5.114277839660645 C 70.88228607177734 7.431051254272461 75.80187225341797 10.74802494049072 80.02691650390625 14.97306442260742 C 84.25196838378906 19.19810485839844 87.56893920898438 24.11767768859863 89.88571166992188 29.59514427185059 C 92.28398132324219 35.26527786254883 93.50000762939453 41.2893180847168 93.50000762939453 47.49993133544922 C 93.50000762939453 53.71054458618164 92.28398132324219 59.73458480834961 89.88571166992188 65.40471649169922 C 87.56893920898438 70.88218688964844 84.25196838378906 75.8017578125 80.02691650390625 80.02679443359375 C 75.80187225341797 84.25183868408203 70.88228607177734 87.56880950927734 65.40482330322266 89.88558197021484 C 59.73467254638672 92.28383636474609 53.71063613891602 93.49986267089844 47.50000762939453 93.49986267089844 Z" stroke="none"/>
                                        <path d="M 47.50000762939453 2.999992370605469 C 41.4912223815918 2.999992370605469 35.66377639770508 4.1761474609375 30.17951202392578 6.495796203613281 C 24.88085174560547 8.736930847167969 20.12152862548828 11.94596099853516 16.03376007080078 16.03372955322266 C 11.94597625732422 20.12148284912109 8.736961364746094 24.88080596923828 6.495803833007812 30.17946624755859 C 4.176162719726562 35.66371536254883 3.000007629394531 41.49116134643555 3.000007629394531 47.49993133544922 C 3.000007629394531 53.50870132446289 4.176162719726562 59.33614730834961 6.495803833007812 64.82038879394531 C 8.736961364746094 70.11905670166016 11.94597625732422 74.87836456298828 16.03376007080078 78.96613311767578 C 20.12152862548828 83.05390167236328 24.88085174560547 86.26291656494141 30.17951202392578 88.50406646728516 C 35.66377639770508 90.82369995117188 41.4912223815918 91.99985504150391 47.50000762939453 91.99985504150391 C 53.50879287719727 91.99985504150391 59.33623886108398 90.82369995117188 64.82049560546875 88.50406646728516 C 70.11916351318359 86.26291656494141 74.87848663330078 83.05390167236328 78.96625518798828 78.96613311767578 C 83.05403900146484 74.87836456298828 86.26305389404297 70.11905670166016 88.50421142578125 64.82038879394531 C 90.8238525390625 59.33614730834961 92.00000762939453 53.50870132446289 92.00000762939453 47.49993133544922 C 92.00000762939453 41.49116134643555 90.8238525390625 35.66371536254883 88.50421142578125 30.17946624755859 C 86.26305389404297 24.88080596923828 83.05403900146484 20.12148284912109 78.96625518798828 16.03372955322266 C 74.87848663330078 11.94596099853516 70.11916351318359 8.736930847167969 64.82049560546875 6.495796203613281 C 59.33623886108398 4.1761474609375 53.50879287719727 2.999992370605469 47.50000762939453 2.999992370605469 M 47.50000762939453 -7.62939453125e-06 C 73.73352813720703 -7.62939453125e-06 95.00000762939453 21.26644134521484 95.00000762939453 47.49993133544922 C 95.00000762939453 73.73342132568359 73.73352813720703 94.99985504150391 47.50000762939453 94.99985504150391 C 21.26648712158203 94.99985504150391 7.62939453125e-06 73.73342132568359 7.62939453125e-06 47.49993133544922 C 7.62939453125e-06 21.26644134521484 21.26648712158203 -7.62939453125e-06 47.50000762939453 -7.62939453125e-06 Z" stroke="none" fill="#453179"/>
                                      </g>
                                    </g>
                                  </g>
                                </g>
                              </g>
                            </g>
                          </g>
                        </g>
                      </g>
                    </g>
                  </g>
                </g>
              </g>
            </g>
          </g>
        </g>
      </g>
    </g>
    <g id="labor_6843581" transform="translate(3788.285 1244.39)">
      <g id="Grupo_1208054" data-name="Grupo 1208054" transform="translate(0.996 0.996)">
        <g id="Grupo_1208023" data-name="Grupo 1208023" transform="translate(13.94 5.974)">
          <path id="Trazado_1052223" data-name="Trazado 1052223" d="M147.409,67.948h-9.487l-.55,1.1a1.61,1.61,0,0,1-2.883,0l-.55-1.1H120V65.957a3.6,3.6,0,0,0,1.991-3.222v-.76h1.991a1.991,1.991,0,0,0,1.991-1.991V56h19.914v7.966A5.95,5.95,0,0,0,147.409,67.948Z" transform="translate(-120 -56)" fill="#e6e9ed"/>
        </g>
        <g id="Grupo_1208024" data-name="Grupo 1208024" transform="translate(3.983)">
          <path id="Trazado_1052224" data-name="Trazado 1052224" d="M55.931,13.974v3.983a1.989,1.989,0,0,0-1.991-1.991H48.961a2.988,2.988,0,0,1-2.987-2.987v1a1.991,1.991,0,0,1-1.991,1.991H41.991A1.991,1.991,0,0,0,40,17.957V13.974a3.983,3.983,0,0,1,3.983-3.983A3.6,3.6,0,0,1,47.205,8h2.752A5.974,5.974,0,0,1,55.931,13.974Z" transform="translate(-40 -8)" fill="#b27946"/>
        </g>
        <g id="Grupo_1208025" data-name="Grupo 1208025" transform="translate(49.785 9.957)">
          <path id="Trazado_1052225" data-name="Trazado 1052225" d="M413.974,88v3.983a5.967,5.967,0,0,1-2.432,4.812,7.873,7.873,0,0,0-1.558-.58A7.965,7.965,0,0,0,408,95.966V93.974a3.6,3.6,0,0,0,1.991-3.222v-.76h1.991A1.991,1.991,0,0,0,413.974,88Z" transform="translate(-408 -88)" fill="#656d78"/>
        </g>
        <g id="Grupo_1208026" data-name="Grupo 1208026" transform="translate(39.828 9.957)">
          <path id="Trazado_1052226" data-name="Trazado 1052226" d="M333.974,93.974v1.991a7.965,7.965,0,0,0-1.984.249,7.871,7.871,0,0,0-1.558.58,6.055,6.055,0,0,1-.911-.829A5.95,5.95,0,0,1,328,91.983V88a1.989,1.989,0,0,0,1.991,1.991h1.991v.76A3.6,3.6,0,0,0,333.974,93.974Z" transform="translate(-328 -88)" fill="#656d78"/>
        </g>
        <g id="Grupo_1208027" data-name="Grupo 1208027" transform="translate(39.828 0)">
          <path id="Trazado_1052227" data-name="Trazado 1052227" d="M343.931,13.974v3.983a1.989,1.989,0,0,0-1.991-1.991h-1.991a1.991,1.991,0,0,1-1.991-1.991,1.991,1.991,0,1,0-3.983,0,1.989,1.989,0,0,0-1.991,1.991h-1.991A1.991,1.991,0,0,0,328,17.957V13.974A5.974,5.974,0,0,1,333.974,8h3.983A5.974,5.974,0,0,1,343.931,13.974Z" transform="translate(-328 -8)" fill="#656d78"/>
        </g>
        <g id="Grupo_1208028" data-name="Grupo 1208028" transform="translate(15.931 7.966)">
          <path id="Trazado_1052228" data-name="Trazado 1052228" d="M139.4,72.582a1.993,1.993,0,0,1-1.409,3.4H136V72h1.991A1.99,1.99,0,0,1,139.4,72.582Z" transform="translate(-136 -72)" fill="#f0d0b4"/>
        </g>
        <g id="Grupo_1208029" data-name="Grupo 1208029" transform="translate(3.983 7.966)">
          <path id="Trazado_1052229" data-name="Trazado 1052229" d="M43.983,72v3.983H41.991a1.991,1.991,0,0,1,0-3.983Z" transform="translate(-40 -72)" fill="#f0d0b4"/>
        </g>
        <g id="Grupo_1208030" data-name="Grupo 1208030" transform="translate(7.966 4.979)">
          <path id="Trazado_1052230" data-name="Trazado 1052230" d="M79.966,54.97v.76a3.6,3.6,0,0,1-1.991,3.222v1.991l-1.991,1.991-1.991-1.991V58.953A3.6,3.6,0,0,1,72,55.73V50.987A1.991,1.991,0,0,0,73.991,49V48a2.988,2.988,0,0,0,2.987,2.987h2.987Z" transform="translate(-72 -48)" fill="#f0d0b4"/>
        </g>
        <g id="Grupo_1208031" data-name="Grupo 1208031" transform="translate(1.991 17.923)">
          <path id="Trazado_1052231" data-name="Trazado 1052231" d="M27.983,161.957H24v-1.991A7.965,7.965,0,0,1,31.966,152l1.991,1.991L35.948,152a7.965,7.965,0,0,1,7.966,7.966v1.991H39.931v5.974H27.983Z" transform="translate(-24 -152)" fill="#b4dd7f"/>
        </g>
        <g id="Grupo_1208032" data-name="Grupo 1208032" transform="translate(3.983 33.854)">
          <path id="Trazado_1052232" data-name="Trazado 1052232" d="M48.841,302.78a2.982,2.982,0,0,0-.875,2.112,2.987,2.987,0,0,0-2.987-2.987H42.987a2.98,2.98,0,0,0-1.792.6l-.128-.065a1.929,1.929,0,0,1-.5-3.089l.861-.861a1.928,1.928,0,0,0,.565-1.364V280H53.94v17.124a1.928,1.928,0,0,0,.565,1.364l.861.861a1.929,1.929,0,0,1-.5,3.089l-.128.065a2.98,2.98,0,0,0-1.792-.6H50.953a2.982,2.982,0,0,0-2.112.875Z" transform="translate(-40 -280)" fill="#969faa"/>
        </g>
        <g id="Grupo_1208033" data-name="Grupo 1208033" transform="translate(11.948 55.759)">
          <path id="Trazado_1052233" data-name="Trazado 1052233" d="M111.966,458.987a.994.994,0,0,1-1,1H105a1,1,0,0,1-1-1A2.987,2.987,0,0,1,106.987,456h1.991a2.987,2.987,0,0,1,2.987,2.987Z" transform="translate(-104 -456)" fill="#d3a06c"/>
        </g>
        <g id="Grupo_1208034" data-name="Grupo 1208034" transform="translate(3.983 55.759)">
          <path id="Trazado_1052234" data-name="Trazado 1052234" d="M47.966,458.987a1,1,0,0,1-1,1H41a.994.994,0,0,1-1-1A2.987,2.987,0,0,1,42.987,456h1.991a2.987,2.987,0,0,1,2.987,2.987Z" transform="translate(-40 -456)" fill="#d3a06c"/>
        </g>
        <g id="Grupo_1208035" data-name="Grupo 1208035" transform="translate(21.905 31.863)">
          <path id="Trazado_1052235" data-name="Trazado 1052235" d="M190.97,269.974h-1a1.991,1.991,0,0,0-1.991,1.991h-1.991A1.991,1.991,0,0,0,184,273.957v-4.979a2.987,2.987,0,0,1,2.987-2.987A3.6,3.6,0,0,1,190.209,264h3.748a5.974,5.974,0,0,1,5.974,5.974v3.983a1.989,1.989,0,0,0-1.991-1.991h-2.987A4.97,4.97,0,0,1,190.97,269.974Z" transform="translate(-184 -264)" fill="#b27946"/>
        </g>
        <g id="Grupo_1208036" data-name="Grupo 1208036" transform="translate(31.863 41.82)">
          <path id="Trazado_1052236" data-name="Trazado 1052236" d="M269.974,344v3.983a5.966,5.966,0,0,1-2.432,4.812,7.935,7.935,0,0,0-3.542-.829v-1.991a3.6,3.6,0,0,0,1.991-3.222v-.76h1.991A1.991,1.991,0,0,0,269.974,344Z" transform="translate(-264 -344)" fill="#b27946"/>
        </g>
        <g id="Grupo_1208037" data-name="Grupo 1208037" transform="translate(21.905 41.82)">
          <path id="Trazado_1052237" data-name="Trazado 1052237" d="M189.974,349.974v1.991a7.935,7.935,0,0,0-3.542.829A5.966,5.966,0,0,1,184,347.983V344a1.989,1.989,0,0,0,1.991,1.991h1.991v.76A3.6,3.6,0,0,0,189.974,349.974Z" transform="translate(-184 -344)" fill="#b27946"/>
        </g>
        <g id="Grupo_1208038" data-name="Grupo 1208038" transform="translate(19.914 51.21)">
          <path id="Trazado_1052238" data-name="Trazado 1052238" d="M187.914,426.986v1H168v-1.991a7.969,7.969,0,0,1,3.417-6.541l6.541,6.541,6.541-6.541a7.969,7.969,0,0,1,3.416,6.541Z" transform="translate(-168 -419.45)" fill="#fcd770"/>
        </g>
        <g id="Grupo_1208039" data-name="Grupo 1208039" transform="translate(23.331 49.785)">
          <path id="Trazado_1052239" data-name="Trazado 1052239" d="M208.531,409.425l-6.541,6.541-6.541-6.541a7.851,7.851,0,0,1,1.007-.6A7.935,7.935,0,0,1,200,408l1.991,1.991L203.982,408a7.935,7.935,0,0,1,3.542.829A7.852,7.852,0,0,1,208.531,409.425Z" transform="translate(-195.45 -408)" fill="#e6e9ed"/>
        </g>
        <g id="Grupo_1208040" data-name="Grupo 1208040" transform="translate(47.794 55.759)">
          <path id="Trazado_1052240" data-name="Trazado 1052240" d="M399.966,458.987a1,1,0,0,1-1,1H393a.994.994,0,0,1-1-1A2.988,2.988,0,0,1,394.987,456h1.991a2.987,2.987,0,0,1,2.987,2.987Z" transform="translate(-392 -456)" fill="#969faa"/>
        </g>
        <g id="Grupo_1208041" data-name="Grupo 1208041" transform="translate(39.828 55.759)">
          <path id="Trazado_1052241" data-name="Trazado 1052241" d="M335.966,458.987a1,1,0,0,1-1,1H329a.994.994,0,0,1-1-1A2.986,2.986,0,0,1,330.987,456h1.991a2.987,2.987,0,0,1,2.987,2.987Z" transform="translate(-328 -456)" fill="#969faa"/>
        </g>
        <g id="Grupo_1208042" data-name="Grupo 1208042" transform="translate(41.82 42.815)">
          <path id="Trazado_1052242" data-name="Trazado 1052242" d="M355.948,352v13.115a2.966,2.966,0,0,0-1-.171h-1.991a2.988,2.988,0,0,0-2.987,2.987,2.987,2.987,0,0,0-2.987-2.987H345a2.967,2.967,0,0,0-1,.171V352l.153.051a18.409,18.409,0,0,0,11.642,0Z" transform="translate(-344 -352)" fill="#f0d0b4"/>
        </g>
        <g id="Grupo_1208043" data-name="Grupo 1208043" transform="translate(37.837 18.172)">
          <path id="Trazado_1052243" data-name="Trazado 1052243" d="M316.381,163.708H312v-1.991A7.966,7.966,0,0,1,317.982,154a3.983,3.983,0,0,0,7.951,0,7.873,7.873,0,0,1,1.558.58,7.963,7.963,0,0,1,4.423,7.137v1.991h-4.381l-1.593,3.983a11.865,11.865,0,0,1,1.991,6.577v4.376l-.153.051a18.407,18.407,0,0,1-11.642,0l-.153-.051v-4.376a11.865,11.865,0,0,1,1.991-6.577Z" transform="translate(-312 -154)" fill="#f29ed0"/>
        </g>
        <g id="Grupo_1208044" data-name="Grupo 1208044" transform="translate(0 27.88)">
          <path id="Trazado_1052244" data-name="Trazado 1052244" d="M13.974,237.974v4.808a3.157,3.157,0,0,1-3.158,3.158,2.816,2.816,0,0,1-1.991-4.808l1.166-1.166V232h3.983Z" transform="translate(-8 -232)" fill="#f0d0b4"/>
        </g>
        <g id="Grupo_1208045" data-name="Grupo 1208045" transform="translate(17.923 27.88)">
          <path id="Trazado_1052245" data-name="Trazado 1052245" d="M155.983,240.961v4.855a2.782,2.782,0,0,1-.825.123A3.157,3.157,0,0,1,152,242.782V232h3.983Z" transform="translate(-152 -232)" fill="#f0d0b4"/>
        </g>
        <g id="Grupo_1208046" data-name="Grupo 1208046" transform="translate(51.777 27.88)">
          <path id="Trazado_1052246" data-name="Trazado 1052246" d="M431.752,242.045a2.817,2.817,0,0,1-2.6,3.894,3.158,3.158,0,0,1-3.158-3.158v-.223A11.865,11.865,0,0,0,424,235.983L425.593,232h4.381v7.966l1.166,1.166A2.831,2.831,0,0,1,431.752,242.045Z" transform="translate(-424 -232)" fill="#f0d0b4"/>
        </g>
        <g id="Grupo_1208047" data-name="Grupo 1208047" transform="translate(37.837 27.88)">
          <path id="Trazado_1052247" data-name="Trazado 1052247" d="M316.381,232l1.593,3.983a11.865,11.865,0,0,0-1.991,6.577v.223a3.157,3.157,0,0,1-3.158,3.158,2.782,2.782,0,0,1-.825-.123V232Z" transform="translate(-312 -232)" fill="#f0d0b4"/>
        </g>
        <g id="Grupo_1208048" data-name="Grupo 1208048" transform="translate(33.854 39.828)">
          <path id="Trazado_1052248" data-name="Trazado 1052248" d="M283.4,328.582a1.993,1.993,0,0,1-1.409,3.4H280V328h1.991A1.99,1.99,0,0,1,283.4,328.582Z" transform="translate(-280 -328)" fill="#f0d0b4"/>
        </g>
        <g id="Grupo_1208049" data-name="Grupo 1208049" transform="translate(25.888 37.837)">
          <path id="Trazado_1052249" data-name="Trazado 1052249" d="M223.966,317.974v.76a3.6,3.6,0,0,1-1.991,3.222v1.991l-1.991,1.991-1.991-1.991v-1.991A3.6,3.6,0,0,1,216,318.735v-4.743A1.991,1.991,0,0,1,217.991,312h1a4.97,4.97,0,0,0,3.983,1.991h1Z" transform="translate(-216 -312)" fill="#f0d0b4"/>
        </g>
        <g id="Grupo_1208050" data-name="Grupo 1208050" transform="translate(21.905 39.828)">
          <path id="Trazado_1052250" data-name="Trazado 1052250" d="M187.983,328v3.983h-1.991a1.991,1.991,0,1,1,0-3.983Z" transform="translate(-184 -328)" fill="#f0d0b4"/>
        </g>
        <g id="Grupo_1208051" data-name="Grupo 1208051" transform="translate(51.777 7.966)">
          <path id="Trazado_1052251" data-name="Trazado 1052251" d="M427.4,72.582a1.993,1.993,0,0,1-1.409,3.4H424V72h1.991A1.99,1.99,0,0,1,427.4,72.582Z" transform="translate(-424 -72)" fill="#f0d0b4"/>
        </g>
        <g id="Grupo_1208052" data-name="Grupo 1208052" transform="translate(43.811 3.983)">
          <path id="Trazado_1052252" data-name="Trazado 1052252" d="M367.966,47.966v.76a3.6,3.6,0,0,1-1.991,3.222V53.94a7.964,7.964,0,0,1,1.984.249,3.983,3.983,0,0,1-7.951,0,7.964,7.964,0,0,1,1.984-.249V51.948A3.6,3.6,0,0,1,360,48.726V43.983a1.989,1.989,0,0,1,1.991-1.991,1.991,1.991,0,1,1,3.983,0,1.991,1.991,0,0,0,1.991,1.991Z" transform="translate(-360 -40)" fill="#f0d0b4"/>
        </g>
        <g id="Grupo_1208053" data-name="Grupo 1208053" transform="translate(39.828 7.966)">
          <path id="Trazado_1052253" data-name="Trazado 1052253" d="M331.983,72v3.983h-1.991a1.991,1.991,0,0,1,0-3.983Z" transform="translate(-328 -72)" fill="#f0d0b4"/>
        </g>
      </g>
      <g id="Grupo_1208055" data-name="Grupo 1208055" transform="translate(0 0)">
        <path id="Trazado_1052254" data-name="Trazado 1052254" d="M60.617,37.3l-.875-.875V26.884a8.956,8.956,0,0,0-3.773-7.3,7,7,0,0,0,1.781-4.647V6.97A6.978,6.978,0,0,0,50.781,0H46.8a6.98,6.98,0,0,0-6.9,5.974H21.833A6.98,6.98,0,0,0,14.936,0H12.184A4.569,4.569,0,0,0,8.371,2.026,4.986,4.986,0,0,0,3.983,6.97v3.983A2.991,2.991,0,0,0,6.97,13.94h1a4.564,4.564,0,0,0,1.984,3.554v.486a8.973,8.973,0,0,0-7.966,8.9v9.545l-.875.875a3.812,3.812,0,0,0,2.7,6.507A4.128,4.128,0,0,0,5.974,43.2v8.771a.928.928,0,0,1-.273.66l-.861.861a2.927,2.927,0,0,0-.146,3.981,3.96,3.96,0,0,0-.711,2.267,1.994,1.994,0,0,0,1.991,1.991H55.759a1.994,1.994,0,0,0,1.991-1.991A3.984,3.984,0,0,0,55.759,56.3V43.2a4.129,4.129,0,0,0,2.162.609,3.812,3.812,0,0,0,2.7-6.507Zm-2.866-10.42v1H55.687a5.622,5.622,0,0,0-.524-3.42l-.5-1.009-1.781.891.5,1.009a3.65,3.65,0,0,1,.125,2.99l-1.854,4.634.291.436a10.827,10.827,0,0,1,1.824,6.025v3.646a17.356,17.356,0,0,1-9.957,0V39.435a10.828,10.828,0,0,1,1.824-6.025l.291-.436-1.854-4.634a3.632,3.632,0,0,1-.261-1.356,3.669,3.669,0,0,1,.386-1.634l.5-1.009-1.781-.891-.5,1.008a5.623,5.623,0,0,0-.524,3.42H39.828v-1a6.98,6.98,0,0,1,4.233-6.409,4.978,4.978,0,0,0,9.457,0,6.98,6.98,0,0,1,4.233,6.409Zm-16.224,29.6a8.989,8.989,0,0,0-3.48-5.037A7,7,0,0,0,39.828,46.8V43.807a4.126,4.126,0,0,0,1.991-.6V56.3q-.15.087-.292.187ZM21.364,53.868a2.951,2.951,0,0,0-.315-.373l-.861-.861a.927.927,0,0,1-.273-.66V43.2a4.126,4.126,0,0,0,1.991.6V46.8a7,7,0,0,0,1.781,4.647,9.033,9.033,0,0,0-2.323,2.423ZM11.24,8.9a3.967,3.967,0,0,0,2.7,1.058h1.991V13.7a2.593,2.593,0,0,1-1.441,2.332l-.55.275v2.194l-1,1-1-1V16.312l-.55-.275A2.593,2.593,0,0,1,9.957,13.7V9.786A3,3,0,0,0,11.24,8.9Zm10.666-.933H39.828v6.97a6.963,6.963,0,0,0,.68,2.987H32.243l-.826,1.651a.616.616,0,0,1-1.1,0l-.826-1.651H15.931v-.429a4.564,4.564,0,0,0,1.984-3.554h1a2.991,2.991,0,0,0,2.987-2.987ZM53.768,9.957h1a1,1,0,1,1,0,1.991h-1Zm-2.987,9.957a7.009,7.009,0,0,1,.808.048,2.988,2.988,0,0,1-5.6,0,7.009,7.009,0,0,1,.808-.048h1v-3.6l-.55-.275A2.593,2.593,0,0,1,45.8,13.7V8.961a1,1,0,0,1,1-1h1v-1a1,1,0,0,1,1.991,0,2.992,2.992,0,0,0,1.991,2.816V13.7a2.593,2.593,0,0,1-1.441,2.332l-.55.275v3.6Zm-8.241,9.957,1.153,2.883a12.807,12.807,0,0,0-1.873,6.681v.222a2.164,2.164,0,0,1-1.991,2.154V29.871ZM25.492,50.449A5,5,0,0,1,23.9,46.8V45.631a2.973,2.973,0,0,0,1,.171h1a4.564,4.564,0,0,0,1.984,3.554v.484a8.888,8.888,0,0,0-2.388.609Zm.4-6.638h-1a1,1,0,1,1,0-1.991h1Zm.171-3.983H24.893a2.973,2.973,0,0,0-1,.171V37.837a1.994,1.994,0,0,1,1.991-1.991H26.5l.275-.55a2.593,2.593,0,0,1,2.332-1.441h3.748a4.984,4.984,0,0,1,4.979,4.979V40a2.973,2.973,0,0,0-1-.171H33.854a3.987,3.987,0,0,1-3.983-3.983H27.88a5.946,5.946,0,0,0,.366,2.059,3,3,0,0,0-2.186,1.924Zm9.786,1.991h1a1,1,0,1,1,0,1.991h-1Zm-7.966-1a1,1,0,0,1,1-1h.53a5.96,5.96,0,0,0,4.448,1.991v3.748A2.593,2.593,0,0,1,32.413,47.9l-.55.275v2.194l-1,1-1-1V48.174l-.55-.275a2.593,2.593,0,0,1-1.441-2.332Zm3.983,12.361,1.4-1.4a6.914,6.914,0,0,1,2.524.633l-3.92,3.92Zm4.379-2.736a8.89,8.89,0,0,0-2.388-.609v-.484A4.564,4.564,0,0,0,35.838,45.8h1a2.973,2.973,0,0,0,1-.171V46.8a5,5,0,0,1-1.595,3.651Zm1.595-23.565v7.077a6.948,6.948,0,0,0-4.979-2.1H29.111A4.57,4.57,0,0,0,25.291,33.9a3.951,3.951,0,0,0-1.394.491V26.884a8.947,8.947,0,0,0-3.337-6.97h7.7l.275.55a2.607,2.607,0,0,0,4.663,0l.275-.55h7.7A8.947,8.947,0,0,0,37.837,26.884ZM45.8,17.978a8.89,8.89,0,0,0-2.388.608,5,5,0,0,1-1.595-3.65V13.769a2.973,2.973,0,0,0,1,.171h1A4.564,4.564,0,0,0,45.8,17.494Zm-1.991-6.029h-1a1,1,0,1,1,0-1.991h1Zm-24.893,0h-1V9.957h1a1,1,0,1,1,0,1.991ZM13.94,21.322l1.4-1.4a6.978,6.978,0,0,1,6.57,6.958v1H19.914V23.9H17.923v9.957H13.94Zm5.974,8.549h1.991v11.94a2.164,2.164,0,0,1-1.991-2.154Zm8.561,21.918,1.4,1.4v3.158l-3.92-3.92A6.917,6.917,0,0,1,28.475,51.789Zm3.387,7.37,5.621-5.621a6.953,6.953,0,0,1,2.345,5.208v1H31.863ZM43.811,45.153a19.353,19.353,0,0,0,3.983.623V56.3a3.957,3.957,0,0,0-1.991-.536H43.811Zm7.966-27.175v-.484a4.564,4.564,0,0,0,1.984-3.554h1a2.973,2.973,0,0,0,1-.171v1.167a5,5,0,0,1-1.595,3.651,8.893,8.893,0,0,0-2.388-.608ZM46.8,1.991h3.983A4.984,4.984,0,0,1,55.759,6.97V8.137a2.973,2.973,0,0,0-1-.171H52.772a1,1,0,0,1-1-1A2.987,2.987,0,0,0,45.931,6.1a3,3,0,0,0-1.948,1.863H42.815a2.973,2.973,0,0,0-1,.171V6.97A4.984,4.984,0,0,1,46.8,1.991ZM5.974,10.953a1,1,0,0,1,1-1h1v1.991h-1A1,1,0,0,1,5.974,10.953ZM8.961,7.966H6.97a2.973,2.973,0,0,0-1,.171V6.97A2.991,2.991,0,0,1,8.961,3.983h.615l.275-.55a2.593,2.593,0,0,1,2.332-1.441h2.752A4.984,4.984,0,0,1,19.914,6.97V8.137a2.973,2.973,0,0,0-1-.171H13.94a1.994,1.994,0,0,1-1.991-1.991H9.957v1A1,1,0,0,1,8.961,7.966Zm1.591,11.961,1.4,1.4V33.854H7.966V23.9H5.974V27.88H3.983v-1A6.978,6.978,0,0,1,10.553,19.926ZM3.812,41.82a1.821,1.821,0,0,1-1.287-3.108l1.458-1.458V29.871H5.974v9.786A2.165,2.165,0,0,1,3.812,41.82ZM6.248,54.9l.861-.861a2.906,2.906,0,0,0,.857-2.068V35.845h9.957V51.973a2.905,2.905,0,0,0,.857,2.068l.861.861a.933.933,0,0,1,.046,1.27,3.958,3.958,0,0,0-1.764-.413H15.931a3.957,3.957,0,0,0-1.991.536V41.648a2.992,2.992,0,0,0,1.991-2.816v-1H13.94v1a1,1,0,0,1-1.991,0v-1H9.957v1a2.992,2.992,0,0,0,1.991,2.816V56.3a3.957,3.957,0,0,0-1.991-.536H7.966a3.957,3.957,0,0,0-1.764.413.933.933,0,0,1,.046-1.27Zm-.273,4.839a1.994,1.994,0,0,1,1.991-1.991H9.957a2,2,0,0,1,1.991,1.968v.024Zm7.966,0a1.994,1.994,0,0,1,1.991-1.991h1.991a1.994,1.994,0,0,1,1.991,1.991Zm7.966-1a6.953,6.953,0,0,1,2.345-5.208l5.621,5.621v.583H21.905Zm19.914,1a1.994,1.994,0,0,1,1.991-1.991H45.8a2,2,0,0,1,1.991,1.968v.024Zm7.966,0a1.994,1.994,0,0,1,1.991-1.991h1.991a1.994,1.994,0,0,1,1.991,1.991Zm1.991-3.983a3.957,3.957,0,0,0-1.991.536V45.776a19.344,19.344,0,0,0,3.983-.623V55.759Zm6.145-13.94a2.165,2.165,0,0,1-2.162-2.162v-.222a12.806,12.806,0,0,0-1.873-6.681l1.153-2.883h2.711v7.382l1.458,1.458a1.821,1.821,0,0,1-1.287,3.108Z" transform="translate(0 0)"/>
        <circle id="Elipse_13423" data-name="Elipse 13423" cx="0.854" cy="0.854" r="0.854" transform="translate(28.305 12.083)"/>
        <circle id="Elipse_13424" data-name="Elipse 13424" cx="0.854" cy="0.854" r="0.854" transform="translate(24.036 12.083)"/>
        <circle id="Elipse_13425" data-name="Elipse 13425" cx="0.854" cy="0.854" r="0.854" transform="translate(31.721 12.083)"/>
        <circle id="Elipse_13426" data-name="Elipse 13426" cx="0.854" cy="0.854" r="0.854" transform="translate(35.99 12.083)"/>
      </g>
    </g>
  </g>
</svg>
