<svg xmlns="http://www.w3.org/2000/svg" xmlns:xlink="http://www.w3.org/1999/xlink" width="479.692" height="456" viewBox="0 0 479.692 456">
  <defs>
    <filter id="Elipse_13416" x="0" y="0" width="456" height="456" filterUnits="userSpaceOnUse">
      <feOffset dy="3" input="SourceAlpha"/>
      <feGaussianBlur stdDeviation="3" result="blur"/>
      <feFlood flood-opacity="0.161"/>
      <feComposite operator="in" in2="blur"/>
      <feComposite in="SourceGraphic"/>
    </filter>
    <filter id="Elipse_13417" x="149" y="114" width="157" height="70" filterUnits="userSpaceOnUse">
      <feOffset dy="3" input="SourceAlpha"/>
      <feGaussianBlur stdDeviation="3" result="blur-2"/>
      <feFlood flood-opacity="0.161"/>
      <feComposite operator="in" in2="blur-2"/>
      <feComposite in="SourceGraphic"/>
    </filter>
    <filter id="Elipse_13418" x="91.733" y="178.311" width="132.533" height="164.378" filterUnits="userSpaceOnUse">
      <feOffset dy="3" input="SourceAlpha"/>
      <feGaussianBlur stdDeviation="3" result="blur-3"/>
      <feFlood flood-opacity="0.161"/>
      <feComposite operator="in" in2="blur-3"/>
      <feComposite in="SourceGraphic"/>
    </filter>
    <filter id="Elipse_13419" x="228.733" y="178.311" width="132.533" height="164.378" filterUnits="userSpaceOnUse">
      <feOffset dy="3" input="SourceAlpha"/>
      <feGaussianBlur stdDeviation="3" result="blur-4"/>
      <feFlood flood-opacity="0.161"/>
      <feComposite operator="in" in2="blur-4"/>
      <feComposite in="SourceGraphic"/>
    </filter>
  </defs>
  <g id="Grupo_1207807" data-name="Grupo 1207807" transform="translate(-572 -1735)">
    <g transform="matrix(1, 0, 0, 1, 572, 1735)" filter="url(#Elipse_13416)">
      <circle id="Elipse_13416-2" data-name="Elipse 13416" cx="219" cy="219" r="219" transform="translate(9 6)" fill="#5692e8"/>
    </g>
    <circle id="Elipse_13415" data-name="Elipse 13415" cx="170" cy="170" r="170" transform="translate(630 1790)" fill="#cbddf7"/>
    <circle id="Elipse_13414" data-name="Elipse 13414" cx="121" cy="121" r="121" transform="translate(679 1839)" fill="#edf3fc"/>
    <text id="_1" data-name="*1" transform="translate(861 1922)" fill="#212429" font-size="18" font-family="SegoeUI, Segoe UI" letter-spacing="0em"><tspan x="0" y="0">*1</tspan></text>
    <text id="_1-2" data-name="*1" transform="translate(718 1909)" fill="#212429" font-size="18" font-family="SegoeUI, Segoe UI" letter-spacing="0em"><tspan x="0" y="0">*1</tspan></text>
    <text id="_1-3" data-name="*1" transform="translate(787 2035)" fill="#212429" font-size="18" font-family="SegoeUI, Segoe UI" letter-spacing="0em"><tspan x="0" y="0">*1</tspan></text>
    <path id="Trazado_1053140" data-name="Trazado 1053140" d="M14.5,0H13.034V-8.455q0-1,.123-2.452h-.035a7.84,7.84,0,0,1-.378,1.222L8.438,0H7.717l-4.3-9.615a7.533,7.533,0,0,1-.378-1.292H3.006q.07.756.07,2.47V0H1.652V-12.6H3.6L7.471-3.814A11.254,11.254,0,0,1,8.051-2.3H8.1Q8.481-3.34,8.71-3.85L12.656-12.6H14.5ZM24.857-4.14H18.5a3.366,3.366,0,0,0,.809,2.32A2.788,2.788,0,0,0,21.438-1a4.422,4.422,0,0,0,2.795-1V-.65A5.224,5.224,0,0,1,21.1.211a3.8,3.8,0,0,1-3-1.226,5.018,5.018,0,0,1-1.09-3.45A4.921,4.921,0,0,1,18.2-7.888a3.819,3.819,0,0,1,2.958-1.323A3.384,3.384,0,0,1,23.89-8.068,4.764,4.764,0,0,1,24.857-4.9ZM23.381-5.361a2.933,2.933,0,0,0-.6-1.942A2.051,2.051,0,0,0,21.131-8a2.328,2.328,0,0,0-1.731.729,3.311,3.311,0,0,0-.879,1.907ZM26.494-.325V-1.872A4.266,4.266,0,0,0,29.087-1q1.9,0,1.9-1.266a1.1,1.1,0,0,0-.163-.611,1.62,1.62,0,0,0-.439-.444,3.383,3.383,0,0,0-.65-.347q-.374-.154-.8-.321a10.357,10.357,0,0,1-1.05-.479,3.173,3.173,0,0,1-.756-.545,2.028,2.028,0,0,1-.457-.69,2.441,2.441,0,0,1-.154-.905A2.15,2.15,0,0,1,26.8-7.73a2.572,2.572,0,0,1,.773-.817,3.607,3.607,0,0,1,1.1-.5,4.893,4.893,0,0,1,1.279-.167,5.164,5.164,0,0,1,2.092.4v1.459A4.077,4.077,0,0,0,29.763-8a2.671,2.671,0,0,0-.729.092,1.786,1.786,0,0,0-.558.259,1.2,1.2,0,0,0-.36.4,1.053,1.053,0,0,0-.127.514,1.233,1.233,0,0,0,.127.589,1.3,1.3,0,0,0,.374.422,2.855,2.855,0,0,0,.6.334q.352.149.8.325a11.131,11.131,0,0,1,1.072.47,3.678,3.678,0,0,1,.809.545,2.129,2.129,0,0,1,.514.7,2.254,2.254,0,0,1,.18.94,2.217,2.217,0,0,1-.294,1.16,2.523,2.523,0,0,1-.787.817,3.6,3.6,0,0,1-1.134.483A5.6,5.6,0,0,1,28.9.211,5.106,5.106,0,0,1,26.494-.325ZM38.44.211A4.175,4.175,0,0,1,35.254-1.05a4.672,4.672,0,0,1-1.191-3.344A4.867,4.867,0,0,1,35.3-7.937a4.455,4.455,0,0,1,3.349-1.274,4.037,4.037,0,0,1,3.142,1.239,4.914,4.914,0,0,1,1.129,3.437,4.835,4.835,0,0,1-1.217,3.45A4.265,4.265,0,0,1,38.44.211ZM38.545-8a2.742,2.742,0,0,0-2.2.945,3.88,3.88,0,0,0-.809,2.606,3.67,3.67,0,0,0,.817,2.522A2.778,2.778,0,0,0,38.545-1a2.635,2.635,0,0,0,2.149-.905,3.928,3.928,0,0,0,.751-2.575,4,4,0,0,0-.751-2.6A2.623,2.623,0,0,0,38.545-8ZM44.682-.325V-1.872A4.266,4.266,0,0,0,47.275-1q1.9,0,1.9-1.266a1.1,1.1,0,0,0-.163-.611,1.62,1.62,0,0,0-.439-.444,3.383,3.383,0,0,0-.65-.347q-.374-.154-.8-.321a10.357,10.357,0,0,1-1.05-.479,3.173,3.173,0,0,1-.756-.545,2.028,2.028,0,0,1-.457-.69,2.441,2.441,0,0,1-.154-.905,2.15,2.15,0,0,1,.29-1.121,2.572,2.572,0,0,1,.773-.817,3.607,3.607,0,0,1,1.1-.5,4.893,4.893,0,0,1,1.279-.167,5.164,5.164,0,0,1,2.092.4v1.459A4.077,4.077,0,0,0,47.952-8a2.671,2.671,0,0,0-.729.092,1.786,1.786,0,0,0-.558.259,1.2,1.2,0,0,0-.36.4,1.053,1.053,0,0,0-.127.514,1.233,1.233,0,0,0,.127.589,1.3,1.3,0,0,0,.374.422,2.855,2.855,0,0,0,.6.334q.352.149.8.325a11.131,11.131,0,0,1,1.072.47,3.678,3.678,0,0,1,.809.545,2.129,2.129,0,0,1,.514.7,2.254,2.254,0,0,1,.18.94,2.217,2.217,0,0,1-.294,1.16,2.523,2.523,0,0,1-.787.817,3.6,3.6,0,0,1-1.134.483A5.6,5.6,0,0,1,47.09.211,5.106,5.106,0,0,1,44.682-.325ZM53.6-11.285a.913.913,0,0,1-.659-.264.89.89,0,0,1-.272-.668.9.9,0,0,1,.272-.672.905.905,0,0,1,.659-.268.931.931,0,0,1,.672.268.9.9,0,0,1,.277.672.891.891,0,0,1-.277.659A.923.923,0,0,1,53.6-11.285ZM54.308,0H52.866V-9h1.441ZM61.4-.088a2.779,2.779,0,0,1-1.345.281q-2.364,0-2.364-2.637V-7.77H56.147V-9h1.547v-2.2l1.441-.466V-9H61.4v1.23H59.135V-2.7a2.1,2.1,0,0,0,.308,1.292,1.228,1.228,0,0,0,1.02.387,1.515,1.515,0,0,0,.94-.3Zm9.16-4.052H64.208a3.366,3.366,0,0,0,.809,2.32A2.788,2.788,0,0,0,67.143-1a4.422,4.422,0,0,0,2.795-1V-.65A5.224,5.224,0,0,1,66.8.211a3.8,3.8,0,0,1-3-1.226,5.018,5.018,0,0,1-1.09-3.45A4.921,4.921,0,0,1,63.9-7.888a3.819,3.819,0,0,1,2.958-1.323A3.384,3.384,0,0,1,69.6-8.068,4.764,4.764,0,0,1,70.562-4.9ZM69.086-5.361a2.933,2.933,0,0,0-.6-1.942A2.051,2.051,0,0,0,66.836-8a2.328,2.328,0,0,0-1.731.729,3.311,3.311,0,0,0-.879,1.907ZM85.523,0H84.082V-5.168A3.9,3.9,0,0,0,83.62-7.33,1.75,1.75,0,0,0,82.069-8a1.921,1.921,0,0,0-1.569.844,3.228,3.228,0,0,0-.646,2.021V0H78.413V-5.344Q78.413-8,76.365-8a1.9,1.9,0,0,0-1.564.8,3.288,3.288,0,0,0-.615,2.07V0H72.744V-9h1.441v1.424h.035a3.058,3.058,0,0,1,2.795-1.635,2.606,2.606,0,0,1,1.608.514,2.586,2.586,0,0,1,.94,1.349,3.212,3.212,0,0,1,2.988-1.863q2.971,0,2.971,3.665Zm9.169,0H93.251V-1.406h-.035A3.018,3.018,0,0,1,90.447.211a2.959,2.959,0,0,1-2.1-.712,2.466,2.466,0,0,1-.76-1.89q0-2.522,2.971-2.936l2.7-.378Q93.251-8,91.4-8a4.431,4.431,0,0,0-2.936,1.107V-8.367a5.577,5.577,0,0,1,3.059-.844q3.173,0,3.173,3.357ZM93.251-4.553l-2.171.3a3.525,3.525,0,0,0-1.512.5,1.432,1.432,0,0,0-.51,1.261,1.374,1.374,0,0,0,.47,1.077A1.817,1.817,0,0,0,90.781-1a2.314,2.314,0,0,0,1.771-.751,2.685,2.685,0,0,0,.7-1.9Z" transform="translate(957 2159)" fill="#212429"/>
    <path id="Trazado_1053138" data-name="Trazado 1053138" d="M4.28-4.342V0H1.441V-12.6H5.889q4.764,0,4.764,4.017A3.854,3.854,0,0,1,9.286-5.515,5.414,5.414,0,0,1,5.634-4.342Zm0-6.082V-6.5H5.4q2.268,0,2.268-1.986,0-1.942-2.268-1.942Zm15.5,6.715H13.906q.141,1.96,2.47,1.96a4.822,4.822,0,0,0,2.61-.7v2A6.858,6.858,0,0,1,15.743.22,4.565,4.565,0,0,1,12.359-.989a4.566,4.566,0,0,1-1.2-3.371,4.816,4.816,0,0,1,1.3-3.551,4.334,4.334,0,0,1,3.2-1.31A3.933,3.933,0,0,1,18.7-8.051a4.5,4.5,0,0,1,1.077,3.173ZM17.2-5.414q0-1.934-1.564-1.934a1.494,1.494,0,0,0-1.156.554,2.513,2.513,0,0,0-.593,1.38ZM27.3-6.5a2.409,2.409,0,0,0-1.169-.272,1.684,1.684,0,0,0-1.415.664,2.9,2.9,0,0,0-.51,1.806V0H21.431V-9h2.777v1.67h.035a2.4,2.4,0,0,1,2.373-1.828,1.788,1.788,0,0,1,.686.105Zm.81,6.258v-2.25a5.913,5.913,0,0,0,1.367.615,4.531,4.531,0,0,0,1.288.2,2.762,2.762,0,0,0,1.165-.2.653.653,0,0,0,.426-.615.569.569,0,0,0-.193-.439,1.8,1.8,0,0,0-.5-.308A5.635,5.635,0,0,0,31-3.472q-.36-.105-.694-.237a6.653,6.653,0,0,1-.945-.435,2.731,2.731,0,0,1-.686-.541,2.125,2.125,0,0,1-.422-.712,2.841,2.841,0,0,1-.145-.958,2.466,2.466,0,0,1,.33-1.3,2.692,2.692,0,0,1,.879-.892,4.016,4.016,0,0,1,1.257-.51A6.553,6.553,0,0,1,32.05-9.22a8.168,8.168,0,0,1,1.213.092,9.053,9.053,0,0,1,1.213.268v2.145a4.383,4.383,0,0,0-1.129-.461,4.764,4.764,0,0,0-1.182-.154,2.619,2.619,0,0,0-.514.048,1.693,1.693,0,0,0-.426.141.783.783,0,0,0-.29.237.546.546,0,0,0-.105.33.609.609,0,0,0,.158.422,1.374,1.374,0,0,0,.413.3,4.078,4.078,0,0,0,.567.229q.312.1.62.207a8.056,8.056,0,0,1,1,.422,3.2,3.2,0,0,1,.769.536,2.106,2.106,0,0,1,.492.721,2.562,2.562,0,0,1,.171.984,2.568,2.568,0,0,1-.347,1.367,2.78,2.78,0,0,1-.923.923,4.185,4.185,0,0,1-1.327.519,7.357,7.357,0,0,1-1.56.163A8.042,8.042,0,0,1,28.113-.237Zm12.8.457a4.838,4.838,0,0,1-3.538-1.261,4.573,4.573,0,0,1-1.288-3.423,4.573,4.573,0,0,1,1.336-3.494A5.048,5.048,0,0,1,41.035-9.22,4.78,4.78,0,0,1,44.55-7.958a4.483,4.483,0,0,1,1.274,3.335,4.759,4.759,0,0,1-1.314,3.542A4.892,4.892,0,0,1,40.911.22Zm.07-7.312a1.852,1.852,0,0,0-1.529.677A2.984,2.984,0,0,0,38.908-4.5q0,2.593,2.092,2.593,2,0,2-2.663Q42.995-7.093,40.982-7.093ZM56.321,0H53.552V-5q0-2.092-1.494-2.092a1.483,1.483,0,0,0-1.187.554,2.109,2.109,0,0,0-.466,1.406V0H47.628V-9h2.777v1.424h.035A3.183,3.183,0,0,1,53.332-9.22q2.988,0,2.988,3.709Zm9.687,0H63.38V-1.292h-.035A2.933,2.933,0,0,1,60.664.22,2.8,2.8,0,0,1,58.6-.523,2.661,2.661,0,0,1,57.852-2.5q0-2.619,3.1-3.023L63.4-5.854q0-1.477-1.6-1.477a5.46,5.46,0,0,0-3.059.958V-8.464a6.881,6.881,0,0,1,1.586-.527,8.339,8.339,0,0,1,1.833-.229q3.85,0,3.85,3.841ZM63.4-3.656v-.606l-1.635.211q-1.354.176-1.354,1.222a1.01,1.01,0,0,0,.33.778,1.266,1.266,0,0,0,.892.3,1.644,1.644,0,0,0,1.274-.541A1.952,1.952,0,0,0,63.4-3.656Z" transform="translate(766 1964)" fill="#212429"/>
    <g transform="matrix(1, 0, 0, 1, 572, 1735)" filter="url(#Elipse_13417)">
      <ellipse id="Elipse_13417-2" data-name="Elipse 13417" cx="69.5" cy="26" rx="69.5" ry="26" transform="translate(158 120)" fill="#fff"/>
    </g>
    <g transform="matrix(1, 0, 0, 1, 572, 1735)" filter="url(#Elipse_13418)">
      <ellipse id="Elipse_13418-2" data-name="Elipse 13418" cx="69.5" cy="26" rx="69.5" ry="26" transform="translate(145.77 184.31) rotate(60)" fill="#fff"/>
    </g>
    <g transform="matrix(1, 0, 0, 1, 572, 1735)" filter="url(#Elipse_13419)">
      <ellipse id="Elipse_13419-2" data-name="Elipse 13419" cx="69.5" cy="26" rx="69.5" ry="26" transform="translate(352.27 210.31) rotate(120)" fill="#fff"/>
    </g>
    <g id="Grupo_1207796" data-name="Grupo 1207796">
      <path id="Trazado_1051998" data-name="Trazado 1051998" d="M2835.792,1846.823l20.524-12.653" transform="translate(-1924)" fill="#171111" stroke="#171111" stroke-width="2"/>
      <path id="Polígono_1" data-name="Polígono 1" d="M6.975,0l6.975,10H0Z" transform="matrix(0.53, 0.848, -0.848, 0.53, 935.544, 1824.435)" fill="#171111"/>
      <path id="Polígono_2" data-name="Polígono 2" d="M6.975,0l6.975,10H0Z" transform="matrix(-0.53, -0.848, 0.848, -0.53, 909.52, 1856.13)" fill="#171111"/>
    </g>
    <g id="Grupo_1207797" data-name="Grupo 1207797" transform="translate(-21.937 50.87)">
      <path id="Trazado_1051998-2" data-name="Trazado 1051998" d="M2835.792,1846.823l20.524-12.653" transform="translate(-1924)" fill="#171111" stroke="#171111" stroke-width="2"/>
      <path id="Polígono_1-2" data-name="Polígono 1" d="M6.975,0l6.975,10H0Z" transform="matrix(0.53, 0.848, -0.848, 0.53, 935.544, 1824.435)" fill="#171111"/>
      <path id="Polígono_2-2" data-name="Polígono 2" d="M6.975,0l6.975,10H0Z" transform="matrix(-0.53, -0.848, 0.848, -0.53, 909.52, 1856.13)" fill="#171111"/>
    </g>
    <g id="Grupo_1207798" data-name="Grupo 1207798" transform="translate(-257.937 221.132)">
      <path id="Trazado_1051998-3" data-name="Trazado 1051998" d="M2835.792,1846.823l20.524-12.653" transform="translate(-1924)" fill="#171111" stroke="#171111" stroke-width="2"/>
      <path id="Polígono_1-3" data-name="Polígono 1" d="M6.975,0l6.975,10H0Z" transform="matrix(0.53, 0.848, -0.848, 0.53, 935.544, 1824.435)" fill="#171111"/>
      <path id="Polígono_2-3" data-name="Polígono 2" d="M6.975,0l6.975,10H0Z" transform="matrix(-0.53, -0.848, 0.848, -0.53, 909.52, 1856.13)" fill="#171111"/>
    </g>
    <g id="Grupo_1207799" data-name="Grupo 1207799" transform="translate(658.595 1824.435)">
      <path id="Trazado_1051998-4" data-name="Trazado 1051998" d="M2856.316,1846.823l-20.524-12.653" transform="translate(-2825.172 -1824.435)" fill="#171111" stroke="#171111" stroke-width="2"/>
      <path id="Polígono_1-4" data-name="Polígono 1" d="M6.975,0l6.975,10H0Z" transform="matrix(0.53, -0.848, 0.848, 0.53, 0, 11.831)" fill="#171111"/>
      <path id="Polígono_2-4" data-name="Polígono 2" d="M6.975,0l6.975,10H0Z" transform="matrix(-0.53, 0.848, -0.848, -0.53, 40.81, 19.864)" fill="#171111"/>
    </g>
    <g id="Grupo_1207803" data-name="Grupo 1207803" transform="translate(727 1907.738)">
      <path id="Trazado_1051998-5" data-name="Trazado 1051998" d="M2835.792,1846.823l20.524-12.653" transform="translate(-2826.127 -1824.435)" fill="#171111" stroke="#171111" stroke-width="2"/>
      <path id="Polígono_1-5" data-name="Polígono 1" d="M6.975,0l6.975,10H0Z" transform="matrix(0.53, 0.848, -0.848, 0.53, 33.417, 0)" fill="#171111"/>
      <path id="Polígono_2-5" data-name="Polígono 2" d="M6.975,0l6.975,10H0Z" transform="matrix(-0.53, -0.848, 0.848, -0.53, 7.393, 31.695)" fill="#171111"/>
    </g>
    <g id="Grupo_1207804" data-name="Grupo 1207804" transform="translate(847.475 1897.755) rotate(51)">
      <path id="Trazado_1051998-6" data-name="Trazado 1051998" d="M2835.792,1846.823l20.524-12.653" transform="translate(-2826.127 -1824.435)" fill="#171111" stroke="#171111" stroke-width="2"/>
      <path id="Polígono_1-6" data-name="Polígono 1" d="M6.975,0l6.975,10H0Z" transform="matrix(0.53, 0.848, -0.848, 0.53, 33.417, 0)" fill="#171111"/>
      <path id="Polígono_2-6" data-name="Polígono 2" d="M6.975,0l6.975,10H0Z" transform="matrix(-0.53, -0.848, 0.848, -0.53, 7.393, 31.695)" fill="#171111"/>
    </g>
    <g id="Grupo_1207805" data-name="Grupo 1207805" transform="matrix(0.848, 0.53, -0.53, 0.848, 789.796, 1981.333)">
      <path id="Trazado_1051998-7" data-name="Trazado 1051998" d="M2835.792,1846.823l20.524-12.653" transform="translate(-2826.127 -1824.435)" fill="#171111" stroke="#171111" stroke-width="2"/>
      <path id="Polígono_1-7" data-name="Polígono 1" d="M6.975,0l6.975,10H0Z" transform="matrix(0.53, 0.848, -0.848, 0.53, 33.417, 0)" fill="#171111"/>
      <path id="Polígono_2-7" data-name="Polígono 2" d="M6.975,0l6.975,10H0Z" transform="matrix(-0.53, -0.848, 0.848, -0.53, 7.393, 31.695)" fill="#171111"/>
    </g>
    <g id="Grupo_1207802" data-name="Grupo 1207802" transform="translate(672.369 1880.301) rotate(-13)">
      <path id="Trazado_1051998-8" data-name="Trazado 1051998" d="M2856.316,1846.823l-20.524-12.653" transform="translate(-2825.172 -1824.435)" fill="#171111" stroke="#171111" stroke-width="2"/>
      <path id="Polígono_1-8" data-name="Polígono 1" d="M6.975,0l6.975,10H0Z" transform="matrix(0.53, -0.848, 0.848, 0.53, 0, 11.831)" fill="#171111"/>
      <path id="Polígono_2-8" data-name="Polígono 2" d="M6.975,0l6.975,10H0Z" transform="matrix(-0.53, 0.848, -0.848, -0.53, 40.81, 19.864)" fill="#171111"/>
    </g>
    <g id="Grupo_1207800" data-name="Grupo 1207800" transform="matrix(0.985, -0.174, 0.174, 0.985, 929.748, 2030.504)">
      <path id="Trazado_1051998-9" data-name="Trazado 1051998" d="M2856.316,1846.823l-20.524-12.653" transform="translate(-2825.172 -1824.435)" fill="#171111" stroke="#171111" stroke-width="2"/>
      <path id="Polígono_1-9" data-name="Polígono 1" d="M6.975,0l6.975,10H0Z" transform="matrix(0.53, -0.848, 0.848, 0.53, 0, 11.831)" fill="#171111"/>
      <path id="Polígono_2-9" data-name="Polígono 2" d="M6.975,0l6.975,10H0Z" transform="matrix(-0.53, 0.848, -0.848, -0.53, 40.81, 19.864)" fill="#171111"/>
    </g>
    <g id="Grupo_1207801" data-name="Grupo 1207801" transform="matrix(0.985, -0.174, 0.174, 0.985, 875.306, 2027.504)">
      <path id="Trazado_1051998-10" data-name="Trazado 1051998" d="M2856.316,1846.823l-20.524-12.653" transform="translate(-2825.172 -1824.435)" fill="#171111" stroke="#171111" stroke-width="2"/>
      <path id="Polígono_1-10" data-name="Polígono 1" d="M6.975,0l6.975,10H0Z" transform="matrix(0.53, -0.848, 0.848, 0.53, 0, 11.831)" fill="#171111"/>
      <path id="Polígono_2-10" data-name="Polígono 2" d="M6.975,0l6.975,10H0Z" transform="matrix(-0.53, 0.848, -0.848, -0.53, 40.81, 19.864)" fill="#171111"/>
    </g>
    <g id="Grupo_1207806" data-name="Grupo 1207806" transform="matrix(-0.998, 0.07, -0.07, -0.998, 734, 2066.103)">
      <path id="Trazado_1051998-11" data-name="Trazado 1051998" d="M20.524,0,0,12.653" transform="translate(10.62 9.307)" fill="#171111" stroke="#171111" stroke-width="2"/>
      <path id="Polígono_1-11" data-name="Polígono 1" d="M6.975,0l6.975,10H0Z" transform="matrix(-0.53, -0.848, 0.848, -0.53, 7.393, 31.695)" fill="#171111"/>
      <path id="Polígono_2-11" data-name="Polígono 2" d="M6.975,0l6.975,10H0Z" transform="matrix(0.53, 0.848, -0.848, 0.53, 33.417, 0)" fill="#171111"/>
    </g>
    <path id="Trazado_1053137" data-name="Trazado 1053137" d="M12.891,0h-1.3V-7.516q0-.891.109-2.18h-.031a6.969,6.969,0,0,1-.336,1.086L7.5,0H6.859L3.039-8.547A6.7,6.7,0,0,1,2.7-9.7H2.672q.062.672.063,2.2V0H1.469V-11.2H3.2L6.641-3.391a10,10,0,0,1,.516,1.344H7.2q.336-.922.539-1.375L11.25-11.2h1.641Zm3.431-10.031a.812.812,0,0,1-.586-.234.791.791,0,0,1-.242-.594.8.8,0,0,1,.242-.6.8.8,0,0,1,.586-.238.827.827,0,0,1,.6.238.8.8,0,0,1,.246.6.792.792,0,0,1-.246.586A.82.82,0,0,1,16.322-10.031ZM16.947,0H15.666V-8h1.281ZM25-.367a4.163,4.163,0,0,1-2.187.555A3.622,3.622,0,0,1,20.046-.926,4.035,4.035,0,0,1,19-3.812a4.435,4.435,0,0,1,1.133-3.176,3.963,3.963,0,0,1,3.023-1.2,4.209,4.209,0,0,1,1.859.391v1.313A3.258,3.258,0,0,0,23.1-7.109a2.576,2.576,0,0,0-2.012.879,3.335,3.335,0,0,0-.785,2.309A3.176,3.176,0,0,0,21.046-1.7a2.545,2.545,0,0,0,1.98.813A3.211,3.211,0,0,0,25-1.586ZM31.106-6.7a1.567,1.567,0,0,0-.969-.258,1.635,1.635,0,0,0-1.371.773,3.576,3.576,0,0,0-.551,2.109V0H26.934V-8h1.281v1.648h.031a2.793,2.793,0,0,1,.836-1.316,1.906,1.906,0,0,1,1.258-.473,2.092,2.092,0,0,1,.766.109ZM35.842.188A3.711,3.711,0,0,1,33.01-.934a4.153,4.153,0,0,1-1.059-2.973,4.326,4.326,0,0,1,1.1-3.148A3.96,3.96,0,0,1,36.03-8.187a3.588,3.588,0,0,1,2.793,1.1,4.368,4.368,0,0,1,1,3.055A4.3,4.3,0,0,1,38.745-.965,3.791,3.791,0,0,1,35.842.188Zm.094-7.3a2.437,2.437,0,0,0-1.953.84,3.449,3.449,0,0,0-.719,2.316,3.262,3.262,0,0,0,.727,2.242,2.469,2.469,0,0,0,1.945.82,2.342,2.342,0,0,0,1.91-.8,3.492,3.492,0,0,0,.668-2.289A3.552,3.552,0,0,0,37.846-6.3,2.332,2.332,0,0,0,35.936-7.109Zm5.455,6.82V-1.664a3.792,3.792,0,0,0,2.3.773q1.688,0,1.688-1.125a.976.976,0,0,0-.145-.543,1.44,1.44,0,0,0-.391-.395,3.007,3.007,0,0,0-.578-.309q-.332-.137-.715-.285a9.207,9.207,0,0,1-.934-.426,2.82,2.82,0,0,1-.672-.484,1.8,1.8,0,0,1-.406-.613,2.17,2.17,0,0,1-.137-.8,1.912,1.912,0,0,1,.258-1,2.286,2.286,0,0,1,.688-.727,3.206,3.206,0,0,1,.98-.441,4.349,4.349,0,0,1,1.137-.148,4.59,4.59,0,0,1,1.859.359v1.3A3.624,3.624,0,0,0,44.3-7.109a2.374,2.374,0,0,0-.648.082,1.587,1.587,0,0,0-.5.23,1.065,1.065,0,0,0-.32.355.936.936,0,0,0-.113.457,1.1,1.1,0,0,0,.113.523,1.152,1.152,0,0,0,.332.375,2.538,2.538,0,0,0,.531.3q.312.133.711.289a9.894,9.894,0,0,1,.953.418,3.269,3.269,0,0,1,.719.484,1.893,1.893,0,0,1,.457.621,2,2,0,0,1,.16.836,1.971,1.971,0,0,1-.262,1.031,2.243,2.243,0,0,1-.7.727,3.2,3.2,0,0,1-1.008.43,4.976,4.976,0,0,1-1.2.141A4.539,4.539,0,0,1,41.391-.289Zm7.931-9.742a.812.812,0,0,1-.586-.234.791.791,0,0,1-.242-.594.8.8,0,0,1,.242-.6.8.8,0,0,1,.586-.238.827.827,0,0,1,.6.238.8.8,0,0,1,.246.6.792.792,0,0,1-.246.586A.82.82,0,0,1,49.322-10.031ZM49.947,0H48.666V-8h1.281Zm2.111-.289V-1.664a3.792,3.792,0,0,0,2.3.773q1.688,0,1.688-1.125a.976.976,0,0,0-.145-.543,1.44,1.44,0,0,0-.391-.395,3.007,3.007,0,0,0-.578-.309q-.332-.137-.715-.285a9.207,9.207,0,0,1-.934-.426,2.82,2.82,0,0,1-.672-.484,1.8,1.8,0,0,1-.406-.613,2.17,2.17,0,0,1-.137-.8,1.912,1.912,0,0,1,.258-1,2.286,2.286,0,0,1,.688-.727A3.206,3.206,0,0,1,54-8.039a4.349,4.349,0,0,1,1.137-.148A4.59,4.59,0,0,1,57-7.828v1.3a3.624,3.624,0,0,0-2.031-.578,2.374,2.374,0,0,0-.648.082,1.587,1.587,0,0,0-.5.23,1.065,1.065,0,0,0-.32.355.936.936,0,0,0-.113.457,1.1,1.1,0,0,0,.113.523,1.152,1.152,0,0,0,.332.375,2.538,2.538,0,0,0,.531.3q.312.133.711.289a9.894,9.894,0,0,1,.953.418,3.269,3.269,0,0,1,.719.484,1.893,1.893,0,0,1,.457.621,2,2,0,0,1,.16.836A1.971,1.971,0,0,1,57.1-1.109a2.243,2.243,0,0,1-.7.727,3.2,3.2,0,0,1-1.008.43,4.976,4.976,0,0,1-1.2.141A4.539,4.539,0,0,1,52.058-.289Zm10.986.211a2.47,2.47,0,0,1-1.2.25q-2.1,0-2.1-2.344V-6.906H58.372V-8h1.375V-9.953l1.281-.414V-8h2.016v1.094H61.028V-2.4A1.869,1.869,0,0,0,61.3-1.25a1.091,1.091,0,0,0,.906.344,1.347,1.347,0,0,0,.836-.266Zm8.142-3.6H65.538a2.992,2.992,0,0,0,.719,2.063,2.478,2.478,0,0,0,1.891.727,3.931,3.931,0,0,0,2.484-.891v1.2a4.643,4.643,0,0,1-2.789.766A3.381,3.381,0,0,1,65.178-.9a4.461,4.461,0,0,1-.969-3.066,4.375,4.375,0,0,1,1.059-3.043A3.394,3.394,0,0,1,67.9-8.187a3.008,3.008,0,0,1,2.43,1.016,4.234,4.234,0,0,1,.859,2.82ZM69.874-4.766a2.607,2.607,0,0,0-.535-1.727,1.823,1.823,0,0,0-1.465-.617,2.07,2.07,0,0,0-1.539.648,2.943,2.943,0,0,0-.781,1.7ZM84.485,0H83.2V-4.594a3.466,3.466,0,0,0-.41-1.922,1.555,1.555,0,0,0-1.379-.594,1.708,1.708,0,0,0-1.395.75,2.869,2.869,0,0,0-.574,1.8V0H78.164V-4.75q0-2.359-1.82-2.359a1.686,1.686,0,0,0-1.391.707,2.923,2.923,0,0,0-.547,1.84V0H73.125V-8h1.281v1.266h.031a2.718,2.718,0,0,1,2.484-1.453,2.316,2.316,0,0,1,1.43.457,2.3,2.3,0,0,1,.836,1.2,2.855,2.855,0,0,1,2.656-1.656q2.641,0,2.641,3.258Zm8.15,0H91.354V-1.25h-.031A2.682,2.682,0,0,1,88.861.188,2.63,2.63,0,0,1,86.99-.445a2.192,2.192,0,0,1-.676-1.68q0-2.242,2.641-2.609l2.4-.336q0-2.039-1.648-2.039a3.938,3.938,0,0,0-2.609.984V-7.437a4.958,4.958,0,0,1,2.719-.75q2.82,0,2.82,2.984ZM91.354-4.047l-1.93.266a3.133,3.133,0,0,0-1.344.441,1.273,1.273,0,0,0-.453,1.121,1.221,1.221,0,0,0,.418.957,1.615,1.615,0,0,0,1.113.371,2.056,2.056,0,0,0,1.574-.668,2.387,2.387,0,0,0,.621-1.691Z" transform="translate(699.62 1954.241) rotate(59)" fill="#212429"/>
    <path id="Trazado_1053139" data-name="Trazado 1053139" d="M12.891,0h-1.3V-7.516q0-.891.109-2.18h-.031a6.969,6.969,0,0,1-.336,1.086L7.5,0H6.859L3.039-8.547A6.7,6.7,0,0,1,2.7-9.7H2.672q.062.672.063,2.2V0H1.469V-11.2H3.2L6.641-3.391a10,10,0,0,1,.516,1.344H7.2q.336-.922.539-1.375L11.25-11.2h1.641Zm3.431-10.031a.812.812,0,0,1-.586-.234.791.791,0,0,1-.242-.594.8.8,0,0,1,.242-.6.8.8,0,0,1,.586-.238.827.827,0,0,1,.6.238.8.8,0,0,1,.246.6.792.792,0,0,1-.246.586A.82.82,0,0,1,16.322-10.031ZM16.947,0H15.666V-8h1.281ZM25-.367a4.163,4.163,0,0,1-2.187.555A3.622,3.622,0,0,1,20.046-.926,4.035,4.035,0,0,1,19-3.812a4.435,4.435,0,0,1,1.133-3.176,3.963,3.963,0,0,1,3.023-1.2,4.209,4.209,0,0,1,1.859.391v1.313A3.258,3.258,0,0,0,23.1-7.109a2.576,2.576,0,0,0-2.012.879,3.335,3.335,0,0,0-.785,2.309A3.176,3.176,0,0,0,21.046-1.7a2.545,2.545,0,0,0,1.98.813A3.211,3.211,0,0,0,25-1.586ZM31.106-6.7a1.567,1.567,0,0,0-.969-.258,1.635,1.635,0,0,0-1.371.773,3.576,3.576,0,0,0-.551,2.109V0H26.934V-8h1.281v1.648h.031a2.793,2.793,0,0,1,.836-1.316,1.906,1.906,0,0,1,1.258-.473,2.092,2.092,0,0,1,.766.109ZM35.842.188A3.711,3.711,0,0,1,33.01-.934a4.153,4.153,0,0,1-1.059-2.973,4.326,4.326,0,0,1,1.1-3.148A3.96,3.96,0,0,1,36.03-8.187a3.588,3.588,0,0,1,2.793,1.1,4.368,4.368,0,0,1,1,3.055A4.3,4.3,0,0,1,38.745-.965,3.791,3.791,0,0,1,35.842.188Zm.094-7.3a2.437,2.437,0,0,0-1.953.84,3.449,3.449,0,0,0-.719,2.316,3.262,3.262,0,0,0,.727,2.242,2.469,2.469,0,0,0,1.945.82,2.342,2.342,0,0,0,1.91-.8,3.492,3.492,0,0,0,.668-2.289A3.552,3.552,0,0,0,37.846-6.3,2.332,2.332,0,0,0,35.936-7.109Zm5.455,6.82V-1.664a3.792,3.792,0,0,0,2.3.773q1.688,0,1.688-1.125a.976.976,0,0,0-.145-.543,1.44,1.44,0,0,0-.391-.395,3.007,3.007,0,0,0-.578-.309q-.332-.137-.715-.285a9.207,9.207,0,0,1-.934-.426,2.82,2.82,0,0,1-.672-.484,1.8,1.8,0,0,1-.406-.613,2.17,2.17,0,0,1-.137-.8,1.912,1.912,0,0,1,.258-1,2.286,2.286,0,0,1,.688-.727,3.206,3.206,0,0,1,.98-.441,4.349,4.349,0,0,1,1.137-.148,4.59,4.59,0,0,1,1.859.359v1.3A3.624,3.624,0,0,0,44.3-7.109a2.374,2.374,0,0,0-.648.082,1.587,1.587,0,0,0-.5.23,1.065,1.065,0,0,0-.32.355.936.936,0,0,0-.113.457,1.1,1.1,0,0,0,.113.523,1.152,1.152,0,0,0,.332.375,2.538,2.538,0,0,0,.531.3q.312.133.711.289a9.894,9.894,0,0,1,.953.418,3.269,3.269,0,0,1,.719.484,1.893,1.893,0,0,1,.457.621,2,2,0,0,1,.16.836,1.971,1.971,0,0,1-.262,1.031,2.243,2.243,0,0,1-.7.727,3.2,3.2,0,0,1-1.008.43,4.976,4.976,0,0,1-1.2.141A4.539,4.539,0,0,1,41.391-.289Zm7.931-9.742a.812.812,0,0,1-.586-.234.791.791,0,0,1-.242-.594.8.8,0,0,1,.242-.6.8.8,0,0,1,.586-.238.827.827,0,0,1,.6.238.8.8,0,0,1,.246.6.792.792,0,0,1-.246.586A.82.82,0,0,1,49.322-10.031ZM49.947,0H48.666V-8h1.281Zm2.111-.289V-1.664a3.792,3.792,0,0,0,2.3.773q1.688,0,1.688-1.125a.976.976,0,0,0-.145-.543,1.44,1.44,0,0,0-.391-.395,3.007,3.007,0,0,0-.578-.309q-.332-.137-.715-.285a9.207,9.207,0,0,1-.934-.426,2.82,2.82,0,0,1-.672-.484,1.8,1.8,0,0,1-.406-.613,2.17,2.17,0,0,1-.137-.8,1.912,1.912,0,0,1,.258-1,2.286,2.286,0,0,1,.688-.727A3.206,3.206,0,0,1,54-8.039a4.349,4.349,0,0,1,1.137-.148A4.59,4.59,0,0,1,57-7.828v1.3a3.624,3.624,0,0,0-2.031-.578,2.374,2.374,0,0,0-.648.082,1.587,1.587,0,0,0-.5.23,1.065,1.065,0,0,0-.32.355.936.936,0,0,0-.113.457,1.1,1.1,0,0,0,.113.523,1.152,1.152,0,0,0,.332.375,2.538,2.538,0,0,0,.531.3q.312.133.711.289a9.894,9.894,0,0,1,.953.418,3.269,3.269,0,0,1,.719.484,1.893,1.893,0,0,1,.457.621,2,2,0,0,1,.16.836A1.971,1.971,0,0,1,57.1-1.109a2.243,2.243,0,0,1-.7.727,3.2,3.2,0,0,1-1.008.43,4.976,4.976,0,0,1-1.2.141A4.539,4.539,0,0,1,52.058-.289Zm10.986.211a2.47,2.47,0,0,1-1.2.25q-2.1,0-2.1-2.344V-6.906H58.372V-8h1.375V-9.953l1.281-.414V-8h2.016v1.094H61.028V-2.4A1.869,1.869,0,0,0,61.3-1.25a1.091,1.091,0,0,0,.906.344,1.347,1.347,0,0,0,.836-.266Zm8.142-3.6H65.538a2.992,2.992,0,0,0,.719,2.063,2.478,2.478,0,0,0,1.891.727,3.931,3.931,0,0,0,2.484-.891v1.2a4.643,4.643,0,0,1-2.789.766A3.381,3.381,0,0,1,65.178-.9a4.461,4.461,0,0,1-.969-3.066,4.375,4.375,0,0,1,1.059-3.043A3.394,3.394,0,0,1,67.9-8.187a3.008,3.008,0,0,1,2.43,1.016,4.234,4.234,0,0,1,.859,2.82ZM69.874-4.766a2.607,2.607,0,0,0-.535-1.727,1.823,1.823,0,0,0-1.465-.617,2.07,2.07,0,0,0-1.539.648,2.943,2.943,0,0,0-.781,1.7ZM84.485,0H83.2V-4.594a3.466,3.466,0,0,0-.41-1.922,1.555,1.555,0,0,0-1.379-.594,1.708,1.708,0,0,0-1.395.75,2.869,2.869,0,0,0-.574,1.8V0H78.164V-4.75q0-2.359-1.82-2.359a1.686,1.686,0,0,0-1.391.707,2.923,2.923,0,0,0-.547,1.84V0H73.125V-8h1.281v1.266h.031a2.718,2.718,0,0,1,2.484-1.453,2.316,2.316,0,0,1,1.43.457,2.3,2.3,0,0,1,.836,1.2,2.855,2.855,0,0,1,2.656-1.656q2.641,0,2.641,3.258Zm8.15,0H91.354V-1.25h-.031A2.682,2.682,0,0,1,88.861.188,2.63,2.63,0,0,1,86.99-.445a2.192,2.192,0,0,1-.676-1.68q0-2.242,2.641-2.609l2.4-.336q0-2.039-1.648-2.039a3.938,3.938,0,0,0-2.609.984V-7.437a4.958,4.958,0,0,1,2.719-.75q2.82,0,2.82,2.984ZM91.354-4.047l-1.93.266a3.133,3.133,0,0,0-1.344.441,1.273,1.273,0,0,0-.453,1.121,1.221,1.221,0,0,0,.418.957,1.615,1.615,0,0,0,1.113.371,2.056,2.056,0,0,0,1.574-.668,2.387,2.387,0,0,0,.621-1.691Z" transform="translate(849.293 2038.122) rotate(-62)" fill="#212429"/>
    <path id="Trazado_1053136" data-name="Trazado 1053136" d="M12.891,0h-1.3V-7.516q0-.891.109-2.18h-.031a6.969,6.969,0,0,1-.336,1.086L7.5,0H6.859L3.039-8.547A6.7,6.7,0,0,1,2.7-9.7H2.672q.062.672.063,2.2V0H1.469V-11.2H3.2L6.641-3.391a10,10,0,0,1,.516,1.344H7.2q.336-.922.539-1.375L11.25-11.2h1.641Zm3.431-10.031a.812.812,0,0,1-.586-.234.791.791,0,0,1-.242-.594.8.8,0,0,1,.242-.6.8.8,0,0,1,.586-.238.827.827,0,0,1,.6.238.8.8,0,0,1,.246.6.792.792,0,0,1-.246.586A.82.82,0,0,1,16.322-10.031ZM16.947,0H15.666V-8h1.281ZM25-.367a4.163,4.163,0,0,1-2.187.555A3.622,3.622,0,0,1,20.046-.926,4.035,4.035,0,0,1,19-3.812a4.435,4.435,0,0,1,1.133-3.176,3.963,3.963,0,0,1,3.023-1.2,4.209,4.209,0,0,1,1.859.391v1.313A3.258,3.258,0,0,0,23.1-7.109a2.576,2.576,0,0,0-2.012.879,3.335,3.335,0,0,0-.785,2.309A3.176,3.176,0,0,0,21.046-1.7a2.545,2.545,0,0,0,1.98.813A3.211,3.211,0,0,0,25-1.586ZM31.106-6.7a1.567,1.567,0,0,0-.969-.258,1.635,1.635,0,0,0-1.371.773,3.576,3.576,0,0,0-.551,2.109V0H26.934V-8h1.281v1.648h.031a2.793,2.793,0,0,1,.836-1.316,1.906,1.906,0,0,1,1.258-.473,2.092,2.092,0,0,1,.766.109ZM35.842.188A3.711,3.711,0,0,1,33.01-.934a4.153,4.153,0,0,1-1.059-2.973,4.326,4.326,0,0,1,1.1-3.148A3.96,3.96,0,0,1,36.03-8.187a3.588,3.588,0,0,1,2.793,1.1,4.368,4.368,0,0,1,1,3.055A4.3,4.3,0,0,1,38.745-.965,3.791,3.791,0,0,1,35.842.188Zm.094-7.3a2.437,2.437,0,0,0-1.953.84,3.449,3.449,0,0,0-.719,2.316,3.262,3.262,0,0,0,.727,2.242,2.469,2.469,0,0,0,1.945.82,2.342,2.342,0,0,0,1.91-.8,3.492,3.492,0,0,0,.668-2.289A3.552,3.552,0,0,0,37.846-6.3,2.332,2.332,0,0,0,35.936-7.109Zm5.455,6.82V-1.664a3.792,3.792,0,0,0,2.3.773q1.688,0,1.688-1.125a.976.976,0,0,0-.145-.543,1.44,1.44,0,0,0-.391-.395,3.007,3.007,0,0,0-.578-.309q-.332-.137-.715-.285a9.207,9.207,0,0,1-.934-.426,2.82,2.82,0,0,1-.672-.484,1.8,1.8,0,0,1-.406-.613,2.17,2.17,0,0,1-.137-.8,1.912,1.912,0,0,1,.258-1,2.286,2.286,0,0,1,.688-.727,3.206,3.206,0,0,1,.98-.441,4.349,4.349,0,0,1,1.137-.148,4.59,4.59,0,0,1,1.859.359v1.3A3.624,3.624,0,0,0,44.3-7.109a2.374,2.374,0,0,0-.648.082,1.587,1.587,0,0,0-.5.23,1.065,1.065,0,0,0-.32.355.936.936,0,0,0-.113.457,1.1,1.1,0,0,0,.113.523,1.152,1.152,0,0,0,.332.375,2.538,2.538,0,0,0,.531.3q.312.133.711.289a9.894,9.894,0,0,1,.953.418,3.269,3.269,0,0,1,.719.484,1.893,1.893,0,0,1,.457.621,2,2,0,0,1,.16.836,1.971,1.971,0,0,1-.262,1.031,2.243,2.243,0,0,1-.7.727,3.2,3.2,0,0,1-1.008.43,4.976,4.976,0,0,1-1.2.141A4.539,4.539,0,0,1,41.391-.289Zm7.931-9.742a.812.812,0,0,1-.586-.234.791.791,0,0,1-.242-.594.8.8,0,0,1,.242-.6.8.8,0,0,1,.586-.238.827.827,0,0,1,.6.238.8.8,0,0,1,.246.6.792.792,0,0,1-.246.586A.82.82,0,0,1,49.322-10.031ZM49.947,0H48.666V-8h1.281Zm2.111-.289V-1.664a3.792,3.792,0,0,0,2.3.773q1.688,0,1.688-1.125a.976.976,0,0,0-.145-.543,1.44,1.44,0,0,0-.391-.395,3.007,3.007,0,0,0-.578-.309q-.332-.137-.715-.285a9.207,9.207,0,0,1-.934-.426,2.82,2.82,0,0,1-.672-.484,1.8,1.8,0,0,1-.406-.613,2.17,2.17,0,0,1-.137-.8,1.912,1.912,0,0,1,.258-1,2.286,2.286,0,0,1,.688-.727A3.206,3.206,0,0,1,54-8.039a4.349,4.349,0,0,1,1.137-.148A4.59,4.59,0,0,1,57-7.828v1.3a3.624,3.624,0,0,0-2.031-.578,2.374,2.374,0,0,0-.648.082,1.587,1.587,0,0,0-.5.23,1.065,1.065,0,0,0-.32.355.936.936,0,0,0-.113.457,1.1,1.1,0,0,0,.113.523,1.152,1.152,0,0,0,.332.375,2.538,2.538,0,0,0,.531.3q.312.133.711.289a9.894,9.894,0,0,1,.953.418,3.269,3.269,0,0,1,.719.484,1.893,1.893,0,0,1,.457.621,2,2,0,0,1,.16.836A1.971,1.971,0,0,1,57.1-1.109a2.243,2.243,0,0,1-.7.727,3.2,3.2,0,0,1-1.008.43,4.976,4.976,0,0,1-1.2.141A4.539,4.539,0,0,1,52.058-.289Zm10.986.211a2.47,2.47,0,0,1-1.2.25q-2.1,0-2.1-2.344V-6.906H58.372V-8h1.375V-9.953l1.281-.414V-8h2.016v1.094H61.028V-2.4A1.869,1.869,0,0,0,61.3-1.25a1.091,1.091,0,0,0,.906.344,1.347,1.347,0,0,0,.836-.266Zm8.142-3.6H65.538a2.992,2.992,0,0,0,.719,2.063,2.478,2.478,0,0,0,1.891.727,3.931,3.931,0,0,0,2.484-.891v1.2a4.643,4.643,0,0,1-2.789.766A3.381,3.381,0,0,1,65.178-.9a4.461,4.461,0,0,1-.969-3.066,4.375,4.375,0,0,1,1.059-3.043A3.394,3.394,0,0,1,67.9-8.187a3.008,3.008,0,0,1,2.43,1.016,4.234,4.234,0,0,1,.859,2.82ZM69.874-4.766a2.607,2.607,0,0,0-.535-1.727,1.823,1.823,0,0,0-1.465-.617,2.07,2.07,0,0,0-1.539.648,2.943,2.943,0,0,0-.781,1.7ZM84.485,0H83.2V-4.594a3.466,3.466,0,0,0-.41-1.922,1.555,1.555,0,0,0-1.379-.594,1.708,1.708,0,0,0-1.395.75,2.869,2.869,0,0,0-.574,1.8V0H78.164V-4.75q0-2.359-1.82-2.359a1.686,1.686,0,0,0-1.391.707,2.923,2.923,0,0,0-.547,1.84V0H73.125V-8h1.281v1.266h.031a2.718,2.718,0,0,1,2.484-1.453,2.316,2.316,0,0,1,1.43.457,2.3,2.3,0,0,1,.836,1.2,2.855,2.855,0,0,1,2.656-1.656q2.641,0,2.641,3.258Zm8.15,0H91.354V-1.25h-.031A2.682,2.682,0,0,1,88.861.188,2.63,2.63,0,0,1,86.99-.445a2.192,2.192,0,0,1-.676-1.68q0-2.242,2.641-2.609l2.4-.336q0-2.039-1.648-2.039a3.938,3.938,0,0,0-2.609.984V-7.437a4.958,4.958,0,0,1,2.719-.75q2.82,0,2.82,2.984ZM91.354-4.047l-1.93.266a3.133,3.133,0,0,0-1.344.441,1.273,1.273,0,0,0-.453,1.121,1.221,1.221,0,0,0,.418.957,1.615,1.615,0,0,0,1.113.371,2.056,2.056,0,0,0,1.574-.668,2.387,2.387,0,0,0,.621-1.691Z" transform="translate(751 1887)" fill="#212429"/>
    <rect id="Rectángulo_419412" data-name="Rectángulo 419412" width="108" height="27" rx="2" transform="translate(747 1805)" fill="#fff"/>
    <g id="Rectángulo_419413" data-name="Rectángulo 419413" transform="translate(735 1757)" fill="#edf3fc" stroke="#5692e8" stroke-width="1">
      <rect width="132" height="27" rx="2" stroke="none"/>
      <rect x="0.5" y="0.5" width="131" height="26" rx="1.5" fill="none"/>
    </g>
    <path id="Trazado_1053135" data-name="Trazado 1053135" d="M7.406,0H1.469V-11.2H7.156v1.188H2.781v3.727H6.828v1.18H2.781v3.922H7.406Zm7.83-8L12.548-3.953,15.189,0H13.7l-1.57-2.594q-.148-.242-.352-.609h-.031q-.039.07-.367.609L9.775,0H8.3l2.727-3.922L8.416-8H9.908l1.547,2.734q.172.3.336.625h.031l2-3.359ZM20.081.188A3.711,3.711,0,0,1,17.249-.934a4.153,4.153,0,0,1-1.059-2.973,4.326,4.326,0,0,1,1.1-3.148,3.96,3.96,0,0,1,2.977-1.133,3.588,3.588,0,0,1,2.793,1.1,4.368,4.368,0,0,1,1,3.055A4.3,4.3,0,0,1,22.984-.965,3.791,3.791,0,0,1,20.081.188Zm.094-7.3a2.437,2.437,0,0,0-1.953.84A3.449,3.449,0,0,0,17.5-3.953a3.262,3.262,0,0,0,.727,2.242,2.469,2.469,0,0,0,1.945.82,2.342,2.342,0,0,0,1.91-.8,3.492,3.492,0,0,0,.668-2.289A3.552,3.552,0,0,0,22.085-6.3,2.332,2.332,0,0,0,20.175-7.109ZM25.63-.289V-1.664a3.792,3.792,0,0,0,2.3.773q1.688,0,1.688-1.125a.976.976,0,0,0-.145-.543,1.44,1.44,0,0,0-.391-.395,3.007,3.007,0,0,0-.578-.309q-.332-.137-.715-.285a9.207,9.207,0,0,1-.934-.426,2.82,2.82,0,0,1-.672-.484,1.8,1.8,0,0,1-.406-.613,2.17,2.17,0,0,1-.137-.8,1.912,1.912,0,0,1,.258-1,2.286,2.286,0,0,1,.688-.727,3.206,3.206,0,0,1,.98-.441,4.349,4.349,0,0,1,1.137-.148,4.59,4.59,0,0,1,1.859.359v1.3a3.624,3.624,0,0,0-2.031-.578,2.374,2.374,0,0,0-.648.082,1.587,1.587,0,0,0-.5.23,1.065,1.065,0,0,0-.32.355.936.936,0,0,0-.113.457,1.1,1.1,0,0,0,.113.523,1.152,1.152,0,0,0,.332.375,2.538,2.538,0,0,0,.531.3q.313.133.711.289a9.9,9.9,0,0,1,.953.418,3.269,3.269,0,0,1,.719.484,1.893,1.893,0,0,1,.457.621,2,2,0,0,1,.16.836,1.971,1.971,0,0,1-.262,1.031,2.243,2.243,0,0,1-.7.727,3.2,3.2,0,0,1-1.008.43,4.976,4.976,0,0,1-1.2.141A4.539,4.539,0,0,1,25.63-.289Zm7.931-9.742a.812.812,0,0,1-.586-.234.791.791,0,0,1-.242-.594.8.8,0,0,1,.242-.6.8.8,0,0,1,.586-.238.827.827,0,0,1,.6.238.8.8,0,0,1,.246.6.792.792,0,0,1-.246.586A.82.82,0,0,1,33.561-10.031ZM34.186,0H32.9V-8h1.281ZM36.3-.289V-1.664a3.792,3.792,0,0,0,2.3.773q1.688,0,1.688-1.125a.976.976,0,0,0-.145-.543,1.44,1.44,0,0,0-.391-.395,3.007,3.007,0,0,0-.578-.309q-.332-.137-.715-.285a9.207,9.207,0,0,1-.934-.426,2.82,2.82,0,0,1-.672-.484,1.8,1.8,0,0,1-.406-.613,2.17,2.17,0,0,1-.137-.8,1.912,1.912,0,0,1,.258-1,2.286,2.286,0,0,1,.688-.727,3.206,3.206,0,0,1,.98-.441,4.349,4.349,0,0,1,1.137-.148,4.59,4.59,0,0,1,1.859.359v1.3A3.624,3.624,0,0,0,39.2-7.109a2.374,2.374,0,0,0-.648.082,1.587,1.587,0,0,0-.5.23,1.065,1.065,0,0,0-.32.355.936.936,0,0,0-.113.457,1.1,1.1,0,0,0,.113.523,1.152,1.152,0,0,0,.332.375,2.538,2.538,0,0,0,.531.3q.312.133.711.289a9.894,9.894,0,0,1,.953.418,3.269,3.269,0,0,1,.719.484,1.893,1.893,0,0,1,.457.621,2,2,0,0,1,.16.836,1.971,1.971,0,0,1-.262,1.031,2.243,2.243,0,0,1-.7.727,3.2,3.2,0,0,1-1.008.43,4.976,4.976,0,0,1-1.2.141A4.539,4.539,0,0,1,36.3-.289Zm10.986.211a2.47,2.47,0,0,1-1.2.25q-2.1,0-2.1-2.344V-6.906H42.611V-8h1.375V-9.953l1.281-.414V-8h2.016v1.094H45.267V-2.4a1.869,1.869,0,0,0,.273,1.148,1.091,1.091,0,0,0,.906.344,1.347,1.347,0,0,0,.836-.266Zm8.142-3.6H49.777A2.992,2.992,0,0,0,50.5-1.617a2.478,2.478,0,0,0,1.891.727,3.931,3.931,0,0,0,2.484-.891v1.2a4.643,4.643,0,0,1-2.789.766A3.381,3.381,0,0,1,49.417-.9a4.461,4.461,0,0,1-.969-3.066,4.375,4.375,0,0,1,1.059-3.043,3.394,3.394,0,0,1,2.629-1.176,3.008,3.008,0,0,1,2.43,1.016,4.234,4.234,0,0,1,.859,2.82ZM54.113-4.766a2.607,2.607,0,0,0-.535-1.727,1.823,1.823,0,0,0-1.465-.617,2.07,2.07,0,0,0-1.539.648,2.943,2.943,0,0,0-.781,1.7ZM68.724,0H67.442V-4.594a3.466,3.466,0,0,0-.41-1.922,1.555,1.555,0,0,0-1.379-.594,1.708,1.708,0,0,0-1.395.75,2.869,2.869,0,0,0-.574,1.8V0H62.4V-4.75q0-2.359-1.82-2.359a1.686,1.686,0,0,0-1.391.707,2.923,2.923,0,0,0-.547,1.84V0H57.364V-8h1.281v1.266h.031a2.718,2.718,0,0,1,2.484-1.453,2.316,2.316,0,0,1,1.43.457,2.3,2.3,0,0,1,.836,1.2,2.855,2.855,0,0,1,2.656-1.656q2.641,0,2.641,3.258Zm8.15,0H75.593V-1.25h-.031A2.682,2.682,0,0,1,73.1.188a2.63,2.63,0,0,1-1.871-.633,2.192,2.192,0,0,1-.676-1.68q0-2.242,2.641-2.609l2.4-.336q0-2.039-1.648-2.039a3.938,3.938,0,0,0-2.609.984V-7.437a4.958,4.958,0,0,1,2.719-.75q2.82,0,2.82,2.984ZM75.593-4.047l-1.93.266a3.133,3.133,0,0,0-1.344.441,1.273,1.273,0,0,0-.453,1.121,1.221,1.221,0,0,0,.418.957A1.615,1.615,0,0,0,73.4-.891a2.056,2.056,0,0,0,1.574-.668,2.387,2.387,0,0,0,.621-1.691Z" transform="translate(759 1824)" fill="#212429"/>
    <path id="Trazado_1053134" data-name="Trazado 1053134" d="M14.5,0H13.034V-8.455q0-1,.123-2.452h-.035a7.84,7.84,0,0,1-.378,1.222L8.438,0H7.717l-4.3-9.615a7.533,7.533,0,0,1-.378-1.292H3.006q.07.756.07,2.47V0H1.652V-12.6H3.6L7.471-3.814A11.254,11.254,0,0,1,8.051-2.3H8.1Q8.481-3.34,8.71-3.85L12.656-12.6H14.5Zm9.564,0H22.625V-1.406H22.59A3.018,3.018,0,0,1,19.821.211a2.959,2.959,0,0,1-2.1-.712,2.466,2.466,0,0,1-.76-1.89q0-2.522,2.971-2.936l2.7-.378Q22.625-8,20.77-8a4.431,4.431,0,0,0-2.936,1.107V-8.367a5.577,5.577,0,0,1,3.059-.844q3.173,0,3.173,3.357ZM22.625-4.553l-2.171.3a3.525,3.525,0,0,0-1.512.5,1.432,1.432,0,0,0-.51,1.261,1.374,1.374,0,0,0,.47,1.077A1.817,1.817,0,0,0,20.155-1a2.314,2.314,0,0,0,1.771-.751,2.685,2.685,0,0,0,.7-1.9ZM32.919-.413a4.684,4.684,0,0,1-2.461.624,4.074,4.074,0,0,1-3.107-1.252,4.539,4.539,0,0,1-1.182-3.248,4.99,4.99,0,0,1,1.274-3.573,4.458,4.458,0,0,1,3.4-1.349,4.735,4.735,0,0,1,2.092.439v1.477A3.665,3.665,0,0,0,30.792-8a2.9,2.9,0,0,0-2.263.989,3.752,3.752,0,0,0-.883,2.6,3.573,3.573,0,0,0,.831,2.5A2.863,2.863,0,0,0,30.7-1a3.613,3.613,0,0,0,2.215-.782Zm6.875-7.128a1.763,1.763,0,0,0-1.09-.29,1.839,1.839,0,0,0-1.542.87,4.023,4.023,0,0,0-.62,2.373V0H35.1V-9h1.441v1.854h.035a3.143,3.143,0,0,1,.94-1.481,2.144,2.144,0,0,1,1.415-.532,2.353,2.353,0,0,1,.861.123ZM45.121.211A4.175,4.175,0,0,1,41.935-1.05a4.672,4.672,0,0,1-1.191-3.344,4.867,4.867,0,0,1,1.239-3.542,4.455,4.455,0,0,1,3.349-1.274,4.037,4.037,0,0,1,3.142,1.239A4.914,4.914,0,0,1,49.6-4.535a4.835,4.835,0,0,1-1.217,3.45A4.265,4.265,0,0,1,45.121.211ZM45.227-8a2.742,2.742,0,0,0-2.2.945,3.88,3.88,0,0,0-.809,2.606,3.67,3.67,0,0,0,.817,2.522A2.778,2.778,0,0,0,45.227-1a2.635,2.635,0,0,0,2.149-.905,3.928,3.928,0,0,0,.751-2.575,4,4,0,0,0-.751-2.6A2.623,2.623,0,0,0,45.227-8ZM51.363-.325V-1.872A4.266,4.266,0,0,0,53.956-1q1.9,0,1.9-1.266a1.1,1.1,0,0,0-.163-.611,1.62,1.62,0,0,0-.439-.444,3.383,3.383,0,0,0-.65-.347q-.374-.154-.8-.321a10.357,10.357,0,0,1-1.05-.479,3.173,3.173,0,0,1-.756-.545,2.028,2.028,0,0,1-.457-.69,2.441,2.441,0,0,1-.154-.905,2.15,2.15,0,0,1,.29-1.121,2.572,2.572,0,0,1,.773-.817,3.607,3.607,0,0,1,1.1-.5,4.893,4.893,0,0,1,1.279-.167,5.164,5.164,0,0,1,2.092.4v1.459A4.077,4.077,0,0,0,54.633-8a2.671,2.671,0,0,0-.729.092,1.786,1.786,0,0,0-.558.259,1.2,1.2,0,0,0-.36.4,1.053,1.053,0,0,0-.127.514,1.233,1.233,0,0,0,.127.589,1.3,1.3,0,0,0,.374.422,2.855,2.855,0,0,0,.6.334q.352.149.8.325a11.131,11.131,0,0,1,1.072.47,3.678,3.678,0,0,1,.809.545,2.129,2.129,0,0,1,.514.7,2.254,2.254,0,0,1,.18.94,2.217,2.217,0,0,1-.294,1.16,2.523,2.523,0,0,1-.787.817,3.6,3.6,0,0,1-1.134.483,5.6,5.6,0,0,1-1.345.158A5.106,5.106,0,0,1,51.363-.325Zm8.923-10.96a.913.913,0,0,1-.659-.264.89.89,0,0,1-.272-.668.9.9,0,0,1,.272-.672.905.905,0,0,1,.659-.268.931.931,0,0,1,.672.268.9.9,0,0,1,.277.672.891.891,0,0,1-.277.659A.923.923,0,0,1,60.286-11.285ZM60.989,0H59.548V-9h1.441Zm2.375-.325V-1.872A4.266,4.266,0,0,0,65.957-1q1.9,0,1.9-1.266a1.1,1.1,0,0,0-.163-.611,1.62,1.62,0,0,0-.439-.444,3.383,3.383,0,0,0-.65-.347q-.374-.154-.8-.321a10.357,10.357,0,0,1-1.05-.479,3.173,3.173,0,0,1-.756-.545,2.028,2.028,0,0,1-.457-.69,2.441,2.441,0,0,1-.154-.905,2.15,2.15,0,0,1,.29-1.121,2.572,2.572,0,0,1,.773-.817,3.607,3.607,0,0,1,1.1-.5,4.893,4.893,0,0,1,1.279-.167,5.164,5.164,0,0,1,2.092.4v1.459A4.077,4.077,0,0,0,66.634-8a2.671,2.671,0,0,0-.729.092,1.786,1.786,0,0,0-.558.259,1.2,1.2,0,0,0-.36.4,1.053,1.053,0,0,0-.127.514,1.233,1.233,0,0,0,.127.589,1.3,1.3,0,0,0,.374.422,2.855,2.855,0,0,0,.6.334q.352.149.8.325a11.131,11.131,0,0,1,1.072.47,3.678,3.678,0,0,1,.809.545,2.129,2.129,0,0,1,.514.7,2.254,2.254,0,0,1,.18.94,2.217,2.217,0,0,1-.294,1.16,2.523,2.523,0,0,1-.787.817,3.6,3.6,0,0,1-1.134.483,5.6,5.6,0,0,1-1.345.158A5.106,5.106,0,0,1,63.364-.325Zm12.359.237a2.779,2.779,0,0,1-1.345.281q-2.364,0-2.364-2.637V-7.77H70.468V-9h1.547v-2.2l1.441-.466V-9h2.268v1.23H73.456V-2.7a2.1,2.1,0,0,0,.308,1.292,1.228,1.228,0,0,0,1.02.387,1.515,1.515,0,0,0,.94-.3Zm9.16-4.052H78.529a3.366,3.366,0,0,0,.809,2.32A2.788,2.788,0,0,0,81.464-1a4.422,4.422,0,0,0,2.795-1V-.65a5.224,5.224,0,0,1-3.138.861,3.8,3.8,0,0,1-3-1.226,5.018,5.018,0,0,1-1.09-3.45,4.921,4.921,0,0,1,1.191-3.423,3.819,3.819,0,0,1,2.958-1.323,3.384,3.384,0,0,1,2.733,1.143A4.764,4.764,0,0,1,84.883-4.9ZM83.407-5.361A2.933,2.933,0,0,0,82.8-7.3,2.051,2.051,0,0,0,81.157-8a2.328,2.328,0,0,0-1.731.729,3.311,3.311,0,0,0-.879,1.907ZM99.844,0H98.4V-5.168a3.9,3.9,0,0,0-.461-2.162A1.75,1.75,0,0,0,96.39-8a1.921,1.921,0,0,0-1.569.844,3.228,3.228,0,0,0-.646,2.021V0H92.734V-5.344Q92.734-8,90.686-8a1.9,1.9,0,0,0-1.564.8,3.288,3.288,0,0,0-.615,2.07V0H87.065V-9h1.441v1.424h.035a3.058,3.058,0,0,1,2.795-1.635,2.606,2.606,0,0,1,1.608.514,2.586,2.586,0,0,1,.94,1.349,3.212,3.212,0,0,1,2.988-1.863q2.971,0,2.971,3.665Zm9.169,0h-1.441V-1.406h-.035A3.018,3.018,0,0,1,104.768.211a2.959,2.959,0,0,1-2.1-.712,2.466,2.466,0,0,1-.76-1.89q0-2.522,2.971-2.936l2.7-.378Q107.572-8,105.717-8a4.431,4.431,0,0,0-2.936,1.107V-8.367a5.577,5.577,0,0,1,3.059-.844q3.173,0,3.173,3.357Zm-1.441-4.553-2.171.3a3.525,3.525,0,0,0-1.512.5,1.432,1.432,0,0,0-.51,1.261,1.374,1.374,0,0,0,.47,1.077A1.817,1.817,0,0,0,105.1-1a2.314,2.314,0,0,0,1.771-.751,2.685,2.685,0,0,0,.7-1.9Z" transform="translate(743 1777)" fill="#212429"/>
  </g>
</svg>
