<svg xmlns="http://www.w3.org/2000/svg" xmlns:xlink="http://www.w3.org/1999/xlink" width="98" height="98" viewBox="0 0 98 98">
  <defs>
    <filter id="Trazado_982547" x="0" y="0" width="98" height="98" filterUnits="userSpaceOnUse">
      <feOffset dy="3" input="SourceAlpha"/>
      <feGaussianBlur stdDeviation="3" result="blur"/>
      <feFlood flood-opacity="0.161"/>
      <feComposite operator="in" in2="blur"/>
      <feComposite in="SourceGraphic"/>
    </filter>
    <clipPath id="clip-path">
      <path id="path8121" d="M0-682.665H48.414v48.414H0Z" transform="translate(0 682.665)"/>
    </clipPath>
  </defs>
  <g id="Grupo_1208151" data-name="Grupo 1208151" transform="translate(-191 -1765.348)">
    <g id="Grupo_1207910" data-name="Grupo 1207910" transform="translate(0 -320.204)">
      <g id="Grupo_1207712" data-name="Grupo 1207712">
        <g id="Grupo_1207285" data-name="Grupo 1207285" transform="translate(0 344.552)">
          <g id="Grupo_1206883" data-name="Grupo 1206883" transform="translate(0 -209)">
            <g id="Grupo_1204569" data-name="Grupo 1204569" transform="translate(-81 -1890.336)">
              <g id="Grupo_1203962" data-name="Grupo 1203962" transform="translate(281 3846.336)">
                <g id="Grupo_1203498" data-name="Grupo 1203498" transform="translate(0)">
                  <g id="Grupo_1202589" data-name="Grupo 1202589">
                    <g id="Grupo_1172010" data-name="Grupo 1172010">
                      <g id="Grupo_1171046" data-name="Grupo 1171046">
                        <g id="Grupo_1148525" data-name="Grupo 1148525">
                          <g transform="matrix(1, 0, 0, 1, -9, -6)" filter="url(#Trazado_982547)">
                            <g id="Trazado_982547-2" data-name="Trazado 982547" transform="translate(9 6)" fill="#fdfbec">
                              <path d="M 39.99999237060547 78.49998474121094 C 34.8018684387207 78.49998474121094 29.76002502441406 77.48226165771484 25.0145263671875 75.47508239746094 C 20.43014717102051 73.53604888916016 16.31264877319336 70.75984954833984 12.77639198303223 67.22359466552734 C 9.240137100219727 63.68733596801758 6.463936805725098 59.5698356628418 4.524903297424316 54.98546981811523 C 2.517725706100464 50.23995971679688 1.500003457069397 45.19811630249023 1.500003457069397 39.99999237060547 C 1.500003457069397 34.8018684387207 2.517725706100464 29.76002502441406 4.524903297424316 25.0145263671875 C 6.463936805725098 20.43014717102051 9.240137100219727 16.31264877319336 12.77639198303223 12.77639198303223 C 16.31264877319336 9.240137100219727 20.43014717102051 6.463936805725098 25.0145263671875 4.524903297424316 C 29.76002502441406 2.517725706100464 34.8018684387207 1.500003457069397 39.99999237060547 1.500003457069397 C 45.19811630249023 1.500003457069397 50.23995971679688 2.517725706100464 54.98546981811523 4.524903297424316 C 59.5698356628418 6.463936805725098 63.68733596801758 9.240137100219727 67.22359466552734 12.77639198303223 C 70.75984954833984 16.31264877319336 73.53604888916016 20.43014717102051 75.47508239746094 25.0145263671875 C 77.48226165771484 29.76002502441406 78.49998474121094 34.8018684387207 78.49998474121094 39.99999237060547 C 78.49998474121094 45.19812393188477 77.48226165771484 50.23995971679688 75.47508239746094 54.98546981811523 C 73.53604888916016 59.5698356628418 70.75984954833984 63.68733596801758 67.22359466552734 67.22359466552734 C 63.68733596801758 70.75984954833984 59.5698356628418 73.53604888916016 54.98546981811523 75.47508239746094 C 50.23995971679688 77.48226165771484 45.19812393188477 78.49998474121094 39.99999237060547 78.49998474121094 Z" stroke="none"/>
                              <path d="M 39.99999237060547 2.999992370605469 C 35.00370025634766 2.999992370605469 30.1584587097168 3.97784423828125 25.59884643554688 5.906402587890625 C 21.19327163696289 7.769805908203125 17.23603057861328 10.43805694580078 13.83704376220703 13.83704376220703 C 10.43805694580078 17.23603057861328 7.769805908203125 21.19327163696289 5.906402587890625 25.59884643554688 C 3.97784423828125 30.1584587097168 2.999992370605469 35.00370025634766 2.999992370605469 39.99999237060547 C 2.999992370605469 44.99628448486328 3.97784423828125 49.84152603149414 5.906402587890625 54.40113830566406 C 7.769805908203125 58.80671310424805 10.43805694580078 62.76395416259766 13.83704376220703 66.16294097900391 C 17.23603057861328 69.56191253662109 21.19327163696289 72.23016357421875 25.59884643554688 74.09356689453125 C 30.1584587097168 76.02212524414062 35.00370025634766 76.99997711181641 39.99999237060547 76.99997711181641 C 44.99628448486328 76.99997711181641 49.84152603149414 76.02212524414062 54.40113830566406 74.09356689453125 C 58.80671310424805 72.23016357421875 62.76395416259766 69.56191253662109 66.16294097900391 66.16294097900391 C 69.56191253662109 62.76395416259766 72.23016357421875 58.80671310424805 74.09356689453125 54.40113830566406 C 76.02212524414062 49.84152603149414 76.99997711181641 44.99628448486328 76.99997711181641 39.99999237060547 C 76.99997711181641 35.00370025634766 76.02212524414062 30.1584587097168 74.09356689453125 25.59884643554688 C 72.23016357421875 21.19327163696289 69.56191253662109 17.23603057861328 66.16294097900391 13.83704376220703 C 62.76395416259766 10.43805694580078 58.80671310424805 7.769805908203125 54.40113830566406 5.906402587890625 C 49.84152603149414 3.97784423828125 44.99628448486328 2.999992370605469 39.99999237060547 2.999992370605469 M 39.99999237060547 -7.62939453125e-06 C 62.09137725830078 -7.62939453125e-06 79.99997711181641 17.90860748291016 79.99997711181641 39.99999237060547 C 79.99997711181641 62.09137725830078 62.09137725830078 79.99997711181641 39.99999237060547 79.99997711181641 C 17.90860748291016 79.99997711181641 -7.62939453125e-06 62.09137725830078 -7.62939453125e-06 39.99999237060547 C -7.62939453125e-06 17.90860748291016 17.90860748291016 -7.62939453125e-06 39.99999237060547 -7.62939453125e-06 Z" stroke="none" fill="#83793c"/>
                            </g>
                          </g>
                        </g>
                      </g>
                    </g>
                  </g>
                </g>
              </g>
            </g>
          </g>
        </g>
        <g id="g8115" transform="translate(215.793 2790.01)">
          <g id="g8117" transform="translate(0 -682.665)">
            <g id="g8119" clip-path="url(#clip-path)">
              <g id="g8125" transform="translate(-33.259 0.709)">
                <path id="path8127" d="M-338.457-377.826h-25.835v-25.108c5.31-7.679,37.755-5.416,25.835,25.108" transform="translate(364.292 406.667)" fill="#fbdf63"/>
              </g>
              <g id="g8129" transform="translate(-33.259 0.709)">
                <path id="path8131" d="M-338.457-377.826h-.619c6.164-24.728-15.887-30.6-25.216-24.374v-.734c5.31-7.679,37.755-5.416,25.835,25.108" transform="translate(364.292 406.667)" fill="#f9d11f"/>
              </g>
            </g>
          </g>
          <g id="g8265" transform="translate(0 -682.665)">
            <g id="g8267" clip-path="url(#clip-path)">
              <g id="g8273" transform="translate(-33.259 51.036)">
                <path id="path8275" d="M-338.457-377.654h-25.835v-25.1c5.31-7.676,37.755-5.413,25.835,25.1" transform="translate(364.292 406.481)" fill="#003343"/>
              </g>
              <g id="g8277" transform="translate(-33.259 51.036)">
                <path id="path8279" d="M-338.457-377.654h-.619c6.164-24.717-15.887-30.585-25.216-24.362v-.734c5.31-7.676,37.755-5.413,25.835,25.1" transform="translate(364.292 406.481)" fill="#002439"/>
              </g>
            </g>
          </g>
          <g id="g8281" transform="translate(0 -682.665)">
            <g id="g8283" clip-path="url(#clip-path)">
              <g id="g8289" transform="translate(17.066 51.014)">
                <path id="path8291" d="M-338.457-377.826h-25.835v-25.108c5.31-7.679,37.755-5.416,25.835,25.108" transform="translate(364.292 406.667)" fill="#ff7e50"/>
              </g>
              <g id="g8293" transform="translate(17.066 51.014)">
                <path id="path8295" d="M-338.457-377.826h-.619c6.164-24.728-15.887-30.6-25.216-24.374v-.734c5.31-7.679,37.755-5.416,25.835,25.108" transform="translate(364.292 406.667)" fill="#ff6247"/>
              </g>
              <g id="g8297" transform="translate(2.941 54.225)">
                <path id="path8299" d="M-233.028-131.751v15.573h-14.6c-12.2-25.649,14.6-34.273,14.6-15.573" transform="translate(250.816 141.808)" fill="#ffa68a"/>
              </g>
              <g id="g8301" transform="translate(2.941 54.225)">
                <path id="path8303" d="M-233.028-131.751c-.9-16.1-20.23-9.82-14.176,15.573h-.427c-12.2-25.649,14.6-34.273,14.6-15.573" transform="translate(250.816 141.808)" fill="#ff7e50"/>
              </g>
            </g>
          </g>
        </g>
      </g>
    </g>
    <g id="FilledOutline" transform="translate(198.099 1768.332)">
      <path id="Trazado_1052633" data-name="Trazado 1052633" d="M145.267,105.5v4.772a16.358,16.358,0,0,1-1.727,7.315v6.044H131.453v-4.971a2.591,2.591,0,0,0-.758-1.831l-1.6-1.6a3.743,3.743,0,0,1-1.1-2.647v-4.493a1.727,1.727,0,0,1,3.453,0V101.18a1.727,1.727,0,1,1,3.453,0V97.727a1.727,1.727,0,0,1,3.453,0v2.59a1.727,1.727,0,1,1,3.453,0v5.18a1.727,1.727,0,0,1,3.453,0Z" transform="translate(-99.913 -71.366)" fill="#f8caa8"/>
      <path id="Trazado_1052634" data-name="Trazado 1052634" d="M216.633,152.153v4.772a16.358,16.358,0,0,1-1.727,7.315v6.044H213.18v-.341a.859.859,0,0,0-.384-.718l-2.36-1.574a5.47,5.47,0,0,1,.588-9.444l.43-.215v-6.7a3.455,3.455,0,0,1,1.727-2.989v3.853a1.727,1.727,0,1,1,3.453,0Z" transform="translate(-171.279 -118.022)" fill="#f2bb94"/>
      <path id="Trazado_1052635" data-name="Trazado 1052635" d="M144,328h15.541v18.131H144Z" transform="translate(-114.186 -278.329)" fill="#676767"/>
      <path id="Trazado_1052636" data-name="Trazado 1052636" d="M237.294,328v18.131h-3.453V330.249a.86.86,0,0,0-.384-.718L231.16,328Z" transform="translate(-191.94 -278.329)" fill="#4e4e4e"/>
      <path id="Trazado_1052637" data-name="Trazado 1052637" d="M230.907,147.453a1.727,1.727,0,1,0-3.453,0v7.77l-1.384.692a3.743,3.743,0,0,0-.4,6.463l2.36,1.573a2.59,2.59,0,0,1,1.153,2.155v15.881h10.36V164.721a16.356,16.356,0,0,0,1.727-7.315v-7.363a1.727,1.727,0,0,0-3.453,0v-1.727a1.727,1.727,0,1,0-3.453,0v-2.59a1.727,1.727,0,1,0-3.453,0Z" transform="translate(-185.552 -114.186)" fill="#f8caa8"/>
      <path id="Trazado_1052638" data-name="Trazado 1052638" d="M232.406,140.33a2.575,2.575,0,0,0-.955.184,2.589,2.589,0,0,0-3.362-1.762V138.6a2.59,2.59,0,0,0-5.089-.68,2.588,2.588,0,0,0-3.545,2.407v7.237l-.907.453a4.607,4.607,0,0,0-.5,7.953l2.36,1.573a1.724,1.724,0,0,1,.769,1.437v15.881h1.727V158.983a3.446,3.446,0,0,0-1.538-2.873l-2.36-1.573a2.88,2.88,0,0,1,.31-4.972l.135-.067v2.057h1.727V140.33a.863.863,0,1,1,1.727,0v7.77h1.727v-9.5a.863.863,0,0,1,1.727,0v9.5h1.727v-6.907a.863.863,0,1,1,1.727,0v7.77h1.727V142.92a.863.863,0,1,1,1.727,0v7.363a15.57,15.57,0,0,1-1.636,6.929.863.863,0,0,0-.091.386v17.267h1.727V157.8A17.309,17.309,0,0,0,235,150.282V142.92A2.593,2.593,0,0,0,232.406,140.33Z" transform="translate(-178.418 -107.062)"/>
      <path id="Trazado_1052639" data-name="Trazado 1052639" d="M125.18,111.52a3.431,3.431,0,0,0-1.011-2.442l-1.6-1.6a2.862,2.862,0,0,1-.844-2.036v-4.493a.863.863,0,0,1,1.727,0v2.59a.863.863,0,0,0,.591.819l.133.044a2.727,2.727,0,0,1,1.867,2.59h1.727a4.451,4.451,0,0,0-2.59-4.047v-8.9a.863.863,0,1,1,1.727,0v6.907h1.727V90.59a.863.863,0,1,1,1.727,0v10.36h1.727V93.18a.863.863,0,1,1,1.727,0v.863h1.727V93.18a2.589,2.589,0,0,0-3.453-2.442V90.59a2.59,2.59,0,0,0-5.18,0V91.6a2.589,2.589,0,0,0-3.453,2.442v4.465A2.589,2.589,0,0,0,120,100.951v4.493a4.577,4.577,0,0,0,1.349,3.258l1.6,1.6a1.715,1.715,0,0,1,.506,1.221v1.517h-.863a.863.863,0,0,0-.863.863v18.131h1.727V114.765h6.907v-1.727h-5.18Z" transform="translate(-92.776 -64.23)"/>
      <path id="Trazado_1052640" data-name="Trazado 1052640" d="M168,352h1.727v1.727H168Z" transform="translate(-135.596 -299.738)"/>
      <path id="Trazado_1052641" data-name="Trazado 1052641" d="M248,16h1.727v7.77H248Z" transform="translate(-206.962)"/>
      <path id="Trazado_1052642" data-name="Trazado 1052642" d="M0,0H1.727V5.962H0Z" transform="matrix(0.866, -0.5, 0.5, 0.866, 28.202, 19.902)"/>
      <path id="Trazado_1052643" data-name="Trazado 1052643" d="M0,0H1.727V7.77H0Z" transform="matrix(0.5, -0.866, 0.866, 0.5, 19.038, 29.698)"/>
      <path id="Trazado_1052644" data-name="Trazado 1052644" d="M16,248h7.77v1.727H16Z" transform="translate(0 -206.962)"/>
      <path id="Trazado_1052645" data-name="Trazado 1052645" d="M0,0H7.77V1.727H0Z" transform="matrix(0.866, -0.5, 0.5, 0.866, 19.037, 54.104)"/>
      <path id="Trazado_1052646" data-name="Trazado 1052646" d="M0,0H1.727V7.77H0Z" transform="matrix(0.5, -0.866, 0.866, 0.5, 57.17, 51.715)"/>
      <path id="Trazado_1052647" data-name="Trazado 1052647" d="M424,248h7.77v1.727H424Z" transform="translate(-363.968 -206.962)"/>
      <path id="Trazado_1052648" data-name="Trazado 1052648" d="M0,0H7.77V1.727H0Z" transform="matrix(0.866, -0.5, 0.5, 0.866, 57.17, 32.088)"/>
      <path id="Trazado_1052649" data-name="Trazado 1052649" d="M0,0H7.77V1.727H0Z" transform="matrix(0.5, -0.866, 0.866, 0.5, 50.218, 25.768)"/>
      <path id="Trazado_1052650" data-name="Trazado 1052650" d="M0,0H1.727V3.453H0Z" transform="translate(34.813 18.771) rotate(-15.009)"/>
      <path id="Trazado_1052651" data-name="Trazado 1052651" d="M0,0H1.727V3.453H0Z" transform="translate(24.194 25.418) rotate(-45)"/>
      <path id="Trazado_1052652" data-name="Trazado 1052652" d="M0,0H1.727V3.453H0Z" transform="translate(18.329 36.482) rotate(-74.991)"/>
      <path id="Trazado_1052653" data-name="Trazado 1052653" d="M0,0H3.453V1.727H0Z" transform="translate(18.333 47.326) rotate(-15.009)"/>
      <path id="Trazado_1052654" data-name="Trazado 1052654" d="M0,0H3.453V1.727H0Z" transform="translate(46.437 21.662) rotate(-74.991)"/>
      <path id="Trazado_1052655" data-name="Trazado 1052655" d="M0,0H3.453V1.727H0Z" transform="translate(55.937 26.642) rotate(-45)"/>
      <path id="Trazado_1052656" data-name="Trazado 1052656" d="M0,0H3.453V1.727H0Z" transform="translate(61.7 35.697) rotate(-15.009)"/>
      <path id="Trazado_1052657" data-name="Trazado 1052657" d="M0,0H1.727V3.453H0Z" transform="translate(61.704 48.1) rotate(-74.991)"/>
    </g>
  </g>
</svg>
