<svg xmlns="http://www.w3.org/2000/svg" xmlns:xlink="http://www.w3.org/1999/xlink" width="98" height="98" viewBox="0 0 98 98">
  <defs>
    <filter id="Trazado_982547" x="0" y="0" width="98" height="98" filterUnits="userSpaceOnUse">
      <feOffset dy="3" input="SourceAlpha"/>
      <feGaussianBlur stdDeviation="3" result="blur"/>
      <feFlood flood-opacity="0.161"/>
      <feComposite operator="in" in2="blur"/>
      <feComposite in="SourceGraphic"/>
    </filter>
    <clipPath id="clip-path">
      <path id="path8121" d="M0-682.665H48.414v48.414H0Z" transform="translate(0 682.665)"/>
    </clipPath>
  </defs>
  <g id="Grupo_1208153" data-name="Grupo 1208153" transform="translate(-610.575 -1765.348)">
    <g id="Grupo_1208152" data-name="Grupo 1208152">
      <g id="Grupo_1207911" data-name="Grupo 1207911" transform="translate(419.575 -320.204)">
        <g id="Grupo_1207712" data-name="Grupo 1207712">
          <g id="Grupo_1207285" data-name="Grupo 1207285" transform="translate(0 344.552)">
            <g id="Grupo_1206883" data-name="Grupo 1206883" transform="translate(0 -209)">
              <g id="Grupo_1204569" data-name="Grupo 1204569" transform="translate(-81 -1890.336)">
                <g id="Grupo_1203962" data-name="Grupo 1203962" transform="translate(281 3846.336)">
                  <g id="Grupo_1203498" data-name="Grupo 1203498" transform="translate(0)">
                    <g id="Grupo_1202589" data-name="Grupo 1202589">
                      <g id="Grupo_1172010" data-name="Grupo 1172010">
                        <g id="Grupo_1171046" data-name="Grupo 1171046">
                          <g id="Grupo_1148525" data-name="Grupo 1148525">
                            <g transform="matrix(1, 0, 0, 1, -9, -6)" filter="url(#Trazado_982547)">
                              <g id="Trazado_982547-2" data-name="Trazado 982547" transform="translate(9 6)" fill="#fdfbec">
                                <path d="M 39.99999237060547 78.49998474121094 C 34.8018684387207 78.49998474121094 29.76002502441406 77.48226165771484 25.0145263671875 75.47508239746094 C 20.43014717102051 73.53604888916016 16.31264877319336 70.75984954833984 12.77639198303223 67.22359466552734 C 9.240137100219727 63.68733596801758 6.463936805725098 59.5698356628418 4.524903297424316 54.98546981811523 C 2.517725706100464 50.23995971679688 1.500003457069397 45.19811630249023 1.500003457069397 39.99999237060547 C 1.500003457069397 34.8018684387207 2.517725706100464 29.76002502441406 4.524903297424316 25.0145263671875 C 6.463936805725098 20.43014717102051 9.240137100219727 16.31264877319336 12.77639198303223 12.77639198303223 C 16.31264877319336 9.240137100219727 20.43014717102051 6.463936805725098 25.0145263671875 4.524903297424316 C 29.76002502441406 2.517725706100464 34.8018684387207 1.500003457069397 39.99999237060547 1.500003457069397 C 45.19811630249023 1.500003457069397 50.23995971679688 2.517725706100464 54.98546981811523 4.524903297424316 C 59.5698356628418 6.463936805725098 63.68733596801758 9.240137100219727 67.22359466552734 12.77639198303223 C 70.75984954833984 16.31264877319336 73.53604888916016 20.43014717102051 75.47508239746094 25.0145263671875 C 77.48226165771484 29.76002502441406 78.49998474121094 34.8018684387207 78.49998474121094 39.99999237060547 C 78.49998474121094 45.19812393188477 77.48226165771484 50.23995971679688 75.47508239746094 54.98546981811523 C 73.53604888916016 59.5698356628418 70.75984954833984 63.68733596801758 67.22359466552734 67.22359466552734 C 63.68733596801758 70.75984954833984 59.5698356628418 73.53604888916016 54.98546981811523 75.47508239746094 C 50.23995971679688 77.48226165771484 45.19812393188477 78.49998474121094 39.99999237060547 78.49998474121094 Z" stroke="none"/>
                                <path d="M 39.99999237060547 2.999992370605469 C 35.00370025634766 2.999992370605469 30.1584587097168 3.97784423828125 25.59884643554688 5.906402587890625 C 21.19327163696289 7.769805908203125 17.23603057861328 10.43805694580078 13.83704376220703 13.83704376220703 C 10.43805694580078 17.23603057861328 7.769805908203125 21.19327163696289 5.906402587890625 25.59884643554688 C 3.97784423828125 30.1584587097168 2.999992370605469 35.00370025634766 2.999992370605469 39.99999237060547 C 2.999992370605469 44.99628448486328 3.97784423828125 49.84152603149414 5.906402587890625 54.40113830566406 C 7.769805908203125 58.80671310424805 10.43805694580078 62.76395416259766 13.83704376220703 66.16294097900391 C 17.23603057861328 69.56191253662109 21.19327163696289 72.23016357421875 25.59884643554688 74.09356689453125 C 30.1584587097168 76.02212524414062 35.00370025634766 76.99997711181641 39.99999237060547 76.99997711181641 C 44.99628448486328 76.99997711181641 49.84152603149414 76.02212524414062 54.40113830566406 74.09356689453125 C 58.80671310424805 72.23016357421875 62.76395416259766 69.56191253662109 66.16294097900391 66.16294097900391 C 69.56191253662109 62.76395416259766 72.23016357421875 58.80671310424805 74.09356689453125 54.40113830566406 C 76.02212524414062 49.84152603149414 76.99997711181641 44.99628448486328 76.99997711181641 39.99999237060547 C 76.99997711181641 35.00370025634766 76.02212524414062 30.1584587097168 74.09356689453125 25.59884643554688 C 72.23016357421875 21.19327163696289 69.56191253662109 17.23603057861328 66.16294097900391 13.83704376220703 C 62.76395416259766 10.43805694580078 58.80671310424805 7.769805908203125 54.40113830566406 5.906402587890625 C 49.84152603149414 3.97784423828125 44.99628448486328 2.999992370605469 39.99999237060547 2.999992370605469 M 39.99999237060547 -7.62939453125e-06 C 62.09137725830078 -7.62939453125e-06 79.99997711181641 17.90860748291016 79.99997711181641 39.99999237060547 C 79.99997711181641 62.09137725830078 62.09137725830078 79.99997711181641 39.99999237060547 79.99997711181641 C 17.90860748291016 79.99997711181641 -7.62939453125e-06 62.09137725830078 -7.62939453125e-06 39.99999237060547 C -7.62939453125e-06 17.90860748291016 17.90860748291016 -7.62939453125e-06 39.99999237060547 -7.62939453125e-06 Z" stroke="none" fill="#83793c"/>
                              </g>
                            </g>
                          </g>
                        </g>
                      </g>
                    </g>
                  </g>
                </g>
              </g>
            </g>
          </g>
          <g id="g8115" transform="translate(215.793 2790.01)">
            <g id="g8117" transform="translate(0 -682.665)">
              <g id="g8119" clip-path="url(#clip-path)">
                <g id="g8125" transform="translate(-33.259 0.709)">
                  <path id="path8127" d="M-338.457-377.826h-25.835v-25.108c5.31-7.679,37.755-5.416,25.835,25.108" transform="translate(364.292 406.667)" fill="#fbdf63"/>
                </g>
                <g id="g8129" transform="translate(-33.259 0.709)">
                  <path id="path8131" d="M-338.457-377.826h-.619c6.164-24.728-15.887-30.6-25.216-24.374v-.734c5.31-7.679,37.755-5.416,25.835,25.108" transform="translate(364.292 406.667)" fill="#f9d11f"/>
                </g>
              </g>
            </g>
            <g id="g8265" transform="translate(0 -682.665)">
              <g id="g8267" clip-path="url(#clip-path)">
                <g id="g8273" transform="translate(-33.259 51.036)">
                  <path id="path8275" d="M-338.457-377.654h-25.835v-25.1c5.31-7.676,37.755-5.413,25.835,25.1" transform="translate(364.292 406.481)" fill="#003343"/>
                </g>
                <g id="g8277" transform="translate(-33.259 51.036)">
                  <path id="path8279" d="M-338.457-377.654h-.619c6.164-24.717-15.887-30.585-25.216-24.362v-.734c5.31-7.676,37.755-5.413,25.835,25.1" transform="translate(364.292 406.481)" fill="#002439"/>
                </g>
              </g>
            </g>
            <g id="g8281" transform="translate(0 -682.665)">
              <g id="g8283" clip-path="url(#clip-path)">
                <g id="g8289" transform="translate(17.066 51.014)">
                  <path id="path8291" d="M-338.457-377.826h-25.835v-25.108c5.31-7.679,37.755-5.416,25.835,25.108" transform="translate(364.292 406.667)" fill="#ff7e50"/>
                </g>
                <g id="g8293" transform="translate(17.066 51.014)">
                  <path id="path8295" d="M-338.457-377.826h-.619c6.164-24.728-15.887-30.6-25.216-24.374v-.734c5.31-7.679,37.755-5.416,25.835,25.108" transform="translate(364.292 406.667)" fill="#ff6247"/>
                </g>
                <g id="g8297" transform="translate(2.941 54.225)">
                  <path id="path8299" d="M-233.028-131.751v15.573h-14.6c-12.2-25.649,14.6-34.273,14.6-15.573" transform="translate(250.816 141.808)" fill="#ffa68a"/>
                </g>
                <g id="g8301" transform="translate(2.941 54.225)">
                  <path id="path8303" d="M-233.028-131.751c-.9-16.1-20.23-9.82-14.176,15.573h-.427c-12.2-25.649,14.6-34.273,14.6-15.573" transform="translate(250.816 141.808)" fill="#ff7e50"/>
                </g>
              </g>
            </g>
          </g>
        </g>
      </g>
      <g id="practice_15419810" transform="translate(628.176 1779.953)">
        <circle id="Elipse_13443" data-name="Elipse 13443" cx="9.806" cy="9.806" r="9.806" transform="translate(41.205 11.787)" fill="#83abe6"/>
        <path id="Trazado_1052658" data-name="Trazado 1052658" d="M51.878,15.5l1.912,3.873,4.275.618-3.1,3.02.735,4.256-3.824-2.01-3.824,2.01.735-4.256-3.1-3.02,4.275-.618Z" transform="translate(-0.867 -0.281)" fill="#ffe680"/>
        <circle id="Elipse_13444" data-name="Elipse 13444" cx="9.806" cy="9.806" r="9.806" transform="translate(1.981 11.787)" fill="#72bf9f"/>
        <path id="Trazado_1052659" data-name="Trazado 1052659" d="M22,62.632V50.207C22,46.785,24.442,44,27.452,44H36.16c3.01,0,5.452,2.785,5.452,6.207V62.632Z" transform="translate(-0.407 -0.834)" fill="#83abe6"/>
        <circle id="Elipse_13445" data-name="Elipse 13445" cx="5.884" cy="5.884" r="5.884" transform="translate(25.515 30.418)" fill="#f0cfa3"/>
        <path id="Trazado_1052660" data-name="Trazado 1052660" d="M31.942,44,29,53.806l2.942,4.9,2.942-4.9Z" transform="translate(-0.543 -0.834)" fill="#f2f2f2"/>
        <path id="Trazado_1052661" data-name="Trazado 1052661" d="M16.6,26.09l-3.638-3.628V16H11v6.864a.981.981,0,0,0,.284.7l3.922,3.922Z" transform="translate(-0.194 -0.291)"/>
        <path id="Trazado_1052662" data-name="Trazado 1052662" d="M52.741,15.049a.981.981,0,0,0-1.765,0L49.3,18.462,45.533,19a.981.981,0,0,0-.539,1.677l2.726,2.657-.637,3.746A.983.983,0,0,0,48.5,28.14l3.354-1.795,3.363,1.775a1.1,1.1,0,0,0,.461.108.981.981,0,0,0,.981-1.147l-.637-3.746,2.7-2.657A.981.981,0,0,0,58.173,19l-3.766-.539Zm1.53,7.237a.981.981,0,0,0-.284.873l.392,2.295-2.059-1.088a1.039,1.039,0,0,0-.922,0l-2.059,1.088.392-2.295a.981.981,0,0,0-.284-.873l-1.667-1.628,2.3-.333a.981.981,0,0,0,.745-.539l.981-2.089.981,2.089a.981.981,0,0,0,.745.539l2.3.333Z" transform="translate(-0.847 -0.262)"/>
        <path id="Trazado_1052663" data-name="Trazado 1052663" d="M51.5,10.806a25.5,25.5,0,0,0-40.205,0A10.787,10.787,0,0,0,6.285,30.859a25.672,25.672,0,0,0,14.327,18.72V61.8h1.961V49.373c0-2.883,1.961-5.227,4.472-5.227h3.04l-2.608,8.541a.981.981,0,0,0,.1.784l2.942,4.9a.981.981,0,0,0,1.687,0l2.942-4.9a.981.981,0,0,0,.1-.784l-2.53-8.541h3.04c2.51,0,4.472,2.344,4.472,5.227V61.8h1.961V49.579a25.672,25.672,0,0,0,14.327-18.72A10.787,10.787,0,0,0,51.5,10.806ZM31.4,55.973l-1.883-3.138L31.4,46.579l1.883,6.256ZM2.961,21.593a8.825,8.825,0,1,1,8.825,8.825A8.825,8.825,0,0,1,2.961,21.593ZM31.4,41.2a4.9,4.9,0,1,1,4.9-4.9,4.9,4.9,0,0,1-4.9,4.9ZM41.96,47.52a6.609,6.609,0,0,0-6.207-5.335h-.834a6.864,6.864,0,1,0-7.041,0h-.834a6.609,6.609,0,0,0-6.207,5.335A23.711,23.711,0,0,1,8.492,31.83a10.787,10.787,0,1,0,5.256-20.848,23.535,23.535,0,0,1,35.38,0A10.787,10.787,0,1,0,54.345,31.86,23.711,23.711,0,0,1,41.96,47.52Zm9.051-17.1a8.825,8.825,0,1,1,8.825-8.825A8.825,8.825,0,0,1,51.011,30.418Z" transform="translate(0)"/>
      </g>
    </g>
  </g>
</svg>
