<svg xmlns="http://www.w3.org/2000/svg" xmlns:xlink="http://www.w3.org/1999/xlink" width="98" height="98" viewBox="0 0 98 98">
  <defs>
    <filter id="Trazado_982547" x="0" y="0" width="98" height="98" filterUnits="userSpaceOnUse">
      <feOffset dy="3" input="SourceAlpha"/>
      <feGaussianBlur stdDeviation="3" result="blur"/>
      <feFlood flood-opacity="0.161"/>
      <feComposite operator="in" in2="blur"/>
      <feComposite in="SourceGraphic"/>
    </filter>
    <clipPath id="clip-path">
      <path id="path8121" d="M0-682.665H48.414v48.414H0Z" transform="translate(0 682.665)"/>
    </clipPath>
  </defs>
  <g id="Grupo_1208154" data-name="Grupo 1208154" transform="translate(-1031 -1765.348)">
    <g id="Grupo_1207912" data-name="Grupo 1207912" transform="translate(840 -320.204)">
      <g id="Grupo_1207712" data-name="Grupo 1207712">
        <g id="Grupo_1207285" data-name="Grupo 1207285" transform="translate(0 344.552)">
          <g id="Grupo_1206883" data-name="Grupo 1206883" transform="translate(0 -209)">
            <g id="Grupo_1204569" data-name="Grupo 1204569" transform="translate(-81 -1890.336)">
              <g id="Grupo_1203962" data-name="Grupo 1203962" transform="translate(281 3846.336)">
                <g id="Grupo_1203498" data-name="Grupo 1203498" transform="translate(0)">
                  <g id="Grupo_1202589" data-name="Grupo 1202589">
                    <g id="Grupo_1172010" data-name="Grupo 1172010">
                      <g id="Grupo_1171046" data-name="Grupo 1171046">
                        <g id="Grupo_1148525" data-name="Grupo 1148525">
                          <g transform="matrix(1, 0, 0, 1, -9, -6)" filter="url(#Trazado_982547)">
                            <g id="Trazado_982547-2" data-name="Trazado 982547" transform="translate(9 6)" fill="#fdfbec">
                              <path d="M 39.99999237060547 78.49998474121094 C 34.8018684387207 78.49998474121094 29.76002502441406 77.48226165771484 25.0145263671875 75.47508239746094 C 20.43014717102051 73.53604888916016 16.31264877319336 70.75984954833984 12.77639198303223 67.22359466552734 C 9.240137100219727 63.68733596801758 6.463936805725098 59.5698356628418 4.524903297424316 54.98546981811523 C 2.517725706100464 50.23995971679688 1.500003457069397 45.19811630249023 1.500003457069397 39.99999237060547 C 1.500003457069397 34.8018684387207 2.517725706100464 29.76002502441406 4.524903297424316 25.0145263671875 C 6.463936805725098 20.43014717102051 9.240137100219727 16.31264877319336 12.77639198303223 12.77639198303223 C 16.31264877319336 9.240137100219727 20.43014717102051 6.463936805725098 25.0145263671875 4.524903297424316 C 29.76002502441406 2.517725706100464 34.8018684387207 1.500003457069397 39.99999237060547 1.500003457069397 C 45.19811630249023 1.500003457069397 50.23995971679688 2.517725706100464 54.98546981811523 4.524903297424316 C 59.5698356628418 6.463936805725098 63.68733596801758 9.240137100219727 67.22359466552734 12.77639198303223 C 70.75984954833984 16.31264877319336 73.53604888916016 20.43014717102051 75.47508239746094 25.0145263671875 C 77.48226165771484 29.76002502441406 78.49998474121094 34.8018684387207 78.49998474121094 39.99999237060547 C 78.49998474121094 45.19812393188477 77.48226165771484 50.23995971679688 75.47508239746094 54.98546981811523 C 73.53604888916016 59.5698356628418 70.75984954833984 63.68733596801758 67.22359466552734 67.22359466552734 C 63.68733596801758 70.75984954833984 59.5698356628418 73.53604888916016 54.98546981811523 75.47508239746094 C 50.23995971679688 77.48226165771484 45.19812393188477 78.49998474121094 39.99999237060547 78.49998474121094 Z" stroke="none"/>
                              <path d="M 39.99999237060547 2.999992370605469 C 35.00370025634766 2.999992370605469 30.1584587097168 3.97784423828125 25.59884643554688 5.906402587890625 C 21.19327163696289 7.769805908203125 17.23603057861328 10.43805694580078 13.83704376220703 13.83704376220703 C 10.43805694580078 17.23603057861328 7.769805908203125 21.19327163696289 5.906402587890625 25.59884643554688 C 3.97784423828125 30.1584587097168 2.999992370605469 35.00370025634766 2.999992370605469 39.99999237060547 C 2.999992370605469 44.99628448486328 3.97784423828125 49.84152603149414 5.906402587890625 54.40113830566406 C 7.769805908203125 58.80671310424805 10.43805694580078 62.76395416259766 13.83704376220703 66.16294097900391 C 17.23603057861328 69.56191253662109 21.19327163696289 72.23016357421875 25.59884643554688 74.09356689453125 C 30.1584587097168 76.02212524414062 35.00370025634766 76.99997711181641 39.99999237060547 76.99997711181641 C 44.99628448486328 76.99997711181641 49.84152603149414 76.02212524414062 54.40113830566406 74.09356689453125 C 58.80671310424805 72.23016357421875 62.76395416259766 69.56191253662109 66.16294097900391 66.16294097900391 C 69.56191253662109 62.76395416259766 72.23016357421875 58.80671310424805 74.09356689453125 54.40113830566406 C 76.02212524414062 49.84152603149414 76.99997711181641 44.99628448486328 76.99997711181641 39.99999237060547 C 76.99997711181641 35.00370025634766 76.02212524414062 30.1584587097168 74.09356689453125 25.59884643554688 C 72.23016357421875 21.19327163696289 69.56191253662109 17.23603057861328 66.16294097900391 13.83704376220703 C 62.76395416259766 10.43805694580078 58.80671310424805 7.769805908203125 54.40113830566406 5.906402587890625 C 49.84152603149414 3.97784423828125 44.99628448486328 2.999992370605469 39.99999237060547 2.999992370605469 M 39.99999237060547 -7.62939453125e-06 C 62.09137725830078 -7.62939453125e-06 79.99997711181641 17.90860748291016 79.99997711181641 39.99999237060547 C 79.99997711181641 62.09137725830078 62.09137725830078 79.99997711181641 39.99999237060547 79.99997711181641 C 17.90860748291016 79.99997711181641 -7.62939453125e-06 62.09137725830078 -7.62939453125e-06 39.99999237060547 C -7.62939453125e-06 17.90860748291016 17.90860748291016 -7.62939453125e-06 39.99999237060547 -7.62939453125e-06 Z" stroke="none" fill="#83793c"/>
                            </g>
                          </g>
                        </g>
                      </g>
                    </g>
                  </g>
                </g>
              </g>
            </g>
          </g>
        </g>
        <g id="g8115" transform="translate(215.793 2790.01)">
          <g id="g8117" transform="translate(0 -682.665)">
            <g id="g8119" clip-path="url(#clip-path)">
              <g id="g8125" transform="translate(-33.259 0.709)">
                <path id="path8127" d="M-338.457-377.826h-25.835v-25.108c5.31-7.679,37.755-5.416,25.835,25.108" transform="translate(364.292 406.667)" fill="#fbdf63"/>
              </g>
              <g id="g8129" transform="translate(-33.259 0.709)">
                <path id="path8131" d="M-338.457-377.826h-.619c6.164-24.728-15.887-30.6-25.216-24.374v-.734c5.31-7.679,37.755-5.416,25.835,25.108" transform="translate(364.292 406.667)" fill="#f9d11f"/>
              </g>
            </g>
          </g>
          <g id="g8265" transform="translate(0 -682.665)">
            <g id="g8267" clip-path="url(#clip-path)">
              <g id="g8273" transform="translate(-33.259 51.036)">
                <path id="path8275" d="M-338.457-377.654h-25.835v-25.1c5.31-7.676,37.755-5.413,25.835,25.1" transform="translate(364.292 406.481)" fill="#003343"/>
              </g>
              <g id="g8277" transform="translate(-33.259 51.036)">
                <path id="path8279" d="M-338.457-377.654h-.619c6.164-24.717-15.887-30.585-25.216-24.362v-.734c5.31-7.676,37.755-5.413,25.835,25.1" transform="translate(364.292 406.481)" fill="#002439"/>
              </g>
            </g>
          </g>
          <g id="g8281" transform="translate(0 -682.665)">
            <g id="g8283" clip-path="url(#clip-path)">
              <g id="g8289" transform="translate(17.066 51.014)">
                <path id="path8291" d="M-338.457-377.826h-25.835v-25.108c5.31-7.679,37.755-5.416,25.835,25.108" transform="translate(364.292 406.667)" fill="#ff7e50"/>
              </g>
              <g id="g8293" transform="translate(17.066 51.014)">
                <path id="path8295" d="M-338.457-377.826h-.619c6.164-24.728-15.887-30.6-25.216-24.374v-.734c5.31-7.679,37.755-5.416,25.835,25.108" transform="translate(364.292 406.667)" fill="#ff6247"/>
              </g>
              <g id="g8297" transform="translate(2.941 54.225)">
                <path id="path8299" d="M-233.028-131.751v15.573h-14.6c-12.2-25.649,14.6-34.273,14.6-15.573" transform="translate(250.816 141.808)" fill="#ffa68a"/>
              </g>
              <g id="g8301" transform="translate(2.941 54.225)">
                <path id="path8303" d="M-233.028-131.751c-.9-16.1-20.23-9.82-14.176,15.573h-.427c-12.2-25.649,14.6-34.273,14.6-15.573" transform="translate(250.816 141.808)" fill="#ff7e50"/>
              </g>
            </g>
          </g>
        </g>
      </g>
    </g>
    <g id="Layer_33" data-name="Layer 33" transform="translate(1054.031 1784.879)">
      <path id="Trazado_1052664" data-name="Trazado 1052664" d="M28.753,41.19v16.3H4.265A3.265,3.265,0,0,1,1,54.223V41.19a6.53,6.53,0,0,1,4.735-6.279L12.428,33h4.9l6.693,1.912A6.53,6.53,0,0,1,28.753,41.19Z" transform="translate(-0.184 -6.063)" fill="#62b5e8"/>
      <path id="Trazado_1052665" data-name="Trazado 1052665" d="M3.449,54.223V41.19a6.53,6.53,0,0,1,4.735-6.279L14.877,33H12.428L5.734,34.912A6.53,6.53,0,0,0,1,41.19V54.223a3.265,3.265,0,0,0,3.265,3.265H6.714A3.265,3.265,0,0,1,3.449,54.223Z" transform="translate(-0.184 -6.063)" fill="#44a7d8"/>
      <rect id="Rectángulo_419471" data-name="Rectángulo 419471" width="5" height="5" transform="translate(12.121 23.121)" fill="#f7d1c6"/>
      <path id="Trazado_1052666" data-name="Trazado 1052666" d="M43.8,1h0a9.8,9.8,0,0,1,9.8,9.8V24.672a6.53,6.53,0,0,1-6.53,6.53H40.53A6.53,6.53,0,0,1,34,24.672V10.8A9.8,9.8,0,0,1,43.8,1Z" transform="translate(-6.247 -0.184)" fill="#c67a60"/>
      <path id="Trazado_1052667" data-name="Trazado 1052667" d="M36.449,24.671V10.794a9.79,9.79,0,0,1,8.57-9.714A9.736,9.736,0,0,0,34,10.794V24.671a6.53,6.53,0,0,0,6.53,6.53h2.449A6.53,6.53,0,0,1,36.449,24.671Z" transform="translate(-6.247 -0.183)" fill="#b26049"/>
      <path id="Trazado_1052668" data-name="Trazado 1052668" d="M56.753,41.19V54.223a3.265,3.265,0,0,1-3.265,3.265H29V41.19a6.53,6.53,0,0,1,4.735-6.279L40.428,33h4.9l6.693,1.912A6.53,6.53,0,0,1,56.753,41.19Z" transform="translate(-5.328 -6.063)" fill="#f2a7b1"/>
      <path id="Trazado_1052669" data-name="Trazado 1052669" d="M43,28h4.9v4.081a2.449,2.449,0,0,1-2.449,2.449h0A2.449,2.449,0,0,1,43,32.081Z" transform="translate(-7.9 -5.144)" fill="#f7d1c6"/>
      <path id="Trazado_1052670" data-name="Trazado 1052670" d="M9,11H23.693v8.979a7.346,7.346,0,0,1-7.346,7.346h0A7.346,7.346,0,0,1,9,19.979Z" transform="translate(-1.654 -2.021)" fill="#f7d1c6"/>
      <path id="Trazado_1052671" data-name="Trazado 1052671" d="M11.449,19.979V11H9v8.979a7.306,7.306,0,0,0,8.571,7.236,7.342,7.342,0,0,1-6.122-7.236Z" transform="translate(-1.654 -2.021)" fill="#f4b19f"/>
      <path id="Trazado_1052672" data-name="Trazado 1052672" d="M23.4,24.3l-2-1.591A3.265,3.265,0,0,0,19.369,22H13.492a3.265,3.265,0,0,0-2.031.709l-2,1.591a7.346,7.346,0,0,0,13.948,0Z" transform="translate(-1.737 -4.042)" fill="#c67a60"/>
      <path id="Trazado_1052673" data-name="Trazado 1052673" d="M8.449,15h0v4.9h0A2.449,2.449,0,0,1,6,17.449H6A2.449,2.449,0,0,1,8.449,15Z" transform="translate(-1.102 -2.756)" fill="#f4b19f"/>
      <path id="Trazado_1052674" data-name="Trazado 1052674" d="M17.655,29.384a7.592,7.592,0,0,1-1.224.106A7.325,7.325,0,0,1,9.46,24.445l2-1.592a.49.49,0,0,1,.106-.073,7.336,7.336,0,0,0,6.089,6.6Z" transform="translate(-1.738 -4.185)" fill="#b26049"/>
      <path id="Trazado_1052675" data-name="Trazado 1052675" d="M2.449,0h0V4.9h0A2.449,2.449,0,0,1,0,2.449H0A2.449,2.449,0,0,1,2.449,0Z" transform="translate(24.488 17.142) rotate(180)" fill="#f7d1c6"/>
      <path id="Trazado_1052676" data-name="Trazado 1052676" d="M44.346,27.325h0A7.346,7.346,0,0,1,37,19.979V14.265h3.265a6.53,6.53,0,0,0,5.224-2.612l.49-.653.49.653a6.53,6.53,0,0,0,5.224,2.612h0v5.714A7.346,7.346,0,0,1,44.346,27.325Z" transform="translate(-6.798 -2.021)" fill="#f7d1c6"/>
      <path id="Trazado_1052677" data-name="Trazado 1052677" d="M39.449,20.714V15H37v5.714a7.306,7.306,0,0,0,8.571,7.236,7.342,7.342,0,0,1-6.122-7.236Z" transform="translate(-6.798 -2.756)" fill="#f4b19f"/>
      <path id="Trazado_1052678" data-name="Trazado 1052678" d="M36.449,15h0v4.9h0A2.449,2.449,0,0,1,34,17.449h0A2.449,2.449,0,0,1,36.449,15Z" transform="translate(-6.247 -2.756)" fill="#f4b19f"/>
      <path id="Trazado_1052679" data-name="Trazado 1052679" d="M2.449,0h0V4.9h0A2.449,2.449,0,0,1,0,2.449H0A2.449,2.449,0,0,1,2.449,0Z" transform="translate(47.344 17.142) rotate(180)" fill="#f7d1c6"/>
      <path id="Trazado_1052680" data-name="Trazado 1052680" d="M20.693,3.439V2.633A1.633,1.633,0,0,0,19.06,1H12.786A6.786,6.786,0,0,0,6,7.786H6a4.641,4.641,0,0,0,4.641,4.641h0a14.693,14.693,0,0,0,9.178-3.219l.057-.046h0a3.265,3.265,0,0,0,3.265,3.265h0V5.072a1.633,1.633,0,0,0-1.633-1.633Z" transform="translate(-1.102 -0.184)" fill="#c67a60"/>
      <path id="Trazado_1052681" data-name="Trazado 1052681" d="M8.449,7.786h0A6.786,6.786,0,0,1,15.235,1H12.786A6.786,6.786,0,0,0,6,7.786H6a4.641,4.641,0,0,0,4.641,4.641h0a14.646,14.646,0,0,0,1.539-.091A4.641,4.641,0,0,1,8.449,7.786Z" transform="translate(-1.102 -0.184)" fill="#b26049"/>
      <path id="Trazado_1052682" data-name="Trazado 1052682" d="M17.081,34.449,14.633,32,13,33.633l1.633,4.081Z" transform="translate(-2.389 -5.879)" fill="#44a7d8"/>
      <path id="Trazado_1052683" data-name="Trazado 1052683" d="M33.081,49.42a6.53,6.53,0,0,0,6.53-6.53v.028h.816a1.633,1.633,0,1,0,0-3.265h-.816V36.36a6.49,6.49,0,0,0-.659-2.844l-5.218,1.491A6.53,6.53,0,0,0,29,41.285v6.7A6.5,6.5,0,0,0,33.081,49.42Z" transform="translate(-5.328 -6.158)" fill="#e8859b"/>
      <path id="Trazado_1052684" data-name="Trazado 1052684" d="M18,34.449,20.449,32l1.633,1.633-1.633,4.081Z" transform="translate(-3.307 -5.879)" fill="#44a7d8"/>
      <rect id="Rectángulo_419472" data-name="Rectángulo 419472" width="4" height="5" transform="translate(24.121 41.121)" fill="#f7d1c6"/>
      <path id="Trazado_1052685" data-name="Trazado 1052685" d="M33.662,53.031H32.055v.791a2.449,2.449,0,0,1-2.449,2.449h0a2.449,2.449,0,0,1-2.449-2.449v-.791H25.5a6.53,6.53,0,0,0-6.53,6.53v1.607H40.192V59.561A6.53,6.53,0,0,0,33.662,53.031Z" transform="translate(-3.485 -9.743)" fill="#f96464"/>
      <path id="Trazado_1052686" data-name="Trazado 1052686" d="M24,37H37.06v6.53a6.53,6.53,0,0,1-6.53,6.53h0A6.53,6.53,0,0,1,24,43.53Z" transform="translate(-4.41 -6.798)" fill="#f7d1c6"/>
      <path id="Trazado_1052687" data-name="Trazado 1052687" d="M26.449,43.53V37H24v6.53a6.518,6.518,0,0,0,7.755,6.412A6.53,6.53,0,0,1,26.449,43.53Z" transform="translate(-4.41 -6.798)" fill="#f4b19f"/>
      <path id="Trazado_1052688" data-name="Trazado 1052688" d="M22.633,41h.816v3.265h-.816A1.633,1.633,0,0,1,21,42.633h0A1.633,1.633,0,0,1,22.633,41Z" transform="translate(-3.858 -7.533)" fill="#f4b19f"/>
      <path id="Trazado_1052689" data-name="Trazado 1052689" d="M1.633,0h.816V3.265H1.633A1.633,1.633,0,0,1,0,1.633H0A1.633,1.633,0,0,1,1.633,0Z" transform="translate(35.1 36.761) rotate(180)" fill="#f7d1c6"/>
      <path id="Trazado_1052690" data-name="Trazado 1052690" d="M37.06,38.8H33.515a3.265,3.265,0,0,1-2.309-.957l-.676-.676-.676.676a3.265,3.265,0,0,1-2.309.957H24V35.53A6.53,6.53,0,0,1,30.53,29h0a6.53,6.53,0,0,1,6.53,6.53Z" transform="translate(-4.41 -5.328)" fill="#c67a60"/>
      <path id="Trazado_1052691" data-name="Trazado 1052691" d="M23.076,59.095V57.462a2.449,2.449,0,0,0-1.924-2.389,6.509,6.509,0,0,0-2.183,4.863v.954a2.441,2.441,0,0,0,4.107-1.8Z" transform="translate(-3.485 -10.119)" fill="#d34444"/>
      <path id="Trazado_1052692" data-name="Trazado 1052692" d="M31.755,29.118A6.518,6.518,0,0,0,24,35.53V38.8h2.449V35.53a6.53,6.53,0,0,1,5.306-6.412Z" transform="translate(-4.41 -5.328)" fill="#b26049"/>
      <rect id="Rectángulo_419473" data-name="Rectángulo 419473" width="5" height="6" rx="2.5" transform="translate(13.121 45.121)" fill="#f7d1c6"/>
      <path id="Trazado_1052693" data-name="Trazado 1052693" d="M17.633,59.081V57.449a2.441,2.441,0,0,1,1.633-2.3,2.418,2.418,0,0,0-.816-.15A2.449,2.449,0,0,0,16,57.449v1.633a2.449,2.449,0,0,0,2.449,2.449,2.418,2.418,0,0,0,.816-.15A2.441,2.441,0,0,1,17.633,59.081Z" transform="translate(-2.94 -10.105)" fill="#f4b19f"/>
      <path id="Trazado_1052694" data-name="Trazado 1052694" d="M54.244,49.012V53.9a1.633,1.633,0,0,1-1.633,1.633H46.747A2.443,2.443,0,0,0,42,56.349v1.633a2.449,2.449,0,0,0,2.449,2.449H55.877a3.265,3.265,0,0,0,3.265-3.265V49.012Z" transform="translate(-7.717 -9.005)" fill="#f7d1c6"/>
      <path id="Trazado_1052695" data-name="Trazado 1052695" d="M58.265,53.9V49.012H56.633V53.9A1.633,1.633,0,0,1,55,55.532h1.633A1.633,1.633,0,0,0,58.265,53.9Z" transform="translate(-10.105 -9.005)" fill="#f4b19f"/>
      <path id="Trazado_1052696" data-name="Trazado 1052696" d="M43.633,59.081V57.449a2.442,2.442,0,0,1,1.64-2.3A2.415,2.415,0,0,0,44.449,55,2.449,2.449,0,0,0,42,57.449v1.633a2.449,2.449,0,0,0,2.449,2.449h1.633A2.449,2.449,0,0,1,43.633,59.081Z" transform="translate(-7.717 -10.105)" fill="#f4b19f"/>
      <path id="Trazado_1052697" data-name="Trazado 1052697" d="M47.18,28.151a7.369,7.369,0,0,0,.98-3.663V10.611a10.611,10.611,0,1,0-21.223,0V22.9a7.306,7.306,0,0,0-7.536,4.34.653.653,0,0,0-.05-.068l-1.633-1.633-.011-.007a8.17,8.17,0,0,0,5.147-7.578v-.116a3.25,3.25,0,0,0,0-6.3V4.888a2.449,2.449,0,0,0-2.449-2.449A2.449,2.449,0,0,0,17.958,0H11.684a7.611,7.611,0,0,0-7.6,7.6,5.444,5.444,0,0,0,1.9,4.132,3.25,3.25,0,0,0,.546,6.107v.116a8.17,8.17,0,0,0,5.147,7.578l-.011.007-.993.993L5.329,28.064A7.377,7.377,0,0,0,0,35.127V48.16a4.086,4.086,0,0,0,4.081,4.081H48.16a4.086,4.086,0,0,0,4.081-4.081V35.127A7.374,7.374,0,0,0,47.18,28.151Zm3.428,6.976v4.063H47.344V36.732a.816.816,0,1,0-1.633,0v8.163a.816.816,0,0,1-.816.816H39.549a3.265,3.265,0,0,0-2.817-1.633,3.221,3.221,0,0,0-1.524.4A7.346,7.346,0,0,0,30.659,42.5a7.341,7.341,0,0,0,2.756-4.921h.052a2.449,2.449,0,1,0,0-4.9V30.2a7.306,7.306,0,0,0-.252-1.877l1.251-.358a3.243,3.243,0,0,0,6.165,0l5.833,1.664A5.738,5.738,0,0,1,50.609,35.127ZM13.877,48.976V47.344a1.633,1.633,0,0,1,3.265,0v1.633a1.633,1.633,0,1,1-3.265,0Zm4.352-3.435A5.721,5.721,0,0,1,22.014,44.1h.842a3.265,3.265,0,0,0,6.53,0h.791A5.724,5.724,0,0,1,34,45.573a3.241,3.241,0,0,0-.53,1.77v1.633a3.213,3.213,0,0,0,.455,1.633H18.32a3.232,3.232,0,0,0,.454-1.633V47.344a3.247,3.247,0,0,0-.546-1.8ZM17.958,35.1a.816.816,0,0,1,.816-.816v1.633A.816.816,0,0,1,17.958,35.1Zm2.449-.816h2.729a4.054,4.054,0,0,0,2.886-1.2l.1-.1.1.1a4.054,4.054,0,0,0,2.886,1.2h2.729v2.449a5.714,5.714,0,0,1-11.428,0Zm13.06,1.66V34.311a.816.816,0,1,1,0,1.633Zm-7.346,8.135a7.323,7.323,0,0,0,1.633-.189v.189a1.633,1.633,0,0,1-3.265,0v-.189A7.323,7.323,0,0,0,26.121,44.079Zm3.265-27.973a1.633,1.633,0,0,1,0-2.826Zm1.633-3.045h2.449a7.382,7.382,0,0,0,5.714-2.73,7.386,7.386,0,0,0,4.9,2.683v4.944a6.53,6.53,0,0,1-13.06,0Zm15.509,1.633a1.633,1.633,0,0,1-.816,1.413V13.28A1.633,1.633,0,0,1,46.527,14.693Zm0,2.811v6.984a5.632,5.632,0,0,1-.992,3.183l-4.722-1.35v-.887a8.171,8.171,0,0,0,4.9-7.476v-.116a3.237,3.237,0,0,0,.816-.338Zm-8.979,8.617a8.149,8.149,0,0,0,1.633-.163v.98a1.633,1.633,0,0,1-3.265,0v-.98A8.149,8.149,0,0,0,37.548,26.121Zm0-24.488a8.99,8.99,0,0,1,8.979,8.979v1.27a3.232,3.232,0,0,0-1.633-.454,5.742,5.742,0,0,1-4.571-2.286l-.49-.653a.846.846,0,0,0-1.306,0l-.49.653a5.742,5.742,0,0,1-4.571,2.286H30.2a3.232,3.232,0,0,0-1.633.454v-1.27A8.99,8.99,0,0,1,37.548,1.633ZM28.569,17.5a3.237,3.237,0,0,0,.816.338v.116a8.171,8.171,0,0,0,4.9,7.476v.887l-1.659.474a7.378,7.378,0,0,0-4.054-3.512ZM20.407,30.2a5.714,5.714,0,0,1,11.428,0v2.449H29.106a2.465,2.465,0,0,1-1.731-.717l-.677-.677a.816.816,0,0,0-1.154,0l-.677.677a2.465,2.465,0,0,1-1.731.717H20.407Zm-2.59-2.252-.9,2.233L15.77,28.646l1.371-1.371ZM8.163,12.877a5.434,5.434,0,0,0,1.376.183A15.576,15.576,0,0,0,18.213,10.4a4.093,4.093,0,0,0,3.01,2.566s-.025,5.564-.063,5.844l-.986-.784a4.1,4.1,0,0,0-2.543-.886H11.754a4.1,4.1,0,0,0-2.539.886l-.986.784C8.188,18.529,8.163,12.877,8.163,12.877Zm15.509,1.815a1.633,1.633,0,0,1-.816,1.413V13.28A1.633,1.633,0,0,1,23.672,14.693ZM11.684,1.633h6.274a.816.816,0,0,1,.816.816v.806a.816.816,0,0,0,.816.816h.816a.816.816,0,0,1,.816.816v6.4A2.454,2.454,0,0,1,19.59,8.979a.816.816,0,0,0-.49-.713.873.873,0,0,0-.891.122,13.93,13.93,0,0,1-8.67,3.041A3.829,3.829,0,0,1,5.714,7.6a5.977,5.977,0,0,1,5.97-5.97Zm-5.97,13.06A1.633,1.633,0,0,1,6.53,13.28v2.826A1.633,1.633,0,0,1,5.714,14.693Zm2.977,5.835L10.228,19.3a2.449,2.449,0,0,1,1.526-.529h5.877a2.456,2.456,0,0,1,1.524.532l1.536,1.224a6.53,6.53,0,0,1-12,0Zm6,5.593a8.146,8.146,0,0,0,1.428-.133l-1.428,1.428-1.428-1.428A8.147,8.147,0,0,0,14.693,26.121Zm-2.449,1.154,1.371,1.371-1.153,1.537-.9-2.233ZM1.633,48.16V35.127a5.738,5.738,0,0,1,4.144-5.5L10,28.423l1.484,3.712a.816.816,0,0,0,.653.505.793.793,0,0,0,.105.011.816.816,0,0,0,.653-.327l1.8-2.394,1.8,2.394a.816.816,0,0,0,.653.327.793.793,0,0,0,.107-.007.816.816,0,0,0,.653-.505l.889-2.223c0,.1-.015.189-.015.287v2.449a2.449,2.449,0,0,0,0,4.9h.048a7.342,7.342,0,0,0,2.756,4.947A7.346,7.346,0,0,0,17,44.454,3.205,3.205,0,0,0,12.7,45.711H7.346a.816.816,0,0,1-.816-.816V36.732a.816.816,0,0,0-1.633,0v8.163a2.449,2.449,0,0,0,2.449,2.449h4.9v1.633a3.232,3.232,0,0,0,.454,1.633H4.081A2.449,2.449,0,0,1,1.633,48.16Zm48.976,0a2.449,2.449,0,0,1-2.449,2.449H36.715A1.637,1.637,0,0,1,35.1,48.976V47.344a1.627,1.627,0,0,1,3.162-.543.816.816,0,0,0,.769.543h5.864a2.449,2.449,0,0,0,2.449-2.449V40.823h3.265Z" transform="translate(0 0)"/>
      <path id="Trazado_1052698" data-name="Trazado 1052698" d="M41.633,18.593v-.776a.816.816,0,1,0-1.633,0v.776a.816.816,0,1,0,1.633,0Z" transform="translate(-7.349 -3.123)"/>
      <path id="Trazado_1052699" data-name="Trazado 1052699" d="M50.816,19.449a.816.816,0,0,0,.816-.816v-.816a.816.816,0,0,0-1.633,0v.816A.816.816,0,0,0,50.816,19.449Z" transform="translate(-9.187 -3.123)"/>
      <path id="Trazado_1052700" data-name="Trazado 1052700" d="M45.449,27.449a3.152,3.152,0,0,0,2.21-1.054A.816.816,0,1,0,46.5,25.241a1.254,1.254,0,0,1-2.111,0A.816.816,0,1,0,43.239,26.4,3.152,3.152,0,0,0,45.449,27.449Z" transform="translate(-7.9 -4.594)"/>
      <path id="Trazado_1052701" data-name="Trazado 1052701" d="M27.816,45.293a.816.816,0,0,0,.816-.816v-.66a.816.816,0,1,0-1.633,0v.66A.816.816,0,0,0,27.816,45.293Z" transform="translate(-4.961 -7.9)"/>
      <path id="Trazado_1052702" data-name="Trazado 1052702" d="M35.816,45.293a.816.816,0,0,0,.816-.816v-.66a.816.816,0,1,0-1.633,0v.66A.816.816,0,0,0,35.816,45.293Z" transform="translate(-6.431 -7.9)"/>
      <path id="Trazado_1052703" data-name="Trazado 1052703" d="M29.239,49.394a2.842,2.842,0,0,0,4.419,0A.816.816,0,1,0,32.5,48.241a1.254,1.254,0,0,1-2.111,0A.816.816,0,1,0,29.239,49.4Z" transform="translate(-5.328 -8.819)"/>
      <path id="Trazado_1052704" data-name="Trazado 1052704" d="M12.816,19.449a.816.816,0,0,0,.816-.816v-.816a.816.816,0,0,0-1.633,0v.816A.816.816,0,0,0,12.816,19.449Z" transform="translate(-2.205 -3.123)"/>
      <path id="Trazado_1052705" data-name="Trazado 1052705" d="M22.816,19.449a.816.816,0,0,0,.816-.816v-.816a.816.816,0,0,0-1.633,0v.816A.816.816,0,0,0,22.816,19.449Z" transform="translate(-4.042 -3.123)"/>
      <path id="Trazado_1052706" data-name="Trazado 1052706" d="M19.658,26.393A.816.816,0,1,0,18.5,25.239a1.254,1.254,0,0,1-2.111,0,.816.816,0,1,0-1.154,1.154,3.152,3.152,0,0,0,2.21,1.055,3.152,3.152,0,0,0,2.21-1.055Z" transform="translate(-2.756 -4.593)"/>
    </g>
  </g>
</svg>
