<svg xmlns="http://www.w3.org/2000/svg" xmlns:xlink="http://www.w3.org/1999/xlink" width="98" height="98" viewBox="0 0 98 98">
  <defs>
    <filter id="Trazado_982547" x="0" y="0" width="98" height="98" filterUnits="userSpaceOnUse">
      <feOffset dy="3" input="SourceAlpha"/>
      <feGaussianBlur stdDeviation="3" result="blur"/>
      <feFlood flood-opacity="0.161"/>
      <feComposite operator="in" in2="blur"/>
      <feComposite in="SourceGraphic"/>
    </filter>
    <clipPath id="clip-path">
      <path id="path8121" d="M0-682.665H48.414v48.414H0Z" transform="translate(0 682.665)"/>
    </clipPath>
  </defs>
  <g id="Grupo_1208176" data-name="Grupo 1208176" transform="translate(-610.575 -1910.348)">
    <g id="Grupo_1207913" data-name="Grupo 1207913" transform="translate(419.575 -175.204)">
      <g id="Grupo_1207712" data-name="Grupo 1207712">
        <g id="Grupo_1207285" data-name="Grupo 1207285" transform="translate(0 344.552)">
          <g id="Grupo_1206883" data-name="Grupo 1206883" transform="translate(0 -209)">
            <g id="Grupo_1204569" data-name="Grupo 1204569" transform="translate(-81 -1890.336)">
              <g id="Grupo_1203962" data-name="Grupo 1203962" transform="translate(281 3846.336)">
                <g id="Grupo_1203498" data-name="Grupo 1203498" transform="translate(0)">
                  <g id="Grupo_1202589" data-name="Grupo 1202589">
                    <g id="Grupo_1172010" data-name="Grupo 1172010">
                      <g id="Grupo_1171046" data-name="Grupo 1171046">
                        <g id="Grupo_1148525" data-name="Grupo 1148525">
                          <g transform="matrix(1, 0, 0, 1, -9, -6)" filter="url(#Trazado_982547)">
                            <g id="Trazado_982547-2" data-name="Trazado 982547" transform="translate(9 6)" fill="#fdfbec">
                              <path d="M 39.99999237060547 78.49998474121094 C 34.8018684387207 78.49998474121094 29.76002502441406 77.48226165771484 25.0145263671875 75.47508239746094 C 20.43014717102051 73.53604888916016 16.31264877319336 70.75984954833984 12.77639198303223 67.22359466552734 C 9.240137100219727 63.68733596801758 6.463936805725098 59.5698356628418 4.524903297424316 54.98546981811523 C 2.517725706100464 50.23995971679688 1.500003457069397 45.19811630249023 1.500003457069397 39.99999237060547 C 1.500003457069397 34.8018684387207 2.517725706100464 29.76002502441406 4.524903297424316 25.0145263671875 C 6.463936805725098 20.43014717102051 9.240137100219727 16.31264877319336 12.77639198303223 12.77639198303223 C 16.31264877319336 9.240137100219727 20.43014717102051 6.463936805725098 25.0145263671875 4.524903297424316 C 29.76002502441406 2.517725706100464 34.8018684387207 1.500003457069397 39.99999237060547 1.500003457069397 C 45.19811630249023 1.500003457069397 50.23995971679688 2.517725706100464 54.98546981811523 4.524903297424316 C 59.5698356628418 6.463936805725098 63.68733596801758 9.240137100219727 67.22359466552734 12.77639198303223 C 70.75984954833984 16.31264877319336 73.53604888916016 20.43014717102051 75.47508239746094 25.0145263671875 C 77.48226165771484 29.76002502441406 78.49998474121094 34.8018684387207 78.49998474121094 39.99999237060547 C 78.49998474121094 45.19812393188477 77.48226165771484 50.23995971679688 75.47508239746094 54.98546981811523 C 73.53604888916016 59.5698356628418 70.75984954833984 63.68733596801758 67.22359466552734 67.22359466552734 C 63.68733596801758 70.75984954833984 59.5698356628418 73.53604888916016 54.98546981811523 75.47508239746094 C 50.23995971679688 77.48226165771484 45.19812393188477 78.49998474121094 39.99999237060547 78.49998474121094 Z" stroke="none"/>
                              <path d="M 39.99999237060547 2.999992370605469 C 35.00370025634766 2.999992370605469 30.1584587097168 3.97784423828125 25.59884643554688 5.906402587890625 C 21.19327163696289 7.769805908203125 17.23603057861328 10.43805694580078 13.83704376220703 13.83704376220703 C 10.43805694580078 17.23603057861328 7.769805908203125 21.19327163696289 5.906402587890625 25.59884643554688 C 3.97784423828125 30.1584587097168 2.999992370605469 35.00370025634766 2.999992370605469 39.99999237060547 C 2.999992370605469 44.99628448486328 3.97784423828125 49.84152603149414 5.906402587890625 54.40113830566406 C 7.769805908203125 58.80671310424805 10.43805694580078 62.76395416259766 13.83704376220703 66.16294097900391 C 17.23603057861328 69.56191253662109 21.19327163696289 72.23016357421875 25.59884643554688 74.09356689453125 C 30.1584587097168 76.02212524414062 35.00370025634766 76.99997711181641 39.99999237060547 76.99997711181641 C 44.99628448486328 76.99997711181641 49.84152603149414 76.02212524414062 54.40113830566406 74.09356689453125 C 58.80671310424805 72.23016357421875 62.76395416259766 69.56191253662109 66.16294097900391 66.16294097900391 C 69.56191253662109 62.76395416259766 72.23016357421875 58.80671310424805 74.09356689453125 54.40113830566406 C 76.02212524414062 49.84152603149414 76.99997711181641 44.99628448486328 76.99997711181641 39.99999237060547 C 76.99997711181641 35.00370025634766 76.02212524414062 30.1584587097168 74.09356689453125 25.59884643554688 C 72.23016357421875 21.19327163696289 69.56191253662109 17.23603057861328 66.16294097900391 13.83704376220703 C 62.76395416259766 10.43805694580078 58.80671310424805 7.769805908203125 54.40113830566406 5.906402587890625 C 49.84152603149414 3.97784423828125 44.99628448486328 2.999992370605469 39.99999237060547 2.999992370605469 M 39.99999237060547 -7.62939453125e-06 C 62.09137725830078 -7.62939453125e-06 79.99997711181641 17.90860748291016 79.99997711181641 39.99999237060547 C 79.99997711181641 62.09137725830078 62.09137725830078 79.99997711181641 39.99999237060547 79.99997711181641 C 17.90860748291016 79.99997711181641 -7.62939453125e-06 62.09137725830078 -7.62939453125e-06 39.99999237060547 C -7.62939453125e-06 17.90860748291016 17.90860748291016 -7.62939453125e-06 39.99999237060547 -7.62939453125e-06 Z" stroke="none" fill="#83793c"/>
                            </g>
                          </g>
                        </g>
                      </g>
                    </g>
                  </g>
                </g>
              </g>
            </g>
          </g>
        </g>
        <g id="g8115" transform="translate(215.793 2790.01)">
          <g id="g8117" transform="translate(0 -682.665)">
            <g id="g8119" clip-path="url(#clip-path)">
              <g id="g8125" transform="translate(-33.259 0.709)">
                <path id="path8127" d="M-338.457-377.826h-25.835v-25.108c5.31-7.679,37.755-5.416,25.835,25.108" transform="translate(364.292 406.667)" fill="#fbdf63"/>
              </g>
              <g id="g8129" transform="translate(-33.259 0.709)">
                <path id="path8131" d="M-338.457-377.826h-.619c6.164-24.728-15.887-30.6-25.216-24.374v-.734c5.31-7.679,37.755-5.416,25.835,25.108" transform="translate(364.292 406.667)" fill="#f9d11f"/>
              </g>
            </g>
          </g>
          <g id="g8265" transform="translate(0 -682.665)">
            <g id="g8267" clip-path="url(#clip-path)">
              <g id="g8273" transform="translate(-33.259 51.036)">
                <path id="path8275" d="M-338.457-377.654h-25.835v-25.1c5.31-7.676,37.755-5.413,25.835,25.1" transform="translate(364.292 406.481)" fill="#003343"/>
              </g>
              <g id="g8277" transform="translate(-33.259 51.036)">
                <path id="path8279" d="M-338.457-377.654h-.619c6.164-24.717-15.887-30.585-25.216-24.362v-.734c5.31-7.676,37.755-5.413,25.835,25.1" transform="translate(364.292 406.481)" fill="#002439"/>
              </g>
            </g>
          </g>
          <g id="g8281" transform="translate(0 -682.665)">
            <g id="g8283" clip-path="url(#clip-path)">
              <g id="g8289" transform="translate(17.066 51.014)">
                <path id="path8291" d="M-338.457-377.826h-25.835v-25.108c5.31-7.679,37.755-5.416,25.835,25.108" transform="translate(364.292 406.667)" fill="#ff7e50"/>
              </g>
              <g id="g8293" transform="translate(17.066 51.014)">
                <path id="path8295" d="M-338.457-377.826h-.619c6.164-24.728-15.887-30.6-25.216-24.374v-.734c5.31-7.679,37.755-5.416,25.835,25.108" transform="translate(364.292 406.667)" fill="#ff6247"/>
              </g>
              <g id="g8297" transform="translate(2.941 54.225)">
                <path id="path8299" d="M-233.028-131.751v15.573h-14.6c-12.2-25.649,14.6-34.273,14.6-15.573" transform="translate(250.816 141.808)" fill="#ffa68a"/>
              </g>
              <g id="g8301" transform="translate(2.941 54.225)">
                <path id="path8303" d="M-233.028-131.751c-.9-16.1-20.23-9.82-14.176,15.573h-.427c-12.2-25.649,14.6-34.273,14.6-15.573" transform="translate(250.816 141.808)" fill="#ff7e50"/>
              </g>
            </g>
          </g>
        </g>
      </g>
    </g>
    <g id="family_394446" transform="translate(631.413 1911.622)">
      <circle id="Elipse_13450" data-name="Elipse 13450" cx="5.701" cy="5.701" r="5.701" transform="translate(3.283 34.525)" fill="#f9dca4"/>
      <path id="Trazado_1052737" data-name="Trazado 1052737" d="M32.831,168.977a5.7,5.7,0,0,1,4.206-5.5,5.7,5.7,0,1,0,0,11A5.7,5.7,0,0,1,32.831,168.977Z" transform="translate(-26.558 -128.75)" fill="#e7c080"/>
      <path id="Trazado_1052738" data-name="Trazado 1052738" d="M48.261,278.317H38.838v-6.684a4.711,4.711,0,0,1,4.711-4.711h0a4.711,4.711,0,0,1,4.711,4.711v6.684Z" transform="translate(-34.565 -220.994)" fill="#eaa0e3"/>
      <path id="Trazado_1052739" data-name="Trazado 1052739" d="M44.488,267.016a4.727,4.727,0,0,0-.939-.094h0a4.711,4.711,0,0,0-4.711,4.711v6.684h1.878v-6.684A4.713,4.713,0,0,1,44.488,267.016Z" transform="translate(-34.565 -220.994)" fill="#d57cd4"/>
      <g id="Grupo_1208170" data-name="Grupo 1208170" transform="translate(6.148 59.858)">
        <path id="Trazado_1052740" data-name="Trazado 1052740" d="M55.888,408.168c.513,2.831,1.409,6.349,2.836,7.776v-7.776" transform="translate(-55.888 -406.56)" fill="#f9dca4"/>
        <path id="Trazado_1052741" data-name="Trazado 1052741" d="M84.5,395.16c-.513,2.831-1.409,6.349-2.835,7.776v-9.384" transform="translate(-78.834 -393.552)" fill="#f9dca4"/>
      </g>
      <rect id="Rect치ngulo_419474" data-name="Rect치ngulo 419474" width="9.423" height="4.144" transform="translate(4.273 57.323)" fill="#f4c063"/>
      <rect id="Rect치ngulo_419475" data-name="Rect치ngulo 419475" width="2.053" height="4.144" transform="translate(4.273 57.323)" fill="#d5a03c"/>
      <circle id="Elipse_13451" data-name="Elipse 13451" cx="5.455" cy="5.455" r="5.455" transform="translate(19.38 36.027)" fill="#f9dca4"/>
      <path id="Trazado_1052742" data-name="Trazado 1052742" d="M179.035,182.393a5.456,5.456,0,0,1,4.024-5.264,5.454,5.454,0,1,0,0,10.527A5.456,5.456,0,0,1,179.035,182.393Z" transform="translate(-156.794 -140.91)" fill="#e7c080"/>
      <path id="Trazado_1052743" data-name="Trazado 1052743" d="M182.91,176.934c0,4.286-5.3,4.146-5.3,4.146A5.456,5.456,0,0,1,182.91,176.934Z" transform="translate(-158.075 -140.906)" fill="#f4c063"/>
      <g id="Grupo_1208171" data-name="Grupo 1208171" transform="translate(22.122 60.264)">
        <path id="Trazado_1052744" data-name="Trazado 1052744" d="M201.094,411.228c.491,2.709,1.348,6.074,2.713,7.44v-7.44" transform="translate(-201.094 -409.69)" fill="#f9dca4"/>
        <path id="Trazado_1052745" data-name="Trazado 1052745" d="M228.471,398.782c-.491,2.709-1.348,6.074-2.712,7.44v-8.978" transform="translate(-223.046 -397.244)" fill="#f9dca4"/>
      </g>
      <g id="Grupo_1208172" data-name="Grupo 1208172" transform="translate(19.569 36.028)">
        <path id="Trazado_1052746" data-name="Trazado 1052746" d="M178,290.187l-.116.777h10.532l-.116-.777a58.222,58.222,0,0,1-.642-8.623v-.958a4.507,4.507,0,0,0-4.507-4.507h0a4.507,4.507,0,0,0-4.507,4.507v.958A58.207,58.207,0,0,1,178,290.187Z" transform="translate(-177.886 -265.189)" fill="#f4c063"/>
        <path id="Trazado_1052747" data-name="Trazado 1052747" d="M231.05,181.08s-5.3.14-5.3-4.146A5.456,5.456,0,0,1,231.05,181.08Z" transform="translate(-220.488 -176.934)" fill="#f4c063"/>
      </g>
      <path id="Trazado_1052748" data-name="Trazado 1052748" d="M179.7,280.605v.958a58.219,58.219,0,0,1-.642,8.623l-.116.777h2.77l.055-.777c.2-2.855.3-5.737.3-8.623v-.958c0-2.489.956-4.507,2.136-4.507h0A4.507,4.507,0,0,0,179.7,280.605Z" transform="translate(-159.258 -229.161)" fill="#d5a03c"/>
      <g id="Grupo_1208173" data-name="Grupo 1208173" transform="translate(21.647 46.937)">
        <path id="Trazado_1052749" data-name="Trazado 1052749" d="M203.152,277.415a4.034,4.034,0,0,1-6.375,0,4.507,4.507,0,0,1,6.375,0Z" transform="translate(-196.777 -276.094)" fill="#f9dca4"/>
      </g>
      <path id="Trazado_1052750" data-name="Trazado 1052750" d="M357.492,169.914H345.75V161.3a5.588,5.588,0,0,1,5.588-5.588h.567a5.588,5.588,0,0,1,5.588,5.588v8.612Z" transform="translate(-307.714 -122.02)" fill="#eaa0e3"/>
      <path id="Trazado_1052751" data-name="Trazado 1052751" d="M352.887,155.853a5.887,5.887,0,0,0-1.266-.138h0a5.871,5.871,0,0,0-5.871,5.871v8.329h2.532v-8.329A5.872,5.872,0,0,1,352.887,155.853Z" transform="translate(-307.714 -122.021)" fill="#d57cd4"/>
      <path id="Trazado_1052752" data-name="Trazado 1052752" d="M350.635,295.029H336.958l.967-10.235h11.742Z" transform="translate(-299.889 -236.9)" fill="#74c194"/>
      <g id="Grupo_1208174" data-name="Grupo 1208174" transform="translate(36.768 19.493)">
        <path id="Trazado_1052753" data-name="Trazado 1052753" d="M370.343,377.836v11.829c-1.607-1.607-2.539-5.869-3.012-8.813-.278-1.739-.4-3.017-.4-3.017Z" transform="translate(-363.336 -339.2)" fill="#f9dca4"/>
        <circle id="Elipse_13452" data-name="Elipse 13452" cx="7.1" cy="7.1" r="7.1" transform="translate(0 0)" fill="#f9dca4"/>
      </g>
      <path id="Trazado_1052754" data-name="Trazado 1052754" d="M337.455,33.735a7.1,7.1,0,0,1,5.484-6.913,7.1,7.1,0,1,0,0,13.826A7.1,7.1,0,0,1,337.455,33.735Z" transform="translate(-297.455 -7.141)" fill="#e7c080"/>
      <path id="Trazado_1052755" data-name="Trazado 1052755" d="M401.321,377.836s-.117,1.278-.4,3.017c-.473,2.944-1.406,7.206-3.013,8.813V377.836Z" transform="translate(-354.138 -319.707)" fill="#f9dca4"/>
      <g id="Grupo_1208175" data-name="Grupo 1208175" transform="translate(38.877 19.494)">
        <path id="Trazado_1052756" data-name="Trazado 1052756" d="M406.183,91.174s1.145,8.531-1.189,12.971a5.87,5.87,0,0,0-5.872-5.872A7.1,7.1,0,0,0,406.183,91.174Z" transform="translate(-394.093 -84.074)" fill="#4d4d4d"/>
        <path id="Trazado_1052757" data-name="Trazado 1052757" d="M365.487,33.737a13.69,13.69,0,0,1-12.09-5.049,7.1,7.1,0,0,1,12.09,5.049Z" transform="translate(-353.397 -26.637)" fill="#4d4d4d"/>
      </g>
      <path id="Trazado_1052758" data-name="Trazado 1052758" d="M340.457,284.794l-.082,10.235h-3.416l.967-10.235" transform="translate(-299.889 -236.9)" fill="#54ac7c"/>
      <path id="Trazado_1052759" data-name="Trazado 1052759" d="M373.753,377.836s-.117,1.278-.4,3.017h-6.025c-.278-1.739-.4-3.017-.4-3.017Z" transform="translate(-326.57 -319.707)" fill="#e7c080"/>
      <path id="Trazado_1052760" data-name="Trazado 1052760" d="M387.133,169.821h0a4.657,4.657,0,0,0-6.586,0l-4.96,4.96a4.657,4.657,0,0,0,0,6.586h0a4.657,4.657,0,0,0,6.586,0l4.96-4.96A4.657,4.657,0,0,0,387.133,169.821Z" transform="translate(-333.055 -133.362)" fill="#ec589b"/>
      <path id="Trazado_1052761" data-name="Trazado 1052761" d="M377.714,181.662h0a4.657,4.657,0,0,1,0-6.586l4.96-4.96a4.637,4.637,0,0,1,2.836-1.341,4.657,4.657,0,0,0-4.963,1.054l-4.96,4.96a4.657,4.657,0,0,0,0,6.586h0a4.648,4.648,0,0,0,3.75,1.341A4.638,4.638,0,0,1,377.714,181.662Z" transform="translate(-333.055 -133.369)" fill="#d3468d"/>
      <path id="Trazado_1052762" data-name="Trazado 1052762" d="M425.616,180.841a2.411,2.411,0,0,1,0-3.405h0a2.408,2.408,0,0,1,3.405,3.405h0A2.411,2.411,0,0,1,425.616,180.841Z" transform="translate(-378.168 -140.726)" fill="#f9dca4"/>
      <path id="Trazado_1052763" data-name="Trazado 1052763" d="M55.067,200.276a.883.883,0,1,0-.866.711A.892.892,0,0,0,55.067,200.276Z" transform="translate(-47.46 -160.744)"/>
      <path id="Trazado_1052764" data-name="Trazado 1052764" d="M95.828,200.266a.883.883,0,1,0-.867.72A.89.89,0,0,0,95.828,200.266Z" transform="translate(-83.734 -160.742)"/>
      <path id="Trazado_1052765" data-name="Trazado 1052765" d="M198.6,221.168a.883.883,0,1,0,1.375.929A.889.889,0,0,0,198.6,221.168Z" transform="translate(-176.43 -180.128)"/>
      <path id="Trazado_1052766" data-name="Trazado 1052766" d="M237.545,221.212a.883.883,0,1,0,1.446.8A.888.888,0,0,0,237.545,221.212Z" transform="translate(-211.138 -180.129)"/>
      <path id="Trazado_1052767" data-name="Trazado 1052767" d="M355.736,86.7a.883.883,0,1,0,1.345.951A.891.891,0,0,0,355.736,86.7Z" transform="translate(-316.253 -60.47)"/>
      <path id="Trazado_1052768" data-name="Trazado 1052768" d="M56.325,39.752A5.541,5.541,0,0,0,52,34.347a39.212,39.212,0,0,0-.15-7.825,7.929,7.929,0,0,0-2.336-5.573A.883.883,0,0,0,48.264,22.2a6.169,6.169,0,0,1,1.766,3.577,12.416,12.416,0,0,1-7.515-2.1,13.271,13.271,0,0,1-2.4-2.035,6.216,6.216,0,0,1,6.174-.778.883.883,0,0,0,.688-1.626A7.982,7.982,0,0,0,40.25,33.706a6.344,6.344,0,0,0-3.1,5.446v.416h0c-1.368,5.811-3.309,12.346-4.187,13.224-.042.042-.046.041-.084.036-.565-.076-1.931-1.488-3.075-3.476a5.422,5.422,0,0,0-1.892-2.33,6.337,6.337,0,1,0-6.15,0,5.389,5.389,0,0,0-2.3,4.087,14.518,14.518,0,0,0-2.294,4.347,15.419,15.419,0,0,0-2.6-5.153,5.6,5.6,0,0,0-2.443-4.291,6.584,6.584,0,1,0-6.83-11.239.883.883,0,0,0,.991,1.462,4.812,4.812,0,1,1-1.54,1.7.883.883,0,1,0-1.552-.842,6.585,6.585,0,0,0,2.651,8.92A5.6,5.6,0,0,0,3.4,50.3,17.336,17.336,0,0,0,0,61.093a.883.883,0,1,0,1.766,0,16.993,16.993,0,0,1,1.624-7.4v7.777a.883.883,0,0,0,.883.883H5.417A22.656,22.656,0,0,0,7.3,68.359H6.826a.883.883,0,1,0,0,1.766h4.316a.883.883,0,1,0,0-1.766H10.67a22.672,22.672,0,0,0,1.881-6.01H13.7a.883.883,0,0,0,.883-.883V53.673c.017.034.033.066.049.1A17.108,17.108,0,0,1,16.2,61.093v.353a.883.883,0,1,0,1.766,0A16.3,16.3,0,0,1,19.4,54.628a57.551,57.551,0,0,1-.588,6.267l-.116.777a.883.883,0,0,0,.873,1.014h1.822c.713,3.608,1.661,6.022,2.82,7.181a.873.873,0,0,0,.066.06.845.845,0,0,0,.069.051h0a.879.879,0,0,0,.4.142h0q.043,0,.086,0h.016l.069,0,.018,0c.022,0,.044-.005.067-.01l.01,0c.025-.005.05-.011.074-.018h0c.027-.008.053-.017.078-.028h0a.907.907,0,0,0,.1-.053l.02-.012a.871.871,0,0,0,.1-.068l.008-.007c.019-.016.038-.032.056-.05,1.159-1.16,2.106-3.574,2.819-7.181H30.1a.883.883,0,0,0,.873-1.014l-.116-.776c-.059-.4-.115-.8-.165-1.188a.883.883,0,0,0-1.751.225c.042.326.087.657.135.988H20.594a59.289,59.289,0,0,0,.617-8.517v-.959a3.6,3.6,0,0,1,.511-1.853,4.922,4.922,0,0,0,6.227,0,3.6,3.6,0,0,1,.511,1.853V52.4c0,1.676.072,3.373.215,5.043a.883.883,0,0,0,1.759-.151c-.123-1.431-.188-2.882-.2-4.323a4.282,4.282,0,0,0,2.411,1.6,1.916,1.916,0,0,0,.257.017,1.832,1.832,0,0,0,1.311-.555c.486-.485,1.316-1.794,2.943-7.5v1.309l-.964,10.194a.883.883,0,0,0,.879.966h2.5c.279,2.446,1.246,9.238,3.579,11.571a.877.877,0,0,0,1.247,0l0,0c2.334-2.334,3.3-9.125,3.579-11.571h2.768a.883.883,0,0,0,.879-.966l-.346-3.652a.883.883,0,0,0-1.758.167l.255,2.686H38.038l.8-8.469h3.223a5.544,5.544,0,0,0,6.956.462l.236,2.491a.883.883,0,0,0,.878.8c.028,0,.056,0,.084,0a.883.883,0,0,0,.8-.962L50.665,47.9a6.487,6.487,0,0,0,2.747.826,1.944,1.944,0,0,0,1.439-.547c1.418-1.418.7-3.851.261-4.964A5.5,5.5,0,0,0,56.325,39.752ZM5.155,50.639a3.828,3.828,0,1,1,7.657,0v5.8H5.155Zm2.063,11.71H8.1v3.374A29.025,29.025,0,0,1,7.218,62.349ZM9.867,65.72V62.349h.882A29.017,29.017,0,0,1,9.867,65.72Zm2.945-5.137H9.867v-.725a.883.883,0,0,0-1.766,0v.725H5.155V58.205h7.657S12.812,60.583,12.812,60.583Zm11.14,5.056a28.529,28.529,0,0,1-.76-2.953h.76Zm1.766,0v-2.95h.759A28.517,28.517,0,0,1,25.718,65.635Zm3.049-26.479A4.469,4.469,0,0,1,26.511,38.1a2.509,2.509,0,0,1-.651-1.073A4.586,4.586,0,0,1,28.768,39.156ZM23.81,37.029a2.507,2.507,0,0,1-.651,1.073A4.469,4.469,0,0,1,20.9,39.156,4.586,4.586,0,0,1,23.81,37.029Zm-3.546,4.454a4.591,4.591,0,0,1,.023-.459,6.879,6.879,0,0,0,4.1-1.652,4.408,4.408,0,0,0,.449-.509,4.428,4.428,0,0,0,.449.509,6.879,6.879,0,0,0,4.1,1.652,4.571,4.571,0,1,1-9.12.459Zm2.715,6.85a3.615,3.615,0,0,1,3.712,0,3.156,3.156,0,0,1-3.712,0Zm19,14.593c-.314-1.553-.516-3.005-.628-3.914h1.539v7.42A29.273,29.273,0,0,1,41.98,62.926Zm3.588,0a29.275,29.275,0,0,1-.911,3.5V59.011H46.2C46.085,59.921,45.882,61.373,45.568,62.926Zm1.961-29.242a8.037,8.037,0,0,0,2.835-2.459c0,.955-.031,1.987-.129,3.015a5.5,5.5,0,0,0-1.5.364A6.332,6.332,0,0,0,47.529,33.684Zm.543,3.651a1.524,1.524,0,1,1,0,2.157h0A1.527,1.527,0,0,1,48.073,37.334ZM37.65,26.594A6.184,6.184,0,0,1,38.87,22.9a15.029,15.029,0,0,0,2.606,2.206,14.627,14.627,0,0,0,3.044,1.557.882.882,0,1,0,1.683.516s0,0,0-.007a14.408,14.408,0,0,0,3.808.371,6.227,6.227,0,0,1-6.14,5.268h-.009A6.224,6.224,0,0,1,37.65,26.594Zm1.269,12.558a4.58,4.58,0,0,1,4.574-4.576h.827a4.558,4.558,0,0,1,2.839.989c-.1.086-.2.176-.292.27l-4.96,4.96a5.546,5.546,0,0,0-1.125,6.215H38.919V39.152h0Zm4.237,8.229a3.774,3.774,0,0,1,0-5.338l2.81-2.81a3.269,3.269,0,0,0,.858,1.505h0a3.291,3.291,0,0,0,4.654-4.654l-.056-.053a3.774,3.774,0,0,1,2.032,6.388l-3.217,3.217c-1.118-.681-2.017-1.367-2.028-1.375a.883.883,0,0,0-1.074,1.4c.042.032.8.612,1.82,1.256l-.34.34-.019.019-.1.1a3.775,3.775,0,0,1-5.338,0ZM53.6,46.926c-.079.06-.577.109-1.742-.415l1.866-1.866c.029.105.056.214.081.325C53.925,45.506,54.055,46.473,53.6,46.926Z" transform="translate(0 0)"/>
    </g>
  </g>
</svg>
