<svg xmlns="http://www.w3.org/2000/svg" width="294.478" height="142.483" viewBox="0 0 294.478 142.483">
  <g id="Grupo_1208196" data-name="Grupo 1208196" transform="translate(-1124.761 -3335.003)">
    <g id="Grupo_1207981" data-name="Grupo 1207981" transform="translate(-0.239 882.523)">
      <rect id="nina-feliz-y-su-madre-aplicando-maquillaje-en-las-caras-de-los-demas-teniendo-dia-de-belleza-familiar-poniendo-en" width="294.478" height="97.481" rx="3" transform="translate(1125 2480.481)" fill="#27454a"/>
      <rect id="nina-feliz-y-su-madre-aplicando-maquillaje-en-las-caras-de-los-demas-teniendo-dia-de-belleza-familiar-poniendo-en-2" data-name="nina-feliz-y-su-madre-aplicando-maquillaje-en-las-caras-de-los-demas-teniendo-dia-de-belleza-familiar-poniendo-en" width="240.478" height="131.481" rx="3" transform="translate(1152 2463.481)" fill="#6ae2f6"/>
    </g>
    <g id="psychologist_6002810_1_" data-name="psychologist_6002810 (1)" transform="translate(1200.759 3335.003)">
      <path id="Trazado_1053103" data-name="Trazado 1053103" d="M64.089,29.495a28.419,28.419,0,0,0,.951,7.3c-17.574,1.966-17.931-2.665-31.823-7.3C18.969,24.745,18.969,46.118,18.969,46.118v.048S4.721,22.465,23.719,12.99c0,0,11.019-19.781,37.283-8.525a1.187,1.187,0,0,1,.047,2.161,8.312,8.312,0,0,0-3.206,2.588,1.187,1.187,0,0,0,.57,1.852A35.955,35.955,0,0,1,67.7,15.579a28.366,28.366,0,0,0-3.61,13.916Z" transform="translate(19.026 1.377)" fill="#91562d"/>
      <path id="Trazado_1053104" data-name="Trazado 1053104" d="M51.268,15.543a35.956,35.956,0,0,0-9.285-4.512,1.187,1.187,0,0,1-.57-1.852,8.312,8.312,0,0,1,3.206-2.588,1.187,1.187,0,0,0-.047-2.161A35.925,35.925,0,0,0,25.792,1.2,41.809,41.809,0,0,1,37.447,4.43a1.187,1.187,0,0,1,.047,2.161,8.312,8.312,0,0,0-3.206,2.588,1.187,1.187,0,0,0,.57,1.852,35.956,35.956,0,0,1,9.285,4.512,28.57,28.57,0,0,0-2.66,21.206c-1.27.142-2.429.237-3.531.318a52.688,52.688,0,0,0,10.655-.318,28.57,28.57,0,0,1,2.66-21.206Z" transform="translate(35.457 1.412)" fill="#6d4122"/>
      <path id="Trazado_1053105" data-name="Trazado 1053105" d="M83.228,39.307v.237a9.5,9.5,0,0,1-9.5,9.475V54.2a9.518,9.518,0,0,1-3.253,7.172l-6.483,5.676L57.415,72.79a9.449,9.449,0,0,1-6.246,2.351H44.045A9.449,9.449,0,0,1,37.8,72.79l-6.578-5.747-6.483-5.676A9.518,9.518,0,0,1,21.485,54.2V49.019a9.475,9.475,0,1,1,0-18.95v-.047s0-21.372,14.248-16.623c13.892,4.631,14.248,9.261,31.821,7.29A28.473,28.473,0,0,0,83.228,39.307Z" transform="translate(16.51 17.473)" fill="#ffe0b2"/>
      <path id="Trazado_1053106" data-name="Trazado 1053106" d="M19,13.4c12.888,4.3,14.149,8.582,28.29,7.6-7.986-.727-10.848-4.161-21.166-7.6A9.565,9.565,0,0,0,19,13.4Z" transform="translate(26.12 17.473)" fill="#dfc49c"/>
      <path id="Trazado_1053107" data-name="Trazado 1053107" d="M49.01,16.07a66.506,66.506,0,0,1-6.979.449A28.466,28.466,0,0,0,57.559,34.688v.237a9.5,9.5,0,0,1-9.5,9.475v5.177a9.518,9.518,0,0,1-3.253,7.172l-6.483,5.676-6.578,5.747A9.449,9.449,0,0,1,25.5,70.522h7.124a9.449,9.449,0,0,0,6.246-2.351l6.578-5.747,6.483-5.676a9.518,9.518,0,0,0,3.253-7.172V44.4a9.5,9.5,0,0,0,9.5-9.475v-.237A28.473,28.473,0,0,1,49.01,16.07Z" transform="translate(35.055 22.092)" fill="#dfc49c"/>
      <path id="Trazado_1053108" data-name="Trazado 1053108" d="M57,55.561s-4.749,7.124-19,7.124-19-7.124-19-7.124A37.874,37.874,0,0,0,21.612,35.59l6.578,5.747a9.449,9.449,0,0,0,6.246,2.351H41.56a9.449,9.449,0,0,0,6.246-2.351l6.578-5.747A37.874,37.874,0,0,0,57,55.561Z" transform="translate(26.12 48.926)" fill="#ffe0b2"/>
      <path id="Trazado_1053109" data-name="Trazado 1053109" d="M57,55.561s-4.749,7.124-19,7.124-19-7.124-19-7.124A37.874,37.874,0,0,0,21.612,35.59l6.578,5.747a9.449,9.449,0,0,0,6.246,2.351H41.56a9.449,9.449,0,0,0,6.246-2.351l6.578-5.747A37.874,37.874,0,0,0,57,55.561Z" transform="translate(26.12 48.926)" fill="#ffe0b2"/>
      <path id="Trazado_1053110" data-name="Trazado 1053110" d="M45.448,35.59,38.87,41.337a9.336,9.336,0,0,1-.869.634,35.635,35.635,0,0,0,2.935,13.591S36.97,61.455,25.5,62.51c1.123.1,2.292.176,3.562.176,14.248,0,19-7.124,19-7.124A37.874,37.874,0,0,1,45.448,35.59Z" transform="translate(35.055 48.926)" fill="#dfc49c"/>
      <path id="Trazado_1053111" data-name="Trazado 1053111" d="M52.309,54.718,48.153,75.5H24.406L20.25,54.718l2.47,2.47a2.394,2.394,0,0,0,3.372,0L36.279,47,46.467,57.188a2.394,2.394,0,0,0,3.372,0Z" transform="translate(27.838 64.612)" fill="#02a9f4"/>
      <path id="Trazado_1053112" data-name="Trazado 1053112" d="M37.81,52.72a2.394,2.394,0,0,1-3.372,0L32.959,51.24,29,71.029h7.124L40.28,50.25Z" transform="translate(39.867 69.08)" fill="#0377bc"/>
      <path id="Trazado_1053113" data-name="Trazado 1053113" d="M32.791,79.621H22.556L14.363,61.882a2.375,2.375,0,0,1,.237-2.375L25.667,44Z" transform="translate(19.453 60.488)" fill="#9e9e9e"/>
      <path id="Trazado_1053114" data-name="Trazado 1053114" d="M32.441,61.882l8.193,17.739H1c0-9.5,3.443-15.317,9.5-21.372C17.623,51.124,43.745,44,43.745,44L32.679,59.507A2.375,2.375,0,0,0,32.441,61.882Z" transform="translate(1.375 60.488)" fill="#f5f5f5"/>
      <path id="Trazado_1053115" data-name="Trazado 1053115" d="M50.428,61.882,42.235,79.621H32L39.124,44,50.19,59.507A2.375,2.375,0,0,1,50.428,61.882Z" transform="translate(43.991 60.488)" fill="#9e9e9e"/>
      <path id="Trazado_1053116" data-name="Trazado 1053116" d="M48.389,59.507,37.323,44l-1.56,7.8,5.5,7.708a2.375,2.375,0,0,1,.237,2.375L33.31,79.621h7.124l8.193-17.739A2.375,2.375,0,0,0,48.389,59.507Z" transform="translate(45.792 60.488)" fill="#707070"/>
      <path id="Trazado_1053117" data-name="Trazado 1053117" d="M65.871,79.621V72.5A2.375,2.375,0,0,0,63.5,70.122H56.372A2.375,2.375,0,0,0,54,72.5v7.124H38.111L46.3,61.882a2.375,2.375,0,0,0-.237-2.375L35,44s26.122,7.124,33.246,14.248c6.056,6.056,9.5,11.874,9.5,21.372Z" transform="translate(48.115 60.488)" fill="#f5f5f5"/>
      <path id="Trazado_1053118" data-name="Trazado 1053118" d="M68.246,58.248C61.122,51.124,35,44,35,44l1.988,2.786c8.252,2.726,19.765,7.093,24.134,11.463,6.056,6.056,9.5,11.874,9.5,21.372h7.124C77.745,70.122,74.3,64.3,68.246,58.248Z" transform="translate(48.115 60.488)" fill="#cfd8dc"/>
      <path id="Trazado_1053119" data-name="Trazado 1053119" d="M54.874,57.375V64.5H43V57.375A2.375,2.375,0,0,1,45.375,55H52.5A2.375,2.375,0,0,1,54.874,57.375Z" transform="translate(59.113 75.61)" fill="#02a9f4"/>
      <path id="Trazado_1053120" data-name="Trazado 1053120" d="M46,44,43.029,58.842l-2.47,2.47a2.394,2.394,0,0,1-3.372,0L27,51.124C41.248,51.124,46,44,46,44Z" transform="translate(37.117 60.488)" fill="#f5f5f5"/>
      <path id="Trazado_1053121" data-name="Trazado 1053121" d="M32.972,49.448l-1.878,9.394-.594.594,1.876,1.876a2.394,2.394,0,0,0,3.372,0l2.47-2.47L41.186,44A16.761,16.761,0,0,1,32.972,49.448Z" transform="translate(41.929 60.488)" fill="#cfd8dc"/>
      <path id="Trazado_1053122" data-name="Trazado 1053122" d="M38,51.124,27.81,61.312a2.394,2.394,0,0,1-3.372,0l-2.47-2.47L19,44S23.749,51.124,38,51.124Z" transform="translate(26.12 60.488)" fill="#f5f5f5"/>
      <path id="Trazado_1053123" data-name="Trazado 1053123" d="M92,29.5a28.544,28.544,0,0,1-40.37,25.932V55.4A28.5,28.5,0,1,1,92,29.5Z" transform="translate(48.113 1.375)" fill="#02a9f4"/>
      <path id="Trazado_1053124" data-name="Trazado 1053124" d="M49.1,1a28.416,28.416,0,0,0-3.619.237,28.473,28.473,0,0,1,.036,56.518A28.5,28.5,0,1,0,49.1,1Z" transform="translate(62.517 1.375)" fill="#0377bc"/>
      <path id="Trazado_1053125" data-name="Trazado 1053125" d="M35.874,31h-9.5a2.375,2.375,0,1,0,0,4.749h9.5a2.375,2.375,0,0,0,0-4.749Z" transform="translate(32.993 42.616)"/>
      <path id="Trazado_1053126" data-name="Trazado 1053126" d="M32.124,34H27.375a2.375,2.375,0,0,0,0,4.749h4.749a2.375,2.375,0,1,0,0-4.749Z" transform="translate(34.368 46.74)"/>
      <path id="Trazado_1053127" data-name="Trazado 1053127" d="M23.375,22A2.375,2.375,0,0,0,21,24.375v2.375a2.375,2.375,0,1,0,4.749,0V24.375A2.375,2.375,0,0,0,23.375,22Z" transform="translate(28.869 30.244)"/>
      <path id="Trazado_1053128" data-name="Trazado 1053128" d="M33.375,22A2.375,2.375,0,0,0,31,24.375v2.375a2.375,2.375,0,1,0,4.749,0V24.375A2.375,2.375,0,0,0,33.375,22Z" transform="translate(42.616 30.244)"/>
      <path id="Trazado_1053129" data-name="Trazado 1053129" d="M27.375,31.749h4.749a2.375,2.375,0,1,0,0-4.749H27.375a2.375,2.375,0,0,0,0,4.749Z" transform="translate(34.368 37.117)"/>
      <path id="Trazado_1053130" data-name="Trazado 1053130" d="M33.248,21.375A2.375,2.375,0,0,0,30.874,19h-9.5a2.375,2.375,0,1,0,0,4.749h9.5A2.375,2.375,0,0,0,33.248,21.375Z" transform="translate(26.12 26.12)"/>
      <path id="Trazado_1053131" data-name="Trazado 1053131" d="M40.874,19h-9.5a2.375,2.375,0,0,0,0,4.749h9.5a2.375,2.375,0,1,0,0-4.749Z" transform="translate(39.867 26.12)"/>
      <circle id="Elipse_13455" data-name="Elipse 13455" cx="2.358" cy="2.358" r="2.358" transform="translate(61.313 130.692)"/>
      <circle id="Elipse_13456" data-name="Elipse 13456" cx="2.358" cy="2.358" r="2.358" transform="translate(61.313 121.259)"/>
      <path id="Trazado_1053132" data-name="Trazado 1053132" d="M111.612,0A30.871,30.871,0,0,0,85.989,13.674a39.123,39.123,0,0,0-6.015-2.866,6.143,6.143,0,0,1,1.078-.639,3.562,3.562,0,0,0-.088-6.509C55.894-7.089,43.443,9.024,41.083,12.55c-12.586,6.685-12.79,20.221-6.7,33.18a11.845,11.845,0,0,0,1.242,22.9v3.04a11.9,11.9,0,0,0,4.066,8.96L45.481,85.7a35.735,35.735,0,0,1-2.137,16.825c-5.246,1.5-26.457,7.853-33.139,14.536C4.075,123.177,0,129.436,0,140.108a2.375,2.375,0,0,0,2.375,2.375H125.86a2.375,2.375,0,0,0,2.375-2.375c0-10.672-4.075-16.932-10.195-23.051-6.682-6.682-27.893-13.037-33.139-14.536A35.735,35.735,0,0,1,82.764,85.7l5.794-5.068a11.9,11.9,0,0,0,4.056-8.96v-3.04a11.859,11.859,0,0,0,9.024-8.57A30.859,30.859,0,1,0,111.612,0ZM43.8,16.492a2.4,2.4,0,0,0,1.012-.962c.4-.708,9.8-16.718,32.125-8.373a10.3,10.3,0,0,0-1.935,1.976,3.562,3.562,0,0,0,1.726,5.573,35.324,35.324,0,0,1,6.951,3.118,30.192,30.192,0,0,0-2.467,18.226C66.967,37.217,66.392,33.085,53,28.618c-8.34-2.781-13.892,1.772-16.2,10.294C33.685,29.387,34.8,20.983,43.8,16.492Zm5.543,121.241H43.529l-7.542-16.359,7.879-11.042Zm2.258-12.926a4.735,4.735,0,0,0,4-1.323l8.509-8.516,8.509,8.516a4.662,4.662,0,0,0,4,1.33l-2.586,12.918H54.191Zm32.771-14.486,7.894,11.045-7.563,16.367H78.888Zm-6.412,7.837-1.973,1.962-6.485-6.485a28.183,28.183,0,0,0,10-3.18ZM52.244,120.12l-1.962-1.962-1.541-7.7a28.171,28.171,0,0,0,10,3.18Zm-38.684.294c4.215-4.215,16.8-8.867,25.611-11.672L32.13,118.6a4.749,4.749,0,0,0-.475,4.764L38.3,137.734H4.833c.546-7.637,3.778-12.377,8.72-17.319Zm98.052,17.319h-7.124v-4.749h7.124Zm11.79,0h-7.041v-4.749a4.749,4.749,0,0,0-4.749-4.749h-7.124a4.749,4.749,0,0,0-4.749,4.749v4.749h-9.8l6.649-14.379a4.749,4.749,0,0,0-.475-4.749l-7.043-9.872c8.813,2.8,21.4,7.457,25.611,11.672C119.624,125.357,122.856,130.1,123.4,137.734ZM80.356,104.046c-7.1,6.956-25.376,6.958-32.479,0a39.1,39.1,0,0,0,2.569-14.011c2.828,2.477,5.213,4.954,10.109,4.954,10.643,0,10.822.655,17.233-4.949a39.107,39.107,0,0,0,2.567,14.006Zm9.884-39.929a2.375,2.375,0,0,0-2.375,2.375v5.177a7.148,7.148,0,0,1-2.441,5.383L72.362,88.477a7.105,7.105,0,0,1-4.683,1.762H60.555a7.108,7.108,0,0,1-4.683-1.764L42.811,77.053a7.148,7.148,0,0,1-2.441-5.383V66.492A2.375,2.375,0,0,0,38,64.117a7.079,7.079,0,0,1-2.375-13.773v4.274a2.375,2.375,0,1,0,4.749,0V47.494c0-2.923.879-11.13,4.792-13.944a6.694,6.694,0,0,1,6.331-.427C64.637,37.5,65.91,42.2,82.377,40.722a30.9,30.9,0,0,0,5.488,9.86v4.037a2.349,2.349,0,0,0,4.654.475,30.824,30.824,0,0,0,4.728,3.087A7.124,7.124,0,0,1,90.239,64.117Zm21.372-7.124a26.122,26.122,0,1,1,26.122-26.122A26.122,26.122,0,0,1,111.612,56.993Z" transform="translate(0 0)"/>
      <path id="Trazado_1053133" data-name="Trazado 1053133" d="M74.621,7H69.871A2.375,2.375,0,0,0,67.5,9.375V16.5a9.5,9.5,0,0,1-7.124,9.162V11.749h2.375a2.375,2.375,0,0,0,0-4.749h-9.5a2.375,2.375,0,0,0,0,4.749h2.375V25.661A9.5,9.5,0,0,1,48.5,16.5V9.375A2.375,2.375,0,0,0,46.124,7H41.375a2.375,2.375,0,1,0,0,4.749h2.375V16.5A14.263,14.263,0,0,0,55.623,30.533V35.5H53.248a2.375,2.375,0,0,0,0,4.749h9.5a2.375,2.375,0,0,0,0-4.749H60.372V30.533A14.263,14.263,0,0,0,72.246,16.5V11.749h2.375a2.375,2.375,0,0,0,0-4.749Z" transform="translate(53.614 9.623)"/>
    </g>
  </g>
</svg>
