<svg xmlns="http://www.w3.org/2000/svg" xmlns:xlink="http://www.w3.org/1999/xlink" width="108" height="108" viewBox="0 0 108 108">
  <defs>
    <filter id="Trazado_904820" x="0" y="0" width="108" height="108" filterUnits="userSpaceOnUse">
      <feOffset dy="3" input="SourceAlpha"/>
      <feGaussianBlur stdDeviation="3" result="blur"/>
      <feFlood flood-opacity="0.161"/>
      <feComposite operator="in" in2="blur"/>
      <feComposite in="SourceGraphic"/>
    </filter>
    <clipPath id="clip-path">
      <path id="path3897" d="M0-682.665H59.931v59.931H0Z" transform="translate(0 682.665)"/>
    </clipPath>
  </defs>
  <g id="Grupo_1207693" data-name="Grupo 1207693" transform="translate(9 6)">
    <g id="Grupo_1207078" data-name="Grupo 1207078" transform="translate(0 0)">
      <g id="Grupo_1206304" data-name="Grupo 1206304">
        <g id="Grupo_1201662" data-name="Grupo 1201662">
          <g id="Grupo_1173585" data-name="Grupo 1173585">
            <g id="Grupo_1173428" data-name="Grupo 1173428">
              <g id="Grupo_1171958" data-name="Grupo 1171958">
                <g id="Grupo_1167341" data-name="Grupo 1167341">
                  <g id="Grupo_1166792" data-name="Grupo 1166792">
                    <g transform="matrix(1, 0, 0, 1, -9, -6)" filter="url(#Trazado_904820)">
                      <g id="Trazado_904820-2" data-name="Trazado 904820" transform="translate(9 6)" fill="#fdfbec">
                        <path d="M 44.99999618530273 88.49999237060547 C 39.12687301635742 88.49999237060547 33.43022155761719 87.35006713867188 28.06829643249512 85.08216857910156 C 22.88852119445801 82.89130401611328 18.23629570007324 79.75457763671875 14.24084663391113 75.75914001464844 C 10.24540901184082 71.76369476318359 7.108683586120605 67.11146545410156 4.917821407318115 61.93169403076172 C 2.649921178817749 56.56976699829102 1.499996185302734 50.87311553955078 1.499996185302734 44.99999237060547 C 1.499996185302734 39.12686920166016 2.649921178817749 33.43021774291992 4.917821407318115 28.06829261779785 C 7.108683586120605 22.88851737976074 10.24540901184082 18.23630523681641 14.24084663391113 14.24085521697998 C 18.23629570007324 10.24540519714355 22.88852119445801 7.108692169189453 28.06829643249512 4.917829990386963 C 33.43022155761719 2.649929761886597 39.12687301635742 1.500004887580872 44.99999618530273 1.500004887580872 C 50.87311935424805 1.500004887580872 56.56977081298828 2.649929761886597 61.93169784545898 4.917829990386963 C 67.11147308349609 7.108692169189453 71.76369476318359 10.24540519714355 75.75914764404297 14.24085521697998 C 79.75458526611328 18.23630523681641 82.89131164550781 22.88851737976074 85.08216857910156 28.06829261779785 C 87.35007476806641 33.43021774291992 88.5 39.12686920166016 88.5 44.99999237060547 C 88.5 50.87311553955078 87.35007476806641 56.56976699829102 85.08216857910156 61.93169403076172 C 82.89131164550781 67.11146545410156 79.75458526611328 71.76369476318359 75.75914764404297 75.75914001464844 C 71.76369476318359 79.75457763671875 67.11147308349609 82.89130401611328 61.93169784545898 85.08216857910156 C 56.56977081298828 87.35006713867188 50.87311935424805 88.49999237060547 44.99999618530273 88.49999237060547 Z" stroke="none"/>
                        <path d="M 44.99999618530273 2.999992370605469 C 39.32870864868164 2.999992370605469 33.82865142822266 4.11004638671875 28.65262603759766 6.299331665039062 C 23.65165710449219 8.414566040039062 19.15968322753906 11.44333648681641 15.301513671875 15.30150604248047 C 11.44333648681641 19.15967559814453 8.414566040039062 23.65164947509766 6.299339294433594 28.65262222290039 C 4.110054016113281 33.82864761352539 2.999992370605469 39.32870483398438 2.999992370605469 44.99999237060547 C 2.999992370605469 50.67127990722656 4.110054016113281 56.17132186889648 6.299339294433594 61.34736633300781 C 8.414566040039062 66.34833526611328 11.44333648681641 70.84029388427734 15.301513671875 74.69846343994141 C 19.15968322753906 78.55663299560547 23.65165710449219 81.58540344238281 28.65262603759766 83.70063781738281 C 33.82865142822266 85.88992309570312 39.32870864868164 86.99997711181641 44.99999618530273 86.99997711181641 C 50.67128372192383 86.99997711181641 56.17134094238281 85.88992309570312 61.34736633300781 83.70063781738281 C 66.34834289550781 81.58540344238281 70.84030914306641 78.55663299560547 74.69847869873047 74.69846343994141 C 78.55665588378906 70.84029388427734 81.58542633056641 66.34833526611328 83.70065307617188 61.34736633300781 C 85.88993835449219 56.17132186889648 87 50.67127990722656 87 44.99999237060547 C 87 39.32870483398438 85.88993835449219 33.82864761352539 83.70065307617188 28.65262222290039 C 81.58542633056641 23.65164947509766 78.55665588378906 19.15967559814453 74.69847869873047 15.30150604248047 C 70.84030914306641 11.44333648681641 66.34834289550781 8.414566040039062 61.34736633300781 6.299331665039062 C 56.17134094238281 4.11004638671875 50.67128372192383 2.999992370605469 44.99999618530273 2.999992370605469 M 44.99999618530273 -7.62939453125e-06 C 69.85281372070312 -7.62939453125e-06 90 20.14717864990234 90 44.99999237060547 C 90 69.85279083251953 69.85281372070312 89.99997711181641 44.99999618530273 89.99997711181641 C 20.14717864990234 89.99997711181641 -7.62939453125e-06 69.85279083251953 -7.62939453125e-06 44.99999237060547 C -7.62939453125e-06 20.14717864990234 20.14717864990234 -7.62939453125e-06 44.99999618530273 -7.62939453125e-06 Z" stroke="none" fill="#83793c"/>
                      </g>
                    </g>
                  </g>
                </g>
              </g>
            </g>
          </g>
        </g>
      </g>
    </g>
    <g id="g3891" transform="translate(15.034 695.699)">
      <g id="g3893" transform="translate(0 -682.665)">
        <g id="g3895" clip-path="url(#clip-path)">
          <g id="g3901" transform="translate(18.146 35.182)">
            <path id="path3903" d="M-92.565-163.652l1.626-11.7V-179.4a10.446,10.446,0,0,1-5.267,1.421,10.447,10.447,0,0,1-5.267-1.421v4.054l1.626,11.7a7.561,7.561,0,0,0,7.282,0" transform="translate(101.473 179.402)" fill="#ffdaaa" fill-rule="evenodd"/>
          </g>
          <g id="g3905" transform="translate(19.772 50.931)">
            <path id="path3907" d="M-75.666,0a7.561,7.561,0,0,1-7.282,0l1.007,7.243h5.267Z" transform="translate(82.948 0.001)" fill="#ff6a47" fill-rule="evenodd"/>
          </g>
          <g id="g3909" transform="translate(0.878 41.65)">
            <path id="path3911" d="M-343.771-93.043l-3.073,1.807,1.958,5.764h13.039a13.17,13.17,0,0,1-11.923-7.571m-21.1,0,.586-8.954-5.55,2.853c-3.435,1.766-7.023,3.161-7.023,7.023v6.648h13.1l1.957-5.764Z" transform="translate(376.855 101.997)" fill="#fff" fill-rule="evenodd"/>
          </g>
          <g id="g3913" transform="translate(12.865 39.236)">
            <path id="path3915" d="M-54.875,0-59.57,2.414l-.586,8.954,3.073,1.807-1.958,5.764h6.8ZM-44.34,0l-2.634,18.939h6.8l-1.958-5.764,3.073-1.807A13.119,13.119,0,0,1-40.3,5.77a13.186,13.186,0,0,1,.459-3.459Z" transform="translate(60.156)" fill="#9ce4f8" fill-rule="evenodd"/>
          </g>
          <g id="g3917" transform="translate(7.611 19.045)">
            <path id="path3919" d="M-54.732-72.977V-80h-3.512A1.761,1.761,0,0,0-60-78.244v1.756a3.522,3.522,0,0,0,3.512,3.512Zm21.069,0h1.756A3.522,3.522,0,0,0-28.4-76.488v-1.756A1.761,1.761,0,0,0-30.152-80h-3.512q0,3.512,0,7.023" transform="translate(60 80)" fill="#ffb780" fill-rule="evenodd"/>
          </g>
          <g id="g3921" transform="translate(12.879 14.655)">
            <path id="path3923" d="M0-118.588a10.566,10.566,0,0,0,10.535,10.535,10.566,10.566,0,0,0,10.535-10.535v-9.657A1.761,1.761,0,0,0,19.314-130H1.756A1.761,1.761,0,0,0,0-128.245Z" transform="translate(0 130.001)" fill="#ffdaaa" fill-rule="evenodd"/>
          </g>
          <g id="g3925" transform="translate(9.367 1.756)">
            <path id="path3927" d="M-200.686-347.32v4.054l4.494,2.311a13.175,13.175,0,0,1,4.284-6.662v-9.291a3.482,3.482,0,0,1-1.756.474h-1.756a10.558,10.558,0,0,1-5.267,9.114m-14.046-20.527h17.558a1.761,1.761,0,0,1,1.756,1.756v2.634h3.512V-366.7a14.079,14.079,0,0,0-14.046-14.046A14.079,14.079,0,0,0-220-366.7v3.242h3.512v-2.634a1.761,1.761,0,0,1,1.756-1.756m3.512,20.527a10.559,10.559,0,0,1-5.267-9.114h-1.756a3.481,3.481,0,0,1-1.756-.474v10.13c0,5,2.745,5.741,4.084,5.925l4.695-2.414Z" transform="translate(219.999 380.746)" fill="#ffee89" fill-rule="evenodd"/>
          </g>
          <g id="g3929" transform="translate(9.367 1.756)">
            <path id="path3931" d="M-159.636-.649c-.434-.041-.873-.063-1.317-.063A14.079,14.079,0,0,0-175,13.334v3.242h2.634V13.334A14.084,14.084,0,0,1-159.636-.649M-172.366,23.6h-.878A3.482,3.482,0,0,1-175,23.126v10.13c0,3.523,1.361,4.931,2.634,5.52Z" transform="translate(175 0.712)" fill="#ffe200" fill-rule="evenodd"/>
          </g>
          <g id="g3933" transform="translate(12.879 14.655)">
            <path id="path3935" d="M0-118.588a10.561,10.561,0,0,0,11.852,10.452,10.572,10.572,0,0,1-9.218-10.452V-130H1.756A1.761,1.761,0,0,0,0-128.245Z" transform="translate(0 130.001)" fill="#ffb780" fill-rule="evenodd"/>
          </g>
          <g id="g3937" transform="translate(36.228 35.349)">
            <path id="path3939" d="M-54.732-111.03h8.779a4.7,4.7,0,0,1-4.389,4.966,4.7,4.7,0,0,1-4.389-4.966m4.389-10.685A9.655,9.655,0,0,0-60-112.059a9.655,9.655,0,0,0,9.657,9.657,9.655,9.655,0,0,0,9.657-9.657,9.655,9.655,0,0,0-9.657-9.657" transform="translate(60 121.716)" fill="#ffee89" fill-rule="evenodd"/>
          </g>
          <g id="g3941" transform="translate(41.495 46.035)">
            <path id="path3943" d="M-91.221,0H-100A4.7,4.7,0,0,0-95.61,4.966,4.7,4.7,0,0,0-91.221,0" transform="translate(100 0)" fill="#ff6a47" fill-rule="evenodd"/>
          </g>
          <g id="g3945" transform="translate(32.716 31.838)">
            <path id="path3947" d="M0-136.831a13.168,13.168,0,0,0,13.168,13.168,13.168,13.168,0,0,0,13.168-13.168A13.168,13.168,0,0,0,13.168-150,13.168,13.168,0,0,0,0-136.831m13.168,9.657a9.655,9.655,0,0,1-9.657-9.657,9.655,9.655,0,0,1,9.657-9.657,9.655,9.655,0,0,1,9.657,9.657,9.655,9.655,0,0,1-9.657,9.657" transform="translate(0 150)" fill="#94b8f7" fill-rule="evenodd"/>
          </g>
          <g id="g3949" transform="translate(32.716 31.837)">
            <path id="path3951" d="M0-136.835a13.171,13.171,0,0,0,14.485,13.1,13.17,13.17,0,0,1-11.852-13.1,13.171,13.171,0,0,1,11.851-13.1A13.171,13.171,0,0,0,0-136.835" transform="translate(0 150.004)" fill="#5b92f3" fill-rule="evenodd"/>
          </g>
          <g id="g3953" transform="translate(41.495 46.035)">
            <path id="path3955" d="M-27.365,0a4.937,4.937,0,0,0,3.073,4.739,3.927,3.927,0,0,1-1.317.227A4.7,4.7,0,0,1-30,0Z" transform="translate(29.999)" fill="#fd3501" fill-rule="evenodd"/>
          </g>
          <g id="g3957" transform="translate(36.228 35.349)">
            <path id="path3959" d="M0-100.349a9.658,9.658,0,0,0,10.974,9.567,9.657,9.657,0,0,1-8.34-9.567,9.657,9.657,0,0,1,8.34-9.567A9.658,9.658,0,0,0,0-100.349" transform="translate(0 110.007)" fill="#ffe200" fill-rule="evenodd"/>
          </g>
          <g id="g3961" transform="translate(0.878 46.631)">
            <path id="path3963" d="M-31.8,0c-1.772,1.153-3.06,2.581-3.06,4.9v6.648h2.634V2.262A5.983,5.983,0,0,1-31.8,0" transform="translate(34.859)" fill="#9ce4f8" fill-rule="evenodd"/>
          </g>
          <g id="g3965" transform="translate(18.146 35.182)">
            <path id="path3967" d="M-27.366-11.277A10.481,10.481,0,0,1-30-12.363v4.054l1.626,11.7a6.538,6.538,0,0,0,2.783.891L-27.366-8.49Z" transform="translate(30 12.363)" fill="#ffb780" fill-rule="evenodd"/>
          </g>
          <g id="g3969" transform="translate(19.772 50.931)">
            <path id="path3971" d="M0,0,1.007,7.244H3.666L2.783.891A6.538,6.538,0,0,1,0,0" fill="#fd3501" fill-rule="evenodd"/>
          </g>
          <g id="g3973" transform="translate(7.611 19.045)">
            <path id="path3975" d="M-273.66-72.977h1.756a3.522,3.522,0,0,0,3.512-3.512v-1.756A1.761,1.761,0,0,0-270.148-80h-3.512m-21.069,7.023h-1.756A3.522,3.522,0,0,1-300-76.488v-1.756A1.761,1.761,0,0,1-298.241-80h3.512" transform="translate(299.997 80)" fill="none" stroke="#000" stroke-miterlimit="22.926" stroke-width="1"/>
          </g>
          <g id="g3977" transform="translate(0.878 39.236)">
            <path id="path3979" d="M-467.658-196.789h-45.007v-6.648c0-3.863,3.588-5.257,7.023-7.023l10.245-5.267m10.535,0,4.5,2.311" transform="translate(512.665 215.727)" fill="none" stroke="#000" stroke-miterlimit="22.926" stroke-width="1"/>
          </g>
          <g id="g3981" transform="translate(9.367 1.756)">
            <path id="path3983" d="M-49.729-36.406a13.982,13.982,0,0,1,9.26-3.5A14.079,14.079,0,0,1-26.422-25.863v3.242m-28.093,0v-3.242a13.983,13.983,0,0,1,3.5-9.26" transform="translate(54.515 39.909)" fill="none" stroke="#000" stroke-miterlimit="22.926" stroke-width="1"/>
          </g>
          <g id="g3985" transform="translate(26.79 5.268)">
            <path id="path3987" d="M-36.487-36.488v-1.756m-3.511,0V-40" transform="translate(39.999 40)" fill="none" stroke="#000" stroke-miterlimit="2.613" stroke-width="1"/>
          </g>
          <g id="g3989" transform="translate(9.367 25.594)">
            <path id="path3991" d="M-291.9-96.541v-9.291m-24.009,16.056C-317.252-89.96-320-90.7-320-95.7v-10.13" transform="translate(319.997 105.832)" fill="none" stroke="#000" stroke-miterlimit="22.926" stroke-width="1"/>
          </g>
          <g id="g3993" transform="translate(12.879 14.655)">
            <path id="path3995" d="M-218.927-18.244A1.761,1.761,0,0,0-220.683-20h-17.558A1.761,1.761,0,0,0-240-18.244v9.657A10.566,10.566,0,0,0-229.462,1.948,10.566,10.566,0,0,0-218.927-8.587Z" transform="translate(239.997 20)" fill="none" stroke="#000" stroke-miterlimit="22.926" stroke-width="1"/>
          </g>
          <g id="g3997" transform="translate(18.146 35.182)">
            <path id="path3999" d="M-109.465,0V4.054L-112.1,22.993M-120,0V4.054l2.634,18.939" transform="translate(120)" fill="none" stroke="#000" stroke-miterlimit="22.926" stroke-width="1"/>
          </g>
          <g id="g4001" transform="translate(12.865 41.65)">
            <path id="path4003" d="M-219.214-93.043l-3.073,1.807,1.958,5.764M-239.725-102l-.586,8.954,3.073,1.807-1.957,5.764" transform="translate(240.311 101.997)" fill="none" stroke="#000" stroke-miterlimit="22.926" stroke-width="1"/>
          </g>
          <g id="g4005" transform="translate(19.772 50.931)">
            <path id="path4007" d="M-75.666,0a7.561,7.561,0,0,1-7.282,0" transform="translate(82.948 0.001)" fill="none" stroke="#000" stroke-miterlimit="22.926" stroke-width="1"/>
          </g>
          <g id="g4009" transform="translate(36.228 35.349)">
            <path id="path4011" d="M-100.343,0A9.655,9.655,0,0,0-110,9.657a9.655,9.655,0,0,0,9.657,9.657,9.655,9.655,0,0,0,9.657-9.657A9.655,9.655,0,0,0-100.343,0Z" transform="translate(110)" fill="none" stroke="#000" stroke-miterlimit="22.926" stroke-width="1"/>
          </g>
          <g id="g4013" transform="translate(41.495 40.767)">
            <path id="path4015" d="M0-54.732a4.7,4.7,0,0,0,4.389,4.966,4.7,4.7,0,0,0,4.389-4.966Zm8.779-3.512V-60M0-58.244V-60" transform="translate(0 60)" fill="none" stroke="#000" stroke-miterlimit="22.926" stroke-width="1"/>
          </g>
          <g id="g4017" transform="translate(32.716 31.838)">
            <path id="path4019" d="M-227.16-240.06l1.236-1.247m-2.667,2.3a13.1,13.1,0,0,1-7.262,2.182,13.168,13.168,0,0,1-13.168-13.168,13.168,13.168,0,0,1,13.168-13.168,13.168,13.168,0,0,1,13.168,13.168,13.106,13.106,0,0,1-2.182,7.262" transform="translate(249.022 263.163)" fill="none" stroke="#000" stroke-miterlimit="22.926" stroke-width="1"/>
          </g>
        </g>
      </g>
    </g>
  </g>
</svg>
