<svg xmlns="http://www.w3.org/2000/svg" xmlns:xlink="http://www.w3.org/1999/xlink" width="113" height="113" viewBox="0 0 113 113">
  <defs>
    <filter id="Trazado_982547" x="0" y="0" width="113" height="113" filterUnits="userSpaceOnUse">
      <feOffset dy="3" input="SourceAlpha"/>
      <feGaussianBlur stdDeviation="3" result="blur"/>
      <feFlood flood-opacity="0.161"/>
      <feComposite operator="in" in2="blur"/>
      <feComposite in="SourceGraphic"/>
    </filter>
  </defs>
  <g id="Grupo_1208101" data-name="Grupo 1208101" transform="translate(-796 -1302.812)">
    <g id="Grupo_1207905" data-name="Grupo 1207905" transform="translate(805 1308.812)">
      <g id="Grupo_1176928" data-name="Grupo 1176928" transform="translate(0 0)">
        <g id="Grupo_1172322" data-name="Grupo 1172322">
          <g id="Grupo_1164700" data-name="Grupo 1164700">
            <g id="Grupo_1160931" data-name="Grupo 1160931">
              <g id="Grupo_1160749" data-name="Grupo 1160749">
                <g id="Grupo_1158891" data-name="Grupo 1158891">
                  <g id="Grupo_1157406" data-name="Grupo 1157406">
                    <g id="Grupo_1155793" data-name="Grupo 1155793">
                      <g id="Grupo_1154704" data-name="Grupo 1154704">
                        <g id="Grupo_1150790" data-name="Grupo 1150790">
                          <g id="Grupo_1154214" data-name="Grupo 1154214" transform="translate(0)">
                            <g id="Grupo_1152583" data-name="Grupo 1152583">
                              <g id="Grupo_1146973" data-name="Grupo 1146973">
                                <g id="Grupo_1146954" data-name="Grupo 1146954">
                                  <g transform="matrix(1, 0, 0, 1, -9, -6)" filter="url(#Trazado_982547)">
                                    <g id="Trazado_982547-2" data-name="Trazado 982547" transform="translate(9 6)" fill="#ebe9f0">
                                      <path d="M 47.50001907348633 93.49987030029297 C 41.28939056396484 93.49987030029297 35.26535415649414 92.28384399414062 29.59520530700684 89.88558959960938 C 24.11773872375488 87.56881713867188 19.19815254211426 84.25183868408203 14.97311210632324 80.02680206298828 C 10.74805927276611 75.80176544189453 7.431085586547852 70.88218688964844 5.114312171936035 65.40472412109375 C 2.71604585647583 59.73458862304688 1.500019073486328 53.71054840087891 1.500019073486328 47.49993515014648 C 1.500019073486328 41.28932189941406 2.71604585647583 35.26528167724609 5.114312171936035 29.59514808654785 C 7.431085586547852 24.1176815032959 10.74805927276611 19.1981086730957 14.97311210632324 14.97306823730469 C 19.19815254211426 10.74802875518799 24.11773872375488 7.431055068969727 29.59520530700684 5.11428165435791 C 35.26535415649414 2.716028451919556 41.28939056396484 1.500001788139343 47.50001907348633 1.500001788139343 C 53.71064758300781 1.500001788139343 59.73468399047852 2.716028451919556 65.40483093261719 5.11428165435791 C 70.88230133056641 7.431055068969727 75.80188751220703 10.74802875518799 80.02692413330078 14.97306823730469 C 84.25197601318359 19.1981086730957 87.56895446777344 24.1176815032959 89.88572692871094 29.59514808654785 C 92.28398895263672 35.26528167724609 93.50001525878906 41.28932189941406 93.50001525878906 47.49993515014648 C 93.50001525878906 53.71054840087891 92.28398895263672 59.73458862304688 89.88572692871094 65.40472412109375 C 87.56895446777344 70.88218688964844 84.25197601318359 75.80176544189453 80.02692413330078 80.02680206298828 C 75.80188751220703 84.25183868408203 70.88230133056641 87.56881713867188 65.40483093261719 89.88558959960938 C 59.73468399047852 92.28384399414062 53.71064758300781 93.49987030029297 47.50001907348633 93.49987030029297 Z" stroke="none"/>
                                      <path d="M 47.50001907348633 3 C 41.49123382568359 3 35.66378784179688 4.1761474609375 30.17952728271484 6.495796203613281 C 24.88086700439453 8.7369384765625 20.12154388427734 11.94596862792969 16.03377532958984 16.03373718261719 C 11.94599151611328 20.12149047851562 8.736976623535156 24.88081359863281 6.495819091796875 30.17947387695312 C 4.176170349121094 35.66371917724609 3.000022888183594 41.49116516113281 3.000022888183594 47.49993515014648 C 3.000022888183594 53.50870513916016 4.176170349121094 59.33615112304688 6.495819091796875 64.82039642333984 C 8.736976623535156 70.11905670166016 11.94599151611328 74.87837982177734 16.03377532958984 78.96613311767578 C 20.12154388427734 83.05390167236328 24.88086700439453 86.26293182373047 30.17952728271484 88.50407409667969 C 35.66378784179688 90.82372283935547 41.49123382568359 91.99987030029297 47.50001907348633 91.99987030029297 C 53.50880432128906 91.99987030029297 59.33625030517578 90.82372283935547 64.82051086425781 88.50407409667969 C 70.11917114257812 86.26293182373047 74.87849426269531 83.05390167236328 78.96626281738281 78.96613311767578 C 83.05404663085938 74.87837982177734 86.2630615234375 70.11905670166016 88.50421905517578 64.82039642333984 C 90.82386779785156 59.33615112304688 92.00001525878906 53.50870513916016 92.00001525878906 47.49993515014648 C 92.00001525878906 41.49116516113281 90.82386779785156 35.66371917724609 88.50421905517578 30.17947387695312 C 86.2630615234375 24.88081359863281 83.05404663085938 20.12149047851562 78.96626281738281 16.03373718261719 C 74.87849426269531 11.94596862792969 70.11917114257812 8.7369384765625 64.82051086425781 6.495796203613281 C 59.33625030517578 4.1761474609375 53.50880432128906 3 47.50001907348633 3 M 47.50001907348633 0 C 73.73354339599609 0 95.00001525878906 21.26644134521484 95.00001525878906 47.49993515014648 C 95.00001525878906 73.73342895507812 73.73354339599609 94.99987030029297 47.50001907348633 94.99987030029297 C 21.26649475097656 94.99987030029297 2.288818359375e-05 73.73342895507812 2.288818359375e-05 47.49993515014648 C 2.288818359375e-05 21.26644134521484 21.26649475097656 0 47.50001907348633 0 Z" stroke="none" fill="#453179"/>
                                    </g>
                                  </g>
                                </g>
                              </g>
                            </g>
                          </g>
                        </g>
                      </g>
                    </g>
                  </g>
                </g>
              </g>
            </g>
          </g>
        </g>
      </g>
    </g>
    <g id="Layer_26" data-name="Layer 26" transform="translate(820.5 1324.312)">
      <path id="Trazado_1052422" data-name="Trazado 1052422" d="M56,47V37H48V47" fill="#eeb8ab"/>
      <path id="Trazado_1052423" data-name="Trazado 1052423" d="M48,38h8v9H48Z" fill="#ffe1d3"/>
      <path id="Trazado_1052424" data-name="Trazado 1052424" d="M56.857,33H57a3,3,0,0,0,3-3V23a6,6,0,0,0-6-6H50a6,6,0,0,0-6,6v7a3,3,0,0,0,3,3Z" fill="#eeb8ab"/>
      <path id="Trazado_1052425" data-name="Trazado 1052425" d="M58.954,19.613a5.12,5.12,0,0,0,3.016-3.494L62,16a3,3,0,0,1-3-3V7a5,5,0,0,0-5-5H50a5,5,0,0,0-5,5v6a3,3,0,0,1-3,3l.03.119a5.124,5.124,0,0,0,3.017,3.494Z" fill="#eeab45"/>
      <path id="Trazado_1052426" data-name="Trazado 1052426" d="M61.97,16.119,62,16a3,3,0,0,1-3-3V7a5,5,0,0,0-5-5H53a5,5,0,0,0-5,5v6a3,3,0,0,1-3,3l.03.119a5.124,5.124,0,0,0,3.017,3.494H58.954a5.12,5.12,0,0,0,3.016-3.494Z" fill="#f3c350"/>
      <path id="Trazado_1052427" data-name="Trazado 1052427" d="M57,8v3a5,5,0,1,1-10,0V8h1.764A3.617,3.617,0,0,0,52,6a3.618,3.618,0,0,0,3.236,2Z" fill="#eeb8ab"/>
      <path id="Trazado_1052428" data-name="Trazado 1052428" d="M47,9H46a2,2,0,0,0,0,4h1.418" fill="#eeb8ab"/>
      <path id="Trazado_1052429" data-name="Trazado 1052429" d="M60,23v1l-3.13.78a2.393,2.393,0,0,1-.58.93L56,26v4H48V26l-.29-.29a2.393,2.393,0,0,1-.58-.93L44,24V23a6.009,6.009,0,0,1,6-6h4a6,6,0,0,1,6,6Z" fill="#508c45"/>
      <path id="Trazado_1052430" data-name="Trazado 1052430" d="M54,17H50V30h6V26l.29-.29a2.393,2.393,0,0,0,.58-.93L60,24V23a6,6,0,0,0-6-6Z" fill="#5c9d51"/>
      <path id="Trazado_1052431" data-name="Trazado 1052431" d="M50,15.583V17a2,2,0,0,0,4,0V15.583" fill="#eeb8ab"/>
      <path id="Trazado_1052432" data-name="Trazado 1052432" d="M50,16.221V17a2,2,0,0,0,4,0v-.779A2.957,2.957,0,0,1,50,16.221Z" fill="#ffe1d3"/>
      <path id="Trazado_1052433" data-name="Trazado 1052433" d="M52,7a3.617,3.617,0,0,1-3.236,2H47v2a5,5,0,0,0,10,0V9H55.236A3.618,3.618,0,0,1,52,7Z" fill="#ffe1d3"/>
      <path id="Trazado_1052434" data-name="Trazado 1052434" d="M20,31v4a4,4,0,0,1-4,4H6a4,4,0,0,1-4-4V31Z" fill="#eeb8ab"/>
      <path id="Trazado_1052435" data-name="Trazado 1052435" d="M6,51V31H2V27a3.977,3.977,0,0,1,2.885-3.824L9,22h4l4.116,1.176A3.977,3.977,0,0,1,20,27v4H16V51" fill="#5aa5ee"/>
      <path id="Trazado_1052436" data-name="Trazado 1052436" d="M17.116,23.176,13,22H9L5.32,23.051A3.97,3.97,0,0,0,4,26v4H8V50h8V31h4V27a3.977,3.977,0,0,0-2.884-3.824Z" fill="#75b5f1"/>
      <path id="Trazado_1052437" data-name="Trazado 1052437" d="M6,36H16V51H6Z" fill="#9d9e9d"/>
      <path id="Trazado_1052438" data-name="Trazado 1052438" d="M8,36h8V51H8Z" fill="#dfe0df"/>
      <path id="Trazado_1052439" data-name="Trazado 1052439" d="M9,20.583V22a2,2,0,0,0,4,0V20.583" fill="#eeb8ab"/>
      <path id="Trazado_1052440" data-name="Trazado 1052440" d="M9,21.221V22a2,2,0,0,0,4,0v-.779a2.957,2.957,0,0,1-4,0Z" fill="#ffe1d3"/>
      <path id="Trazado_1052441" data-name="Trazado 1052441" d="M4,14.269V11A5,5,0,0,1,9,6h2.838a3,3,0,0,1,2.846,2.051L15,9a3,3,0,0,1,3,3v2.268" fill="#684d42"/>
      <path id="Trazado_1052442" data-name="Trazado 1052442" d="M18,12a3,3,0,0,0-3-3l-.316-.949A3,3,0,0,0,11.838,6H9a5.034,5.034,0,0,0-.98.1,4.493,4.493,0,0,0,3.8,6.9H18Z" fill="#745749"/>
      <path id="Trazado_1052443" data-name="Trazado 1052443" d="M32,48a5,5,0,0,1,5,5v9H27V53A5,5,0,0,1,32,48Z" fill="#eeab45"/>
      <path id="Trazado_1052444" data-name="Trazado 1052444" d="M37,53a4.957,4.957,0,0,0-6.148-4.855A4.969,4.969,0,0,0,29,52a9,9,0,0,0,8,8.941Z" fill="#f3c350"/>
      <path id="Trazado_1052445" data-name="Trazado 1052445" d="M2,51H20l-.829,1.106A7.235,7.235,0,0,1,13.382,55H8.472A7.238,7.238,0,0,1,2,51Z" fill="#747574"/>
      <path id="Trazado_1052446" data-name="Trazado 1052446" d="M3.617,51a7.232,7.232,0,0,0,5.855,3h4.91a7.233,7.233,0,0,0,4.559-1.622c.076-.092.158-.177.23-.272L20,51Z" fill="#bcbdbc"/>
      <g id="Grupo_1208100" data-name="Grupo 1208100">
        <path id="Trazado_1052447" data-name="Trazado 1052447" d="M16,13v3A5,5,0,1,1,6,16V13H9.765A3.617,3.617,0,0,0,13,11Z" fill="#eeb8ab"/>
        <path id="Trazado_1052448" data-name="Trazado 1052448" d="M6,14H5a2,2,0,0,0,0,4H6.418" fill="#eeb8ab"/>
        <path id="Trazado_1052449" data-name="Trazado 1052449" d="M16,14h1a2,2,0,0,1,0,4H15.583" fill="#eeb8ab"/>
      </g>
      <path id="Trazado_1052450" data-name="Trazado 1052450" d="M6,47H16v4H6Z" fill="#305b27"/>
      <path id="Trazado_1052451" data-name="Trazado 1052451" d="M8,47h8v4H8Z" fill="#508c45"/>
      <path id="Trazado_1052452" data-name="Trazado 1052452" d="M57,9h1a2,2,0,0,1,0,4H56.583" fill="#eeb8ab"/>
      <path id="Trazado_1052453" data-name="Trazado 1052453" d="M48,30l-.86,3L46,37H58l-1.14-4L56,30" fill="#c33e37"/>
      <path id="Trazado_1052454" data-name="Trazado 1052454" d="M48,43h8v4H48Z" fill="#9d9e9d"/>
      <path id="Trazado_1052455" data-name="Trazado 1052455" d="M32,57a2,2,0,1,1,2-2A2,2,0,0,1,32,57Z" fill="#747574"/>
      <circle id="Elipse_13439" data-name="Elipse 13439" cx="2" cy="2" r="2" transform="translate(30 40)" fill="#a82e25"/>
      <path id="Trazado_1052456" data-name="Trazado 1052456" d="M30,22h4V36H30Z" fill="#a82e25"/>
      <path id="Trazado_1052457" data-name="Trazado 1052457" d="M9.765,14H6v2a5,5,0,0,0,10,0V14l-3-2A3.617,3.617,0,0,1,9.765,14Z" fill="#ffe1d3"/>
      <path id="Trazado_1052458" data-name="Trazado 1052458" d="M10,39h2V51H10Z" fill="#747574"/>
      <path id="Trazado_1052459" data-name="Trazado 1052459" d="M56,30H50l-.86,3L48,37H58l-1.14-4Z" fill="#dd5e56"/>
      <path id="Trazado_1052460" data-name="Trazado 1052460" d="M51,38h2v9H51Z" fill="#eeb8ab"/>
      <path id="Trazado_1052461" data-name="Trazado 1052461" d="M51,43h2v4H51Z" fill="#747574"/>
      <path id="Trazado_1052462" data-name="Trazado 1052462" d="M43,47H61l-.829,1.106A7.235,7.235,0,0,1,54.382,51h-4.91A7.238,7.238,0,0,1,43,47Z" fill="#747574"/>
      <path id="Trazado_1052463" data-name="Trazado 1052463" d="M44.617,47a7.232,7.232,0,0,0,5.855,3h4.91a7.233,7.233,0,0,0,4.559-1.622c.076-.092.158-.177.23-.272L61,47Z" fill="#bcbdbc"/>
      <path id="Trazado_1052464" data-name="Trazado 1052464" d="M32,22h2V36H32Z" fill="#c33e37"/>
      <path id="Trazado_1052465" data-name="Trazado 1052465" d="M32,40v4a2,2,0,0,0,0-4Z" fill="#c33e37"/>
      <path id="Trazado_1052466" data-name="Trazado 1052466" d="M63.1,54l-.194-1.99L38,54.415V53a6,6,0,0,0-12,0v2.576L.9,58,1.1,60,26,57.585V62a1,1,0,0,0,1,1H37a1,1,0,0,0,1-1V56.424ZM36,61H28V53a4,4,0,0,1,8,0Z"/>
      <path id="Trazado_1052467" data-name="Trazado 1052467" d="M5,39.9V50H2a1,1,0,0,0-.9,1.447A8.191,8.191,0,0,0,8.472,56h4.91a8.272,8.272,0,0,0,6.589-3.3l.829-1.1A1,1,0,0,0,20,50H17V39.9A5.009,5.009,0,0,0,21,35V27a5,5,0,0,0-3.61-4.786L14,21.245v-.057A6.024,6.024,0,0,0,16.188,19H17a2.989,2.989,0,0,0,2-5.22V12a4.008,4.008,0,0,0-3.257-3.931l-.11-.334A4,4,0,0,0,11.838,5H9a6.006,6.006,0,0,0-6,6v2.78A2.989,2.989,0,0,0,5,19h.812A6.024,6.024,0,0,0,8,21.188v.057l-3.39.969A5,5,0,0,0,1,27v8a5.009,5.009,0,0,0,4,4.9ZM3,35V32H5v5.816A3,3,0,0,1,3,35ZM15,46H12V39H10v7H7V37h8ZM7,48h3v2H7Zm6.382,6H8.472a6.2,6.2,0,0,1-4.581-2H17.958a6.272,6.272,0,0,1-4.576,2ZM12,50V48h3v2Zm5-12.184V32h2v3A3,3,0,0,1,17,37.816ZM10,21.91a5.6,5.6,0,0,0,2,0V22a1,1,0,1,1-2,0ZM17,17h-.09A6,6,0,0,0,17,16V15a1,1,0,0,1,0,2ZM5,17a1,1,0,0,1,0-2v1a6,6,0,0,0,.09,1Zm1-5a1,1,0,0,0-1,1V11A4,4,0,0,1,9,7h2.838a2,2,0,0,1,1.9,1.368l.317.948A1,1,0,0,0,15,10a2,2,0,0,1,2,2v1a1,1,0,0,0-.445-.832l-3-2a1,1,0,0,0-1.45.384A2.6,2.6,0,0,1,9.765,12Zm1,2H9.765a4.588,4.588,0,0,0,3.509-1.614L15,13.535V16a4,4,0,0,1-8,0ZM3,27a2.989,2.989,0,0,1,2.159-2.862l3.12-.892a2.988,2.988,0,0,0,5.442,0l3.12.892A2.989,2.989,0,0,1,19,27v3H17V27H15v8H7V27H5v3H3Z"/>
      <path id="Trazado_1052468" data-name="Trazado 1052468" d="M41.06,16.361a6.142,6.142,0,0,0,2.621,3.648A6.945,6.945,0,0,0,43,23v7a3.991,3.991,0,0,0,2.869,3.817l-.831,2.909A1,1,0,0,0,46,38h1v8H43a1,1,0,0,0-.9,1.447A8.191,8.191,0,0,0,49.472,52h4.91a8.272,8.272,0,0,0,6.589-3.3l.829-1.1A1,1,0,0,0,61,46H57V38h1a1,1,0,0,0,.962-1.274l-.832-2.909A3.99,3.99,0,0,0,61,30V23a6.945,6.945,0,0,0-.681-2.991,6.131,6.131,0,0,0,2.619-3.644l.031-.119A1,1,0,0,0,62,15a2,2,0,0,1-1.979-1.8A2.966,2.966,0,0,0,60,8.78V7a6.008,6.008,0,0,0-6-6H50a6.006,6.006,0,0,0-6,6V8.78a2.966,2.966,0,0,0-.021,4.423A2,2,0,0,1,42,15a1,1,0,0,0-.969,1.246ZM51,16.91a5.6,5.6,0,0,0,2,0V17a1,1,0,0,1-2,0ZM52,15a4,4,0,0,1-4-4V9h.764A4.6,4.6,0,0,0,52,7.681,4.6,4.6,0,0,0,55.236,9H56v2A4,4,0,0,1,52,15Zm-2.791,3.08a2.989,2.989,0,0,0,5.582,0A5,5,0,0,1,59,23v.22l-1.051.262a3.376,3.376,0,0,0-.949-1.9l-.293-.293L55.293,22.7l.293.293A1.409,1.409,0,0,1,56,24a1.427,1.427,0,0,1-.414,1l-.293.293A1,1,0,0,0,55,26v3H49V26a1,1,0,0,0-.293-.707L48.414,25A1.427,1.427,0,0,1,48,24a1.409,1.409,0,0,1,.414-1l.293-.293-1.414-1.414L47,21.585a3.376,3.376,0,0,0-.949,1.9L45,23.22V23A5,5,0,0,1,49.209,18.08ZM47.325,36l1.429-5h6.491l1.429,5ZM45,30V25.281l1.44.36a3.384,3.384,0,0,0,.56.773V29.86l-.584,2.04A2,2,0,0,1,45,30Zm6,8v4H49V38Zm-2,6h2v2H49Zm5.382,6h-4.91a6.2,6.2,0,0,1-4.581-2H58.958a6.272,6.272,0,0,1-4.576,2ZM53,46V44h2v2Zm2-4H53V38h2Zm2.583-10.1L57,29.86V26.414a3.385,3.385,0,0,0,.561-.774L59,25.28V30A2,2,0,0,1,57.583,31.9Zm3.079-15.13a4.158,4.158,0,0,1-1.443,1.582,6.983,6.983,0,0,0-4.077-2.25A6.029,6.029,0,0,0,57.188,14H58c.046,0,.09-.012.135-.014a4.011,4.011,0,0,0,2.527,2.784ZM58,11V10a1,1,0,0,1,0,2h-.09A6,6,0,0,0,58,11ZM46,7a4,4,0,0,1,4-4h4a4.006,4.006,0,0,1,4,4V8a1,1,0,0,0-1-1H55.236A2.6,2.6,0,0,1,52.9,5.553a1.042,1.042,0,0,0-1.79,0A2.6,2.6,0,0,1,48.764,7H47a1,1,0,0,0-1,1Zm-1,4a1,1,0,0,1,1-1v1a6,6,0,0,0,.09,1H46A1,1,0,0,1,45,11Zm.865,2.986c.045,0,.089.014.135.014h.812a6.029,6.029,0,0,0,2.046,2.1,6.983,6.983,0,0,0-4.077,2.25,4.141,4.141,0,0,1-1.442-1.582,4.012,4.012,0,0,0,2.526-2.782Z"/>
      <circle id="Elipse_13440" data-name="Elipse 13440" cx="2" cy="2" r="2" transform="translate(30 53)"/>
      <path id="Trazado_1052469" data-name="Trazado 1052469" d="M32,45a3,3,0,1,0-3-3A3,3,0,0,0,32,45Zm0-4a1,1,0,1,1-1,1A1,1,0,0,1,32,41Z"/>
      <path id="Trazado_1052470" data-name="Trazado 1052470" d="M30,37h4a1,1,0,0,0,1-1V22a1,1,0,0,0-1-1H30a1,1,0,0,0-1,1V36A1,1,0,0,0,30,37Zm1-14h2V35H31Z"/>
    </g>
  </g>
</svg>
