<svg xmlns="http://www.w3.org/2000/svg" xmlns:xlink="http://www.w3.org/1999/xlink" width="113" height="113" viewBox="0 0 113 113">
  <defs>
    <filter id="Trazado_982547" x="0" y="0" width="113" height="113" filterUnits="userSpaceOnUse">
      <feOffset dy="3" input="SourceAlpha"/>
      <feGaussianBlur stdDeviation="3" result="blur"/>
      <feFlood flood-opacity="0.161"/>
      <feComposite operator="in" in2="blur"/>
      <feComposite in="SourceGraphic"/>
    </filter>
  </defs>
  <g id="Grupo_1208022" data-name="Grupo 1208022" transform="translate(-1111 -1246.89)">
    <g id="Grupo_1202141" data-name="Grupo 1202141" transform="translate(1120 1252.89)">
      <g id="Grupo_1176928" data-name="Grupo 1176928" transform="translate(0 0)">
        <g id="Grupo_1172322" data-name="Grupo 1172322">
          <g id="Grupo_1164700" data-name="Grupo 1164700">
            <g id="Grupo_1160931" data-name="Grupo 1160931">
              <g id="Grupo_1160749" data-name="Grupo 1160749">
                <g id="Grupo_1158891" data-name="Grupo 1158891">
                  <g id="Grupo_1157406" data-name="Grupo 1157406">
                    <g id="Grupo_1155793" data-name="Grupo 1155793">
                      <g id="Grupo_1154704" data-name="Grupo 1154704">
                        <g id="Grupo_1150790" data-name="Grupo 1150790">
                          <g id="Grupo_1154214" data-name="Grupo 1154214">
                            <g id="Grupo_1152583" data-name="Grupo 1152583">
                              <g id="Grupo_1146973" data-name="Grupo 1146973">
                                <g id="Grupo_1146954" data-name="Grupo 1146954">
                                  <g transform="matrix(1, 0, 0, 1, -9, -6)" filter="url(#Trazado_982547)">
                                    <g id="Trazado_982547-2" data-name="Trazado 982547" transform="translate(9 6)" fill="#ebe9f0">
                                      <path d="M 47.50001525878906 93.49988555908203 C 41.28938674926758 93.49988555908203 35.26533508300781 92.28385925292969 29.59520149230957 89.88558959960938 C 24.11772155761719 87.56883239746094 19.19814872741699 84.25184631347656 14.97309494018555 80.02680206298828 C 10.74805545806885 75.80178070068359 7.431081771850586 70.88219451904297 5.11430835723877 65.40472412109375 C 2.716042041778564 59.73459243774414 1.500015258789062 53.71055221557617 1.500015258789062 47.49993896484375 C 1.500015258789062 41.28932571411133 2.716042041778564 35.26528549194336 5.11430835723877 29.59515190124512 C 7.431081771850586 24.11768531799316 10.74805545806885 19.19811248779297 14.97309494018555 14.97307205200195 C 19.19814872741699 10.74803256988525 24.11772155761719 7.431058883666992 29.59520149230957 5.114285469055176 C 35.26533508300781 2.716032266616821 41.28938674926758 1.500005602836609 47.50001525878906 1.500005602836609 C 53.71064376831055 1.500005602836609 59.73469543457031 2.716032266616821 65.40483856201172 5.114285469055176 C 70.88230895996094 7.431058883666992 75.80189514160156 10.74803256988525 80.02693176269531 14.97307205200195 C 84.25199127197266 19.19811248779297 87.56896209716797 24.11768531799316 89.88573455810547 29.59515190124512 C 92.28400421142578 35.26528549194336 93.50003051757812 41.28932571411133 93.50003051757812 47.49993896484375 C 93.50003051757812 53.71055221557617 92.28400421142578 59.73459243774414 89.88573455810547 65.40472412109375 C 87.56896209716797 70.88219451904297 84.25199127197266 75.80176544189453 80.02693176269531 80.02680206298828 C 75.80189514160156 84.25184631347656 70.88230895996094 87.56881713867188 65.40483856201172 89.88558959960938 C 59.73469543457031 92.28385925292969 53.71064376831055 93.49988555908203 47.50001525878906 93.49988555908203 Z" stroke="none"/>
                                      <path d="M 47.50001525878906 3 C 41.49123001098633 3 35.66378402709961 4.176155090332031 30.17951965332031 6.495803833007812 C 24.88084411621094 8.7369384765625 20.12152099609375 11.94596862792969 16.03375244140625 16.03373718261719 C 11.94598388671875 20.12149047851562 8.736953735351562 24.88081359863281 6.495796203613281 30.17947387695312 C 4.176155090332031 35.66372299194336 3 41.49116897583008 3 47.49993896484375 C 3 53.50870895385742 4.176155090332031 59.33615493774414 6.495796203613281 64.82040405273438 C 8.736953735351562 70.11906433105469 11.94598388671875 74.87838745117188 16.03375244140625 78.96614074707031 C 20.12152099609375 83.05390930175781 24.88084411621094 86.262939453125 30.17951965332031 88.50407409667969 C 35.66378402709961 90.82372283935547 41.49123001098633 91.9998779296875 47.50001525878906 91.9998779296875 C 53.5088005065918 91.9998779296875 59.33624649047852 90.82372283935547 64.82051086425781 88.50407409667969 C 70.11917114257812 86.262939453125 74.87849426269531 83.05390930175781 78.96626281738281 78.96614074707031 C 83.05404663085938 74.87838745117188 86.2630615234375 70.11906433105469 88.50421142578125 64.82040405273438 C 90.82386016845703 59.33615493774414 92.00001525878906 53.50870895385742 92.00001525878906 47.49993896484375 C 92.00001525878906 41.49116897583008 90.82386016845703 35.66372299194336 88.50421142578125 30.17947387695312 C 86.2630615234375 24.88081359863281 83.05404663085938 20.12149047851562 78.96626281738281 16.03373718261719 C 74.87849426269531 11.94596862792969 70.11917114257812 8.7369384765625 64.82051086425781 6.495803833007812 C 59.33624649047852 4.176155090332031 53.5088005065918 3 47.50001525878906 3 M 47.50001525878906 0 C 73.73353576660156 0 95.00001525878906 21.26644897460938 95.00001525878906 47.49993896484375 C 95.00001525878906 73.73342895507812 73.73353576660156 94.9998779296875 47.50001525878906 94.9998779296875 C 21.26649475097656 94.9998779296875 0 73.73342895507812 0 47.49993896484375 C 0 21.26644897460938 21.26649475097656 0 47.50001525878906 0 Z" stroke="none" fill="#453179"/>
                                    </g>
                                  </g>
                                </g>
                              </g>
                            </g>
                          </g>
                        </g>
                      </g>
                    </g>
                  </g>
                </g>
              </g>
            </g>
          </g>
        </g>
      </g>
    </g>
    <g id="school_17043114_1_" data-name="school_17043114 (1)" transform="translate(1132.321 1265.286)">
      <g id="Grupo_1208020" data-name="Grupo 1208020" transform="translate(5.603 5.559)">
        <path id="Trazado_1052171" data-name="Trazado 1052171" d="M83.009,302.6v24H28.244v-24Z" transform="translate(-26.051 -267.457)" fill="#b2e26d"/>
        <path id="Trazado_1052172" data-name="Trazado 1052172" d="M39.576,213.4h20.48l9.1,10.724H10L19.1,213.4Z" transform="translate(-10 -188.982)" fill="#70d6f9"/>
        <g id="Grupo_1208018" data-name="Grupo 1208018" transform="translate(5.547 0)">
          <path id="Trazado_1052173" data-name="Trazado 1052173" d="M258.975,10.267c10.173,0,10.528,8.69,10.528,8.69s2.065.716,2.065,3.987-1.86,4.141-1.86,4.141a2.516,2.516,0,0,1-1.789,2.761c-2.1.613-6.121,0-6.121,0h-5.645s-4.025.613-6.121,0a2.516,2.516,0,0,1-1.789-2.761s-1.86-.869-1.86-4.141,2.065-3.987,2.065-3.987.355-8.69,10.528-8.69Z" transform="translate(-223.509 -10.266)" fill="#754e34"/>
          <g id="Grupo_1208017" data-name="Grupo 1208017">
            <g id="Grupo_1208013" data-name="Grupo 1208013">
              <path id="Trazado_1052174" data-name="Trazado 1052174" d="M78,79.871s-1.694-3.436-8.626-3.837c-7.637-.442-10.2,3.837-10.2,3.837V82.4l-.006-.008v2.3a1.564,1.564,0,0,0,1.571,1.564l1.414-.007h12.86l1.414.007a1.564,1.564,0,0,0,1.571-1.564V79.871Z" transform="translate(-58.811 -68.098)" fill="#3a70bf"/>
              <path id="Trazado_1052175" data-name="Trazado 1052175" d="M76.489,13.894a10.408,10.408,0,0,0-15.8,0,20.129,20.129,0,0,0-1.511,8.143h0c.418-.652,18.4-.652,18.815,0h0a20.129,20.129,0,0,0-1.511-8.143Z" transform="translate(-58.811 -10.264)" fill="#5190db"/>
              <path id="Trazado_1052176" data-name="Trazado 1052176" d="M59.309,102.555h0a10.736,10.736,0,0,1-.2-3.311,2.353,2.353,0,1,0-.252,4.584,2.946,2.946,0,0,1,.449-1.273Z" transform="translate(-56.136 -88.47)" fill="#eaa694"/>
              <path id="Trazado_1052177" data-name="Trazado 1052177" d="M192.431,102.555h0a10.736,10.736,0,0,0,.2-3.311,2.353,2.353,0,1,1,.252,4.584,2.945,2.945,0,0,0-.449-1.273Z" transform="translate(-176.044 -88.47)" fill="#eaa694"/>
              <path id="Trazado_1052178" data-name="Trazado 1052178" d="M92.354,80.087a10.736,10.736,0,0,0,.2-3.311h0s-1.87-3.157-6.8-3.157-6.8,3.157-6.8,3.157h0a10.736,10.736,0,0,0,.2,3.311h0a2.88,2.88,0,0,0-.464,1.537c0,2.383,3.165,4.315,7.07,4.315s7.07-1.932,7.07-4.315a2.88,2.88,0,0,0-.464-1.537Z" transform="translate(-75.966 -66.002)" fill="#f9d0b4"/>
              <g id="Grupo_1208011" data-name="Grupo 1208011" transform="translate(2.71 14.645)">
                <path id="Trazado_1052179" data-name="Trazado 1052179" d="M80.132,132.078a3.288,3.288,0,0,0-1.366.3,2.684,2.684,0,0,0-.09.681c0,1.787,1.779,3.32,4.316,3.975a3.3,3.3,0,0,0-2.86-4.952Z" transform="translate(-78.676 -132.078)" fill="#fa8fa6"/>
                <path id="Trazado_1052180" data-name="Trazado 1052180" d="M161.471,133.055a2.682,2.682,0,0,0-.09-.681,3.3,3.3,0,0,0-4.226,4.656c2.536-.655,4.316-2.188,4.316-3.975Z" transform="translate(-147.331 -132.078)" fill="#fa8fa6"/>
              </g>
              <path id="Trazado_1052181" data-name="Trazado 1052181" d="M98.052,73.619A8.655,8.655,0,0,0,92.664,75.3c.008.01,1.538,1.914,2.83,1.88a6.455,6.455,0,0,0,2.772-1.011s-.443,1.181,1.636.874a5.765,5.765,0,0,0,3.348-1.885,8.736,8.736,0,0,0-5.2-1.54Z" transform="translate(-88.272 -66.002)" fill="#754e34"/>
              <g id="Grupo_1208012" data-name="Grupo 1208012" transform="translate(3.088 0)">
                <path id="Trazado_1052182" data-name="Trazado 1052182" d="M119.752,50.735h-1.991A1.564,1.564,0,0,0,116.2,52.3V53.8a10.44,10.44,0,0,1,5.118,0V52.3a1.564,1.564,0,0,0-1.564-1.564Z" transform="translate(-112.065 -45.869)" fill="#3a70bf"/>
                <path id="Trazado_1052183" data-name="Trazado 1052183" d="M87.1,10.358c-3.086,1.864-5.865,4.952-5.177,9.81l.066.48A6.683,6.683,0,0,1,83.073,19.6c-.285-4.056,1.576-6.506,5.439-8.66C92,12.824,94.339,15.474,93.952,19.6a6.636,6.636,0,0,1,1.1,1.073l.047-.522a9.934,9.934,0,0,0-.7-5.194,11.616,11.616,0,0,0-4.5-4.6,10.638,10.638,0,0,0-2.8,0Z" transform="translate(-81.819 -10.264)" fill="#3a70bf"/>
              </g>
            </g>
            <g id="Grupo_1208016" data-name="Grupo 1208016" transform="translate(23.624 1.262)">
              <path id="Trazado_1052184" data-name="Trazado 1052184" d="M272.951,102.555h0a10.736,10.736,0,0,1-.2-3.311,2.353,2.353,0,1,0-.252,4.584,2.946,2.946,0,0,1,.449-1.273Z" transform="translate(-267.716 -89.732)" fill="#eaa694"/>
              <path id="Trazado_1052185" data-name="Trazado 1052185" d="M406.073,102.555h0a10.736,10.736,0,0,0,.2-3.311,2.353,2.353,0,1,1,.252,4.584,2.945,2.945,0,0,0-.449-1.273Z" transform="translate(-387.625 -89.732)" fill="#eaa694"/>
              <circle id="Elipse_13421" data-name="Elipse 13421" cx="1.867" cy="1.867" r="1.867" transform="translate(2.904 2.904)" fill="#fb657e"/>
              <g id="Grupo_1208014" data-name="Grupo 1208014">
                <path id="Trazado_1052186" data-name="Trazado 1052186" d="M305.267,43.43a2.034,2.034,0,0,0-.88.2,2.047,2.047,0,0,1-.448.609,1.86,1.86,0,0,1,0,2.472,2.048,2.048,0,0,1,.448.61,2.045,2.045,0,1,0,.88-3.891Z" transform="translate(-297.77 -40.705)" fill="#f6ca54"/>
                <path id="Trazado_1052187" data-name="Trazado 1052187" d="M275.946,24.3a1.862,1.862,0,0,1,2.8,0,2.046,2.046,0,1,0-2.8,0Z" transform="translate(-272.573 -20.764)" fill="#f6ca54"/>
                <path id="Trazado_1052188" data-name="Trazado 1052188" d="M255.536,45.476a1.858,1.858,0,0,1,.47-1.236,2.047,2.047,0,0,1-.448-.609,2.046,2.046,0,1,0,0,3.691,2.048,2.048,0,0,1,.448-.609,1.858,1.858,0,0,1-.47-1.236Z" transform="translate(-252.632 -40.705)" fill="#f6ca54"/>
              </g>
              <path id="Trazado_1052189" data-name="Trazado 1052189" d="M306,81.792a10.236,10.236,0,0,0-.063-4.681,1.676,1.676,0,0,1-1.43-1.157s0,1.363-1.977,1.13a6.756,6.756,0,0,1-2.795-.79c-.863,1.035-2.688,1.219-4.231-.562a2.036,2.036,0,0,1-1.338-.148c0-.01-.011-.019-.016-.029a2.058,2.058,0,0,1-1.565,2.942,10.737,10.737,0,0,0,.2,3.294h0a2.88,2.88,0,0,0-.464,1.537c0,2.383,3.165,4.315,7.07,4.315s7.07-1.932,7.07-4.315a2.88,2.88,0,0,0-.464-1.537h0Z" transform="translate(-287.546 -68.969)" fill="#f9d0b4"/>
              <g id="Grupo_1208015" data-name="Grupo 1208015" transform="translate(4.771 13.383)">
                <path id="Trazado_1052190" data-name="Trazado 1052190" d="M293.774,132.078a3.288,3.288,0,0,0-1.366.3,2.684,2.684,0,0,0-.09.681c0,1.787,1.779,3.32,4.316,3.975a3.3,3.3,0,0,0-2.86-4.952Z" transform="translate(-292.318 -132.078)" fill="#fa8fa6"/>
                <path id="Trazado_1052191" data-name="Trazado 1052191" d="M375.113,133.055a2.684,2.684,0,0,0-.09-.681,3.3,3.3,0,0,0-4.226,4.656c2.536-.655,4.316-2.188,4.316-3.975Z" transform="translate(-360.973 -132.078)" fill="#fa8fa6"/>
              </g>
              <path id="Trazado_1052192" data-name="Trazado 1052192" d="M278.743,70.716a1.862,1.862,0,0,1-2.8,0,2.043,2.043,0,0,0,.767,3.437,2.264,2.264,0,0,1,.9.07v.012a2.043,2.043,0,0,0,1.133-3.518Z" transform="translate(-272.573 -64.71)" fill="#f6ca54"/>
            </g>
          </g>
        </g>
        <path id="Trazado_1052193" data-name="Trazado 1052193" d="M155.8,223.814V246.99H124.078V223.814L139.939,212.1l16.075,9.94Z" transform="translate(-110.363 -187.838)" fill="#fb657e"/>
        <path id="Trazado_1052194" data-name="Trazado 1052194" d="M138.45,210.854l-15.64-9.446-15.64,9.446a1.443,1.443,0,0,1-1.981-.489l-.373-.617a1.443,1.443,0,0,1,.489-1.981l16.572-10.009a1.8,1.8,0,0,1,1.865,0l16.572,10.009a1.443,1.443,0,0,1,.489,1.981l-.373.617a1.443,1.443,0,0,1-1.981.489Z" transform="translate(-93.234 -174.987)" fill="#5190db"/>
        <path id="Trazado_1052195" data-name="Trazado 1052195" d="M230.726,427.417H236.8v9h-6.077Z" transform="translate(-204.188 -377.263)" fill="#f6ca54"/>
        <circle id="Elipse_13422" data-name="Elipse 13422" cx="3.825" cy="3.825" r="3.825" transform="translate(25.751 31.498)" fill="#f6ca54"/>
        <path id="Trazado_1052196" data-name="Trazado 1052196" d="M144.116,367.171h3.752v3.752h-3.752Z" transform="translate(-127.991 -324.261)" fill="#d6e0ea"/>
        <path id="Trazado_1052197" data-name="Trazado 1052197" d="M175.321,367.171h3.752v3.752h-3.752Z" transform="translate(-155.445 -324.261)" fill="#eef4fc"/>
        <path id="Trazado_1052198" data-name="Trazado 1052198" d="M206.527,367.171h3.752v3.752h-3.752Z" transform="translate(-182.899 -324.261)" fill="#d6e0ea"/>
        <path id="Trazado_1052199" data-name="Trazado 1052199" d="M0,0H3.752V3.752H0Z" transform="translate(43.028 46.662) rotate(180)" fill="#d6e0ea"/>
        <g id="Grupo_1208019" data-name="Grupo 1208019" transform="translate(35.524 42.91)">
          <path id="Trazado_1052200" data-name="Trazado 1052200" d="M0,0H3.752V3.752H0Z" transform="translate(17.33 3.752) rotate(180)" fill="#eef4fc"/>
          <path id="Trazado_1052201" data-name="Trazado 1052201" d="M0,0H3.752V3.752H0Z" transform="translate(3.752 3.752) rotate(180)" fill="#eef4fc"/>
          <path id="Trazado_1052202" data-name="Trazado 1052202" d="M0,0H3.752V3.752H0Z" transform="translate(7.503 11.993) rotate(180)" fill="#eef4fc"/>
        </g>
        <path id="Trazado_1052203" data-name="Trazado 1052203" d="M0,0H3.752V3.752H0Z" transform="translate(52.855 54.903) rotate(180)" fill="#d6e0ea"/>
        <path id="Trazado_1052204" data-name="Trazado 1052204" d="M62.381,367.171h3.752v3.752H62.381Z" transform="translate(-56.083 -324.261)" fill="#eef4fc"/>
        <path id="Trazado_1052205" data-name="Trazado 1052205" d="M62.381,435.714h3.752v3.752H62.381Z" transform="translate(-56.083 -384.563)" fill="#d6e0ea"/>
        <path id="Trazado_1052206" data-name="Trazado 1052206" d="M0,0H3.752V3.752H0Z" transform="translate(39.276 54.903) rotate(180)" fill="#d6e0ea"/>
        <path id="Trazado_1052207" data-name="Trazado 1052207" d="M144.116,435.714h3.752v3.752h-3.752Z" transform="translate(-127.991 -384.563)" fill="#eef4fc"/>
        <path id="Trazado_1052208" data-name="Trazado 1052208" d="M175.321,435.714h3.752v3.752h-3.752Z" transform="translate(-155.445 -384.563)" fill="#d6e0ea"/>
        <path id="Trazado_1052209" data-name="Trazado 1052209" d="M0,0H3.752V3.752H0Z" transform="translate(35.524 46.662) rotate(180)" fill="#d6e0ea"/>
      </g>
      <g id="Grupo_1208021" data-name="Grupo 1208021" transform="translate(5.002 4.916)">
        <path id="Trazado_1052210" data-name="Trazado 1052210" d="M228.207,271.491a4.426,4.426,0,1,0-4.426,4.426A4.431,4.431,0,0,0,228.207,271.491Zm-4.426,3.224a3.224,3.224,0,1,1,3.224-3.224A3.227,3.227,0,0,1,223.781,274.714Z" transform="translate(-193.604 -235.547)" fill="#00183f"/>
        <path id="Trazado_1052211" data-name="Trazado 1052211" d="M242.587,282.843a.6.6,0,0,0-.6.6v1.5l-.831.29a.6.6,0,0,0,.4,1.135l1.234-.431a.6.6,0,0,0,.4-.568v-1.928a.6.6,0,0,0-.6-.6Z" transform="translate(-212.41 -249.428)" fill="#00183f"/>
        <path id="Trazado_1052212" data-name="Trazado 1052212" d="M150.973,361.99c-1.871,0-5.633,0-7.5,0h-3.752a.6.6,0,0,0-.6.6v3.752a.6.6,0,0,0,.6.6c1.871,0,5.633,0,7.5,0h3.752a.6.6,0,0,0,.6-.6v-3.752A.6.6,0,0,0,150.973,361.99Zm-10.654,1.2h2.55v2.55h-2.55Zm3.752,0h2.549v2.55h-2.549Zm6.3,2.55h-2.55v-2.55h2.55Z" transform="translate(-122.992 -319.059)" fill="#00183f"/>
        <path id="Trazado_1052213" data-name="Trazado 1052213" d="M281.126,361.99c-1.871,0-5.633,0-7.5,0h-3.752a.6.6,0,0,0-.6.6v3.752a.6.6,0,0,0,.6.6c1.871,0,5.633,0,7.5,0h3.752a.6.6,0,0,0,.6-.6v-3.752A.6.6,0,0,0,281.126,361.99Zm-10.654,1.2h2.55v2.55h-2.55Zm3.752,0h2.549v2.55h-2.549Zm6.3,2.55h-2.55v-2.55h2.55Z" transform="translate(-237.497 -319.059)" fill="#00183f"/>
        <path id="Trazado_1052214" data-name="Trazado 1052214" d="M414.016,366.945h3.752a.6.6,0,0,0,.6-.6v-3.752a.6.6,0,0,0-.6-.6h-3.752a.6.6,0,0,0-.6.6v3.752A.6.6,0,0,0,414.016,366.945Zm.6-3.752h2.55v2.55h-2.55Z" transform="translate(-364.312 -319.06)" fill="#00183f"/>
        <path id="Trazado_1052215" data-name="Trazado 1052215" d="M308.581,430.534c-1.87,0-5.634,0-7.5,0a.6.6,0,0,0-.6.6v3.752a.6.6,0,0,0,.6.6h7.5a.6.6,0,0,0,.6-.6v-3.752A.6.6,0,0,0,308.581,430.534Zm-6.9,1.2h2.549v2.549h-2.549Zm6.3,2.549h-2.55v-2.549h2.55Z" transform="translate(-264.952 -379.362)" fill="#00183f"/>
        <path id="Trazado_1052216" data-name="Trazado 1052216" d="M414.016,435.489h3.752a.6.6,0,0,0,.6-.6v-3.752a.6.6,0,0,0-.6-.6h-3.752a.6.6,0,0,0-.6.6v3.752A.6.6,0,0,0,414.016,435.489Zm.6-3.752h2.55v2.549h-2.55Z" transform="translate(-364.312 -379.363)" fill="#00183f"/>
        <path id="Trazado_1052217" data-name="Trazado 1052217" d="M61.736,361.991H57.984a.6.6,0,0,0-.6.6v3.752a.6.6,0,0,0,.6.6h3.752a.6.6,0,0,0,.6-.6v-3.752A.6.6,0,0,0,61.736,361.991Zm-.6,3.752h-2.55v-2.55h2.55Z" transform="translate(-51.085 -319.06)" fill="#00183f"/>
        <path id="Trazado_1052218" data-name="Trazado 1052218" d="M61.736,430.535H57.984a.6.6,0,0,0-.6.6v3.752a.6.6,0,0,0,.6.6h3.752a.6.6,0,0,0,.6-.6v-3.752A.6.6,0,0,0,61.736,430.535Zm-.6,3.752h-2.55v-2.549h2.55Z" transform="translate(-51.085 -379.364)" fill="#00183f"/>
        <path id="Trazado_1052219" data-name="Trazado 1052219" d="M147.222,430.534c-1.87,0-5.634,0-7.5,0a.6.6,0,0,0-.6.6v3.752a.6.6,0,0,0,.6.6h7.5a.6.6,0,0,0,.6-.6v-3.752A.6.6,0,0,0,147.222,430.534Zm-6.9,1.2h2.55v2.549h-2.55Zm6.3,2.549h-2.549v-2.549h2.549Z" transform="translate(-122.992 -379.362)" fill="#00183f"/>
        <path id="Trazado_1052220" data-name="Trazado 1052220" d="M51.53,20.357v2.134a2.165,2.165,0,0,0,2.164,2.165c.009,0,1.88-.009,1.89-.009,2.826,2.362,9.1,2.362,11.922,0,.012,0,1.88.01,1.89.009a2.175,2.175,0,0,0,2.164-2.165.6.6,0,1,0-1.2,0,.962.962,0,0,1-.967.963l-.769,0a3.632,3.632,0,0,0,.574-1.57,2.952,2.952,0,1,0-.581-5.874,6.589,6.589,0,0,0-.444-.514,9,9,0,0,0-3.934-8.617,9.937,9.937,0,0,1,4.693,2.973A16.643,16.643,0,0,1,70.236,15a.6.6,0,0,0,1.2-.124,16.416,16.416,0,0,0-1.509-5.709,11.061,11.061,0,0,0-16.753,0,19.92,19.92,0,0,0-1.638,8.35,2.972,2.972,0,0,0,0,2.845ZM52.709,17.9a1.74,1.74,0,0,1,1.393-.714,11.62,11.62,0,0,0,.2,2.7,3.592,3.592,0,0,0-.318.8,1.754,1.754,0,0,1-1.274-2.78Zm5.759,6.869c-1.614-.519-3.541-1.681-3.375-3.493A2.709,2.709,0,0,1,58.468,24.77ZM53.7,23.454a.967.967,0,0,1-.967-.963s0-.947,0-.947a2.984,2.984,0,0,0,1.162.336,3.632,3.632,0,0,0,.574,1.57l-.769,0Zm5.94,1.608a3.919,3.919,0,0,0-4.1-5.1,10.911,10.911,0,0,1-.211-3.084,5.345,5.345,0,0,1,.767-.849c1.861,1.929,3.066,2.024,5.234.969.665,1.012,2.854.544,3.939-.044a.6.6,0,0,0-.549-1.07,4.536,4.536,0,0,1-1.41.46c-.7.1-.938,0-.987-.032a.6.6,0,0,0-.893-.749,5.727,5.727,0,0,1-2.456.911A3.465,3.465,0,0,1,57.062,15.3c3.1-1.922,8.189-1.563,10.555,1.376.05.062.108.141.147.2.006.068.011.137.016.205.014.226.02.453.018.679a11.768,11.768,0,0,1-.243,2.2,3.919,3.919,0,0,0-4.1,5.1,10.739,10.739,0,0,1-3.814,0ZM63.5,13.082a11.372,11.372,0,0,0-3.916,0v-.756a.964.964,0,0,1,.963-.962h1.991a.963.963,0,0,1,.962.962Zm5.5,4.1a1.75,1.75,0,0,1,.105,3.494,3.591,3.591,0,0,0-.318-.8,11.617,11.617,0,0,0,.2-2.7H69Zm-1,4.5c-.191,1.624-1.853,2.583-3.384,3.088A2.709,2.709,0,0,1,68,21.277a1.82,1.82,0,0,1,.009.405Zm-1.668-10.6a8.439,8.439,0,0,1,.678,3.42,8.539,8.539,0,0,0-2.312-1.129V12.326a2.167,2.167,0,0,0-2.165-2.165H60.55a2.167,2.167,0,0,0-2.165,2.165v1.051a8.539,8.539,0,0,0-2.311,1.129c-.1-4.249,2.9-6.5,5.472-7.932.877.47,3.729,2.143,4.793,4.512ZM54.161,9.847a9.839,9.839,0,0,1,4.7-2.977,9,9,0,0,0-3.941,8.621,6.588,6.588,0,0,0-.444.514,2.971,2.971,0,0,0-1.717.308,18.081,18.081,0,0,1,1.4-6.467Z" transform="translate(-45.617 -5.276)" fill="#00183f"/>
        <path id="Trazado_1052221" data-name="Trazado 1052221" d="M243.264,14.672a.6.6,0,0,0-.844.1,5.446,5.446,0,0,0-1.036,3.441c0,2.732,1.21,3.987,1.839,4.455.092,2.683,2.168,3.356,4.945,3.32a27.462,27.462,0,0,0,3.54-.259,12.207,12.207,0,0,0,5.739,0,27.451,27.451,0,0,0,3.541.259c2.771.037,4.854-.635,4.945-3.32,2.462-1.725,2.53-7.351-.258-8.832-1.032-7.948-8.942-10.168-15.368-8.3a.6.6,0,0,0,.359,1.147,13.124,13.124,0,0,1,3.912-.545c6-.142,9.54,3.6,9.927,8.114a.591.591,0,0,0,.4.541c.068.026,1.667.658,1.667,3.422.037,1.447-.537,3.049-1.513,3.6a.606.606,0,0,0-.341.626c.221,2.517-2.611,2.406-4.858,2.318a4.482,4.482,0,0,0,2.372-3.235,2.952,2.952,0,0,0-.335-5.893,8.142,8.142,0,0,0-.193-.851.6.6,0,0,0-.507-.432,1.067,1.067,0,0,1-.92-.714.6.6,0,0,0-1.183.147c-.068.514-.645.618-1.3.54a6.521,6.521,0,0,1-2.527-.689.6.6,0,0,0-.81.124,1.886,1.886,0,0,1-2.7-.012,2.65,2.65,0,0,0-1.594-4.815,2.647,2.647,0,1,0-5.291,0,2.646,2.646,0,1,0,0,5.29,2.633,2.633,0,0,0,.7,1.873,2.957,2.957,0,0,0,1.365,5.431,4.479,4.479,0,0,0,2.372,3.235c-2.252.088-5.076.2-4.858-2.314a.591.591,0,0,0-.333-.626c-.062-.031-1.521-.8-1.521-3.6a4.288,4.288,0,0,1,.78-2.7.6.6,0,0,0-.1-.844Zm6.147,8.691a2.772,2.772,0,0,1-1.284-2.446A2.709,2.709,0,0,1,251.5,24.41a6.942,6.942,0,0,1-2.091-1.047Zm-1.15-10.776a1.267,1.267,0,0,1-1.7-.179h0a1.265,1.265,0,1,1,1.894,0h0A1.276,1.276,0,0,1,248.26,12.588Zm9.231,10.9a2.714,2.714,0,0,1,3.539-2.568c.166,1.812-1.759,2.973-3.375,3.493a2.7,2.7,0,0,1-.164-.925Zm6.257-4.734a1.762,1.762,0,0,1-1.608,1.569,3.6,3.6,0,0,0-.318-.8,11.578,11.578,0,0,0,.2-2.7,1.761,1.761,0,0,1,1.726,1.924Zm-13.283-4.543c1.339,1.4,3.243,1.758,4.561.651a9.007,9.007,0,0,0,2.619.654,2.49,2.49,0,0,0,2.123-.538,2.235,2.235,0,0,0,.864.48,10,10,0,0,1-.048,4.148,3.919,3.919,0,0,0-4.1,5.1,10.739,10.739,0,0,1-3.814,0,3.919,3.919,0,0,0-4.1-5.1,11.169,11.169,0,0,1-.231-2.793,2.661,2.661,0,0,0,1.815-2.592,2.971,2.971,0,0,0,.311-.01ZM249.78,10.2a1.444,1.444,0,1,1,0,2.741c-.037-.059-.073-.118-.114-.174a2.473,2.473,0,0,0,0-2.392c.041-.057.077-.116.114-.175Zm-2.272-2.8a1.451,1.451,0,0,1,1.3,2.073,2.473,2.473,0,0,0-2.6,0,1.449,1.449,0,0,1,1.3-2.073Zm-2.272,5.541a1.444,1.444,0,1,1,0-2.742c.037.059.074.118.114.175a2.474,2.474,0,0,0,0,2.392c-.041.057-.077.116-.114.175Zm.827,1.354a1.394,1.394,0,0,1,.146-.628,2.473,2.473,0,0,0,2.6,0,1.448,1.448,0,0,1-.984,2.036,2.851,2.851,0,0,0-.866-.074,1.447,1.447,0,0,1-.892-1.335Zm-.664,4.28a1.752,1.752,0,0,1,1.435-1.72,2.618,2.618,0,0,0,.3.06,11.585,11.585,0,0,0,.2,2.608,3.594,3.594,0,0,0-.318.8,1.753,1.753,0,0,1-1.616-1.745Z" transform="translate(-212.964 -4.916)" fill="#00183f"/>
        <path id="Trazado_1052222" data-name="Trazado 1052222" d="M65.214,205.16l-9.1-10.724a.6.6,0,0,0-.458-.212H43.992a.6.6,0,1,0,0,1.2H55.381l8.076,9.522H53.911a2.058,2.058,0,0,0-.555-2,2.079,2.079,0,0,0-.362-.28L39.159,194.31h0l-2.737-1.653a2.4,2.4,0,0,0-2.486,0l-2.593,1.566H14.7a.6.6,0,0,0-.458.212l-9.1,10.724a.6.6,0,0,0,.458.99H7.2v23.4a.6.6,0,0,0,.6.6H62.562a.6.6,0,0,0,.6-.6v-23.4h1.592a.6.6,0,0,0,.458-.99ZM34.558,193.686a1.2,1.2,0,0,1,1.243,0l2.737,1.653h0l13.836,8.356a.842.842,0,0,1,.285,1.155c-.088.156-.287.468-.373.617a.844.844,0,0,1-1.026.348c-.1-.079-15.663-9.414-15.769-9.508a.6.6,0,0,0-.622,0l-15.64,9.446a.851.851,0,0,1-1.155-.285c-.109-.174-.269-.45-.373-.618a.843.843,0,0,1,.285-1.155l16.572-10.009Zm-15.84,35.266H8.4v-22.8H14.18a.6.6,0,0,0,0-1.2H6.9l8.076-9.522H29.352l-11.988,7.24c-.057.039-.116.074-.171.116a2.044,2.044,0,0,0-.522,2.691l.234.387a2.114,2.114,0,0,0,1.812,1.217v21.876Zm14.024,0v-7.8h4.875v7.8Zm29.219,0H51.641V208.961a.6.6,0,1,0-1.2,0v19.991H38.819v-8.4a.6.6,0,0,0-.6-.6H32.14a.6.6,0,0,0-.6.6v8.4H19.919V206.74l15.26-9.216,15.329,9.258a2.117,2.117,0,0,0,.473.208,2.051,2.051,0,0,0,2.3-.84h8.684v22.8Z" transform="translate(-5.002 -169.78)" fill="#00183f"/>
      </g>
    </g>
  </g>
</svg>
