<svg xmlns="http://www.w3.org/2000/svg" xmlns:xlink="http://www.w3.org/1999/xlink" width="113" height="113" viewBox="0 0 113 113">
  <defs>
    <filter id="Trazado_982547" x="0" y="0" width="113" height="113" filterUnits="userSpaceOnUse">
      <feOffset dy="3" input="SourceAlpha"/>
      <feGaussianBlur stdDeviation="3" result="blur"/>
      <feFlood flood-opacity="0.161"/>
      <feComposite operator="in" in2="blur"/>
      <feComposite in="SourceGraphic"/>
    </filter>
  </defs>
  <g id="Grupo_1208198" data-name="Grupo 1208198" transform="translate(-4081.151 -1222)">
    <g id="Grupo_1207794" data-name="Grupo 1207794" transform="translate(4090.151 1228)">
      <g id="Grupo_1201923" data-name="Grupo 1201923" transform="translate(0 0)">
        <g id="Grupo_1176928" data-name="Grupo 1176928" transform="translate(0 0)">
          <g id="Grupo_1172322" data-name="Grupo 1172322">
            <g id="Grupo_1164700" data-name="Grupo 1164700">
              <g id="Grupo_1160931" data-name="Grupo 1160931">
                <g id="Grupo_1160749" data-name="Grupo 1160749">
                  <g id="Grupo_1158891" data-name="Grupo 1158891">
                    <g id="Grupo_1157406" data-name="Grupo 1157406">
                      <g id="Grupo_1155793" data-name="Grupo 1155793">
                        <g id="Grupo_1154704" data-name="Grupo 1154704">
                          <g id="Grupo_1150790" data-name="Grupo 1150790">
                            <g id="Grupo_1154214" data-name="Grupo 1154214" transform="translate(0)">
                              <g id="Grupo_1152583" data-name="Grupo 1152583">
                                <g id="Grupo_1146973" data-name="Grupo 1146973">
                                  <g id="Grupo_1146954" data-name="Grupo 1146954">
                                    <g transform="matrix(1, 0, 0, 1, -9, -6)" filter="url(#Trazado_982547)">
                                      <g id="Trazado_982547-2" data-name="Trazado 982547" transform="translate(9 6)" fill="#ebe9f0">
                                        <path d="M 47.50000762939453 93.49986267089844 C 41.28937911987305 93.49986267089844 35.26534271240234 92.28383636474609 29.59519386291504 89.88558197021484 C 24.11772727966309 87.56880950927734 19.19814109802246 84.25183868408203 14.97310066223145 80.02679443359375 C 10.74804782867432 75.8017578125 7.431074142456055 70.88218688964844 5.114300727844238 65.40471649169922 C 2.716034412384033 59.73458480834961 1.500007629394531 53.71054458618164 1.500007629394531 47.49993133544922 C 1.500007629394531 41.2893180847168 2.716034412384033 35.26527786254883 5.114300727844238 29.59514427185059 C 7.431074142456055 24.11767768859863 10.74804782867432 19.19810485839844 14.97310066223145 14.97306442260742 C 19.19814109802246 10.74802494049072 24.11772727966309 7.431051254272461 29.59519386291504 5.114277839660645 C 35.26534271240234 2.71602463722229 41.28937911987305 1.499997973442078 47.50000762939453 1.499997973442078 C 53.71063613891602 1.499997973442078 59.73467254638672 2.71602463722229 65.40482330322266 5.114277839660645 C 70.88228607177734 7.431051254272461 75.80187225341797 10.74802494049072 80.02691650390625 14.97306442260742 C 84.25196838378906 19.19810485839844 87.56893920898438 24.11767768859863 89.88571166992188 29.59514427185059 C 92.28398132324219 35.26527786254883 93.50000762939453 41.2893180847168 93.50000762939453 47.49993133544922 C 93.50000762939453 53.71054458618164 92.28398132324219 59.73458480834961 89.88571166992188 65.40471649169922 C 87.56893920898438 70.88218688964844 84.25196838378906 75.8017578125 80.02691650390625 80.02679443359375 C 75.80187225341797 84.25183868408203 70.88228607177734 87.56880950927734 65.40482330322266 89.88558197021484 C 59.73467254638672 92.28383636474609 53.71063613891602 93.49986267089844 47.50000762939453 93.49986267089844 Z" stroke="none"/>
                                        <path d="M 47.50000762939453 2.999992370605469 C 41.4912223815918 2.999992370605469 35.66377639770508 4.1761474609375 30.17951202392578 6.495796203613281 C 24.88085174560547 8.736930847167969 20.12152862548828 11.94596099853516 16.03376007080078 16.03372955322266 C 11.94597625732422 20.12148284912109 8.736961364746094 24.88080596923828 6.495803833007812 30.17946624755859 C 4.176162719726562 35.66371536254883 3.000007629394531 41.49116134643555 3.000007629394531 47.49993133544922 C 3.000007629394531 53.50870132446289 4.176162719726562 59.33614730834961 6.495803833007812 64.82038879394531 C 8.736961364746094 70.11905670166016 11.94597625732422 74.87836456298828 16.03376007080078 78.96613311767578 C 20.12152862548828 83.05390167236328 24.88085174560547 86.26291656494141 30.17951202392578 88.50406646728516 C 35.66377639770508 90.82369995117188 41.4912223815918 91.99985504150391 47.50000762939453 91.99985504150391 C 53.50879287719727 91.99985504150391 59.33623886108398 90.82369995117188 64.82049560546875 88.50406646728516 C 70.11916351318359 86.26291656494141 74.87848663330078 83.05390167236328 78.96625518798828 78.96613311767578 C 83.05403900146484 74.87836456298828 86.26305389404297 70.11905670166016 88.50421142578125 64.82038879394531 C 90.8238525390625 59.33614730834961 92.00000762939453 53.50870132446289 92.00000762939453 47.49993133544922 C 92.00000762939453 41.49116134643555 90.8238525390625 35.66371536254883 88.50421142578125 30.17946624755859 C 86.26305389404297 24.88080596923828 83.05403900146484 20.12148284912109 78.96625518798828 16.03372955322266 C 74.87848663330078 11.94596099853516 70.11916351318359 8.736930847167969 64.82049560546875 6.495796203613281 C 59.33623886108398 4.1761474609375 53.50879287719727 2.999992370605469 47.50000762939453 2.999992370605469 M 47.50000762939453 -7.62939453125e-06 C 73.73352813720703 -7.62939453125e-06 95.00000762939453 21.26644134521484 95.00000762939453 47.49993133544922 C 95.00000762939453 73.73342132568359 73.73352813720703 94.99985504150391 47.50000762939453 94.99985504150391 C 21.26648712158203 94.99985504150391 7.62939453125e-06 73.73342132568359 7.62939453125e-06 47.49993133544922 C 7.62939453125e-06 21.26644134521484 21.26648712158203 -7.62939453125e-06 47.50000762939453 -7.62939453125e-06 Z" stroke="none" fill="#453179"/>
                                      </g>
                                    </g>
                                  </g>
                                </g>
                              </g>
                            </g>
                          </g>
                        </g>
                      </g>
                    </g>
                  </g>
                </g>
              </g>
            </g>
          </g>
        </g>
      </g>
    </g>
    <g id="law-book_1595084" transform="translate(4107.567 1245)">
      <path id="Trazado_1052255" data-name="Trazado 1052255" d="M65.324,411.473H38.975l-2.154,5.464-2.339-5.464H8.082a.582.582,0,0,0-.582.582v9.6a.745.745,0,0,0,.745.745H65.16a.745.745,0,0,0,.745-.745v-9.6a.582.582,0,0,0-.582-.582Zm0,0" transform="translate(-6.619 -363.118)" fill="#fd3e4c"/>
      <g id="Grupo_1208057" data-name="Grupo 1208057" transform="translate(3.055 0.882)">
        <path id="Trazado_1052256" data-name="Trazado 1052256" d="M315.8,8.138V9.594a3.238,3.238,0,0,1-3.239,3.239h-2.417v-2.09a3.239,3.239,0,0,1,3.24-3.239h1.782a.634.634,0,0,1,.634.634Zm0,0" transform="translate(-276.75 -7.504)" fill="#feb12e"/>
        <path id="Trazado_1052257" data-name="Trazado 1052257" d="M382.546,46.3a.634.634,0,0,1,.634.634V48.4a3.239,3.239,0,0,1-3.239,3.239l-2.442-.021.025-2.069a3.239,3.239,0,0,1,3.239-3.239Zm0,0" transform="translate(-336.193 -41.745)" fill="#feb12e"/>
        <path id="Trazado_1052258" data-name="Trazado 1052258" d="M430.566,115.5v1.457a3.239,3.239,0,0,1-3.239,3.239H424.91V118.1a3.239,3.239,0,0,1,3.239-3.239h1.783a.634.634,0,0,1,.634.634Zm0,0" transform="translate(-378.032 -102.247)" fill="#feb12e"/>
        <path id="Trazado_1052259" data-name="Trazado 1052259" d="M443.527,201.576v1.457a3.239,3.239,0,0,1-3.239,3.239h-2.417v-2.09a3.239,3.239,0,0,1,3.239-3.239h1.783a.634.634,0,0,1,.634.634Zm0,0" transform="translate(-389.47 -178.21)" fill="#feb12e"/>
        <path id="Trazado_1052260" data-name="Trazado 1052260" d="M420.5,285.956a.634.634,0,0,1,.376.814l-.5,1.367a3.238,3.238,0,0,1-4.157,1.923l-2.268-.832.721-1.962a3.239,3.239,0,0,1,4.156-1.925Zm0,0" transform="translate(-368.36 -252.516)" fill="#feb12e"/>
        <path id="Trazado_1052261" data-name="Trazado 1052261" d="M45.022,287.266l.72,1.962-2.268.832a3.238,3.238,0,0,1-4.157-1.923l-.5-1.367a.634.634,0,0,1,.376-.814l1.673-.614A3.239,3.239,0,0,1,45.022,287.266Zm0,0" transform="translate(-37.275 -252.515)" fill="#feb12e"/>
        <path id="Trazado_1052262" data-name="Trazado 1052262" d="M31.656,204.184v2.09H29.239A3.239,3.239,0,0,1,26,203.036v-1.457a.634.634,0,0,1,.634-.634h1.783a3.238,3.238,0,0,1,3.239,3.239Zm0,0" transform="translate(-26 -178.213)" fill="#feb12e"/>
        <path id="Trazado_1052263" data-name="Trazado 1052263" d="M44.617,118.1v2.09H42.2a3.239,3.239,0,0,1-3.239-3.239V115.5a.634.634,0,0,1,.634-.634h1.782a3.24,3.24,0,0,1,3.24,3.24Zm0,0" transform="translate(-37.438 -102.247)" fill="#feb12e"/>
        <path id="Trazado_1052264" data-name="Trazado 1052264" d="M159.386,10.743v2.091h-2.417a3.239,3.239,0,0,1-3.239-3.239V8.138a.634.634,0,0,1,.634-.634h1.782a3.239,3.239,0,0,1,3.24,3.239Zm0,0" transform="translate(-138.72 -7.504)" fill="#feb12e"/>
        <path id="Trazado_1052265" data-name="Trazado 1052265" d="M91.816,48.543v2.09H89.4A3.238,3.238,0,0,1,86.16,47.4V45.939a.634.634,0,0,1,.634-.634h1.783a3.239,3.239,0,0,1,3.239,3.239Zm0,0" transform="translate(-79.09 -40.863)" fill="#feb12e"/>
      </g>
      <path id="Trazado_1052266" data-name="Trazado 1052266" d="M273.61,102.7h-7.051c0-8.886-4.04-16.1-9.047-16.216a16.215,16.215,0,0,1,16.1,16.216Zm0,0" transform="translate(-227.25 -76.321)" fill="#2399fc"/>
      <path id="Trazado_1052267" data-name="Trazado 1052267" d="M256.5,224.473h9.166c0,8.887-4.04,16.1-9.047,16.216H256.5Zm0,0" transform="translate(-226.357 -198.094)" fill="#2399fc"/>
      <path id="Trazado_1052268" data-name="Trazado 1052268" d="M187.666,86.473V102.69H178.5c0-8.886,4.04-16.1,9.047-16.216h.119Zm0,0" transform="translate(-157.524 -76.311)" fill="#2399fc"/>
      <path id="Trazado_1052269" data-name="Trazado 1052269" d="M125.551,224.473c0,8.887,4.04,16.1,9.047,16.216a16.215,16.215,0,0,1-16.1-16.216Zm0,0" transform="translate(-104.575 -198.094)" fill="#0089e5"/>
      <path id="Trazado_1052270" data-name="Trazado 1052270" d="M266.559,224.473h7.051a16.215,16.215,0,0,1-16.1,16.216c5.007-.113,9.047-7.33,9.047-16.216Zm0,0" transform="translate(-227.251 -198.094)" fill="#17d7dd"/>
      <path id="Trazado_1052271" data-name="Trazado 1052271" d="M256.619,86.474c5.007.113,9.047,7.33,9.047,16.216H256.5V86.472h.119Zm0,0" transform="translate(-226.358 -76.31)" fill="#17d7dd"/>
      <path id="Trazado_1052272" data-name="Trazado 1052272" d="M187.666,224.473V240.69h-.119c-5.007-.113-9.047-7.33-9.047-16.216Zm0,0" transform="translate(-157.524 -198.094)" fill="#17d7dd"/>
      <path id="Trazado_1052273" data-name="Trazado 1052273" d="M134.6,86.484c-5.007.113-9.047,7.33-9.047,16.216H118.5a16.215,16.215,0,0,1,16.1-16.216Zm0,0" transform="translate(-104.574 -76.321)" fill="#17d7dd"/>
      <path id="Trazado_1052274" data-name="Trazado 1052274" d="M72.06,402.352v6.816a5.876,5.876,0,0,0-5.876-5.876H47.91a.41.41,0,0,1-.41-.409v-6a.41.41,0,0,1,.41-.409H66.185A5.875,5.875,0,0,1,72.06,402.352Zm0,0" transform="translate(-41.918 -349.885)" fill="#feec9d"/>
      <path id="Trazado_1052275" data-name="Trazado 1052275" d="M47.5,426.973V429.8a.41.41,0,0,0,.41.41H66.185a5.876,5.876,0,0,1,5.876,5.876v-4.056a5.877,5.877,0,0,0-5.817-5.052Zm0,0" transform="translate(-41.918 -376.797)" fill="#f2d972"/>
      <path id="Trazado_1052276" data-name="Trazado 1052276" d="M281.06,396.883v6a.41.41,0,0,1-.41.41H262.375a5.876,5.876,0,0,0-5.876,5.876v-6.816a5.876,5.876,0,0,1,5.876-5.876H280.65A.41.41,0,0,1,281.06,396.883Zm0,0" transform="translate(-226.357 -349.881)" fill="#feec9d"/>
      <path id="Trazado_1052277" data-name="Trazado 1052277" d="M257,433.849v2.29a5.877,5.877,0,0,1,5.817-5.052h18.275a.41.41,0,0,0,.41-.409v-2.7H262.876A5.876,5.876,0,0,0,257,433.849Zm0,0" transform="translate(-226.799 -377.679)" fill="#f2d972"/>
      <path id="Trazado_1052278" data-name="Trazado 1052278" d="M179.621,224.473H178.5c0,8.887,4.04,16.1,9.047,16.216h.119v-4.931a21.25,21.25,0,0,1-8.045-11.286Zm0,0" transform="translate(-157.524 -198.094)" fill="#0dcccc"/>
      <path id="Trazado_1052279" data-name="Trazado 1052279" d="M256.5,320.516v4.931h.119a6.609,6.609,0,0,0,4.657-2.373A21.186,21.186,0,0,1,256.5,320.516Zm0,0" transform="translate(-226.357 -282.85)" fill="#0089e5"/>
      <path id="Trazado_1052280" data-name="Trazado 1052280" d="M262.17,342.273a6.609,6.609,0,0,1-4.657,2.373,16.15,16.15,0,0,0,6.993-1.637A21.1,21.1,0,0,1,262.17,342.273Zm0,0" transform="translate(-227.251 -302.05)" fill="#0dcccc"/>
      <path id="Trazado_1052281" data-name="Trazado 1052281" d="M125.812,108.924a21.138,21.138,0,0,1,1.815-8.6,16.216,16.216,0,0,0-9.127,14.589h7.051a28.1,28.1,0,0,1,.328-4.31q-.065-.833-.067-1.683Zm0,0" transform="translate(-104.575 -88.538)" fill="#0dcccc"/>
      <path id="Trazado_1052282" data-name="Trazado 1052282" d="M58.7,47.473h-3.12V47.12a1.411,1.411,0,0,0-1.409-1.409h-13a22.024,22.024,0,0,0,7.6-7.214l2.065.758a4.12,4.12,0,0,0,5.288-2.448l.721-1.962a.881.881,0,0,0-.524-1.131l-2.269-.833a4.085,4.085,0,0,0-2.682-.054,21.951,21.951,0,0,0,.664-3h2.066a4.125,4.125,0,0,0,4.12-4.12v-2.09a.882.882,0,0,0-.881-.881H54.93a4.105,4.105,0,0,0-2.813,1.114A21.811,21.811,0,0,0,51.2,19.71h1.387a4.125,4.125,0,0,0,4.12-4.12V13.5a.881.881,0,0,0-.881-.881H53.408A4.127,4.127,0,0,0,49.421,15.7a22.392,22.392,0,0,0-1.528-2.329q-.623-.832-1.324-1.6h.47a4.125,4.125,0,0,0,4.12-4.12V5.559a.881.881,0,0,0-.881-.881H47.861A4.125,4.125,0,0,0,43.74,8.8v.36a22.292,22.292,0,0,0-3.592-2.272,4.127,4.127,0,0,0,2.835-3.914V.882A.881.881,0,0,0,42.1,0H39.686a4.125,4.125,0,0,0-4.12,4.12v2.09a.88.88,0,0,0,.084.374.88.88,0,0,0,.59.612,20.449,20.449,0,0,1,10.243,7.229A20.28,20.28,0,0,1,36.944,45.71h-.926a6.76,6.76,0,0,0-5.876,3.427,6.76,6.76,0,0,0-5.876-3.427H23.224a20.281,20.281,0,0,1,.7-38.513.88.88,0,0,0,.59-.612.88.88,0,0,0,.084-.374V4.121A4.125,4.125,0,0,0,20.482,0H18.065a.882.882,0,0,0-.881.881v2.09a4.127,4.127,0,0,0,2.836,3.914,22.316,22.316,0,0,0-3.592,2.272V8.8a4.125,4.125,0,0,0-4.12-4.12H9.89a.881.881,0,0,0-.881.881v2.09a4.125,4.125,0,0,0,4.12,4.12h.47q-.7.768-1.324,1.6A22.314,22.314,0,0,0,10.748,15.7,4.128,4.128,0,0,0,6.76,12.618H4.343a.881.881,0,0,0-.881.881v2.09a4.125,4.125,0,0,0,4.12,4.12H8.969a21.847,21.847,0,0,0-.919,4.136,4.1,4.1,0,0,0-2.813-1.114H2.82a.882.882,0,0,0-.881.881V25.7a4.125,4.125,0,0,0,4.12,4.12H8.126a22.019,22.019,0,0,0,.664,3,4.085,4.085,0,0,0-2.682.054l-2.269.833a.881.881,0,0,0-.524,1.131l.721,1.962a4.12,4.12,0,0,0,5.288,2.448l2.065-.758a22.024,22.024,0,0,0,7.6,7.214H6.11A1.411,1.411,0,0,0,4.7,47.12v.353H1.463A1.465,1.465,0,0,0,0,48.937v9.6a1.628,1.628,0,0,0,1.626,1.625H58.542a1.628,1.628,0,0,0,1.626-1.625v-9.6A1.465,1.465,0,0,0,58.7,47.473ZM53.453,34.535l1.441.529L54.478,36.2a2.361,2.361,0,0,1-3.026,1.4l-1.441-.529.417-1.135a2.358,2.358,0,0,1,3.026-1.4Zm-2.4-17.8a2.36,2.36,0,0,1,2.358-2.358h1.535v1.209a2.36,2.36,0,0,1-2.358,2.358H51.05ZM45.5,8.8A2.36,2.36,0,0,1,47.861,6.44H49.4V7.649a2.36,2.36,0,0,1-2.358,2.358H45.5ZM37.328,4.121a2.36,2.36,0,0,1,2.358-2.358h1.536V2.972A2.36,2.36,0,0,1,38.864,5.33H37.328ZM52.573,26.853A2.36,2.36,0,0,1,54.931,24.5h1.535V25.7a2.36,2.36,0,0,1-2.358,2.358H52.573ZM18.947,2.972V1.763h1.536A2.36,2.36,0,0,1,22.84,4.121V5.33H21.3A2.36,2.36,0,0,1,18.947,2.972ZM10.771,7.649V6.44h1.536A2.36,2.36,0,0,1,14.665,8.8v1.21H13.129A2.36,2.36,0,0,1,10.771,7.649Zm-5.547,7.94V14.38H6.76a2.36,2.36,0,0,1,2.358,2.358v1.209H7.582a2.36,2.36,0,0,1-2.358-2.358ZM8.715,37.6A2.36,2.36,0,0,1,5.69,36.2l-.417-1.135,1.441-.529a2.357,2.357,0,0,1,3.026,1.4l.417,1.135ZM7.595,28.062H6.059A2.36,2.36,0,0,1,3.7,25.7V24.5H5.237a2.36,2.36,0,0,1,2.358,2.358ZM36.018,47.473h17.8v1.763h-17.8A6.735,6.735,0,0,0,31.163,51.3,5,5,0,0,1,36.018,47.473ZM53.822,51v1.528h-17.8A6.736,6.736,0,0,0,31.253,54.5,5,5,0,0,1,36.018,51ZM6.463,47.473h17.8A5,5,0,0,1,29.122,51.3a6.735,6.735,0,0,0-4.855-2.065H22.739a.881.881,0,1,0,0,1.763h1.528a5,5,0,0,1,4.766,3.5,6.736,6.736,0,0,0-4.766-1.972H6.463V51h12.75a.881.881,0,1,0,0-1.763H6.463Zm-4.7,1.763H4.7V52.88A1.411,1.411,0,0,0,6.11,54.289H24.267A5,5,0,0,1,29.182,58.4H1.763ZM58.4,58.4H31.1a5,5,0,0,1,4.915-4.113H54.175a1.411,1.411,0,0,0,1.409-1.409V49.236h2.82Zm0,0" transform="translate(0 0)"/>
      <path id="Trazado_1052283" data-name="Trazado 1052283" d="M111,96.071a17.1,17.1,0,1,0,17.1-17.1,17.118,17.118,0,0,0-17.1,17.1Zm1.789.881h5.275a24.163,24.163,0,0,0,2.785,11.02,13.839,13.839,0,0,0,1.685,2.39,15.367,15.367,0,0,1-9.746-13.41ZM128.98,80.826c1.793.363,3.484,1.826,4.833,4.212a22.358,22.358,0,0,1,2.556,10.152H128.98Zm7.389,16.127a22.356,22.356,0,0,1-2.556,10.152c-1.349,2.387-3.039,3.85-4.833,4.213V96.953Zm-9.151,14.365c-1.793-.363-3.484-1.826-4.833-4.213a22.358,22.358,0,0,1-2.556-10.152h7.389Zm6.445-.955a13.863,13.863,0,0,0,1.685-2.39,24.163,24.163,0,0,0,2.785-11.02h5.276a15.368,15.368,0,0,1-9.746,13.41Zm9.745-15.172h-5.275a24.163,24.163,0,0,0-2.785-11.019,13.838,13.838,0,0,0-1.685-2.39,15.366,15.366,0,0,1,9.746,13.409ZM122.559,81.772a16.764,16.764,0,0,0-3.334,6.219.882.882,0,0,0,1.683.525c1.345-4.315,3.708-7.159,6.309-7.689V95.19h-7.389a26.944,26.944,0,0,1,.3-3.277.881.881,0,0,0-1.742-.269,28.865,28.865,0,0,0-.322,3.547h-5.276a15.366,15.366,0,0,1,9.77-13.418Zm0,0" transform="translate(-97.956 -69.692)"/>
    </g>
  </g>
</svg>
