<svg xmlns="http://www.w3.org/2000/svg" xmlns:xlink="http://www.w3.org/1999/xlink" width="113" height="113" viewBox="0 0 113 113">
  <defs>
    <filter id="Trazado_982547" x="0" y="0" width="113" height="113" filterUnits="userSpaceOnUse">
      <feOffset dy="3" input="SourceAlpha"/>
      <feGaussianBlur stdDeviation="3" result="blur"/>
      <feFlood flood-opacity="0.161"/>
      <feComposite operator="in" in2="blur"/>
      <feComposite in="SourceGraphic"/>
    </filter>
  </defs>
  <g id="Grupo_1208199" data-name="Grupo 1208199" transform="translate(-3762.151 -1671.039)">
    <g id="Grupo_1207795" data-name="Grupo 1207795" transform="translate(3771.151 1677.039)">
      <g id="Grupo_1201923" data-name="Grupo 1201923" transform="translate(0 0)">
        <g id="Grupo_1176928" data-name="Grupo 1176928" transform="translate(0 0)">
          <g id="Grupo_1172322" data-name="Grupo 1172322">
            <g id="Grupo_1164700" data-name="Grupo 1164700">
              <g id="Grupo_1160931" data-name="Grupo 1160931">
                <g id="Grupo_1160749" data-name="Grupo 1160749">
                  <g id="Grupo_1158891" data-name="Grupo 1158891">
                    <g id="Grupo_1157406" data-name="Grupo 1157406">
                      <g id="Grupo_1155793" data-name="Grupo 1155793">
                        <g id="Grupo_1154704" data-name="Grupo 1154704">
                          <g id="Grupo_1150790" data-name="Grupo 1150790">
                            <g id="Grupo_1154214" data-name="Grupo 1154214" transform="translate(0)">
                              <g id="Grupo_1152583" data-name="Grupo 1152583">
                                <g id="Grupo_1146973" data-name="Grupo 1146973">
                                  <g id="Grupo_1146954" data-name="Grupo 1146954">
                                    <g transform="matrix(1, 0, 0, 1, -9, -6)" filter="url(#Trazado_982547)">
                                      <g id="Trazado_982547-2" data-name="Trazado 982547" transform="translate(9 6)" fill="#ebe9f0">
                                        <path d="M 47.50000762939453 93.49986267089844 C 41.28937911987305 93.49986267089844 35.26534271240234 92.28383636474609 29.59519386291504 89.88558197021484 C 24.11772727966309 87.56880950927734 19.19814109802246 84.25183868408203 14.97310066223145 80.02679443359375 C 10.74804782867432 75.8017578125 7.431074142456055 70.88218688964844 5.114300727844238 65.40471649169922 C 2.716034412384033 59.73458480834961 1.500007629394531 53.71054458618164 1.500007629394531 47.49993133544922 C 1.500007629394531 41.2893180847168 2.716034412384033 35.26527786254883 5.114300727844238 29.59514427185059 C 7.431074142456055 24.11767768859863 10.74804782867432 19.19810485839844 14.97310066223145 14.97306442260742 C 19.19814109802246 10.74802494049072 24.11772727966309 7.431051254272461 29.59519386291504 5.114277839660645 C 35.26534271240234 2.71602463722229 41.28937911987305 1.499997973442078 47.50000762939453 1.499997973442078 C 53.71063613891602 1.499997973442078 59.73467254638672 2.71602463722229 65.40482330322266 5.114277839660645 C 70.88228607177734 7.431051254272461 75.80187225341797 10.74802494049072 80.02691650390625 14.97306442260742 C 84.25196838378906 19.19810485839844 87.56893920898438 24.11767768859863 89.88571166992188 29.59514427185059 C 92.28398132324219 35.26527786254883 93.50000762939453 41.2893180847168 93.50000762939453 47.49993133544922 C 93.50000762939453 53.71054458618164 92.28398132324219 59.73458480834961 89.88571166992188 65.40471649169922 C 87.56893920898438 70.88218688964844 84.25196838378906 75.8017578125 80.02691650390625 80.02679443359375 C 75.80187225341797 84.25183868408203 70.88228607177734 87.56880950927734 65.40482330322266 89.88558197021484 C 59.73467254638672 92.28383636474609 53.71063613891602 93.49986267089844 47.50000762939453 93.49986267089844 Z" stroke="none"/>
                                        <path d="M 47.50000762939453 2.999992370605469 C 41.4912223815918 2.999992370605469 35.66377639770508 4.1761474609375 30.17951202392578 6.495796203613281 C 24.88085174560547 8.736930847167969 20.12152862548828 11.94596099853516 16.03376007080078 16.03372955322266 C 11.94597625732422 20.12148284912109 8.736961364746094 24.88080596923828 6.495803833007812 30.17946624755859 C 4.176162719726562 35.66371536254883 3.000007629394531 41.49116134643555 3.000007629394531 47.49993133544922 C 3.000007629394531 53.50870132446289 4.176162719726562 59.33614730834961 6.495803833007812 64.82038879394531 C 8.736961364746094 70.11905670166016 11.94597625732422 74.87836456298828 16.03376007080078 78.96613311767578 C 20.12152862548828 83.05390167236328 24.88085174560547 86.26291656494141 30.17951202392578 88.50406646728516 C 35.66377639770508 90.82369995117188 41.4912223815918 91.99985504150391 47.50000762939453 91.99985504150391 C 53.50879287719727 91.99985504150391 59.33623886108398 90.82369995117188 64.82049560546875 88.50406646728516 C 70.11916351318359 86.26291656494141 74.87848663330078 83.05390167236328 78.96625518798828 78.96613311767578 C 83.05403900146484 74.87836456298828 86.26305389404297 70.11905670166016 88.50421142578125 64.82038879394531 C 90.8238525390625 59.33614730834961 92.00000762939453 53.50870132446289 92.00000762939453 47.49993133544922 C 92.00000762939453 41.49116134643555 90.8238525390625 35.66371536254883 88.50421142578125 30.17946624755859 C 86.26305389404297 24.88080596923828 83.05403900146484 20.12148284912109 78.96625518798828 16.03372955322266 C 74.87848663330078 11.94596099853516 70.11916351318359 8.736930847167969 64.82049560546875 6.495796203613281 C 59.33623886108398 4.1761474609375 53.50879287719727 2.999992370605469 47.50000762939453 2.999992370605469 M 47.50000762939453 -7.62939453125e-06 C 73.73352813720703 -7.62939453125e-06 95.00000762939453 21.26644134521484 95.00000762939453 47.49993133544922 C 95.00000762939453 73.73342132568359 73.73352813720703 94.99985504150391 47.50000762939453 94.99985504150391 C 21.26648712158203 94.99985504150391 7.62939453125e-06 73.73342132568359 7.62939453125e-06 47.49993133544922 C 7.62939453125e-06 21.26644134521484 21.26648712158203 -7.62939453125e-06 47.50000762939453 -7.62939453125e-06 Z" stroke="none" fill="#453179"/>
                                      </g>
                                    </g>
                                  </g>
                                </g>
                              </g>
                            </g>
                          </g>
                        </g>
                      </g>
                    </g>
                  </g>
                </g>
              </g>
            </g>
          </g>
        </g>
      </g>
    </g>
    <g id="campaign_6705283" transform="translate(3783.235 1701.095)">
      <g id="Grupo_1208083" data-name="Grupo 1208083" transform="translate(7.5 -4.436)">
        <path id="Trazado_1052284" data-name="Trazado 1052284" d="M78.575,431.948l-2.317,7.491a1.144,1.144,0,0,1-1.092.806h-6.2L66.826,439.1h-28.4l-2.859,1.144h-6.2a1.143,1.143,0,0,1-1.092-.806l-2.317-7.491Z" transform="translate(-23.854 -383.192)" fill="#c59191"/>
        <g id="Grupo_1208079" data-name="Grupo 1208079" transform="translate(2.687 0)">
          <g id="Grupo_1208061" data-name="Grupo 1208061">
            <path id="Trazado_1052285" data-name="Trazado 1052285" d="M46.779,89.664V82.945l-1.143-.96a2.739,2.739,0,0,0-2.06-2.654l-.929-.238-.45.143-6.045-.015-.41-.124-.684.175-.112.287A2.64,2.64,0,0,0,33,82.213v7.222h1.76l.3.229h3.273l.2-.13,1.288.015.226.114h6.733Z" transform="translate(-32.771 -70.686)" fill="#c59191"/>
            <path id="Trazado_1052286" data-name="Trazado 1052286" d="M33.287,80.66V91.052H31v-7.68a2.74,2.74,0,0,1,2.061-2.654Z" transform="translate(-31 -72.073)" fill="#b98080"/>
            <path id="Trazado_1052287" data-name="Trazado 1052287" d="M63.884,72.27l-2.907,3.9a.686.686,0,0,1-1.1,0l-2.9-3.892,3.461-.885Z" transform="translate(-54.009 -63.863)" fill="#f2fbff"/>
            <g id="Grupo_1208059" data-name="Grupo 1208059" transform="translate(2.795)">
              <path id="Trazado_1052288" data-name="Trazado 1052288" d="M59.079,13.057a3.478,3.478,0,0,1-2.558-1.148,3.438,3.438,0,0,1-1.071-2.8,3.176,3.176,0,0,1,1.393-2.516l.249-.476a3.876,3.876,0,0,1,5.667,4.535,1.95,1.95,0,0,0-.339.369,3.372,3.372,0,0,1-3.113,2.023C59.226,13.049,59.161,13.057,59.079,13.057Z" transform="translate(-55.442 -5.57)" fill="#feccbc"/>
            </g>
            <g id="Grupo_1208060" data-name="Grupo 1208060" transform="translate(2.559 0.547)">
              <path id="Trazado_1052289" data-name="Trazado 1052289" d="M60.53,14.931c-.105.007-.21.01-.314.01a4.953,4.953,0,0,1-4.948-4.588,3.873,3.873,0,0,0,1.99,7.2c.082,0,.164,0,.247-.007a3.878,3.878,0,0,0,3.431-2.657C60.8,14.909,60.666,14.922,60.53,14.931Z" transform="translate(-53.38 -10.353)" fill="#f9bcac"/>
            </g>
          </g>
          <g id="Grupo_1208064" data-name="Grupo 1208064" transform="translate(12.864 0.008)">
            <path id="Trazado_1052290" data-name="Trazado 1052290" d="M159.278,89.663V82.3l-1.143-.313a2.739,2.739,0,0,0-2.06-2.654l-.929-.238-.45.143-6.045-.015-.41-.124-.684.175-.112.287a2.641,2.641,0,0,0-1.946,2.654v7.222h1.76l.3.229h3.273l.2-.13,1.288.015.226.114h6.733Z" transform="translate(-145.27 -70.693)" fill="#c1e9af"/>
            <path id="Trazado_1052291" data-name="Trazado 1052291" d="M145.787,80.66V91.052H143.5v-7.68a2.74,2.74,0,0,1,2.061-2.654Z" transform="translate(-143.5 -72.081)" fill="#ade194"/>
            <path id="Trazado_1052292" data-name="Trazado 1052292" d="M176.384,72.27l-2.907,3.9a.686.686,0,0,1-1.1,0l-2.9-3.892,3.461-.885Z" transform="translate(-166.509 -63.871)" fill="#f2fbff"/>
            <g id="Grupo_1208062" data-name="Grupo 1208062" transform="translate(2.802)">
              <path id="Trazado_1052293" data-name="Trazado 1052293" d="M171.636,13.11a3.471,3.471,0,0,1-2.553-1.146,3.431,3.431,0,0,1-1.069-2.794,3.169,3.169,0,0,1,1.391-2.511l.249-.475a3.868,3.868,0,0,1,5.656,4.526,1.947,1.947,0,0,0-.338.369,3.365,3.365,0,0,1-3.107,2.018C171.783,13.1,171.717,13.11,171.636,13.11Z" transform="translate(-168.006 -5.638)" fill="#c59191"/>
            </g>
            <g id="Grupo_1208063" data-name="Grupo 1208063" transform="translate(2.567 0.546)">
              <path id="Trazado_1052294" data-name="Trazado 1052294" d="M173.083,14.98c-.1.007-.21.01-.314.01a4.944,4.944,0,0,1-4.939-4.579,3.866,3.866,0,0,0,1.986,7.185c.082,0,.164,0,.246-.007a3.87,3.87,0,0,0,3.424-2.652C173.354,14.958,173.22,14.971,173.083,14.98Z" transform="translate(-165.948 -10.411)" fill="#b98080"/>
            </g>
          </g>
          <g id="Grupo_1208067" data-name="Grupo 1208067" transform="translate(25.729 0.016)">
            <path id="Trazado_1052295" data-name="Trazado 1052295" d="M271.779,89.664V82.4l-1.144-.416a2.739,2.739,0,0,0-2.06-2.654l-.929-.238-.45.143-6.045-.015-.41-.124-.684.175-.112.287A2.64,2.64,0,0,0,258,82.213v7.222h1.76l.3.229h3.273l.2-.13,1.288.015.226.114h6.733Z" transform="translate(-257.771 -70.701)" fill="#bae6ef"/>
            <path id="Trazado_1052296" data-name="Trazado 1052296" d="M258.287,80.66V91.052H256v-7.68a2.74,2.74,0,0,1,2.061-2.654Z" transform="translate(-256 -72.089)" fill="#94d8e6"/>
            <path id="Trazado_1052297" data-name="Trazado 1052297" d="M288.884,72.27l-2.907,3.9a.686.686,0,0,1-1.1,0l-2.9-3.892,3.461-.885Z" transform="translate(-279.009 -63.879)" fill="#f2fbff"/>
            <g id="Grupo_1208065" data-name="Grupo 1208065" transform="translate(2.81)">
              <path id="Trazado_1052298" data-name="Trazado 1052298" d="M284.193,13.163a3.464,3.464,0,0,1-2.547-1.144,3.424,3.424,0,0,1-1.067-2.788,3.163,3.163,0,0,1,1.388-2.506l.248-.474a3.86,3.86,0,0,1,5.644,4.517,1.942,1.942,0,0,0-.338.368,3.359,3.359,0,0,1-3.1,2.014C284.339,13.155,284.274,13.163,284.193,13.163Z" transform="translate(-280.57 -5.706)" fill="#c59191"/>
            </g>
            <g id="Grupo_1208066" data-name="Grupo 1208066" transform="translate(2.574 0.545)">
              <path id="Trazado_1052299" data-name="Trazado 1052299" d="M285.635,15.03c-.1.007-.209.01-.313.01a4.934,4.934,0,0,1-4.929-4.57,3.858,3.858,0,0,0,1.982,7.17c.082,0,.163,0,.246-.007a3.863,3.863,0,0,0,3.417-2.647C285.905,15.007,285.771,15.021,285.635,15.03Z" transform="translate(-278.514 -10.47)" fill="#b98080"/>
            </g>
          </g>
          <g id="Grupo_1208070" data-name="Grupo 1208070" transform="translate(38.593 0.023)">
            <path id="Trazado_1052300" data-name="Trazado 1052300" d="M383.135,89.664V81.985a2.739,2.739,0,0,0-2.06-2.654l-.929-.238-.45.143-6.045-.015-.41-.124-.684.175-.112.287a2.641,2.641,0,0,0-1.946,2.654v7.222h1.76l.3.229h3.273l.2-.13,1.288.015.226.114Z" transform="translate(-370.27 -70.709)" fill="#909ba6"/>
            <path id="Trazado_1052301" data-name="Trazado 1052301" d="M370.787,80.66V91.052H368.5v-7.68a2.74,2.74,0,0,1,2.061-2.654Z" transform="translate(-368.5 -72.097)" fill="#7e8b96"/>
            <path id="Trazado_1052302" data-name="Trazado 1052302" d="M401.384,72.27l-2.907,3.9a.686.686,0,0,1-1.1,0l-2.9-3.892,3.461-.885Z" transform="translate(-391.509 -63.887)" fill="#f2fbff"/>
            <g id="Grupo_1208068" data-name="Grupo 1208068" transform="translate(2.817)">
              <path id="Trazado_1052303" data-name="Trazado 1052303" d="M396.749,13.215a3.457,3.457,0,0,1-2.542-1.141,3.417,3.417,0,0,1-1.064-2.783,3.157,3.157,0,0,1,1.385-2.5l.248-.473a3.853,3.853,0,0,1,5.633,4.508,1.938,1.938,0,0,0-.337.367,3.352,3.352,0,0,1-3.095,2.01C396.9,13.207,396.831,13.215,396.749,13.215Z" transform="translate(-393.134 -5.773)" fill="#feccbc"/>
            </g>
            <g id="Grupo_1208069" data-name="Grupo 1208069" transform="translate(2.582 0.544)">
              <path id="Trazado_1052304" data-name="Trazado 1052304" d="M398.189,15.078c-.1.007-.209.01-.312.01a4.924,4.924,0,0,1-4.919-4.561,3.85,3.85,0,0,0,1.978,7.156c.082,0,.163,0,.245-.007a3.855,3.855,0,0,0,3.411-2.641C398.459,15.055,398.325,15.069,398.189,15.078Z" transform="translate(-391.082 -10.527)" fill="#f9bcac"/>
            </g>
          </g>
          <g id="Grupo_1208071" data-name="Grupo 1208071" transform="translate(31.932 21.171)">
            <path id="Trazado_1052305" data-name="Trazado 1052305" d="M324.258,210.655v-6.066l-1.143-.494a4.576,4.576,0,0,0-3.03-4.307l-1.427.275-1.974-.555-6.432.045v11.1h5.56l.284-.114,1.048-.031.383.145h6.733Z" transform="translate(-310.25 -198.502)" fill="#ffe177"/>
            <path id="Trazado_1052306" data-name="Trazado 1052306" d="M337.857,192l-2.866,3.842a.686.686,0,0,1-1.1,0l-3.573-4.768,1.757-.359,2.381,1.006,1.89.013A4.532,4.532,0,0,1,337.857,192Z" transform="translate(-328.023 -190.714)" fill="#f2fbff"/>
          </g>
          <g id="Grupo_1208072" data-name="Grupo 1208072" transform="translate(5.517 21.171)">
            <path id="Trazado_1052307" data-name="Trazado 1052307" d="M91.25,210.426v-6.331a3.984,3.984,0,0,1,1.814-3.581,1.741,1.741,0,0,0,.244-.38,4.554,4.554,0,0,1,.743-.345l1.428.275,1.974-.555,6.432.045v11.1h-5.56l-.284-.114-1.048-.031-.383.145h-3.3l-.234-.229H91.25Z" transform="translate(-89.878 -198.502)" fill="#a2aee6"/>
            <path id="Trazado_1052308" data-name="Trazado 1052308" d="M115.75,192l2.866,3.842a.686.686,0,0,0,1.1,0l3.573-4.768-1.757-.359-2.381,1.006-1.89.013A4.532,4.532,0,0,0,115.75,192Z" transform="translate(-111.576 -190.714)" fill="#f2fbff"/>
            <path id="Trazado_1052309" data-name="Trazado 1052309" d="M82.68,204.98V215.5H79.25V209.52l1.144-.579A4.571,4.571,0,0,1,82.68,204.98Z" transform="translate(-79.25 -203.349)" fill="#8795de"/>
          </g>
          <g id="Grupo_1208075" data-name="Grupo 1208075" transform="translate(34.491 14.651)">
            <g id="Grupo_1208073" data-name="Grupo 1208073" transform="translate(0.236)">
              <path id="Trazado_1052310" data-name="Trazado 1052310" d="M338.328,141.181a3.478,3.478,0,0,1-2.558-1.148,3.438,3.438,0,0,1-1.071-2.8,3.176,3.176,0,0,1,1.393-2.516l.249-.476a3.876,3.876,0,0,1,5.667,4.535,1.951,1.951,0,0,0-.339.369,3.372,3.372,0,0,1-3.113,2.023C338.475,141.173,338.41,141.181,338.328,141.181Z" transform="translate(-334.691 -133.694)" fill="#feccbc"/>
            </g>
            <g id="Grupo_1208074" data-name="Grupo 1208074" transform="translate(0 0.547)">
              <path id="Trazado_1052311" data-name="Trazado 1052311" d="M339.779,143.054c-.105.007-.21.01-.314.01a4.953,4.953,0,0,1-4.948-4.588,3.873,3.873,0,0,0,1.99,7.2c.082,0,.164,0,.247-.007a3.878,3.878,0,0,0,3.431-2.657C340.05,143.032,339.915,143.045,339.779,143.054Z" transform="translate(-332.629 -138.476)" fill="#f9bcac"/>
            </g>
          </g>
          <g id="Grupo_1208078" data-name="Grupo 1208078" transform="translate(9.22 14.651)">
            <g id="Grupo_1208076" data-name="Grupo 1208076" transform="translate(0.236)">
              <path id="Trazado_1052312" data-name="Trazado 1052312" d="M117.328,141.181a3.478,3.478,0,0,1-2.558-1.148,3.438,3.438,0,0,1-1.071-2.8,3.176,3.176,0,0,1,1.393-2.516l.249-.476a3.876,3.876,0,0,1,5.667,4.535,1.951,1.951,0,0,0-.339.369,3.372,3.372,0,0,1-3.113,2.023C117.475,141.173,117.41,141.181,117.328,141.181Z" transform="translate(-113.691 -133.694)" fill="#feccbc"/>
            </g>
            <g id="Grupo_1208077" data-name="Grupo 1208077" transform="translate(0 0.547)">
              <path id="Trazado_1052313" data-name="Trazado 1052313" d="M118.779,143.054c-.105.007-.21.01-.314.01a4.953,4.953,0,0,1-4.949-4.588,3.873,3.873,0,0,0,1.99,7.2c.082,0,.164,0,.247-.007a3.878,3.878,0,0,0,3.431-2.657C119.05,143.032,118.915,143.045,118.779,143.054Z" transform="translate(-111.629 -138.476)" fill="#f9bcac"/>
            </g>
          </g>
        </g>
        <path id="Trazado_1052314" data-name="Trazado 1052314" d="M64.561,368.157h-52.6l-.3-.19-.614-.039A1.542,1.542,0,0,1,9.5,366.386v-6.094l.915-.925.4-1.542H64.561a3.423,3.423,0,0,1,.4,1.542l1.144.925v6.323A1.542,1.542,0,0,1,64.561,368.157Z" transform="translate(-9.271 -317.544)" fill="#b98080"/>
        <path id="Trazado_1052315" data-name="Trazado 1052315" d="M9.808,372.953l.4.823-.02,6.323H9.044A1.542,1.542,0,0,1,7.5,378.558v-6.324l1.144-.925Z" transform="translate(-7.501 -329.487)" fill="#ae6c6c"/>
        <path id="Trazado_1052316" data-name="Trazado 1052316" d="M64.561,293.749H11.977l-.36-.229h-.574A1.542,1.542,0,0,1,9.5,291.978V282.72a1.542,1.542,0,0,1,1.542-1.542h.537l.4-.229H64.561a1.542,1.542,0,0,1,1.542,1.542v9.716A1.542,1.542,0,0,1,64.561,293.749Z" transform="translate(-9.271 -249.459)" fill="#c59191"/>
        <g id="Grupo_1208080" data-name="Grupo 1208080" transform="translate(11.716 15.715)">
          <path id="Trazado_1052317" data-name="Trazado 1052317" d="M201.084,223.659v5.795a7.363,7.363,0,0,1-2.544,5.567l-1.9,1.647c-2.388,2.068-5.571,1.793-7.959-.274l-1.887-1.547a6.915,6.915,0,0,1-2.45-5.392l-.066-5.795Z" transform="translate(-175.777 -214.435)" fill="#feccbc"/>
          <path id="Trazado_1052318" data-name="Trazado 1052318" d="M190.767,238.057a6.358,6.358,0,0,1-5.591-1.388l-1.9-1.647a7.362,7.362,0,0,1-2.543-5.567v-5.8h2.859v5.8a7.362,7.362,0,0,0,2.543,5.567l1.9,1.647A6.336,6.336,0,0,0,190.767,238.057Z" transform="translate(-172.637 -214.436)" fill="#f9bcac"/>
          <path id="Trazado_1052319" data-name="Trazado 1052319" d="M194.246,149.428l-.922,3.979c-.795,3.833-9.645,4.754-14.358,2.79a1.309,1.309,0,0,0-.225-.18,3.65,3.65,0,0,1-2.324-2.627l-.845-4.121a2.861,2.861,0,0,1,.74-2.463,12.849,12.849,0,0,1,6.173-3.619l.2-.053a14.557,14.557,0,0,1,2.046-.14c4.986,0,7.692,2.334,8.933,3.87A3,3,0,0,1,194.246,149.428Z" transform="translate(-168.018 -142.995)" fill="#7e8b96"/>
          <path id="Trazado_1052320" data-name="Trazado 1052320" d="M175.5,148.122a5.573,5.573,0,0,0-.585,3.616l.922,5.539s0,.006,0,.008a4.284,4.284,0,0,1-2.861-2.789l-.921-3.973a3,3,0,0,1,.585-2.574,10.616,10.616,0,0,1,6.916-3.729A8.422,8.422,0,0,0,175.5,148.122Z" transform="translate(-164.89 -144.08)" fill="#6a7682"/>
          <path id="Trazado_1052321" data-name="Trazado 1052321" d="M143.359,366.956v9.052h-5.245l-.321-.114-1.155-.019-.239.134H116.921l-.335-.142-1.106.027-.274.114H109.96v-9.052a6.721,6.721,0,0,1,5.049-6.509l4-1.027h15.3l4,1.027c.184.047.366.1.543.165A6.719,6.719,0,0,1,143.359,366.956Z" transform="translate(-109.96 -334.672)" fill="#94d8e6"/>
          <path id="Trazado_1052322" data-name="Trazado 1052322" d="M137.254,358.117l-4-1.027H119.325l-4,1.027a6.721,6.721,0,0,0-5.049,6.509v9.321h2.859v-9.321a3.858,3.858,0,0,1,2.9-3.739l2.736-.7a1.152,1.152,0,0,1,.7.041,20.53,20.53,0,0,0,7.473,1.542C130.329,361.975,135.61,360.564,137.254,358.117Z" transform="translate(-110.239 -332.608)" fill="#75c5d8"/>
          <path id="Trazado_1052323" data-name="Trazado 1052323" d="M202.541,325.062a17.079,17.079,0,0,1-11.587,0l-1.857,3.929h0c5.767,2.424,9.534,2.424,15.3,0h0Z" transform="translate(-180.048 -304.243)" fill="#94d8e6"/>
        </g>
        <g id="Grupo_1208081" data-name="Grupo 1208081" transform="translate(4.231 22.404)">
          <path id="Trazado_1052324" data-name="Trazado 1052324" d="M57.859,285.487H55.114v2.99l-.114.888V292h2.973v-2.64l-.114-.768Z" transform="translate(-53.799 -275.882)" fill="#7e8b96"/>
          <path id="Trazado_1052325" data-name="Trazado 1052325" d="M57.973,280.49v3.878a4.742,4.742,0,0,1-2.973,0V280.49Z" transform="translate(-53.799 -271.456)" fill="#6a7682"/>
          <path id="Trazado_1052326" data-name="Trazado 1052326" d="M49.118,212.925h0a2.438,2.438,0,0,0,2.438-2.438v-6.559a2.438,2.438,0,0,0-2.438-2.438h0a2.438,2.438,0,0,0-2.438,2.438v6.559A2.438,2.438,0,0,0,49.118,212.925Z" transform="translate(-46.431 -201.491)" fill="#5d6875"/>
          <path id="Trazado_1052327" data-name="Trazado 1052327" d="M44.957,335.687h4.46a.457.457,0,0,0,.457-.457v-1.6a1.143,1.143,0,0,0-1.144-1.143H45.643a1.143,1.143,0,0,0-1.144,1.143v1.6A.457.457,0,0,0,44.957,335.687Z" transform="translate(-44.5 -317.506)" fill="#6a7682"/>
        </g>
        <g id="Grupo_1208082" data-name="Grupo 1208082" transform="translate(47.227 22.404)">
          <path id="Trazado_1052328" data-name="Trazado 1052328" d="M433.859,285.487h-2.744v2.99l-.114.888V292h2.973v-2.64l-.114-.768Z" transform="translate(-429.799 -275.882)" fill="#7e8b96"/>
          <path id="Trazado_1052329" data-name="Trazado 1052329" d="M433.973,280.49v3.878a4.742,4.742,0,0,1-2.973,0V280.49Z" transform="translate(-429.799 -271.456)" fill="#6a7682"/>
          <path id="Trazado_1052330" data-name="Trazado 1052330" d="M425.118,212.925h0a2.438,2.438,0,0,0,2.438-2.438v-6.559a2.438,2.438,0,0,0-2.438-2.438h0a2.438,2.438,0,0,0-2.438,2.438v6.559A2.438,2.438,0,0,0,425.118,212.925Z" transform="translate(-422.431 -201.491)" fill="#5d6875"/>
          <path id="Trazado_1052331" data-name="Trazado 1052331" d="M420.957,335.687h4.46a.457.457,0,0,0,.457-.457v-1.6a1.143,1.143,0,0,0-1.144-1.143h-3.087a1.143,1.143,0,0,0-1.143,1.143v1.6A.457.457,0,0,0,420.957,335.687Z" transform="translate(-420.5 -317.506)" fill="#6a7682"/>
        </g>
        <path id="Trazado_1052332" data-name="Trazado 1052332" d="M10.206,280.95v12.8H9.043A1.543,1.543,0,0,1,7.5,292.208v-9.715a1.543,1.543,0,0,1,1.543-1.543Z" transform="translate(-7.5 -249.46)" fill="#b98080"/>
      </g>
      <g id="Grupo_1208096" data-name="Grupo 1208096" transform="translate(7.5 -5.728)">
        <g id="Grupo_1208090" data-name="Grupo 1208090" transform="translate(0 0)">
          <line id="Línea_1145" data-name="Línea 1145" y2="2.507" transform="translate(2.687 17.458)" fill="none" stroke="#000" stroke-linecap="round" stroke-linejoin="round" stroke-miterlimit="10" stroke-width="1"/>
          <path id="Trazado_1052333" data-name="Trazado 1052333" d="M43.864,78.531V75.159A2.739,2.739,0,0,0,41.8,72.5l-4.372-1.119L33.06,72.5A2.74,2.74,0,0,0,31,75.159v.865" transform="translate(-28.313 -62.568)" fill="none" stroke="#000" stroke-linecap="round" stroke-linejoin="round" stroke-miterlimit="10" stroke-width="1"/>
          <ellipse id="Elipse_13427" data-name="Elipse 13427" cx="3.649" cy="3.656" rx="3.649" ry="3.656" transform="matrix(0.704, -0.71, 0.71, 0.704, 3.954, 5.185)" fill="none" stroke="#000" stroke-linecap="round" stroke-linejoin="round" stroke-miterlimit="10" stroke-width="1"/>
          <path id="Trazado_1052334" data-name="Trazado 1052334" d="M156.364,79.447V75.161a2.739,2.739,0,0,0-2.06-2.654l-4.372-1.119-4.372,1.119a2.74,2.74,0,0,0-2.06,2.654" transform="translate(-127.948 -62.57)" fill="none" stroke="#000" stroke-linecap="round" stroke-linejoin="round" stroke-miterlimit="10" stroke-width="1"/>
          <ellipse id="Elipse_13428" data-name="Elipse 13428" cx="3.649" cy="3.656" rx="3.649" ry="3.656" transform="matrix(0.704, -0.71, 0.71, 0.704, 16.818, 5.185)" fill="none" stroke="#000" stroke-linecap="round" stroke-linejoin="round" stroke-miterlimit="10" stroke-width="1"/>
          <path id="Trazado_1052335" data-name="Trazado 1052335" d="M268.864,75.16a2.739,2.739,0,0,0-2.06-2.654l-4.372-1.119-4.372,1.119A2.74,2.74,0,0,0,256,75.16" transform="translate(-227.584 -62.569)" fill="none" stroke="#000" stroke-linecap="round" stroke-linejoin="round" stroke-miterlimit="10" stroke-width="1"/>
          <ellipse id="Elipse_13429" data-name="Elipse 13429" cx="3.649" cy="3.656" rx="3.649" ry="3.656" transform="matrix(0.704, -0.71, 0.71, 0.704, 29.683, 5.185)" fill="none" stroke="#000" stroke-linecap="round" stroke-linejoin="round" stroke-miterlimit="10" stroke-width="1"/>
          <path id="Trazado_1052336" data-name="Trazado 1052336" d="M381.364,82.535V75.161a2.739,2.739,0,0,0-2.06-2.654l-4.372-1.119-4.372,1.119a2.74,2.74,0,0,0-2.06,2.654v3.486" transform="translate(-327.22 -62.57)" fill="none" stroke="#000" stroke-linecap="round" stroke-linejoin="round" stroke-miterlimit="10" stroke-width="1"/>
          <ellipse id="Elipse_13430" data-name="Elipse 13430" cx="3.649" cy="3.656" rx="3.649" ry="3.656" transform="matrix(0.704, -0.71, 0.71, 0.704, 42.547, 5.185)" fill="none" stroke="#000" stroke-linecap="round" stroke-linejoin="round" stroke-miterlimit="10" stroke-width="1"/>
          <line id="Línea_1146" data-name="Línea 1146" x2="11.895" transform="translate(44.937 20.298)" fill="none" stroke="#000" stroke-linecap="round" stroke-linejoin="round" stroke-miterlimit="10" stroke-width="1"/>
          <line id="Línea_1147" data-name="Línea 1147" x2="11.873" transform="translate(0 20.298)" fill="none" stroke="#000" stroke-linecap="round" stroke-linejoin="round" stroke-miterlimit="10" stroke-width="1"/>
          <ellipse id="Elipse_13431" data-name="Elipse 13431" cx="3.649" cy="3.656" rx="3.649" ry="3.656" transform="matrix(0.704, -0.71, 0.71, 0.704, 35.886, 19.835)" fill="none" stroke="#000" stroke-linecap="round" stroke-linejoin="round" stroke-miterlimit="10" stroke-width="1"/>
          <g id="Grupo_1208084" data-name="Grupo 1208084" transform="translate(37.895 23.824)">
            <path id="Trazado_1052337" data-name="Trazado 1052337" d="M338.9,202.9l3.142,4.22,3.361-4.5" transform="translate(-338.896 -202.616)" fill="none" stroke="#000" stroke-linecap="round" stroke-linejoin="round" stroke-miterlimit="10" stroke-width="1"/>
            <line id="Línea_1148" data-name="Línea 1148" y2="4.272" transform="translate(3.142 4.504)" fill="none" stroke="#000" stroke-linecap="round" stroke-linejoin="round" stroke-miterlimit="10" stroke-width="1"/>
          </g>
          <ellipse id="Elipse_13432" data-name="Elipse 13432" cx="3.649" cy="3.656" rx="3.649" ry="3.656" transform="matrix(0.704, -0.71, 0.71, 0.704, 10.615, 19.835)" fill="none" stroke="#000" stroke-linecap="round" stroke-linejoin="round" stroke-miterlimit="10" stroke-width="1"/>
          <g id="Grupo_1208085" data-name="Grupo 1208085" transform="translate(12.434 23.853)">
            <path id="Trazado_1052338" data-name="Trazado 1052338" d="M116.234,202.872l3.332,4.475,3.043-4.078" transform="translate(-116.234 -202.872)" fill="none" stroke="#000" stroke-linecap="round" stroke-linejoin="round" stroke-miterlimit="10" stroke-width="1"/>
            <line id="Línea_1149" data-name="Línea 1149" y2="4.387" transform="translate(3.332 4.475)" fill="none" stroke="#000" stroke-linecap="round" stroke-linejoin="round" stroke-miterlimit="10" stroke-width="1"/>
          </g>
          <g id="Grupo_1208086" data-name="Grupo 1208086" transform="translate(5.773 9.83)">
            <path id="Trazado_1052339" data-name="Trazado 1052339" d="M57.984,80.261l3.332,4.475,3.361-4.5" transform="translate(-57.984 -80.232)" fill="none" stroke="#000" stroke-linecap="round" stroke-linejoin="round" stroke-miterlimit="10" stroke-width="1"/>
            <line id="Línea_1150" data-name="Línea 1150" y2="5.759" transform="translate(3.332 4.505)" fill="none" stroke="#000" stroke-linecap="round" stroke-linejoin="round" stroke-miterlimit="10" stroke-width="1"/>
          </g>
          <g id="Grupo_1208087" data-name="Grupo 1208087" transform="translate(18.637 9.83)">
            <path id="Trazado_1052340" data-name="Trazado 1052340" d="M170.484,80.261l3.332,4.475,3.361-4.5" transform="translate(-170.484 -80.232)" fill="none" stroke="#000" stroke-linecap="round" stroke-linejoin="round" stroke-miterlimit="10" stroke-width="1"/>
            <line id="Línea_1151" data-name="Línea 1151" y2="4.158" transform="translate(3.332 4.505)" fill="none" stroke="#000" stroke-linecap="round" stroke-linejoin="round" stroke-miterlimit="10" stroke-width="1"/>
          </g>
          <g id="Grupo_1208088" data-name="Grupo 1208088" transform="translate(31.502 9.83)">
            <path id="Trazado_1052341" data-name="Trazado 1052341" d="M282.984,80.261l3.332,4.475,3.361-4.5" transform="translate(-282.984 -80.232)" fill="none" stroke="#000" stroke-linecap="round" stroke-linejoin="round" stroke-miterlimit="10" stroke-width="1"/>
            <line id="Línea_1152" data-name="Línea 1152" y2="4.158" transform="translate(3.332 4.505)" fill="none" stroke="#000" stroke-linecap="round" stroke-linejoin="round" stroke-miterlimit="10" stroke-width="1"/>
          </g>
          <g id="Grupo_1208089" data-name="Grupo 1208089" transform="translate(44.366 9.83)">
            <path id="Trazado_1052342" data-name="Trazado 1052342" d="M395.484,80.261l3.332,4.475,3.361-4.5" transform="translate(-395.484 -80.232)" fill="none" stroke="#000" stroke-linecap="round" stroke-linejoin="round" stroke-miterlimit="10" stroke-width="1"/>
            <line id="Línea_1153" data-name="Línea 1153" y2="5.759" transform="translate(3.332 4.505)" fill="none" stroke="#000" stroke-linecap="round" stroke-linejoin="round" stroke-miterlimit="10" stroke-width="1"/>
          </g>
          <path id="Trazado_1052343" data-name="Trazado 1052343" d="M349.684,204.2a4.574,4.574,0,0,0-4.542-4.574l-4.892.032" transform="translate(-302.2 -176.141)" fill="none" stroke="#000" stroke-linecap="round" stroke-linejoin="round" stroke-miterlimit="10" stroke-width="1"/>
          <path id="Trazado_1052344" data-name="Trazado 1052344" d="M98.684,199.655l-4.892-.032A4.574,4.574,0,0,0,89.25,204.2" transform="translate(-79.902 -176.141)" fill="none" stroke="#000" stroke-linecap="round" stroke-linejoin="round" stroke-miterlimit="10" stroke-width="1"/>
        </g>
        <g id="Grupo_1208091" data-name="Grupo 1208091" transform="translate(0 32.782)">
          <path id="Trazado_1052345" data-name="Trazado 1052345" d="M18.943,386.3h-9.9A1.542,1.542,0,0,1,7.5,384.758V378.31" transform="translate(-7.5 -367.177)" fill="none" stroke="#000" stroke-linecap="round" stroke-linejoin="round" stroke-miterlimit="10" stroke-width="1"/>
          <path id="Trazado_1052346" data-name="Trazado 1052346" d="M413.758,378.31v6.448a1.542,1.542,0,0,1-1.542,1.542H402.042" transform="translate(-356.926 -367.177)" fill="none" stroke="#000" stroke-linecap="round" stroke-linejoin="round" stroke-miterlimit="10" stroke-width="1"/>
          <path id="Trazado_1052347" data-name="Trazado 1052347" d="M403.854,280.949h2.8a1.542,1.542,0,0,1,1.542,1.542v9.716a1.542,1.542,0,0,1-1.542,1.542H395.766" transform="translate(-351.368 -280.949)" fill="none" stroke="#000" stroke-linecap="round" stroke-linejoin="round" stroke-miterlimit="10" stroke-width="1"/>
          <line id="Línea_1154" data-name="Línea 1154" x2="9.852" transform="translate(37.26 0)" fill="none" stroke="#000" stroke-linecap="round" stroke-linejoin="round" stroke-miterlimit="10" stroke-width="1"/>
          <line id="Línea_1155" data-name="Línea 1155" x2="9.917" transform="translate(9.674 0)" fill="none" stroke="#000" stroke-linecap="round" stroke-linejoin="round" stroke-miterlimit="10" stroke-width="1"/>
          <path id="Trazado_1052348" data-name="Trazado 1052348" d="M12.188,293.749H9.042A1.542,1.542,0,0,1,7.5,292.207v-9.716a1.542,1.542,0,0,1,1.542-1.542h2.81" transform="translate(-7.5 -280.949)" fill="none" stroke="#000" stroke-linecap="round" stroke-linejoin="round" stroke-miterlimit="10" stroke-width="1"/>
          <line id="Línea_1156" data-name="Línea 1156" x1="3.857" transform="translate(8.691 12.8)" fill="none" stroke="#000" stroke-linecap="round" stroke-linejoin="round" stroke-miterlimit="10" stroke-width="1"/>
          <line id="Línea_1157" data-name="Línea 1157" x2="1.992" y2="6.44" transform="translate(2.686 19.123)" fill="none" stroke="#000" stroke-linecap="round" stroke-linejoin="round" stroke-miterlimit="10" stroke-width="1"/>
          <line id="Línea_1158" data-name="Línea 1158" x1="1.992" y2="6.44" transform="translate(52.155 19.123)" fill="none" stroke="#000" stroke-linecap="round" stroke-linejoin="round" stroke-miterlimit="10" stroke-width="1"/>
        </g>
        <g id="Grupo_1208093" data-name="Grupo 1208093" transform="translate(11.716 17.006)">
          <path id="Trazado_1052349" data-name="Trazado 1052349" d="M183.488,244.065l-.217-.188a7.363,7.363,0,0,1-2.544-5.567v-4.651" transform="translate(-172.635 -223.291)" fill="none" stroke="#000" stroke-linecap="round" stroke-linejoin="round" stroke-miterlimit="10" stroke-width="1"/>
          <path id="Trazado_1052350" data-name="Trazado 1052350" d="M310,233.659v4.651a7.363,7.363,0,0,1-2.544,5.567l-.2.176" transform="translate(-284.688 -223.291)" fill="none" stroke="#000" stroke-linecap="round" stroke-linejoin="round" stroke-miterlimit="10" stroke-width="1"/>
          <path id="Trazado_1052351" data-name="Trazado 1052351" d="M183.018,157.146c-4.465.333-9.451-.916-10.038-3.736l-.92-3.973a3,3,0,0,1,.585-2.574,11.071,11.071,0,0,1,8.962-3.869c4.986,0,7.692,2.334,8.933,3.87a3,3,0,0,1,.576,2.564l-.922,3.98c-.275,1.327-1.516,2.3-3.216,2.935" transform="translate(-164.889 -142.994)" fill="none" stroke="#000" stroke-linecap="round" stroke-linejoin="round" stroke-miterlimit="10" stroke-width="1"/>
          <g id="Grupo_1208092" data-name="Grupo 1208092" transform="translate(0 20.82)">
            <path id="Trazado_1052352" data-name="Trazado 1052352" d="M379.086,378.723a6.719,6.719,0,0,1,2.625,5.329V393.1" transform="translate(-348.311 -372.587)" fill="none" stroke="#000" stroke-linecap="round" stroke-linejoin="round" stroke-miterlimit="10" stroke-width="1"/>
            <line id="Línea_1159" data-name="Línea 1159" x2="2.717" y2="0.698" transform="translate(24.35 3.929)" fill="none" stroke="#000" stroke-linecap="round" stroke-linejoin="round" stroke-miterlimit="10" stroke-width="1"/>
            <path id="Trazado_1052353" data-name="Trazado 1052353" d="M109.958,376.007v-9.051a6.72,6.72,0,0,1,5.049-6.509l4-1.027" transform="translate(-109.958 -355.491)" fill="none" stroke="#000" stroke-linecap="round" stroke-linejoin="round" stroke-miterlimit="10" stroke-width="1"/>
            <path id="Trazado_1052354" data-name="Trazado 1052354" d="M202.541,325.062a17.079,17.079,0,0,1-11.587,0l-1.857,3.929h0c5.767,2.424,9.534,2.424,15.3,0h0Z" transform="translate(-180.047 -325.062)" fill="none" stroke="#000" stroke-linecap="round" stroke-linejoin="round" stroke-miterlimit="10" stroke-width="1"/>
          </g>
          <line id="Línea_1160" data-name="Línea 1160" y2="6.648" transform="translate(27.297 34.688)" fill="none" stroke="#000" stroke-linecap="round" stroke-linejoin="round" stroke-miterlimit="10" stroke-width="1"/>
          <line id="Línea_1161" data-name="Línea 1161" y2="6.648" transform="translate(6.103 34.688)" fill="none" stroke="#000" stroke-linecap="round" stroke-linejoin="round" stroke-miterlimit="10" stroke-width="1"/>
        </g>
        <g id="Grupo_1208094" data-name="Grupo 1208094" transform="translate(47.227 23.696)">
          <line id="Línea_1162" data-name="Línea 1162" y1="3.7" transform="translate(1.201 11.164)" fill="none" stroke="#000" stroke-linecap="round" stroke-linejoin="round" stroke-miterlimit="10" stroke-width="1"/>
          <line id="Línea_1163" data-name="Línea 1163" y2="3.7" transform="translate(4.174 11.164)" fill="none" stroke="#000" stroke-linecap="round" stroke-linejoin="round" stroke-miterlimit="10" stroke-width="1"/>
          <path id="Trazado_1052355" data-name="Trazado 1052355" d="M425.119,212.925h0a2.438,2.438,0,0,1-2.438-2.438v-6.559a2.438,2.438,0,0,1,2.438-2.438h0a2.438,2.438,0,0,1,2.438,2.438v6.559A2.438,2.438,0,0,1,425.119,212.925Z" transform="translate(-422.432 -201.491)" fill="none" stroke="#000" stroke-linecap="round" stroke-linejoin="round" stroke-miterlimit="10" stroke-width="1"/>
          <path id="Trazado_1052356" data-name="Trazado 1052356" d="M425.874,335.687H420.5v-2.058a1.143,1.143,0,0,1,1.143-1.143h3.087a1.143,1.143,0,0,1,1.144,1.143Z" transform="translate(-420.5 -317.506)" fill="none" stroke="#000" stroke-linecap="round" stroke-linejoin="round" stroke-miterlimit="10" stroke-width="1"/>
        </g>
        <g id="Grupo_1208095" data-name="Grupo 1208095" transform="translate(4.231 23.696)">
          <line id="Línea_1164" data-name="Línea 1164" y1="3.773" transform="translate(4.174 11.092)" fill="none" stroke="#000" stroke-linecap="round" stroke-linejoin="round" stroke-miterlimit="10" stroke-width="1"/>
          <line id="Línea_1165" data-name="Línea 1165" y2="3.773" transform="translate(1.201 11.092)" fill="none" stroke="#000" stroke-linecap="round" stroke-linejoin="round" stroke-miterlimit="10" stroke-width="1"/>
          <path id="Trazado_1052357" data-name="Trazado 1052357" d="M49.118,212.925h0a2.438,2.438,0,0,0,2.438-2.438v-6.559a2.438,2.438,0,0,0-2.438-2.438h0a2.438,2.438,0,0,0-2.438,2.438v6.559A2.438,2.438,0,0,0,49.118,212.925Z" transform="translate(-46.431 -201.491)" fill="none" stroke="#000" stroke-linecap="round" stroke-linejoin="round" stroke-miterlimit="10" stroke-width="1"/>
          <path id="Trazado_1052358" data-name="Trazado 1052358" d="M44.5,335.687h5.374v-2.058a1.143,1.143,0,0,0-1.144-1.143H45.643a1.143,1.143,0,0,0-1.144,1.143Z" transform="translate(-44.5 -317.506)" fill="none" stroke="#000" stroke-linecap="round" stroke-linejoin="round" stroke-miterlimit="10" stroke-width="1"/>
        </g>
      </g>
    </g>
  </g>
</svg>
