<svg xmlns="http://www.w3.org/2000/svg" xmlns:xlink="http://www.w3.org/1999/xlink" width="113" height="113" viewBox="0 0 113 113">
  <defs>
    <filter id="Trazado_982547" x="0" y="0" width="113" height="113" filterUnits="userSpaceOnUse">
      <feOffset dy="3" input="SourceAlpha"/>
      <feGaussianBlur stdDeviation="3" result="blur"/>
      <feFlood flood-opacity="0.161"/>
      <feComposite operator="in" in2="blur"/>
      <feComposite in="SourceGraphic"/>
    </filter>
  </defs>
  <g id="Grupo_1208150" data-name="Grupo 1208150" transform="translate(-7195.103 -1717.812)">
    <g id="Grupo_1207909" data-name="Grupo 1207909" transform="translate(7204.104 1723.812)">
      <g id="Grupo_1201923" data-name="Grupo 1201923" transform="translate(0 0)">
        <g id="Grupo_1176928" data-name="Grupo 1176928" transform="translate(0 0)">
          <g id="Grupo_1172322" data-name="Grupo 1172322">
            <g id="Grupo_1164700" data-name="Grupo 1164700">
              <g id="Grupo_1160931" data-name="Grupo 1160931">
                <g id="Grupo_1160749" data-name="Grupo 1160749">
                  <g id="Grupo_1158891" data-name="Grupo 1158891">
                    <g id="Grupo_1157406" data-name="Grupo 1157406">
                      <g id="Grupo_1155793" data-name="Grupo 1155793">
                        <g id="Grupo_1154704" data-name="Grupo 1154704">
                          <g id="Grupo_1150790" data-name="Grupo 1150790">
                            <g id="Grupo_1154214" data-name="Grupo 1154214" transform="translate(0)">
                              <g id="Grupo_1152583" data-name="Grupo 1152583">
                                <g id="Grupo_1146973" data-name="Grupo 1146973">
                                  <g id="Grupo_1146954" data-name="Grupo 1146954">
                                    <g transform="matrix(1, 0, 0, 1, -9, -6)" filter="url(#Trazado_982547)">
                                      <g id="Trazado_982547-2" data-name="Trazado 982547" transform="translate(9 6)" fill="#ebe9f0">
                                        <path d="M 47.50000762939453 93.49986267089844 C 41.28937911987305 93.49986267089844 35.26534271240234 92.28383636474609 29.59519386291504 89.88558197021484 C 24.11772727966309 87.56880950927734 19.19814109802246 84.25183868408203 14.97310066223145 80.02679443359375 C 10.74804782867432 75.8017578125 7.431074142456055 70.88218688964844 5.114300727844238 65.40471649169922 C 2.716034412384033 59.73458480834961 1.500007629394531 53.71054458618164 1.500007629394531 47.49993133544922 C 1.500007629394531 41.2893180847168 2.716034412384033 35.26527786254883 5.114300727844238 29.59514427185059 C 7.431074142456055 24.11767768859863 10.74804782867432 19.19810485839844 14.97310066223145 14.97306442260742 C 19.19814109802246 10.74802494049072 24.11772727966309 7.431051254272461 29.59519386291504 5.114277839660645 C 35.26534271240234 2.71602463722229 41.28937911987305 1.499997973442078 47.50000762939453 1.499997973442078 C 53.71063613891602 1.499997973442078 59.73467254638672 2.71602463722229 65.40482330322266 5.114277839660645 C 70.88228607177734 7.431051254272461 75.80187225341797 10.74802494049072 80.02691650390625 14.97306442260742 C 84.25196838378906 19.19810485839844 87.56893920898438 24.11767768859863 89.88571166992188 29.59514427185059 C 92.28398132324219 35.26527786254883 93.50000762939453 41.2893180847168 93.50000762939453 47.49993133544922 C 93.50000762939453 53.71054458618164 92.28398132324219 59.73458480834961 89.88571166992188 65.40471649169922 C 87.56893920898438 70.88218688964844 84.25196838378906 75.8017578125 80.02691650390625 80.02679443359375 C 75.80187225341797 84.25183868408203 70.88228607177734 87.56880950927734 65.40482330322266 89.88558197021484 C 59.73467254638672 92.28383636474609 53.71063613891602 93.49986267089844 47.50000762939453 93.49986267089844 Z" stroke="none"/>
                                        <path d="M 47.50000762939453 2.999992370605469 C 41.4912223815918 2.999992370605469 35.66377639770508 4.1761474609375 30.17951202392578 6.495796203613281 C 24.88085174560547 8.736930847167969 20.12152862548828 11.94596099853516 16.03376007080078 16.03372955322266 C 11.94597625732422 20.12148284912109 8.736961364746094 24.88080596923828 6.495803833007812 30.17946624755859 C 4.176162719726562 35.66371536254883 3.000007629394531 41.49116134643555 3.000007629394531 47.49993133544922 C 3.000007629394531 53.50870132446289 4.176162719726562 59.33614730834961 6.495803833007812 64.82038879394531 C 8.736961364746094 70.11905670166016 11.94597625732422 74.87836456298828 16.03376007080078 78.96613311767578 C 20.12152862548828 83.05390167236328 24.88085174560547 86.26291656494141 30.17951202392578 88.50406646728516 C 35.66377639770508 90.82369995117188 41.4912223815918 91.99985504150391 47.50000762939453 91.99985504150391 C 53.50879287719727 91.99985504150391 59.33623886108398 90.82369995117188 64.82049560546875 88.50406646728516 C 70.11916351318359 86.26291656494141 74.87848663330078 83.05390167236328 78.96625518798828 78.96613311767578 C 83.05403900146484 74.87836456298828 86.26305389404297 70.11905670166016 88.50421142578125 64.82038879394531 C 90.8238525390625 59.33614730834961 92.00000762939453 53.50870132446289 92.00000762939453 47.49993133544922 C 92.00000762939453 41.49116134643555 90.8238525390625 35.66371536254883 88.50421142578125 30.17946624755859 C 86.26305389404297 24.88080596923828 83.05403900146484 20.12148284912109 78.96625518798828 16.03372955322266 C 74.87848663330078 11.94596099853516 70.11916351318359 8.736930847167969 64.82049560546875 6.495796203613281 C 59.33623886108398 4.1761474609375 53.50879287719727 2.999992370605469 47.50000762939453 2.999992370605469 M 47.50000762939453 -7.62939453125e-06 C 73.73352813720703 -7.62939453125e-06 95.00000762939453 21.26644134521484 95.00000762939453 47.49993133544922 C 95.00000762939453 73.73342132568359 73.73352813720703 94.99985504150391 47.50000762939453 94.99985504150391 C 21.26648712158203 94.99985504150391 7.62939453125e-06 73.73342132568359 7.62939453125e-06 47.49993133544922 C 7.62939453125e-06 21.26644134521484 21.26648712158203 -7.62939453125e-06 47.50000762939453 -7.62939453125e-06 Z" stroke="none" fill="#453179"/>
                                      </g>
                                    </g>
                                  </g>
                                </g>
                              </g>
                            </g>
                          </g>
                        </g>
                      </g>
                    </g>
                  </g>
                </g>
              </g>
            </g>
          </g>
        </g>
      </g>
    </g>
    <g id="balance_3193206" transform="translate(7137.137 1696.831)">
      <g id="Grupo_1208114" data-name="Grupo 1208114" transform="translate(80.764 38.764)">
        <g id="XMLID_1_" transform="translate(0 0)">
          <path id="Trazado_1052596" data-name="Trazado 1052596" d="M1160.238,931.521a8.621,8.621,0,1,1-2.525-6.1A8.554,8.554,0,0,1,1160.238,931.521Z" transform="translate(-1092.832 -881.281)" fill="#96cc7f"/>
          <path id="Trazado_1052597" data-name="Trazado 1052597" d="M215.919,512.887a2.534,2.534,0,0,1-2.544,2.549H196.041a1.7,1.7,0,0,0-1.7,1.7v15.591H175.472V517.144a1.7,1.7,0,0,0-1.7-1.7H156.434a2.534,2.534,0,0,1-2.544-2.549,2.5,2.5,0,0,1,2.5-2.448H174.6a5.109,5.109,0,0,0,1.695-.288l2.645-.931,2.77,4.834,1.2-.826.888,2.381-1.637,9.49-.029.173.47.7,2.194,3.221,2.194-3.221.47-.691-.029-.173-1.637-9.49.893-2.381,1.2.826,2.784-4.863,2.88.979a5.143,5.143,0,0,0,1.642.274h18.241A2.475,2.475,0,0,1,215.919,512.887Z" transform="translate(-151.202 -487.44)" fill="#ffd15c"/>
          <path id="Trazado_1052598" data-name="Trazado 1052598" d="M807.148,999.5v22.014a4.123,4.123,0,0,1-4.124,4.123h-1.3a4.123,4.123,0,0,1-4.123-4.123V999.5h9.548Z" transform="translate(-764.012 -954.204)" fill="#ff4756"/>
          <path id="Trazado_1052599" data-name="Trazado 1052599" d="M914.395,265.077a1.831,1.831,0,0,1,.408,1.152v.216a1.832,1.832,0,0,1-1.829,1.829H912.1V264.4h.874A1.831,1.831,0,0,1,914.395,265.077Z" transform="translate(-873.016 -254.391)" fill="#fcb79b"/>
          <path id="Trazado_1052600" data-name="Trazado 1052600" d="M651.072,63.69v2.895a1.831,1.831,0,0,0-1.421-.677h-.874V64.439l-2.237-2.5c-2.683,2.683-8.746,2.5-8.746,2.5v1.469h-.874a1.817,1.817,0,0,0-1.421.677V63.748a7.786,7.786,0,1,1,15.572-.058Z" transform="translate(-609.694 -55.899)" fill="#4b5278"/>
          <path id="Trazado_1052601" data-name="Trazado 1052601" d="M687.422,490.626l-2.784,4.863-1.2-.826-1.887-1.306-1.891,1.306-1.2.826-2.77-4.834,2.7-.955,3.154,3.653,3.149-3.653Z" transform="translate(-647.964 -468.876)" fill="#ffd15c"/>
          <path id="Trazado_1052602" data-name="Trazado 1052602" d="M691.941,193.772a5.487,5.487,0,0,1-6.3,0,5.3,5.3,0,0,1-.734-.614,5.474,5.474,0,0,1-1.608-3.883V184.3s6.068.182,8.746-2.5l2.237,2.5v4.973A5.489,5.489,0,0,1,691.941,193.772Z" transform="translate(-655.199 -175.756)" fill="#fcdec6"/>
          <path id="Trazado_1052603" data-name="Trazado 1052603" d="M738.3,433.96v.048l-3.149,3.653L732,434.008V431.2a5.486,5.486,0,0,0,6.3,0v2.76Z" transform="translate(-701.561 -413.184)" fill="#fcdec6"/>
          <g id="Grupo_1208113" data-name="Grupo 1208113" transform="translate(24.27 24.482)">
            <path id="Trazado_1052604" data-name="Trazado 1052604" d="M747.528,652.363l-.475.7-2.189,3.216-2.194-3.216-.47-.7.029-.173,1.637-9.49h1.992l1.642,9.49Z" transform="translate(-735.542 -639.013)" fill="#ff4756"/>
            <path id="Trazado_1052605" data-name="Trazado 1052605" d="M762.078,567.206l-.893,2.381h-1.992l-.893-2.381,1.891-1.306Z" transform="translate(-750.869 -565.9)" fill="#ff4756"/>
            <path id="Trazado_1052606" data-name="Trazado 1052606" d="M612.822,999.5v22.014a4.123,4.123,0,0,1-4.123,4.123h-1.075a4.123,4.123,0,0,1-4.124-4.123V999.5Z" transform="translate(-603.5 -978.686)" fill="#ff4756"/>
          </g>
          <path id="Trazado_1052607" data-name="Trazado 1052607" d="M627.308,265.177a1.831,1.831,0,0,1,1.421-.677h.874v3.874h-.874a1.832,1.832,0,0,1-1.829-1.829v-.216A1.821,1.821,0,0,1,627.308,265.177Z" transform="translate(-601.506 -254.487)" fill="#fcb79b"/>
          <path id="Trazado_1052608" data-name="Trazado 1052608" d="M106.517,923a8.617,8.617,0,1,1-8.617,8.616A8.619,8.619,0,0,1,106.517,923Z" transform="translate(-97.9 -881.377)" fill="#ffd15c"/>
        </g>
      </g>
      <g id="Grupo_1208149" data-name="Grupo 1208149" transform="translate(79.9 37.9)">
        <g id="Grupo_1208133" data-name="Grupo 1208133" transform="translate(2.687 0)">
          <g id="Grupo_1208130" data-name="Grupo 1208130">
            <g id="Grupo_1208127" data-name="Grupo 1208127">
              <g id="Grupo_1208115" data-name="Grupo 1208115" transform="translate(27.756 18.025)">
                <path id="Trazado_1052609" data-name="Trazado 1052609" d="M718.113,421.58a.871.871,0,0,1-.653-.3l-3.149-3.653a.871.871,0,0,1-.211-.566v-2.794a.864.864,0,1,1,1.728,0v2.472l2.285,2.65,2.285-2.65v-2.477a.864.864,0,1,1,1.728,0v2.794a.88.88,0,0,1-.211.566l-3.149,3.653A.859.859,0,0,1,718.113,421.58Z" transform="translate(-714.1 -413.4)"/>
              </g>
              <g id="Grupo_1208118" data-name="Grupo 1208118" transform="translate(23.114)">
                <g id="Grupo_1208116" data-name="Grupo 1208116">
                  <path id="Trazado_1052610" data-name="Trazado 1052610" d="M634.705,46.555v2.914a.867.867,0,0,1-.864.864.844.844,0,0,1-.61-.254,1.2,1.2,0,0,0-.12-.154.848.848,0,0,1-.134-.461V46.55a6.938,6.938,0,0,0-6.9-6.922,6.83,6.83,0,0,0-4.877,2.026,6.964,6.964,0,0,0-2.074,4.959v2.851a.849.849,0,0,1-.134.461.906.906,0,0,0-.12.149.862.862,0,0,1-1.474-.61V46.613a8.684,8.684,0,0,1,2.578-6.183,8.553,8.553,0,0,1,6.072-2.53h.029a8.662,8.662,0,0,1,8.626,8.655Z" transform="translate(-617.4 -37.9)"/>
                </g>
                <g id="Grupo_1208117" data-name="Grupo 1208117" transform="translate(2.295 6.039)">
                  <path id="Trazado_1052611" data-name="Trazado 1052611" d="M677.7,166.485l-2.237-2.5a.876.876,0,0,0-.619-.288.865.865,0,0,0-.634.254c-2.376,2.376-8.026,2.247-8.112,2.247a.869.869,0,0,0-.893.864v4.973a6.513,6.513,0,0,0,.12,1.234,6.365,6.365,0,0,0,6.236,5.127,6.236,6.236,0,0,0,2.285-.427,6.391,6.391,0,0,0,3.951-4.7,6.513,6.513,0,0,0,.12-1.234v-4.964A.832.832,0,0,0,677.7,166.485Zm-3.475,9.337a4.628,4.628,0,0,1-7.287-3.787v-4.114c1.7-.053,5.415-.384,7.805-2.151l1.454,1.622v4.642A4.637,4.637,0,0,1,674.22,175.822Z" transform="translate(-665.2 -163.696)"/>
                </g>
              </g>
              <g id="Grupo_1208121" data-name="Grupo 1208121" transform="translate(0 20.822)">
                <g id="Grupo_1208119" data-name="Grupo 1208119">
                  <path id="Trazado_1052612" data-name="Trazado 1052612" d="M167.764,497.873h-9.433a.867.867,0,0,1-.864-.864V481.418a.841.841,0,0,0-.84-.84H139.293a3.445,3.445,0,0,1-2.448-1.032,3.3,3.3,0,0,1-.96-2.4,3.369,3.369,0,0,1,3.365-3.3h18.212a4.244,4.244,0,0,0,1.406-.24l5.348-1.886a.865.865,0,1,1,.576,1.632l-5.352,1.887a5.937,5.937,0,0,1-1.983.341H139.245a1.648,1.648,0,0,0-1.637,1.6,1.6,1.6,0,0,0,.466,1.157,1.708,1.708,0,0,0,1.214.514h17.339a2.571,2.571,0,0,1,2.568,2.568v14.732h8.569a.859.859,0,1,1,0,1.719Z" transform="translate(-135.884 -471.672)"/>
                </g>
                <g id="Grupo_1208120" data-name="Grupo 1208120" transform="translate(31.015 0.008)">
                  <path id="Trazado_1052613" data-name="Trazado 1052613" d="M792.3,498.027h-9.433a.864.864,0,1,1,0-1.728h8.569V481.571A2.571,2.571,0,0,1,794,479h17.334a1.716,1.716,0,0,0,1.214-.514,1.6,1.6,0,0,0,.466-1.157,1.645,1.645,0,0,0-1.637-1.6H793.137a5.943,5.943,0,0,1-1.92-.317l-5.6-1.9a.862.862,0,1,1,.557-1.632l5.6,1.9a4.251,4.251,0,0,0,1.363.226h18.241a3.369,3.369,0,0,1,3.365,3.3,3.3,3.3,0,0,1-.96,2.4,3.465,3.465,0,0,1-2.448,1.032H794a.841.841,0,0,0-.84.84v15.6a.862.862,0,0,1-.864.854Z" transform="translate(-782 -471.833)"/>
                </g>
              </g>
              <g id="Grupo_1208126" data-name="Grupo 1208126" transform="translate(25.189 22.02)">
                <g id="Grupo_1208122" data-name="Grupo 1208122">
                  <path id="Trazado_1052614" data-name="Trazado 1052614" d="M670.287,502.946a.857.857,0,0,1-.49-.154L667.205,501l-2.592,1.791a.858.858,0,0,1-1.238-.278l-2.635-4.594a.865.865,0,1,1,1.5-.859l2.16,3.773,2.309-1.6a.859.859,0,0,1,.984,0l2.309,1.6,2.16-3.773a.865.865,0,1,1,1.5.859l-2.631,4.589a.855.855,0,0,1-.557.413A.679.679,0,0,1,670.287,502.946Z" transform="translate(-660.625 -496.625)"/>
                </g>
                <g id="Grupo_1208125" data-name="Grupo 1208125" transform="translate(3.054 3.764)">
                  <g id="Grupo_1208123" data-name="Grupo 1208123" transform="translate(0 2.384)">
                    <path id="Trazado_1052615" data-name="Trazado 1052615" d="M731.284,635.088l-.029-.173v0l-1.6-9.265-.038-.23a.865.865,0,0,0-.85-.715h-2a.857.857,0,0,0-.85.715l-.038.23-1.6,9.265-.029.173a.856.856,0,0,0,.139.629l2.664,3.912a.864.864,0,0,0,1.431,0l2.664-3.912a.874.874,0,0,0,.149-.485A1.212,1.212,0,0,0,731.284,635.088ZM727.77,637.6l-1.752-2.578,1.478-8.6h.542l1.483,8.6Z" transform="translate(-724.244 -624.7)"/>
                  </g>
                  <g id="Grupo_1208124" data-name="Grupo 1208124" transform="translate(0.763)">
                    <path id="Trazado_1052616" data-name="Trazado 1052616" d="M743.9,579.155h-2a.873.873,0,0,1-.811-.562l-.893-2.381a.866.866,0,1,1,1.622-.6l.682,1.819h.8l.682-1.819a.866.866,0,1,1,1.623.6l-.893,2.381A.868.868,0,0,1,743.9,579.155Z" transform="translate(-740.143 -575.043)"/>
                  </g>
                </g>
              </g>
            </g>
            <g id="Grupo_1208128" data-name="Grupo 1208128" transform="translate(21.583 45.296)">
              <path id="Trazado_1052617" data-name="Trazado 1052617" d="M591.563,1009.366h-1.075a4.993,4.993,0,0,1-4.988-4.987V982.364a.864.864,0,0,1,1.728,0v22.014a3.262,3.262,0,0,0,3.259,3.259h1.075a3.262,3.262,0,0,0,3.259-3.259.864.864,0,1,1,1.728,0A4.993,4.993,0,0,1,591.563,1009.366Z" transform="translate(-585.5 -981.5)"/>
            </g>
            <g id="Grupo_1208129" data-name="Grupo 1208129" transform="translate(30.9 45.296)">
              <path id="Trazado_1052618" data-name="Trazado 1052618" d="M785.888,1009.366h-1.3a4.993,4.993,0,0,1-4.987-4.987V982.364a.864.864,0,0,1,1.728,0v22.014a3.262,3.262,0,0,0,3.259,3.259h1.3a3.262,3.262,0,0,0,3.259-3.259V982.364a.864.864,0,0,1,1.728,0v22.014A4.993,4.993,0,0,1,785.888,1009.366Z" transform="translate(-779.6 -981.5)"/>
            </g>
          </g>
          <g id="Grupo_1208131" data-name="Grupo 1208131" transform="translate(36.397 10.009)">
            <path id="Trazado_1052619" data-name="Trazado 1052619" d="M898.123,247.672a2.681,2.681,0,0,0-2.285-1.272h-.874a.867.867,0,0,0-.864.864v3.874a.867.867,0,0,0,.864.864h.874a2.7,2.7,0,0,0,2.693-2.693v-.216A2.669,2.669,0,0,0,898.123,247.672Zm-1.32,1.637a.965.965,0,0,1-.965.965h-.01v-2.146h.01a.961.961,0,0,1,.691.293.951.951,0,0,1,.12.154.97.97,0,0,1,.154.523Z" transform="translate(-894.1 -246.4)"/>
          </g>
          <g id="Grupo_1208132" data-name="Grupo 1208132" transform="translate(22.706 10.009)">
            <path id="Trazado_1052620" data-name="Trazado 1052620" d="M612.467,246.4h-.874a2.639,2.639,0,0,0-.557.058,2.7,2.7,0,0,0-2.136,2.635v.216A2.7,2.7,0,0,0,611.593,252h.874a.867.867,0,0,0,.864-.864v-3.874A.864.864,0,0,0,612.467,246.4Zm-1.839,2.909v-.216a.97.97,0,0,1,.154-.523.71.71,0,0,1,.12-.149.961.961,0,0,1,.691-.293h.01v2.146h-.01a.968.968,0,0,1-.965-.965Z" transform="translate(-608.9 -246.4)"/>
          </g>
        </g>
        <g id="Grupo_1208134" data-name="Grupo 1208134" transform="translate(8.617 27.995)">
          <path id="Trazado_1052621" data-name="Trazado 1052621" d="M260.264,636.456a.867.867,0,0,1-.864-.864V621.964a.864.864,0,1,1,1.728,0v13.628A.864.864,0,0,1,260.264,636.456Z" transform="translate(-259.4 -621.1)"/>
        </g>
        <g id="Grupo_1208135" data-name="Grupo 1208135" transform="translate(58.789 27.995)">
          <path id="Trazado_1052622" data-name="Trazado 1052622" d="M1305.464,636.456a.867.867,0,0,1-.864-.864V621.964a.864.864,0,1,1,1.728,0v13.628A.867.867,0,0,1,1305.464,636.456Z" transform="translate(-1304.6 -621.1)"/>
        </g>
        <g id="Grupo_1208141" data-name="Grupo 1208141" transform="translate(0 41.623)">
          <g id="Grupo_1208138" data-name="Grupo 1208138" transform="translate(8.617 3.912)">
            <g id="Grupo_1208136" data-name="Grupo 1208136">
              <path id="Trazado_1052623" data-name="Trazado 1052623" d="M260.264,989.183a.867.867,0,0,1-.864-.864v-.955a.864.864,0,0,1,1.728,0v.955A.863.863,0,0,1,260.264,989.183Z" transform="translate(-259.4 -986.5)"/>
            </g>
            <g id="Grupo_1208137" data-name="Grupo 1208137" transform="translate(0 8.458)">
              <path id="Trazado_1052624" data-name="Trazado 1052624" d="M260.264,1165.383a.867.867,0,0,1-.864-.864v-.955a.864.864,0,0,1,1.728,0v.955A.864.864,0,0,1,260.264,1165.383Z" transform="translate(-259.4 -1162.7)"/>
            </g>
          </g>
          <g id="Grupo_1208139" data-name="Grupo 1208139" transform="translate(0 0)">
            <path id="Trazado_1052625" data-name="Trazado 1052625" d="M90.245,905.038c-.283-.024-.571-.038-.864-.038s-.581.014-.864.038a9.485,9.485,0,1,0,1.728,0Zm-.864,17.2a7.752,7.752,0,1,1,7.757-7.757A7.761,7.761,0,0,1,89.381,922.238Z" transform="translate(-79.9 -905)"/>
          </g>
          <g id="Grupo_1208140" data-name="Grupo 1208140" transform="translate(6.227 5.324)">
            <path id="Trazado_1052626" data-name="Trazado 1052626" d="M215.78,1020.36a2.655,2.655,0,0,0-1.109-.888,9.956,9.956,0,0,0-1.68-.49l-.038-.01a3.244,3.244,0,0,1-1.2-.4.382.382,0,0,1-.134-.317.522.522,0,0,1,.235-.427,1.583,1.583,0,0,1,.989-.221h.014a1.529,1.529,0,0,1,.965.25.892.892,0,0,1,.288.456.9.9,0,0,0,1.728-.5,2.58,2.58,0,0,0-.317-.691,2.488,2.488,0,0,0-1.133-.922,4.04,4.04,0,0,0-1.512-.293h-.067a3.93,3.93,0,0,0-1.488.278,2.354,2.354,0,0,0-1.1.883,2.27,2.27,0,0,0-.379,1.253,2.048,2.048,0,0,0,.322,1.128,2.371,2.371,0,0,0,.931.821,7.021,7.021,0,0,0,1.493.49l.178.043a9.974,9.974,0,0,1,1.051.293,1.043,1.043,0,0,1,.461.288.5.5,0,0,1,.106.326.6.6,0,0,1-.12.365.922.922,0,0,1-.427.293,2.268,2.268,0,0,1-.806.134,1.314,1.314,0,0,1-.139,0,2.283,2.283,0,0,1-.792-.173,1.219,1.219,0,0,1-.538-.4,1.344,1.344,0,0,1-.168-.384.9.9,0,0,0-1.743.437,2.893,2.893,0,0,0,.389.912,2.757,2.757,0,0,0,1.229,1.018,4.347,4.347,0,0,0,1.589.317c.072,0,.144,0,.216,0a3.752,3.752,0,0,0,1.565-.322,2.594,2.594,0,0,0,1.128-.951,2.335,2.335,0,0,0,.014-2.587Z" transform="translate(-209.627 -1015.9)"/>
          </g>
        </g>
        <g id="Grupo_1208148" data-name="Grupo 1208148" transform="translate(50.168 41.623)">
          <g id="Grupo_1208142" data-name="Grupo 1208142" transform="translate(0.005 0.005)">
            <path id="Trazado_1052627" data-name="Trazado 1052627" d="M1141.287,907.875a9.4,9.4,0,0,0-5.842-2.736c-.288-.024-.576-.038-.864-.038s-.581.014-.864.038a9.476,9.476,0,1,0,7.57,2.736Zm-1.224,12.188a7.7,7.7,0,0,1-4.618,2.223,7.806,7.806,0,0,1-1.728,0,7.753,7.753,0,0,1-6.84-6.84,7.785,7.785,0,0,1,0-1.728,7.753,7.753,0,0,1,6.84-6.84,7.786,7.786,0,0,1,1.728,0,7.753,7.753,0,0,1,6.84,6.84,7.8,7.8,0,0,1,0,1.728A7.712,7.712,0,0,1,1140.063,920.063Z" transform="translate(-1125.1 -905.1)"/>
          </g>
          <g id="Grupo_1208143" data-name="Grupo 1208143" transform="translate(8.621 5.012)">
            <path id="Trazado_1052628" data-name="Trazado 1052628" d="M1308.378,1017.652a.862.862,0,0,1-.61-.255l-2.914-2.914a.866.866,0,0,1-.254-.61v-3.61a.864.864,0,0,1,1.728,0v3.25l2.664,2.664a.869.869,0,0,1,0,1.224A.9.9,0,0,1,1308.378,1017.652Z" transform="translate(-1304.6 -1009.4)"/>
          </g>
          <g id="Grupo_1208144" data-name="Grupo 1208144" transform="translate(8.621 0)">
            <path id="Trazado_1052629" data-name="Trazado 1052629" d="M1305.464,908.749a.867.867,0,0,1-.864-.864v-2.021a.864.864,0,0,1,1.728,0v2.021A.867.867,0,0,1,1305.464,908.749Z" transform="translate(-1304.6 -905)"/>
          </g>
          <g id="Grupo_1208145" data-name="Grupo 1208145" transform="translate(8.621 15.217)">
            <path id="Trazado_1052630" data-name="Trazado 1052630" d="M1305.464,1225.749a.867.867,0,0,1-.864-.864v-2.021a.864.864,0,0,1,1.728,0v2.021A.867.867,0,0,1,1305.464,1225.749Z" transform="translate(-1304.6 -1222)"/>
          </g>
          <g id="Grupo_1208146" data-name="Grupo 1208146" transform="translate(0 8.617)">
            <path id="Trazado_1052631" data-name="Trazado 1052631" d="M1127.885,1086.228h-2.021a.864.864,0,0,1,0-1.728h2.021a.864.864,0,0,1,0,1.728Z" transform="translate(-1125 -1084.5)"/>
          </g>
          <g id="Grupo_1208147" data-name="Grupo 1208147" transform="translate(15.217 8.617)">
            <path id="Trazado_1052632" data-name="Trazado 1052632" d="M1444.885,1086.228h-2.021a.864.864,0,0,1,0-1.728h2.021a.864.864,0,0,1,0,1.728Z" transform="translate(-1442 -1084.5)"/>
          </g>
        </g>
      </g>
    </g>
  </g>
</svg>
